<!-- Generated by IcoMoon.io -->
<svg version="1.1" xmlns="http://www.w3.org/2000/svg" width="32" height="32" viewBox="0 0 32 32">
<title>a-circle-fill</title>
<path d="M15.956 27.206c6.154 0 11.25-5.107 11.25-11.25 0-6.154-5.107-11.25-11.261-11.25-6.143 0-11.239 5.096-11.239 11.25 0 6.143 5.107 11.25 11.25 11.25zM12.217 21.283c-0.518 0-0.849-0.32-0.849-0.783 0-0.176 0.022-0.342 0.121-0.596l3.188-8.581c0.232-0.596 0.651-0.904 1.268-0.904 0.629 0 1.059 0.309 1.279 0.904l3.198 8.581c0.088 0.254 0.121 0.419 0.121 0.596 0 0.463-0.342 0.783-0.849 0.783-0.419 0-0.706-0.199-0.882-0.728l-0.827-2.415h-4.059l-0.827 2.415c-0.176 0.541-0.474 0.728-0.882 0.728zM14.379 16.761h3.143l-1.511-4.39h-0.121l-1.511 4.39z"></path>
</svg>
