<!-- Generated by IcoMoon.io -->
<svg version="1.1" xmlns="http://www.w3.org/2000/svg" width="32" height="32" viewBox="0 0 32 32">
<title>a-circle</title>
<path d="M15.956 27.206c6.154 0 11.25-5.107 11.25-11.25 0-6.154-5.107-11.25-11.261-11.25-6.143 0-11.239 5.096-11.239 11.25 0 6.143 5.107 11.25 11.25 11.25zM15.956 25.331c-5.206 0-9.364-4.169-9.364-9.375s4.147-9.375 9.353-9.375c5.206 0 9.386 4.169 9.386 9.375s-4.169 9.375-9.375 9.375zM12.316 21.151c0.397 0 0.684-0.188 0.849-0.706l0.805-2.349h3.949l0.805 2.349c0.165 0.507 0.441 0.706 0.849 0.706 0.485 0 0.816-0.32 0.816-0.761 0-0.176-0.044-0.331-0.121-0.574l-3.099-8.327c-0.21-0.573-0.629-0.871-1.235-0.871-0.596 0-1.004 0.298-1.224 0.871l-3.088 8.327c-0.088 0.243-0.121 0.397-0.121 0.562 0 0.463 0.32 0.772 0.816 0.772zM14.412 16.772l1.467-4.268h0.121l1.467 4.268h-3.055z"></path>
</svg>
