<!-- Generated by IcoMoon.io -->
<svg version="1.1" xmlns="http://www.w3.org/2000/svg" width="32" height="32" viewBox="0 0 32 32">
<title>a-magnify</title>
<path d="M18.706 27.022c5.835 0 10.688-4.853 10.688-10.687s-4.864-10.688-10.699-10.688-10.677 4.853-10.677 10.688c0 5.835 4.853 10.687 10.688 10.687zM18.706 25.224c-4.952 0-8.879-3.938-8.879-8.89s3.915-8.901 8.868-8.901c4.952 0 8.89 3.949 8.912 8.901 0.011 4.952-3.949 8.89-8.901 8.89zM11.228 23.239l-0.75-1.081c-0.695 0.419-1.511 0.64-2.404 0.64-1.886 0-3.176-1.015-3.176-2.559 0-1.5 1.213-2.46 3.386-2.603l0.805-0.055-0.331-1.599-0.717 0.066c-3.342 0.287-5.217 1.743-5.217 4.213 0 2.559 1.952 4.279 4.809 4.279 1.346 0 2.625-0.496 3.596-1.301zM10.301 11.515l1.092-1.588c-0.695-0.243-1.467-0.364-2.349-0.364-2.449 0-4.5 1.136-5.283 2.812-0.165 0.331-0.265 0.673-0.265 0.949 0 0.563 0.375 0.927 0.904 0.927 0.397 0 0.673-0.165 0.849-0.529 0.75-1.654 1.974-2.36 3.75-2.36 0.474 0 0.915 0.055 1.301 0.154zM19.346 26.029l2.36-0.022v-12.662c0-3.232-2.018-5.426-5.426-5.901-0.43-0.055-0.882-0.088-1.335-0.099l-2.382 2.426c0.651-0.187 1.357-0.287 2.206-0.287 2.79 0 4.445 1.533 4.445 4.114v1.621l-5.669 0.342c-1.643 0.11-3.011 0.474-4.048 1.081l0.452 2.581c0.673-1.004 2.029-1.599 3.904-1.732l5.36-0.353v1.941c0 2.68-2.162 4.809-5.029 5.074l1.82 1.555c1.445-0.562 2.603-1.511 3.198-2.691h0.143v3.011z"></path>
</svg>
