<!-- Generated by IcoMoon.io -->
<svg version="1.1" xmlns="http://www.w3.org/2000/svg" width="32" height="32" viewBox="0 0 32 32">
<title>a-square-fill</title>
<path d="M9.11 25.974h13.379c2.316 0 3.463-1.147 3.463-3.419v-13.467c0-2.272-1.147-3.419-3.463-3.419h-13.379c-2.305 0-3.463 1.136-3.463 3.419v13.467c0 2.283 1.158 3.419 3.463 3.419zM12.066 21.132c-0.507 0-0.849-0.32-0.849-0.783 0-0.176 0.033-0.342 0.121-0.596l3.187-8.581c0.232-0.596 0.651-0.904 1.268-0.904 0.629 0 1.059 0.309 1.29 0.904l3.188 8.581c0.088 0.254 0.121 0.419 0.121 0.596 0 0.463-0.342 0.783-0.849 0.783-0.408 0-0.706-0.198-0.882-0.728l-0.827-2.415h-4.059l-0.827 2.415c-0.176 0.54-0.474 0.728-0.882 0.728zM14.228 16.61h3.154l-1.522-4.39h-0.11l-1.522 4.39z"></path>
</svg>
