<!-- Generated by IcoMoon.io -->
<svg version="1.1" xmlns="http://www.w3.org/2000/svg" width="32" height="32" viewBox="0 0 32 32">
<title>a-square</title>
<path d="M9.11 25.974h13.379c2.316 0 3.463-1.147 3.463-3.419v-13.467c0-2.272-1.147-3.419-3.463-3.419h-13.379c-2.305 0-3.463 1.136-3.463 3.419v13.467c0 2.283 1.158 3.419 3.463 3.419zM9.132 24.198c-1.103 0-1.71-0.585-1.71-1.732v-13.29c0-1.147 0.607-1.732 1.71-1.732h13.335c1.092 0 1.71 0.585 1.71 1.732v13.29c0 1.147-0.618 1.732-1.71 1.732h-13.335zM12.176 21c0.397 0 0.684-0.187 0.849-0.706l0.805-2.349h3.949l0.805 2.349c0.165 0.507 0.452 0.706 0.849 0.706 0.485 0 0.816-0.32 0.816-0.761 0-0.176-0.044-0.331-0.121-0.574l-3.088-8.327c-0.221-0.574-0.64-0.871-1.246-0.871-0.596 0-1.004 0.298-1.224 0.871l-3.088 8.327c-0.077 0.243-0.121 0.397-0.121 0.563 0 0.463 0.331 0.772 0.816 0.772zM14.272 16.621l1.478-4.268h0.11l1.478 4.268h-3.066z"></path>
</svg>
