<!-- Generated by IcoMoon.io -->
<svg version="1.1" xmlns="http://www.w3.org/2000/svg" width="32" height="32" viewBox="0 0 32 32">
<title>abc</title>
<path d="M1.183 21.647c0.418 0 0.623-0.181 0.773-0.615l1.017-2.792h4.653l1.017 2.792c0.15 0.434 0.355 0.615 0.765 0.615 0.418 0 0.686-0.276 0.686-0.67 0-0.134-0.024-0.252-0.087-0.426l-3.699-9.843c-0.181-0.489-0.505-0.757-1.010-0.757-0.489 0-0.82 0.268-0.994 0.749l-3.699 9.859c-0.063 0.174-0.087 0.292-0.087 0.426 0 0.394 0.252 0.663 0.662 0.663zM3.359 17.049l1.917-5.308h0.039l1.917 5.308h-3.873zM12.232 21.419h3.833c2.5 0 4.007-1.23 4.007-3.1 0-1.57-1.136-2.666-2.753-2.847v-0.055c1.246-0.205 2.161-1.294 2.161-2.563 0-1.585-1.38-2.721-3.455-2.721h-3.794c-0.442 0-0.726 0.284-0.726 0.741v9.804c0 0.45 0.284 0.741 0.726 0.741zM12.998 15.014v-3.62h2.69c1.443 0 2.311 0.67 2.311 1.672 0 1.23-0.97 1.948-2.634 1.948h-2.366zM12.998 20.164v-3.975h2.658c1.877 0 2.895 0.718 2.895 2.043 0 1.199-0.986 1.932-2.761 1.932h-2.792zM26.571 21.608c2.011 0 3.589-0.868 4.362-2.374 0.158-0.3 0.252-0.615 0.252-0.899 0-0.387-0.276-0.647-0.663-0.647-0.315 0-0.489 0.126-0.67 0.52-0.536 1.341-1.672 2.082-3.281 2.082-2.295 0-3.762-1.735-3.762-4.543 0-2.761 1.467-4.488 3.762-4.488 1.514 0 2.737 0.883 3.25 2.248 0.181 0.394 0.394 0.56 0.733 0.56 0.394 0 0.655-0.26 0.655-0.647 0-0.205-0.039-0.434-0.134-0.678-0.623-1.735-2.429-2.8-4.504-2.8-3.21 0-5.253 2.232-5.253 5.813 0 3.612 2.027 5.852 5.253 5.852z"></path>
</svg>
