<!-- Generated by IcoMoon.io -->
<svg version="1.1" xmlns="http://www.w3.org/2000/svg" width="32" height="32" viewBox="0 0 32 32">
<title>abs-circle</title>
<path d="M15.956 27.206c6.154 0 11.25-5.107 11.25-11.25 0-6.154-5.107-11.25-11.261-11.25-6.143 0-11.239 5.096-11.239 11.25 0 6.143 5.107 11.25 11.25 11.25zM15.956 25.331c-5.206 0-9.364-4.169-9.364-9.375s4.147-9.375 9.353-9.375c5.206 0 9.386 4.169 9.386 9.375s-4.169 9.375-9.375 9.375zM9.713 19.32c0.419 0 0.596-0.221 0.673-0.64l0.165-0.838h1.412l0.176 0.86c0.077 0.408 0.287 0.618 0.695 0.618 0.386 0 0.64-0.276 0.64-0.662 0-0.11-0.033-0.32-0.066-0.441l-1.081-4.776c-0.132-0.629-0.529-0.849-1.081-0.849-0.54 0-0.915 0.265-1.037 0.849l-1.081 4.776c-0.044 0.209-0.055 0.331-0.055 0.441 0 0.397 0.254 0.662 0.64 0.662zM10.717 16.849l0.507-2.691h0.033l0.529 2.691h-1.070zM15.007 19.221h1.621c1.059 0 1.643-0.794 1.643-1.864 0-0.772-0.474-1.544-1.169-1.566v-0.055c0.618-0.099 1.026-0.783 1.026-1.423 0-0.827-0.441-1.621-1.555-1.621h-1.566c-0.463 0-0.684 0.265-0.684 0.717v5.085c0 0.441 0.243 0.728 0.684 0.728zM15.669 18.228v-1.941h0.474c0.529 0 0.761 0.419 0.761 0.96 0 0.529-0.221 0.982-0.75 0.982h-0.485zM15.669 15.415v-1.732h0.496c0.485 0 0.662 0.364 0.662 0.849 0 0.507-0.221 0.882-0.728 0.882h-0.43zM20.864 19.364c1.136 0 1.941-0.673 1.941-1.941 0-0.893-0.353-1.412-1.279-1.886l-0.386-0.198c-0.485-0.243-0.805-0.485-0.805-1.015 0-0.364 0.154-0.706 0.529-0.706 0.364 0 0.562 0.331 0.629 0.684 0.055 0.276 0.298 0.441 0.629 0.441 0.342 0 0.551-0.232 0.551-0.574 0-0.132-0.022-0.276-0.088-0.419-0.21-0.662-0.838-1.213-1.721-1.213-1.114 0-1.864 0.728-1.864 1.908 0 0.938 0.474 1.478 1.268 1.886l0.397 0.198c0.463 0.232 0.805 0.463 0.805 1.004 0 0.43-0.21 0.75-0.585 0.75s-0.585-0.287-0.662-0.651c-0.11-0.375-0.375-0.485-0.64-0.485-0.298 0-0.574 0.243-0.574 0.607 0 0.11 0.011 0.254 0.055 0.364 0.232 0.794 0.838 1.246 1.798 1.246z"></path>
</svg>
