<!-- Generated by IcoMoon.io -->
<svg version="1.1" xmlns="http://www.w3.org/2000/svg" width="32" height="32" viewBox="0 0 32 32">
<title>abs-brakesignal</title>
<path d="M15.739 27.154c5.879 0 10.765-4.875 10.765-10.754s-4.886-10.754-10.776-10.754c-5.879 0-10.743 4.864-10.743 10.754 0 5.879 4.875 10.754 10.754 10.754zM15.739 25.279c-4.919 0-8.868-3.949-8.868-8.879 0-4.941 3.938-8.89 8.857-8.89 4.93 0 8.89 3.949 8.901 8.89 0.011 4.919-3.949 8.879-8.89 8.879zM0 16.401c0 3.496 1.136 6.706 3.055 9.32 0.342 0.474 0.926 0.518 1.368 0.165 0.397-0.342 0.452-0.871 0.132-1.312-1.676-2.283-2.669-5.118-2.669-8.173 0-3.066 0.993-5.89 2.669-8.195 0.32-0.419 0.276-0.96-0.132-1.301-0.441-0.353-1.026-0.298-1.368 0.165-1.919 2.614-3.055 5.835-3.055 9.331zM31.478 16.401c0-3.496-1.125-6.717-3.055-9.331-0.342-0.463-0.927-0.518-1.368-0.165-0.408 0.342-0.441 0.882-0.132 1.301 1.687 2.305 2.669 5.129 2.669 8.195 0 3.055-0.982 5.89-2.669 8.173-0.309 0.441-0.265 0.971 0.132 1.312 0.441 0.353 1.026 0.309 1.368-0.165 1.93-2.614 3.055-5.824 3.055-9.32zM9.496 19.765c0.419 0 0.596-0.221 0.673-0.64l0.165-0.838h1.412l0.176 0.86c0.077 0.408 0.287 0.618 0.695 0.618 0.386 0 0.64-0.276 0.64-0.662 0-0.11-0.033-0.32-0.055-0.441l-1.092-4.776c-0.132-0.629-0.529-0.849-1.081-0.849-0.541 0-0.915 0.265-1.037 0.849l-1.070 4.776c-0.055 0.21-0.066 0.331-0.066 0.441 0 0.397 0.254 0.662 0.64 0.662zM10.5 17.294l0.507-2.691h0.033l0.529 2.691h-1.070zM14.79 19.665h1.621c1.059 0 1.643-0.794 1.643-1.864 0-0.772-0.474-1.544-1.169-1.566v-0.055c0.618-0.099 1.026-0.783 1.026-1.423 0-0.827-0.441-1.621-1.555-1.621h-1.566c-0.463 0-0.684 0.265-0.684 0.717v5.085c0 0.441 0.243 0.728 0.684 0.728zM15.452 18.673v-1.941h0.474c0.529 0 0.761 0.419 0.761 0.96 0 0.529-0.221 0.982-0.75 0.982h-0.485zM15.452 15.86v-1.732h0.496c0.485 0 0.662 0.364 0.662 0.849 0 0.507-0.221 0.882-0.728 0.882h-0.43zM20.647 19.809c1.147 0 1.941-0.673 1.941-1.941 0-0.893-0.353-1.412-1.279-1.886l-0.386-0.199c-0.485-0.243-0.805-0.485-0.805-1.015 0-0.364 0.154-0.706 0.529-0.706 0.364 0 0.574 0.331 0.629 0.684 0.055 0.276 0.298 0.441 0.629 0.441 0.342 0 0.552-0.232 0.552-0.574 0-0.132-0.022-0.276-0.088-0.419-0.209-0.662-0.838-1.213-1.721-1.213-1.114 0-1.864 0.728-1.864 1.908 0 0.938 0.474 1.478 1.268 1.886l0.397 0.199c0.463 0.232 0.816 0.463 0.816 1.004 0 0.43-0.21 0.75-0.596 0.75-0.375 0-0.585-0.287-0.662-0.651-0.11-0.375-0.364-0.485-0.64-0.485-0.298 0-0.573 0.243-0.573 0.607 0 0.11 0.022 0.254 0.055 0.364 0.232 0.794 0.838 1.246 1.798 1.246z"></path>
</svg>
