<!-- Generated by IcoMoon.io -->
<svg version="1.1" xmlns="http://www.w3.org/2000/svg" width="32" height="32" viewBox="0 0 32 32">
<title>abs-circle-fill</title>
<path d="M15.956 27.206c6.154 0 11.25-5.107 11.25-11.25 0-6.154-5.107-11.25-11.261-11.25-6.143 0-11.239 5.096-11.239 11.25 0 6.143 5.107 11.25 11.25 11.25zM9.537 19.419c-0.408 0-0.662-0.276-0.662-0.684 0-0.11 0.011-0.243 0.055-0.463l1.103-4.897c0.132-0.607 0.518-0.882 1.081-0.882 0.574 0 0.982 0.232 1.114 0.882l1.114 4.897c0.033 0.132 0.066 0.353 0.066 0.463 0 0.397-0.265 0.684-0.662 0.684-0.419 0-0.64-0.221-0.717-0.64l-0.176-0.871h-1.456l-0.165 0.849c-0.077 0.43-0.265 0.662-0.695 0.662zM10.574 16.871h1.092l-0.54-2.757h-0.033l-0.518 2.757zM14.996 19.32c-0.463 0-0.717-0.298-0.717-0.761v-5.217c0-0.474 0.232-0.75 0.717-0.75h1.61c1.147 0 1.599 0.816 1.599 1.677 0 0.651-0.419 1.357-1.059 1.456v0.066c0.717 0.022 1.213 0.816 1.213 1.61 0 1.103-0.607 1.919-1.699 1.919h-1.665zM15.68 18.294h0.496c0.54 0 0.761-0.463 0.761-1.015s-0.232-0.982-0.772-0.982h-0.485v1.996zM15.68 15.393h0.43c0.529 0 0.75-0.375 0.75-0.904 0-0.496-0.176-0.871-0.673-0.871h-0.507v1.776zM21.029 19.463c-0.993 0-1.621-0.463-1.853-1.279-0.044-0.11-0.055-0.265-0.055-0.375 0-0.375 0.276-0.629 0.585-0.629 0.276 0 0.551 0.11 0.662 0.507 0.088 0.364 0.298 0.662 0.684 0.662s0.596-0.331 0.596-0.772c0-0.552-0.353-0.794-0.827-1.026l-0.408-0.209c-0.816-0.419-1.312-0.971-1.312-1.941 0-1.213 0.783-1.963 1.93-1.963 0.904 0 1.555 0.563 1.776 1.246 0.066 0.143 0.088 0.298 0.088 0.43 0 0.353-0.221 0.596-0.574 0.596-0.342 0-0.596-0.165-0.651-0.452-0.066-0.364-0.265-0.706-0.64-0.706-0.386 0-0.541 0.353-0.541 0.728 0 0.54 0.331 0.794 0.827 1.037l0.397 0.21c0.949 0.485 1.312 1.015 1.312 1.941 0 1.301-0.827 1.996-1.996 1.996z"></path>
</svg>
