<!-- Generated by IcoMoon.io -->
<svg version="1.1" xmlns="http://www.w3.org/2000/svg" width="32" height="32" viewBox="0 0 32 32">
<title>abs</title>
<path d="M1.31 24.312c0.539 0 0.864-0.285 0.976-0.823l0.803-3.69h4.361l0.823 3.7c0.112 0.539 0.447 0.813 0.986 0.813 0.518 0 0.935-0.376 0.935-0.895 0-0.091-0.020-0.203-0.041-0.295l-3.365-14.334c-0.183-0.803-0.681-1.342-1.515-1.342-0.874 0-1.301 0.508-1.494 1.352l-3.314 14.121c-0.041 0.142-0.081 0.366-0.081 0.498 0 0.579 0.376 0.895 0.925 0.895zM3.435 18.172l1.769-8.184h0.091l1.799 8.184h-3.66zM13.428 24.079h3.528c2.633 0 4.077-1.82 4.077-4.554 0-1.86-0.874-3.772-2.724-4.046v-0.081c1.433-0.346 2.196-2.176 2.196-3.65 0-2.338-1.332-4.077-3.619-4.077h-3.456c-0.62 0-0.945 0.427-0.945 1.037v14.344c0 0.569 0.285 1.027 0.945 1.027zM14.384 22.401v-5.967h1.982c1.83 0 2.694 1.159 2.694 2.979 0 1.759-0.793 2.989-2.582 2.989h-2.094zM14.384 14.827v-5.469h2.003c1.535 0 2.196 1.098 2.196 2.633 0 1.677-0.773 2.836-2.44 2.836h-1.759zM27.274 24.394c2.796 0 4.198-1.962 4.198-4.605 0-2.42-1.088-3.578-3.273-4.717l-0.823-0.437c-1.291-0.681-2.186-1.464-2.186-2.999 0-1.372 0.661-2.552 2.003-2.552 1.291 0 2.023 1.057 2.237 2.43 0.091 0.539 0.478 0.762 0.915 0.762 0.508 0 0.823-0.386 0.823-0.895 0-1.423-1.189-4.026-3.975-4.026-2.409 0-3.914 1.911-3.914 4.412 0 2.348 1.2 3.578 3.243 4.646l0.844 0.427c1.383 0.732 2.206 1.535 2.206 3.101 0 1.515-0.752 2.724-2.257 2.724-1.403 0-2.206-1.139-2.42-2.572-0.102-0.559-0.518-0.763-0.905-0.763-0.539 0-0.834 0.427-0.834 0.986 0 1.535 1.22 4.077 4.117 4.077z"></path>
</svg>
