<!-- Generated by IcoMoon.io -->
<svg version="1.1" xmlns="http://www.w3.org/2000/svg" width="32" height="32" viewBox="0 0 32 32">
<title>air-conditioner-vertical</title>
<path d="M19.533 11.316c0.243 0 0.419-0.221 0.397-0.463l-0.055-0.915 0.761 0.518c0.187 0.121 0.474 0.077 0.607-0.132 0.143-0.21 0.044-0.496-0.198-0.596l-0.827-0.408 0.849-0.419c0.21-0.11 0.309-0.375 0.187-0.596-0.11-0.199-0.419-0.265-0.629-0.121l-0.75 0.518 0.066-0.915c0.022-0.243-0.154-0.463-0.408-0.463-0.265 0-0.441 0.199-0.419 0.452l0.055 0.937-0.772-0.529c-0.21-0.132-0.474-0.099-0.596 0.121-0.132 0.221-0.044 0.485 0.176 0.596l0.827 0.419-0.816 0.397c-0.232 0.099-0.331 0.375-0.199 0.607 0.11 0.21 0.397 0.254 0.607 0.132l0.772-0.518-0.044 0.915c-0.011 0.254 0.154 0.463 0.408 0.463zM25.555 24.739c0.254 0 0.441-0.199 0.419-0.452l-0.055-0.927 0.772 0.529c0.198 0.132 0.474 0.088 0.585-0.121 0.132-0.232 0.044-0.496-0.176-0.596l-0.827-0.419 0.816-0.419c0.243-0.088 0.331-0.364 0.21-0.596-0.11-0.21-0.408-0.265-0.607-0.132l-0.772 0.518 0.044-0.915c0.011-0.254-0.165-0.452-0.408-0.452s-0.419 0.209-0.397 0.452l0.055 0.926-0.772-0.518c-0.177-0.121-0.463-0.077-0.596 0.121-0.143 0.209-0.044 0.507 0.199 0.607l0.816 0.408-0.838 0.419c-0.209 0.11-0.309 0.364-0.187 0.596 0.11 0.198 0.419 0.265 0.618 0.121l0.761-0.518-0.066 0.904c-0.022 0.243 0.154 0.463 0.408 0.463zM5.327 29.327h6.838c1.522 0 2.504-0.971 2.504-2.46v-21.585c0-1.489-0.982-2.46-2.504-2.46h-6.838c-1.522 0-2.504 0.971-2.504 2.46v21.585c0 1.489 0.982 2.46 2.504 2.46zM5.36 27.551c-0.474 0-0.761-0.298-0.761-0.783v-21.386c0-0.485 0.287-0.783 0.761-0.783h6.772c0.474 0 0.761 0.298 0.761 0.783v21.386c0 0.485-0.287 0.783-0.761 0.783h-6.772zM11.228 11.57c0.309 0 0.551-0.254 0.551-0.563v-4.357c0-0.309-0.243-0.563-0.551-0.563-0.32 0-0.563 0.254-0.563 0.563v4.357c0 0.309 0.243 0.563 0.563 0.563zM8.956 11.57c0.298 0 0.552-0.254 0.552-0.563v-4.357c0-0.309-0.254-0.563-0.552-0.563-0.32 0-0.574 0.254-0.574 0.563v4.357c0 0.309 0.254 0.563 0.574 0.563zM11.228 18.772c0.309 0 0.551-0.243 0.551-0.562v-4.357c0-0.309-0.243-0.552-0.551-0.552-0.32 0-0.563 0.243-0.563 0.552v4.357c0 0.32 0.243 0.562 0.563 0.562zM8.956 18.772c0.298 0 0.552-0.243 0.552-0.562v-4.357c0-0.309-0.254-0.552-0.552-0.552-0.32 0-0.574 0.243-0.574 0.552v4.357c0 0.32 0.254 0.562 0.574 0.562zM11.228 25.996c0.309 0 0.551-0.254 0.551-0.551v-4.357c0-0.32-0.243-0.562-0.551-0.562-0.32 0-0.563 0.243-0.563 0.562v4.357c0 0.298 0.243 0.551 0.563 0.551zM8.956 25.996c0.298 0 0.552-0.254 0.552-0.551v-4.357c0-0.32-0.254-0.562-0.552-0.562-0.32 0-0.574 0.243-0.574 0.562v4.357c0 0.298 0.254 0.551 0.574 0.551zM19.026 14.746c2.945 0 4.467-2.393 7.037-2.393 0.596 0 1.103 0.121 1.732 0.474 0.397 0.221 0.75 0.066 0.927-0.187 0.221-0.32 0.199-0.805-0.287-1.081-0.728-0.43-1.522-0.64-2.371-0.64-2.989 0-4.511 2.404-7.037 2.404-0.596 0-1.103-0.132-1.743-0.496-0.375-0.21-0.739-0.066-0.927 0.221-0.198 0.309-0.176 0.794 0.287 1.059 0.728 0.452 1.533 0.64 2.382 0.64zM19.037 17.989c2.934 0 4.467-2.393 7.026-2.393 0.607 0 1.114 0.121 1.743 0.474 0.386 0.221 0.75 0.066 0.926-0.187 0.21-0.32 0.199-0.805-0.276-1.081-0.739-0.43-1.544-0.64-2.393-0.64-2.978 0-4.5 2.404-7.026 2.404-0.607 0-1.114-0.132-1.743-0.485-0.375-0.221-0.75-0.077-0.938 0.21-0.198 0.309-0.176 0.794 0.298 1.059 0.728 0.452 1.533 0.64 2.382 0.64zM19.026 21.232c2.945 0 4.467-2.393 7.037-2.393 0.596 0 1.103 0.121 1.732 0.485 0.397 0.221 0.75 0.055 0.927-0.198 0.221-0.32 0.199-0.805-0.287-1.081-0.728-0.43-1.522-0.64-2.371-0.64-2.989 0-4.511 2.404-7.037 2.404-0.596 0-1.103-0.132-1.743-0.485-0.375-0.221-0.739-0.077-0.927 0.21-0.198 0.309-0.176 0.805 0.287 1.070 0.728 0.441 1.533 0.629 2.382 0.629z"></path>
</svg>
