<!-- Generated by IcoMoon.io -->
<svg version="1.1" xmlns="http://www.w3.org/2000/svg" width="32" height="32" viewBox="0 0 32 32">
<title>air-purifier</title>
<path d="M9.055 26.813h9.949c2.25 0 3.397-1.147 3.397-3.364v-8.316c-0.596 0.353-1.191 0.662-1.776 0.915v7.312c0 1.081-0.618 1.677-1.654 1.677h-9.893c-1.037 0-1.654-0.596-1.654-1.677v-17.085c0-1.092 0.618-1.676 1.654-1.676h10.136c0.64-0.397 1.323-0.739 2.007-1.026-0.496-0.496-1.268-0.75-2.283-0.75h-9.882c-2.239 0-3.408 1.136-3.408 3.353v17.272c0 2.217 1.169 3.364 3.408 3.364zM10.346 9.221c0.849 0 1.555-0.706 1.555-1.566 0-0.849-0.706-1.544-1.555-1.544-0.86 0-1.555 0.695-1.555 1.544 0 0.86 0.695 1.566 1.555 1.566zM9.419 17.956h3.21c0.397 0 0.706-0.298 0.706-0.695 0-0.386-0.309-0.695-0.706-0.695h-3.21c-0.386 0-0.695 0.309-0.695 0.695 0 0.397 0.309 0.695 0.695 0.695zM9.419 20.713h3.21c0.397 0 0.706-0.298 0.706-0.695s-0.309-0.695-0.706-0.695h-3.21c-0.386 0-0.695 0.298-0.695 0.695s0.309 0.695 0.695 0.695zM9.419 23.471h3.21c0.397 0 0.706-0.309 0.706-0.695 0-0.397-0.309-0.706-0.706-0.706h-3.21c-0.386 0-0.695 0.309-0.695 0.706 0 0.386 0.309 0.695 0.695 0.695zM15.419 17.956h3.21c0.386 0 0.695-0.298 0.695-0.695 0-0.386-0.309-0.695-0.695-0.695h-3.21c-0.397 0-0.706 0.309-0.706 0.695 0 0.397 0.309 0.695 0.706 0.695zM15.419 20.713h3.21c0.386 0 0.695-0.298 0.695-0.695s-0.309-0.695-0.695-0.695h-3.21c-0.397 0-0.706 0.298-0.706 0.695s0.309 0.695 0.706 0.695zM15.419 23.471h3.21c0.386 0 0.695-0.309 0.695-0.695 0-0.397-0.309-0.706-0.695-0.706h-3.21c-0.397 0-0.706 0.309-0.706 0.706 0 0.386 0.309 0.695 0.706 0.695zM8.846 28.754c0.529 0 0.882-0.364 0.882-0.893v-2.162h-1.776v2.162c0 0.529 0.364 0.893 0.893 0.893zM19.202 28.754c0.541 0 0.893-0.364 0.893-0.893v-2.162h-1.776v2.162c0 0.529 0.353 0.893 0.882 0.893zM17.393 8.581c2.945 0 4.478-2.393 7.048-2.393 0.596 0 1.092 0.121 1.732 0.474 0.397 0.221 0.75 0.066 0.927-0.188 0.209-0.32 0.198-0.805-0.287-1.081-0.739-0.43-1.533-0.64-2.371-0.64-2.989 0-4.522 2.404-7.048 2.404-0.596 0-1.092-0.132-1.732-0.496-0.375-0.21-0.75-0.066-0.927 0.221-0.198 0.309-0.176 0.794 0.287 1.059 0.728 0.452 1.533 0.64 2.371 0.64zM17.404 11.658c2.934 0 4.478-2.404 7.037-2.404 0.607 0 1.103 0.121 1.743 0.485 0.386 0.221 0.75 0.066 0.927-0.199 0.198-0.309 0.198-0.805-0.276-1.081-0.75-0.43-1.555-0.64-2.393-0.64-2.978 0-4.511 2.415-7.037 2.415-0.607 0-1.103-0.143-1.732-0.496-0.375-0.221-0.761-0.066-0.938 0.221-0.198 0.309-0.176 0.794 0.298 1.059 0.728 0.441 1.533 0.64 2.371 0.64zM17.393 14.724c2.945 0 4.478-2.393 7.048-2.393 0.596 0 1.092 0.121 1.732 0.474 0.397 0.221 0.75 0.066 0.927-0.188 0.209-0.32 0.198-0.805-0.287-1.081-0.739-0.43-1.533-0.64-2.371-0.64-2.989 0-4.522 2.404-7.048 2.404-0.596 0-1.092-0.132-1.732-0.496-0.375-0.21-0.75-0.066-0.927 0.221-0.198 0.309-0.176 0.794 0.287 1.059 0.728 0.452 1.533 0.64 2.371 0.64z"></path>
</svg>
