<!-- Generated by IcoMoon.io -->
<svg version="1.1" xmlns="http://www.w3.org/2000/svg" width="32" height="32" viewBox="0 0 32 32">
<title>air-conditioner-vertical-fill</title>
<path d="M19.533 11.316c0.243 0 0.419-0.221 0.397-0.463l-0.055-0.915 0.761 0.518c0.187 0.121 0.474 0.077 0.607-0.132 0.143-0.21 0.044-0.496-0.198-0.596l-0.827-0.408 0.849-0.419c0.21-0.11 0.309-0.375 0.187-0.596-0.11-0.199-0.419-0.265-0.629-0.121l-0.75 0.518 0.066-0.915c0.022-0.243-0.154-0.463-0.408-0.463-0.265 0-0.441 0.199-0.419 0.452l0.055 0.937-0.772-0.529c-0.21-0.132-0.474-0.099-0.596 0.121-0.132 0.221-0.044 0.485 0.176 0.596l0.827 0.419-0.816 0.397c-0.232 0.099-0.331 0.375-0.199 0.607 0.11 0.21 0.397 0.254 0.607 0.132l0.772-0.518-0.044 0.915c-0.011 0.254 0.154 0.463 0.408 0.463zM25.555 24.739c0.254 0 0.441-0.199 0.419-0.452l-0.055-0.927 0.772 0.529c0.198 0.132 0.474 0.088 0.585-0.121 0.132-0.232 0.044-0.496-0.176-0.596l-0.827-0.419 0.816-0.419c0.243-0.088 0.331-0.364 0.21-0.596-0.11-0.21-0.408-0.265-0.607-0.132l-0.772 0.518 0.044-0.915c0.011-0.254-0.165-0.452-0.408-0.452s-0.419 0.209-0.397 0.452l0.055 0.926-0.772-0.518c-0.177-0.121-0.463-0.077-0.596 0.121-0.143 0.209-0.044 0.507 0.199 0.607l0.816 0.408-0.838 0.419c-0.209 0.11-0.309 0.364-0.187 0.596 0.11 0.198 0.419 0.265 0.618 0.121l0.761-0.518-0.066 0.904c-0.022 0.243 0.154 0.463 0.408 0.463zM5.327 29.327h6.838c1.522 0 2.504-0.971 2.504-2.46v-21.585c0-1.489-0.982-2.46-2.504-2.46h-6.838c-1.522 0-2.504 0.971-2.504 2.46v21.585c0 1.489 0.982 2.46 2.504 2.46zM11.647 11.426c-0.331 0-0.574-0.265-0.574-0.585v-4.489c0-0.32 0.243-0.585 0.574-0.585 0.32 0 0.574 0.265 0.574 0.585v4.489c0 0.32-0.254 0.585-0.574 0.585zM9.309 11.426c-0.331 0-0.596-0.265-0.596-0.585v-4.489c0-0.32 0.265-0.585 0.596-0.585 0.309 0 0.563 0.265 0.563 0.585v4.489c0 0.32-0.254 0.585-0.563 0.585zM11.647 18.86c-0.331 0-0.574-0.254-0.574-0.585v-4.489c0-0.32 0.243-0.573 0.574-0.573 0.32 0 0.574 0.254 0.574 0.573v4.489c0 0.331-0.254 0.585-0.574 0.585zM9.309 18.86c-0.331 0-0.596-0.254-0.596-0.585v-4.489c0-0.32 0.265-0.573 0.596-0.573 0.309 0 0.563 0.254 0.563 0.573v4.489c0 0.331-0.254 0.585-0.563 0.585zM11.647 26.316c-0.331 0-0.574-0.265-0.574-0.573v-4.489c0-0.331 0.243-0.596 0.574-0.596 0.32 0 0.574 0.265 0.574 0.596v4.489c0 0.309-0.254 0.573-0.574 0.573zM9.309 26.316c-0.331 0-0.596-0.265-0.596-0.573v-4.489c0-0.331 0.265-0.596 0.596-0.596 0.309 0 0.563 0.265 0.563 0.596v4.489c0 0.309-0.254 0.573-0.563 0.573zM19.026 14.746c2.945 0 4.467-2.393 7.037-2.393 0.596 0 1.103 0.121 1.732 0.474 0.397 0.221 0.75 0.066 0.927-0.187 0.221-0.32 0.199-0.805-0.287-1.081-0.728-0.43-1.522-0.64-2.371-0.64-2.989 0-4.511 2.404-7.037 2.404-0.596 0-1.103-0.132-1.743-0.496-0.375-0.21-0.739-0.066-0.927 0.221-0.198 0.309-0.176 0.794 0.287 1.059 0.728 0.452 1.533 0.64 2.382 0.64zM19.037 17.989c2.934 0 4.467-2.393 7.026-2.393 0.607 0 1.114 0.121 1.743 0.474 0.386 0.221 0.75 0.066 0.926-0.187 0.21-0.32 0.199-0.805-0.276-1.081-0.739-0.43-1.544-0.64-2.393-0.64-2.978 0-4.5 2.404-7.026 2.404-0.607 0-1.114-0.132-1.743-0.485-0.375-0.221-0.75-0.077-0.938 0.21-0.198 0.309-0.176 0.794 0.298 1.059 0.728 0.452 1.533 0.64 2.382 0.64zM19.026 21.232c2.945 0 4.467-2.393 7.037-2.393 0.596 0 1.103 0.121 1.732 0.485 0.397 0.221 0.75 0.055 0.927-0.198 0.221-0.32 0.199-0.805-0.287-1.081-0.728-0.43-1.522-0.64-2.371-0.64-2.989 0-4.511 2.404-7.037 2.404-0.596 0-1.103-0.132-1.743-0.485-0.375-0.221-0.739-0.077-0.927 0.21-0.198 0.309-0.176 0.805 0.287 1.070 0.728 0.441 1.533 0.629 2.382 0.629z"></path>
</svg>
