<!-- Generated by IcoMoon.io -->
<svg version="1.1" xmlns="http://www.w3.org/2000/svg" width="32" height="32" viewBox="0 0 32 32">
<title>air-conditioner-horizontal-fill</title>
<path d="M2.824 5.327v6.838c0 1.522 0.971 2.504 2.46 2.504h21.585c1.489 0 2.46-0.982 2.46-2.504v-6.838c0-1.522-0.971-2.504-2.46-2.504h-21.585c-1.489 0-2.46 0.982-2.46 2.504zM20.724 11.647c0-0.331 0.265-0.574 0.585-0.574h4.489c0.32 0 0.584 0.243 0.584 0.574 0 0.32-0.265 0.574-0.584 0.574h-4.489c-0.32 0-0.585-0.254-0.585-0.574zM20.724 9.309c0-0.331 0.265-0.596 0.585-0.596h4.489c0.32 0 0.584 0.265 0.584 0.596 0 0.309-0.265 0.563-0.584 0.563h-4.489c-0.32 0-0.585-0.254-0.585-0.563zM13.29 11.647c0-0.331 0.254-0.574 0.585-0.574h4.489c0.309 0 0.574 0.243 0.574 0.574 0 0.32-0.265 0.574-0.574 0.574h-4.489c-0.331 0-0.585-0.254-0.585-0.574zM13.29 9.309c0-0.331 0.254-0.596 0.585-0.596h4.489c0.309 0 0.574 0.265 0.574 0.596 0 0.309-0.265 0.563-0.574 0.563h-4.489c-0.331 0-0.585-0.254-0.585-0.563zM5.835 11.647c0-0.331 0.265-0.574 0.574-0.574h4.489c0.331 0 0.585 0.243 0.585 0.574 0 0.32-0.254 0.574-0.585 0.574h-4.489c-0.309 0-0.574-0.254-0.574-0.574zM5.835 9.309c0-0.331 0.265-0.596 0.574-0.596h4.489c0.331 0 0.585 0.265 0.585 0.596 0 0.309-0.254 0.563-0.585 0.563h-4.489c-0.309 0-0.574-0.254-0.574-0.563zM17.404 19.026c0 2.945 2.393 4.478 2.393 7.048 0 0.596-0.121 1.092-0.474 1.721-0.221 0.397-0.066 0.75 0.188 0.938 0.32 0.21 0.805 0.199 1.081-0.298 0.43-0.728 0.64-1.522 0.64-2.36 0-3-2.404-4.522-2.404-7.048 0-0.596 0.132-1.092 0.496-1.743 0.21-0.375 0.066-0.739-0.221-0.927-0.309-0.187-0.794-0.176-1.059 0.287-0.452 0.728-0.64 1.544-0.64 2.382zM14.162 19.037c0 2.934 2.393 4.478 2.393 7.037 0 0.607-0.121 1.103-0.485 1.732-0.21 0.386-0.055 0.75 0.199 0.938 0.32 0.198 0.805 0.198 1.081-0.287 0.43-0.739 0.64-1.544 0.64-2.382 0-2.989-2.404-4.511-2.404-7.037 0-0.607 0.132-1.103 0.485-1.743 0.221-0.375 0.077-0.75-0.21-0.938-0.309-0.187-0.805-0.176-1.059 0.298-0.452 0.728-0.64 1.544-0.64 2.382zM10.919 19.026c0 2.945 2.393 4.478 2.393 7.048 0 0.596-0.121 1.092-0.485 1.721-0.221 0.397-0.055 0.75 0.198 0.938 0.32 0.21 0.805 0.199 1.081-0.298 0.43-0.728 0.64-1.522 0.64-2.36 0-3-2.404-4.522-2.404-7.048 0-0.596 0.132-1.092 0.485-1.743 0.221-0.375 0.066-0.739-0.21-0.927-0.309-0.187-0.805-0.176-1.070 0.287-0.441 0.728-0.629 1.544-0.629 2.382zM20.835 19.533c0 0.243 0.21 0.419 0.463 0.397l0.915-0.055-0.518 0.761c-0.121 0.187-0.077 0.474 0.132 0.607 0.21 0.143 0.496 0.044 0.596-0.198l0.408-0.827 0.419 0.849c0.11 0.21 0.375 0.309 0.596 0.187 0.199-0.11 0.265-0.419 0.121-0.629l-0.518-0.75 0.915 0.066c0.243 0.022 0.463-0.154 0.463-0.408 0-0.265-0.198-0.441-0.452-0.419l-0.938 0.055 0.529-0.772c0.132-0.21 0.099-0.474-0.121-0.596s-0.485-0.044-0.596 0.176l-0.419 0.827-0.397-0.816c-0.099-0.232-0.375-0.331-0.607-0.199-0.209 0.11-0.265 0.397-0.132 0.607l0.518 0.772-0.915-0.044c-0.265-0.011-0.463 0.154-0.463 0.408zM7.412 25.555c0 0.254 0.199 0.441 0.452 0.419l0.926-0.055-0.529 0.772c-0.132 0.198-0.088 0.474 0.121 0.585 0.232 0.132 0.496 0.044 0.596-0.176l0.419-0.827 0.419 0.816c0.088 0.243 0.364 0.331 0.596 0.21 0.21-0.11 0.265-0.408 0.132-0.607l-0.518-0.772 0.915 0.044c0.254 0.011 0.452-0.165 0.452-0.408s-0.21-0.419-0.452-0.397l-0.927 0.055 0.518-0.761c0.121-0.188 0.077-0.474-0.121-0.607-0.21-0.143-0.507-0.044-0.607 0.199l-0.408 0.816-0.419-0.838c-0.11-0.209-0.364-0.309-0.596-0.187-0.199 0.11-0.265 0.419-0.121 0.629l0.518 0.75-0.904-0.066c-0.243-0.022-0.463 0.154-0.463 0.408z"></path>
</svg>
