<!-- Generated by IcoMoon.io -->
<svg version="1.1" xmlns="http://www.w3.org/2000/svg" width="32" height="32" viewBox="0 0 32 32">
<title>air-purifier-fill</title>
<path d="M9.055 26.813h9.949c2.25 0 3.397-1.147 3.397-3.364v-17.272c0-2.228-1.169-3.353-3.397-3.353h-9.949c-2.228 0-3.408 1.125-3.408 3.353v17.272c0 2.217 1.158 3.364 3.408 3.364zM10.114 8.934c-0.882 0-1.599-0.728-1.599-1.621 0-0.871 0.717-1.588 1.599-1.588s1.61 0.717 1.61 1.588c0 0.893-0.728 1.621-1.61 1.621zM9.165 18.165c-0.397 0-0.717-0.309-0.717-0.717 0-0.397 0.32-0.717 0.717-0.717h3.309c0.408 0 0.728 0.32 0.728 0.717 0 0.408-0.32 0.717-0.728 0.717h-3.309zM9.165 21.011c-0.397 0-0.717-0.309-0.717-0.717s0.32-0.717 0.717-0.717h3.309c0.408 0 0.728 0.309 0.728 0.717s-0.32 0.717-0.728 0.717h-3.309zM9.165 23.857c-0.397 0-0.717-0.32-0.717-0.717 0-0.408 0.32-0.728 0.717-0.728h3.309c0.408 0 0.728 0.32 0.728 0.728 0 0.397-0.32 0.717-0.728 0.717h-3.309zM15.574 18.165c-0.408 0-0.728-0.309-0.728-0.717 0-0.397 0.32-0.717 0.728-0.717h3.309c0.397 0 0.717 0.32 0.717 0.717 0 0.408-0.32 0.717-0.717 0.717h-3.309zM15.574 21.011c-0.408 0-0.728-0.309-0.728-0.717s0.32-0.717 0.728-0.717h3.309c0.397 0 0.717 0.309 0.717 0.717s-0.32 0.717-0.717 0.717h-3.309zM15.574 23.857c-0.408 0-0.728-0.32-0.728-0.717 0-0.408 0.32-0.728 0.728-0.728h3.309c0.397 0 0.717 0.32 0.717 0.728 0 0.397-0.32 0.717-0.717 0.717h-3.309zM17.393 8.581c-0.838 0-1.643-0.188-2.371-0.64-0.463-0.265-0.485-0.75-0.287-1.059 0.177-0.287 0.552-0.43 0.927-0.221 0.64 0.364 1.136 0.496 1.732 0.496 2.526 0 4.059-2.404 7.048-2.404 0.838 0 1.632 0.21 2.371 0.64 0.485 0.276 0.496 0.761 0.287 1.081-0.176 0.254-0.529 0.408-0.927 0.188-0.64-0.353-1.136-0.474-1.732-0.474-2.57 0-4.103 2.393-7.048 2.393zM17.404 11.658c-0.838 0-1.643-0.198-2.371-0.64-0.474-0.265-0.496-0.75-0.298-1.059 0.177-0.287 0.563-0.441 0.938-0.221 0.629 0.353 1.125 0.496 1.732 0.496 2.526 0 4.059-2.415 7.037-2.415 0.838 0 1.643 0.21 2.393 0.64 0.474 0.276 0.474 0.772 0.276 1.081-0.176 0.265-0.54 0.419-0.927 0.199-0.64-0.364-1.136-0.485-1.743-0.485-2.559 0-4.103 2.404-7.037 2.404zM17.393 14.724c-0.838 0-1.643-0.187-2.371-0.64-0.463-0.265-0.485-0.75-0.287-1.059 0.177-0.287 0.552-0.43 0.927-0.221 0.64 0.364 1.136 0.496 1.732 0.496 2.526 0 4.059-2.404 7.048-2.404 0.838 0 1.632 0.21 2.371 0.64 0.485 0.276 0.496 0.761 0.287 1.081-0.176 0.254-0.529 0.408-0.927 0.188-0.64-0.353-1.136-0.474-1.732-0.474-2.57 0-4.103 2.393-7.048 2.393zM8.846 28.754c0.529 0 0.882-0.364 0.882-0.893v-2.162h-1.776v2.162c0 0.529 0.364 0.893 0.893 0.893zM19.202 28.754c0.541 0 0.893-0.364 0.893-0.893v-2.162h-1.776v2.162c0 0.529 0.353 0.893 0.882 0.893z"></path>
</svg>
