<!-- Generated by IcoMoon.io -->
<svg version="1.1" xmlns="http://www.w3.org/2000/svg" width="32" height="32" viewBox="0 0 32 32">
<title>airpods-chargingcase-wireless</title>
<path d="M15.555 16.574c0.585-0.011 1.070-0.496 1.070-1.048 0-0.596-0.485-1.070-1.070-1.070s-1.070 0.474-1.070 1.070c0 0.574 0.485 1.059 1.070 1.048zM12.147 26.61h6.816c3.75 0 5.559-1.809 5.559-5.559v-10.787c0-3.75-1.809-5.559-5.559-5.559h-6.816c-3.75 0-5.559 1.809-5.559 5.559v10.787c0 3.75 1.809 5.559 5.559 5.559zM12.147 24.835c-2.636 0-3.783-1.147-3.783-3.783v-10.787c0-2.636 1.147-3.783 3.783-3.783h6.816c2.636 0 3.783 1.147 3.783 3.783v10.787c0 2.636-1.147 3.783-3.783 3.783h-6.816zM7.482 12.051h16.147v-1.114h-16.147v1.114zM12.5 12.802h6.11c0.761 0 1.324-0.541 1.324-1.313s-0.563-1.312-1.324-1.312h-6.11c-0.728 0-1.323 0.54-1.323 1.312s0.596 1.313 1.323 1.313z"></path>
</svg>
