<!-- Generated by IcoMoon.io -->
<svg version="1.1" xmlns="http://www.w3.org/2000/svg" width="32" height="32" viewBox="0 0 32 32">
<title>airpods-gen3-chargingcase-wireless</title>
<path d="M11.39 25.824h9.915c4.5 0 6.684-2.162 6.684-6.651v-5.934c0-4.489-2.184-6.651-6.684-6.651h-9.915c-4.5 0-6.684 2.162-6.684 6.651v5.934c0 4.489 2.184 6.651 6.684 6.651zM11.39 24.048c-3.386 0-4.908-1.511-4.908-4.875v-5.934c0-3.364 1.522-4.875 4.908-4.875h9.915c3.386 0 4.908 1.511 4.908 4.875v5.934c0 3.364-1.522 4.875-4.908 4.875h-9.915zM5.599 13.989h21.496v-1.114h-21.496v1.114zM11.93 14.75h8.835c0.772 0 1.324-0.54 1.324-1.324 0-0.772-0.552-1.312-1.324-1.312h-8.835c-0.75 0-1.324 0.54-1.324 1.312 0 0.783 0.574 1.324 1.324 1.324zM16.353 18.511c0.585-0.011 1.059-0.496 1.059-1.048 0-0.585-0.474-1.070-1.059-1.070-0.596 0-1.070 0.485-1.070 1.070 0 0.574 0.474 1.059 1.070 1.048z"></path>
</svg>
