<!-- Generated by IcoMoon.io -->
<svg version="1.1" xmlns="http://www.w3.org/2000/svg" width="32" height="32" viewBox="0 0 32 32">
<title>airplane</title>
<path d="M28.625 15.934c-0.011-1.29-1.765-2.228-3.871-2.228h-4.445c-0.618 0-0.849-0.099-1.213-0.518l-7.412-8.085c-0.232-0.265-0.518-0.397-0.849-0.397h-1.279c-0.287 0-0.452 0.254-0.309 0.563l3.816 8.438-5.603 0.64-1.996-3.662c-0.143-0.276-0.386-0.397-0.75-0.397h-0.474c-0.287 0-0.474 0.187-0.474 0.474v10.346c0 0.287 0.188 0.463 0.474 0.463h0.474c0.364 0 0.607-0.121 0.75-0.386l1.996-3.662 5.603 0.64-3.816 8.437c-0.143 0.298 0.022 0.563 0.309 0.563h1.279c0.331 0 0.618-0.143 0.849-0.397l7.412-8.096c0.364-0.408 0.596-0.507 1.213-0.507h4.445c2.107 0 3.86-0.949 3.871-2.228z"></path>
</svg>
