<!-- Generated by IcoMoon.io -->
<svg version="1.1" xmlns="http://www.w3.org/2000/svg" width="32" height="32" viewBox="0 0 32 32">
<title>airplayaudio-circle</title>
<path d="M15.956 27.206c6.154 0 11.25-5.107 11.25-11.25 0-6.154-5.107-11.25-11.261-11.25-6.143 0-11.239 5.096-11.239 11.25 0 6.143 5.107 11.25 11.25 11.25zM15.956 25.331c-5.206 0-9.364-4.169-9.364-9.375s4.147-9.375 9.353-9.375c5.206 0 9.386 4.169 9.386 9.375s-4.169 9.375-9.375 9.375zM15.956 10.309c-3.099 0-5.625 2.548-5.625 5.647 0 1.5 0.573 2.923 1.643 3.971l0.596-0.662c-0.86-0.893-1.346-2.085-1.346-3.309 0-2.603 2.14-4.754 4.732-4.754 2.603 0 4.754 2.151 4.754 4.754 0 1.224-0.496 2.415-1.368 3.309l0.596 0.662c1.070-1.048 1.665-2.471 1.665-3.971 0-3.099-2.548-5.647-5.647-5.647zM15.956 11.875c-2.239 0-4.059 1.842-4.059 4.081 0 1.048 0.386 2.029 1.114 2.802l0.596-0.684c-0.529-0.585-0.805-1.334-0.805-2.118 0-1.743 1.423-3.176 3.154-3.176s3.165 1.434 3.165 3.176c0 0.783-0.287 1.544-0.827 2.107l0.607 0.695c0.739-0.783 1.125-1.754 1.125-2.802 0-2.239-1.831-4.081-4.070-4.081zM15.956 13.441c-1.368 0-2.504 1.147-2.504 2.515 0 0.618 0.221 1.169 0.607 1.621l0.618-0.695c-0.21-0.276-0.32-0.607-0.32-0.927 0-0.882 0.717-1.61 1.599-1.61s1.61 0.728 1.61 1.61c0 0.32-0.121 0.651-0.331 0.915l0.618 0.695c0.386-0.441 0.618-1.004 0.618-1.61 0-1.368-1.147-2.515-2.515-2.515zM12.735 21.493h6.441c0.364 0 0.529-0.397 0.287-0.662l-3.176-3.596c-0.154-0.187-0.474-0.187-0.651 0l-3.187 3.596c-0.243 0.265-0.055 0.662 0.287 0.662z"></path>
</svg>
