<!-- Generated by IcoMoon.io -->
<svg version="1.1" xmlns="http://www.w3.org/2000/svg" width="32" height="32" viewBox="0 0 32 32">
<title>airpodspro</title>
<path d="M10.901 6.589c-1.886-0.022-3.993 0.904-5.393 2.868-0.21 0.265-0.397 0.562-0.596 1.004 2.393 0.43 4.335 2.548 4.335 4.908 0 0.673-0.132 1.29-0.364 1.842 1.456-0.21 2.36-0.541 3.187-1.004 1.82-1.048 3.254-2.746 3.254-5.184 0-2.812-1.985-4.412-4.423-4.434zM11.331 11.32c-0.221 0.187-0.563 0.165-0.75-0.066s-0.154-0.562 0.077-0.75l1.621-1.368c0.221-0.188 0.551-0.154 0.728 0.077 0.198 0.221 0.187 0.551-0.044 0.739l-1.632 1.368zM9.313 26.1h0.871c0.673 0 1.125-0.353 1.125-1.037v-7.268c-0.938 0.342-1.985 0.551-3.132 0.629v6.64c0 0.684 0.452 1.037 1.136 1.037zM21.246 6.589c-2.426 0.022-4.412 1.621-4.412 4.434 0 2.438 1.434 4.136 3.243 5.184 0.838 0.463 1.743 0.794 3.199 1.004-0.243-0.552-0.364-1.169-0.364-1.842 0-2.36 1.93-4.478 4.323-4.908-0.187-0.441-0.386-0.739-0.585-1.004-1.412-1.963-3.507-2.89-5.404-2.868zM20.827 11.32l-1.632-1.368c-0.232-0.187-0.243-0.518-0.055-0.739 0.176-0.232 0.518-0.265 0.739-0.077l1.621 1.368c0.232 0.187 0.254 0.518 0.066 0.75s-0.518 0.254-0.739 0.066zM22.835 26.1c0.695 0 1.136-0.353 1.136-1.037v-6.64c-1.147-0.077-2.184-0.287-3.121-0.629v7.268c0 0.684 0.441 1.037 1.125 1.037h0.86z"></path>
<path d="M4.956 18.566c1.71 0 3.232-1.059 3.232-3.199 0-1.908-1.798-3.927-4.136-3.927-1.974 0-3.11 1.566-3.11 3.165 0 2.393 2.040 3.96 4.015 3.96zM4.404 16.89c-0.309 0.276-0.838 0-1.489-0.783-0.64-0.783-0.805-1.324-0.496-1.588 0.32-0.287 0.838-0.022 1.5 0.772 0.629 0.805 0.794 1.335 0.485 1.599zM27.202 18.566c1.974 0 4.015-1.566 4.015-3.96 0-1.599-1.136-3.165-3.11-3.165-2.338 0-4.136 2.018-4.136 3.926 0 2.14 1.522 3.199 3.232 3.199zM27.754 16.89c-0.309-0.265-0.143-0.794 0.485-1.599 0.662-0.794 1.18-1.059 1.5-0.772 0.309 0.265 0.143 0.805-0.496 1.588-0.651 0.783-1.18 1.059-1.489 0.783z"></path>
</svg>
