<!-- Generated by IcoMoon.io -->
<svg version="1.1" xmlns="http://www.w3.org/2000/svg" width="32" height="32" viewBox="0 0 32 32">
<title>airpodpro-left</title>
<path d="M12.882 6.589c-2.426 0.022-4.412 1.621-4.412 4.434 0 2.438 1.434 4.136 3.254 5.184 0.827 0.463 1.732 0.794 3.188 1.004-0.232-0.552-0.364-1.169-0.364-1.842 0-2.36 1.941-4.478 4.335-4.908-0.198-0.441-0.386-0.739-0.596-1.004-1.401-1.963-3.507-2.89-5.404-2.868zM12.463 11.32l-1.632-1.368c-0.232-0.187-0.243-0.518-0.055-0.739 0.187-0.232 0.518-0.265 0.739-0.077l1.621 1.368c0.232 0.187 0.265 0.518 0.077 0.75s-0.529 0.254-0.75 0.066zM14.482 26.1c0.684 0 1.136-0.353 1.136-1.037v-6.64c-1.147-0.077-2.195-0.287-3.132-0.629v7.268c0 0.684 0.441 1.037 1.125 1.037h0.871z"></path>
<path d="M18.838 18.566c1.974 0 4.015-1.566 4.015-3.96 0-1.599-1.125-3.165-3.11-3.165-2.338 0-4.125 2.018-4.125 3.926 0 2.14 1.511 3.199 3.221 3.199zM19.39 16.89c-0.309-0.265-0.143-0.794 0.485-1.599 0.662-0.794 1.18-1.059 1.5-0.772 0.309 0.265 0.143 0.805-0.496 1.588-0.651 0.783-1.18 1.059-1.489 0.783z"></path>
</svg>
