<!-- Generated by IcoMoon.io -->
<svg version="1.1" xmlns="http://www.w3.org/2000/svg" width="32" height="32" viewBox="0 0 32 32">
<title>airport-extreme</title>
<path d="M24.507 18.721c0.761-0.022 1.401-0.651 1.401-1.412 0-0.772-0.64-1.423-1.401-1.423-0.75 0-1.401 0.651-1.401 1.423 0 0.761 0.651 1.423 1.401 1.412zM6.287 22.426h20.085c2.305 0 3.463-1.147 3.463-3.419v-6.187c0-2.261-1.158-3.408-3.463-3.408h-20.085c-2.316 0-3.463 1.136-3.463 3.408v6.187c0 2.283 1.147 3.419 3.463 3.419zM6.309 20.651c-1.103 0-1.71-0.585-1.71-1.732v-6c0-1.147 0.607-1.732 1.71-1.732h20.040c1.092 0 1.71 0.585 1.71 1.732v6c0 1.147-0.618 1.732-1.71 1.732h-20.040zM28.831 14.397v-1.445h-24.982v1.445h24.982z"></path>
</svg>
