<!-- Generated by IcoMoon.io -->
<svg version="1.1" xmlns="http://www.w3.org/2000/svg" width="32" height="32" viewBox="0 0 32 32">
<title>airpod-gen3-left</title>
<path d="M15.096 6.666c-2.548 0.022-4.743 2.118-4.743 4.974 0 2.956 4.202 6.496 7.257 6.507 2.206 0.011 4.919-2.129 4.919-4.842 0-3.276-4.048-6.662-7.434-6.64zM18.658 16.625c-0.596 0-0.629-0.772-0.033-1.732 0.585-0.982 1.544-1.743 2.151-1.743s0.64 0.761 0.044 1.743c-0.585 0.96-1.544 1.732-2.162 1.732zM15.592 11.706c-0.342 0.485-1.004 0.596-1.511 0.232l-1.533-1.092c-0.496-0.364-0.596-1.004-0.221-1.489 0.331-0.496 0.993-0.618 1.478-0.265l1.533 1.114c0.485 0.342 0.596 1.004 0.254 1.5zM14.566 25.989c0.684 0 1.136-0.353 1.136-1.026v-6.088c-1.29-0.408-2.57-1.18-3.651-2.151v8.239c0 0.673 0.441 1.026 1.125 1.026h1.39z"></path>
</svg>
