<!-- Generated by IcoMoon.io -->
<svg version="1.1" xmlns="http://www.w3.org/2000/svg" width="32" height="32" viewBox="0 0 32 32">
<title>airpods-gen3</title>
<path d="M10.246 6.666c-3.375-0.022-7.423 3.364-7.423 6.64 0 2.713 2.713 4.853 4.908 4.842 3.055-0.011 7.268-3.551 7.268-6.507 0-2.857-2.206-4.952-4.754-4.974zM6.684 16.625c-0.618 0-1.566-0.772-2.162-1.732-0.585-0.982-0.563-1.743 0.055-1.743 0.607 0 1.566 0.761 2.151 1.743 0.585 0.96 0.563 1.732-0.044 1.732zM9.761 11.706c-0.353-0.496-0.232-1.158 0.254-1.5l1.533-1.114c0.474-0.353 1.147-0.232 1.478 0.265 0.375 0.485 0.265 1.125-0.221 1.489l-1.533 1.092c-0.507 0.364-1.18 0.254-1.511-0.232zM10.787 25.989h1.379c0.684 0 1.136-0.353 1.136-1.026v-8.239c-1.081 0.971-2.36 1.743-3.651 2.151v6.088c0 0.673 0.441 1.026 1.136 1.026zM22.324 6.666c-2.548 0.022-4.754 2.118-4.754 4.974 0 2.956 4.213 6.496 7.268 6.507 2.195 0.011 4.908-2.129 4.908-4.842 0-3.276-4.048-6.662-7.423-6.64zM25.886 16.625c-0.607 0-0.629-0.772-0.044-1.732 0.585-0.982 1.544-1.743 2.151-1.743 0.618 0 0.64 0.761 0.055 1.743-0.585 0.96-1.544 1.732-2.162 1.732zM22.809 11.706c-0.331 0.485-1.004 0.596-1.5 0.232l-1.533-1.092c-0.496-0.364-0.607-1.004-0.232-1.489 0.331-0.496 1.004-0.618 1.478-0.265l1.544 1.114c0.485 0.342 0.596 1.004 0.243 1.5zM21.783 25.989c0.695 0 1.136-0.353 1.136-1.026v-6.088c-1.29-0.408-2.57-1.18-3.651-2.151v8.239c0 0.673 0.452 1.026 1.136 1.026h1.379z"></path>
</svg>
