<!-- Generated by IcoMoon.io -->
<svg version="1.1" xmlns="http://www.w3.org/2000/svg" width="32" height="32" viewBox="0 0 32 32">
<title>airplane-circle-fill</title>
<path d="M15.956 27.217c6.154 0 11.25-5.096 11.25-11.25 0-6.143-5.107-11.25-11.261-11.25-6.143 0-11.239 5.107-11.239 11.25 0 6.154 5.107 11.25 11.25 11.25zM23.346 15.978c0 0.761-1.004 1.335-2.239 1.335h-2.438c-0.298 0-0.386 0.044-0.573 0.243l-4.059 4.423c-0.143 0.154-0.331 0.254-0.529 0.254h-0.706c-0.243 0-0.375-0.232-0.276-0.474l2.029-4.467-2.835-0.32-1.059 1.93c-0.099 0.187-0.265 0.276-0.507 0.276h-0.265c-0.221 0-0.364-0.154-0.364-0.375v-5.658c0-0.221 0.143-0.364 0.364-0.364h0.265c0.243 0 0.408 0.088 0.507 0.276l1.059 1.93 2.835-0.32-2.029-4.467c-0.099-0.243 0.033-0.474 0.276-0.474h0.706c0.198 0 0.386 0.088 0.529 0.254l4.059 4.423c0.187 0.198 0.276 0.243 0.573 0.243h2.438c1.235 0 2.239 0.574 2.239 1.335z"></path>
</svg>
