<!-- Generated by IcoMoon.io -->
<svg version="1.1" xmlns="http://www.w3.org/2000/svg" width="32" height="32" viewBox="0 0 32 32">
<title>airpodspro-chargingcase-wireless-fill</title>
<path d="M10.449 25.824h11.603c4.511 0 6.684-2.162 6.684-6.651v-5.239h-6.827c-0.187 0.496-0.651 0.816-1.235 0.816h-8.835c-0.573 0-1.059-0.32-1.235-0.816h-6.838v5.239c0 4.489 2.184 6.651 6.684 6.651zM16.25 18.952c-0.551 0.011-1.004-0.452-1.004-0.993 0-0.551 0.452-1.015 1.004-1.015s1.015 0.463 1.015 1.015c0 0.518-0.463 0.982-1.015 0.993zM3.765 12.93h6.816c0.176-0.507 0.662-0.816 1.235-0.816h8.846c0.574 0 1.048 0.309 1.224 0.816h6.816v-0.353c0-4.026-2.382-5.989-6.684-5.989h-11.57c-4.29 0-6.684 1.963-6.684 5.989v0.353z"></path>
</svg>
