<!-- Generated by IcoMoon.io -->
<svg version="1.1" xmlns="http://www.w3.org/2000/svg" width="32" height="32" viewBox="0 0 32 32">
<title>airpod-right</title>
<path d="M16.147 14.592c2.581 0.022 4.798-2.007 4.765-4.489-0.033-2.449-2.184-4.456-4.765-4.456-2.371 0-3.827 1.467-4.522 2.493-0.232 0.353-0.331 0.739-0.331 1.169v1.621c0 0.43 0.11 0.816 0.331 1.169 0.673 1.026 2.151 2.46 4.522 2.493zM13.301 11.868c-0.287 0-0.518-0.232-0.518-0.529v-2.449c0-0.298 0.232-0.529 0.518-0.529 0.309 0 0.529 0.232 0.529 0.529v2.449c0 0.298-0.221 0.529-0.529 0.529zM16.71 23.493h3.11v-9.066c-0.871 0.673-1.952 1.114-3.11 1.202v7.864zM17.79 27.132h0.938c0.673 0 1.092-0.331 1.092-0.982v-1.555h-3.11v1.555c0 0.651 0.43 0.982 1.081 0.982z"></path>
</svg>
