<!-- Generated by IcoMoon.io -->
<svg version="1.1" xmlns="http://www.w3.org/2000/svg" width="32" height="32" viewBox="0 0 32 32">
<title>airplane-arrival</title>
<path d="M5.714 13.875l18.893 5.085c2.118 0.574 4.268 0.011 4.566-1.632 0.243-1.511-1.412-2.879-3.386-3.265l-6.871-1.368c-0.474-0.088-0.75-0.276-1.081-0.75l-5.835-8.393c-0.187-0.265-0.441-0.441-0.75-0.518l-0.783-0.199c-0.276-0.066-0.485 0.176-0.408 0.518l2.118 8.967 0.695-0.816-5.79-1.136 1.853 1.147-4.456-5.206c-0.221-0.254-0.452-0.331-0.849-0.243l-0.419 0.088c-0.298 0.055-0.43 0.287-0.375 0.551l1.169 5.713c0.154 0.728 0.761 1.202 1.71 1.456zM4.104 25.489h23.801c0.485 0 0.882-0.408 0.882-0.893s-0.397-0.882-0.882-0.882h-23.801c-0.485 0-0.882 0.397-0.882 0.882s0.397 0.893 0.882 0.893z"></path>
</svg>
