<!-- Generated by IcoMoon.io -->
<svg version="1.1" xmlns="http://www.w3.org/2000/svg" width="32" height="32" viewBox="0 0 32 32">
<title>airport-extreme-tower</title>
<path d="M19.158 25.158c0.518 0 0.949-0.43 0.949-0.971 0-0.518-0.43-0.949-0.949-0.949-0.541 0-0.96 0.43-0.96 0.949 0 0.54 0.419 0.971 0.96 0.971zM8.471 24.915c0 2.283 1.158 3.419 3.463 3.419h7.897c2.294 0 3.452-1.136 3.452-3.419v-16.577c0-0.86-0.187-1.423-0.706-2.051l-1.71-2.085c-0.706-0.86-1.434-1.29-2.327-1.29h-5.327c-0.893 0-1.61 0.43-2.327 1.29l-1.71 2.085c-0.518 0.629-0.706 1.191-0.706 2.051v16.577zM10.246 24.827v-15.563c0.298 0.165 0.618 0.221 1.004 0.221h9.254c0.397 0 0.717-0.055 1.004-0.221v15.563c0 1.147-0.607 1.732-1.71 1.732h-7.842c-1.103 0-1.71-0.585-1.71-1.732zM10.787 6.904l1.39-1.699c0.496-0.585 0.761-0.904 1.5-0.904h4.401c0.75 0 1.015 0.32 1.5 0.904l1.39 1.699c0.232 0.276 0.188 0.805-0.408 0.805h-9.364c-0.596 0-0.629-0.529-0.408-0.805z"></path>
</svg>
