<!-- Generated by IcoMoon.io -->
<svg version="1.1" xmlns="http://www.w3.org/2000/svg" width="32" height="32" viewBox="0 0 32 32">
<title>airpod-gen3-right</title>
<path d="M17.776 6.666c-3.375-0.022-7.423 3.364-7.423 6.64 0 2.713 2.713 4.853 4.908 4.842 3.055-0.011 7.268-3.551 7.268-6.507 0-2.857-2.206-4.952-4.754-4.974zM14.213 16.625c-0.618 0-1.566-0.772-2.162-1.732-0.585-0.982-0.563-1.743 0.055-1.743 0.607 0 1.566 0.761 2.151 1.743 0.585 0.96 0.563 1.732-0.044 1.732zM17.29 11.706c-0.353-0.496-0.232-1.158 0.254-1.5l1.533-1.114c0.474-0.353 1.147-0.232 1.478 0.265 0.375 0.485 0.265 1.125-0.221 1.489l-1.533 1.092c-0.507 0.364-1.18 0.254-1.511-0.232zM18.316 25.989h1.379c0.684 0 1.136-0.353 1.136-1.026v-8.239c-1.081 0.971-2.36 1.743-3.651 2.151v6.088c0 0.673 0.441 1.026 1.136 1.026z"></path>
</svg>
