<!-- Generated by IcoMoon.io -->
<svg version="1.1" xmlns="http://www.w3.org/2000/svg" width="32" height="32" viewBox="0 0 32 32">
<title>airpods-gen3-chargingcase-wireless-fill</title>
<path d="M11.577 26.044h8.978c4.666 0 6.871-2.217 6.871-6.871v-5.051h-5.548c-0.21 0.518-0.706 0.838-1.324 0.838h-8.978c-0.607 0-1.114-0.32-1.313-0.838h-5.559v5.051c0 4.654 2.206 6.871 6.871 6.871zM16.066 19.382c-0.574 0.011-1.059-0.474-1.059-1.037 0-0.585 0.485-1.059 1.059-1.059s1.059 0.474 1.059 1.059c0 0.529-0.485 1.026-1.059 1.037zM4.706 12.996h5.537c0.187-0.529 0.695-0.849 1.301-0.849h9c0.607 0 1.114 0.32 1.313 0.849h5.526v-0.386c0-4.070-2.471-6.022-6.871-6.022h-8.934c-4.39 0-6.871 1.952-6.871 6.022v0.386z"></path>
</svg>
