<!-- Generated by IcoMoon.io -->
<svg version="1.1" xmlns="http://www.w3.org/2000/svg" width="32" height="32" viewBox="0 0 32 32">
<title>airpodsmax</title>
<path d="M5.41 17.915h1.004v-2.217h-1.004v2.217zM10.627 28.305c1.379 0 2.018-1.268 1.268-2.614l-4.125-7.29c-0.353-0.607-0.882-0.882-1.544-0.882-1.037 0-1.599 0.772-1.511 1.798 0.221 1.313 1.103 3.408 2.173 5.129 1.688 2.857 2.669 3.86 3.739 3.86zM26.708 17.915v-2.217h-1.004v2.217h1.004zM21.491 28.305c1.070 0 2.051-1.004 3.739-3.86 1.059-1.721 1.952-3.816 2.173-5.129 0.088-1.026-0.474-1.798-1.511-1.798-0.662 0-1.191 0.276-1.544 0.882l-4.125 7.29c-0.761 1.346-0.11 2.614 1.268 2.614zM5.035 15.511c0 0.518 0.331 0.838 0.849 0.838s0.827-0.32 0.827-0.838c0.055-5.945 3.596-9.717 9.342-9.717 5.757 0 9.287 3.772 9.342 9.717 0 0.518 0.32 0.838 0.838 0.838s0.838-0.32 0.838-0.838c0-6.761-4.158-11.404-11.018-11.404s-11.018 4.643-11.018 11.404z"></path>
<path d="M13.925 26.121c0.706-0.408 0.893-1.323 0.441-2.107l-3.717-6.562c-0.452-0.783-1.335-1.070-2.029-0.662-0.43 0.232-0.529 0.64-0.309 1.026l4.566 8.029c0.232 0.397 0.629 0.507 1.048 0.276zM18.193 26.121c0.419 0.232 0.816 0.121 1.037-0.276l4.566-8.029c0.232-0.386 0.132-0.794-0.298-1.026-0.706-0.408-1.577-0.121-2.040 0.662l-3.717 6.562c-0.452 0.783-0.254 1.699 0.452 2.107zM9.612 9.632c1.809-0.982 3.927-1.467 6.441-1.467 2.526 0 4.643 0.485 6.441 1.467-1.445-1.853-3.507-2.779-6.441-2.779-2.923 0-4.985 0.926-6.441 2.779z"></path>
</svg>
