<!-- Generated by IcoMoon.io -->
<svg version="1.1" xmlns="http://www.w3.org/2000/svg" width="32" height="32" viewBox="0 0 32 32">
<title>airpod-left</title>
<path d="M16.059 14.592c2.371-0.033 3.86-1.467 4.522-2.493 0.221-0.353 0.331-0.739 0.331-1.169v-1.621c0-0.43-0.099-0.816-0.331-1.169-0.684-1.026-2.151-2.493-4.522-2.493-2.581 0-4.732 2.007-4.765 4.456-0.033 2.482 2.184 4.511 4.765 4.489zM18.905 11.868c-0.298 0-0.529-0.232-0.529-0.529v-2.449c0-0.298 0.232-0.529 0.529-0.529s0.518 0.232 0.518 0.529v2.449c0 0.298-0.221 0.529-0.518 0.529zM15.497 23.493v-7.864c-1.158-0.088-2.239-0.529-3.11-1.202v9.066h3.11zM14.416 27.132c0.662 0 1.081-0.331 1.081-0.982v-1.555h-3.11v1.555c0 0.651 0.419 0.982 1.092 0.982h0.938z"></path>
</svg>
