<!-- Generated by IcoMoon.io -->
<svg version="1.1" xmlns="http://www.w3.org/2000/svg" width="32" height="32" viewBox="0 0 32 32">
<title>airplayaudio-circle-fill</title>
<path d="M15.956 27.217c6.154 0 11.25-5.096 11.25-11.25 0-6.143-5.107-11.25-11.261-11.25-6.143 0-11.239 5.107-11.239 11.25 0 6.154 5.107 11.25 11.25 11.25zM15.956 10.154c3.199 0 5.824 2.625 5.824 5.812 0 1.544-0.618 3.011-1.721 4.092l-0.607-0.684c0.893-0.915 1.401-2.151 1.401-3.408 0-2.669-2.217-4.886-4.897-4.886-2.669 0-4.875 2.217-4.875 4.886 0 1.257 0.496 2.493 1.379 3.408l-0.607 0.684c-1.103-1.081-1.699-2.548-1.699-4.092 0-3.187 2.603-5.812 5.801-5.812zM15.956 11.765c2.305 0 4.202 1.897 4.202 4.202 0 1.081-0.408 2.096-1.158 2.89l-0.629-0.706c0.552-0.596 0.849-1.379 0.849-2.184 0-1.798-1.478-3.276-3.265-3.276s-3.254 1.478-3.254 3.276c0 0.805 0.287 1.577 0.827 2.195l-0.618 0.695c-0.75-0.783-1.147-1.809-1.147-2.89 0-2.305 1.886-4.202 4.191-4.202zM15.956 13.375c1.412 0 2.592 1.18 2.592 2.592 0 0.629-0.232 1.202-0.629 1.666l-0.64-0.728c0.209-0.265 0.331-0.607 0.331-0.938 0-0.904-0.75-1.654-1.654-1.654s-1.643 0.75-1.643 1.654c0 0.331 0.11 0.673 0.32 0.949l-0.64 0.728c-0.397-0.474-0.618-1.037-0.618-1.677 0-1.412 1.169-2.592 2.581-2.592zM12.636 21.691c-0.353 0-0.552-0.419-0.298-0.695l3.287-3.706c0.187-0.187 0.507-0.187 0.673 0l3.276 3.706c0.254 0.276 0.077 0.695-0.298 0.695h-6.64z"></path>
</svg>
