<!-- Generated by IcoMoon.io -->
<svg version="1.1" xmlns="http://www.w3.org/2000/svg" width="32" height="32" viewBox="0 0 32 32">
<title>airplayvideo</title>
<path d="M20.228 20.658l1.566 1.776h4.401c1.533 0 2.382-0.849 2.382-2.36v-12.055c0-1.5-0.849-2.371-2.382-2.371h-21c-1.489 0-2.371 0.904-2.371 2.371v12.055c0 1.511 0.838 2.36 2.371 2.36h4.511l1.566-1.776h-5.801c-0.518 0-0.772-0.265-0.772-0.783v-11.658c0-0.518 0.254-0.794 0.772-0.794h20.449c0.518 0 0.783 0.276 0.783 0.794v11.658c0 0.518-0.265 0.783-0.783 0.783h-5.691zM22.434 26.548c0.518 0 0.717-0.529 0.386-0.904l-6.651-7.533c-0.254-0.287-0.695-0.287-0.949 0l-6.651 7.533c-0.331 0.375-0.132 0.904 0.386 0.904h13.478z"></path>
</svg>
