<!-- Generated by IcoMoon.io -->
<svg version="1.1" xmlns="http://www.w3.org/2000/svg" width="32" height="32" viewBox="0 0 32 32">
<title>airplayvideo-circle</title>
<path d="M15.956 27.206c6.154 0 11.25-5.107 11.25-11.25 0-6.154-5.107-11.25-11.261-11.25-6.143 0-11.239 5.096-11.239 11.25 0 6.143 5.107 11.25 11.25 11.25zM15.956 25.331c-5.206 0-9.364-4.169-9.364-9.375s4.147-9.375 9.353-9.375c5.206 0 9.386 4.169 9.386 9.375s-4.169 9.375-9.375 9.375zM19.154 21.537c0.364 0 0.529-0.397 0.287-0.662l-3.176-3.596c-0.154-0.187-0.474-0.187-0.651 0l-3.187 3.596c-0.243 0.265-0.055 0.662 0.287 0.662h6.441zM20.941 11.312h-10.015c-0.772 0-1.257 0.474-1.257 1.257v5.757c0 0.794 0.463 1.246 1.257 1.246h1.456l0.993-1.114h-2.316c-0.165 0-0.221-0.066-0.221-0.232v-5.559c0-0.176 0.055-0.243 0.221-0.243h9.761c0.165 0 0.232 0.066 0.232 0.243v5.559c0 0.165-0.066 0.232-0.232 0.232h-2.316l0.982 1.114h1.456c0.794 0 1.279-0.452 1.279-1.246v-5.757c0-0.794-0.463-1.257-1.279-1.257z"></path>
</svg>
