<!-- Generated by IcoMoon.io -->
<svg version="1.1" xmlns="http://www.w3.org/2000/svg" width="32" height="32" viewBox="0 0 32 32">
<title>airplane-departure</title>
<path d="M8.080 18.93l18.915-5.040c2.118-0.574 3.706-2.129 3.132-3.706-0.529-1.434-2.658-1.787-4.555-1.147l-6.629 2.272c-0.463 0.154-0.794 0.143-1.324-0.11l-9.243-4.368c-0.298-0.132-0.629-0.165-0.926-0.077l-0.761 0.232c-0.265 0.088-0.353 0.397-0.11 0.651l6.32 6.706 0.21-1.048-5.581 1.919 2.162 0.066-6.463-2.294c-0.298-0.099-0.563-0.055-0.849 0.21l-0.32 0.298c-0.221 0.199-0.232 0.463-0.044 0.662l3.871 4.346c0.507 0.574 1.257 0.684 2.195 0.43zM4.043 26.319h23.801c0.485 0 0.893-0.408 0.893-0.893s-0.408-0.882-0.893-0.882h-23.801c-0.485 0-0.882 0.397-0.882 0.882s0.397 0.893 0.882 0.893z"></path>
</svg>
