<!-- Generated by IcoMoon.io -->
<svg version="1.1" xmlns="http://www.w3.org/2000/svg" width="32" height="32" viewBox="0 0 32 32">
<title>airplane-circle</title>
<path d="M15.956 27.206c6.154 0 11.25-5.107 11.25-11.25 0-6.154-5.107-11.25-11.261-11.25-6.143 0-11.239 5.096-11.239 11.25 0 6.143 5.107 11.25 11.25 11.25zM15.956 25.331c-5.206 0-9.364-4.169-9.364-9.375s4.147-9.375 9.353-9.375c5.206 0 9.386 4.169 9.386 9.375s-4.169 9.375-9.375 9.375zM23.125 15.967c0-0.739-0.971-1.301-2.173-1.301h-2.36c-0.287 0-0.375-0.033-0.563-0.232l-3.926-4.279c-0.143-0.165-0.32-0.243-0.518-0.243h-0.684c-0.232 0-0.364 0.21-0.265 0.441l1.963 4.335-2.746 0.32-1.026-1.875c-0.099-0.176-0.254-0.265-0.496-0.265h-0.254c-0.21 0-0.353 0.143-0.353 0.353v5.482c0 0.21 0.143 0.353 0.353 0.353h0.254c0.243 0 0.397-0.088 0.496-0.254l1.026-1.875 2.746 0.309-1.963 4.335c-0.099 0.232 0.033 0.441 0.265 0.441h0.684c0.198 0 0.375-0.077 0.518-0.232l3.926-4.279c0.188-0.199 0.276-0.243 0.563-0.243h2.36c1.202 0 2.173-0.562 2.173-1.29z"></path>
</svg>
