<!-- Generated by IcoMoon.io -->
<svg version="1.1" xmlns="http://www.w3.org/2000/svg" width="32" height="32" viewBox="0 0 32 32">
<title>airpodpro-right</title>
<path d="M18.441 6.589c-1.897-0.022-4.004 0.904-5.404 2.868-0.21 0.265-0.397 0.562-0.596 1.004 2.393 0.43 4.335 2.548 4.335 4.908 0 0.673-0.132 1.29-0.364 1.842 1.456-0.21 2.36-0.541 3.187-1.004 1.82-1.048 3.254-2.746 3.254-5.184 0-2.812-1.985-4.412-4.412-4.434zM18.86 11.32c-0.221 0.187-0.563 0.165-0.739-0.066-0.198-0.232-0.165-0.562 0.066-0.75l1.621-1.368c0.221-0.188 0.551-0.154 0.739 0.077 0.187 0.221 0.176 0.551-0.055 0.739l-1.632 1.368zM16.853 26.1h0.86c0.684 0 1.125-0.353 1.125-1.037v-7.268c-0.938 0.342-1.985 0.551-3.132 0.629v6.64c0 0.684 0.452 1.037 1.147 1.037z"></path>
<path d="M12.485 18.566c1.71 0 3.232-1.059 3.232-3.199 0-1.908-1.798-3.927-4.136-3.927-1.974 0-3.11 1.566-3.11 3.165 0 2.393 2.040 3.96 4.015 3.96zM11.934 16.89c-0.309 0.276-0.838 0-1.489-0.783-0.64-0.783-0.805-1.324-0.496-1.588 0.32-0.287 0.838-0.022 1.5 0.772 0.629 0.805 0.794 1.335 0.485 1.599z"></path>
</svg>
