<!-- Generated by IcoMoon.io -->
<svg version="1.1" xmlns="http://www.w3.org/2000/svg" width="32" height="32" viewBox="0 0 32 32">
<title>airplayvideo-circle-fill</title>
<path d="M15.956 27.217c6.154 0 11.25-5.096 11.25-11.25 0-6.143-5.107-11.25-11.261-11.25-6.143 0-11.239 5.107-11.239 11.25 0 6.154 5.107 11.25 11.25 11.25zM19.254 21.713h-6.64c-0.353 0-0.551-0.408-0.298-0.695l3.287-3.706c0.187-0.176 0.507-0.176 0.673 0l3.276 3.706c0.254 0.287 0.077 0.695-0.298 0.695zM21.096 11.169c0.838 0 1.323 0.485 1.323 1.301v5.923c0 0.827-0.507 1.29-1.323 1.29h-1.489l-1.026-1.158h2.382c0.176 0 0.243-0.055 0.243-0.232v-5.713c0-0.199-0.066-0.265-0.243-0.265h-10.048c-0.176 0-0.232 0.066-0.232 0.265v5.713c0 0.176 0.055 0.232 0.232 0.232h2.382l-1.037 1.158h-1.489c-0.816 0-1.301-0.463-1.301-1.29v-5.923c0-0.805 0.507-1.301 1.301-1.301h10.324z"></path>
</svg>
