<!-- Generated by IcoMoon.io -->
<svg version="1.1" xmlns="http://www.w3.org/2000/svg" width="32" height="32" viewBox="0 0 32 32">
<title>airtag-radiowaves-forward</title>
<path d="M10.68 26.066c5.316 0 9.739-4.423 9.739-9.739s-4.412-9.739-9.728-9.739c-5.316 0-9.75 4.423-9.75 9.739s4.423 9.739 9.739 9.739zM10.691 24.301c-4.423 0-7.974-3.551-7.963-7.974 0-4.423 3.551-7.963 7.974-7.963 4.401 0 7.941 3.54 7.941 7.963s-3.529 7.974-7.952 7.974zM23.088 20.728c0.364 0.408 1.026 0.419 1.412-0.077 0.96-1.191 1.522-2.702 1.522-4.323s-0.562-3.132-1.522-4.324c-0.386-0.496-1.048-0.496-1.412-0.077-0.353 0.397-0.209 0.893 0.143 1.368 0.662 0.816 0.993 1.886 0.993 3.033s-0.331 2.206-0.993 3.033c-0.353 0.474-0.496 0.971-0.143 1.368zM26.176 23.871c0.353 0.408 0.971 0.408 1.39-0.055 1.842-1.996 2.868-4.632 2.868-7.489s-1.026-5.504-2.868-7.489c-0.419-0.463-1.037-0.474-1.39-0.055-0.353 0.397-0.243 0.915 0.154 1.368 1.478 1.643 2.305 3.805 2.305 6.176s-0.827 4.533-2.305 6.176c-0.397 0.452-0.507 0.971-0.154 1.368zM10.768 19.504c0.662 0 0.805 0.331 1.368 0.331s0.949-0.518 1.301-1.026c0.408-0.585 0.574-1.158 0.574-1.18-0.033-0.011-1.114-0.452-1.114-1.688 0-1.081 0.849-1.555 0.893-1.599-0.551-0.805-1.412-0.816-1.654-0.816-0.629 0-1.136 0.375-1.467 0.375-0.342 0-0.794-0.364-1.357-0.364-1.037 0-2.085 0.871-2.085 2.482 0 1.015 0.386 2.085 0.86 2.768 0.419 0.585 0.783 1.059 1.313 1.059 0.507 0 0.739-0.342 1.368-0.342zM11.849 12.831c0.254-0.309 0.441-0.728 0.441-1.169 0-0.055 0-0.11-0.011-0.154-0.43 0.011-0.927 0.276-1.224 0.629-0.232 0.276-0.463 0.695-0.463 1.136 0 0.055 0.011 0.121 0.011 0.143 0.033 0 0.066 0.011 0.11 0.011 0.386 0 0.86-0.254 1.136-0.596z"></path>
</svg>
