<!-- Generated by IcoMoon.io -->
<svg version="1.1" xmlns="http://www.w3.org/2000/svg" width="32" height="32" viewBox="0 0 32 32">
<title>airtag-radiowaves-forward-fill</title>
<path d="M10.68 26.066c5.316 0 9.739-4.423 9.739-9.739s-4.412-9.739-9.728-9.739c-5.316 0-9.75 4.423-9.75 9.739s4.423 9.739 9.739 9.739zM23.088 20.728c0.364 0.408 1.026 0.419 1.412-0.077 0.96-1.191 1.522-2.702 1.522-4.323s-0.562-3.132-1.522-4.324c-0.386-0.496-1.048-0.496-1.412-0.077-0.353 0.397-0.209 0.893 0.143 1.368 0.662 0.816 0.993 1.886 0.993 3.033s-0.331 2.206-0.993 3.033c-0.353 0.474-0.496 0.971-0.143 1.368zM26.176 23.871c0.353 0.408 0.971 0.408 1.39-0.055 1.842-1.996 2.868-4.632 2.868-7.489s-1.026-5.504-2.868-7.489c-0.419-0.463-1.037-0.474-1.39-0.055-0.353 0.397-0.243 0.915 0.154 1.368 1.478 1.643 2.305 3.805 2.305 6.176s-0.827 4.533-2.305 6.176c-0.397 0.452-0.507 0.971-0.154 1.368zM10.779 19.636c-0.662 0-0.893 0.353-1.423 0.353-0.551 0-0.915-0.474-1.346-1.081-0.485-0.717-0.893-1.809-0.893-2.857 0-1.665 1.081-2.559 2.162-2.559 0.562 0 1.037 0.386 1.39 0.386 0.342 0 0.871-0.397 1.511-0.397 0.254 0 1.136 0.011 1.71 0.838-0.055 0.055-0.927 0.541-0.927 1.655 0 1.268 1.114 1.721 1.147 1.743 0 0.022-0.165 0.618-0.585 1.213-0.364 0.518-0.761 1.048-1.346 1.048s-0.728-0.342-1.401-0.342zM11.882 12.765c-0.287 0.353-0.772 0.618-1.169 0.618-0.044 0-0.077-0.011-0.121-0.011 0-0.022-0.011-0.088-0.011-0.154 0-0.452 0.243-0.882 0.474-1.169 0.32-0.364 0.827-0.64 1.268-0.651 0.011 0.044 0.011 0.11 0.011 0.165 0 0.452-0.188 0.882-0.452 1.202z"></path>
</svg>
