<!-- Generated by IcoMoon.io -->
<svg version="1.1" xmlns="http://www.w3.org/2000/svg" width="32" height="32" viewBox="0 0 32 32">
<title>airtag-fill</title>
<path d="M15.956 27.217c6.154 0 11.25-5.096 11.25-11.25 0-6.143-5.107-11.25-11.261-11.25-6.143 0-11.239 5.107-11.239 11.25 0 6.154 5.107 11.25 11.25 11.25zM15.956 25.011c-5.018 0-9.044-4.026-9.044-9.055 0-5.040 4.015-9.055 9.033-9.055 5.029 0 9.055 4.015 9.066 9.055 0.011 5.018-4.026 9.055-9.055 9.055zM15.956 24.007c4.478 0 8.063-3.596 8.051-8.051-0.011-4.489-3.596-8.051-8.063-8.051s-8.029 3.573-8.029 8.051c0 4.467 3.574 8.051 8.040 8.051zM16.055 19.022c-0.629 0-0.849 0.342-1.357 0.342-0.529 0-0.871-0.463-1.29-1.037-0.463-0.684-0.86-1.732-0.86-2.735 0-1.588 1.048-2.449 2.074-2.449 0.54 0 0.993 0.364 1.323 0.364s0.838-0.375 1.456-0.375c0.243 0 1.081 0.011 1.632 0.805-0.044 0.055-0.882 0.518-0.882 1.577 0 1.224 1.070 1.654 1.103 1.665 0 0.022-0.165 0.596-0.562 1.169-0.353 0.496-0.739 1.004-1.29 1.004-0.563 0-0.695-0.331-1.346-0.331zM17.114 12.449c-0.276 0.342-0.739 0.596-1.114 0.596-0.055 0-0.088-0.011-0.121-0.011 0-0.022-0.011-0.088-0.011-0.143 0-0.441 0.232-0.849 0.452-1.125 0.309-0.353 0.794-0.607 1.213-0.618 0.011 0.044 0.011 0.099 0.011 0.154 0 0.43-0.176 0.838-0.43 1.147z"></path>
</svg>
