<!-- Generated by IcoMoon.io -->
<svg version="1.1" xmlns="http://www.w3.org/2000/svg" width="32" height="32" viewBox="0 0 32 32">
<title>alarm-waves-left-and-right-fill</title>
<path d="M4.135 21.854c0.27-0.304 0.186-0.7-0.118-1.046-1.131-1.257-1.764-2.911-1.764-4.726s0.633-3.468 1.764-4.726c0.304-0.346 0.388-0.743 0.118-1.046-0.27-0.321-0.743-0.312-1.063 0.042-1.401 1.519-2.194 3.544-2.194 5.73s0.793 4.202 2.194 5.73c0.321 0.354 0.793 0.354 1.063 0.042zM6.498 19.449c0.27-0.304 0.16-0.684-0.11-1.046-0.506-0.633-0.751-1.443-0.751-2.321s0.245-1.696 0.751-2.321c0.27-0.363 0.38-0.743 0.11-1.046-0.278-0.321-0.785-0.321-1.080 0.059-0.734 0.911-1.156 2.068-1.156 3.308s0.422 2.397 1.156 3.308c0.295 0.38 0.802 0.371 1.080 0.059zM27.882 21.854c0.278 0.312 0.743 0.312 1.072-0.042 1.401-1.527 2.194-3.544 2.194-5.73s-0.793-4.211-2.194-5.73c-0.329-0.354-0.793-0.363-1.072-0.042-0.262 0.304-0.186 0.7 0.127 1.046 1.131 1.257 1.764 2.911 1.764 4.726s-0.633 3.468-1.764 4.726c-0.312 0.346-0.388 0.743-0.127 1.046zM25.519 19.449c0.278 0.312 0.785 0.321 1.089-0.059 0.734-0.911 1.156-2.067 1.156-3.308s-0.422-2.397-1.156-3.308c-0.304-0.38-0.81-0.38-1.089-0.059-0.27 0.304-0.152 0.684 0.11 1.046 0.506 0.624 0.759 1.443 0.759 2.321s-0.253 1.688-0.759 2.321c-0.262 0.363-0.38 0.743-0.11 1.046zM16.008 24.132c4.464 0 8.067-3.612 8.067-8.067s-3.603-8.067-8.067-8.067c-4.456 0-8.067 3.612-8.067 8.067s3.612 8.067 8.067 8.067zM12.169 17.001c-0.329 0-0.582-0.262-0.582-0.591s0.253-0.582 0.582-0.582h3.249v-4.531c0-0.329 0.262-0.582 0.582-0.582 0.338 0 0.591 0.253 0.591 0.582v5.114c0 0.329-0.253 0.591-0.591 0.591h-3.831zM9.080 10.166c0.127 0 0.219-0.025 0.338-0.118l2.827-2.127c0.135-0.11 0.211-0.236 0.211-0.38 0-0.177-0.084-0.321-0.228-0.456-0.321-0.295-0.895-0.447-1.392-0.447-1.325 0-2.38 1.055-2.38 2.363 0 0.321 0.059 0.633 0.144 0.827 0.093 0.203 0.27 0.338 0.481 0.338zM22.945 10.166c0.203 0 0.38-0.143 0.481-0.338 0.093-0.186 0.135-0.506 0.135-0.827 0-1.308-1.046-2.363-2.371-2.363-0.506 0-1.072 0.152-1.392 0.447-0.152 0.135-0.236 0.278-0.236 0.456 0 0.143 0.076 0.27 0.219 0.38l2.827 2.127c0.118 0.093 0.211 0.118 0.337 0.118zM8.954 23.896c0.253 0.253 0.667 0.253 0.928-0.008l1.595-1.586-0.911-0.911-1.603 1.595c-0.262 0.253-0.253 0.667-0.008 0.911zM23.072 23.896c0.245-0.245 0.253-0.658-0.008-0.911l-1.603-1.595-0.911 0.911 1.586 1.586c0.262 0.262 0.675 0.262 0.937 0.008z"></path>
</svg>
