<!-- Generated by IcoMoon.io -->
<svg version="1.1" xmlns="http://www.w3.org/2000/svg" width="32" height="32" viewBox="0 0 32 32">
<title>alarm-fill</title>
<path d="M16.191 26.64c5.824 0 10.544-4.721 10.544-10.544s-4.721-10.555-10.544-10.555c-5.824 0-10.544 4.732-10.544 10.555s4.721 10.544 10.544 10.544zM11.173 17.309c-0.43 0-0.761-0.331-0.761-0.761s0.331-0.772 0.761-0.772h4.246v-5.912c0-0.43 0.331-0.772 0.761-0.772s0.772 0.342 0.772 0.772v6.684c0 0.43-0.342 0.761-0.772 0.761h-5.007zM7.136 8.375c0.165 0 0.287-0.022 0.441-0.143l3.695-2.79c0.176-0.132 0.276-0.309 0.276-0.496 0-0.232-0.11-0.419-0.298-0.596-0.419-0.375-1.169-0.585-1.831-0.585-1.721 0-3.099 1.379-3.099 3.099 0 0.408 0.066 0.816 0.188 1.070 0.121 0.276 0.353 0.441 0.629 0.441zM25.246 8.375c0.276 0 0.507-0.176 0.64-0.441 0.11-0.243 0.176-0.662 0.176-1.070 0-1.721-1.368-3.099-3.099-3.099-0.662 0-1.412 0.21-1.831 0.585-0.187 0.176-0.298 0.364-0.298 0.596 0 0.188 0.099 0.364 0.287 0.496l3.684 2.79c0.165 0.121 0.276 0.143 0.441 0.143zM6.971 26.32c0.331 0.342 0.871 0.342 1.213-0.011l2.085-2.073-1.191-1.18-2.096 2.073c-0.342 0.331-0.331 0.871-0.011 1.191zM25.412 26.32c0.331-0.32 0.331-0.86-0.011-1.191l-2.096-2.073-1.18 1.18 2.073 2.073c0.342 0.353 0.882 0.353 1.213 0.011z"></path>
</svg>
