<!-- Generated by IcoMoon.io -->
<svg version="1.1" xmlns="http://www.w3.org/2000/svg" width="32" height="32" viewBox="0 0 32 32">
<title>alarm-waves-left-and-right</title>
<path d="M3.796 22.021c0.278-0.313 0.191-0.72-0.122-1.076-1.163-1.293-1.814-2.995-1.814-4.861s0.651-3.567 1.814-4.861c0.312-0.356 0.399-0.764 0.122-1.076-0.278-0.33-0.764-0.321-1.094 0.043-1.441 1.562-2.257 3.646-2.257 5.894s0.816 4.323 2.257 5.894c0.33 0.365 0.816 0.365 1.094 0.043zM6.226 19.547c0.278-0.313 0.165-0.703-0.113-1.076-0.521-0.651-0.772-1.484-0.772-2.387s0.252-1.745 0.772-2.387c0.278-0.373 0.391-0.764 0.113-1.076-0.286-0.33-0.807-0.33-1.111 0.061-0.755 0.937-1.189 2.127-1.189 3.403s0.434 2.465 1.189 3.402c0.304 0.391 0.825 0.382 1.111 0.061zM28.221 22.021c0.286 0.321 0.764 0.321 1.102-0.043 1.441-1.571 2.257-3.646 2.257-5.894s-0.816-4.331-2.257-5.894c-0.339-0.365-0.816-0.373-1.102-0.043-0.269 0.312-0.191 0.72 0.13 1.076 1.163 1.293 1.814 2.995 1.814 4.861s-0.651 3.567-1.814 4.861c-0.321 0.356-0.399 0.764-0.13 1.076zM25.791 19.547c0.286 0.321 0.807 0.33 1.12-0.061 0.755-0.937 1.189-2.127 1.189-3.402s-0.434-2.465-1.189-3.403c-0.313-0.391-0.833-0.391-1.12-0.061-0.278 0.313-0.156 0.703 0.113 1.076 0.521 0.642 0.781 1.484 0.781 2.387s-0.26 1.736-0.781 2.387c-0.269 0.373-0.391 0.764-0.113 1.076zM16.009 24.365c4.592 0 8.298-3.715 8.298-8.298s-3.706-8.298-8.298-8.298c-4.583 0-8.298 3.715-8.298 8.298s3.715 8.298 8.298 8.298zM16.009 22.889c-3.767 0-6.814-3.055-6.814-6.822 0-3.758 3.047-6.805 6.814-6.805 3.758 0 6.814 3.047 6.814 6.805 0 3.767-3.055 6.822-6.814 6.822zM8.882 9.999c0.13 0 0.226-0.026 0.347-0.122l2.908-2.187c0.139-0.113 0.217-0.243 0.217-0.391 0-0.182-0.087-0.33-0.234-0.469-0.33-0.304-0.92-0.46-1.432-0.46-1.363 0-2.448 1.085-2.448 2.43 0 0.33 0.061 0.651 0.148 0.851 0.095 0.208 0.278 0.347 0.495 0.347zM23.144 9.999c0.208 0 0.391-0.148 0.495-0.347 0.095-0.191 0.139-0.521 0.139-0.851 0-1.345-1.076-2.43-2.439-2.43-0.521 0-1.102 0.156-1.432 0.46-0.156 0.139-0.243 0.286-0.243 0.469 0 0.148 0.078 0.278 0.226 0.391l2.908 2.187c0.121 0.095 0.217 0.122 0.347 0.122zM8.752 24.121c0.26 0.26 0.686 0.26 0.955-0.009l1.641-1.632-0.937-0.937-1.649 1.64c-0.269 0.26-0.26 0.686-0.009 0.937zM23.274 24.121c0.252-0.252 0.26-0.677-0.009-0.937l-1.649-1.64-0.937 0.937 1.632 1.632c0.269 0.269 0.694 0.269 0.963 0.009zM12.059 17.030h3.941c0.347 0 0.608-0.269 0.608-0.608v-5.26c0-0.339-0.26-0.599-0.608-0.599-0.33 0-0.599 0.26-0.599 0.599v4.661h-3.342c-0.338 0-0.599 0.26-0.599 0.599s0.26 0.608 0.599 0.608z"></path>
</svg>
