<!-- Generated by IcoMoon.io -->
<svg version="1.1" xmlns="http://www.w3.org/2000/svg" width="32" height="32" viewBox="0 0 32 32">
<title>align-horizontal-left</title>
<path d="M4.57 28.39c0.441 0 0.816-0.331 0.816-0.761v-24.044c0-0.43-0.375-0.761-0.816-0.761-0.43 0-0.805 0.331-0.805 0.761v24.044c0 0.43 0.375 0.761 0.805 0.761zM9.941 14.548h8.327c1.643 0 2.526-0.871 2.526-2.482v-3.838c0-1.61-0.882-2.482-2.526-2.482h-8.327c-1.632 0-2.526 0.871-2.526 2.482v3.838c0 1.61 0.893 2.482 2.526 2.482zM9.974 12.882c-0.574 0-0.893-0.32-0.893-0.915v-3.651c0-0.585 0.32-0.904 0.893-0.904h8.261c0.574 0 0.893 0.32 0.893 0.904v3.651c0 0.596-0.32 0.915-0.893 0.915h-8.261zM9.941 25.478h16.136c1.643 0 2.526-0.871 2.526-2.482v-3.838c0-1.599-0.882-2.482-2.526-2.482h-16.136c-1.632 0-2.526 0.882-2.526 2.482v3.838c0 1.61 0.893 2.482 2.526 2.482zM9.974 23.813c-0.574 0-0.893-0.32-0.893-0.904v-3.651c0-0.596 0.32-0.915 0.893-0.915h16.070c0.573 0 0.893 0.32 0.893 0.915v3.651c0 0.585-0.32 0.904-0.893 0.904h-16.070z"></path>
</svg>
