<!-- Generated by IcoMoon.io -->
<svg version="1.1" xmlns="http://www.w3.org/2000/svg" width="32" height="32" viewBox="0 0 32 32">
<title>align-vertical-bottom</title>
<path d="M8.228 24.974h3.838c1.61 0 2.482-0.882 2.482-2.526v-16.136c0-1.643-0.871-2.526-2.482-2.526h-3.838c-1.61 0-2.482 0.882-2.482 2.526v16.136c0 1.643 0.871 2.526 2.482 2.526zM8.327 23.309c-0.596 0-0.915-0.32-0.915-0.893v-16.070c0-0.574 0.32-0.893 0.915-0.893h3.64c0.596 0 0.915 0.32 0.915 0.893v16.070c0 0.574-0.32 0.893-0.915 0.893h-3.64zM19.169 24.974h3.838c1.599 0 2.482-0.882 2.482-2.526v-8.327c0-1.632-0.882-2.526-2.482-2.526h-3.838c-1.61 0-2.493 0.893-2.493 2.526v8.327c0 1.643 0.882 2.526 2.493 2.526zM19.257 23.309c-0.585 0-0.915-0.32-0.915-0.893v-8.261c0-0.574 0.331-0.893 0.915-0.893h3.651c0.585 0 0.915 0.32 0.915 0.893v8.261c0 0.574-0.331 0.893-0.915 0.893h-3.651zM3.596 28.658h24.033c0.43 0 0.761-0.375 0.761-0.805s-0.331-0.816-0.761-0.816h-24.033c-0.441 0-0.772 0.386-0.772 0.816s0.331 0.805 0.772 0.805z"></path>
</svg>
