<!-- Generated by IcoMoon.io -->
<svg version="1.1" xmlns="http://www.w3.org/2000/svg" width="32" height="32" viewBox="0 0 32 32">
<title>align-vertical-center-fill</title>
<path d="M3.596 17.107h2.846v-1.621h-2.846c-0.441 0-0.772 0.375-0.772 0.805s0.331 0.816 0.772 0.816zM8.228 26.901h3.838c1.61 0 2.482-0.904 2.482-2.548v-16.125c0-1.643-0.871-2.526-2.482-2.526h-3.838c-1.61 0-2.482 0.882-2.482 2.526v16.125c0 1.643 0.871 2.548 2.482 2.548zM13.643 17.107h3.904v-1.621h-3.904v1.621zM19.169 22.974h3.838c1.599 0 2.482-0.882 2.482-2.526v-8.316c0-1.643-0.882-2.526-2.482-2.526h-3.838c-1.61 0-2.493 0.882-2.493 2.526v8.316c0 1.643 0.882 2.526 2.493 2.526zM24.816 17.107h2.813c0.43 0 0.761-0.386 0.761-0.816s-0.331-0.805-0.761-0.805h-2.813v1.621z"></path>
</svg>
