<!-- Generated by IcoMoon.io -->
<svg version="1.1" xmlns="http://www.w3.org/2000/svg" width="32" height="32" viewBox="0 0 32 32">
<title>align-horizontal-right-fill</title>
<path d="M27.798 28.39c0.43 0 0.805-0.331 0.805-0.761v-24.044c0-0.43-0.375-0.761-0.805-0.761s-0.816 0.331-0.816 0.761v24.044c0 0.43 0.386 0.761 0.816 0.761zM22.426 14.548c1.632 0 2.526-0.871 2.526-2.482v-3.838c0-1.61-0.893-2.482-2.526-2.482h-8.327c-1.643 0-2.526 0.871-2.526 2.482v3.838c0 1.61 0.882 2.482 2.526 2.482h8.327zM22.426 25.478c1.632 0 2.526-0.871 2.526-2.482v-3.838c0-1.599-0.893-2.482-2.526-2.482h-16.136c-1.643 0-2.526 0.882-2.526 2.482v3.838c0 1.61 0.882 2.482 2.526 2.482h16.136z"></path>
</svg>
