<!-- Generated by IcoMoon.io -->
<svg version="1.1" xmlns="http://www.w3.org/2000/svg" width="32" height="32" viewBox="0 0 32 32">
<title>align-horizontal-center-fill</title>
<path d="M15.43 6.353h1.621v-2.768c0-0.43-0.386-0.761-0.816-0.761s-0.805 0.331-0.805 0.761v2.768zM12.077 14.548h8.327c1.632 0 2.526-0.871 2.526-2.482v-3.838c0-1.61-0.893-2.482-2.526-2.482h-8.327c-1.643 0-2.526 0.871-2.526 2.482v3.838c0 1.61 0.882 2.482 2.526 2.482zM15.43 17.636h1.621v-3.838h-1.621v3.838zM8.173 25.478h16.136c1.632 0 2.526-0.871 2.526-2.482v-3.838c0-1.599-0.893-2.482-2.526-2.482h-16.136c-1.643 0-2.526 0.882-2.526 2.482v3.838c0 1.61 0.882 2.482 2.526 2.482zM16.235 28.39c0.43 0 0.816-0.331 0.816-0.761v-2.757h-1.621v2.757c0 0.43 0.375 0.761 0.805 0.761z"></path>
</svg>
