<!-- Generated by IcoMoon.io -->
<svg version="1.1" xmlns="http://www.w3.org/2000/svg" width="32" height="32" viewBox="0 0 32 32">
<title>allergens-fill</title>
<path d="M11.555 25.43c2.647 0 4.787-2.14 4.787-4.809 0-2.625-2.151-4.765-4.787-4.765s-4.787 2.14-4.787 4.765c0 2.658 2.151 4.809 4.787 4.809zM20.103 17.566c3.033 0 5.515-2.493 5.515-5.526s-2.482-5.504-5.515-5.504c-3.022 0-5.515 2.471-5.515 5.504s2.493 5.526 5.515 5.526zM20.103 4.551c0.739 0 1.334-0.596 1.334-1.335s-0.596-1.335-1.334-1.335c-0.739 0-1.335 0.596-1.335 1.335s0.596 1.335 1.335 1.335zM26.588 7.21c0.739 0 1.335-0.596 1.335-1.335s-0.596-1.335-1.335-1.335c-0.75 0-1.346 0.596-1.346 1.335s0.596 1.335 1.346 1.335zM28.938 13.419c0.739 0 1.335-0.596 1.335-1.346 0-0.739-0.596-1.335-1.335-1.335s-1.335 0.596-1.335 1.335c0 0.75 0.596 1.346 1.335 1.346zM26.257 19.882c0.75 0 1.346-0.596 1.346-1.335 0-0.75-0.596-1.346-1.346-1.346-0.739 0-1.334 0.596-1.334 1.346 0 0.739 0.596 1.335 1.334 1.335zM20.103 21.956c0.739 0 1.334-0.596 1.334-1.334 0-0.75-0.596-1.335-1.334-1.335s-1.335 0.585-1.335 1.335c0 0.739 0.596 1.334 1.335 1.334zM17.555 27.636c0.739 0 1.335-0.596 1.335-1.335s-0.596-1.335-1.335-1.335c-0.739 0-1.334 0.596-1.334 1.335s0.596 1.335 1.334 1.335zM11.555 30.316c0.739 0 1.335-0.596 1.335-1.334 0-0.75-0.596-1.346-1.335-1.346-0.75 0-1.335 0.596-1.335 1.346 0 0.739 0.585 1.334 1.335 1.334zM5.897 27.934c0.739 0 1.335-0.596 1.335-1.335 0-0.75-0.596-1.346-1.335-1.346-0.75 0-1.335 0.596-1.335 1.346 0 0.739 0.585 1.335 1.335 1.335zM3.217 21.978c0.739 0 1.335-0.596 1.335-1.335s-0.596-1.335-1.335-1.335c-0.739 0-1.335 0.596-1.335 1.335s0.596 1.335 1.335 1.335zM5.897 16.022c0.739 0 1.335-0.596 1.335-1.335 0-0.75-0.596-1.346-1.335-1.346-0.75 0-1.335 0.596-1.335 1.346 0 0.739 0.585 1.334 1.335 1.334zM11.555 13.375c0.739 0 1.335-0.596 1.335-1.335 0-0.75-0.596-1.346-1.335-1.346-0.75 0-1.335 0.596-1.335 1.346 0 0.739 0.585 1.335 1.335 1.335zM13.949 6.912c0.739 0 1.335-0.596 1.335-1.346 0-0.739-0.596-1.335-1.335-1.335-0.75 0-1.335 0.596-1.335 1.335 0 0.75 0.585 1.346 1.335 1.346z"></path>
</svg>
