<!-- Generated by IcoMoon.io -->
<svg version="1.1" xmlns="http://www.w3.org/2000/svg" width="32" height="32" viewBox="0 0 32 32">
<title>alt</title>
<path d="M5.743 25.864h5.316c0.949 0 1.743-0.518 2.118-1.379l7.235-16.312c0.176-0.364 0.452-0.529 0.893-0.529h4.886c0.574 0 1.037-0.452 1.037-1.004s-0.463-0.993-1.037-0.993h-5.382c-1.015 0-1.688 0.43-2.096 1.357l-7.268 16.324c-0.165 0.364-0.452 0.54-0.849 0.54h-4.853c-0.585 0-1.037 0.441-1.037 1.004s0.452 0.993 1.037 0.993zM19.055 25.864h7.136c0.585 0 1.026-0.419 1.026-0.982s-0.441-0.993-1.026-0.993h-7.136c-0.585 0-1.037 0.43-1.037 0.993s0.452 0.982 1.037 0.982z"></path>
</svg>
