<!-- Generated by IcoMoon.io -->
<svg version="1.1" xmlns="http://www.w3.org/2000/svg" width="32" height="32" viewBox="0 0 32 32">
<title>amazon-logo</title>
<path d="M16.2 1.92c-3.905 0-8.205 1.48-9.1 6.28-0.128 0.512 0.26 0.755 0.58 0.82l3.96 0.38c0.385 0 0.652-0.375 0.78-0.76 0.32-1.665 1.725-2.5 3.26-2.5 0.832 0 1.788 0.332 2.3 1.1 0.575 0.832 0.46 1.98 0.46 2.94v0.58c-2.367 0.255-5.44 0.44-7.68 1.4-2.56 1.088-4.36 3.332-4.36 6.66 0 4.225 2.688 6.34 6.080 6.34 2.88 0 4.48-0.715 6.72-3.020 0.767 1.087 1.015 1.608 2.36 2.76 0.32 0.192 0.705 0.115 0.96-0.14v0.080c0.832-0.705 2.308-2.055 3.14-2.76 0.32-0.192 0.255-0.64 0-0.96-0.767-1.025-1.54-1.86-1.54-3.78v-6.34c0-2.688 0.205-5.185-1.78-7.040-1.6-1.535-4.155-2.040-6.14-2.040zM17.28 14.080h1.080v0.9c0 1.535 0.067 2.872-0.7 4.28-0.64 1.152-1.668 1.86-2.82 1.86-1.535 0-2.48-1.148-2.48-2.94 0-3.008 2.36-3.908 4.92-4.1zM28.54 23.42c-1.025 0-2.245 0.26-3.14 0.9-0.255 0.192-0.24 0.44 0.080 0.44 1.025-0.128 3.313-0.435 3.76 0.14 0.385 0.512-0.435 2.675-0.82 3.7-0.128 0.32 0.125 0.392 0.38 0.2 1.727-1.473 2.18-4.475 1.86-4.86-0.192-0.32-1.095-0.52-2.12-0.52zM1.4 24c-0.192 0-0.315 0.328-0.060 0.52 3.84 3.455 8.905 5.56 14.6 5.56 4.033 0 8.695-1.273 11.96-3.64 0.512-0.385 0.073-1.035-0.44-0.78-3.648 1.535-7.555 2.3-11.14 2.3-5.313 0-10.44-1.473-14.6-3.84-0.127-0.128-0.255-0.12-0.32-0.12z"></path>
</svg>
