<!-- Generated by IcoMoon.io -->
<svg version="1.1" xmlns="http://www.w3.org/2000/svg" width="32" height="32" viewBox="0 0 32 32">
<title>amplifier</title>
<path d="M3.765 23.471c0 2.261 1.136 3.364 3.408 3.364h17.746c2.283 0 3.408-1.103 3.408-3.364v-10.732c0-2.25-1.125-3.364-3.408-3.364h-17.746c-2.272 0-3.408 1.114-3.408 3.364v10.732zM7.967 15.849c-0.982 0-1.776-0.794-1.776-1.787 0-0.982 0.794-1.776 1.776-1.776 1.004 0 1.787 0.794 1.787 1.776 0 0.993-0.783 1.787-1.787 1.787zM13.36 15.849c-0.993 0-1.787-0.794-1.787-1.787 0-0.982 0.794-1.776 1.787-1.776 0.982 0 1.776 0.794 1.776 1.776 0 0.993-0.794 1.787-1.776 1.787zM18.732 15.849c-0.982 0-1.776-0.794-1.776-1.787 0-0.982 0.794-1.776 1.776-1.776 1.004 0 1.787 0.794 1.787 1.776 0 0.993-0.783 1.787-1.787 1.787zM24.125 15.849c-0.993 0-1.787-0.794-1.787-1.787 0-0.982 0.794-1.776 1.787-1.776 0.982 0 1.787 0.794 1.787 1.776 0 0.993-0.805 1.787-1.787 1.787zM5.54 23.382v-5.316h21.011v5.316c0 1.136-0.573 1.687-1.654 1.687h-17.702c-1.081 0-1.654-0.551-1.654-1.687zM9.621 10.732h1.754v-2.36c0-0.629 0.441-1.037 1.092-1.037h7.169c0.662 0 1.092 0.408 1.092 1.037v2.36h1.754v-2.471c0-1.599-1.037-2.57-2.735-2.57h-7.39c-1.699 0-2.735 0.971-2.735 2.57v2.471z"></path>
</svg>
