<!-- Generated by IcoMoon.io -->
<svg version="1.1" xmlns="http://www.w3.org/2000/svg" width="32" height="32" viewBox="0 0 32 32">
<title>ant-circle-fill</title>
<path d="M15.956 27.217c6.154 0 11.25-5.096 11.25-11.25 0-6.143-5.107-11.25-11.261-11.25-6.143 0-11.239 5.107-11.239 11.25 0 6.154 5.107 11.25 11.25 11.25zM10.816 19.011c-0.121-0.728 0.176-1.136 0.982-1.335l2.691-0.618c-0.21-0.11-0.441-0.353-0.54-0.706l-1.776-0.254c-0.783-0.11-1.136-0.541-1.136-1.313v-2.14c0-0.32 0.187-0.507 0.507-0.507 0.298 0 0.485 0.188 0.485 0.507v1.941c0 0.419 0.232 0.551 0.618 0.607l1.324 0.188c0.055-0.21 0.187-0.386 0.309-0.496-1.015-0.198-1.533-0.827-1.533-1.776 0-0.761 0.276-1.489 0.75-2.051l-0.033-0.033c-0.607-0.43-0.706-1.081-0.32-1.787l0.342-0.585c0.121-0.232 0.276-0.32 0.485-0.32 0.276 0 0.463 0.199 0.463 0.452 0 0.11-0.011 0.199-0.088 0.309l-0.298 0.485c-0.176 0.287-0.243 0.54-0.033 0.717l0.154 0.121c0.529-0.342 1.202-0.54 1.798-0.54 0.585 0 1.257 0.198 1.787 0.54l0.154-0.121c0.221-0.176 0.154-0.43-0.022-0.717l-0.309-0.485c-0.066-0.11-0.088-0.199-0.088-0.309 0-0.265 0.199-0.452 0.463-0.452 0.221 0 0.353 0.099 0.485 0.32l0.342 0.585c0.408 0.695 0.287 1.357-0.32 1.787l-0.033 0.033c0.474 0.563 0.75 1.29 0.75 2.051 0 0.949-0.507 1.588-1.522 1.776 0.121 0.11 0.243 0.298 0.298 0.496l1.324-0.188c0.386-0.066 0.618-0.187 0.618-0.607v-1.941c0-0.32 0.187-0.507 0.485-0.507 0.331 0 0.518 0.188 0.518 0.507v2.14c0 0.772-0.364 1.202-1.136 1.313l-1.776 0.254c-0.11 0.353-0.342 0.607-0.54 0.706l2.691 0.618c0.794 0.21 1.103 0.607 0.982 1.335l-0.507 3.21c-0.044 0.32-0.198 0.529-0.507 0.529-0.32 0-0.552-0.243-0.496-0.607l0.452-2.945c0.055-0.353-0.055-0.518-0.463-0.629-0.154-0.044-0.309-0.077-0.452-0.121 0.077 0.209 0.11 0.463 0.11 0.75 0 2.018-1.522 3.904-3.287 3.904-1.776 0-3.287-1.886-3.287-3.904 0-0.287 0.033-0.54 0.11-0.75-0.154 0.044-0.309 0.077-0.452 0.121-0.408 0.11-0.529 0.276-0.463 0.629l0.441 2.945c0.055 0.364-0.176 0.607-0.485 0.607s-0.463-0.21-0.518-0.529l-0.496-3.21z"></path>
</svg>
