<!-- Generated by IcoMoon.io -->
<svg version="1.1" xmlns="http://www.w3.org/2000/svg" width="32" height="32" viewBox="0 0 32 32">
<title>ant-circle</title>
<path d="M15.956 27.206c6.154 0 11.25-5.107 11.25-11.25 0-6.154-5.107-11.25-11.261-11.25-6.143 0-11.239 5.096-11.239 11.25 0 6.143 5.107 11.25 11.25 11.25zM15.956 25.331c-5.206 0-9.364-4.169-9.364-9.375s4.147-9.375 9.353-9.375c5.206 0 9.386 4.169 9.386 9.375s-4.169 9.375-9.375 9.375zM10.971 18.912l0.474 3.099c0.055 0.32 0.21 0.507 0.507 0.507s0.518-0.221 0.463-0.585l-0.43-2.857c-0.055-0.342 0.055-0.485 0.452-0.596 0.143-0.044 0.287-0.077 0.441-0.121-0.077 0.21-0.11 0.441-0.11 0.728 0 1.952 1.478 3.794 3.187 3.794s3.187-1.842 3.187-3.794c0-0.287-0.033-0.518-0.11-0.728 0.143 0.044 0.287 0.077 0.441 0.121 0.397 0.11 0.496 0.254 0.452 0.596l-0.441 2.857c-0.055 0.364 0.165 0.585 0.474 0.585 0.298 0 0.452-0.187 0.496-0.507l0.485-3.099c0.121-0.706-0.176-1.092-0.949-1.29l-2.603-0.618c0.187-0.077 0.419-0.331 0.518-0.673l1.721-0.243c0.75-0.11 1.103-0.53 1.103-1.279v-2.074c0-0.298-0.176-0.485-0.496-0.485-0.298 0-0.474 0.187-0.474 0.485v1.886c0 0.408-0.221 0.529-0.596 0.584l-1.279 0.188c-0.055-0.199-0.176-0.375-0.298-0.474 0.982-0.199 1.478-0.805 1.478-1.732 0-0.75-0.265-1.445-0.728-1.985l0.033-0.033c0.585-0.419 0.706-1.059 0.309-1.732l-0.342-0.573c-0.121-0.21-0.254-0.309-0.463-0.309-0.254 0-0.452 0.188-0.452 0.441 0 0.11 0.022 0.188 0.088 0.298l0.309 0.463c0.165 0.287 0.232 0.529 0.011 0.706l-0.143 0.121c-0.518-0.331-1.169-0.529-1.732-0.529-0.573 0-1.224 0.198-1.743 0.529l-0.143-0.121c-0.21-0.176-0.143-0.419 0.022-0.706l0.298-0.463c0.077-0.11 0.088-0.188 0.088-0.298 0-0.254-0.187-0.441-0.452-0.441-0.198 0-0.353 0.088-0.463 0.309l-0.342 0.573c-0.375 0.684-0.276 1.313 0.32 1.732l0.022 0.033c-0.463 0.541-0.728 1.235-0.728 1.985 0 0.915 0.507 1.533 1.489 1.721-0.121 0.099-0.254 0.287-0.298 0.485l-1.29-0.188c-0.364-0.044-0.596-0.176-0.596-0.584v-1.886c0-0.298-0.165-0.485-0.474-0.485s-0.485 0.187-0.485 0.485v2.074c0 0.75 0.342 1.169 1.103 1.279l1.721 0.243c0.088 0.342 0.32 0.585 0.518 0.673l-2.603 0.618c-0.772 0.187-1.070 0.585-0.949 1.29z"></path>
</svg>
