<!-- Generated by IcoMoon.io -->
<svg version="1.1" xmlns="http://www.w3.org/2000/svg" width="32" height="32" viewBox="0 0 32 32">
<title>ant-fill</title>
<path d="M15.776 29.173c3.121 0 5.846-3.353 5.846-6.96 0-0.563-0.099-1.037-0.298-1.423 0.32 0.088 0.64 0.165 0.949 0.254 0.761 0.209 0.982 0.507 0.882 1.169l-0.805 5.283c-0.099 0.629 0.287 1.004 0.805 1.004 0.54 0 0.783-0.331 0.871-0.882l0.904-5.724c0.21-1.29-0.32-1.996-1.732-2.327l-4.974-1.158-0.011-0.11c0.474-0.232 0.794-0.684 0.938-1.18l3.386-0.485c1.379-0.187 1.996-0.96 1.996-2.316v-3.816c0-0.54-0.309-0.849-0.838-0.849s-0.838 0.32-0.838 0.849v3.474c0 0.783-0.419 1.037-1.136 1.136l-2.526 0.342c-0.121-0.342-0.342-0.651-0.64-0.849v-0.11c1.886-0.331 2.934-1.478 2.934-3.154 0-1.412-0.529-2.702-1.39-3.695l0.099-0.077c1.070-0.772 1.268-1.908 0.574-3.132l-0.651-1.070c-0.21-0.375-0.452-0.54-0.794-0.54-0.463 0-0.794 0.331-0.794 0.761 0 0.199 0.033 0.309 0.154 0.529l0.574 0.871c0.353 0.574 0.353 1.070-0.099 1.467-0.066 0.055-0.121 0.099-0.187 0.143-0.915-0.618-2.018-0.982-3.198-0.982-1.158 0-2.25 0.364-3.154 0.971-0.066-0.033-0.132-0.088-0.187-0.143-0.441-0.386-0.452-0.882-0.088-1.456l0.574-0.871c0.121-0.221 0.154-0.331 0.154-0.529 0-0.43-0.342-0.761-0.794-0.761-0.342 0-0.585 0.165-0.794 0.54l-0.651 1.070c-0.695 1.224-0.496 2.36 0.573 3.132l0.077 0.055c-0.871 0.993-1.423 2.294-1.423 3.717 0 1.676 1.059 2.824 2.945 3.154v0.11c-0.309 0.199-0.518 0.507-0.64 0.849l-2.526-0.342c-0.728-0.099-1.136-0.353-1.136-1.136v-3.474c0-0.529-0.309-0.849-0.838-0.849s-0.838 0.309-0.838 0.849v3.816c0 1.357 0.618 2.129 1.996 2.316l3.386 0.485c0.143 0.496 0.452 0.949 0.938 1.18v0.11l-4.985 1.158c-1.423 0.331-1.941 1.037-1.732 2.327l0.904 5.724c0.077 0.551 0.331 0.882 0.871 0.882 0.518 0 0.904-0.375 0.805-1.004l-0.805-5.283c-0.11-0.662 0.121-0.96 0.882-1.169 0.309-0.088 0.629-0.165 0.937-0.254-0.187 0.386-0.287 0.86-0.287 1.423 0 3.607 2.724 6.96 5.835 6.96z"></path>
</svg>
