<!-- Generated by IcoMoon.io -->
<svg version="1.1" xmlns="http://www.w3.org/2000/svg" width="32" height="32" viewBox="0 0 32 32">
<title>ant</title>
<path d="M15.776 29.173c3.121 0 5.846-3.353 5.846-6.96 0-2.327-1.323-3.342-3.298-3.805v-0.11c1.312-0.64 1.522-2.901 0.342-3.695v-0.11c1.886-0.331 2.824-1.478 2.824-3.154 0-3.132-2.581-5.724-5.713-5.724-3.121 0-5.713 2.592-5.713 5.724 0 1.676 0.949 2.824 2.835 3.154v0.11c-1.18 0.794-0.971 3.055 0.342 3.695v0.11c-1.952 0.463-3.298 1.478-3.298 3.805 0 3.607 2.724 6.96 5.835 6.96zM15.776 27.331c-2.272 0-4.037-2.669-4.037-4.886 0-1.478 0.86-2.371 2.515-2.371h3.055c1.654 0 2.504 0.893 2.504 2.371 0 2.217-1.754 4.886-4.037 4.886zM13.78 16.191c0-1.015 0.618-1.599 1.687-1.599 0.21 0 0.43 0 0.64 0 1.059 0 1.666 0.585 1.666 1.599 0 1.246-0.849 2.305-1.864 2.305-0.088 0-0.176 0-0.254 0-1.015 0-1.875-1.059-1.875-2.305zM13.791 12.871c-1.213 0-1.908-0.585-1.908-1.599 0-2.052 1.82-3.827 3.893-3.827s3.904 1.776 3.904 3.827c0 1.015-0.706 1.599-1.908 1.599h-3.982zM8.409 28.5c0.518 0 0.904-0.375 0.805-1.004l-0.805-5.283c-0.11-0.662 0.121-0.96 0.882-1.169l3.949-1.059v-1.577l-4.875 1.158c-1.423 0.342-1.941 1.037-1.732 2.327l0.904 5.724c0.077 0.551 0.331 0.882 0.871 0.882zM23.155 28.5c0.54 0 0.783-0.331 0.871-0.882l0.904-5.724c0.21-1.29-0.32-1.985-1.732-2.327l-4.875-1.158v1.577l3.949 1.059c0.761 0.209 0.982 0.507 0.882 1.169l-0.805 5.283c-0.099 0.629 0.287 1.004 0.805 1.004zM13.074 17.228v-1.654l-3.232-0.463c-0.728-0.11-1.136-0.353-1.136-1.136v-3.474c0-0.529-0.309-0.849-0.838-0.849s-0.838 0.309-0.838 0.849v3.816c0 1.357 0.618 2.129 1.996 2.316l4.048 0.596zM18.49 17.228l4.048-0.596c1.379-0.187 1.996-0.96 1.996-2.316v-3.816c0-0.54-0.309-0.849-0.838-0.849s-0.838 0.32-0.838 0.849v3.474c0 0.783-0.419 1.026-1.136 1.136l-3.232 0.463v1.654zM12.49 8.327l0.927-1.169-0.86-0.618c-0.551-0.397-0.596-0.926-0.21-1.555l0.574-0.871c0.121-0.221 0.154-0.331 0.154-0.529 0-0.43-0.342-0.761-0.794-0.761-0.342 0-0.585 0.165-0.794 0.54l-0.651 1.070c-0.695 1.224-0.496 2.36 0.573 3.132l1.081 0.761zM19.096 8.338l1.103-0.772c1.070-0.772 1.268-1.908 0.574-3.132l-0.651-1.070c-0.21-0.375-0.452-0.54-0.794-0.54-0.463 0-0.794 0.331-0.794 0.761 0 0.199 0.033 0.309 0.154 0.529l0.574 0.871c0.386 0.629 0.342 1.158-0.21 1.555l-0.882 0.629 0.927 1.169z"></path>
</svg>
