<!-- Generated by IcoMoon.io -->
<svg version="1.1" xmlns="http://www.w3.org/2000/svg" width="32" height="32" viewBox="0 0 32 32">
<title>antenna-radiowaves-left-and-right-circle-fill</title>
<path d="M15.956 27.217c6.154 0 11.25-5.096 11.25-11.25 0-6.143-5.107-11.25-11.261-11.25-6.143 0-11.239 5.107-11.239 11.25 0 6.154 5.107 11.25 11.25 11.25zM8.809 15.592c0-1.71 0.629-3.331 1.765-4.566 0.287-0.342 0.739-0.353 1.015-0.033 0.243 0.265 0.21 0.662-0.077 1.004-0.882 0.949-1.368 2.228-1.368 3.596 0 1.401 0.485 2.658 1.368 3.629 0.287 0.353 0.32 0.728 0.066 1.004-0.265 0.309-0.717 0.287-1.004-0.033-1.147-1.246-1.765-2.857-1.765-4.599zM11.588 15.592c0-0.971 0.342-1.908 0.938-2.658 0.265-0.353 0.761-0.375 1.048-0.055 0.221 0.265 0.198 0.607-0.077 0.982-0.364 0.496-0.573 1.103-0.573 1.732 0 0.684 0.198 1.279 0.562 1.754 0.287 0.386 0.32 0.717 0.088 0.993-0.276 0.309-0.783 0.298-1.048-0.055-0.596-0.75-0.938-1.699-0.938-2.691zM14.632 15.592c0-0.728 0.596-1.312 1.323-1.312 0.739 0 1.324 0.585 1.324 1.312 0 0.496-0.287 0.926-0.684 1.147v5.901c0 0.419-0.265 0.695-0.64 0.695-0.364 0-0.629-0.287-0.629-0.695v-5.89c-0.408-0.221-0.695-0.651-0.695-1.158zM18.989 15.592c0-0.629-0.21-1.235-0.563-1.732-0.276-0.375-0.309-0.717-0.088-0.982 0.287-0.32 0.783-0.298 1.048 0.055 0.596 0.75 0.938 1.688 0.938 2.658 0 0.993-0.342 1.941-0.938 2.691-0.265 0.353-0.772 0.364-1.048 0.055-0.232-0.276-0.199-0.607 0.088-0.993 0.364-0.474 0.563-1.070 0.563-1.754zM21.779 15.592c0-1.368-0.485-2.647-1.368-3.596-0.298-0.342-0.331-0.739-0.088-1.004 0.276-0.32 0.728-0.309 1.015 0.033 1.136 1.235 1.776 2.857 1.776 4.566 0 1.743-0.629 3.353-1.776 4.599-0.287 0.32-0.739 0.342-1.004 0.033-0.254-0.276-0.221-0.651 0.077-1.004 0.882-0.971 1.368-2.228 1.368-3.629z"></path>
</svg>
