<!-- Generated by IcoMoon.io -->
<svg version="1.1" xmlns="http://www.w3.org/2000/svg" width="32" height="32" viewBox="0 0 32 32">
<title>antenna-radiowaves-left-and-right</title>
<path d="M4.706 13.491c0 2.857 1.037 5.504 2.868 7.489 0.419 0.463 1.037 0.463 1.39 0.055 0.353-0.397 0.243-0.915-0.154-1.368-1.478-1.643-2.305-3.805-2.305-6.176s0.827-4.533 2.305-6.176c0.397-0.452 0.507-0.971 0.154-1.368-0.353-0.408-0.971-0.408-1.39 0.055-1.831 1.985-2.868 4.632-2.868 7.489zM9.349 13.491c0 1.621 0.551 3.132 1.511 4.324 0.386 0.507 1.048 0.496 1.412 0.077 0.353-0.397 0.21-0.893-0.143-1.368-0.662-0.816-0.982-1.886-0.982-3.033s0.353-2.184 0.982-3.033c0.342-0.485 0.496-0.971 0.143-1.368-0.364-0.419-1.026-0.43-1.412 0.077-0.96 1.191-1.511 2.702-1.511 4.324zM14.434 13.491c0 0.794 0.452 1.478 1.136 1.787v9.915c0 0.563 0.342 0.949 0.849 0.949 0.518 0 0.838-0.375 0.838-0.949v-9.915c0.673-0.309 1.136-1.004 1.136-1.787 0-1.103-0.871-1.996-1.974-1.996-1.114 0-1.985 0.893-1.985 1.996zM20.555 17.891c0.364 0.419 1.026 0.43 1.412-0.077 0.96-1.191 1.511-2.702 1.511-4.324s-0.551-3.132-1.511-4.323c-0.386-0.507-1.048-0.496-1.412-0.077-0.353 0.397-0.198 0.882 0.143 1.368 0.629 0.849 0.982 1.886 0.982 3.033s-0.32 2.217-0.982 3.033c-0.353 0.474-0.496 0.971-0.143 1.368zM23.864 21.035c0.353 0.408 0.971 0.408 1.39-0.055 1.831-1.985 2.868-4.632 2.868-7.489s-1.037-5.504-2.868-7.489c-0.419-0.463-1.037-0.463-1.39-0.055-0.353 0.397-0.243 0.915 0.154 1.368 1.478 1.643 2.305 3.805 2.305 6.176s-0.827 4.533-2.305 6.176c-0.397 0.452-0.507 0.971-0.154 1.368z"></path>
</svg>
