<!-- Generated by IcoMoon.io -->
<svg version="1.1" xmlns="http://www.w3.org/2000/svg" width="32" height="32" viewBox="0 0 32 32">
<title>antenna-radiowaves-left-and-right-circle</title>
<path d="M15.956 27.206c6.154 0 11.25-5.107 11.25-11.25 0-6.154-5.107-11.25-11.261-11.25-6.143 0-11.239 5.096-11.239 11.25 0 6.143 5.107 11.25 11.25 11.25zM15.956 25.331c-5.206 0-9.364-4.169-9.364-9.375s4.147-9.375 9.353-9.375c5.206 0 9.386 4.169 9.386 9.375s-4.169 9.375-9.375 9.375zM9.018 15.625c0 1.676 0.596 3.243 1.71 4.445 0.276 0.309 0.717 0.331 0.971 0.033 0.243-0.265 0.21-0.629-0.066-0.971-0.86-0.926-1.324-2.162-1.324-3.507s0.463-2.57 1.324-3.507c0.276-0.331 0.309-0.706 0.077-0.971-0.265-0.298-0.706-0.287-0.982 0.033-1.103 1.202-1.71 2.768-1.71 4.445zM11.71 15.625c0 0.949 0.331 1.864 0.915 2.592 0.254 0.342 0.739 0.364 1.004 0.055 0.232-0.254 0.198-0.585-0.077-0.96-0.364-0.452-0.551-1.026-0.551-1.687 0-0.629 0.198-1.213 0.563-1.699 0.265-0.364 0.287-0.695 0.066-0.949-0.276-0.309-0.75-0.287-1.004 0.055-0.585 0.728-0.915 1.643-0.915 2.592zM14.665 15.625c0 0.485 0.276 0.893 0.673 1.103v5.735c0 0.386 0.254 0.662 0.607 0.662 0.364 0 0.618-0.265 0.618-0.662v-5.735c0.386-0.209 0.662-0.629 0.662-1.103 0-0.717-0.563-1.279-1.279-1.279-0.706 0-1.279 0.562-1.279 1.279zM18.89 15.625c0 0.662-0.187 1.235-0.551 1.687-0.276 0.375-0.309 0.706-0.077 0.96 0.265 0.309 0.75 0.287 1.004-0.055 0.584-0.728 0.915-1.643 0.915-2.592s-0.331-1.864-0.915-2.592c-0.254-0.342-0.728-0.364-1.004-0.055-0.221 0.254-0.187 0.585 0.077 0.949 0.353 0.485 0.551 1.070 0.551 1.699zM21.592 15.625c0 1.346-0.463 2.581-1.323 3.507-0.287 0.342-0.32 0.706-0.077 0.971 0.254 0.298 0.695 0.276 0.971-0.033 1.114-1.202 1.721-2.768 1.721-4.445s-0.618-3.243-1.721-4.445c-0.276-0.32-0.717-0.331-0.982-0.033-0.232 0.265-0.198 0.64 0.088 0.971 0.86 0.938 1.323 2.162 1.323 3.507z"></path>
</svg>
