<!-- Generated by IcoMoon.io -->
<svg version="1.1" xmlns="http://www.w3.org/2000/svg" width="32" height="32" viewBox="0 0 32 32">
<title>antenna-radiowaves-left-and-right-slash</title>
<path d="M8.963 20.928c0.353-0.397 0.243-0.915-0.154-1.368-1.478-1.643-2.305-3.805-2.305-6.176 0-1.952 0.563-3.739 1.577-5.228l-1.29-1.29c-1.346 1.831-2.085 4.092-2.085 6.518 0 2.857 1.037 5.504 2.868 7.489 0.419 0.463 1.037 0.463 1.39 0.055zM12.272 17.785c0.353-0.397 0.21-0.893-0.143-1.368-0.662-0.816-0.982-1.886-0.982-3.033 0-0.64 0.132-1.246 0.364-1.809l-1.379-1.379c-0.518 0.96-0.783 2.051-0.783 3.187 0 1.621 0.551 3.132 1.511 4.324 0.386 0.507 1.048 0.496 1.412 0.077zM16.419 26.035c0.518 0 0.838-0.375 0.838-0.949v-7.754l-1.687-1.688v9.441c0 0.563 0.342 0.949 0.849 0.949zM22.805 16.34c0.441-0.893 0.673-1.897 0.673-2.956 0-1.621-0.551-3.132-1.511-4.324-0.386-0.507-1.048-0.496-1.412-0.077-0.353 0.397-0.198 0.882 0.143 1.368 0.629 0.849 0.982 1.886 0.982 3.033 0 0.551-0.088 1.081-0.287 1.555l1.412 1.401zM26.18 19.726c1.246-1.82 1.941-4.004 1.941-6.342 0-2.857-1.037-5.504-2.868-7.489-0.419-0.463-1.037-0.463-1.39-0.055-0.353 0.397-0.243 0.915 0.154 1.368 1.478 1.643 2.305 3.805 2.305 6.176 0 1.864-0.518 3.574-1.456 5.029l1.312 1.312zM26.048 24.061c0.331 0.331 0.871 0.331 1.202 0 0.32-0.342 0.331-0.871 0-1.202l-19.787-19.787c-0.331-0.331-0.882-0.331-1.213 0-0.32 0.32-0.32 0.882 0 1.202l19.798 19.787z"></path>
</svg>
