<!-- Generated by IcoMoon.io -->
<svg version="1.1" xmlns="http://www.w3.org/2000/svg" width="32" height="32" viewBox="0 0 32 32">
<title>app-gift-fill</title>
<path d="M5.647 15.331h5.294c-1.489-0.662-2.515-1.897-2.515-3.375 0-1.721 1.257-3 2.967-3 1.467 0 2.79 0.926 3.562 2.438v-5.746h1.445v5.746c0.772-1.511 2.096-2.438 3.574-2.438 1.698 0 2.967 1.279 2.967 3 0 1.478-1.037 2.713-2.526 3.375h5.305v1.312h-8.173c0.684 1.412 2.945 3.54 4.577 3.706 0.607 0.055 0.949 0.441 0.949 1.026 0 0.507-0.419 0.993-1.092 0.904-1.809-0.265-4.721-2.393-5.493-4.82h-0.088v8.25h-1.445v-8.25h-0.077c-0.772 2.426-3.684 4.555-5.504 4.82-0.673 0.088-1.092-0.397-1.092-0.904 0-0.585 0.342-0.96 0.96-1.026 1.632-0.187 3.882-2.294 4.566-3.706h-8.162v-1.312zM14.393 15.154h0.353v-0.342c0-2.228-1.522-4.169-3.265-4.169-0.849 0-1.39 0.562-1.39 1.434 0 1.489 1.974 3.077 4.301 3.077zM16.974 15.154c2.316 0 4.29-1.588 4.29-3.077 0-0.871-0.529-1.434-1.379-1.434-1.754 0-3.265 1.941-3.265 4.169v0.342h0.353zM24.43 6.949c-1.125-1.125-2.713-1.301-4.599-1.301h-8.327c-1.853 0-3.441 0.176-4.566 1.301s-1.29 2.702-1.29 4.544v8.338c0 1.886 0.165 3.452 1.29 4.577s2.713 1.301 4.588 1.301h8.305c1.886 0 3.474-0.176 4.599-1.301s1.29-2.691 1.29-4.577v-8.305c0-1.886-0.165-3.463-1.29-4.577z"></path>
</svg>
