<!-- Generated by IcoMoon.io -->
<svg version="1.1" xmlns="http://www.w3.org/2000/svg" width="32" height="32" viewBox="0 0 32 32">
<title>app-gift</title>
<path d="M6.154 15.485v1.213h7.798c-0.651 1.346-2.768 3.331-4.301 3.496-0.563 0.055-0.882 0.408-0.882 0.938 0 0.485 0.386 0.938 1.004 0.849 1.71-0.265 4.423-2.239 5.162-4.511h0.077v7.952h1.335v-7.952h0.088c0.728 2.272 3.452 4.246 5.151 4.511 0.629 0.088 1.015-0.364 1.015-0.849 0-0.529-0.32-0.882-0.893-0.938-1.522-0.165-3.651-2.151-4.29-3.496h7.787v-1.213h-5.107c1.401-0.629 2.371-1.776 2.371-3.165 0-1.61-1.18-2.79-2.768-2.79-1.379 0-2.625 0.871-3.353 2.283v-5.272h-1.335v5.272c-0.728-1.412-1.974-2.283-3.353-2.283-1.588 0-2.768 1.18-2.768 2.79 0 1.39 0.982 2.537 2.371 3.165h-5.107zM14.482 15.32c-2.173 0-4.037-1.489-4.037-2.879 0-0.838 0.507-1.346 1.301-1.346 1.632 0 3.066 1.82 3.066 3.915v0.309h-0.331zM16.875 15.32h-0.331v-0.309c0-2.096 1.434-3.915 3.066-3.915 0.805 0 1.302 0.507 1.302 1.346 0 1.39-1.853 2.879-4.037 2.879zM24.695 6.971c-1.125-1.125-2.713-1.301-4.599-1.301h-8.592c-1.853 0-3.441 0.176-4.566 1.301s-1.29 2.702-1.29 4.544v8.515c0 1.886 0.165 3.452 1.29 4.577s2.713 1.301 4.588 1.301h8.57c1.886 0 3.474-0.176 4.599-1.301s1.29-2.691 1.29-4.577v-8.482c0-1.886-0.165-3.463-1.29-4.577zM24.21 11.239v9.088c0 1.147-0.143 2.316-0.816 2.989-0.662 0.662-1.853 0.816-2.989 0.816h-9.176c-1.136 0-2.327-0.154-3-0.816-0.662-0.673-0.805-1.842-0.805-2.989v-9.055c0-1.158 0.143-2.349 0.805-3.011 0.673-0.673 1.875-0.816 3.033-0.816h9.143c1.136 0 2.327 0.154 2.989 0.816 0.673 0.673 0.816 1.842 0.816 2.978z"></path>
</svg>
