<!-- Generated by IcoMoon.io -->
<svg version="1.1" xmlns="http://www.w3.org/2000/svg" width="32" height="32" viewBox="0 0 32 32">
<title>app-connected-to-app-below-fill</title>
<path d="M9.29 11.375c0 2.206 1.368 3.75 3.993 4.478l5.548 1.566c1.82 0.518 2.757 1.456 2.757 2.779v0.772h1.776v-0.772c0-2.195-1.368-3.739-3.993-4.467l-5.548-1.566c-1.809-0.507-2.757-1.467-2.757-2.79v-0.761h-1.776v0.761zM13.327 4.25c-0.408-0.408-0.982-0.474-1.655-0.474h-2.978c-0.662 0-1.235 0.066-1.643 0.474s-0.463 0.971-0.463 1.632v2.978c0 0.673 0.055 1.246 0.463 1.643 0.408 0.408 0.982 0.474 1.654 0.474h2.967c0.673 0 1.246-0.066 1.655-0.474 0.397-0.397 0.463-0.971 0.463-1.643v-2.967c0-0.673-0.066-1.235-0.463-1.643zM25.603 21.059c-0.408-0.408-0.982-0.474-1.654-0.474h-2.978c-0.662 0-1.235 0.066-1.643 0.474s-0.463 0.971-0.463 1.632v2.978c0 0.673 0.055 1.246 0.463 1.643 0.408 0.408 0.982 0.463 1.643 0.463h2.978c0.673 0 1.246-0.055 1.654-0.463 0.397-0.397 0.452-0.971 0.452-1.643v-2.978c0-0.662-0.055-1.224-0.452-1.632z"></path>
</svg>
