<!-- Generated by IcoMoon.io -->
<svg version="1.1" xmlns="http://www.w3.org/2000/svg" width="32" height="32" viewBox="0 0 32 32">
<title>app-dashed</title>
<path d="M6.938 6.971c-1.081 1.081-1.29 2.581-1.29 4.368v0.11h1.776v-0.176c0-1.158 0.143-2.349 0.805-3.011 0.673-0.673 1.875-0.816 3.033-0.816h0.199v-1.776h-0.132c-1.787 0-3.298 0.21-4.39 1.301zM12.971 7.445h5.691v-1.776h-5.691v1.776zM24.695 6.971c-1.092-1.092-2.603-1.301-4.423-1.301h-0.11v1.776h0.243c1.136 0 2.327 0.154 2.989 0.816 0.673 0.673 0.816 1.842 0.816 2.978v0.21h1.776v-0.077c0-1.831-0.21-3.331-1.29-4.401zM24.21 18.618h1.776v-5.658h-1.776v5.658zM24.695 24.607c1.081-1.081 1.29-2.57 1.29-4.401v-0.077h-1.776v0.199c0 1.147-0.143 2.316-0.816 2.989-0.662 0.662-1.853 0.816-2.989 0.816h-0.243v1.776h0.11c1.82 0 3.331-0.209 4.423-1.301zM12.971 25.908h5.691v-1.776h-5.691v1.776zM6.938 24.607c1.092 1.092 2.603 1.301 4.412 1.301h0.11v-1.776h-0.232c-1.136 0-2.327-0.154-3-0.816-0.662-0.673-0.805-1.842-0.805-2.989v-0.199h-1.776v0.077c0 1.831 0.21 3.32 1.29 4.401zM5.647 18.618h1.776v-5.658h-1.776v5.658z"></path>
</svg>
