<!-- Generated by IcoMoon.io -->
<svg version="1.1" xmlns="http://www.w3.org/2000/svg" width="32" height="32" viewBox="0 0 32 32">
<title>appclip</title>
<path d="M7.235 8.165c-0.816 0.816-1.423 2.074-1.456 3.099-0.011 0.375 0.21 0.64 0.574 0.64 0.331 0 0.551-0.187 0.618-0.518 0.165-0.938 0.474-1.71 1.114-2.371 0.739-0.706 1.434-0.926 2.427-1.136 0.309-0.077 0.496-0.287 0.496-0.574 0-0.353-0.254-0.596-0.618-0.596-0.96 0.011-2.272 0.574-3.154 1.456zM18.375 6.588h-5.691c-0.331 0-0.607 0.276-0.607 0.607s0.276 0.618 0.607 0.618h5.691c0.331 0 0.607-0.287 0.607-0.618s-0.276-0.607-0.607-0.607zM23.813 8.165c-0.871-0.882-2.184-1.445-3.143-1.456-0.375 0-0.618 0.243-0.618 0.596 0 0.287 0.176 0.496 0.485 0.574 0.96 0.199 1.688 0.419 2.438 1.136 0.64 0.662 0.937 1.434 1.114 2.371 0.066 0.331 0.276 0.518 0.618 0.518 0.353 0 0.585-0.265 0.574-0.64-0.033-1.026-0.64-2.283-1.467-3.099zM25.412 19.327v-5.702c0-0.331-0.287-0.607-0.618-0.607s-0.607 0.276-0.607 0.607v5.702c0 0.331 0.276 0.607 0.607 0.607s0.618-0.276 0.618-0.607zM23.813 24.754c0.827-0.816 1.434-2.073 1.467-3.099 0.011-0.375-0.221-0.64-0.574-0.64-0.342 0-0.551 0.187-0.618 0.518-0.177 0.938-0.474 1.699-1.114 2.371-0.739 0.706-1.445 0.927-2.438 1.136-0.309 0.066-0.485 0.287-0.485 0.573 0 0.353 0.243 0.596 0.618 0.596 0.96-0.011 2.272-0.574 3.143-1.456zM12.684 26.331h5.691c0.331 0 0.607-0.276 0.607-0.607s-0.276-0.618-0.607-0.618h-5.691c-0.331 0-0.607 0.287-0.607 0.618s0.276 0.607 0.607 0.607zM7.235 24.754c0.882 0.882 2.195 1.445 3.154 1.456 0.364 0 0.618-0.243 0.618-0.596 0-0.287-0.187-0.507-0.496-0.573-0.96-0.199-1.677-0.419-2.427-1.136-0.64-0.673-0.949-1.434-1.114-2.371-0.066-0.331-0.287-0.518-0.618-0.518-0.364 0-0.585 0.265-0.574 0.64 0.033 1.026 0.64 2.283 1.456 3.099zM5.647 13.625v5.702c0 0.331 0.276 0.607 0.618 0.607 0.331 0 0.607-0.276 0.607-0.607v-5.702c0-0.331-0.276-0.607-0.607-0.607-0.342 0-0.618 0.276-0.618 0.607zM21.882 10.118c-0.827-0.827-1.974-0.949-3.342-0.949h-6.044c-1.345 0-2.493 0.132-3.32 0.949-0.816 0.816-0.938 1.952-0.938 3.298v6.055c0 1.368 0.121 2.504 0.938 3.32 0.827 0.816 1.974 0.949 3.342 0.949h6.022c1.368 0 2.526-0.132 3.342-0.949s0.938-1.952 0.938-3.32v-6.033c0-1.368-0.121-2.515-0.938-3.32z"></path>
</svg>
