<!-- Generated by IcoMoon.io -->
<svg version="1.1" xmlns="http://www.w3.org/2000/svg" width="32" height="32" viewBox="0 0 32 32">
<title>applescript</title>
<path d="M6.589 13.684c-0.022 1.158 0.452 2.217 1.357 3.121l4.776 4.787c-1.886 1.257-2.658 2.437-2.658 3.982 0 2.272 1.82 3.651 3.739 3.684 1.103 0.022 2.107-0.397 2.779-1.081l7.82-7.842c1.82-1.82 1.687-3.982-0.342-6l-4.401-4.401 1.511-1.522c0.75-0.75 1.191-1.721 1.18-2.68 0.033-2.162-1.632-3.838-3.816-3.849-1.224 0-2.173 0.441-3.221 1.511l-7.588 7.566c-0.728 0.717-1.125 1.677-1.136 2.724zM11.144 10.055l5.415-5.415c0.728-0.728 1.224-0.982 1.974-0.982 1.202 0 2.063 0.86 2.063 2.051 0 0.496-0.254 1.026-0.673 1.456l-5.857 5.846c-0.187-1.599-1.257-2.691-2.923-2.956zM8.431 13.838c0-1.279 0.783-2.14 1.952-2.14 1.213 0 2.051 0.882 2.051 2.217 0 0.154 0 0.618-0.198 1.147-0.309 0.927 0.816 1.489 1.489 0.794l4.677-4.665 4.412 4.39c1.346 1.346 1.434 2.404 0.342 3.507l-5.68 5.68c-0.165-0.915-0.706-1.621-1.82-2.735l-6.055-6.088c-0.893-0.893-1.169-1.412-1.169-2.107zM11.839 25.673c0-1.059 0.618-1.842 2.173-2.79l0.397 0.397c1.114 1.125 1.423 1.621 1.434 2.393 0 0.993-0.904 1.798-2.040 1.798-1.026 0-1.963-0.728-1.963-1.798z"></path>
</svg>
