<!-- Generated by IcoMoon.io -->
<svg version="1.1" xmlns="http://www.w3.org/2000/svg" width="32" height="32" viewBox="0 0 32 32">
<title>applewatch-case-inset-filled</title>
<path d="M8.89 21.927c0 0.971 0.563 1.566 1.489 1.566h8.857c0.915 0 1.478-0.596 1.478-1.566v-11.438c0-0.949-0.585-1.577-1.478-1.577h-8.857c-0.904 0-1.489 0.629-1.489 1.577v11.438zM10.599 26.746h8.404c3.099 0 4.952-1.886 4.952-5.040v-10.996c0-3.154-1.853-5.029-4.952-5.029h-8.404c-3.099 0-4.952 1.875-4.952 5.029v10.996c0 3.154 1.853 5.040 4.952 5.040zM10.522 24.971c-1.941 0-3.099-1.18-3.099-3.187v-11.096c0-1.996 1.158-3.176 3.099-3.176h8.559c1.952 0 3.099 1.18 3.099 3.176v11.096c0 2.007-1.147 3.187-3.099 3.187h-8.559zM23.757 15.055h0.496c0.706 0 1.158-0.485 1.158-1.246v-1.842c0-0.783-0.452-1.268-1.158-1.268h-0.496v4.357z"></path>
</svg>
