<!-- Generated by IcoMoon.io -->
<svg version="1.1" xmlns="http://www.w3.org/2000/svg" width="32" height="32" viewBox="0 0 32 32">
<title>appletv-fill</title>
<path d="M10.607 13.21c-0.022-0.86 0.662-1.677 1.577-1.721 0.066 0.816-0.651 1.82-1.577 1.721zM13.75 17.147c-0.165 0.584-0.563 1.268-1.048 1.765-0.154 0.132-0.375 0.243-0.662 0.243-0.265 0-0.419-0.099-0.651-0.176-0.143-0.044-0.353-0.143-0.596-0.143-0.563 0-0.816 0.342-1.279 0.342-0.309 0-0.563-0.198-0.915-0.574-0.651-0.728-1.081-1.886-1.081-2.879 0-0.607 0.154-1.18 0.54-1.654 0.32-0.419 0.805-0.662 1.412-0.662 0.551 0 0.882 0.353 1.18 0.353 0.353 0 0.75-0.364 1.445-0.364 0.618 0 1.136 0.243 1.467 0.739-0.441 0.254-0.607 0.574-0.695 0.838-0.143 0.386-0.165 0.838 0 1.29 0.165 0.408 0.441 0.684 0.882 0.882zM16.86 12.051v1.346h1.092v0.904h-1.092v3.165c0 0.518 0.221 0.717 0.684 0.717 0.121 0 0.331 0 0.386-0.033v0.96c-0.099 0.011-0.386 0.044-0.64 0.044-1.158 0-1.61-0.408-1.61-1.555v-3.298h-0.816v-0.904h0.816v-1.346h1.18zM21.813 19.11h-1.235l-2.096-5.713h1.246l1.478 4.588 1.39-4.588h1.279l-2.063 5.713zM10.585 26.665h10.257c1.886 0 3.474-0.176 4.599-1.301s1.29-2.702 1.29-4.588v-10.169c0-1.886-0.165-3.452-1.29-4.577s-2.713-1.301-4.599-1.301h-10.279c-1.853 0-3.441 0.176-4.566 1.301s-1.29 2.702-1.29 4.555v10.191c0 1.886 0.165 3.463 1.29 4.588s2.713 1.301 4.588 1.301z"></path>
</svg>
