<!-- Generated by IcoMoon.io -->
<svg version="1.1" xmlns="http://www.w3.org/2000/svg" width="32" height="32" viewBox="0 0 32 32">
<title>appletvremote-gen4-fill</title>
<path d="M13.886 28.129h4.577c1.632 0 2.581-0.96 2.581-2.592v-19.18c0-1.632-0.949-2.592-2.581-2.592h-4.577c-1.643 0-2.592 0.96-2.592 2.592v19.18c0 1.632 0.949 2.592 2.592 2.592zM16.169 12.61c-1.897 0-3.43-1.522-3.43-3.43 0-1.897 1.533-3.419 3.43-3.419 1.908 0 3.441 1.522 3.441 3.419 0 1.908-1.533 3.43-3.441 3.43zM14.471 15.985c-0.684 0-1.235-0.552-1.235-1.246 0-0.684 0.54-1.235 1.235-1.235s1.257 0.551 1.257 1.235c0 0.695-0.573 1.246-1.257 1.246zM17.89 15.985c-0.706 0-1.268-0.552-1.268-1.246 0-0.684 0.562-1.235 1.268-1.235 0.684 0 1.224 0.551 1.224 1.235s-0.551 1.246-1.224 1.246zM14.471 19.261c-0.684 0-1.235-0.551-1.235-1.235s0.551-1.246 1.235-1.246c0.695 0 1.257 0.552 1.257 1.246s-0.562 1.235-1.257 1.235zM14.471 22.548c-0.684 0-1.235-0.551-1.235-1.235 0-0.695 0.551-1.268 1.235-1.268s1.257 0.573 1.257 1.268c0 0.695-0.562 1.235-1.257 1.235zM17.868 22.548c-0.64 0-1.169-0.529-1.169-1.158v-3.441c0-0.651 0.518-1.169 1.169-1.169s1.191 0.529 1.191 1.169v3.441c0 0.64-0.54 1.158-1.191 1.158z"></path>
</svg>
