<!-- Generated by IcoMoon.io -->
<svg version="1.1" xmlns="http://www.w3.org/2000/svg" width="32" height="32" viewBox="0 0 32 32">
<title>appletvremote-gen2-fill</title>
<path d="M10.353 25.746c0 1.456 0.971 2.382 2.515 2.382h5.625c1.533 0 2.515-0.927 2.515-2.382v-19.599c0-1.445-0.982-2.382-2.515-2.382h-5.625c-1.544 0-2.515 0.937-2.515 2.382v19.599zM13.684 17.629c-0.761 0-1.379-0.618-1.379-1.368 0-0.761 0.618-1.368 1.379-1.368s1.357 0.607 1.357 1.368c0 0.75-0.596 1.368-1.357 1.368zM17.699 17.629c-0.772 0-1.379-0.618-1.379-1.368 0-0.761 0.607-1.368 1.379-1.368 0.75 0 1.357 0.607 1.357 1.368 0 0.75-0.607 1.368-1.357 1.368zM15.68 13.482c-1.963 0-3.596-1.61-3.596-3.596s1.632-3.596 3.596-3.596c1.974 0 3.596 1.61 3.596 3.596s-1.621 3.596-3.596 3.596zM15.691 11.331c0.805 0 1.456-0.64 1.456-1.445s-0.651-1.456-1.456-1.456c-0.805 0-1.467 0.651-1.467 1.456s0.662 1.445 1.467 1.445z"></path>
</svg>
