<!-- Generated by IcoMoon.io -->
<svg version="1.1" xmlns="http://www.w3.org/2000/svg" width="32" height="32" viewBox="0 0 32 32">
<title>appletvremote-gen3-fill</title>
<path d="M12.945 28.129h5.515c1.632 0 2.592-0.96 2.592-2.592v-19.18c0-1.632-0.96-2.592-2.592-2.592h-5.515c-1.632 0-2.592 0.96-2.592 2.592v19.18c0 1.632 0.96 2.592 2.592 2.592zM13.739 13.294c-0.794 0-1.412-0.64-1.412-1.412 0-0.783 0.618-1.412 1.412-1.412 0.772 0 1.401 0.629 1.401 1.412 0 0.772-0.629 1.412-1.401 1.412zM17.643 13.294c-0.783 0-1.412-0.64-1.412-1.412 0-0.783 0.629-1.412 1.412-1.412s1.412 0.629 1.412 1.412c0 0.772-0.629 1.412-1.412 1.412zM13.739 17.364c-0.794 0-1.412-0.64-1.412-1.412 0-0.783 0.618-1.412 1.412-1.412 0.772 0 1.401 0.629 1.401 1.412 0 0.772-0.629 1.412-1.401 1.412zM13.739 21.423c-0.794 0-1.412-0.618-1.412-1.412 0-0.772 0.618-1.412 1.412-1.412 0.772 0 1.401 0.64 1.401 1.412 0 0.794-0.629 1.412-1.401 1.412zM17.632 21.423c-0.739 0-1.324-0.585-1.324-1.346v-4.191c0-0.75 0.585-1.346 1.324-1.346 0.75 0 1.368 0.596 1.368 1.346v4.191c0 0.761-0.618 1.346-1.368 1.346z"></path>
</svg>
