<!-- Generated by IcoMoon.io -->
<svg version="1.1" xmlns="http://www.w3.org/2000/svg" width="32" height="32" viewBox="0 0 32 32">
<title>appletvremote-gen1-fill</title>
<path d="M10.353 25.746c0 1.456 0.971 2.382 2.515 2.382h5.912c1.544 0 2.515-0.927 2.515-2.382v-19.599c0-1.445-0.971-2.382-2.515-2.382h-5.912c-1.544 0-2.515 0.937-2.515 2.382v19.599zM15.835 18.941c-0.794 0-1.423-0.629-1.423-1.401 0-0.794 0.629-1.412 1.423-1.412 0.772 0 1.401 0.618 1.401 1.412 0 0.772-0.629 1.401-1.401 1.401zM15.835 14.596c-2.063 0-3.75-1.688-3.75-3.75s1.688-3.75 3.75-3.75c2.063 0 3.739 1.687 3.739 3.75s-1.677 3.75-3.739 3.75zM15.835 12.357c0.838 0 1.511-0.673 1.511-1.511s-0.673-1.522-1.511-1.522-1.522 0.684-1.522 1.522c0 0.838 0.684 1.511 1.522 1.511z"></path>
</svg>
