<!-- Generated by IcoMoon.io -->
<svg version="1.1" xmlns="http://www.w3.org/2000/svg" width="32" height="32" viewBox="0 0 32 32">
<title>applewatch-side-right</title>
<path d="M16.555 27.868c5.835 0 10.555-5.184 10.555-11.581s-4.721-11.581-10.555-11.581c-3.132 0-5.978 1.5-7.919 3.938-0.199 0.243-0.276 0.474-0.276 0.695 0 0.474 0.43 0.805 0.893 0.805 0.265 0 0.54-0.11 0.739-0.364 1.61-2.051 3.993-3.298 6.562-3.298 4.842 0 8.768 4.39 8.768 9.805s-3.926 9.805-8.768 9.805c-2.57 0-4.952-1.257-6.562-3.298-0.198-0.254-0.474-0.364-0.739-0.364-0.463 0-0.893 0.331-0.893 0.805 0 0.21 0.077 0.452 0.276 0.695 1.941 2.437 4.787 3.938 7.919 3.938z"></path>
<path d="M5.647 21.934c0 1.401 1.114 2.504 2.438 2.57-0.353-0.441-0.529-0.86-0.529-1.246 0-0.915 0.849-1.632 1.732-1.632 0.695 0 1.048 0.353 1.511 0.915 0.044-0.198 0.066-0.397 0.066-0.607v-11.305c0-0.21-0.022-0.397-0.066-0.596-0.441 0.529-0.794 0.904-1.5 0.904-0.893 0-1.743-0.706-1.743-1.621 0-0.386 0.176-0.794 0.529-1.246-1.313 0.066-2.438 1.158-2.438 2.559v11.305zM8.272 16.143c-0.982 0-1.787-0.794-1.787-1.765 0-0.982 0.805-1.776 1.787-1.776 0.949 0 1.754 0.805 1.754 1.776s-0.794 1.765-1.754 1.765zM8.272 15.272c0.496 0 0.882-0.386 0.882-0.893s-0.386-0.904-0.882-0.904c-0.529 0-0.915 0.397-0.915 0.904s0.386 0.893 0.915 0.893z"></path>
</svg>
