<!-- Generated by IcoMoon.io -->
<svg version="1.1" xmlns="http://www.w3.org/2000/svg" width="32" height="32" viewBox="0 0 32 32">
<title>applescript-fill</title>
<path d="M23.82 21.618c1.776-1.787 1.665-3.882-0.364-5.901l-3.915-3.927-5.68 5.702c-0.739 0.728-1.82 0.121-1.511-0.871 0.154-0.43 0.176-0.893 0.176-1.368 0-1.787-1.169-2.702-2.426-2.702-1.688-0.011-2.57 1.070-2.57 2.294 0 0.871 0.452 1.699 1.059 2.294l7.213 7.213c0.904 0.904 1.522 1.743 1.522 3.022 0 0.287-0.033 0.574-0.187 0.893 0.353-0.298 0.651-0.585 0.938-0.871l5.746-5.779zM13.364 29.945c1.357 0 2.426-1.059 2.426-2.382 0-0.827-0.364-1.478-1.235-2.36l-1.401-1.412c-1.346 0.938-2.382 1.974-2.382 3.662 0 1.456 1.092 2.493 2.592 2.493zM10.099 11.040c2.129 0 3.662 1.489 3.662 3.408 0 0.044 0 0.143-0.011 0.21-0.011 0.386 0.397 0.43 0.562 0.265l6.375-6.375c0.651-0.651 1.004-1.467 1.015-2.338 0-2.040-1.566-3.386-3.254-3.386-1.313 0-2.283 0.607-3.309 1.632l-7.191 7.18c0.651-0.375 1.379-0.596 2.151-0.596z"></path>
</svg>
