<!-- Generated by IcoMoon.io -->
<svg version="1.1" xmlns="http://www.w3.org/2000/svg" width="32" height="32" viewBox="0 0 32 32">
<title>applewatch-watchface</title>
<path d="M8.471 20.033c0 1.71 0.673 2.967 1.919 3.651 0.607 0.32 0.96 0.728 1.18 1.467l0.353 1.18c0.21 0.706 0.706 1.048 1.445 1.048h5.096c0.761 0 1.224-0.331 1.434-1.048l0.364-1.18c0.221-0.739 0.574-1.147 1.18-1.467 1.246-0.684 1.919-1.941 1.919-3.651v-8.923c0-1.71-0.673-2.956-1.919-3.651-0.607-0.32-0.96-0.728-1.18-1.456l-0.364-1.191c-0.187-0.695-0.684-1.048-1.434-1.048h-5.096c-0.739 0-1.235 0.342-1.445 1.048l-0.353 1.191c-0.21 0.717-0.563 1.147-1.18 1.456-1.235 0.662-1.919 1.919-1.919 3.651v8.923zM10.081 19.802v-8.449c0-1.643 0.96-2.636 2.57-2.636h6.529c1.61 0 2.57 0.993 2.57 2.636v8.449c0 1.632-0.96 2.625-2.57 2.625h-6.529c-1.61 0-2.57-0.993-2.57-2.625zM23.118 14.794h0.397c0.574 0 0.949-0.386 0.949-1.015v-1.489c0-0.629-0.375-1.015-0.949-1.015h-0.397v3.518zM12.673 13.228c-0.265 0.309-0.221 0.783 0.099 1.059l2.261 1.897c0.474 0.397 0.926 0.397 1.379 0l3.849-3.364c0.309-0.276 0.309-0.75 0.011-1.059-0.287-0.276-0.739-0.276-1.048 0l-3.518 3.055-1.996-1.688c-0.309-0.243-0.761-0.21-1.037 0.099z"></path>
</svg>
