<!-- Generated by IcoMoon.io -->
<svg version="1.1" xmlns="http://www.w3.org/2000/svg" width="32" height="32" viewBox="0 0 32 32">
<title>appletv</title>
<path d="M10.761 13.276c0.893 0.099 1.588-0.882 1.533-1.665-0.893 0.033-1.555 0.827-1.533 1.665zM13.805 17.092c-0.419-0.188-0.695-0.463-0.849-0.86-0.165-0.43-0.143-0.871 0-1.246 0.077-0.254 0.243-0.563 0.673-0.816-0.32-0.474-0.827-0.717-1.423-0.717-0.673 0-1.059 0.353-1.401 0.353-0.287 0-0.607-0.342-1.147-0.342-0.585 0-1.059 0.243-1.368 0.64-0.375 0.463-0.529 1.026-0.529 1.61 0 0.96 0.419 2.085 1.048 2.79 0.342 0.364 0.596 0.551 0.893 0.551 0.452 0 0.695-0.331 1.235-0.331 0.243 0 0.441 0.099 0.585 0.143 0.221 0.077 0.375 0.176 0.629 0.176 0.276 0 0.496-0.11 0.64-0.243 0.474-0.474 0.86-1.147 1.015-1.71zM16.827 12.151h-1.147v1.301h-0.794v0.882h0.794v3.198c0 1.114 0.441 1.511 1.566 1.511 0.243 0 0.518-0.033 0.618-0.044v-0.938c-0.055 0.033-0.254 0.033-0.375 0.033-0.452 0-0.662-0.188-0.662-0.695v-3.066h1.059v-0.882h-1.059v-1.301zM21.625 19l2.007-5.548h-1.246l-1.346 4.456-1.434-4.456h-1.213l2.040 5.548h1.191zM10.585 26.665h10.257c1.886 0 3.474-0.176 4.599-1.301s1.29-2.702 1.29-4.588v-10.169c0-1.886-0.165-3.452-1.29-4.577s-2.713-1.301-4.599-1.301h-10.279c-1.853 0-3.441 0.176-4.566 1.301s-1.29 2.702-1.29 4.555v10.191c0 1.886 0.165 3.463 1.29 4.588s2.713 1.301 4.588 1.301zM10.287 24.89c-1.136 0-2.327-0.154-3-0.827-0.662-0.662-0.805-1.842-0.805-2.978v-10.743c0-1.169 0.143-2.349 0.805-3.022 0.673-0.662 1.875-0.816 3.033-0.816h10.831c1.136 0 2.327 0.154 2.989 0.827 0.673 0.662 0.816 1.842 0.816 2.978v10.776c0 1.136-0.143 2.316-0.816 2.978-0.662 0.673-1.853 0.827-2.989 0.827h-10.864z"></path>
</svg>
