<!-- Generated by IcoMoon.io -->
<svg version="1.1" xmlns="http://www.w3.org/2000/svg" width="32" height="32" viewBox="0 0 32 32">
<title>appletvremote-gen1</title>
<path d="M10.353 25.746c0 1.456 0.971 2.382 2.515 2.382h6.86c1.544 0 2.515-0.927 2.515-2.382v-19.599c0-1.445-0.971-2.382-2.515-2.382h-6.86c-1.544 0-2.515 0.937-2.515 2.382v19.599zM11.985 25.515v-19.136c0-0.618 0.408-1.004 1.070-1.004h6.485c0.673 0 1.070 0.386 1.070 1.004v19.136c0 0.618-0.397 1.004-1.070 1.004h-6.485c-0.662 0-1.070-0.386-1.070-1.004zM16.309 14.32c1.919 0 3.474-1.566 3.474-3.474 0-1.919-1.555-3.485-3.474-3.485s-3.485 1.566-3.485 3.485c0 1.908 1.566 3.474 3.485 3.474zM16.309 12.246c-0.783 0-1.412-0.629-1.412-1.401 0-0.783 0.629-1.412 1.412-1.412s1.401 0.629 1.401 1.412c0 0.772-0.618 1.401-1.401 1.401zM16.309 18.081c0.706 0 1.279-0.573 1.279-1.279 0-0.717-0.574-1.29-1.279-1.29-0.717 0-1.301 0.573-1.301 1.29 0 0.706 0.585 1.279 1.301 1.279z"></path>
</svg>
