<!-- Generated by IcoMoon.io -->
<svg version="1.1" xmlns="http://www.w3.org/2000/svg" width="32" height="32" viewBox="0 0 32 32">
<title>applewatch-radiowaves-left-and-right</title>
<path d="M2.375 23.121c0.353-0.397 0.243-0.915-0.154-1.368-1.478-1.643-2.305-3.805-2.305-6.176s0.827-4.533 2.305-6.176c0.397-0.452 0.507-0.971 0.154-1.368-0.353-0.419-0.971-0.408-1.39 0.055-1.831 1.985-2.868 4.632-2.868 7.489s1.037 5.493 2.868 7.489c0.419 0.463 1.037 0.463 1.39 0.055zM5.463 19.978c0.353-0.397 0.21-0.893-0.143-1.368-0.662-0.827-0.982-1.886-0.982-3.033s0.32-2.217 0.982-3.033c0.353-0.474 0.496-0.971 0.143-1.368-0.364-0.419-1.026-0.419-1.412 0.077-0.96 1.191-1.511 2.702-1.511 4.324s0.551 3.132 1.511 4.323c0.386 0.496 1.048 0.485 1.412 0.077zM29.132 23.121c0.353 0.408 0.971 0.408 1.401-0.055 1.831-1.996 2.857-4.632 2.857-7.489s-1.026-5.504-2.857-7.489c-0.43-0.463-1.048-0.474-1.401-0.055-0.353 0.397-0.243 0.915 0.154 1.368 1.478 1.643 2.305 3.805 2.305 6.177s-0.827 4.533-2.305 6.176c-0.397 0.452-0.507 0.971-0.154 1.368zM26.044 19.978c0.364 0.408 1.026 0.419 1.412-0.077 0.96-1.191 1.522-2.702 1.522-4.323s-0.563-3.132-1.522-4.324c-0.386-0.496-1.048-0.496-1.412-0.077-0.353 0.397-0.199 0.893 0.143 1.368 0.662 0.816 0.993 1.886 0.993 3.033s-0.331 2.206-0.993 3.033c-0.342 0.474-0.496 0.971-0.143 1.368zM8 20.055c0 1.71 0.673 2.967 1.93 3.651 0.596 0.32 0.949 0.728 1.18 1.467l0.353 1.18c0.198 0.706 0.695 1.048 1.434 1.048h5.096c0.772 0 1.224-0.331 1.445-1.048l0.353-1.18c0.232-0.739 0.574-1.147 1.18-1.467 1.246-0.684 1.919-1.941 1.919-3.651v-8.923c0-1.71-0.673-2.956-1.919-3.651-0.607-0.32-0.949-0.728-1.18-1.456l-0.353-1.191c-0.198-0.695-0.684-1.048-1.445-1.048h-5.096c-0.739 0-1.235 0.342-1.434 1.048l-0.353 1.191c-0.221 0.717-0.574 1.147-1.18 1.456-1.246 0.662-1.93 1.919-1.93 3.651v8.923zM9.61 19.824v-8.449c0-1.643 0.96-2.636 2.57-2.636h6.54c1.599 0 2.559 0.993 2.559 2.636v8.449c0 1.632-0.96 2.625-2.559 2.625h-6.54c-1.61 0-2.57-0.993-2.57-2.625zM22.647 14.816h0.408c0.563 0 0.938-0.386 0.938-1.015v-1.489c0-0.629-0.375-1.015-0.938-1.015h-0.408v3.518z"></path>
</svg>
