<!-- Generated by IcoMoon.io -->
<svg version="1.1" xmlns="http://www.w3.org/2000/svg" width="32" height="32" viewBox="0 0 32 32">
<title>appletvremote-gen2</title>
<path d="M10.353 25.746c0 1.456 0.971 2.382 2.515 2.382h6.044c1.533 0 2.515-0.927 2.515-2.382v-19.599c0-1.445-0.982-2.382-2.515-2.382h-6.044c-1.544 0-2.515 0.937-2.515 2.382v19.599zM11.985 25.515v-19.136c0-0.618 0.408-1.004 1.070-1.004h5.669c0.662 0 1.070 0.386 1.070 1.004v19.136c0 0.618-0.408 1.004-1.070 1.004h-5.669c-0.662 0-1.070-0.386-1.070-1.004zM14.125 16.846c0.706 0 1.279-0.585 1.279-1.29s-0.574-1.29-1.279-1.29c-0.717 0-1.301 0.585-1.301 1.29s0.585 1.29 1.301 1.29zM17.676 16.846c0.706 0 1.279-0.585 1.279-1.29s-0.574-1.29-1.279-1.29c-0.717 0-1.301 0.585-1.301 1.29s0.585 1.29 1.301 1.29zM15.89 12.886c1.699 0 3.066-1.368 3.066-3.066s-1.368-3.066-3.066-3.066c-1.688 0-3.066 1.368-3.066 3.066s1.379 3.066 3.066 3.066zM15.901 11.055c-0.684 0-1.246-0.551-1.246-1.235s0.563-1.235 1.246-1.235c0.684 0 1.235 0.551 1.235 1.235s-0.551 1.235-1.235 1.235z"></path>
</svg>
