<!-- Generated by IcoMoon.io -->
<svg version="1.1" xmlns="http://www.w3.org/2000/svg" width="32" height="32" viewBox="0 0 32 32">
<title>applewatch-slash</title>
<path d="M13.424 27.379h5.096c0.761 0 1.235-0.331 1.434-1.048l0.364-1.18c0.154-0.541 0.386-0.882 0.761-1.169 0.044-0.033 0.088-0.066 0.132-0.11l-1.577-1.566c-0.364 0.077-0.772 0.121-1.213 0.121h-5.713c-1.61 0-2.57-0.993-2.57-2.625v-6.629c0-0.121 0-0.243 0.011-0.353l-1.61-1.599c0 0.121-0.011 0.254-0.011 0.386v8.427c0 1.71 0.673 2.967 1.919 3.651 0.607 0.32 0.971 0.728 1.18 1.467l0.353 1.18c0.21 0.706 0.706 1.048 1.445 1.048zM13.424 3.765c-0.739 0-1.235 0.342-1.445 1.048l-0.353 1.191c-0.176 0.585-0.496 0.971-0.871 1.268l1.566 1.566c0.298-0.077 0.629-0.121 0.982-0.121h5.934c1.61 0 2.57 0.993 2.57 2.636v6.419c0 0.176 0 0.353 0 0.529l1.588 1.599c0.011-0.254 0.022-0.507 0.022-0.772v-8.018c0-1.71-0.673-2.956-1.919-3.651-0.607-0.32-0.971-0.728-1.18-1.456l-0.364-1.191c-0.198-0.695-0.684-1.048-1.434-1.048h-5.096zM23.174 14.794h0.397c0.574 0 0.949-0.386 0.949-1.015v-1.489c0-0.629-0.375-1.015-0.949-1.015h-0.397v3.518zM23.968 24.732c0.331 0.342 0.871 0.342 1.202 0 0.32-0.331 0.331-0.86 0-1.202l-17.129-17.118c-0.331-0.331-0.871-0.342-1.213 0-0.32 0.32-0.32 0.882 0 1.202l17.14 17.118z"></path>
</svg>
