<!-- Generated by IcoMoon.io -->
<svg version="1.1" xmlns="http://www.w3.org/2000/svg" width="32" height="32" viewBox="0 0 32 32">
<title>apple-logo</title>
<path d="M20.401 9.978c-1.643 0-2.989 1.004-3.849 1.004-0.915 0-2.107-0.938-3.54-0.938-2.724 0-5.482 2.25-5.482 6.485 0 2.647 1.015 5.437 2.283 7.235 1.081 1.522 2.029 2.768 3.397 2.768 1.345 0 1.941-0.893 3.618-0.893 1.699 0 2.085 0.871 3.574 0.871 1.478 0 2.46-1.357 3.397-2.691 1.037-1.533 1.478-3.022 1.489-3.099-0.088-0.022-2.912-1.18-2.912-4.412 0-2.801 2.217-4.059 2.349-4.158-1.467-2.107-3.706-2.173-4.323-2.173zM19.629 8.191c0.673-0.816 1.147-1.93 1.147-3.055 0-0.154-0.011-0.309-0.033-0.43-1.103 0.044-2.427 0.728-3.21 1.654-0.629 0.706-1.202 1.831-1.202 2.956 0 0.176 0.033 0.342 0.044 0.397 0.066 0.011 0.176 0.033 0.298 0.033 0.982 0 2.217-0.662 2.956-1.555z"></path>
</svg>
