<!-- Generated by IcoMoon.io -->
<svg version="1.1" xmlns="http://www.w3.org/2000/svg" width="32" height="32" viewBox="0 0 32 32">
<title>appletvremote-gen4</title>
<path d="M13.232 28.129h4.996c1.754 0 2.868-1.081 2.868-2.746v-18.871c0-1.665-1.114-2.746-2.868-2.746h-4.996c-1.765 0-2.879 1.081-2.879 2.746v18.871c0 1.665 1.114 2.746 2.879 2.746zM13.419 26.518c-0.882 0-1.434-0.529-1.434-1.368v-18.397c0-0.849 0.551-1.379 1.434-1.379h4.61c0.893 0 1.434 0.529 1.434 1.379v18.397c0 0.838-0.54 1.368-1.434 1.368h-4.61zM15.724 13.051c1.743 0 3.154-1.412 3.154-3.143 0-1.754-1.412-3.154-3.154-3.154s-3.143 1.401-3.143 3.154c0 1.732 1.401 3.143 3.143 3.143zM14.147 16.25c0.673 0 1.213-0.551 1.213-1.213 0-0.673-0.54-1.213-1.213-1.213s-1.213 0.54-1.213 1.213c0 0.662 0.54 1.213 1.213 1.213zM17.312 16.25c0.673 0 1.202-0.551 1.202-1.213 0-0.673-0.529-1.213-1.202-1.213s-1.213 0.54-1.213 1.213c0 0.662 0.54 1.213 1.213 1.213zM14.147 19.316c0.673 0 1.213-0.551 1.213-1.224 0-0.662-0.54-1.213-1.213-1.213s-1.213 0.551-1.213 1.213c0 0.673 0.54 1.224 1.213 1.224zM14.147 22.371c0.673 0 1.213-0.551 1.213-1.213 0-0.673-0.54-1.224-1.213-1.224s-1.213 0.551-1.213 1.224c0 0.662 0.54 1.213 1.213 1.213zM17.301 22.371c0.64 0 1.158-0.507 1.158-1.147v-3.199c0-0.64-0.518-1.147-1.158-1.147-0.629 0-1.136 0.507-1.136 1.147v3.199c0 0.618 0.507 1.147 1.136 1.147z"></path>
</svg>
