<!-- Generated by IcoMoon.io -->
<svg version="1.1" xmlns="http://www.w3.org/2000/svg" width="32" height="32" viewBox="0 0 32 32">
<title>appletvremote-gen3</title>
<path d="M13.232 28.129h5.713c1.754 0 2.868-1.081 2.868-2.746v-18.871c0-1.665-1.114-2.746-2.868-2.746h-5.713c-1.765 0-2.879 1.081-2.879 2.746v18.871c0 1.665 1.114 2.746 2.879 2.746zM13.419 26.518c-0.882 0-1.434-0.529-1.434-1.368v-18.397c0-0.849 0.551-1.379 1.434-1.379h5.327c0.882 0 1.434 0.529 1.434 1.379v18.397c0 0.838-0.551 1.368-1.434 1.368h-5.327zM14.301 13.768c0.717 0 1.29-0.585 1.29-1.29s-0.574-1.29-1.29-1.29c-0.706 0-1.29 0.585-1.29 1.29s0.585 1.29 1.29 1.29zM17.886 13.768c0.706 0 1.29-0.585 1.29-1.29s-0.585-1.29-1.29-1.29c-0.717 0-1.29 0.585-1.29 1.29s0.574 1.29 1.29 1.29zM14.301 17.265c0.717 0 1.29-0.585 1.29-1.29 0-0.717-0.574-1.29-1.29-1.29-0.706 0-1.29 0.573-1.29 1.29 0 0.706 0.585 1.29 1.29 1.29zM14.301 20.75c0.717 0 1.29-0.574 1.29-1.29 0-0.706-0.574-1.29-1.29-1.29-0.706 0-1.29 0.585-1.29 1.29 0 0.717 0.585 1.29 1.29 1.29zM17.875 20.75c0.684 0 1.246-0.54 1.246-1.235v-3.607c0-0.684-0.562-1.224-1.246-1.224-0.673 0-1.213 0.54-1.213 1.224v3.607c0 0.695 0.54 1.235 1.213 1.235z"></path>
</svg>
