<!-- Generated by IcoMoon.io -->
<svg version="1.1" xmlns="http://www.w3.org/2000/svg" width="32" height="32" viewBox="0 0 32 32">
<title>apps-iphone-landscape</title>
<path d="M7.574 22.665h17.614c1.721 0 2.879-1.213 2.879-3.011v-8.184c0-1.798-1.147-3-2.868-3h-17.614c-1.721 0-2.879 1.202-2.879 3v8.184c0 1.798 1.147 3.011 2.868 3.011zM7.86 20.89c-0.882 0-1.379-0.529-1.379-1.456v-7.732c0-0.927 0.496-1.456 1.379-1.456h17.052c0.882 0 1.379 0.529 1.379 1.456v7.732c0 0.927-0.496 1.456-1.39 1.456h-17.040zM8.456 13.71h1.070c0.232 0 0.397-0.165 0.397-0.408v-1.037c0-0.254-0.165-0.43-0.397-0.43h-1.070c-0.232 0-0.397 0.176-0.397 0.43v1.037c0 0.243 0.165 0.408 0.397 0.408zM11.456 13.71h1.059c0.232 0 0.408-0.165 0.408-0.408v-1.037c0-0.254-0.165-0.43-0.408-0.43h-1.059c-0.243 0-0.408 0.176-0.408 0.43v1.037c0 0.243 0.165 0.408 0.408 0.408zM14.445 13.71h1.059c0.243 0 0.408-0.165 0.408-0.408v-1.037c0-0.254-0.165-0.43-0.408-0.43h-1.059c-0.243 0-0.408 0.176-0.408 0.43v1.037c0 0.243 0.165 0.408 0.408 0.408zM17.434 13.71h1.070c0.232 0 0.397-0.165 0.397-0.408v-1.037c0-0.254-0.165-0.43-0.397-0.43h-1.070c-0.232 0-0.397 0.176-0.397 0.43v1.037c0 0.243 0.165 0.408 0.397 0.408zM8.456 16.511h1.070c0.232 0 0.397-0.165 0.397-0.408v-1.037c0-0.254-0.165-0.43-0.397-0.43h-1.070c-0.232 0-0.397 0.176-0.397 0.43v1.037c0 0.243 0.165 0.408 0.397 0.408zM11.456 16.511h1.059c0.232 0 0.408-0.165 0.408-0.408v-1.037c0-0.254-0.165-0.43-0.408-0.43h-1.059c-0.243 0-0.408 0.176-0.408 0.43v1.037c0 0.243 0.165 0.408 0.408 0.408zM14.456 16.511h1.048c0.254 0 0.419-0.165 0.419-0.408v-1.037c0-0.254-0.165-0.43-0.419-0.43h-1.048c-0.254 0-0.419 0.176-0.419 0.43v1.037c0 0.243 0.165 0.408 0.419 0.408zM23.323 13.71h1.059c0.243 0 0.408-0.165 0.408-0.408v-1.037c0-0.254-0.165-0.43-0.397-0.43h-1.070c-0.232 0-0.397 0.176-0.397 0.43v1.037c0 0.243 0.154 0.408 0.397 0.408zM23.323 16.511h1.070c0.232 0 0.397-0.165 0.397-0.408v-1.037c0-0.254-0.165-0.43-0.397-0.43h-1.070c-0.232 0-0.397 0.176-0.397 0.43v1.037c0 0.243 0.165 0.408 0.397 0.408zM23.323 19.301h1.059c0.243 0 0.408-0.165 0.408-0.397v-1.037c0-0.254-0.165-0.43-0.397-0.43h-1.070c-0.232 0-0.397 0.176-0.397 0.43v1.037c0 0.232 0.165 0.397 0.397 0.397z"></path>
</svg>
