<!-- Generated by IcoMoon.io -->
<svg version="1.1" xmlns="http://www.w3.org/2000/svg" width="32" height="32" viewBox="0 0 32 32">
<title>apps-iphone</title>
<path d="M11.471 28.055h8.184c1.798 0 3-1.147 3-2.868v-17.614c0-1.721-1.202-2.868-3-2.868h-8.184c-1.798 0-3 1.147-3 2.868v17.614c0 1.721 1.202 2.868 3 2.868zM11.702 26.279c-0.938 0-1.456-0.496-1.456-1.379v-17.040c0-0.882 0.518-1.379 1.456-1.379h7.732c0.927 0 1.445 0.496 1.445 1.379v17.040c0 0.882-0.518 1.379-1.445 1.379h-7.732zM12.232 24.779h1.037c0.243 0 0.43-0.165 0.43-0.397v-1.070c0-0.232-0.187-0.397-0.43-0.397h-1.037c-0.243 0-0.408 0.165-0.408 0.397v1.070c0 0.232 0.165 0.397 0.408 0.397zM15.022 24.779h1.048c0.243 0 0.43-0.165 0.43-0.397v-1.070c0-0.232-0.187-0.397-0.43-0.397h-1.048c-0.232 0-0.397 0.165-0.397 0.397v1.070c0 0.232 0.165 0.397 0.397 0.397zM17.824 24.779h1.037c0.254 0 0.43-0.165 0.43-0.397v-1.070c0-0.232-0.176-0.397-0.43-0.397h-1.037c-0.232 0-0.397 0.165-0.397 0.397v1.070c0 0.232 0.165 0.397 0.397 0.397zM12.232 15.912h1.037c0.243 0 0.43-0.165 0.43-0.408v-1.059c0-0.243-0.187-0.408-0.43-0.408h-1.037c-0.243 0-0.408 0.165-0.408 0.408v1.059c0 0.243 0.165 0.408 0.408 0.408zM15.022 15.912h1.048c0.243 0 0.43-0.165 0.43-0.408v-1.059c0-0.243-0.187-0.408-0.43-0.408h-1.048c-0.232 0-0.397 0.165-0.397 0.408v1.059c0 0.243 0.165 0.408 0.397 0.408zM12.232 12.912h1.037c0.243 0 0.43-0.165 0.43-0.397v-1.070c0-0.243-0.187-0.408-0.43-0.408h-1.037c-0.243 0-0.408 0.165-0.408 0.408v1.070c0 0.232 0.165 0.397 0.408 0.397zM15.022 12.912h1.048c0.243 0 0.43-0.165 0.43-0.397v-1.070c0-0.243-0.187-0.408-0.43-0.408h-1.048c-0.232 0-0.397 0.165-0.397 0.408v1.070c0 0.232 0.165 0.397 0.397 0.397zM17.824 12.912h1.037c0.254 0 0.43-0.165 0.43-0.397v-1.070c0-0.243-0.176-0.408-0.43-0.408h-1.037c-0.232 0-0.397 0.165-0.397 0.408v1.070c0 0.232 0.165 0.397 0.397 0.397zM12.232 9.923h1.037c0.243 0 0.43-0.165 0.43-0.408v-1.059c0-0.243-0.187-0.408-0.43-0.408h-1.037c-0.243 0-0.408 0.165-0.408 0.408v1.059c0 0.243 0.165 0.408 0.408 0.408zM15.022 9.923h1.048c0.243 0 0.43-0.165 0.43-0.408v-1.059c0-0.243-0.187-0.408-0.43-0.408h-1.048c-0.232 0-0.397 0.165-0.397 0.408v1.059c0 0.243 0.165 0.408 0.397 0.408zM17.824 9.923h1.037c0.254 0 0.43-0.165 0.43-0.408v-1.059c0-0.243-0.176-0.408-0.43-0.408h-1.037c-0.232 0-0.397 0.165-0.397 0.408v1.059c0 0.243 0.165 0.408 0.397 0.408z"></path>
</svg>
