<!-- Generated by IcoMoon.io -->
<svg version="1.1" xmlns="http://www.w3.org/2000/svg" width="32" height="32" viewBox="0 0 32 32">
<title>apps-ipad</title>
<path d="M9.643 28.614h12.32c1.831 0 3.055-1.169 3.055-2.912v-19.015c0-1.743-1.224-2.923-3.055-2.923h-12.32c-1.831 0-3.055 1.18-3.055 2.923v19.015c0 1.743 1.224 2.912 3.055 2.912zM9.864 26.838c-0.949 0-1.5-0.529-1.5-1.434v-18.419c0-0.904 0.551-1.445 1.5-1.445h11.879c0.938 0 1.5 0.54 1.5 1.445v18.419c0 0.904-0.562 1.434-1.5 1.434h-11.879zM10.779 9.489h0.96c0.287 0 0.518-0.198 0.518-0.463v-1.004c0-0.276-0.232-0.474-0.518-0.474h-0.96c-0.265 0-0.463 0.21-0.463 0.474v1.004c0 0.254 0.199 0.463 0.463 0.463zM13.813 9.489h0.96c0.287 0 0.496-0.198 0.496-0.463v-1.004c0-0.276-0.21-0.474-0.496-0.474h-0.96c-0.265 0-0.474 0.21-0.474 0.474v1.004c0 0.254 0.21 0.463 0.474 0.463zM16.824 9.489h0.971c0.287 0 0.507-0.198 0.507-0.463v-1.004c0-0.276-0.221-0.474-0.507-0.474h-0.971c-0.265 0-0.463 0.21-0.463 0.474v1.004c0 0.254 0.199 0.463 0.463 0.463zM19.846 9.489h0.971c0.298 0 0.496-0.198 0.496-0.463v-1.004c0-0.276-0.198-0.474-0.496-0.474h-0.971c-0.265 0-0.463 0.21-0.463 0.474v1.004c0 0.254 0.198 0.463 0.463 0.463zM10.779 12.467h0.96c0.287 0 0.518-0.21 0.518-0.485v-0.993c0-0.276-0.232-0.463-0.518-0.463h-0.96c-0.265 0-0.463 0.198-0.463 0.463v0.993c0 0.276 0.199 0.485 0.463 0.485zM13.813 12.467h0.96c0.287 0 0.496-0.21 0.496-0.485v-0.993c0-0.276-0.21-0.463-0.496-0.463h-0.96c-0.265 0-0.485 0.198-0.485 0.463v0.993c0 0.276 0.221 0.485 0.485 0.485zM16.824 12.467h0.971c0.287 0 0.507-0.21 0.507-0.474v-1.004c0-0.276-0.221-0.463-0.507-0.463h-0.971c-0.265 0-0.463 0.198-0.463 0.463v1.004c0 0.265 0.199 0.474 0.463 0.474zM19.846 12.467h0.971c0.298 0 0.496-0.21 0.496-0.474v-1.004c0-0.276-0.198-0.463-0.496-0.463h-0.971c-0.265 0-0.463 0.198-0.463 0.463v1.004c0 0.265 0.198 0.474 0.463 0.474zM10.779 15.434h0.96c0.287 0 0.518-0.187 0.518-0.463v-0.993c0-0.276-0.232-0.485-0.518-0.485h-0.96c-0.265 0-0.463 0.21-0.463 0.485v0.993c0 0.265 0.199 0.463 0.463 0.463zM13.813 15.434h0.96c0.287 0 0.496-0.187 0.496-0.463v-0.993c0-0.276-0.21-0.485-0.496-0.485h-0.96c-0.265 0-0.485 0.21-0.485 0.485v0.993c0 0.265 0.221 0.463 0.485 0.463zM10.779 24.831h0.96c0.287 0 0.518-0.187 0.518-0.463v-1.004c0-0.276-0.232-0.463-0.518-0.463h-0.96c-0.265 0-0.463 0.199-0.463 0.463v1.004c0 0.265 0.199 0.463 0.463 0.463zM13.813 24.831h0.96c0.287 0 0.496-0.187 0.496-0.463v-1.004c0-0.276-0.21-0.463-0.496-0.463h-0.96c-0.265 0-0.485 0.199-0.485 0.463v1.004c0 0.265 0.221 0.463 0.485 0.463zM16.824 24.831h0.982c0.276 0 0.496-0.187 0.496-0.463v-1.004c0-0.276-0.221-0.463-0.496-0.463h-0.982c-0.265 0-0.463 0.199-0.463 0.463v1.004c0 0.265 0.199 0.463 0.463 0.463zM19.846 24.831h0.971c0.298 0 0.496-0.187 0.496-0.463v-1.004c0-0.276-0.198-0.463-0.496-0.463h-0.971c-0.265 0-0.452 0.199-0.452 0.463v1.004c0 0.265 0.187 0.463 0.452 0.463z"></path>
</svg>
