<!-- Generated by IcoMoon.io -->
<svg version="1.1" xmlns="http://www.w3.org/2000/svg" width="32" height="32" viewBox="0 0 32 32">
<title>aqi-medium</title>
<path d="M16.408 5.162c0.662 0 1.158-0.507 1.158-1.169 0-0.651-0.507-1.169-1.158-1.169-0.64 0-1.169 0.529-1.169 1.169 0 0.651 0.518 1.169 1.169 1.169zM11.136 8.195c0.662 0 1.169-0.507 1.169-1.169 0-0.651-0.518-1.169-1.169-1.169-0.629 0-1.169 0.529-1.169 1.169 0 0.651 0.518 1.169 1.169 1.169zM21.669 8.195c0.662 0 1.169-0.507 1.169-1.169 0-0.651-0.518-1.169-1.169-1.169-0.629 0-1.169 0.529-1.169 1.169 0 0.651 0.518 1.169 1.169 1.169zM5.875 11.272c0.662 0 1.158-0.507 1.158-1.169 0-0.64-0.507-1.158-1.158-1.158-0.64 0-1.169 0.529-1.169 1.158 0 0.651 0.518 1.169 1.169 1.169zM16.408 11.68c0.871 0 1.566-0.695 1.566-1.577 0-0.86-0.706-1.566-1.566-1.566s-1.577 0.717-1.577 1.566c0 0.871 0.706 1.577 1.577 1.577zM26.897 11.272c0.662 0 1.169-0.507 1.169-1.169 0-0.651-0.518-1.158-1.169-1.158-0.64 0-1.169 0.529-1.169 1.158 0 0.651 0.518 1.169 1.169 1.169zM11.136 14.735c0.882 0 1.577-0.695 1.577-1.577 0-0.871-0.706-1.577-1.577-1.577-0.849 0-1.566 0.728-1.566 1.577 0 0.871 0.706 1.577 1.566 1.577zM21.669 14.735c0.882 0 1.577-0.695 1.577-1.577 0-0.871-0.706-1.577-1.577-1.577-0.849 0-1.566 0.728-1.566 1.577 0 0.871 0.706 1.577 1.566 1.577zM5.875 17.393c0.651 0 1.158-0.518 1.158-1.169s-0.507-1.169-1.158-1.169c-0.64 0-1.169 0.529-1.169 1.169 0 0.651 0.518 1.169 1.169 1.169zM16.408 18.066c1.026 0 1.842-0.816 1.842-1.842 0-1.015-0.838-1.842-1.842-1.842s-1.842 0.838-1.842 1.842c0 1.004 0.827 1.842 1.842 1.842zM26.897 17.393c0.662 0 1.169-0.507 1.169-1.169 0-0.651-0.518-1.169-1.169-1.169-0.64 0-1.169 0.529-1.169 1.169 0 0.651 0.518 1.169 1.169 1.169zM11.136 20.868c0.882 0 1.577-0.695 1.577-1.577 0-0.871-0.706-1.577-1.577-1.577-0.849 0-1.566 0.717-1.566 1.577s0.706 1.577 1.566 1.577zM21.669 20.868c0.882 0 1.577-0.695 1.577-1.577 0-0.871-0.706-1.577-1.577-1.577-0.849 0-1.566 0.717-1.566 1.577s0.706 1.577 1.566 1.577zM5.875 23.504c0.662 0 1.158-0.507 1.158-1.169 0-0.64-0.507-1.158-1.158-1.158-0.64 0-1.169 0.529-1.169 1.158 0 0.651 0.518 1.169 1.169 1.169zM16.408 23.912c0.871 0 1.566-0.695 1.566-1.577 0-0.86-0.706-1.566-1.566-1.566-0.849 0-1.577 0.717-1.577 1.566 0 0.871 0.706 1.577 1.577 1.577zM26.897 23.504c0.662 0 1.169-0.496 1.169-1.169 0-0.64-0.518-1.158-1.169-1.158-0.64 0-1.169 0.529-1.169 1.158 0 0.651 0.518 1.169 1.169 1.169zM11.136 26.581c0.662 0 1.169-0.496 1.169-1.158 0-0.651-0.518-1.169-1.169-1.169-0.629 0-1.169 0.529-1.169 1.169 0 0.651 0.518 1.158 1.169 1.158zM21.669 26.581c0.662 0 1.169-0.496 1.169-1.158 0-0.651-0.518-1.169-1.169-1.169-0.629 0-1.169 0.529-1.169 1.169 0 0.651 0.518 1.158 1.169 1.158zM16.408 29.625c0.662 0 1.158-0.507 1.158-1.169 0-0.651-0.507-1.169-1.158-1.169-0.64 0-1.169 0.529-1.169 1.169 0 0.651 0.518 1.169 1.169 1.169z"></path>
</svg>
