<!-- Generated by IcoMoon.io -->
<svg version="1.1" xmlns="http://www.w3.org/2000/svg" width="32" height="32" viewBox="0 0 32 32">
<title>aqi-low</title>
<path d="M16.143 4.621c0.507 0 0.893-0.375 0.893-0.893 0-0.507-0.397-0.904-0.893-0.904s-0.904 0.408-0.904 0.904 0.397 0.893 0.904 0.893zM10.871 7.665c0.518 0 0.904-0.386 0.904-0.904 0-0.507-0.397-0.904-0.904-0.904-0.485 0-0.904 0.419-0.904 0.904 0 0.507 0.397 0.904 0.904 0.904zM21.404 7.665c0.518 0 0.904-0.386 0.904-0.904 0-0.507-0.397-0.904-0.904-0.904-0.485 0-0.904 0.419-0.904 0.904 0 0.507 0.397 0.904 0.904 0.904zM5.61 10.743c0.507 0 0.893-0.386 0.893-0.904 0-0.496-0.397-0.893-0.893-0.893s-0.904 0.408-0.904 0.893c0 0.507 0.397 0.904 0.904 0.904zM16.143 10.743c0.507 0 0.893-0.386 0.893-0.904 0-0.496-0.397-0.893-0.893-0.893s-0.904 0.408-0.904 0.893c0 0.507 0.397 0.904 0.904 0.904zM26.632 10.743c0.518 0 0.893-0.386 0.893-0.904 0-0.507-0.386-0.893-0.893-0.893-0.496 0-0.904 0.408-0.904 0.893 0 0.507 0.397 0.904 0.904 0.904zM10.871 13.798c0.518 0 0.904-0.386 0.904-0.904 0-0.507-0.397-0.904-0.904-0.904-0.485 0-0.904 0.408-0.904 0.904 0 0.507 0.397 0.904 0.904 0.904zM21.404 13.798c0.518 0 0.904-0.386 0.904-0.904 0-0.507-0.397-0.904-0.904-0.904-0.485 0-0.904 0.408-0.904 0.904 0 0.507 0.397 0.904 0.904 0.904zM5.61 16.853c0.507 0 0.893-0.375 0.893-0.893 0-0.507-0.397-0.904-0.893-0.904s-0.904 0.408-0.904 0.904c0 0.496 0.397 0.893 0.904 0.893zM16.143 16.853c0.507 0 0.893-0.375 0.893-0.893 0-0.507-0.397-0.904-0.893-0.904s-0.904 0.408-0.904 0.904c0 0.496 0.397 0.893 0.904 0.893zM26.632 16.853c0.518 0 0.893-0.375 0.893-0.893 0-0.507-0.386-0.904-0.893-0.904-0.496 0-0.904 0.419-0.904 0.904 0 0.496 0.397 0.893 0.904 0.893zM10.871 19.919c0.518 0 0.904-0.375 0.904-0.893 0-0.507-0.397-0.904-0.904-0.904-0.485 0-0.904 0.408-0.904 0.904 0 0.507 0.397 0.893 0.904 0.893zM21.404 19.919c0.518 0 0.904-0.375 0.904-0.893 0-0.507-0.397-0.904-0.904-0.904-0.485 0-0.904 0.408-0.904 0.904 0 0.507 0.397 0.893 0.904 0.893zM5.61 22.974c0.507 0 0.893-0.386 0.893-0.904 0-0.496-0.397-0.893-0.893-0.893s-0.904 0.408-0.904 0.893c0 0.507 0.397 0.904 0.904 0.904zM16.143 22.974c0.507 0 0.893-0.386 0.893-0.904 0-0.496-0.397-0.893-0.893-0.893s-0.904 0.408-0.904 0.893c0 0.507 0.397 0.904 0.904 0.904zM26.632 22.974c0.518 0 0.893-0.375 0.893-0.904 0-0.496-0.397-0.893-0.893-0.893s-0.904 0.408-0.904 0.893c0 0.507 0.397 0.904 0.904 0.904zM10.871 26.051c0.518 0 0.904-0.375 0.904-0.893 0-0.507-0.397-0.904-0.904-0.904-0.485 0-0.904 0.408-0.904 0.904s0.397 0.893 0.904 0.893zM21.404 26.051c0.518 0 0.904-0.375 0.904-0.893 0-0.507-0.397-0.904-0.904-0.904-0.485 0-0.904 0.408-0.904 0.904s0.397 0.893 0.904 0.893zM16.143 29.096c0.507 0 0.893-0.386 0.893-0.904 0-0.507-0.397-0.904-0.893-0.904s-0.904 0.419-0.904 0.904c0 0.507 0.397 0.904 0.904 0.904z"></path>
</svg>
