<!-- Generated by IcoMoon.io -->
<svg version="1.1" xmlns="http://www.w3.org/2000/svg" width="32" height="32" viewBox="0 0 32 32">
<title>aqi-high</title>
<path d="M13.86 4.783c0.827 0 1.456-0.629 1.456-1.445 0-0.805-0.651-1.456-1.456-1.456-0.783 0-1.445 0.662-1.445 1.456 0 0.805 0.651 1.445 1.445 1.445zM8.599 7.827c0.816 0 1.445-0.64 1.445-1.456 0-0.805-0.64-1.445-1.445-1.445-0.794 0-1.445 0.651-1.445 1.445 0 0.805 0.64 1.456 1.445 1.456zM19.132 7.827c0.816 0 1.445-0.64 1.445-1.456 0-0.805-0.64-1.445-1.445-1.445-0.794 0-1.445 0.651-1.445 1.445 0 0.805 0.64 1.456 1.445 1.456zM3.338 10.904c0.816 0 1.445-0.64 1.445-1.456 0-0.805-0.651-1.445-1.445-1.445s-1.456 0.651-1.456 1.445c0 0.805 0.651 1.456 1.456 1.456zM13.86 11.312c1.037 0 1.864-0.827 1.864-1.864 0-1.015-0.838-1.853-1.864-1.853-1.004 0-1.853 0.849-1.853 1.853 0 1.026 0.838 1.864 1.853 1.864zM24.36 10.904c0.816 0 1.445-0.64 1.445-1.456 0-0.805-0.64-1.445-1.445-1.445-0.794 0-1.456 0.662-1.456 1.445 0 0.805 0.651 1.456 1.456 1.456zM8.599 14.357c1.037 0 1.853-0.816 1.853-1.853 0-1.026-0.838-1.853-1.853-1.853-1.004 0-1.853 0.849-1.853 1.853 0 1.026 0.827 1.853 1.853 1.853zM19.132 14.357c1.037 0 1.853-0.816 1.853-1.853 0-1.026-0.838-1.853-1.853-1.853-1.004 0-1.853 0.849-1.853 1.853 0 1.026 0.827 1.853 1.853 1.853zM3.338 17.015c0.816 0 1.445-0.629 1.445-1.445 0-0.805-0.651-1.445-1.445-1.445s-1.456 0.651-1.456 1.445c0 0.805 0.651 1.445 1.456 1.445zM13.86 17.688c1.18 0 2.129-0.938 2.129-2.118 0-1.169-0.96-2.118-2.129-2.118-1.147 0-2.118 0.96-2.118 2.118 0 1.169 0.96 2.118 2.118 2.118zM25.684 16.143c0.077-0.176 0.121-0.375 0.121-0.573 0-0.805-0.64-1.445-1.445-1.445-0.794 0-1.456 0.651-1.456 1.445 0 0.176 0.044 0.364 0.121 0.562 0.408-0.187 0.86-0.309 1.335-0.309 0.463 0 0.927 0.121 1.324 0.32zM8.599 20.489c1.026 0 1.853-0.816 1.853-1.853 0-1.026-0.838-1.864-1.853-1.864-1.004 0-1.853 0.849-1.853 1.864s0.838 1.853 1.853 1.853zM19.132 20.489c0.298 0 0.574-0.077 0.816-0.198l1.015-1.831v-0.055c-0.11-0.915-0.882-1.632-1.831-1.632-1.004 0-1.853 0.849-1.853 1.864s0.838 1.853 1.853 1.853zM3.338 23.136c0.816 0 1.445-0.629 1.445-1.456 0-0.794-0.651-1.445-1.445-1.445s-1.456 0.662-1.456 1.445c0 0.816 0.64 1.456 1.456 1.456zM13.86 23.544c1.037 0 1.864-0.827 1.864-1.864 0-1.015-0.838-1.853-1.864-1.853-1.004 0-1.853 0.849-1.853 1.853 0 1.026 0.838 1.864 1.853 1.864zM8.599 26.213c0.816 0 1.445-0.629 1.445-1.445 0-0.805-0.64-1.456-1.445-1.456-0.794 0-1.445 0.662-1.445 1.456 0 0.805 0.64 1.445 1.445 1.445zM13.86 29.246c0.827 0 1.456-0.629 1.456-1.445 0-0.805-0.651-1.445-1.456-1.445-0.783 0-1.445 0.651-1.445 1.445 0 0.805 0.651 1.445 1.445 1.445zM19.574 28.838h9.551c0.915 0 1.5-0.64 1.5-1.478 0-0.254-0.066-0.496-0.21-0.739l-4.787-8.537c-0.287-0.507-0.783-0.75-1.268-0.75-0.507 0-1.015 0.243-1.29 0.75l-4.776 8.548c-0.143 0.232-0.21 0.474-0.21 0.728 0 0.838 0.574 1.478 1.489 1.478zM24.349 27.162c-0.507 0-0.927-0.419-0.927-0.938 0-0.507 0.43-0.927 0.927-0.927 0.518 0 0.938 0.43 0.938 0.927 0 0.518-0.419 0.938-0.938 0.938zM24.36 24.526c-0.386 0-0.662-0.265-0.673-0.64l-0.088-3.143c-0.011-0.452 0.298-0.761 0.761-0.761 0.452 0 0.761 0.309 0.75 0.761l-0.088 3.143c-0.011 0.375-0.276 0.64-0.662 0.64z"></path>
</svg>
