<!-- Generated by IcoMoon.io -->
<svg version="1.1" xmlns="http://www.w3.org/2000/svg" width="32" height="32" viewBox="0 0 32 32">
<title>archivebox-fill</title>
<path d="M9.68 25.974h12.099c2.173 0 3.331-1.125 3.331-3.287v-10.555h-18.761v10.555c0 2.173 1.158 3.287 3.331 3.287zM12.096 16.114c-0.463 0-0.783-0.32-0.783-0.805v-0.342c0-0.485 0.32-0.794 0.783-0.794h7.279c0.463 0 0.794 0.309 0.794 0.794v0.342c0 0.485-0.331 0.805-0.794 0.805h-7.279zM6.581 10.621h18.298c1.246 0 1.875-0.739 1.875-1.974v-1.004c0-1.235-0.629-1.974-1.875-1.974h-18.298c-1.18 0-1.875 0.739-1.875 1.974v1.004c0 1.235 0.629 1.974 1.875 1.974z"></path>
</svg>
