<!-- Generated by IcoMoon.io -->
<svg version="1.1" xmlns="http://www.w3.org/2000/svg" width="32" height="32" viewBox="0 0 32 32">
<title>archivebox-circle</title>
<path d="M15.956 27.206c6.154 0 11.25-5.107 11.25-11.25 0-6.154-5.107-11.25-11.261-11.25-6.143 0-11.239 5.096-11.239 11.25 0 6.143 5.107 11.25 11.25 11.25zM15.956 25.331c-5.206 0-9.364-4.169-9.364-9.375s4.147-9.375 9.353-9.375c5.206 0 9.386 4.169 9.386 9.375s-4.169 9.375-9.375 9.375zM12.724 21.537h6.441c1.158 0 1.776-0.596 1.776-1.754v-5.537h-9.993v5.537c0 1.169 0.618 1.754 1.776 1.754zM14.004 16.364c-0.243 0-0.419-0.165-0.419-0.419v-0.187c0-0.265 0.176-0.419 0.419-0.419h3.882c0.254 0 0.419 0.154 0.419 0.419v0.187c0 0.254-0.165 0.419-0.419 0.419h-3.882zM11.070 13.353h9.75c0.673 0 1.004-0.386 1.004-1.037v-0.54c0-0.662-0.331-1.059-1.004-1.059h-9.75c-0.618 0-0.993 0.397-0.993 1.059v0.54c0 0.651 0.331 1.037 0.993 1.037z"></path>
</svg>
