<!-- Generated by IcoMoon.io -->
<svg version="1.1" xmlns="http://www.w3.org/2000/svg" width="32" height="32" viewBox="0 0 32 32">
<title>archivebox-circle-fill</title>
<path d="M15.956 27.217c6.154 0 11.25-5.096 11.25-11.25 0-6.143-5.107-11.25-11.261-11.25-6.143 0-11.239 5.107-11.239 11.25 0 6.154 5.107 11.25 11.25 11.25zM12.636 21.724c-1.191 0-1.831-0.607-1.831-1.82v-5.702h10.301v5.702c0 1.213-0.64 1.82-1.831 1.82h-6.64zM13.96 16.386h3.993c0.265 0 0.441-0.165 0.441-0.43v-0.198c0-0.265-0.176-0.43-0.441-0.43h-3.993c-0.254 0-0.441 0.165-0.441 0.43v0.198c0 0.265 0.187 0.43 0.441 0.43zM10.927 13.287c-0.684 0-1.026-0.408-1.026-1.081v-0.552c0-0.684 0.386-1.081 1.026-1.081h10.059c0.695 0 1.037 0.397 1.037 1.081v0.552c0 0.673-0.342 1.081-1.037 1.081h-10.059z"></path>
</svg>
