<!-- Generated by IcoMoon.io -->
<svg version="1.1" xmlns="http://www.w3.org/2000/svg" width="32" height="32" viewBox="0 0 32 32">
<title>arkit</title>
<path d="M14.952 27.947c0.662 0.364 1.235 0.364 1.897 0l3.055-1.743c0.529-0.309 0.662-0.838 0.408-1.312-0.243-0.463-0.838-0.585-1.357-0.287l-2.14 1.224v-2.239c0-0.596-0.386-1.037-0.915-1.037-0.54 0-0.926 0.441-0.926 1.037v2.239l-2.14-1.224c-0.507-0.298-1.103-0.176-1.357 0.287-0.254 0.474-0.121 1.004 0.419 1.312l3.055 1.743zM7.717 23.833c0.529 0.298 1.114 0.187 1.368-0.287 0.243-0.463 0.055-1.037-0.43-1.313l-1.191-0.662 1.699-0.982c0.54-0.298 0.739-0.893 0.452-1.335-0.298-0.452-0.838-0.585-1.346-0.309l-1.776 1.004v-1.434c0-0.596-0.386-1.037-0.893-1.037-0.529 0-0.893 0.441-0.893 1.037v1.732c0 1.632 0.54 2.195 1.577 2.779l1.434 0.805zM5.599 15.097c0.529 0 0.893-0.441 0.893-1.037v-2.096l2.040 1.169c0.485 0.276 1.037 0.154 1.346-0.298 0.287-0.441 0.077-1.037-0.474-1.335l-1.908-1.092 1.864-1.059c0.563-0.32 0.739-0.926 0.452-1.379-0.298-0.441-0.849-0.529-1.313-0.265l-2.404 1.368c-0.904 0.518-1.39 1.213-1.39 2.437v2.548c0 0.596 0.386 1.037 0.893 1.037zM15.901 9.219c0.529 0 0.915-0.43 0.915-1.026v-2.051l1.555 0.893c0.496 0.287 1.114 0.176 1.357-0.287 0.254-0.463 0.11-1.004-0.419-1.313l-2.393-1.357c-0.728-0.419-1.313-0.419-2.040 0l-2.393 1.357c-0.529 0.309-0.662 0.849-0.419 1.313s0.86 0.574 1.357 0.287l1.555-0.893v2.051c0 0.596 0.386 1.026 0.926 1.026zM26.191 15.097c0.518 0 0.893-0.441 0.893-1.037v-2.548c0-1.335-0.353-1.853-1.379-2.437l-2.415-1.368c-0.463-0.265-1.015-0.176-1.301 0.265-0.298 0.452-0.11 1.059 0.452 1.379l1.864 1.059-1.919 1.092c-0.541 0.298-0.761 0.893-0.463 1.335 0.298 0.452 0.86 0.573 1.334 0.298l2.040-1.169v2.096c0 0.596 0.375 1.037 0.893 1.037zM24.073 23.833l1.434-0.805c1.037-0.585 1.577-1.147 1.577-2.779v-1.732c0-0.596-0.364-1.037-0.893-1.037-0.507 0-0.893 0.441-0.893 1.037v1.445l-1.776-1.015c-0.496-0.276-1.048-0.143-1.335 0.309-0.298 0.441-0.088 1.037 0.441 1.335l1.687 0.982-1.18 0.662c-0.474 0.276-0.673 0.849-0.419 1.313 0.243 0.474 0.838 0.585 1.357 0.287zM15.901 20.281c0.529 0 0.915-0.441 0.915-1.037v-2.438l2.272-1.301c0.529-0.298 0.728-0.893 0.43-1.335-0.287-0.452-0.827-0.585-1.324-0.309l-2.294 1.301-2.294-1.301c-0.496-0.276-1.037-0.143-1.335 0.309-0.298 0.441-0.099 1.037 0.441 1.335l2.261 1.301v2.438c0 0.596 0.386 1.037 0.926 1.037z"></path>
</svg>
