<!-- Generated by IcoMoon.io -->
<svg version="1.1" xmlns="http://www.w3.org/2000/svg" width="32" height="32" viewBox="0 0 32 32">
<title>arrow-clockwise-icloud-fill</title>
<path d="M23.676 24.816c3.331 0 5.934-2.438 5.934-5.471 0-2.316-1.334-4.324-3.485-5.228 0.022-4.919-3.518-8.471-8.029-8.471-2.989 0-5.118 1.599-6.441 3.529-2.713-0.794-5.669 1.268-5.724 4.357-2.493 0.397-4.048 2.625-4.048 5.316 0 3.243 2.835 5.967 6.607 5.967h15.187zM11.688 16.61c0-2.526 2.073-4.489 4.379-4.489 0.088 0 0.187 0.011 0.265 0.022l-0.706-0.739c-0.11-0.11-0.176-0.298-0.176-0.463 0-0.364 0.287-0.673 0.651-0.673 0.176 0 0.364 0.077 0.474 0.21l1.963 2.007c0.243 0.243 0.254 0.706 0 0.96l-1.985 1.985c-0.11 0.11-0.287 0.188-0.452 0.188-0.364 0-0.651-0.287-0.651-0.662 0-0.176 0.077-0.342 0.198-0.463l0.971-0.971c-0.088-0.022-0.221-0.033-0.353-0.033-1.754 0-3.154 1.412-3.154 3.154 0 1.765 1.401 3.187 3.154 3.187 1.765 0 3.165-1.423 3.165-3.187 0-0.375 0.32-0.695 0.717-0.695 0.375 0 0.706 0.32 0.706 0.695 0 2.548-2.040 4.599-4.588 4.599-2.537 0-4.577-2.051-4.577-4.632z"></path>
</svg>
