<!-- Generated by IcoMoon.io -->
<svg version="1.1" xmlns="http://www.w3.org/2000/svg" width="32" height="32" viewBox="0 0 32 32">
<title>arrow-uturn-up-circle-fill</title>
<path d="M15.956 27.206c6.154 0 11.25-5.096 11.25-11.25 0-6.143-5.107-11.25-11.261-11.25-6.143 0-11.239 5.107-11.239 11.25 0 6.154 5.107 11.25 11.25 11.25zM14.798 21.471c-2.625 0-4.357-1.787-4.357-4.456v-1.478c0-0.529 0.331-0.893 0.827-0.893 0.485 0 0.816 0.353 0.816 0.871v1.5c0 1.666 1.092 2.802 2.713 2.802 1.511 0 2.515-1.114 2.515-2.791v-3.221l0.055-1.136-0.375 0.518-1.29 1.346c-0.154 0.154-0.364 0.254-0.607 0.254-0.474 0-0.838-0.353-0.838-0.816 0-0.243 0.077-0.452 0.232-0.596l2.956-2.901c0.209-0.198 0.452-0.298 0.706-0.298 0.243 0 0.485 0.11 0.695 0.298l2.923 2.89c0.165 0.154 0.243 0.353 0.243 0.596 0 0.474-0.375 0.827-0.838 0.827-0.232 0-0.452-0.099-0.596-0.254l-1.081-1.125-0.584-0.75 0.044 1.147v3.221c0 2.669-1.654 4.445-4.158 4.445z"></path>
</svg>
