<!-- Generated by IcoMoon.io -->
<svg version="1.1" xmlns="http://www.w3.org/2000/svg" width="32" height="32" viewBox="0 0 32 32">
<title>arrow-triangle-2-circlepath-camera</title>
<path d="M8.945 16.011c-0.265 0.386-0.165 0.849 0.331 0.849h1.125c0.529 2.967 2.934 5.018 5.989 5.018 1.334 0 2.669-0.463 3.607-1.235 0.507-0.397 0.64-0.96 0.254-1.357-0.375-0.397-0.849-0.331-1.279-0.022-0.772 0.607-1.544 0.937-2.581 0.937-2.129 0-3.904-1.434-4.39-3.342h1.136c0.496 0 0.618-0.463 0.342-0.849l-1.743-2.404c-0.276-0.397-0.772-0.43-1.081 0l-1.71 2.404zM12.507 12.493c0.364 0.397 0.849 0.342 1.268 0.022 0.772-0.618 1.555-0.927 2.592-0.927 2.129 0 3.893 1.434 4.379 3.331h-1.202c-0.485 0-0.607 0.474-0.331 0.849l1.732 2.415c0.287 0.397 0.783 0.43 1.092 0l1.71-2.415c0.265-0.386 0.165-0.849-0.331-0.849h-1.070c-0.529-2.967-2.934-5.018-5.978-5.018-1.335 0-2.68 0.474-3.607 1.246-0.507 0.397-0.64 0.949-0.254 1.345zM6.287 25.739h20.162c2.294 0 3.463-1.147 3.463-3.419v-11.548c0-2.272-1.169-3.408-3.463-3.408h-3.154c-0.871 0-1.136-0.176-1.632-0.728l-0.882-0.993c-0.551-0.607-1.114-0.938-2.25-0.938h-4.401c-1.136 0-1.699 0.331-2.25 0.938l-0.882 0.993c-0.496 0.54-0.772 0.728-1.632 0.728h-3.077c-2.305 0-3.463 1.136-3.463 3.408v11.548c0 2.272 1.158 3.419 3.463 3.419zM6.309 23.963c-1.081 0-1.71-0.585-1.71-1.732v-11.36c0-1.147 0.629-1.732 1.71-1.732h3.496c0.993 0 1.533-0.188 2.085-0.805l0.86-0.971c0.629-0.706 0.96-0.882 1.93-0.882h3.298c0.971 0 1.301 0.176 1.93 0.882l0.86 0.971c0.551 0.618 1.092 0.805 2.085 0.805h3.563c1.092 0 1.721 0.585 1.721 1.732v11.36c0 1.147-0.629 1.732-1.721 1.732h-20.107z"></path>
</svg>
