<!-- Generated by IcoMoon.io -->
<svg version="1.1" xmlns="http://www.w3.org/2000/svg" width="32" height="32" viewBox="0 0 32 32">
<title>arrow-forward-square-fill</title>
<path d="M9.11 25.974h13.379c2.316 0 3.463-1.147 3.463-3.419v-13.467c0-2.272-1.147-3.419-3.463-3.419h-13.379c-2.305 0-3.463 1.136-3.463 3.419v13.467c0 2.283 1.158 3.419 3.463 3.419zM21.662 15.794c0 0.254-0.11 0.452-0.331 0.662l-3.838 3.849c-0.154 0.154-0.353 0.243-0.596 0.243-0.474 0-0.827-0.364-0.827-0.838 0-0.243 0.099-0.452 0.254-0.607l1.423-1.401 1.368-1.147-2.404 0.088h-5.912c-0.496 0-0.849-0.353-0.849-0.849 0-0.507 0.353-0.86 0.849-0.86h5.912l2.404 0.099-1.368-1.147-1.423-1.401c-0.143-0.165-0.254-0.375-0.254-0.618 0-0.474 0.353-0.827 0.827-0.827 0.243 0 0.441 0.077 0.596 0.232l3.838 3.86c0.232 0.232 0.331 0.408 0.331 0.662z"></path>
</svg>
