<!-- Generated by IcoMoon.io -->
<svg version="1.1" xmlns="http://www.w3.org/2000/svg" width="32" height="32" viewBox="0 0 32 32">
<title>arrow-up-and-down-text-horizontal</title>
<path d="M12.359 8.144h17.724c0.463 0 0.838-0.364 0.838-0.838 0-0.463-0.375-0.827-0.838-0.827h-17.724c-0.474 0-0.838 0.364-0.838 0.827 0 0.474 0.364 0.838 0.838 0.838zM12.359 13.923h17.724c0.463 0 0.838-0.364 0.838-0.838 0-0.463-0.375-0.827-0.838-0.827h-17.724c-0.474 0-0.838 0.364-0.838 0.827 0 0.474 0.364 0.838 0.838 0.838zM12.359 19.703h17.724c0.463 0 0.838-0.375 0.838-0.838s-0.375-0.827-0.838-0.827h-17.724c-0.474 0-0.838 0.364-0.838 0.827s0.364 0.838 0.838 0.838zM12.359 25.471h10.654c0.463 0 0.838-0.364 0.838-0.827s-0.375-0.838-0.838-0.838h-10.654c-0.474 0-0.838 0.375-0.838 0.838s0.364 0.827 0.838 0.827zM5.465 26l2.206-2.956c0.441-0.596 0.21-1.346-0.574-1.346h-1.566v-11.46h1.566c0.761 0 1.037-0.728 0.574-1.346l-2.206-2.945c-0.298-0.408-0.871-0.397-1.158 0l-2.206 2.945c-0.452 0.618-0.176 1.346 0.574 1.346h1.577v11.46h-1.577c-0.75 0-1.026 0.728-0.574 1.346l2.206 2.956c0.298 0.397 0.86 0.397 1.158 0z"></path>
</svg>
