<!-- Generated by IcoMoon.io -->
<svg version="1.1" xmlns="http://www.w3.org/2000/svg" width="32" height="32" viewBox="0 0 32 32">
<title>arrow-right-to-line-compact</title>
<path d="M6.588 15.934c0 0.574 0.397 0.982 0.971 0.982h11.151l2.36-0.077-3.629 3.309-2.437 2.471c-0.187 0.188-0.276 0.452-0.276 0.717 0 0.551 0.419 0.949 0.96 0.949 0.276 0 0.518-0.099 0.739-0.32l7.313-7.29c0.221-0.209 0.342-0.474 0.342-0.739 0-0.276-0.121-0.529-0.342-0.75l-7.313-7.29c-0.221-0.221-0.463-0.331-0.739-0.331-0.54 0-0.96 0.408-0.96 0.96 0 0.265 0.088 0.529 0.276 0.706l2.437 2.482 3.618 3.32-2.349-0.088h-11.151c-0.574 0-0.971 0.408-0.971 0.993zM24.048 23.379c0 0.563 0.408 0.949 0.993 0.949 0.573 0 0.982-0.386 0.982-0.949v-14.879c0-0.574-0.408-0.971-0.982-0.971-0.585 0-0.993 0.397-0.993 0.971v14.879z"></path>
</svg>
