<!-- Generated by IcoMoon.io -->
<svg version="1.1" xmlns="http://www.w3.org/2000/svg" width="32" height="32" viewBox="0 0 32 32">
<title>arrow-down-right-and-arrow-up-left-circle-fill</title>
<path d="M15.956 27.206c6.154 0 11.25-5.107 11.25-11.25 0-6.154-5.107-11.25-11.261-11.25-6.143 0-11.239 5.096-11.239 11.25 0 6.143 5.107 11.25 11.25 11.25zM10.938 15.813c-0.452 0-0.816-0.364-0.816-0.816 0-0.441 0.364-0.794 0.816-0.794h0.551l1.743 0.11-3.066-2.934c-0.331-0.342-0.353-0.882-0.011-1.213 0.331-0.342 0.871-0.342 1.202 0.011l2.967 3.077-0.11-1.798v-0.552c0-0.452 0.353-0.805 0.794-0.805 0.452 0 0.816 0.353 0.816 0.805v3.96c0 0.684-0.353 0.949-0.949 0.949h-3.938zM16.904 21.802c-0.452 0-0.816-0.353-0.816-0.805v-3.971c0-0.673 0.353-0.937 0.949-0.937h3.938c0.452 0 0.816 0.353 0.816 0.816 0 0.441-0.364 0.794-0.816 0.794h-0.552l-1.743-0.11 3.066 2.934c0.331 0.331 0.353 0.882 0.011 1.213-0.331 0.342-0.871 0.342-1.202-0.011l-2.967-3.077 0.11 1.798v0.551c0 0.452-0.353 0.805-0.794 0.805z"></path>
</svg>
