<!-- Generated by IcoMoon.io -->
<svg version="1.1" xmlns="http://www.w3.org/2000/svg" width="32" height="32" viewBox="0 0 32 32">
<title>arrow-left-arrow-right</title>
<path d="M5.978 8.702c-0.452 0.43-0.43 1.070 0 1.478l5.68 5.559c0.198 0.198 0.485 0.32 0.728 0.32 0.585 0 0.982-0.408 0.982-0.982 0-0.276-0.099-0.496-0.287-0.684l-2.371-2.294-2.052-1.776 2.548 0.11h14.735c0.573 0 0.982-0.408 0.982-0.993 0-0.573-0.408-0.982-0.982-0.982h-14.735l-2.548 0.099 2.051-1.765 2.371-2.305c0.187-0.188 0.287-0.397 0.287-0.684 0-0.574-0.397-0.971-0.982-0.971-0.243 0-0.529 0.11-0.728 0.309l-5.68 5.559zM26.603 23.018c0.441-0.43 0.43-1.070 0-1.489l-5.68-5.559c-0.198-0.188-0.485-0.309-0.739-0.309-0.585 0-0.971 0.397-0.971 0.971 0 0.287 0.088 0.507 0.276 0.684l2.382 2.305 2.051 1.776-2.548-0.11h-14.735c-0.574 0-0.993 0.408-0.993 0.982 0 0.584 0.419 0.993 0.993 0.993h14.735l2.548-0.11-2.051 1.776-2.382 2.294c-0.187 0.187-0.276 0.408-0.276 0.695 0 0.573 0.386 0.971 0.971 0.971 0.254 0 0.54-0.121 0.739-0.309l5.68-5.559z"></path>
</svg>
