<!-- Generated by IcoMoon.io -->
<svg version="1.1" xmlns="http://www.w3.org/2000/svg" width="32" height="32" viewBox="0 0 32 32">
<title>arrow-clockwise-circle</title>
<path d="M15.956 27.206c6.154 0 11.25-5.107 11.25-11.25 0-6.154-5.107-11.25-11.261-11.25-6.143 0-11.239 5.096-11.239 11.25 0 6.143 5.107 11.25 11.25 11.25zM15.956 25.331c-5.206 0-9.364-4.169-9.364-9.375s4.147-9.375 9.353-9.375c5.206 0 9.386 4.169 9.386 9.375s-4.169 9.375-9.375 9.375zM11.026 16.463c0 2.757 2.195 4.963 4.919 4.963s4.919-2.206 4.919-4.93c0-0.408-0.353-0.75-0.761-0.75s-0.761 0.342-0.761 0.75c0 1.886-1.511 3.408-3.397 3.408s-3.397-1.511-3.397-3.408c0-1.886 1.511-3.397 3.397-3.397 0.143 0 0.298 0.011 0.408 0.033l-1.081 1.048c-0.132 0.143-0.21 0.309-0.21 0.518 0 0.386 0.309 0.684 0.695 0.684 0.187 0 0.364-0.088 0.485-0.199l2.14-2.14c0.276-0.265 0.254-0.761 0-1.026l-2.118-2.151c-0.121-0.132-0.309-0.221-0.507-0.221-0.397 0-0.695 0.309-0.695 0.706 0 0.187 0.077 0.375 0.198 0.496l0.783 0.794c-0.088 0-0.21-0.022-0.309-0.022-2.482 0-4.71 2.129-4.71 4.842z"></path>
</svg>
