<!-- Generated by IcoMoon.io -->
<svg version="1.1" xmlns="http://www.w3.org/2000/svg" width="32" height="32" viewBox="0 0 32 32">
<title>arrow-up-circle</title>
<path d="M15.956 27.206c6.154 0 11.25-5.107 11.25-11.25 0-6.154-5.107-11.25-11.261-11.25-6.143 0-11.239 5.096-11.239 11.25 0 6.143 5.107 11.25 11.25 11.25zM15.956 25.331c-5.206 0-9.364-4.169-9.364-9.375s4.147-9.375 9.353-9.375c5.206 0 9.386 4.169 9.386 9.375s-4.169 9.375-9.375 9.375zM15.956 21.471c0.485 0 0.827-0.342 0.827-0.827v-5.515l-0.088-2.338 1.125 1.335 1.301 1.324c0.143 0.154 0.342 0.243 0.585 0.243 0.452 0 0.805-0.353 0.805-0.794 0-0.232-0.088-0.43-0.232-0.573l-3.673-3.673c-0.209-0.21-0.408-0.309-0.651-0.309-0.232 0-0.419 0.088-0.64 0.309l-3.684 3.673c-0.143 0.143-0.21 0.342-0.21 0.573 0 0.441 0.342 0.794 0.794 0.794 0.232 0 0.43-0.099 0.585-0.243l1.312-1.324 1.103-1.323-0.088 2.327v5.515c0 0.485 0.353 0.827 0.827 0.827z"></path>
</svg>
