<!-- Generated by IcoMoon.io -->
<svg version="1.1" xmlns="http://www.w3.org/2000/svg" width="32" height="32" viewBox="0 0 32 32">
<title>arrowshape-turn-up-backward-circle</title>
<path d="M15.956 27.206c6.154 0 11.25-5.107 11.25-11.25 0-6.154-5.107-11.25-11.261-11.25-6.143 0-11.239 5.096-11.239 11.25 0 6.143 5.107 11.25 11.25 11.25zM15.956 25.331c-5.206 0-9.364-4.169-9.364-9.375s4.147-9.375 9.353-9.375c5.206 0 9.386 4.169 9.386 9.375s-4.169 9.375-9.375 9.375zM14.919 20.699c0.397 0 0.695-0.298 0.695-0.695v-2.272h0.176c2.294 0 3.75 0.585 4.776 2.526 0.209 0.375 0.474 0.441 0.728 0.441 0.309 0 0.618-0.276 0.618-0.794 0-4.39-1.875-7.103-6.121-7.103h-0.176v-2.25c0-0.397-0.298-0.728-0.706-0.728-0.287 0-0.474 0.132-0.783 0.419l-4.699 4.379c-0.221 0.21-0.298 0.441-0.298 0.64s0.077 0.43 0.298 0.64l4.699 4.412c0.276 0.254 0.507 0.386 0.794 0.386z"></path>
</svg>
