<!-- Generated by IcoMoon.io -->
<svg version="1.1" xmlns="http://www.w3.org/2000/svg" width="32" height="32" viewBox="0 0 32 32">
<title>arrowshape-forward-fill</title>
<path d="M27.544 15.761c0-0.375-0.132-0.783-0.562-1.191l-8.702-8.14c-0.585-0.551-0.949-0.783-1.489-0.783-0.772 0-1.323 0.607-1.323 1.346v4.423h-9.165c-1.599 0-2.537 0.904-2.537 2.482v3.739c0 1.577 0.938 2.482 2.537 2.482h9.165v4.467c0 0.739 0.551 1.29 1.301 1.29 0.54 0 0.982-0.221 1.511-0.717l8.702-8.217c0.419-0.397 0.562-0.816 0.562-1.18z"></path>
</svg>
