<!-- Generated by IcoMoon.io -->
<svg version="1.1" xmlns="http://www.w3.org/2000/svg" width="32" height="32" viewBox="0 0 32 32">
<title>arrowshape-zigzag-right</title>
<path d="M5.548 25.82h6.651c1.908 0 2.724-0.794 2.724-2.669v-2.515h2.835v3.96c0 0.739 0.54 1.29 1.29 1.29 0.54 0 0.982-0.221 1.511-0.717l8.702-8.217c0.43-0.397 0.563-0.816 0.563-1.18 0-0.375-0.132-0.794-0.563-1.191l-8.702-8.14c-0.585-0.551-0.949-0.794-1.489-0.794-0.772 0-1.312 0.618-1.312 1.357v4.279h-7.158c-1.908 0-2.724 0.794-2.724 2.669v2.305h-2.327c-1.908 0-2.724 0.783-2.724 2.658v4.235c0 1.875 0.816 2.669 2.724 2.669zM5.68 24.088c-0.728 0-1.081-0.397-1.081-1.202v-3.706c0-0.805 0.353-1.191 1.081-1.191h2.217v0.529c0 0.673 0.21 1.158 0.827 1.544l4.423 2.702v0.121c0 0.805-0.353 1.202-1.081 1.202h-6.386zM19.688 23.515c-0.099 0-0.154-0.066-0.154-0.165v-4.268c0-0.254-0.121-0.364-0.375-0.364h-8.427c-0.728 0-1.081-0.397-1.081-1.202v-3.474c0-0.816 0.353-1.202 1.081-1.202h8.427c0.254 0 0.375-0.11 0.375-0.364v-4.379c0-0.088 0.055-0.154 0.154-0.154 0.066 0 0.132 0.044 0.187 0.088l7.853 7.533c0.088 0.077 0.121 0.143 0.121 0.21s-0.033 0.121-0.121 0.21l-7.853 7.434c-0.066 0.066-0.132 0.099-0.187 0.099z"></path>
</svg>
