<!-- Generated by IcoMoon.io -->
<svg version="1.1" xmlns="http://www.w3.org/2000/svg" width="32" height="32" viewBox="0 0 32 32">
<title>arrow-down-to-line-circle</title>
<path d="M15.956 27.206c6.154 0 11.25-5.107 11.25-11.25 0-6.154-5.107-11.25-11.261-11.25-6.143 0-11.239 5.096-11.239 11.25 0 6.143 5.107 11.25 11.25 11.25zM15.956 25.331c-5.206 0-9.364-4.169-9.364-9.375s4.147-9.375 9.353-9.375c5.206 0 9.386 4.169 9.386 9.375s-4.169 9.375-9.375 9.375zM15.934 19.474c0.199 0 0.397-0.099 0.551-0.254l3.739-3.794c0.176-0.176 0.232-0.364 0.232-0.562 0-0.397-0.287-0.728-0.695-0.728-0.198 0-0.397 0.066-0.551 0.221l-0.684 0.706-1.974 2.228 0.121-2.018v-5.063c0-0.419-0.32-0.728-0.739-0.728-0.441 0-0.739 0.309-0.739 0.728v5.063l0.121 2.029-2.007-2.25-0.629-0.695c-0.143-0.154-0.309-0.221-0.541-0.221-0.419 0-0.706 0.309-0.706 0.728 0 0.176 0.088 0.408 0.221 0.551l3.728 3.805c0.154 0.165 0.353 0.254 0.551 0.254zM11.809 21.79h8.283c0.43 0 0.728-0.309 0.728-0.75 0-0.419-0.298-0.728-0.728-0.728h-8.283c-0.43 0-0.739 0.309-0.739 0.728 0 0.441 0.309 0.75 0.739 0.75z"></path>
</svg>
