<!-- Generated by IcoMoon.io -->
<svg version="1.1" xmlns="http://www.w3.org/2000/svg" width="32" height="32" viewBox="0 0 32 32">
<title>arrowshape-turn-up-forward-circle-fill</title>
<path d="M15.956 27.217c6.154 0 11.25-5.096 11.25-11.25 0-6.143-5.107-11.25-11.261-11.25-6.143 0-11.239 5.107-11.239 11.25 0 6.154 5.107 11.25 11.25 11.25zM10.298 20.875c-0.32 0-0.629-0.276-0.629-0.805 0-4.533 1.93-7.335 6.309-7.335h0.176v-2.316c0-0.408 0.298-0.739 0.728-0.739 0.309 0 0.496 0.121 0.816 0.43l4.831 4.511c0.243 0.221 0.32 0.441 0.32 0.651 0 0.221-0.077 0.441-0.32 0.662l-4.831 4.544c-0.287 0.265-0.518 0.397-0.827 0.397-0.419 0-0.717-0.309-0.717-0.706v-2.349h-0.176c-2.371 0-3.86 0.607-4.93 2.603-0.199 0.386-0.485 0.452-0.75 0.452z"></path>
</svg>
