<!-- Generated by IcoMoon.io -->
<svg version="1.1" xmlns="http://www.w3.org/2000/svg" width="32" height="32" viewBox="0 0 32 32">
<title>arrow-left-circle-fill</title>
<path d="M15.956 27.206c6.154 0 11.25-5.107 11.25-11.25 0-6.154-5.107-11.25-11.261-11.25-6.143 0-11.239 5.096-11.239 11.25 0 6.143 5.107 11.25 11.25 11.25zM10.121 15.945c0-0.254 0.088-0.43 0.32-0.662l3.838-3.86c0.154-0.154 0.353-0.232 0.596-0.232 0.474 0 0.827 0.353 0.827 0.827 0 0.243-0.11 0.452-0.254 0.618l-1.412 1.401-1.368 1.147 2.404-0.099h5.901c0.496 0 0.86 0.353 0.86 0.86 0 0.496-0.353 0.849-0.86 0.849h-5.901l-2.415-0.088 1.379 1.147 1.412 1.401c0.154 0.154 0.254 0.364 0.254 0.607 0 0.474-0.353 0.838-0.827 0.838-0.243 0-0.441-0.088-0.596-0.243l-3.838-3.849c-0.21-0.209-0.32-0.408-0.32-0.662z"></path>
</svg>
