<!-- Generated by IcoMoon.io -->
<svg version="1.1" xmlns="http://www.w3.org/2000/svg" width="32" height="32" viewBox="0 0 32 32">
<title>arrow-up-left</title>
<path d="M7.529 19.728c0 0.596 0.463 1.048 1.004 1.048s0.993-0.485 0.993-1.004v-4.081l-0.199-5.151 1.82 2.063 10.941 10.941c0.209 0.21 0.452 0.298 0.695 0.298 0.552 0 1.037-0.496 1.037-1.026 0-0.243-0.11-0.496-0.309-0.695l-10.93-10.952-2.051-1.798 5.382 0.176h3.838c0.518 0 0.993-0.452 0.993-0.982s-0.419-1.004-1.037-1.004h-11.096c-0.662 0-1.070 0.441-1.070 1.070l-0.011 11.096z"></path>
</svg>
