<!-- Generated by IcoMoon.io -->
<svg version="1.1" xmlns="http://www.w3.org/2000/svg" width="32" height="32" viewBox="0 0 32 32">
<title>arrow-turn-up-left</title>
<path d="M25.312 24.967c0.585 0 0.849-0.375 0.949-0.827 0.066-0.331 0.088-0.882 0.088-1.522 0-5.338-2.129-7.632-7.368-7.632h-7.71l-2.702 0.154 3.717-3.397 2.448-2.493c0.177-0.176 0.265-0.43 0.265-0.695 0-0.551-0.419-0.949-0.96-0.949-0.265 0-0.507 0.088-0.75 0.331l-7.301 7.29c-0.221 0.21-0.342 0.474-0.342 0.739 0 0.276 0.121 0.529 0.342 0.75l7.323 7.312c0.232 0.21 0.463 0.309 0.728 0.309 0.54 0 0.96-0.397 0.96-0.949 0-0.265-0.088-0.529-0.265-0.706l-2.448-2.493-3.728-3.397 2.713 0.165h7.61c4.048 0 5.471 1.666 5.471 5.757 0 0.518-0.022 0.882-0.022 1.268 0 0.585 0.408 0.982 0.982 0.982z"></path>
</svg>
