<!-- Generated by IcoMoon.io -->
<svg version="1.1" xmlns="http://www.w3.org/2000/svg" width="32" height="32" viewBox="0 0 32 32">
<title>arrow-left-square</title>
<path d="M9.11 25.974h13.379c2.316 0 3.463-1.147 3.463-3.419v-13.467c0-2.272-1.147-3.419-3.463-3.419h-13.379c-2.305 0-3.463 1.136-3.463 3.419v13.467c0 2.283 1.158 3.419 3.463 3.419zM9.132 24.198c-1.103 0-1.71-0.585-1.71-1.732v-13.29c0-1.147 0.607-1.732 1.71-1.732h13.335c1.092 0 1.71 0.585 1.71 1.732v13.29c0 1.147-0.618 1.732-1.71 1.732h-13.335zM10.147 15.794c0 0.243 0.11 0.441 0.309 0.64l3.728 3.739c0.143 0.143 0.353 0.232 0.574 0.232 0.463 0 0.794-0.353 0.794-0.805 0-0.243-0.077-0.441-0.243-0.585l-1.379-1.368-1.335-1.114 2.338 0.077h5.746c0.485 0 0.827-0.342 0.827-0.816 0-0.485-0.353-0.827-0.827-0.827h-5.746l-2.327 0.088 1.324-1.114 1.379-1.368c0.154-0.154 0.243-0.353 0.243-0.596 0-0.452-0.331-0.794-0.794-0.794-0.221 0-0.43 0.077-0.574 0.221l-3.728 3.75c-0.221 0.221-0.309 0.397-0.309 0.64z"></path>
</svg>
