<!-- Generated by IcoMoon.io -->
<svg version="1.1" xmlns="http://www.w3.org/2000/svg" width="32" height="32" viewBox="0 0 32 32">
<title>arrow-uturn-up-square</title>
<path d="M9.11 25.952h13.379c2.316 0 3.463-1.147 3.463-3.419v-13.467c0-2.272-1.147-3.419-3.463-3.419h-13.379c-2.305 0-3.463 1.136-3.463 3.419v13.467c0 2.283 1.158 3.419 3.463 3.419zM9.132 24.176c-1.103 0-1.71-0.585-1.71-1.732v-13.29c0-1.136 0.607-1.732 1.71-1.732h13.335c1.092 0 1.71 0.596 1.71 1.732v13.29c0 1.147-0.618 1.732-1.71 1.732h-13.335zM14.272 21.463c2.647 0 4.257-1.908 4.257-4.478v-3.298l-0.044-1.301 0.684 0.871 1.114 1.136c0.132 0.154 0.331 0.254 0.562 0.254 0.463 0 0.805-0.342 0.805-0.794 0-0.232-0.077-0.408-0.243-0.563l-2.978-2.934c-0.176-0.187-0.408-0.298-0.673-0.298-0.254 0-0.485 0.11-0.662 0.298l-3.011 2.945c-0.154 0.154-0.232 0.331-0.232 0.563 0 0.441 0.353 0.783 0.805 0.783 0.21 0 0.419-0.077 0.574-0.243l1.323-1.379 0.474-0.64-0.044 1.301v3.298c0 1.621-0.938 2.857-2.625 2.857-1.743 0-2.824-1.202-2.824-2.868 0-0.132 0-1.489 0-1.533 0-0.474-0.276-0.838-0.783-0.838s-0.794 0.364-0.794 0.86c0 0.055 0 1.379 0 1.511 0 2.57 1.654 4.489 4.313 4.489z"></path>
</svg>
