<!-- Generated by IcoMoon.io -->
<svg version="1.1" xmlns="http://www.w3.org/2000/svg" width="32" height="32" viewBox="0 0 32 32">
<title>arrow-right-doc-on-clipboard</title>
<path d="M10.055 8.412h8.471c1.268 0 2.537 0.783 2.537 2.603v13.114h2.779c2.272 0 3.419-1.169 3.419-3.463v-15.32c0-2.294-1.147-3.463-3.419-3.463h-10.368c-2.272 0-3.419 1.158-3.419 3.463v3.066zM15.261 5.015v-0.232c0-0.342 0.221-0.651 0.706-0.651h5.382c0.474 0 0.706 0.309 0.706 0.651v0.232c0 0.331-0.232 0.651-0.706 0.651h-5.382c-0.485 0-0.706-0.32-0.706-0.651zM4.706 26.169c0 2.305 1.136 3.463 3.419 3.463h10.368c2.283 0 3.419-1.169 3.419-3.463v-15.32c0-2.305-1.136-3.463-3.419-3.463h-10.368c-2.283 0-3.419 1.147-3.419 3.463v15.32zM6.482 26.136v-15.265c0-1.092 0.585-1.71 1.721-1.71h10.202c1.136 0 1.732 0.618 1.732 1.71v15.265c0 1.103-0.596 1.721-1.732 1.721h-10.202c-1.136 0-1.721-0.618-1.721-1.721zM8.489 18.493c0 0.408 0.287 0.706 0.695 0.706h4.776l1.974-0.077-1.147 0.982-1.081 1.059c-0.132 0.132-0.21 0.298-0.21 0.496 0 0.375 0.287 0.684 0.673 0.684 0.187 0 0.353-0.077 0.474-0.199l3.088-3.099c0.176-0.176 0.276-0.331 0.276-0.552 0-0.187-0.088-0.342-0.276-0.529l-3.088-3.11c-0.121-0.121-0.287-0.187-0.474-0.187-0.386 0-0.673 0.298-0.673 0.673 0 0.198 0.088 0.364 0.21 0.496l1.081 1.070 1.147 0.971-1.974-0.066h-4.776c-0.397 0-0.695 0.276-0.695 0.684z"></path>
</svg>
