<!-- Generated by IcoMoon.io -->
<svg version="1.1" xmlns="http://www.w3.org/2000/svg" width="32" height="32" viewBox="0 0 32 32">
<title>arrowshape-backward-fill</title>
<path d="M3.765 15.761c0 0.364 0.143 0.783 0.563 1.18l8.702 8.217c0.529 0.496 0.971 0.717 1.511 0.717 0.75 0 1.29-0.552 1.29-1.29v-4.467h9.176c1.599 0 2.537-0.904 2.537-2.482v-3.739c0-1.577-0.938-2.482-2.537-2.482h-9.176v-4.423c0-0.739-0.54-1.346-1.312-1.346-0.54 0-0.904 0.232-1.489 0.783l-8.702 8.14c-0.43 0.408-0.563 0.816-0.563 1.191z"></path>
</svg>
