<!-- Generated by IcoMoon.io -->
<svg version="1.1" xmlns="http://www.w3.org/2000/svg" width="32" height="32" viewBox="0 0 32 32">
<title>arrowshape-turn-up-backward-2-circle</title>
<path d="M15.956 27.206c6.154 0 11.25-5.107 11.25-11.25 0-6.154-5.107-11.25-11.261-11.25-6.143 0-11.239 5.096-11.239 11.25 0 6.143 5.107 11.25 11.25 11.25zM15.956 25.331c-5.206 0-9.364-4.169-9.364-9.375s4.147-9.375 9.353-9.375c5.206 0 9.386 4.169 9.386 9.375s-4.169 9.375-9.375 9.375zM13.441 20.489c0.397 0 0.673-0.254 0.673-0.496v-0.287l-3.629-3.331c-0.353-0.331-0.54-0.739-0.54-1.169s0.176-0.827 0.54-1.158l3.629-3.32v-0.276c0-0.276-0.276-0.518-0.684-0.518-0.276 0-0.463 0.11-0.761 0.397l-4.555 4.268c-0.221 0.21-0.287 0.408-0.287 0.607s0.066 0.408 0.287 0.618l4.555 4.279c0.287 0.265 0.496 0.386 0.772 0.386zM16.353 20.489c0.375 0 0.662-0.287 0.662-0.684v-2.206h0.176c2.239 0 3.684 0.574 4.654 2.46 0.188 0.353 0.452 0.43 0.706 0.43 0.32 0 0.585-0.276 0.585-0.761 0-4.279-1.831-6.893-5.945-6.893h-0.176v-2.195c0-0.386-0.287-0.706-0.673-0.706-0.276 0-0.463 0.121-0.761 0.397l-4.544 4.268c-0.232 0.221-0.309 0.408-0.309 0.607s0.077 0.397 0.309 0.618l4.544 4.279c0.276 0.265 0.507 0.386 0.772 0.386z"></path>
</svg>
