<!-- Generated by IcoMoon.io -->
<svg version="1.1" xmlns="http://www.w3.org/2000/svg" width="32" height="32" viewBox="0 0 32 32">
<title>arrowtriangle-right</title>
<path d="M7.923 25.077c0.441 0 0.794-0.187 1.257-0.419l14.173-6.871c0.938-0.463 1.235-0.893 1.235-1.478s-0.298-1.004-1.235-1.467l-14.173-6.882c-0.474-0.232-0.827-0.419-1.268-0.419-0.816 0-1.324 0.618-1.324 1.577l0.011 14.382c0 0.96 0.507 1.577 1.324 1.577zM8.474 22.982c-0.066 0-0.11-0.044-0.11-0.132v-13.081c0-0.088 0.044-0.132 0.11-0.132 0.044 0 0.088 0.022 0.132 0.055l13.511 6.496c0.055 0.022 0.099 0.066 0.099 0.121s-0.044 0.099-0.099 0.121l-13.511 6.507c-0.044 0.022-0.088 0.044-0.132 0.044z"></path>
</svg>
