<!-- Generated by IcoMoon.io -->
<svg version="1.1" xmlns="http://www.w3.org/2000/svg" width="32" height="32" viewBox="0 0 32 32">
<title>arrow-left-and-right</title>
<path d="M4.706 16.228c0 0.265 0.11 0.518 0.331 0.728l5.89 5.779c0.187 0.188 0.474 0.298 0.717 0.298 0.585 0 0.971-0.397 0.971-0.971 0-0.287-0.088-0.496-0.265-0.673l-2.592-2.504-2.063-1.787 2.559 0.11h10.621l2.559-0.11-2.063 1.787-2.581 2.504c-0.176 0.176-0.265 0.386-0.265 0.673 0 0.574 0.386 0.971 0.971 0.971 0.243 0 0.529-0.11 0.717-0.298l5.89-5.779c0.221-0.209 0.331-0.463 0.331-0.728 0-0.276-0.11-0.529-0.331-0.739l-5.89-5.779c-0.188-0.187-0.474-0.298-0.717-0.298-0.584 0-0.971 0.397-0.971 0.971 0 0.287 0.088 0.496 0.265 0.673l2.581 2.515 2.063 1.776-2.559-0.11h-10.621l-2.559 0.11 2.063-1.776 2.592-2.515c0.176-0.176 0.265-0.386 0.265-0.673 0-0.573-0.386-0.971-0.971-0.971-0.243 0-0.529 0.11-0.717 0.298l-5.89 5.779c-0.221 0.21-0.331 0.463-0.331 0.739z"></path>
</svg>
