<!-- Generated by IcoMoon.io -->
<svg version="1.1" xmlns="http://www.w3.org/2000/svg" width="32" height="32" viewBox="0 0 32 32">
<title>arrow-up-backward-and-arrow-down-forward</title>
<path d="M6.662 14.57c0.585 0 1.004-0.441 1.004-1.026v-0.927l-0.221-3.849 2.901 3.055 3.397 3.419c0.187 0.198 0.43 0.287 0.695 0.287 0.629 0 1.092-0.408 1.092-1.026 0-0.298-0.099-0.563-0.298-0.761l-3.408-3.397-3.055-2.901 3.86 0.221h0.915c0.585 0 1.037-0.408 1.037-1.004s-0.441-1.015-1.037-1.015h-6.121c-1.125 0-1.776 0.651-1.776 1.776v6.121c0 0.574 0.43 1.026 1.015 1.026zM18.761 26.691h6.121c1.125 0 1.787-0.651 1.787-1.776v-6.121c0-0.574-0.43-1.026-1.026-1.026-0.574 0-1.004 0.441-1.004 1.026v0.926l0.232 3.849-2.912-3.055-3.386-3.419c-0.187-0.199-0.441-0.287-0.706-0.287-0.618 0-1.092 0.408-1.092 1.026 0 0.298 0.11 0.563 0.309 0.761l3.397 3.397 3.066 2.901-3.86-0.221h-0.927c-0.585 0-1.037 0.408-1.037 1.004s0.452 1.015 1.037 1.015z"></path>
</svg>
