<!-- Generated by IcoMoon.io -->
<svg version="1.1" xmlns="http://www.w3.org/2000/svg" width="32" height="32" viewBox="0 0 32 32">
<title>arrow-down-heart-fill</title>
<path d="M16.452 12.949v4.103l-0.077 1.853 0.949-0.993 1.004-1.015c0.165-0.165 0.375-0.265 0.607-0.265 0.452 0 0.805 0.331 0.805 0.794 0 0.265-0.11 0.452-0.287 0.618l-3.243 2.967c-0.243 0.232-0.419 0.298-0.64 0.298s-0.397-0.066-0.64-0.298l-3.243-2.967c-0.176-0.165-0.287-0.353-0.287-0.618 0-0.463 0.331-0.794 0.805-0.794 0.221 0 0.452 0.099 0.607 0.265l1.004 1.015 0.949 0.993-0.066-1.853v-4.103c0-0.463 0.397-0.849 0.871-0.849s0.882 0.386 0.882 0.849zM15.658 26.57c0.232 0 0.563-0.154 0.805-0.298 6.221-3.971 10.158-8.592 10.158-13.29 0-3.904-2.68-6.662-6.154-6.662-2.151 0-3.805 1.191-4.809 3.011-0.982-1.809-2.647-3.011-4.809-3.011-3.463 0-6.143 2.757-6.143 6.662 0 4.699 3.938 9.32 10.158 13.29 0.232 0.143 0.573 0.298 0.794 0.298z"></path>
</svg>
