<!-- Generated by IcoMoon.io -->
<svg version="1.1" xmlns="http://www.w3.org/2000/svg" width="32" height="32" viewBox="0 0 32 32">
<title>arrow-down-message-fill</title>
<path d="M8.132 27.702c1.324 0 4.621-1.445 6.496-2.79 0.187-0.132 0.342-0.188 0.496-0.188 0.143 0.011 0.287 0.022 0.43 0.022 7.952 0 13.224-4.522 13.224-10.015 0-5.548-5.559-10.026-12.507-10.026s-12.507 4.478-12.507 10.026c0 3.529 2.173 6.629 5.713 8.526 0.165 0.088 0.221 0.254 0.132 0.419-0.618 1.015-1.721 2.228-2.14 2.779-0.43 0.551-0.188 1.246 0.662 1.246zM16.283 9.040c0.507 0 0.86 0.364 0.86 0.86v5.669l-0.099 2.415 1.158-1.379 1.335-1.346c0.154-0.176 0.364-0.254 0.607-0.254 0.474 0 0.838 0.353 0.838 0.827 0 0.232-0.088 0.43-0.243 0.585l-3.783 3.783c-0.221 0.221-0.408 0.32-0.673 0.32-0.243 0-0.43-0.088-0.662-0.32l-3.794-3.783c-0.154-0.154-0.221-0.353-0.221-0.585 0-0.474 0.353-0.827 0.827-0.827 0.232 0 0.452 0.088 0.607 0.254l1.346 1.346 1.136 1.368-0.099-2.404v-5.669c0-0.496 0.364-0.86 0.86-0.86z"></path>
</svg>
