<!-- Generated by IcoMoon.io -->
<svg version="1.1" xmlns="http://www.w3.org/2000/svg" width="32" height="32" viewBox="0 0 32 32">
<title>arrowshape-bounce-right-fill</title>
<path d="M10.625 26.173c0.496 0 0.794-0.243 0.904-0.684 1.191-3.684 3.088-4.985 6.221-4.985l0.397 0.011v4.213c0 0.739 0.541 1.29 1.29 1.29 0.541 0 0.982-0.221 1.511-0.717l8.713-8.217c0.419-0.397 0.552-0.816 0.552-1.18 0-0.375-0.132-0.794-0.552-1.191l-8.713-8.14c-0.585-0.551-0.949-0.794-1.489-0.794-0.772 0-1.313 0.618-1.313 1.357v4.169h-0.32c-3.463 0-6.474 2.051-7.158 6.176h-0.121c-0.761-4.566-3.893-6.176-6.86-6.176-0.055 0-0.232 0-0.618 0-1.522 0-2.129 0.574-2.129 2.217v5.272c0 1.246 0.596 1.776 2.029 1.776 0.331 0 0.629 0 0.971 0 3.011 0 4.996 2.007 5.79 4.908 0.099 0.452 0.386 0.695 0.893 0.695z"></path>
</svg>
