<!-- Generated by IcoMoon.io -->
<svg version="1.1" xmlns="http://www.w3.org/2000/svg" width="32" height="32" viewBox="0 0 32 32">
<title>arrow-left-arrow-right-circle-fill</title>
<path d="M15.956 27.206c6.154 0 11.25-5.107 11.25-11.25 0-6.154-5.107-11.25-11.261-11.25-6.143 0-11.239 5.096-11.239 11.25 0 6.143 5.107 11.25 11.25 11.25zM10.629 12.007l2.857-2.768c0.143-0.154 0.353-0.243 0.529-0.243 0.43 0 0.739 0.298 0.739 0.728 0 0.199-0.077 0.386-0.232 0.529l-1.191 1.169-0.452 0.408 0.529-0.011h7.357c0.43 0 0.739 0.309 0.739 0.739 0 0.419-0.32 0.75-0.739 0.75h-7.368l-0.529-0.033 0.463 0.441 1.191 1.158c0.154 0.143 0.232 0.32 0.232 0.529 0 0.419-0.309 0.717-0.739 0.717-0.176 0-0.375-0.088-0.529-0.21l-2.857-2.801c-0.298-0.287-0.298-0.805 0-1.103zM21.261 19.915l-2.846 2.801c-0.165 0.143-0.364 0.232-0.54 0.232-0.419 0-0.728-0.309-0.728-0.728 0-0.21 0.088-0.375 0.232-0.529l1.191-1.169 0.474-0.408-0.552 0.011h-7.368c-0.408 0-0.717-0.32-0.717-0.75s0.309-0.739 0.717-0.739h7.379l0.54 0.033-0.474-0.441-1.213-1.158c-0.143-0.143-0.209-0.32-0.209-0.529 0-0.419 0.298-0.717 0.728-0.717 0.187 0 0.397 0.088 0.54 0.221l2.846 2.801c0.298 0.298 0.32 0.761 0 1.070z"></path>
</svg>
