<!-- Generated by IcoMoon.io -->
<svg version="1.1" xmlns="http://www.w3.org/2000/svg" width="32" height="32" viewBox="0 0 32 32">
<title>arrow-down-message</title>
<path d="M8.551 27.813c1.489 0 4.533-1.5 6.772-3.099 7.688 0.21 13.456-4.202 13.456-9.982 0-5.548-5.559-10.026-12.507-10.026s-12.507 4.478-12.507 10.026c0 3.618 2.316 6.827 5.802 8.438-0.496 0.96-1.423 2.261-1.919 2.912-0.585 0.772-0.232 1.732 0.904 1.732zM9.71 25.982c-0.088 0.033-0.121-0.033-0.066-0.11 0.618-0.761 1.5-1.908 1.875-2.614 0.309-0.573 0.232-1.081-0.474-1.412-3.463-1.61-5.449-4.18-5.449-7.114 0-4.522 4.732-8.206 10.677-8.206 5.956 0 10.687 3.684 10.687 8.206 0 4.511-4.732 8.195-10.687 8.195-0.221 0-0.563-0.011-1.004-0.022-0.463 0-0.816 0.143-1.235 0.474-1.357 0.982-3.32 2.195-4.324 2.603zM16.283 9.217c-0.474 0-0.827 0.353-0.827 0.827v5.526l0.088 2.316-1.103-1.323-1.313-1.313c-0.143-0.154-0.353-0.243-0.585-0.243-0.452 0-0.794 0.342-0.794 0.794 0 0.221 0.066 0.419 0.21 0.562l3.684 3.673c0.221 0.221 0.408 0.309 0.64 0.309 0.254 0 0.441-0.099 0.651-0.309l3.673-3.673c0.143-0.143 0.232-0.342 0.232-0.562 0-0.452-0.353-0.794-0.805-0.794-0.243 0-0.441 0.077-0.585 0.243l-1.302 1.313-1.125 1.346 0.088-2.338v-5.526c0-0.474-0.342-0.827-0.827-0.827z"></path>
</svg>
