<!-- Generated by IcoMoon.io -->
<svg version="1.1" xmlns="http://www.w3.org/2000/svg" width="32" height="32" viewBox="0 0 32 32">
<title>arrow-up-right-video-fill</title>
<path d="M6.364 24.5h11.846c2.217 0 3.54-1.279 3.54-3.496v-10.93c0-2.206-1.213-3.485-3.43-3.485h-11.956c-2.118 0-3.54 1.279-3.54 3.485v10.93c0 2.217 1.324 3.496 3.54 3.496zM23.25 18.798l4.015 3.474c0.375 0.331 0.816 0.54 1.213 0.54 0.86 0 1.423-0.629 1.423-1.533v-11.471c0-0.904-0.562-1.533-1.423-1.533-0.397 0-0.838 0.21-1.213 0.54l-4.015 3.463v6.518zM8.504 20.221c-0.485 0-0.849-0.342-0.849-0.794 0-0.243 0.088-0.441 0.276-0.629l4.643-4.665 1.93-1.754-3.265 0.199h-1.544c-0.441 0-0.816-0.331-0.816-0.772 0-0.474 0.353-0.849 0.816-0.849h6.342c0.607 0 0.893 0.298 0.893 0.904v6.32c0 0.463-0.375 0.816-0.849 0.816-0.441 0-0.772-0.375-0.772-0.816v-1.522l0.199-3.254-1.754 1.908-4.643 4.654c-0.176 0.176-0.353 0.254-0.607 0.254z"></path>
</svg>
