<!-- Generated by IcoMoon.io -->
<svg version="1.1" xmlns="http://www.w3.org/2000/svg" width="32" height="32" viewBox="0 0 32 32">
<title>arrow-triangle-2-circlepath-doc-on-clipboard</title>
<path d="M10.055 8.412h8.471c1.268 0 2.537 0.783 2.537 2.603v13.114h2.779c2.272 0 3.419-1.169 3.419-3.463v-15.32c0-2.294-1.147-3.463-3.419-3.463h-10.368c-2.272 0-3.419 1.158-3.419 3.463v3.066zM15.261 5.015v-0.232c0-0.342 0.221-0.651 0.706-0.651h5.382c0.474 0 0.706 0.309 0.706 0.651v0.232c0 0.331-0.232 0.651-0.706 0.651h-5.382c-0.485 0-0.706-0.32-0.706-0.651zM4.706 26.169c0 2.305 1.136 3.463 3.419 3.463h10.368c2.283 0 3.419-1.169 3.419-3.463v-15.32c0-2.305-1.136-3.463-3.419-3.463h-10.368c-2.283 0-3.419 1.147-3.419 3.463v15.32zM6.482 26.136v-15.265c0-1.092 0.585-1.71 1.721-1.71h10.202c1.136 0 1.732 0.618 1.732 1.71v15.265c0 1.103-0.596 1.721-1.732 1.721h-10.202c-1.136 0-1.721-0.618-1.721-1.721zM13.364 23.335c1.081 0 2.173-0.375 2.923-1.004 0.408-0.32 0.507-0.772 0.209-1.092-0.298-0.331-0.695-0.276-1.037-0.022-0.629 0.485-1.246 0.75-2.096 0.75-1.721 0-3.143-1.158-3.54-2.691h0.915c0.408 0 0.496-0.386 0.276-0.695l-1.412-1.952c-0.232-0.32-0.629-0.353-0.871 0l-1.39 1.952c-0.221 0.309-0.132 0.695 0.265 0.695h0.915c0.43 2.404 2.371 4.059 4.842 4.059zM13.353 13.629c-1.081 0-2.173 0.386-2.923 1.004-0.408 0.331-0.507 0.772-0.21 1.103 0.298 0.32 0.695 0.265 1.037 0.011 0.629-0.485 1.257-0.75 2.096-0.75 1.721 0 3.154 1.158 3.54 2.691h-0.971c-0.397 0-0.485 0.386-0.265 0.695l1.401 1.963c0.232 0.32 0.629 0.342 0.882 0l1.379-1.963c0.232-0.309 0.143-0.695-0.265-0.695h-0.86c-0.419-2.404-2.371-4.059-4.842-4.059z"></path>
</svg>
