<!-- Generated by IcoMoon.io -->
<svg version="1.1" xmlns="http://www.w3.org/2000/svg" width="32" height="32" viewBox="0 0 32 32">
<title>arrow-forward-circle-fill</title>
<path d="M15.956 27.206c6.154 0 11.25-5.107 11.25-11.25 0-6.154-5.107-11.25-11.261-11.25-6.143 0-11.239 5.096-11.239 11.25 0 6.143 5.107 11.25 11.25 11.25zM21.802 15.945c0 0.254-0.099 0.452-0.32 0.662l-3.838 3.849c-0.154 0.154-0.353 0.243-0.596 0.243-0.474 0-0.827-0.364-0.827-0.838 0-0.243 0.099-0.452 0.254-0.607l1.412-1.401 1.379-1.147-2.404 0.088h-5.912c-0.496 0-0.86-0.353-0.86-0.849 0-0.507 0.364-0.86 0.86-0.86h5.912l2.404 0.099-1.379-1.147-1.412-1.401c-0.143-0.165-0.254-0.375-0.254-0.618 0-0.474 0.353-0.827 0.827-0.827 0.243 0 0.441 0.077 0.596 0.232l3.838 3.86c0.232 0.232 0.32 0.408 0.32 0.662z"></path>
</svg>
