<!-- Generated by IcoMoon.io -->
<svg version="1.1" xmlns="http://www.w3.org/2000/svg" width="32" height="32" viewBox="0 0 32 32">
<title>arrow-up-to-line-compact</title>
<path d="M15.934 26.033c0.574 0 0.982-0.408 0.982-0.982v-11.14l-0.077-2.36 3.32 3.629 2.471 2.438c0.176 0.176 0.441 0.276 0.706 0.276 0.551 0 0.96-0.419 0.96-0.971 0-0.265-0.11-0.507-0.331-0.739l-7.29-7.301c-0.209-0.221-0.474-0.342-0.739-0.342-0.276 0-0.529 0.121-0.739 0.342l-7.301 7.301c-0.21 0.232-0.32 0.474-0.32 0.739 0 0.551 0.397 0.971 0.96 0.971 0.265 0 0.518-0.099 0.706-0.276l2.471-2.438 3.32-3.64-0.088 2.371v11.14c0 0.574 0.408 0.982 0.993 0.982zM8.478 8.563h14.879c0.574 0 0.971-0.408 0.971-0.982s-0.397-0.993-0.971-0.993h-14.879c-0.563 0-0.949 0.419-0.949 0.993s0.386 0.982 0.949 0.982z"></path>
</svg>
