<!-- Generated by IcoMoon.io -->
<svg version="1.1" xmlns="http://www.w3.org/2000/svg" width="32" height="32" viewBox="0 0 32 32">
<title>arrow-up-arrow-down-square-fill</title>
<path d="M9.11 25.974h13.379c2.316 0 3.463-1.147 3.463-3.419v-13.467c0-2.272-1.147-3.419-3.463-3.419h-13.379c-2.305 0-3.463 1.136-3.463 3.419v13.467c0 2.283 1.158 3.419 3.463 3.419zM11.735 10.5c0.32-0.32 0.794-0.298 1.092 0l2.79 2.857c0.132 0.132 0.232 0.342 0.232 0.529 0 0.43-0.309 0.739-0.728 0.739-0.198 0-0.386-0.077-0.518-0.21l-1.169-1.224-0.43-0.463 0.033 0.541v7.368c0 0.408-0.32 0.717-0.761 0.717-0.419 0-0.728-0.309-0.728-0.717v-7.357l0.011-0.552-0.43 0.463-1.169 1.202c-0.132 0.143-0.32 0.232-0.507 0.232-0.43 0-0.75-0.32-0.75-0.739 0-0.165 0.11-0.375 0.232-0.529l2.801-2.857zM19.886 21.132c-0.298 0.298-0.816 0.298-1.103 0l-2.79-2.846c-0.143-0.165-0.221-0.364-0.221-0.54 0-0.43 0.287-0.728 0.717-0.728 0.21 0 0.386 0.066 0.529 0.221l1.169 1.191 0.419 0.474-0.022-0.529v-7.379c0-0.419 0.32-0.728 0.75-0.728 0.419 0 0.739 0.309 0.739 0.728v7.368l-0.022 0.529 0.43-0.463 1.169-1.191c0.132-0.132 0.32-0.221 0.518-0.221 0.441 0 0.739 0.298 0.739 0.728 0 0.187-0.11 0.386-0.243 0.54l-2.779 2.846z"></path>
</svg>
