<!-- Generated by IcoMoon.io -->
<svg version="1.1" xmlns="http://www.w3.org/2000/svg" width="32" height="32" viewBox="0 0 32 32">
<title>arrow-turn-up-forward-iphone</title>
<path d="M19.691 28.055h8.173c1.798 0 3-1.147 3-2.868v-17.614c0-1.721-1.202-2.868-3-2.868h-8.173c-1.798 0-3.011 1.147-3.011 2.868v17.614c0 1.721 1.213 2.868 3.011 2.868zM19.912 26.279c-0.926 0-1.456-0.496-1.456-1.379v-17.040c0-0.882 0.529-1.379 1.456-1.379h7.721c0.927 0 1.456 0.496 1.456 1.379v17.040c0 0.882-0.529 1.379-1.456 1.379h-7.721zM1.923 25.43c0.574 0 0.982-0.397 0.982-0.971v-1.677c0-4.103 2.504-5.426 5.713-5.426h0.728l3.055-0.099v-0.618l-3 2.735-1.213 1.037c-0.254 0.21-0.32 0.485-0.32 0.75 0 0.54 0.419 0.949 0.96 0.949 0.265 0 0.496-0.099 0.739-0.331l4.665-4.654c0.221-0.209 0.342-0.463 0.342-0.739s-0.121-0.529-0.342-0.739l-4.688-4.677c-0.221-0.221-0.452-0.309-0.717-0.309-0.54 0-0.96 0.397-0.96 0.949 0 0.265 0.066 0.541 0.32 0.75l1.213 1.037 3 2.735v-0.618l-3.055-0.099h-0.728c-3.915 0-7.676 1.798-7.676 7.368v1.677c0 0.574 0.408 0.971 0.982 0.971z"></path>
</svg>
