<!-- Generated by IcoMoon.io -->
<svg version="1.1" xmlns="http://www.w3.org/2000/svg" width="32" height="32" viewBox="0 0 32 32">
<title>arrow-left-and-right-circle-fill</title>
<path d="M15.956 27.206c6.154 0 11.25-5.107 11.25-11.25 0-6.154-5.107-11.25-11.261-11.25-6.143 0-11.239 5.096-11.239 11.25 0 6.143 5.107 11.25 11.25 11.25zM23.026 15.956c0 0.243-0.099 0.43-0.32 0.662l-3.287 3.298c-0.143 0.154-0.353 0.232-0.596 0.232-0.463 0-0.816-0.353-0.816-0.827 0-0.254 0.099-0.452 0.243-0.607l0.86-0.849 1.368-1.147-2.404 0.099h-4.257l-2.404-0.099 1.379 1.147 0.86 0.849c0.143 0.154 0.243 0.353 0.243 0.607 0 0.474-0.353 0.827-0.816 0.827-0.243 0-0.452-0.077-0.596-0.232l-3.287-3.298c-0.221-0.232-0.32-0.419-0.32-0.662 0-0.254 0.099-0.441 0.32-0.673l3.287-3.287c0.143-0.154 0.353-0.243 0.596-0.243 0.463 0 0.816 0.375 0.816 0.838 0 0.254-0.088 0.452-0.243 0.618l-0.86 0.838-1.39 1.147 2.415-0.088h4.257l2.415 0.088-1.379-1.147-0.86-0.838c-0.154-0.165-0.243-0.364-0.243-0.618 0-0.463 0.353-0.838 0.816-0.838 0.243 0 0.452 0.088 0.596 0.243l3.287 3.287c0.221 0.232 0.32 0.419 0.32 0.673z"></path>
</svg>
