<!-- Generated by IcoMoon.io -->
<svg version="1.1" xmlns="http://www.w3.org/2000/svg" width="32" height="32" viewBox="0 0 32 32">
<title>arrow-up-left-and-arrow-down-right-circle-fill</title>
<path d="M15.956 27.206c6.154 0 11.25-5.107 11.25-11.25 0-6.154-5.107-11.25-11.261-11.25-6.143 0-11.239 5.096-11.239 11.25 0 6.143 5.107 11.25 11.25 11.25zM10.882 15.956c-0.463 0-0.827-0.364-0.827-0.827v-4.092c0-0.706 0.353-0.982 0.971-0.982h4.081c0.463 0 0.827 0.375 0.827 0.838s-0.364 0.827-0.827 0.827h-0.574l-1.787-0.11 2.625 2.504c0.342 0.331 0.353 0.915 0.011 1.257-0.342 0.353-0.915 0.364-1.257-0.011l-2.526-2.647 0.121 1.842v0.574c0 0.463-0.375 0.827-0.838 0.827zM16.816 21.879c-0.463 0-0.838-0.375-0.838-0.838s0.375-0.827 0.838-0.827h0.574l1.787 0.11-2.636-2.504c-0.342-0.331-0.353-0.915-0.011-1.257 0.353-0.353 0.915-0.364 1.268 0.011l2.515 2.647-0.11-1.842v-0.573c0-0.463 0.364-0.827 0.827-0.827s0.838 0.364 0.838 0.827v4.092c0 0.706-0.364 0.982-0.982 0.982h-4.070z"></path>
</svg>
