<!-- Generated by IcoMoon.io -->
<svg version="1.1" xmlns="http://www.w3.org/2000/svg" width="32" height="32" viewBox="0 0 32 32">
<title>arrow-counterclockwise-circle</title>
<path d="M15.956 27.206c6.154 0 11.25-5.107 11.25-11.25 0-6.154-5.107-11.25-11.261-11.25-6.143 0-11.239 5.096-11.239 11.25 0 6.143 5.107 11.25 11.25 11.25zM15.956 25.331c-5.206 0-9.364-4.169-9.364-9.375s4.147-9.375 9.353-9.375c5.206 0 9.386 4.169 9.386 9.375s-4.169 9.375-9.375 9.375zM20.864 16.463c0-2.713-2.228-4.842-4.71-4.842-0.099 0-0.221 0.022-0.298 0.022l0.783-0.794c0.11-0.121 0.187-0.309 0.187-0.496 0-0.397-0.298-0.706-0.695-0.706-0.198 0-0.375 0.088-0.507 0.221l-2.118 2.151c-0.254 0.265-0.265 0.761 0 1.026l2.14 2.14c0.121 0.11 0.309 0.199 0.485 0.199 0.397 0 0.695-0.298 0.695-0.684 0-0.21-0.077-0.375-0.21-0.518l-1.070-1.048c0.11-0.022 0.254-0.033 0.397-0.033 1.897 0 3.397 1.511 3.397 3.397 0 1.897-1.5 3.408-3.397 3.408-1.886 0-3.397-1.522-3.397-3.408 0-0.408-0.342-0.75-0.761-0.75-0.408 0-0.761 0.342-0.761 0.75 0 2.724 2.195 4.93 4.919 4.93s4.919-2.206 4.919-4.963z"></path>
</svg>
