<!-- Generated by IcoMoon.io -->
<svg version="1.1" xmlns="http://www.w3.org/2000/svg" width="32" height="32" viewBox="0 0 32 32">
<title>arrowshape-turn-up-forward-fill</title>
<path d="M16.768 25.875c0.54 0 0.982-0.221 1.511-0.717l8.702-8.217c0.419-0.397 0.562-0.816 0.562-1.18 0-0.375-0.132-0.783-0.562-1.191l-8.702-8.14c-0.585-0.551-0.949-0.783-1.489-0.783-0.772 0-1.323 0.607-1.323 1.346v4.169h-0.32c-7.93 0-11.382 5.085-11.382 13.235 0 0.949 0.54 1.478 1.136 1.478 0.463 0 0.971-0.11 1.357-0.816 1.919-3.607 4.621-4.688 8.89-4.688h0.32v4.213c0 0.739 0.551 1.29 1.301 1.29z"></path>
</svg>
