<!-- Generated by IcoMoon.io -->
<svg version="1.1" xmlns="http://www.w3.org/2000/svg" width="32" height="32" viewBox="0 0 32 32">
<title>arrow-counterclockwise-circle-fill</title>
<path d="M15.956 27.217c6.154 0 11.25-5.096 11.25-11.25 0-6.143-5.107-11.25-11.261-11.25-6.143 0-11.239 5.107-11.239 11.25 0 6.154 5.107 11.25 11.25 11.25zM21.029 16.496c0 2.846-2.261 5.129-5.074 5.129s-5.073-2.283-5.073-5.085c0-0.43 0.364-0.783 0.783-0.783 0.441 0 0.794 0.353 0.794 0.783 0 1.941 1.555 3.507 3.496 3.507 1.952 0 3.496-1.566 3.496-3.507 0-1.952-1.544-3.507-3.496-3.507-0.143 0-0.287 0.011-0.397 0.033l1.092 1.081c0.132 0.143 0.221 0.32 0.221 0.518 0 0.408-0.309 0.728-0.728 0.728-0.176 0-0.375-0.099-0.496-0.221l-2.206-2.195c-0.276-0.276-0.265-0.783 0-1.059l2.184-2.217c0.132-0.143 0.32-0.243 0.518-0.243 0.419 0 0.728 0.331 0.728 0.739 0 0.199-0.088 0.397-0.199 0.518l-0.794 0.816c0.077-0.011 0.199-0.022 0.298-0.022 2.559 0 4.853 2.195 4.853 4.985z"></path>
</svg>
