<!-- Generated by IcoMoon.io -->
<svg version="1.1" xmlns="http://www.w3.org/2000/svg" width="32" height="32" viewBox="0 0 32 32">
<title>arrowshape-right</title>
<path d="M27.544 15.761c0-0.375-0.132-0.783-0.562-1.191l-8.702-8.14c-0.585-0.551-0.949-0.783-1.489-0.783-0.772 0-1.323 0.607-1.323 1.346v4.169h-8.945c-1.743 0-2.757 0.993-2.757 2.702v3.805c0 1.71 1.015 2.702 2.757 2.702h8.945v4.213c0 0.739 0.551 1.29 1.301 1.29 0.54 0 0.982-0.221 1.511-0.717l8.702-8.217c0.419-0.397 0.562-0.816 0.562-1.18zM25.559 15.761c0 0.066-0.022 0.121-0.11 0.21l-7.864 7.434c-0.055 0.066-0.121 0.099-0.187 0.099-0.088 0-0.154-0.066-0.154-0.165v-4.268c0-0.254-0.11-0.364-0.364-0.364h-10.335c-0.706 0-1.114-0.408-1.114-1.125v-3.629c0-0.717 0.408-1.125 1.114-1.125h10.335c0.254 0 0.364-0.11 0.364-0.364v-4.379c0-0.088 0.066-0.154 0.165-0.154 0.066 0 0.132 0.044 0.187 0.088l7.853 7.533c0.077 0.077 0.11 0.143 0.11 0.21z"></path>
</svg>
