<!-- Generated by IcoMoon.io -->
<svg version="1.1" xmlns="http://www.w3.org/2000/svg" width="32" height="32" viewBox="0 0 32 32">
<title>arrow-up-and-down-square</title>
<path d="M9.11 25.974h13.379c2.316 0 3.463-1.147 3.463-3.419v-13.467c0-2.272-1.147-3.419-3.463-3.419h-13.379c-2.305 0-3.463 1.136-3.463 3.419v13.467c0 2.283 1.158 3.419 3.463 3.419zM9.132 24.198c-1.103 0-1.71-0.585-1.71-1.732v-13.29c0-1.147 0.607-1.732 1.71-1.732h13.335c1.092 0 1.71 0.585 1.71 1.732v13.29c0 1.147-0.618 1.732-1.71 1.732h-13.335zM15.827 8.945c-0.243 0-0.441 0.11-0.651 0.32l-3.187 3.177c-0.143 0.143-0.232 0.342-0.232 0.573 0 0.452 0.353 0.794 0.805 0.794 0.243 0 0.441-0.088 0.596-0.243l0.816-0.838 1.114-1.335-0.088 2.338v4.147l0.088 2.338-1.114-1.335-0.816-0.838c-0.154-0.165-0.353-0.243-0.596-0.243-0.452 0-0.805 0.342-0.805 0.794 0 0.221 0.088 0.43 0.232 0.574l3.187 3.176c0.21 0.209 0.408 0.32 0.651 0.32 0.232 0 0.419-0.11 0.64-0.32l3.198-3.176c0.143-0.143 0.221-0.353 0.221-0.574 0-0.452-0.342-0.794-0.794-0.794-0.243 0-0.441 0.088-0.585 0.243l-0.827 0.838-1.114 1.324 0.088-2.327v-4.147l-0.088-2.327 1.114 1.323 0.827 0.838c0.143 0.143 0.342 0.243 0.585 0.243 0.452 0 0.794-0.342 0.794-0.794 0-0.232-0.077-0.43-0.221-0.573l-3.198-3.177c-0.221-0.21-0.408-0.32-0.64-0.32z"></path>
</svg>
