<!-- Generated by IcoMoon.io -->
<svg version="1.1" xmlns="http://www.w3.org/2000/svg" width="32" height="32" viewBox="0 0 32 32">
<title>arrow-up-arrow-down</title>
<path d="M8.702 5.984l-5.57 5.68c-0.188 0.198-0.309 0.485-0.309 0.728 0 0.585 0.397 0.982 0.971 0.982 0.287 0 0.507-0.099 0.695-0.287l2.294-2.371 1.776-2.051-0.11 2.548v14.173c0 0.585 0.408 0.993 0.993 0.993 0.574 0 0.982-0.408 0.982-0.993v-14.173l-0.099-2.548 1.765 2.051 2.305 2.371c0.187 0.187 0.397 0.287 0.684 0.287 0.574 0 0.971-0.397 0.971-0.982 0-0.243-0.11-0.529-0.309-0.728l-5.559-5.68c-0.408-0.43-1.059-0.452-1.478 0zM22.765 26.058l5.559-5.702c0.198-0.187 0.309-0.474 0.309-0.728 0-0.585-0.397-0.971-0.971-0.971-0.287 0-0.496 0.088-0.684 0.276l-2.294 2.371-1.776 2.063 0.099-2.548v-14.173c0-0.574-0.408-0.993-0.982-0.993-0.585 0-0.993 0.419-0.993 0.993v14.173l0.11 2.548-1.776-2.063-2.294-2.371c-0.187-0.187-0.408-0.276-0.684-0.276-0.574 0-0.982 0.386-0.982 0.971 0 0.254 0.121 0.54 0.32 0.728l5.559 5.702c0.408 0.43 1.048 0.441 1.478 0z"></path>
</svg>
