<!-- Generated by IcoMoon.io -->
<svg version="1.1" xmlns="http://www.w3.org/2000/svg" width="32" height="32" viewBox="0 0 32 32">
<title>arrow-up-square-fill</title>
<path d="M9.11 25.974h13.379c2.316 0 3.463-1.147 3.463-3.419v-13.467c0-2.272-1.147-3.419-3.463-3.419h-13.379c-2.305 0-3.463 1.136-3.463 3.419v13.467c0 2.283 1.158 3.419 3.463 3.419zM15.816 21.496c-0.496 0-0.86-0.353-0.86-0.86v-5.658l0.099-2.415-1.136 1.368-1.346 1.357c-0.154 0.154-0.364 0.254-0.607 0.254-0.474 0-0.827-0.364-0.827-0.827 0-0.243 0.066-0.441 0.221-0.596l3.794-3.783c0.232-0.232 0.419-0.32 0.662-0.32 0.265 0 0.452 0.099 0.673 0.32l3.783 3.783c0.165 0.154 0.243 0.353 0.243 0.596 0 0.463-0.364 0.827-0.838 0.827-0.243 0-0.452-0.088-0.607-0.254l-1.334-1.357-1.158-1.379 0.099 2.427v5.658c0 0.507-0.353 0.86-0.86 0.86z"></path>
</svg>
