<!-- Generated by IcoMoon.io -->
<svg version="1.1" xmlns="http://www.w3.org/2000/svg" width="32" height="32" viewBox="0 0 32 32">
<title>arrow-left-and-right-righttriangle-left-righttriangle-right</title>
<path d="M4.489 27.834h8.768c1.313 0 1.908-0.585 1.908-1.897v-13.18c0-0.971-0.728-1.489-1.511-1.489-0.529 0-1.037 0.243-1.401 0.75l-9.088 13.191c-0.243 0.353-0.342 0.761-0.342 1.136 0 0.805 0.529 1.489 1.665 1.489zM5.184 26.037c-0.066 0-0.132-0.033-0.132-0.11 0-0.033 0.011-0.066 0.033-0.121l8.085-12.121c0.033-0.044 0.066-0.066 0.099-0.066 0.055 0 0.088 0.055 0.088 0.11v11.989c0 0.254-0.077 0.32-0.331 0.32h-7.842zM18.353 27.834h8.757c1.147 0 1.676-0.684 1.676-1.489 0-0.375-0.11-0.783-0.353-1.136l-9.088-13.191c-0.353-0.507-0.871-0.75-1.401-0.75-0.783 0-1.5 0.518-1.5 1.489v13.18c0 1.312 0.596 1.897 1.908 1.897zM18.585 26.037c-0.265 0-0.331-0.066-0.331-0.32v-11.978c0-0.066 0.033-0.121 0.077-0.121 0.033 0 0.077 0.022 0.11 0.077l8.073 12.11c0.033 0.055 0.044 0.088 0.044 0.121 0 0.077-0.066 0.11-0.143 0.11h-7.831zM4.533 8.511l2.956 2.195c0.607 0.463 1.335 0.187 1.335-0.574v-1.577h13.952v1.577c0 0.761 0.739 1.037 1.346 0.574l2.956-2.195c0.408-0.309 0.397-0.871 0-1.169l-2.956-2.206c-0.585-0.441-1.346-0.21-1.346 0.585v1.555h-13.952v-1.555c0-0.772-0.728-1.048-1.335-0.585l-2.956 2.206c-0.408 0.298-0.397 0.871 0 1.169z"></path>
</svg>
