<!-- Generated by IcoMoon.io -->
<svg version="1.1" xmlns="http://www.w3.org/2000/svg" width="32" height="32" viewBox="0 0 32 32">
<title>arrow-right-square</title>
<path d="M9.11 25.974h13.379c2.316 0 3.463-1.147 3.463-3.419v-13.467c0-2.272-1.147-3.419-3.463-3.419h-13.379c-2.305 0-3.463 1.136-3.463 3.419v13.467c0 2.283 1.158 3.419 3.463 3.419zM9.132 24.198c-1.103 0-1.71-0.585-1.71-1.732v-13.29c0-1.147 0.607-1.732 1.71-1.732h13.335c1.092 0 1.71 0.585 1.71 1.732v13.29c0 1.147-0.618 1.732-1.71 1.732h-13.335zM21.485 15.794c0-0.243-0.099-0.419-0.32-0.64l-3.728-3.75c-0.143-0.143-0.342-0.221-0.573-0.221-0.452 0-0.794 0.342-0.794 0.794 0 0.243 0.099 0.441 0.243 0.596l1.39 1.368 1.323 1.114-2.327-0.088h-5.757c-0.474 0-0.816 0.342-0.816 0.827 0 0.474 0.342 0.816 0.816 0.816h5.757l2.327-0.077-1.323 1.114-1.39 1.368c-0.154 0.143-0.243 0.342-0.243 0.585 0 0.452 0.342 0.805 0.794 0.805 0.232 0 0.43-0.088 0.573-0.232l3.728-3.739c0.209-0.198 0.32-0.397 0.32-0.64z"></path>
</svg>
