<!-- Generated by IcoMoon.io -->
<svg version="1.1" xmlns="http://www.w3.org/2000/svg" width="32" height="32" viewBox="0 0 32 32">
<title>arrow-uturn-left-square-fill</title>
<path d="M9.11 25.952h13.379c2.316 0 3.463-1.147 3.463-3.419v-13.467c0-2.272-1.147-3.419-3.463-3.419h-13.379c-2.305 0-3.463 1.136-3.463 3.419v13.467c0 2.283 1.158 3.419 3.463 3.419zM21.43 17.018c0 2.636-1.787 4.357-4.445 4.357h-1.489c-0.529 0-0.882-0.331-0.882-0.816 0-0.496 0.342-0.827 0.86-0.827h1.511c1.665 0 2.801-1.081 2.801-2.713 0-1.5-1.114-2.515-2.79-2.515h-3.221l-1.136-0.044 0.518 0.364 1.335 1.29c0.165 0.165 0.265 0.364 0.265 0.607 0 0.474-0.364 0.849-0.816 0.849-0.254 0-0.452-0.088-0.607-0.243l-2.89-2.956c-0.21-0.21-0.298-0.452-0.298-0.695s0.099-0.496 0.298-0.695l2.879-2.923c0.165-0.165 0.353-0.254 0.607-0.254 0.474 0 0.827 0.375 0.827 0.849 0 0.221-0.099 0.441-0.265 0.585l-1.114 1.081-0.75 0.596 1.147-0.055h3.221c2.658 0 4.434 1.665 4.434 4.158z"></path>
</svg>
