<!-- Generated by IcoMoon.io -->
<svg version="1.1" xmlns="http://www.w3.org/2000/svg" width="32" height="32" viewBox="0 0 32 32">
<title>arrow-up-backward-square-fill</title>
<path d="M9.11 25.974h13.379c2.316 0 3.463-1.147 3.463-3.419v-13.467c0-2.272-1.147-3.419-3.463-3.419h-13.379c-2.305 0-3.463 1.136-3.463 3.419v13.467c0 2.283 1.158 3.419 3.463 3.419zM12.232 18.629c-0.496 0-0.827-0.386-0.827-0.915v-5.36c0-0.673 0.364-0.938 0.949-0.938h5.382c0.54 0 0.882 0.331 0.882 0.838 0 0.496-0.353 0.827-0.904 0.827h-2.051l-1.687-0.176 1.776 1.655 4.18 4.169c0.165 0.165 0.276 0.397 0.276 0.618 0 0.518-0.342 0.849-0.838 0.849-0.276 0-0.485-0.099-0.662-0.265l-4.158-4.169-1.643-1.754 0.165 1.776v1.952c0 0.54-0.331 0.893-0.838 0.893z"></path>
</svg>
