<!-- Generated by IcoMoon.io -->
<svg version="1.1" xmlns="http://www.w3.org/2000/svg" width="32" height="32" viewBox="0 0 32 32">
<title>arrow-up-and-down-and-sparkles</title>
<path d="M0.941 21.243c0 0.243 0.121 0.529 0.309 0.717l4.864 4.985c0.21 0.221 0.463 0.331 0.739 0.331 0.265 0 0.518-0.11 0.728-0.331l4.875-4.985c0.187-0.187 0.298-0.474 0.298-0.717 0-0.585-0.397-0.971-0.971-0.971-0.287 0-0.507 0.088-0.673 0.265l-1.599 1.688-1.787 2.051 0.11-2.548v-10.533l-0.11-2.548 1.787 2.051 1.599 1.688c0.165 0.176 0.386 0.265 0.673 0.265 0.574 0 0.971-0.386 0.971-0.971 0-0.243-0.11-0.529-0.298-0.717l-4.875-4.985c-0.21-0.221-0.463-0.331-0.728-0.331-0.276 0-0.529 0.11-0.739 0.331l-4.864 4.985c-0.188 0.188-0.309 0.474-0.309 0.717 0 0.584 0.397 0.971 0.971 0.971 0.287 0 0.518-0.099 0.673-0.265l1.61-1.688 1.776-2.051-0.11 2.548v10.533l0.11 2.548-1.776-2.051-1.61-1.688c-0.154-0.165-0.386-0.265-0.673-0.265-0.574 0-0.971 0.386-0.971 0.971zM14.904 13.544c0 0.32 0.243 0.574 0.585 0.618 5.195 0.585 5.956 1.312 6.651 6.673 0.055 0.331 0.309 0.552 0.607 0.552 0.309 0 0.562-0.221 0.618-0.552 0.695-5.36 1.445-6.088 6.64-6.673 0.353-0.044 0.585-0.298 0.585-0.618s-0.232-0.574-0.585-0.618c-5.184-0.585-5.945-1.324-6.64-6.673-0.055-0.32-0.298-0.54-0.618-0.54-0.309 0-0.552 0.221-0.607 0.54-0.739 5.316-1.445 5.978-6.651 6.673-0.342 0.044-0.585 0.298-0.585 0.618zM13.857 23.151c0 0.221 0.154 0.408 0.397 0.463 2.813 0.529 2.868 0.496 3.187 3.143 0.044 0.254 0.221 0.441 0.463 0.441 0.254 0 0.43-0.176 0.474-0.43 0.353-2.768 0.474-2.768 3.165-3.154 0.254-0.044 0.419-0.232 0.419-0.463 0-0.221-0.154-0.419-0.408-0.463-2.735-0.529-2.812-0.463-3.176-3.165-0.044-0.243-0.232-0.419-0.474-0.419s-0.419 0.187-0.463 0.441c-0.32 2.647-0.386 2.691-3.143 3.143-0.276 0.044-0.441 0.221-0.441 0.463z"></path>
</svg>
