<!-- Generated by IcoMoon.io -->
<svg version="1.1" xmlns="http://www.w3.org/2000/svg" width="32" height="32" viewBox="0 0 32 32">
<title>arrow-up-bin-fill</title>
<path d="M10.147 25.974h11.581c2.173 0 3.044-1.147 3.364-3.287l1.566-10.5h-21.441l1.577 10.5c0.32 2.151 1.191 3.287 3.353 3.287zM4.699 10.688h22.489c1.246 0 1.875-0.739 1.875-1.974v-1.070c0-1.235-0.629-1.974-1.875-1.974h-22.489c-1.18 0-1.875 0.739-1.875 1.974v1.070c0 1.235 0.629 1.974 1.875 1.974zM16.82 22.599c0 0.463-0.397 0.849-0.871 0.849s-0.882-0.386-0.882-0.849v-4.070l0.077-1.853-0.949 0.993-1.004 1.015c-0.165 0.165-0.386 0.265-0.607 0.265-0.474 0-0.805-0.331-0.805-0.794 0-0.265 0.11-0.452 0.287-0.618l3.243-2.978c0.243-0.221 0.419-0.298 0.64-0.298s0.397 0.077 0.64 0.298l3.243 2.978c0.176 0.165 0.287 0.353 0.287 0.618 0 0.463-0.353 0.794-0.805 0.794-0.232 0-0.452-0.099-0.607-0.265l-1.004-1.015-0.949-0.993 0.066 1.853v4.070z"></path>
</svg>
