<!-- Generated by IcoMoon.io -->
<svg version="1.1" xmlns="http://www.w3.org/2000/svg" width="32" height="32" viewBox="0 0 32 32">
<title>arrow-up-square</title>
<path d="M9.11 25.974h13.379c2.316 0 3.463-1.147 3.463-3.419v-13.467c0-2.272-1.147-3.419-3.463-3.419h-13.379c-2.305 0-3.463 1.136-3.463 3.419v13.467c0 2.283 1.158 3.419 3.463 3.419zM9.132 24.198c-1.103 0-1.71-0.585-1.71-1.732v-13.29c0-1.147 0.607-1.732 1.71-1.732h13.335c1.092 0 1.71 0.585 1.71 1.732v13.29c0 1.147-0.618 1.732-1.71 1.732h-13.335zM15.816 21.32c0.485 0 0.827-0.342 0.827-0.827v-5.515l-0.088-2.338 1.125 1.335 1.301 1.323c0.143 0.154 0.342 0.243 0.585 0.243 0.452 0 0.805-0.353 0.805-0.794 0-0.232-0.077-0.43-0.232-0.574l-3.673-3.673c-0.21-0.21-0.397-0.309-0.651-0.309-0.232 0-0.419 0.088-0.64 0.309l-3.684 3.673c-0.143 0.143-0.21 0.342-0.21 0.574 0 0.441 0.342 0.794 0.794 0.794 0.243 0 0.441-0.099 0.585-0.243l1.313-1.323 1.103-1.324-0.088 2.327v5.515c0 0.485 0.353 0.827 0.827 0.827z"></path>
</svg>
