<!-- Generated by IcoMoon.io -->
<svg version="1.1" xmlns="http://www.w3.org/2000/svg" width="32" height="32" viewBox="0 0 32 32">
<title>arrowshape-turn-up-left-fill</title>
<path d="M14.54 25.875c0.75 0 1.29-0.552 1.29-1.29v-4.213h0.32c4.279 0 6.971 1.081 8.901 4.688 0.386 0.706 0.893 0.816 1.357 0.816 0.585 0 1.136-0.529 1.136-1.478 0-8.151-3.452-13.235-11.393-13.235h-0.32v-4.169c0-0.739-0.54-1.346-1.312-1.346-0.54 0-0.904 0.232-1.489 0.783l-8.702 8.14c-0.43 0.408-0.563 0.816-0.563 1.191 0 0.364 0.143 0.783 0.563 1.18l8.702 8.217c0.529 0.496 0.971 0.717 1.511 0.717z"></path>
</svg>
