<!-- Generated by IcoMoon.io -->
<svg version="1.1" xmlns="http://www.w3.org/2000/svg" width="32" height="32" viewBox="0 0 32 32">
<title>arrow-rectanglepath</title>
<path d="M2.824 23.084c0 2.283 1.158 3.419 3.463 3.419h19.081c2.316 0 3.463-1.147 3.463-3.419v-13.467c0-2.272-1.147-3.419-3.463-3.419h-7.721c-0.485 0-0.893 0.397-0.893 0.882s0.408 0.893 0.893 0.893h7.699c1.092 0 1.71 0.585 1.71 1.732v13.29c0 1.147-0.618 1.732-1.71 1.732h-19.037c-1.103 0-1.71-0.585-1.71-1.732v-13.29c0-1.147 0.607-1.732 1.71-1.732h2.801v1.632c0 0.783 0.54 0.993 1.147 0.563l3.518-2.471c0.496-0.353 0.507-0.882 0-1.235l-3.507-2.471c-0.618-0.441-1.158-0.232-1.158 0.563v1.643h-2.824c-2.305 0-3.463 1.136-3.463 3.419v13.467z"></path>
</svg>
