<!-- Generated by IcoMoon.io -->
<svg version="1.1" xmlns="http://www.w3.org/2000/svg" width="32" height="32" viewBox="0 0 32 32">
<title>arrow-down-doc</title>
<path d="M16.702 16.107c0-0.452-0.386-0.816-0.838-0.816s-0.838 0.364-0.838 0.816v4.004l0.066 1.798-0.938-0.971-0.993-1.015c-0.154-0.165-0.386-0.254-0.596-0.254-0.452 0-0.772 0.32-0.772 0.761 0 0.254 0.099 0.441 0.276 0.596l3.176 2.923c0.232 0.21 0.408 0.287 0.618 0.287s0.386-0.077 0.618-0.287l3.176-2.923c0.176-0.154 0.276-0.342 0.276-0.596 0-0.441-0.331-0.761-0.772-0.761-0.221 0-0.441 0.088-0.596 0.254l-0.993 1.015-0.938 0.971 0.066-1.798v-4.004zM10.007 27.412h11.713c2.283 0 3.419-1.158 3.419-3.452v-10.015c0-1.423-0.165-2.040-1.048-2.945l-6.077-6.188c-0.838-0.86-1.533-1.048-2.768-1.048h-5.239c-2.272 0-3.419 1.169-3.419 3.463v16.732c0 2.305 1.136 3.452 3.419 3.452zM10.085 25.636c-1.136 0-1.721-0.607-1.721-1.71v-16.665c0-1.092 0.585-1.721 1.732-1.721h4.908v6.408c0 1.39 0.695 2.073 2.074 2.073h6.287v9.904c0 1.103-0.585 1.71-1.732 1.71h-11.548zM17.276 12.357c-0.441 0-0.607-0.176-0.607-0.618v-5.857l6.353 6.474h-5.746z"></path>
</svg>
