<!-- Generated by IcoMoon.io -->
<svg version="1.1" xmlns="http://www.w3.org/2000/svg" width="32" height="32" viewBox="0 0 32 32">
<title>arrow-triangle-turn-up-right-diamond-fill</title>
<path d="M5.001 18.711l8.835 8.835c1.632 1.632 3.243 1.643 4.864 0.033l8.879-8.89c1.61-1.61 1.599-3.232-0.033-4.864l-8.824-8.824c-1.632-1.632-3.243-1.654-4.864-0.033l-8.89 8.879c-1.621 1.621-1.599 3.232 0.033 4.864zM11.332 19.505v-2.901c0-2.206 1.048-3.265 3.265-3.265h3.132v-1.456c0-0.739 0.761-1.059 1.346-0.607l2.691 2.085c0.706 0.562 0.706 1.235 0 1.798l-2.691 2.096c-0.585 0.452-1.346 0.132-1.346-0.607v-1.467h-3.11c-0.971 0-1.456 0.485-1.456 1.511v2.813c0 0.651-0.342 1.015-0.915 1.026-0.596 0.011-0.915-0.375-0.915-1.026z"></path>
</svg>
