<!-- Generated by IcoMoon.io -->
<svg version="1.1" xmlns="http://www.w3.org/2000/svg" width="32" height="32" viewBox="0 0 32 32">
<title>arrow-clockwise-circle-fill</title>
<path d="M15.956 27.217c6.154 0 11.25-5.096 11.25-11.25 0-6.143-5.107-11.25-11.261-11.25-6.143 0-11.239 5.107-11.239 11.25 0 6.154 5.107 11.25 11.25 11.25zM10.882 16.485c0-2.79 2.294-4.974 4.853-4.974 0.099 0 0.221 0.011 0.309 0.022l-0.794-0.816c-0.121-0.132-0.21-0.331-0.21-0.529 0-0.408 0.309-0.728 0.728-0.728 0.198 0 0.397 0.088 0.518 0.232l2.184 2.217c0.265 0.287 0.287 0.783 0 1.059l-2.206 2.206c-0.121 0.121-0.309 0.221-0.496 0.221-0.408 0-0.728-0.32-0.728-0.728 0-0.198 0.088-0.386 0.221-0.518l1.103-1.092c-0.11-0.022-0.265-0.033-0.408-0.033-1.941 0-3.496 1.566-3.496 3.507 0 1.952 1.555 3.518 3.496 3.518s3.496-1.566 3.496-3.518c0-0.43 0.364-0.783 0.794-0.783 0.419 0 0.783 0.353 0.783 0.783 0 2.802-2.261 5.085-5.074 5.085s-5.073-2.283-5.073-5.129z"></path>
</svg>
