<!-- Generated by IcoMoon.io -->
<svg version="1.1" xmlns="http://www.w3.org/2000/svg" width="32" height="32" viewBox="0 0 32 32">
<title>arrow-down-forward-square</title>
<path d="M9.11 25.974h13.379c2.316 0 3.463-1.147 3.463-3.419v-13.467c0-2.272-1.147-3.419-3.463-3.419h-13.379c-2.305 0-3.463 1.136-3.463 3.419v13.467c0 2.283 1.158 3.419 3.463 3.419zM9.132 24.198c-1.103 0-1.71-0.585-1.71-1.732v-13.29c0-1.147 0.607-1.732 1.71-1.732h13.335c1.092 0 1.71 0.585 1.71 1.732v13.29c0 1.147-0.618 1.732-1.71 1.732h-13.335zM19.257 13.070c-0.485 0-0.805 0.331-0.805 0.86v1.908l0.165 1.721-1.588-1.698-4.059-4.059c-0.154-0.154-0.364-0.254-0.629-0.254-0.485 0-0.805 0.32-0.805 0.816 0 0.221 0.099 0.441 0.254 0.596l4.070 4.059 1.721 1.61-1.632-0.176h-2.007c-0.529 0-0.871 0.32-0.871 0.805s0.331 0.805 0.849 0.805h5.228c0.562 0 0.926-0.254 0.926-0.904v-5.206c0-0.518-0.331-0.882-0.816-0.882z"></path>
</svg>
