<!-- Generated by IcoMoon.io -->
<svg version="1.1" xmlns="http://www.w3.org/2000/svg" width="32" height="32" viewBox="0 0 32 32">
<title>arrowshape-turn-up-backward-2-fill</title>
<path d="M17.198 25.875c0.75 0 1.29-0.552 1.29-1.29v-4.213h0.32c4.279 0 6.971 1.081 8.901 4.688 0.386 0.706 0.893 0.816 1.357 0.816 0.585 0 1.136-0.529 1.136-1.478 0-8.151-3.463-13.235-11.393-13.235h-0.32v-4.169c0-0.739-0.54-1.346-1.312-1.346-0.54 0-0.904 0.232-1.489 0.783l-8.702 8.14c-0.408 0.375-0.563 0.794-0.563 1.191 0 0.375 0.154 0.805 0.563 1.18l8.702 8.217c0.529 0.496 0.971 0.717 1.511 0.717zM11.717 25.886c0.75 0 1.29-0.452 1.29-0.96v-0.375l-7.081-6.54c-0.673-0.618-1.070-1.401-1.070-2.239s0.375-1.621 1.070-2.25l7.081-6.485v-0.375c0-0.529-0.54-1.004-1.312-1.004-0.54 0-0.904 0.232-1.489 0.783l-8.713 8.14c-0.419 0.408-0.551 0.816-0.551 1.191 0 0.364 0.132 0.783 0.551 1.18l8.713 8.217c0.518 0.496 0.971 0.717 1.511 0.717z"></path>
</svg>
