<!-- Generated by IcoMoon.io -->
<svg version="1.1" xmlns="http://www.w3.org/2000/svg" width="32" height="32" viewBox="0 0 32 32">
<title>arrowtriangle-right-and-line-vertical-and-arrowtriangle-left-fill</title>
<path d="M3.158 22.673l8.36-5.118c1.081-0.673 1.114-1.919 0-2.592l-8.36-5.118c-1.136-0.695-2.217-0.165-2.217 1.147v10.522c0 1.346 1.103 1.842 2.217 1.158zM15.996 27.79c0.43 0 0.816-0.342 0.816-0.772v-21.529c0-0.43-0.386-0.761-0.816-0.761s-0.805 0.331-0.805 0.761v21.529c0 0.43 0.375 0.772 0.805 0.772zM28.835 22.673c1.125 0.684 2.228 0.188 2.228-1.158v-10.522c0-1.312-1.081-1.842-2.228-1.147l-8.36 5.118c-1.103 0.673-1.081 1.919 0 2.592l8.36 5.118z"></path>
</svg>
