<!-- Generated by IcoMoon.io -->
<svg version="1.1" xmlns="http://www.w3.org/2000/svg" width="32" height="32" viewBox="0 0 32 32">
<title>arrow-down-heart</title>
<path d="M16.419 13.39c0-0.452-0.397-0.827-0.849-0.827s-0.838 0.375-0.838 0.827v3.993l0.066 1.798-0.938-0.971-0.971-0.982c-0.143-0.165-0.375-0.254-0.585-0.254-0.452 0-0.772 0.32-0.772 0.761 0 0.254 0.099 0.441 0.276 0.596l3.143 2.89c0.232 0.221 0.408 0.287 0.618 0.287s0.386-0.066 0.618-0.287l3.143-2.89c0.176-0.154 0.276-0.342 0.276-0.596 0-0.441-0.331-0.761-0.772-0.761-0.221 0-0.43 0.088-0.585 0.254l-0.971 0.982-0.938 0.971 0.077-1.798v-3.993zM4.706 12.982c0 4.699 3.937 9.32 10.158 13.29 0.232 0.143 0.573 0.298 0.794 0.298 0.232 0 0.563-0.154 0.805-0.298 6.221-3.971 10.158-8.592 10.158-13.29 0-3.904-2.68-6.662-6.265-6.662-2.040 0-3.695 0.971-4.699 2.46-0.982-1.478-2.647-2.46-4.699-2.46-3.574 0-6.254 2.757-6.254 6.662zM6.482 12.982c0-2.934 1.897-4.886 4.456-4.886 2.085 0 3.265 1.29 3.982 2.393 0.298 0.441 0.485 0.563 0.739 0.563 0.265 0 0.43-0.132 0.75-0.563 0.761-1.081 1.908-2.393 3.971-2.393 2.57 0 4.467 1.952 4.467 4.886 0 4.103-4.334 8.526-8.956 11.592-0.11 0.077-0.187 0.132-0.232 0.132-0.033 0-0.11-0.055-0.221-0.132-4.621-3.066-8.956-7.489-8.956-11.592z"></path>
</svg>
