<!-- Generated by IcoMoon.io -->
<svg version="1.1" xmlns="http://www.w3.org/2000/svg" width="32" height="32" viewBox="0 0 32 32">
<title>arrow-down-square-fill</title>
<path d="M9.11 25.974h13.379c2.316 0 3.463-1.147 3.463-3.419v-13.467c0-2.272-1.147-3.419-3.463-3.419h-13.379c-2.305 0-3.463 1.136-3.463 3.419v13.467c0 2.283 1.158 3.419 3.463 3.419zM15.816 10.015c0.507 0 0.86 0.353 0.86 0.86v5.658l-0.099 2.426 1.158-1.379 1.334-1.357c0.154-0.176 0.364-0.254 0.607-0.254 0.474 0 0.838 0.353 0.838 0.827 0 0.243-0.077 0.441-0.243 0.596l-3.783 3.772c-0.221 0.221-0.408 0.331-0.673 0.331-0.243 0-0.43-0.099-0.662-0.331l-3.794-3.772c-0.154-0.154-0.221-0.353-0.221-0.596 0-0.474 0.353-0.827 0.827-0.827 0.243 0 0.452 0.088 0.607 0.254l1.346 1.357 1.136 1.368-0.099-2.415v-5.658c0-0.507 0.364-0.86 0.86-0.86z"></path>
</svg>
