<!-- Generated by IcoMoon.io -->
<svg version="1.1" xmlns="http://www.w3.org/2000/svg" width="32" height="32" viewBox="0 0 32 32">
<title>arrow-triangle-2-circlepath</title>
<path d="M3.046 15.989c-0.43 0.607-0.232 1.147 0.563 1.147h1.522c0.596 5.614 5.437 10.070 11.184 10.070 3.364 0 6.408-1.533 8.482-3.915 0.408-0.474 0.353-1.070-0.077-1.379s-0.96-0.198-1.312 0.21c-1.71 1.974-4.246 3.21-7.092 3.21-4.809 0-8.724-3.563-9.287-8.195h1.643c0.783 0 0.982-0.54 0.563-1.136l-2.471-3.518c-0.353-0.507-0.882-0.518-1.246 0l-2.471 3.507zM7.843 8.621c-0.419 0.474-0.364 1.059 0.077 1.368 0.43 0.309 0.949 0.21 1.313-0.199 1.721-1.963 4.257-3.21 7.081-3.21 4.798 0 8.713 3.562 9.287 8.206h-1.643c-0.783 0-0.982 0.529-0.563 1.136l2.471 3.518c0.353 0.507 0.882 0.518 1.246 0l2.459-3.507c0.441-0.618 0.232-1.147-0.562-1.147h-1.511c-0.607-5.614-5.437-10.081-11.184-10.081-3.364 0-6.397 1.522-8.471 3.915z"></path>
</svg>
