<!-- Generated by IcoMoon.io -->
<svg version="1.1" xmlns="http://www.w3.org/2000/svg" width="32" height="32" viewBox="0 0 32 32">
<title>arrow-2-squarepath</title>
<path d="M2.147 13.312c0.386 0.386 0.904 0.342 1.279-0.022l1.059-1.048 1.632-1.732v12.044c0 2.283 1.169 3.419 3.463 3.419h8.978c0.629 0 0.993-0.32 0.982-0.882-0.011-0.574-0.353-0.893-0.982-0.893h-8.945c-1.103 0-1.721-0.585-1.721-1.732v-11.978l1.643 1.754 1.059 1.048c0.375 0.364 0.904 0.408 1.279 0.022 0.375-0.364 0.353-0.904-0.022-1.279l-3.717-3.706c-0.717-0.706-1.522-0.706-2.239 0l-3.717 3.706c-0.386 0.375-0.397 0.915-0.033 1.279zM11.533 6.551c0.011 0.563 0.353 0.893 0.982 0.893h8.956c1.103 0 1.71 0.585 1.71 1.732v11.978l-1.643-1.765-1.059-1.037c-0.375-0.364-0.893-0.408-1.279-0.033-0.375 0.375-0.353 0.915 0.022 1.29l3.717 3.695c0.728 0.717 1.522 0.717 2.25 0l3.706-3.695c0.386-0.375 0.397-0.915 0.033-1.29-0.375-0.375-0.904-0.342-1.279 0.033l-1.059 1.037-1.632 1.743v-12.044c0-2.283-1.158-3.419-3.463-3.419h-8.978c-0.629 0-0.993 0.32-0.982 0.882z"></path>
</svg>
