<!-- Generated by IcoMoon.io -->
<svg version="1.1" xmlns="http://www.w3.org/2000/svg" width="32" height="32" viewBox="0 0 32 32">
<title>arrow-up-and-person-rectangle-portrait</title>
<path d="M2.148 13.724c-0.551 0.618-0.199 1.456 0.629 1.456h1.875v4.831c0 0.485 0.375 0.86 0.871 0.86 0.474 0 0.849-0.375 0.849-0.86v-4.831h1.853c0.871 0 1.169-0.871 0.64-1.456l-2.735-3.088c-0.364-0.419-0.882-0.419-1.257 0l-2.724 3.088zM11.501 23.96c0 2.305 1.147 3.452 3.419 3.452h11.713c2.283 0 3.419-1.147 3.419-3.452v-16.732c0-2.294-1.136-3.463-3.419-3.463h-11.713c-2.272 0-3.419 1.169-3.419 3.463v16.732zM13.277 23.927v-16.665c0-1.103 0.596-1.721 1.743-1.721h11.526c1.147 0 1.732 0.618 1.732 1.721v16.665c0 1.103-0.585 1.71-1.732 1.71h-11.526c-1.147 0-1.743-0.607-1.743-1.71zM15.737 21.18h10.081c0.441 0 0.651-0.287 0.651-0.695 0-1.202-1.82-4.334-5.691-4.334s-5.691 3.132-5.691 4.334c0 0.408 0.221 0.695 0.651 0.695zM20.777 15.246c1.577 0.011 2.835-1.323 2.835-3.088 0-1.654-1.257-3.033-2.835-3.033-1.566 0-2.824 1.379-2.824 3.033 0 1.765 1.257 3.077 2.824 3.088z"></path>
</svg>
