<!-- Generated by IcoMoon.io -->
<svg version="1.1" xmlns="http://www.w3.org/2000/svg" width="32" height="32" viewBox="0 0 32 32">
<title>arrow-down-forward</title>
<path d="M23.82 11.688c0-0.607-0.474-1.048-1.004-1.048-0.54 0-0.993 0.474-0.993 1.004v4.070l0.198 5.151-1.82-2.051-10.952-10.952c-0.199-0.199-0.441-0.298-0.695-0.298-0.551 0-1.026 0.507-1.026 1.037 0 0.232 0.11 0.496 0.309 0.695l10.93 10.941 2.051 1.809-5.382-0.176h-3.838c-0.518 0-0.993 0.452-0.993 0.982s0.419 0.993 1.037 0.993h11.096c0.662 0 1.070-0.43 1.070-1.059l0.011-11.096z"></path>
</svg>
