<!-- Generated by IcoMoon.io -->
<svg version="1.1" xmlns="http://www.w3.org/2000/svg" width="32" height="32" viewBox="0 0 32 32">
<title>arrowshape-turn-up-backward-circle-fill</title>
<path d="M15.956 27.217c6.154 0 11.25-5.096 11.25-11.25 0-6.143-5.107-11.25-11.261-11.25-6.143 0-11.239 5.107-11.239 11.25 0 6.154 5.107 11.25 11.25 11.25zM14.908 20.875c-0.298 0-0.529-0.132-0.816-0.397l-4.842-4.544c-0.232-0.221-0.309-0.441-0.309-0.662 0-0.21 0.077-0.43 0.309-0.651l4.842-4.511c0.32-0.309 0.507-0.43 0.805-0.43 0.43 0 0.739 0.331 0.739 0.739v2.316h0.176c4.379 0 6.309 2.801 6.309 7.335 0 0.529-0.32 0.805-0.64 0.805-0.265 0-0.54-0.066-0.75-0.452-1.059-1.996-2.559-2.603-4.919-2.603h-0.176v2.349c0 0.397-0.309 0.706-0.728 0.706z"></path>
</svg>
