<!-- Generated by IcoMoon.io -->
<svg version="1.1" xmlns="http://www.w3.org/2000/svg" width="32" height="32" viewBox="0 0 32 32">
<title>arrowtriangle-right-and-line-vertical-and-arrowtriangle-left</title>
<path d="M11.518 17.555c1.081-0.673 1.114-1.919 0-2.592l-8.36-5.118c-1.059-0.651-2.217-0.165-2.217 1.147v10.522c0 1.346 1.18 1.798 2.217 1.158l8.36-5.118zM10.338 16.485l-7.401 4.588c-0.132 0.077-0.397 0.088-0.397-0.187v-9.254c0-0.298 0.287-0.265 0.397-0.187l7.39 4.577c0.276 0.176 0.176 0.364 0.011 0.463zM15.996 27.79c0.43 0 0.816-0.342 0.816-0.772v-21.529c0-0.43-0.386-0.761-0.816-0.761s-0.805 0.331-0.805 0.761v21.529c0 0.43 0.375 0.772 0.805 0.772zM28.835 22.673c1.048 0.64 2.228 0.188 2.228-1.158v-10.522c0-1.312-1.158-1.798-2.228-1.147l-8.36 5.118c-1.103 0.673-1.081 1.919 0 2.592l8.36 5.118zM29.055 21.073l-7.39-4.588c-0.176-0.099-0.265-0.287 0-0.463l7.39-4.577c0.121-0.077 0.397-0.11 0.397 0.187v9.254c0 0.276-0.254 0.265-0.397 0.187z"></path>
</svg>
