<!-- Generated by IcoMoon.io -->
<svg version="1.1" xmlns="http://www.w3.org/2000/svg" width="32" height="32" viewBox="0 0 32 32">
<title>arrow-down-backward-circle-fill</title>
<path d="M15.956 27.206c6.154 0 11.25-5.107 11.25-11.25 0-6.154-5.107-11.25-11.261-11.25-6.143 0-11.239 5.096-11.239 11.25 0 6.143 5.107 11.25 11.25 11.25zM12.382 13.132c0.507 0 0.838 0.342 0.838 0.893v1.952l-0.165 1.776 1.643-1.754 4.158-4.169c0.165-0.165 0.386-0.265 0.662-0.265 0.496 0 0.838 0.331 0.838 0.849 0 0.221-0.11 0.452-0.276 0.618l-4.18 4.158-1.776 1.666 1.688-0.176h2.051c0.551 0 0.904 0.331 0.904 0.827 0 0.507-0.342 0.838-0.882 0.838h-5.382c-0.585 0-0.96-0.265-0.96-0.938v-5.36c0-0.54 0.342-0.915 0.838-0.915z"></path>
</svg>
