<!-- Generated by IcoMoon.io -->
<svg version="1.1" xmlns="http://www.w3.org/2000/svg" width="32" height="32" viewBox="0 0 32 32">
<title>arrow-uturn-down-square</title>
<path d="M9.11 25.952h13.379c2.316 0 3.463-1.147 3.463-3.419v-13.467c0-2.272-1.147-3.419-3.463-3.419h-13.379c-2.305 0-3.463 1.136-3.463 3.419v13.467c0 2.283 1.158 3.419 3.463 3.419zM9.132 24.176c-1.103 0-1.71-0.585-1.71-1.732v-13.29c0-1.136 0.607-1.732 1.71-1.732h13.335c1.092 0 1.71 0.596 1.71 1.732v13.29c0 1.147-0.618 1.732-1.71 1.732h-13.335zM16.842 10.114c-2.647 0-4.257 1.908-4.257 4.489v3.287l0.033 1.312-0.684-0.871-1.103-1.147c-0.132-0.143-0.342-0.243-0.574-0.243-0.452 0-0.805 0.342-0.805 0.794 0 0.232 0.077 0.408 0.243 0.562l2.978 2.934c0.188 0.176 0.419 0.287 0.673 0.287 0.265 0 0.485-0.11 0.673-0.287l3-2.945c0.154-0.154 0.232-0.331 0.232-0.563 0-0.441-0.342-0.783-0.805-0.783-0.21 0-0.419 0.077-0.563 0.232l-1.323 1.39-0.485 0.64 0.055-1.312v-3.287c0-1.621 0.927-2.868 2.625-2.868 1.743 0 2.813 1.213 2.813 2.879 0 0.132 0 1.489 0 1.533 0 0.463 0.276 0.838 0.794 0.838 0.507 0 0.783-0.375 0.783-0.86 0-0.055 0-1.379 0-1.511 0-2.581-1.654-4.5-4.301-4.5z"></path>
</svg>
