<!-- Generated by IcoMoon.io -->
<svg version="1.1" xmlns="http://www.w3.org/2000/svg" width="32" height="32" viewBox="0 0 32 32">
<title>arrow-turn-right-up</title>
<path d="M9.857 26.482c5.107 0 7.511-2.029 7.511-7.158v-7.643l-0.088-2.989 2.195 2.415 3.618 3.618c0.176 0.176 0.441 0.265 0.695 0.265 0.552 0 0.96-0.419 0.96-0.96 0-0.265-0.099-0.496-0.309-0.717l-7.323-7.335c-0.21-0.221-0.463-0.331-0.739-0.331-0.265 0-0.518 0.11-0.728 0.331l-7.324 7.335c-0.21 0.221-0.309 0.452-0.309 0.717 0 0.541 0.408 0.96 0.949 0.96 0.265 0 0.529-0.088 0.706-0.265l3.607-3.618 2.217-2.427-0.099 3 0.011 7.544c0.011 3.993-1.721 5.327-5.647 5.327-0.507 0-0.871-0.022-1.246-0.022-0.574 0-0.982 0.364-0.982 0.938 0 0.562 0.386 0.838 0.827 0.938 0.331 0.066 0.871 0.077 1.5 0.077z"></path>
</svg>
