<!-- Generated by IcoMoon.io -->
<svg version="1.1" xmlns="http://www.w3.org/2000/svg" width="32" height="32" viewBox="0 0 32 32">
<title>arrow-uturn-left</title>
<path d="M26.493 20.467c0-4.213-2.857-7.125-7.886-7.125h-7.412l-3.419 0.154 0.199 0.507 2.724-2.327 3.187-3.11c0.165-0.176 0.265-0.386 0.265-0.673 0-0.574-0.386-0.971-0.982-0.971-0.232 0-0.518 0.121-0.706 0.309l-6.485 6.364c-0.221 0.21-0.331 0.463-0.331 0.739 0 0.265 0.11 0.518 0.331 0.728l6.485 6.364c0.187 0.199 0.474 0.309 0.706 0.309 0.596 0 0.982-0.397 0.982-0.971 0-0.287-0.099-0.496-0.265-0.673l-3.187-3.099-2.724-2.338-0.199 0.507 3.419 0.154h7.577c3.761 0 5.746 2.074 5.746 5.040 0 2.978-1.985 5.184-5.746 5.184h-2.537c-0.607 0-1.004 0.441-1.004 0.982s0.397 0.982 1.004 0.982h2.548c4.93 0 7.71-2.813 7.71-7.037z"></path>
</svg>
