<!-- Generated by IcoMoon.io -->
<svg version="1.1" xmlns="http://www.w3.org/2000/svg" width="32" height="32" viewBox="0 0 32 32">
<title>arrow-uturn-right-square</title>
<path d="M9.11 25.952h13.379c2.316 0 3.463-1.147 3.463-3.419v-13.467c0-2.272-1.147-3.419-3.463-3.419h-13.379c-2.305 0-3.463 1.136-3.463 3.419v13.467c0 2.283 1.158 3.419 3.463 3.419zM9.132 24.176c-1.103 0-1.71-0.585-1.71-1.732v-13.29c0-1.136 0.607-1.732 1.71-1.732h13.335c1.092 0 1.71 0.596 1.71 1.732v13.29c0 1.147-0.618 1.732-1.71 1.732h-13.335zM10.103 17.129c0 2.658 1.919 4.301 4.489 4.301 0.132 0 1.456 0 1.511 0 0.496 0 0.86-0.276 0.86-0.783s-0.364-0.794-0.838-0.794c-0.044 0-1.401 0-1.533 0-1.665 0-2.868-1.070-2.868-2.813 0-1.699 1.235-2.625 2.857-2.625h3.298l1.301-0.044-0.64 0.474-1.379 1.324c-0.165 0.143-0.243 0.364-0.243 0.574 0 0.452 0.342 0.805 0.783 0.805 0.232 0 0.408-0.077 0.562-0.232l2.945-3.011c0.187-0.187 0.298-0.408 0.298-0.662 0-0.265-0.11-0.496-0.298-0.684l-2.934-2.967c-0.154-0.165-0.331-0.243-0.563-0.243-0.452 0-0.794 0.342-0.794 0.805 0 0.221 0.099 0.43 0.254 0.563l1.136 1.103 0.871 0.695-1.301-0.044h-3.298c-2.57 0-4.478 1.61-4.478 4.257z"></path>
</svg>
