<!-- Generated by IcoMoon.io -->
<svg version="1.1" xmlns="http://www.w3.org/2000/svg" width="32" height="32" viewBox="0 0 32 32">
<title>arrow-up-and-down-righttriangle-up-righttriangle-down-fill</title>
<path d="M27.584 27.121v-8.757c0-1.312-0.596-1.908-1.908-1.908h-13.18c-0.971 0-1.489 0.728-1.489 1.511 0 0.529 0.243 1.037 0.761 1.39l13.18 9.088c0.353 0.254 0.761 0.353 1.147 0.353 0.794 0 1.489-0.529 1.489-1.677zM25.676 15.176c1.313 0 1.908-0.596 1.908-1.908v-8.757c0-1.147-0.695-1.676-1.489-1.676-0.386 0-0.794 0.099-1.147 0.342l-13.18 9.099c-0.518 0.353-0.761 0.86-0.761 1.39 0 0.783 0.518 1.511 1.489 1.511h13.18zM8.304 27.088l2.195-2.956c0.463-0.607 0.187-1.346-0.562-1.346h-1.588v-13.941h1.588c0.75 0 1.026-0.739 0.562-1.346l-2.195-2.956c-0.298-0.408-0.86-0.408-1.158 0l-2.217 2.956c-0.441 0.585-0.199 1.346 0.585 1.346h1.555v13.941h-1.555c-0.761 0-1.048 0.739-0.585 1.346l2.217 2.956c0.298 0.397 0.871 0.397 1.158 0z"></path>
</svg>
