<!-- Generated by IcoMoon.io -->
<svg version="1.1" xmlns="http://www.w3.org/2000/svg" width="32" height="32" viewBox="0 0 32 32">
<title>arrowtriangle-backward</title>
<path d="M23.254 7.54c-0.441 0-0.794 0.188-1.257 0.419l-14.173 6.882c-0.938 0.463-1.235 0.882-1.235 1.467s0.298 1.015 1.235 1.478l14.173 6.871c0.474 0.232 0.827 0.419 1.268 0.419 0.816 0 1.312-0.618 1.312-1.577v-14.382c0-0.96-0.507-1.577-1.324-1.577zM22.691 9.636c0.066 0 0.11 0.055 0.11 0.132l0.011 13.081c0 0.088-0.044 0.132-0.11 0.132-0.044 0-0.088-0.022-0.132-0.044l-13.511-6.507c-0.055-0.022-0.099-0.066-0.099-0.121s0.044-0.099 0.099-0.121l13.5-6.496c0.044-0.033 0.088-0.055 0.132-0.055z"></path>
</svg>
