<!-- Generated by IcoMoon.io -->
<svg version="1.1" xmlns="http://www.w3.org/2000/svg" width="32" height="32" viewBox="0 0 32 32">
<title>arrow-uturn-up-square-fill</title>
<path d="M9.11 25.952h13.379c2.316 0 3.463-1.147 3.463-3.419v-13.467c0-2.272-1.147-3.419-3.463-3.419h-13.379c-2.305 0-3.463 1.136-3.463 3.419v13.467c0 2.283 1.158 3.419 3.463 3.419zM14.647 21.287c-2.625 0-4.357-1.787-4.357-4.456v-1.478c0-0.529 0.331-0.882 0.827-0.882 0.485 0 0.816 0.342 0.816 0.86v1.5c0 1.677 1.092 2.813 2.713 2.813 1.511 0 2.515-1.114 2.515-2.802v-3.221l0.055-1.125-0.375 0.518-1.29 1.335c-0.154 0.165-0.364 0.254-0.607 0.254-0.474 0-0.838-0.353-0.838-0.805 0-0.254 0.077-0.452 0.243-0.607l2.945-2.89c0.21-0.21 0.452-0.298 0.706-0.298 0.243 0 0.485 0.099 0.695 0.298l2.923 2.879c0.165 0.165 0.254 0.353 0.254 0.607 0 0.463-0.375 0.816-0.849 0.816-0.232 0-0.441-0.088-0.596-0.254l-1.081-1.114-0.585-0.75 0.044 1.136v3.221c0 2.669-1.654 4.445-4.158 4.445z"></path>
</svg>
