<!-- Generated by IcoMoon.io -->
<svg version="1.1" xmlns="http://www.w3.org/2000/svg" width="32" height="32" viewBox="0 0 32 32">
<title>arrow-triangle-turn-up-right-circle</title>
<path d="M15.956 27.206c6.154 0 11.25-5.107 11.25-11.25 0-6.154-5.107-11.25-11.261-11.25-6.143 0-11.239 5.096-11.239 11.25 0 6.143 5.107 11.25 11.25 11.25zM15.956 25.331c-5.206 0-9.364-4.169-9.364-9.375s4.147-9.375 9.353-9.375c5.206 0 9.386 4.169 9.386 9.375s-4.169 9.375-9.375 9.375zM11.158 19.43c0 0.629 0.32 1.004 0.882 0.993s0.882-0.364 0.882-0.993v-3.066c0-1.004 0.485-1.467 1.434-1.467h2.879v1.732c0 0.717 0.805 1.048 1.412 0.529l2.625-2.283c0.662-0.574 0.662-1.158 0-1.732l-2.625-2.272c-0.607-0.529-1.412-0.187-1.412 0.518v1.732h-2.912c-2.14 0-3.165 1.026-3.165 3.154v3.154z"></path>
</svg>
