<!-- Generated by IcoMoon.io -->
<svg version="1.1" xmlns="http://www.w3.org/2000/svg" width="32" height="32" viewBox="0 0 32 32">
<title>arrowshape-zigzag-right-fill</title>
<path d="M19.048 25.886c0.54 0 0.982-0.221 1.511-0.717l8.702-8.217c0.43-0.397 0.563-0.816 0.563-1.18 0-0.375-0.132-0.794-0.563-1.191l-8.702-8.14c-0.585-0.551-0.949-0.794-1.489-0.794-0.772 0-1.312 0.618-1.312 1.357v4.279h-7.158c-1.908 0-2.724 0.794-2.724 2.669v2.305h-2.327c-1.908 0-2.724 0.783-2.724 2.658v4.235c0 1.875 0.816 2.669 2.724 2.669h6.651c1.908 0 2.724-0.794 2.724-2.669v-2.515h2.835v3.96c0 0.739 0.54 1.29 1.29 1.29zM13.665 23.25l-4.456-1.864c-1.081-0.452-1.478-0.927-1.533-1.798-0.011-0.221 0.221-0.265 0.32-0.055 0.331 0.728 1.081 1.103 2.184 1.103h3.629v2.548c0 0.066-0.077 0.099-0.143 0.066z"></path>
</svg>
