<!-- Generated by IcoMoon.io -->
<svg version="1.1" xmlns="http://www.w3.org/2000/svg" width="32" height="32" viewBox="0 0 32 32">
<title>arrow-up-and-down-circle-fill</title>
<path d="M15.956 27.206c6.154 0 11.25-5.107 11.25-11.25 0-6.154-5.107-11.25-11.261-11.25-6.143 0-11.239 5.096-11.239 11.25 0 6.143 5.107 11.25 11.25 11.25zM15.978 8.875c0.243 0 0.43 0.11 0.662 0.331l3.298 3.276c0.154 0.143 0.232 0.353 0.232 0.596 0 0.463-0.353 0.816-0.827 0.816-0.254 0-0.452-0.099-0.607-0.243l-0.849-0.86-1.147-1.368 0.099 2.404v4.257l-0.099 2.404 1.147-1.368 0.849-0.86c0.154-0.154 0.353-0.243 0.607-0.243 0.474 0 0.827 0.353 0.827 0.816 0 0.232-0.077 0.452-0.232 0.596l-3.298 3.276c-0.232 0.221-0.419 0.331-0.662 0.331-0.254 0-0.452-0.11-0.673-0.331l-3.287-3.276c-0.154-0.143-0.243-0.364-0.243-0.596 0-0.463 0.364-0.816 0.838-0.816 0.254 0 0.452 0.077 0.607 0.243l0.838 0.86 1.158 1.379-0.099-2.415v-4.257l0.099-2.415-1.158 1.379-0.838 0.86c-0.154 0.154-0.353 0.243-0.607 0.243-0.474 0-0.838-0.353-0.838-0.816 0-0.243 0.088-0.452 0.243-0.596l3.287-3.276c0.221-0.221 0.419-0.331 0.673-0.331z"></path>
</svg>
