<!-- Generated by IcoMoon.io -->
<svg version="1.1" xmlns="http://www.w3.org/2000/svg" width="32" height="32" viewBox="0 0 32 32">
<title>arrowshape-turn-up-forward-circle</title>
<path d="M15.956 27.206c6.154 0 11.25-5.107 11.25-11.25 0-6.154-5.107-11.25-11.261-11.25-6.143 0-11.239 5.096-11.239 11.25 0 6.143 5.107 11.25 11.25 11.25zM15.956 25.331c-5.206 0-9.364-4.169-9.364-9.375s4.147-9.375 9.353-9.375c5.206 0 9.386 4.169 9.386 9.375s-4.169 9.375-9.375 9.375zM10.463 20.699c0.254 0 0.529-0.066 0.728-0.441 1.037-1.941 2.482-2.526 4.787-2.526h0.176v2.272c0 0.397 0.287 0.695 0.684 0.695 0.298 0 0.529-0.132 0.805-0.386l4.688-4.412c0.232-0.21 0.309-0.441 0.309-0.64s-0.077-0.43-0.309-0.64l-4.688-4.379c-0.309-0.287-0.496-0.419-0.794-0.419-0.408 0-0.695 0.331-0.695 0.728v2.25h-0.176c-4.246 0-6.121 2.713-6.121 7.103 0 0.518 0.298 0.794 0.607 0.794z"></path>
</svg>
