<!-- Generated by IcoMoon.io -->
<svg version="1.1" xmlns="http://www.w3.org/2000/svg" width="32" height="32" viewBox="0 0 32 32">
<title>arrow-up-and-line-horizontal-and-arrow-down</title>
<path d="M15.938 13.831c0.574 0 0.982-0.397 0.982-0.982v-4.654l-0.066-2.283 2.923 3.121c0.187 0.21 0.441 0.276 0.706 0.276 0.552 0 0.96-0.419 0.96-0.96 0-0.276-0.11-0.507-0.331-0.739l-4.434-4.456c-0.21-0.221-0.474-0.331-0.739-0.331-0.276 0-0.529 0.11-0.739 0.331l-4.434 4.456c-0.221 0.232-0.331 0.463-0.331 0.739 0 0.54 0.408 0.96 0.96 0.96 0.265 0 0.518-0.066 0.706-0.276l2.923-3.121-0.077 2.283v4.654c0 0.585 0.419 0.982 0.993 0.982zM5.647 15.96c0 0.574 0.397 0.982 0.971 0.982h18.64c0.563 0 0.96-0.408 0.96-0.982s-0.397-0.993-0.96-0.993h-18.64c-0.574 0-0.971 0.419-0.971 0.993zM15.938 18.077c-0.574 0-0.993 0.397-0.993 0.982v4.665l0.077 2.272-2.923-3.121c-0.188-0.198-0.441-0.276-0.706-0.276-0.552 0-0.96 0.419-0.96 0.96 0 0.276 0.11 0.518 0.331 0.75l4.434 4.445c0.21 0.221 0.463 0.342 0.739 0.342 0.265 0 0.529-0.121 0.739-0.342l4.434-4.445c0.221-0.232 0.331-0.474 0.331-0.75 0-0.54-0.408-0.96-0.96-0.96-0.265 0-0.518 0.077-0.706 0.276l-2.923 3.121 0.066-2.272v-4.665c0-0.585-0.408-0.982-0.982-0.982z"></path>
</svg>
