<!-- Generated by IcoMoon.io -->
<svg version="1.1" xmlns="http://www.w3.org/2000/svg" width="32" height="32" viewBox="0 0 32 32">
<title>arrow-uturn-left-circle</title>
<path d="M15.956 27.206c6.154 0 11.25-5.107 11.25-11.25 0-6.154-5.107-11.25-11.261-11.25-6.143 0-11.239 5.096-11.239 11.25 0 6.143 5.107 11.25 11.25 11.25zM15.956 25.331c-5.206 0-9.364-4.169-9.364-9.375s4.147-9.375 9.353-9.375c5.206 0 9.386 4.169 9.386 9.375s-4.169 9.375-9.375 9.375zM21.647 17.301c0-2.647-1.919-4.257-4.489-4.257h-3.298l-1.301 0.033 0.871-0.684 1.136-1.103c0.154-0.132 0.254-0.342 0.254-0.574 0-0.452-0.342-0.794-0.794-0.794-0.232 0-0.408 0.066-0.562 0.232l-2.934 2.978c-0.176 0.187-0.298 0.419-0.298 0.673 0 0.265 0.121 0.485 0.298 0.673l2.945 3c0.154 0.154 0.331 0.232 0.563 0.232 0.441 0 0.783-0.342 0.783-0.805 0-0.198-0.077-0.419-0.243-0.562l-1.379-1.324-0.64-0.485 1.301 0.055h3.298c1.621 0 2.868 0.927 2.868 2.625 0 1.743-1.213 2.812-2.879 2.812-0.132 0-1.489 0-1.533 0-0.474 0-0.838 0.276-0.838 0.794 0 0.507 0.364 0.783 0.86 0.783 0.055 0 1.379 0 1.511 0 2.57 0 4.5-1.654 4.5-4.301z"></path>
</svg>
