<!-- Generated by IcoMoon.io -->
<svg version="1.1" xmlns="http://www.w3.org/2000/svg" width="32" height="32" viewBox="0 0 32 32">
<title>arrow-uturn-down</title>
<path d="M19.191 5.647c-4.213 0-7.125 2.857-7.125 7.897v7.456l0.154 3.419 0.507-0.198-2.327-2.724-3.11-3.176c-0.165-0.176-0.386-0.276-0.673-0.276-0.574 0-0.971 0.397-0.971 0.982 0 0.243 0.121 0.529 0.309 0.717l6.364 6.485c0.21 0.221 0.463 0.32 0.739 0.32 0.265 0 0.518-0.099 0.728-0.32l6.364-6.485c0.198-0.188 0.309-0.474 0.309-0.717 0-0.584-0.397-0.982-0.971-0.982-0.287 0-0.496 0.099-0.673 0.276l-3.099 3.176-2.338 2.724 0.507 0.198 0.154-3.419v-7.632c0-3.761 2.074-5.746 5.040-5.746 2.978 0 5.184 1.985 5.184 5.746v2.537c0 0.607 0.441 1.004 0.982 1.004s0.982-0.397 0.982-1.004v-2.537c0-4.941-2.813-7.721-7.037-7.721z"></path>
</svg>
