<!-- Generated by IcoMoon.io -->
<svg version="1.1" xmlns="http://www.w3.org/2000/svg" width="32" height="32" viewBox="0 0 32 32">
<title>arrow-backward-to-line-circle-fill</title>
<path d="M15.956 27.206c6.154 0 11.25-5.107 11.25-11.25 0-6.154-5.107-11.25-11.261-11.25-6.143 0-11.239 5.096-11.239 11.25 0 6.143 5.107 11.25 11.25 11.25zM11.18 20.974c-0.452 0-0.783-0.309-0.783-0.75v-8.548c0-0.441 0.331-0.75 0.783-0.75 0.43 0 0.75 0.309 0.75 0.75v8.548c0 0.441-0.32 0.75-0.75 0.75zM23.114 15.967c0 0.463-0.331 0.772-0.772 0.772h-5.206l-2.096-0.132 2.316 2.051 0.717 0.662c0.165 0.132 0.232 0.32 0.232 0.552 0 0.441-0.309 0.739-0.75 0.739-0.187 0-0.43-0.099-0.573-0.254l-3.915-3.816c-0.187-0.165-0.265-0.364-0.265-0.574 0-0.221 0.099-0.408 0.265-0.584l3.926-3.849c0.154-0.176 0.353-0.243 0.551-0.243 0.43 0 0.761 0.298 0.761 0.728 0 0.21-0.066 0.419-0.232 0.563l-0.706 0.695-2.316 2.051 2.085-0.121h5.206c0.441 0 0.772 0.32 0.772 0.761z"></path>
</svg>
