<!-- Generated by IcoMoon.io -->
<svg version="1.1" xmlns="http://www.w3.org/2000/svg" width="32" height="32" viewBox="0 0 32 32">
<title>arrow-triangle-2-circlepath-camera-fill</title>
<path d="M6.287 25.739h20.162c2.294 0 3.463-1.147 3.463-3.419v-11.548c0-2.272-1.169-3.408-3.463-3.408h-3.154c-0.871 0-1.136-0.176-1.632-0.728l-0.882-0.993c-0.551-0.607-1.114-0.938-2.25-0.938h-4.401c-1.136 0-1.699 0.331-2.25 0.938l-0.882 0.993c-0.496 0.54-0.772 0.728-1.632 0.728h-3.077c-2.305 0-3.463 1.136-3.463 3.408v11.548c0 2.272 1.158 3.419 3.463 3.419zM8.713 16.011l1.765-2.482c0.32-0.441 0.827-0.408 1.114 0l1.798 2.482c0.287 0.397 0.165 0.882-0.353 0.882h-1.158c0.496 1.963 2.316 3.441 4.511 3.441 1.070 0 1.864-0.342 2.658-0.971 0.441-0.32 0.938-0.386 1.323 0.033 0.397 0.408 0.265 0.993-0.265 1.401-0.96 0.794-2.338 1.268-3.717 1.268-3.143 0-5.625-2.107-6.165-5.173h-1.169c-0.518 0-0.618-0.485-0.342-0.882zM12.386 12.382c-0.397-0.408-0.265-0.982 0.265-1.39 0.96-0.794 2.338-1.279 3.717-1.279 3.143 0 5.625 2.107 6.165 5.173h1.103c0.518 0 0.618 0.485 0.342 0.882l-1.765 2.493c-0.32 0.441-0.827 0.408-1.125 0l-1.787-2.493c-0.287-0.386-0.165-0.882 0.342-0.882h1.235c-0.496-1.952-2.316-3.43-4.511-3.43-1.070 0-1.875 0.32-2.658 0.96-0.441 0.331-0.927 0.386-1.323-0.033z"></path>
</svg>
