<!-- Generated by IcoMoon.io -->
<svg version="1.1" xmlns="http://www.w3.org/2000/svg" width="32" height="32" viewBox="0 0 32 32">
<title>arrowtriangle-down</title>
<path d="M25.077 7.934c0-0.816-0.629-1.324-1.588-1.324l-14.382-0.011c-0.96 0-1.577 0.507-1.577 1.324 0 0.441 0.199 0.805 0.419 1.268l6.882 14.173c0.463 0.938 0.882 1.235 1.467 1.235s1.015-0.298 1.478-1.235l6.871-14.173c0.232-0.452 0.43-0.816 0.43-1.257zM22.971 8.496c0 0.044-0.022 0.088-0.044 0.143l-6.496 13.489c-0.033 0.055-0.066 0.099-0.132 0.099-0.055 0-0.088-0.044-0.121-0.099l-6.496-13.5c-0.022-0.055-0.044-0.099-0.044-0.143 0-0.066 0.033-0.11 0.121-0.11l13.081 0.011c0.088 0 0.132 0.044 0.132 0.11z"></path>
</svg>
