<!-- Generated by IcoMoon.io -->
<svg version="1.1" xmlns="http://www.w3.org/2000/svg" width="32" height="32" viewBox="0 0 32 32">
<title>arrow-triangle-branch</title>
<path d="M15.813 26.614c0.618 0 0.96-0.408 0.96-1.169v-6.331c0-2.647 2.934-6.485 5.647-8.217l0.882-0.574c0.309-0.187 0.474-0.529 0.474-0.86 0-0.54-0.375-0.915-0.938-0.915-0.276 0-0.573 0.099-0.838 0.276l-0.585 0.386c-2.68 1.787-5.25 5.173-5.592 6.882h-0.033c-0.342-1.721-2.901-5.096-5.581-6.882l-0.585-0.386c-0.276-0.176-0.563-0.276-0.849-0.276-0.563 0-0.926 0.408-0.926 0.904 0 0.331 0.165 0.684 0.474 0.871l0.882 0.574c2.702 1.732 5.647 5.57 5.647 8.217v6.331c0 0.761 0.342 1.169 0.96 1.169zM8.225 12.243l3.088-4.004c0.474-0.618 0.176-1.114-0.562-1.147l-4.29-0.188c-0.618-0.033-0.949 0.375-0.761 0.982l1.268 4.092c0.221 0.728 0.772 0.893 1.257 0.265zM23.269 12.232c0.463 0.64 1.026 0.496 1.257-0.221l1.39-4.059c0.198-0.596-0.121-1.015-0.728-1.004l-4.301 0.066c-0.739 0.011-1.048 0.496-0.596 1.125l2.978 4.092z"></path>
</svg>
