<!-- Generated by IcoMoon.io -->
<svg version="1.1" xmlns="http://www.w3.org/2000/svg" width="32" height="32" viewBox="0 0 32 32">
<title>arrow-down-doc-fill</title>
<path d="M15.864 15.974c0.441 0 0.816 0.353 0.816 0.783v3.904l-0.077 1.732 0.927-0.938 0.96-0.982c0.154-0.154 0.364-0.243 0.574-0.243 0.43 0 0.75 0.309 0.75 0.728 0 0.243-0.099 0.43-0.265 0.574l-3.088 2.846c-0.221 0.199-0.397 0.276-0.596 0.276s-0.375-0.077-0.596-0.276l-3.088-2.846c-0.165-0.143-0.265-0.331-0.265-0.574 0-0.419 0.309-0.728 0.75-0.728 0.199 0 0.419 0.088 0.574 0.243l0.96 0.982 0.927 0.938-0.066-1.732v-3.904c0-0.43 0.364-0.783 0.805-0.783zM10.007 27.412h11.713c2.283 0 3.419-1.158 3.419-3.452v-10.015h-7.985c-1.412 0-2.085-0.673-2.085-2.085v-8.096h-5.063c-2.272 0-3.419 1.169-3.419 3.463v16.732c0 2.305 1.136 3.452 3.419 3.452zM17.187 12.434h7.82c-0.066-0.452-0.386-0.893-0.915-1.434l-6.077-6.188c-0.518-0.529-0.971-0.849-1.434-0.926v7.952c0 0.397 0.198 0.596 0.607 0.596z"></path>
</svg>
