<!-- Generated by IcoMoon.io -->
<svg version="1.1" xmlns="http://www.w3.org/2000/svg" width="32" height="32" viewBox="0 0 32 32">
<title>arrow-left-to-line-compact</title>
<path d="M8.563 23.379v-14.879c0-0.574-0.408-0.971-0.993-0.971-0.574 0-0.982 0.397-0.982 0.971v14.879c0 0.563 0.408 0.949 0.982 0.949 0.585 0 0.993-0.386 0.993-0.949zM26.022 15.934c0-0.585-0.397-0.993-0.971-0.993h-11.14l-2.36 0.088 3.618-3.32 2.437-2.482c0.187-0.176 0.287-0.441 0.287-0.706 0-0.551-0.43-0.96-0.971-0.96-0.276 0-0.507 0.11-0.739 0.331l-7.313 7.29c-0.221 0.221-0.342 0.474-0.342 0.75 0 0.265 0.121 0.529 0.342 0.739l7.313 7.29c0.232 0.221 0.463 0.32 0.739 0.32 0.54 0 0.971-0.397 0.971-0.949 0-0.265-0.099-0.529-0.287-0.717l-2.437-2.471-3.629-3.309 2.371 0.077h11.14c0.574 0 0.971-0.408 0.971-0.982z"></path>
</svg>
