<!-- Generated by IcoMoon.io -->
<svg version="1.1" xmlns="http://www.w3.org/2000/svg" width="32" height="32" viewBox="0 0 32 32">
<title>arrow-counterclockwise-icloud</title>
<path d="M23.676 24.816c3.331 0 5.934-2.438 5.934-5.471 0-2.316-1.334-4.324-3.485-5.228 0.022-4.919-3.518-8.471-8.029-8.471-2.989 0-5.118 1.599-6.441 3.529-2.713-0.794-5.669 1.268-5.724 4.357-2.493 0.397-4.048 2.625-4.048 5.316 0 3.243 2.835 5.967 6.607 5.967h15.187zM23.676 23.040h-15.187c-2.779 0-4.831-1.941-4.831-4.191 0-2.206 1.335-3.96 3.673-3.96 0.154 0 0.21-0.077 0.21-0.221 0-3.397 2.449-4.401 4.71-3.662 0.132 0.044 0.21 0.011 0.276-0.11 1.070-1.908 2.713-3.474 5.57-3.474 3.618 0 6.121 2.868 6.309 6.143 0.033 0.507 0 1.103-0.044 1.621-0.011 0.143 0.044 0.221 0.176 0.254 2.007 0.441 3.298 1.908 3.298 3.904 0 2.051-1.809 3.695-4.158 3.695zM20.423 16.588c0-2.449-2.007-4.357-4.257-4.357-0.088 0-0.187 0.011-0.254 0.022l0.684-0.717c0.11-0.11 0.187-0.287 0.187-0.452 0-0.353-0.276-0.651-0.629-0.651-0.176 0-0.353 0.077-0.463 0.21l-1.908 1.941c-0.243 0.243-0.243 0.684 0 0.927l1.93 1.93c0.11 0.11 0.276 0.177 0.441 0.177 0.353 0 0.629-0.276 0.629-0.629 0-0.176-0.077-0.331-0.198-0.452l-0.96-0.949c0.099-0.022 0.232-0.033 0.353-0.033 1.71 0 3.077 1.368 3.077 3.066 0 1.71-1.368 3.088-3.077 3.088-1.699 0-3.066-1.379-3.066-3.088 0-0.364-0.309-0.673-0.684-0.673s-0.684 0.309-0.684 0.673c0 2.471 1.974 4.456 4.434 4.456 2.471 0 4.445-1.985 4.445-4.489z"></path>
</svg>
