<!-- Generated by IcoMoon.io -->
<svg version="1.1" xmlns="http://www.w3.org/2000/svg" width="32" height="32" viewBox="0 0 32 32">
<title>arrow-turn-left-up</title>
<path d="M22.408 26.482c0.64 0 1.169-0.011 1.511-0.077 0.43-0.099 0.827-0.375 0.827-0.938 0-0.574-0.419-0.938-0.982-0.938-0.386 0-0.739 0.022-1.257 0.022-3.915 0-5.658-1.334-5.647-5.327l0.011-7.544-0.088-3 2.206 2.427 3.618 3.618c0.176 0.176 0.43 0.265 0.695 0.265 0.552 0 0.949-0.419 0.949-0.96 0-0.265-0.088-0.496-0.298-0.717l-7.323-7.335c-0.21-0.221-0.463-0.331-0.739-0.331s-0.529 0.11-0.739 0.331l-7.313 7.335c-0.21 0.221-0.309 0.452-0.309 0.717 0 0.541 0.397 0.96 0.949 0.96 0.265 0 0.529-0.088 0.695-0.265l3.618-3.618 2.195-2.415-0.077 2.989v7.643c0 5.129 2.404 7.158 7.5 7.158z"></path>
</svg>
