<!-- Generated by IcoMoon.io -->
<svg version="1.1" xmlns="http://www.w3.org/2000/svg" width="32" height="32" viewBox="0 0 32 32">
<title>arrow-clockwise-heart-fill</title>
<path d="M11.643 16.82c0-1.908 1.434-3.551 3.221-3.816v-0.927c0-0.43 0.463-0.585 0.783-0.309l1.842 1.566c0.309 0.265 0.309 0.629 0 0.904l-1.842 1.588c-0.32 0.276-0.783 0.11-0.783-0.309v-1.092c-1.048 0.309-1.82 1.268-1.82 2.415 0 1.401 1.125 2.526 2.526 2.526s2.526-1.125 2.526-2.526c0-0.386 0.32-0.706 0.706-0.706 0.375 0 0.695 0.32 0.695 0.706 0 2.184-1.743 3.949-3.926 3.949s-3.927-1.765-3.927-3.971zM15.658 26.239c0.232 0 0.563-0.154 0.805-0.298 6.221-3.971 10.158-8.592 10.158-13.29 0-3.904-2.68-6.662-6.154-6.662-2.151 0-3.805 1.191-4.809 3.011-0.982-1.809-2.647-3.011-4.809-3.011-3.463 0-6.143 2.757-6.143 6.662 0 4.699 3.938 9.32 10.158 13.29 0.232 0.143 0.573 0.298 0.794 0.298z"></path>
</svg>
