<!-- Generated by IcoMoon.io -->
<svg version="1.1" xmlns="http://www.w3.org/2000/svg" width="32" height="32" viewBox="0 0 32 32">
<title>arrowtriangle-up</title>
<path d="M25.077 23.265c0-0.441-0.198-0.794-0.43-1.257l-6.871-14.162c-0.463-0.949-0.893-1.246-1.478-1.246s-1.004 0.298-1.467 1.246l-6.882 14.162c-0.221 0.474-0.419 0.827-0.419 1.268 0 0.816 0.618 1.323 1.577 1.323l14.382-0.011c0.96 0 1.588-0.507 1.588-1.323zM22.971 22.713c0 0.066-0.044 0.11-0.132 0.11h-13.081c-0.088 0-0.121-0.044-0.121-0.11 0-0.044 0.022-0.088 0.044-0.132l6.496-13.511c0.033-0.055 0.066-0.099 0.121-0.099 0.066 0 0.099 0.044 0.132 0.099l6.496 13.511c0.022 0.044 0.044 0.088 0.044 0.132z"></path>
</svg>
