<!-- Generated by IcoMoon.io -->
<svg version="1.1" xmlns="http://www.w3.org/2000/svg" width="32" height="32" viewBox="0 0 32 32">
<title>arrow-up-right-and-arrow-down-left-rectangle</title>
<path d="M6.287 25.952h19.081c2.316 0 3.463-1.136 3.463-3.408v-13.478c0-2.272-1.147-3.419-3.463-3.419h-19.081c-2.305 0-3.463 1.147-3.463 3.419v13.478c0 2.272 1.158 3.408 3.463 3.408zM6.309 24.176c-1.103 0-1.71-0.585-1.71-1.732v-13.279c0-1.147 0.607-1.743 1.71-1.743h19.037c1.092 0 1.71 0.596 1.71 1.743v13.279c0 1.147-0.618 1.732-1.71 1.732h-19.037zM6.827 17.437c0 0.419 0.375 0.794 0.805 0.794 0.188 0 0.375-0.088 0.585-0.298l4.665-4.654 0.783-0.86-0.099 2.581v1.070c0 0.485 0.309 0.805 0.772 0.805s0.783-0.32 0.783-0.805v-5.316c0-0.474-0.331-0.794-0.816-0.794h-5.471c-0.485 0-0.805 0.309-0.805 0.772s0.342 0.783 0.805 0.783h1.081l2.713-0.11-0.849 0.783-4.654 4.654c-0.21 0.21-0.298 0.397-0.298 0.596zM24.982 14.162c0-0.419-0.364-0.794-0.794-0.794-0.187 0-0.375 0.088-0.596 0.298l-4.654 4.654-0.783 0.86 0.099-2.581v-1.070c0-0.485-0.309-0.805-0.772-0.805s-0.783 0.32-0.783 0.805v5.316c0 0.474 0.331 0.805 0.816 0.805h5.471c0.474 0 0.805-0.32 0.805-0.783s-0.353-0.772-0.805-0.772h-1.081l-2.713 0.099 0.838-0.772 4.665-4.665c0.209-0.21 0.287-0.397 0.287-0.596z"></path>
</svg>
