<!-- Generated by IcoMoon.io -->
<svg version="1.1" xmlns="http://www.w3.org/2000/svg" width="32" height="32" viewBox="0 0 32 32">
<title>arrow-triangle-2-circlepath-circle</title>
<path d="M15.956 27.206c6.154 0 11.25-5.107 11.25-11.25 0-6.154-5.107-11.25-11.261-11.25-6.143 0-11.239 5.096-11.239 11.25 0 6.143 5.107 11.25 11.25 11.25zM15.956 25.331c-5.206 0-9.364-4.169-9.364-9.375s4.147-9.375 9.353-9.375c5.206 0 9.386 4.169 9.386 9.375s-4.169 9.375-9.375 9.375zM15.989 22.11c1.379 0 2.757-0.485 3.717-1.279 0.529-0.419 0.651-0.993 0.276-1.401-0.386-0.408-0.893-0.342-1.335-0.022-0.794 0.629-1.588 0.96-2.658 0.96-2.195 0-4.015-1.478-4.5-3.43h1.158c0.507 0 0.629-0.496 0.342-0.882l-1.787-2.493c-0.298-0.408-0.805-0.441-1.114 0l-1.765 2.493c-0.287 0.397-0.176 0.882 0.331 0.882h1.169c0.54 3.055 3.022 5.173 6.165 5.173zM15.967 9.757c-1.368 0-2.757 0.474-3.706 1.268-0.529 0.419-0.651 0.993-0.276 1.401 0.386 0.408 0.893 0.342 1.323 0.022 0.794-0.618 1.588-0.96 2.658-0.96 2.195 0 4.015 1.478 4.511 3.43h-1.224c-0.518 0-0.629 0.496-0.353 0.882l1.798 2.493c0.298 0.408 0.805 0.441 1.114 0l1.765-2.493c0.287-0.386 0.176-0.882-0.342-0.882h-1.103c-0.529-3.055-3.011-5.162-6.165-5.162z"></path>
</svg>
