<!-- Generated by IcoMoon.io -->
<svg version="1.1" xmlns="http://www.w3.org/2000/svg" width="32" height="32" viewBox="0 0 32 32">
<title>arrow-left-and-right-text-vertical</title>
<path d="M24.254 12.662v14.912c0 0.474 0.364 0.849 0.827 0.849 0.474 0 0.838-0.375 0.838-0.849v-14.912c0-0.463-0.364-0.827-0.838-0.827-0.463 0-0.827 0.364-0.827 0.827zM18.474 12.662v14.912c0 0.474 0.364 0.849 0.827 0.849 0.474 0 0.838-0.375 0.838-0.849v-14.912c0-0.463-0.364-0.827-0.838-0.827-0.463 0-0.827 0.364-0.827 0.827zM12.695 12.662v14.912c0 0.474 0.364 0.849 0.838 0.849 0.463 0 0.827-0.375 0.827-0.849v-14.912c0-0.463-0.364-0.827-0.827-0.827-0.474 0-0.838 0.364-0.838 0.827zM6.915 12.662v7.842c0 0.474 0.364 0.849 0.838 0.849 0.463 0 0.827-0.375 0.827-0.849v-7.842c0-0.463-0.364-0.827-0.827-0.827-0.474 0-0.838 0.364-0.838 0.827zM5.945 6.629l2.956 2.206c0.596 0.441 1.346 0.21 1.346-0.585v-1.555h12.342v1.555c0 0.772 0.728 1.048 1.346 0.585l2.956-2.206c0.397-0.309 0.386-0.882 0-1.169l-2.956-2.195c-0.618-0.463-1.346-0.188-1.346 0.574v1.577h-12.342v-1.577c0-0.761-0.728-1.037-1.346-0.574l-2.956 2.195c-0.397 0.298-0.397 0.86 0 1.169z"></path>
</svg>
