<!-- Generated by IcoMoon.io -->
<svg version="1.1" xmlns="http://www.w3.org/2000/svg" width="32" height="32" viewBox="0 0 32 32">
<title>arrow-up-left-and-down-right-magnifyingglass</title>
<path d="M5.647 13.507c0 4.853 3.949 8.801 8.802 8.801 1.919 0 3.673-0.618 5.118-1.654l5.426 5.438c0.254 0.254 0.585 0.375 0.938 0.375 0.75 0 1.268-0.563 1.268-1.301 0-0.353-0.132-0.673-0.364-0.904l-5.393-5.426c1.136-1.478 1.809-3.32 1.809-5.327 0-4.853-3.949-8.802-8.801-8.802s-8.802 3.949-8.802 8.802zM7.533 13.507c0-3.816 3.099-6.915 6.915-6.915s6.915 3.099 6.915 6.915c0 3.816-3.099 6.915-6.915 6.915s-6.915-3.099-6.915-6.915zM10.566 13.055c0 0.596 0.629 0.673 0.949 0.364l0.927-0.915 2.967 2.967-0.96 0.937c-0.342 0.331-0.232 0.949 0.364 0.949h2.857c0.397 0 0.618-0.254 0.618-0.706v-2.713c0-0.596-0.629-0.673-0.949-0.364l-0.915 0.904-2.967-2.967 0.949-0.927c0.342-0.331 0.232-0.949-0.364-0.949h-2.857c-0.397 0-0.618 0.254-0.618 0.706v2.713z"></path>
</svg>
