<!-- Generated by IcoMoon.io -->
<svg version="1.1" xmlns="http://www.w3.org/2000/svg" width="32" height="32" viewBox="0 0 32 32">
<title>arrow-up-left-and-arrow-down-right-circle</title>
<path d="M15.956 27.206c6.154 0 11.25-5.107 11.25-11.25 0-6.154-5.107-11.25-11.261-11.25-6.143 0-11.239 5.096-11.239 11.25 0 6.143 5.107 11.25 11.25 11.25zM15.956 25.331c-5.206 0-9.364-4.169-9.364-9.375s4.147-9.375 9.353-9.375c5.206 0 9.386 4.169 9.386 9.375s-4.169 9.375-9.375 9.375zM11.18 15.945c0.43 0 0.783-0.342 0.783-0.772v-0.54l-0.121-1.743 2.393 2.504c0.32 0.353 0.849 0.342 1.169 0.011 0.32-0.32 0.309-0.86-0.011-1.169l-2.482-2.371 1.687 0.11h0.54c0.43 0 0.772-0.342 0.772-0.772s-0.342-0.783-0.772-0.783h-3.827c-0.573 0-0.904 0.254-0.904 0.915v3.838c0 0.43 0.342 0.772 0.772 0.772zM16.761 21.515h3.816c0.574 0 0.915-0.254 0.915-0.915v-3.838c0-0.43-0.353-0.772-0.783-0.772s-0.772 0.342-0.772 0.772v0.54l0.11 1.743-2.382-2.504c-0.331-0.353-0.849-0.342-1.18-0.011-0.32 0.32-0.309 0.86 0.011 1.169l2.493 2.371-1.688-0.11h-0.54c-0.43 0-0.783 0.342-0.783 0.772s0.353 0.783 0.783 0.783z"></path>
</svg>
