<!-- Generated by IcoMoon.io -->
<svg version="1.1" xmlns="http://www.w3.org/2000/svg" width="32" height="32" viewBox="0 0 32 32">
<title>arrow-triangle-capsulepath</title>
<path d="M14.39 27.621c4.103 0 6.838-2.735 6.838-6.86v-2.184c0-0.518-0.419-0.938-0.938-0.938s-0.949 0.419-0.949 0.938v2.184c0 2.978-1.996 4.974-4.952 4.974-2.978 0-4.974-1.996-4.974-4.974v-10.158c0-2.956 1.996-4.963 4.974-4.963 2.956 0 4.952 2.007 4.952 4.963v1.335h1.886v-1.335c0-4.114-2.735-6.838-6.838-6.838-4.125 0-6.86 2.724-6.86 6.838v10.158c0 4.125 2.735 6.86 6.86 6.86zM22.86 10.647h-5.074c-0.772 0-0.982 0.54-0.562 1.147l2.471 3.518c0.353 0.496 0.882 0.507 1.246 0l2.482-3.507c0.43-0.618 0.232-1.158-0.562-1.158z"></path>
</svg>
