<!-- Generated by IcoMoon.io -->
<svg version="1.1" xmlns="http://www.w3.org/2000/svg" width="32" height="32" viewBox="0 0 32 32">
<title>arrow-triangle-2-circlepath-circle-fill</title>
<path d="M15.956 27.206c6.154 0 11.25-5.096 11.25-11.25 0-6.143-5.107-11.25-11.261-11.25-6.143 0-11.239 5.107-11.239 11.25 0 6.154 5.107 11.25 11.25 11.25zM16.011 22.309c-3.243 0-5.813-2.173-6.364-5.338h-1.202c-0.54 0-0.64-0.507-0.353-0.915l1.82-2.57c0.331-0.441 0.86-0.419 1.158 0l1.853 2.57c0.287 0.408 0.176 0.915-0.364 0.915h-1.191c0.507 2.007 2.382 3.529 4.643 3.529 1.103 0 1.919-0.342 2.735-0.971 0.452-0.342 0.971-0.408 1.368 0.022 0.408 0.419 0.276 1.015-0.276 1.445-0.982 0.816-2.404 1.312-3.827 1.312zM15.989 9.559c3.243 0 5.801 2.173 6.364 5.338h1.136c0.54 0 0.64 0.507 0.353 0.915l-1.82 2.559c-0.331 0.452-0.86 0.419-1.169 0l-1.842-2.559c-0.287-0.408-0.176-0.915 0.353-0.915h1.268c-0.507-2.018-2.382-3.54-4.643-3.54-1.103 0-1.919 0.353-2.735 0.982-0.452 0.331-0.982 0.408-1.368-0.022-0.397-0.419-0.276-1.015 0.276-1.456 0.982-0.805 2.404-1.302 3.827-1.302z"></path>
</svg>
