<!-- Generated by IcoMoon.io -->
<svg version="1.1" xmlns="http://www.w3.org/2000/svg" width="32" height="32" viewBox="0 0 32 32">
<title>arrow-turn-up-right</title>
<path d="M6.684 24.967c0.574 0 0.993-0.397 0.993-0.982 0-0.386-0.033-0.75-0.033-1.268 0-4.092 1.423-5.757 5.471-5.757h7.61l2.713-0.165-3.728 3.397-2.449 2.493c-0.165 0.176-0.265 0.441-0.265 0.706 0 0.551 0.419 0.949 0.971 0.949 0.254 0 0.496-0.099 0.717-0.309l7.323-7.312c0.232-0.221 0.342-0.474 0.342-0.75 0-0.265-0.11-0.529-0.342-0.739l-7.301-7.29c-0.243-0.243-0.485-0.331-0.739-0.331-0.551 0-0.971 0.397-0.971 0.949 0 0.265 0.088 0.518 0.265 0.695l2.449 2.493 3.717 3.397-2.702-0.154h-7.71c-5.228 0-7.368 2.294-7.368 7.632 0 0.64 0.022 1.191 0.099 1.522 0.088 0.452 0.353 0.827 0.938 0.827z"></path>
</svg>
