<!-- Generated by IcoMoon.io -->
<svg version="1.1" xmlns="http://www.w3.org/2000/svg" width="32" height="32" viewBox="0 0 32 32">
<title>arrow-triangle-turn-up-right-circle-fill</title>
<path d="M15.956 27.206c6.154 0 11.25-5.107 11.25-11.25 0-6.154-5.107-11.25-11.261-11.25-6.143 0-11.239 5.096-11.239 11.25 0 6.143 5.107 11.25 11.25 11.25zM11.015 19.187v-2.901c0-2.206 1.059-3.265 3.265-3.265h3.132v-1.456c0-0.739 0.772-1.059 1.346-0.607l2.691 2.085c0.706 0.562 0.706 1.235 0 1.798l-2.691 2.096c-0.574 0.452-1.346 0.132-1.346-0.607v-1.467h-3.099c-0.971 0-1.467 0.485-1.467 1.511v2.813c0 0.651-0.342 1.015-0.915 1.026-0.585 0.011-0.915-0.375-0.915-1.026z"></path>
</svg>
