<!-- Generated by IcoMoon.io -->
<svg version="1.1" xmlns="http://www.w3.org/2000/svg" width="32" height="32" viewBox="0 0 32 32">
<title>arrow-triangle-turn-up-right-diamond</title>
<path d="M5.001 18.711l8.835 8.835c1.632 1.632 3.243 1.643 4.864 0.033l8.879-8.89c1.61-1.61 1.599-3.232-0.033-4.864l-8.824-8.824c-1.632-1.632-3.243-1.654-4.864-0.033l-8.89 8.879c-1.621 1.621-1.599 3.232 0.033 4.864zM6.281 17.487c-0.783-0.794-0.805-1.621 0.011-2.438l8.757-8.757c0.816-0.816 1.643-0.805 2.438-0.011l8.779 8.779c0.783 0.783 0.805 1.621-0.011 2.437l-8.757 8.757c-0.816 0.816-1.665 0.794-2.437 0.022l-8.779-8.79zM11.487 19.748c0 0.629 0.309 1.004 0.882 0.993 0.562-0.011 0.882-0.364 0.882-0.993v-3.066c0-1.004 0.474-1.467 1.423-1.467h2.879v1.732c0 0.717 0.805 1.048 1.412 0.529l2.636-2.283c0.662-0.574 0.662-1.158 0-1.732l-2.636-2.272c-0.607-0.529-1.412-0.187-1.412 0.518v1.732h-2.901c-2.151 0-3.165 1.026-3.165 3.154v3.154z"></path>
</svg>
