<!-- Generated by IcoMoon.io -->
<svg version="1.1" xmlns="http://www.w3.org/2000/svg" width="32" height="32" viewBox="0 0 32 32">
<title>arrow-counterclockwise</title>
<path d="M6.588 16.809c0 5.415 4.346 9.761 9.75 9.761s9.739-4.346 9.739-9.761c0-5.404-4.334-9.739-9.739-9.739-0.684 0-1.335 0.077-1.908 0.188l2.934-2.901c0.165-0.176 0.243-0.397 0.243-0.629 0-0.507-0.375-0.904-0.86-0.904-0.276 0-0.496 0.088-0.651 0.265l-4.544 4.61c-0.176 0.176-0.276 0.419-0.276 0.662 0 0.254 0.088 0.474 0.276 0.662l4.544 4.566c0.165 0.165 0.375 0.254 0.64 0.254 0.496 0 0.871-0.375 0.871-0.882 0-0.232-0.077-0.452-0.254-0.629l-3.287-3.265c0.64-0.154 1.423-0.221 2.272-0.221 4.423 0 7.963 3.54 7.963 7.963 0 4.434-3.54 7.985-7.963 7.985s-7.974-3.552-7.974-7.985c0-0.529-0.331-0.915-0.86-0.915-0.54 0-0.915 0.386-0.915 0.915z"></path>
</svg>
