<!-- Generated by IcoMoon.io -->
<svg version="1.1" xmlns="http://www.w3.org/2000/svg" width="32" height="32" viewBox="0 0 32 32">
<title>arrow-backward-to-line</title>
<path d="M5.688 24.25c0.585 0 0.993-0.386 0.993-0.949v-14.79c0-0.574-0.408-0.982-0.993-0.982-0.574 0-0.982 0.408-0.982 0.982v14.79c0 0.563 0.408 0.949 0.982 0.949zM15.051 24.25c0.551 0 0.971-0.397 0.971-0.949 0-0.254-0.099-0.518-0.265-0.695l-2.471-2.515-4.335-3.938-0.221 0.607 3.287 0.121h14.537c0.563 0 0.971-0.419 0.971-0.993s-0.408-0.982-0.971-0.982h-14.537l-3.287 0.121 0.221 0.618 4.335-3.96 2.471-2.504c0.165-0.176 0.265-0.441 0.265-0.706 0-0.54-0.419-0.949-0.971-0.949-0.254 0-0.485 0.099-0.706 0.309l-7.335 7.313c-0.221 0.221-0.342 0.474-0.342 0.739 0 0.276 0.121 0.529 0.342 0.739l7.335 7.323c0.221 0.21 0.452 0.298 0.706 0.298z"></path>
</svg>
