<!-- Generated by IcoMoon.io -->
<svg version="1.1" xmlns="http://www.w3.org/2000/svg" width="32" height="32" viewBox="0 0 32 32">
<title>arrow-up-arrow-down-square</title>
<path d="M9.11 25.974h13.379c2.316 0 3.463-1.147 3.463-3.419v-13.467c0-2.272-1.147-3.419-3.463-3.419h-13.379c-2.305 0-3.463 1.136-3.463 3.419v13.467c0 2.283 1.158 3.419 3.463 3.419zM9.132 24.198c-1.103 0-1.71-0.585-1.71-1.732v-13.29c0-1.147 0.607-1.732 1.71-1.732h13.335c1.092 0 1.71 0.585 1.71 1.732v13.29c0 1.147-0.618 1.732-1.71 1.732h-13.335zM11.868 10.654l-2.724 2.779c-0.121 0.143-0.221 0.353-0.221 0.507 0 0.408 0.309 0.717 0.717 0.717 0.187 0 0.364-0.088 0.496-0.221l1.136-1.18 0.419-0.452-0.022 0.54v7.147c0 0.397 0.309 0.695 0.717 0.695 0.419 0 0.728-0.298 0.728-0.695v-7.158l-0.033-0.529 0.43 0.452 1.136 1.191c0.132 0.132 0.309 0.21 0.496 0.21 0.408 0 0.706-0.298 0.706-0.717 0-0.176-0.099-0.386-0.221-0.507l-2.713-2.779c-0.265-0.276-0.728-0.32-1.048 0zM19.754 20.978l2.702-2.768c0.132-0.143 0.232-0.342 0.232-0.518 0-0.419-0.287-0.706-0.706-0.706-0.199 0-0.386 0.077-0.507 0.209l-1.136 1.169-0.419 0.452 0.022-0.518v-7.158c0-0.408-0.309-0.706-0.717-0.706s-0.717 0.298-0.717 0.706v7.169l0.022 0.518-0.419-0.463-1.136-1.169c-0.143-0.143-0.309-0.209-0.507-0.209-0.419 0-0.695 0.287-0.695 0.706 0 0.165 0.077 0.364 0.21 0.518l2.713 2.768c0.254 0.265 0.761 0.309 1.059 0z"></path>
</svg>
