<!-- Generated by IcoMoon.io -->
<svg version="1.1" xmlns="http://www.w3.org/2000/svg" width="32" height="32" viewBox="0 0 32 32">
<title>arrow-uturn-backward-circle-fill</title>
<path d="M15.956 27.206c6.154 0 11.25-5.096 11.25-11.25 0-6.143-5.107-11.25-11.261-11.25-6.143 0-11.239 5.107-11.239 11.25 0 6.154 5.107 11.25 11.25 11.25zM21.581 17.202c0 2.625-1.787 4.346-4.456 4.346h-1.478c-0.529 0-0.882-0.32-0.882-0.816 0-0.485 0.342-0.827 0.86-0.827h1.5c1.677 0 2.813-1.081 2.813-2.702 0-1.511-1.114-2.515-2.802-2.515h-3.221l-1.125-0.055 0.518 0.375 1.335 1.279c0.165 0.165 0.254 0.375 0.254 0.607 0 0.474-0.353 0.849-0.805 0.849-0.254 0-0.452-0.088-0.607-0.243l-2.89-2.956c-0.21-0.198-0.298-0.441-0.298-0.695 0-0.243 0.099-0.496 0.298-0.695l2.879-2.923c0.165-0.165 0.353-0.254 0.607-0.254 0.474 0 0.816 0.375 0.816 0.849 0 0.232-0.088 0.441-0.254 0.596l-1.114 1.081-0.75 0.584 1.136-0.044h3.221c2.669 0 4.445 1.654 4.445 4.158z"></path>
</svg>
