<!-- Generated by IcoMoon.io -->
<svg version="1.1" xmlns="http://www.w3.org/2000/svg" width="32" height="32" viewBox="0 0 32 32">
<title>arrow-up-to-line</title>
<path d="M24.25 15.107c0-0.265-0.088-0.496-0.298-0.717l-7.323-7.335c-0.21-0.221-0.463-0.331-0.739-0.331s-0.529 0.11-0.739 0.331l-7.313 7.335c-0.21 0.221-0.309 0.452-0.309 0.717 0 0.54 0.397 0.96 0.949 0.96 0.265 0 0.529-0.088 0.695-0.265l2.515-2.471 3.96-4.335-0.629-0.221-0.11 3.287v14.537c0 0.574 0.408 0.971 0.982 0.971s0.982-0.397 0.982-0.971v-14.537l-0.11-3.287-0.618 0.221 3.949 4.335 2.515 2.471c0.176 0.176 0.43 0.265 0.695 0.265 0.552 0 0.949-0.419 0.949-0.96zM24.25 5.743c0-0.574-0.386-0.993-0.949-0.993h-14.801c-0.574 0-0.971 0.419-0.971 0.993s0.397 0.982 0.971 0.982h14.801c0.563 0 0.949-0.408 0.949-0.982z"></path>
</svg>
