<!-- Generated by IcoMoon.io -->
<svg version="1.1" xmlns="http://www.w3.org/2000/svg" width="32" height="32" viewBox="0 0 32 32">
<title>arrow-up-left-and-down-right-and-arrow-up-right-and-down-left</title>
<path d="M5.647 11.603c0 0.971 1.037 1.213 1.654 0.585l4.886-4.886c0.64-0.629 0.386-1.654-0.585-1.654h-4.952c-0.618 0-1.004 0.419-1.004 1.015v4.941zM8.493 9.882l13.974 13.985 1.401-1.379-13.974-13.996-1.401 1.39zM26.724 20.768c0-0.982-1.037-1.213-1.665-0.596l-4.886 4.886c-0.629 0.64-0.375 1.665 0.596 1.665h4.952c0.618 0 1.004-0.43 1.004-1.015v-4.941zM26.724 11.603v-4.941c0-0.596-0.386-1.015-1.004-1.015h-4.952c-0.971 0-1.224 1.026-0.596 1.654l4.886 4.886c0.629 0.629 1.665 0.386 1.665-0.585zM9.893 23.868l13.985-13.985-1.401-1.39-13.985 13.985 1.401 1.39zM5.647 20.768v4.941c0 0.585 0.386 1.015 1.004 1.015h4.952c0.971 0 1.224-1.026 0.585-1.665l-4.886-4.886c-0.618-0.618-1.654-0.386-1.654 0.596z"></path>
</svg>
