<!-- Generated by IcoMoon.io -->
<svg version="1.1" xmlns="http://www.w3.org/2000/svg" width="32" height="32" viewBox="0 0 32 32">
<title>arrow-triangle-merge</title>
<path d="M10.338 24.38c0.287 0 0.585-0.099 0.849-0.276l0.574-0.386c1.533-1.037 3.794-3.375 4.18-4.544h0.033c0.375 1.158 2.636 3.507 4.18 4.544l0.573 0.386c0.265 0.176 0.563 0.276 0.838 0.276 0.562 0 0.938-0.386 0.938-0.927 0-0.331-0.176-0.662-0.474-0.849l-0.871-0.563c-1.533-1.015-4.235-3.573-4.235-6.276v-5.625h-1.93v5.625c0 2.702-2.713 5.25-4.235 6.276l-0.871 0.563c-0.309 0.187-0.474 0.529-0.474 0.86 0 0.496 0.364 0.915 0.927 0.915zM13.426 11.63h5.062c0.772 0 0.982-0.54 0.552-1.147l-2.46-3.518c-0.353-0.496-0.882-0.507-1.246 0l-2.471 3.507c-0.43 0.618-0.232 1.158 0.562 1.158z"></path>
</svg>
