<!-- Generated by IcoMoon.io -->
<svg version="1.1" xmlns="http://www.w3.org/2000/svg" width="32" height="32" viewBox="0 0 32 32">
<title>arrow-up-and-down-and-arrow-left-and-right</title>
<path d="M3.178 16.355l3.529 3.342c0.739 0.717 1.721 0.154 1.721-0.805v-2.338h6.121v6.143h-2.349c-0.949 0-1.511 0.971-0.805 1.71l3.342 3.529c0.474 0.496 1.147 0.474 1.599-0.011l3.331-3.518c0.717-0.739 0.154-1.71-0.805-1.71h-2.338v-6.143h6.11v2.338c0 0.96 0.971 1.522 1.721 0.805l3.518-3.331c0.474-0.463 0.496-1.125 0.011-1.599l-3.529-3.342c-0.75-0.706-1.721-0.143-1.721 0.805v2.349h-6.11v-6.154h2.338c0.96 0 1.522-0.971 0.805-1.71l-3.342-3.529c-0.463-0.496-1.136-0.474-1.599 0.011l-3.331 3.518c-0.706 0.739-0.143 1.71 0.805 1.71h2.349v6.154h-6.121v-2.349c0-0.949-0.982-1.511-1.721-0.805l-3.518 3.331c-0.474 0.463-0.496 1.125-0.011 1.599z"></path>
</svg>
