<!-- Generated by IcoMoon.io -->
<svg version="1.1" xmlns="http://www.w3.org/2000/svg" width="32" height="32" viewBox="0 0 32 32">
<title>arrow-right</title>
<path d="M26.129 15.89c0-0.276-0.11-0.529-0.331-0.739l-7.313-7.29c-0.243-0.243-0.474-0.331-0.739-0.331-0.541 0-0.96 0.397-0.96 0.949 0 0.265 0.088 0.518 0.265 0.695l2.471 2.515 4.379 3.993 0.221-0.552-3.551-0.221h-13.952c-0.574 0-0.971 0.408-0.971 0.982s0.397 0.982 0.971 0.982h13.952l3.551-0.221-0.221-0.54-4.379 3.982-2.471 2.515c-0.176 0.165-0.265 0.43-0.265 0.695 0 0.552 0.419 0.949 0.96 0.949 0.265 0 0.496-0.099 0.717-0.309l7.335-7.312c0.221-0.21 0.331-0.463 0.331-0.739z"></path>
</svg>
