<!-- Generated by IcoMoon.io -->
<svg version="1.1" xmlns="http://www.w3.org/2000/svg" width="32" height="32" viewBox="0 0 32 32">
<title>arrow-up-forward-app-fill</title>
<path d="M24.43 6.949c-1.125-1.125-2.713-1.301-4.599-1.301h-8.327c-1.853 0-3.441 0.176-4.566 1.301s-1.29 2.702-1.29 4.544v8.338c0 1.886 0.165 3.452 1.29 4.577s2.713 1.301 4.588 1.301h8.305c1.886 0 3.474-0.176 4.599-1.301s1.29-2.691 1.29-4.577v-8.305c0-1.886-0.165-3.463-1.29-4.577zM19.257 18.507c-0.518 0-0.849-0.353-0.849-0.893v-1.952l0.165-1.776-1.643 1.754-4.158 4.169c-0.165 0.165-0.386 0.265-0.662 0.265-0.496 0-0.827-0.331-0.827-0.849 0-0.221 0.11-0.452 0.276-0.618l4.169-4.169 1.776-1.654-1.688 0.176h-2.051c-0.551 0-0.904-0.331-0.904-0.827 0-0.507 0.342-0.838 0.882-0.838h5.393c0.585 0 0.949 0.265 0.949 0.938v5.36c0 0.529-0.331 0.915-0.827 0.915z"></path>
</svg>
