<!-- Generated by IcoMoon.io -->
<svg version="1.1" xmlns="http://www.w3.org/2000/svg" width="32" height="32" viewBox="0 0 32 32">
<title>arrow-up-backward-circle-fill</title>
<path d="M15.956 27.206c6.154 0 11.25-5.107 11.25-11.25 0-6.154-5.107-11.25-11.261-11.25-6.143 0-11.239 5.096-11.239 11.25 0 6.143 5.107 11.25 11.25 11.25zM12.382 18.779c-0.496 0-0.838-0.386-0.838-0.915v-5.36c0-0.673 0.375-0.938 0.96-0.938h5.382c0.54 0 0.882 0.331 0.882 0.838 0 0.496-0.353 0.827-0.904 0.827h-2.051l-1.688-0.176 1.776 1.654 4.18 4.169c0.165 0.165 0.276 0.397 0.276 0.618 0 0.518-0.342 0.849-0.838 0.849-0.276 0-0.496-0.099-0.662-0.265l-4.158-4.169-1.643-1.754 0.165 1.776v1.952c0 0.54-0.331 0.893-0.838 0.893z"></path>
</svg>
