<!-- Generated by IcoMoon.io -->
<svg version="1.1" xmlns="http://www.w3.org/2000/svg" width="32" height="32" viewBox="0 0 32 32">
<title>arrow-uturn-left-square</title>
<path d="M9.11 25.952h13.379c2.316 0 3.463-1.147 3.463-3.419v-13.467c0-2.272-1.147-3.419-3.463-3.419h-13.379c-2.305 0-3.463 1.136-3.463 3.419v13.467c0 2.283 1.158 3.419 3.463 3.419zM9.132 24.176c-1.103 0-1.71-0.585-1.71-1.732v-13.29c0-1.136 0.607-1.732 1.71-1.732h13.335c1.092 0 1.71 0.596 1.71 1.732v13.29c0 1.147-0.618 1.732-1.71 1.732h-13.335zM21.507 17.129c0-2.647-1.919-4.257-4.489-4.257h-3.298l-1.301 0.044 0.871-0.695 1.136-1.103c0.154-0.132 0.254-0.342 0.254-0.563 0-0.463-0.342-0.805-0.794-0.805-0.232 0-0.408 0.077-0.563 0.243l-2.934 2.967c-0.176 0.188-0.287 0.419-0.287 0.684 0 0.254 0.11 0.474 0.287 0.662l2.945 3.011c0.154 0.154 0.331 0.221 0.562 0.221 0.441 0 0.783-0.342 0.783-0.794 0-0.21-0.077-0.43-0.243-0.574l-1.379-1.324-0.64-0.474 1.301 0.044h3.298c1.621 0 2.868 0.927 2.868 2.625 0 1.743-1.213 2.813-2.879 2.813-0.132 0-1.489 0-1.533 0-0.474 0-0.838 0.287-0.838 0.794s0.364 0.783 0.86 0.783c0.055 0 1.379 0 1.511 0 2.57 0 4.5-1.643 4.5-4.301z"></path>
</svg>
