<!-- Generated by IcoMoon.io -->
<svg version="1.1" xmlns="http://www.w3.org/2000/svg" width="32" height="32" viewBox="0 0 32 32">
<title>arrow-up-forward-square-fill</title>
<path d="M9.11 25.974h13.379c2.316 0 3.463-1.147 3.463-3.419v-13.467c0-2.272-1.147-3.419-3.463-3.419h-13.379c-2.305 0-3.463 1.136-3.463 3.419v13.467c0 2.283 1.158 3.419 3.463 3.419zM19.368 18.629c-0.507 0-0.838-0.353-0.838-0.893v-1.952l0.165-1.776-1.643 1.754-4.158 4.169c-0.165 0.165-0.386 0.265-0.662 0.265-0.496 0-0.827-0.331-0.827-0.849 0-0.221 0.099-0.452 0.265-0.618l4.18-4.169 1.776-1.655-1.688 0.176h-2.051c-0.551 0-0.904-0.331-0.904-0.827 0-0.507 0.342-0.838 0.882-0.838h5.382c0.585 0 0.96 0.265 0.96 0.938v5.36c0 0.529-0.342 0.915-0.838 0.915z"></path>
</svg>
