<!-- Generated by IcoMoon.io -->
<svg version="1.1" xmlns="http://www.w3.org/2000/svg" width="32" height="32" viewBox="0 0 32 32">
<title>arrow-up-and-down</title>
<path d="M16.228 26.423c0.265 0 0.518-0.099 0.739-0.32l5.768-5.89c0.188-0.188 0.298-0.485 0.298-0.717 0-0.596-0.397-0.982-0.971-0.982-0.276 0-0.496 0.099-0.673 0.276l-2.504 2.581-1.787 2.063 0.11-2.559v-10.621l-0.11-2.559 1.787 2.063 2.504 2.581c0.176 0.176 0.397 0.276 0.673 0.276 0.574 0 0.971-0.386 0.971-0.982 0-0.232-0.11-0.529-0.298-0.717l-5.768-5.89c-0.221-0.221-0.474-0.32-0.739-0.32-0.276 0-0.529 0.099-0.739 0.32l-5.768 5.89c-0.187 0.187-0.309 0.485-0.309 0.717 0 0.596 0.397 0.982 0.971 0.982 0.287 0 0.507-0.099 0.673-0.276l2.515-2.581 1.776-2.063-0.099 2.559v10.621l0.099 2.559-1.776-2.063-2.515-2.581c-0.165-0.176-0.386-0.276-0.673-0.276-0.573 0-0.971 0.386-0.971 0.982 0 0.232 0.121 0.529 0.309 0.717l5.768 5.89c0.21 0.221 0.463 0.32 0.739 0.32z"></path>
</svg>
