<!-- Generated by IcoMoon.io -->
<svg version="1.1" xmlns="http://www.w3.org/2000/svg" width="32" height="32" viewBox="0 0 32 32">
<title>arrow-left-and-right-square</title>
<path d="M9.11 25.974h13.379c2.316 0 3.463-1.147 3.463-3.419v-13.467c0-2.272-1.147-3.419-3.463-3.419h-13.379c-2.305 0-3.463 1.136-3.463 3.419v13.467c0 2.283 1.158 3.419 3.463 3.419zM9.132 24.198c-1.103 0-1.71-0.585-1.71-1.732v-13.29c0-1.147 0.607-1.732 1.71-1.732h13.335c1.092 0 1.71 0.585 1.71 1.732v13.29c0 1.147-0.618 1.732-1.71 1.732h-13.335zM22.654 15.816c0-0.254-0.099-0.441-0.309-0.651l-3.187-3.187c-0.143-0.154-0.342-0.232-0.574-0.232-0.452 0-0.794 0.353-0.794 0.805 0 0.232 0.088 0.441 0.243 0.585l0.838 0.816 1.346 1.125-2.338-0.088h-4.147l-2.338 0.088 1.335-1.125 0.838-0.816c0.154-0.143 0.243-0.353 0.243-0.585 0-0.452-0.342-0.805-0.794-0.805-0.232 0-0.43 0.077-0.573 0.232l-3.188 3.187c-0.21 0.21-0.309 0.397-0.309 0.651 0 0.232 0.099 0.408 0.309 0.629l3.188 3.209c0.143 0.143 0.342 0.221 0.573 0.221 0.452 0 0.794-0.353 0.794-0.794 0-0.243-0.099-0.441-0.243-0.596l-0.838-0.827-1.323-1.103 2.327 0.077h4.147l2.327-0.077-1.335 1.103-0.838 0.827c-0.143 0.154-0.243 0.353-0.243 0.596 0 0.441 0.342 0.794 0.794 0.794 0.232 0 0.43-0.077 0.574-0.221l3.187-3.209c0.209-0.221 0.309-0.397 0.309-0.629z"></path>
</svg>
