<!-- Generated by IcoMoon.io -->
<svg version="1.1" xmlns="http://www.w3.org/2000/svg" width="32" height="32" viewBox="0 0 32 32">
<title>arrow-down-to-line-circle-fill</title>
<path d="M15.956 27.217c6.154 0 11.25-5.096 11.25-11.25 0-6.143-5.107-11.25-11.261-11.25-6.143 0-11.239 5.107-11.239 11.25 0 6.154 5.107 11.25 11.25 11.25zM15.945 19.596c-0.21 0-0.408-0.088-0.574-0.265l-3.838-3.927c-0.143-0.154-0.232-0.386-0.232-0.563 0-0.441 0.298-0.75 0.728-0.75 0.243 0 0.419 0.066 0.563 0.221l0.64 0.706 2.073 2.327-0.132-2.085v-5.217c0-0.441 0.309-0.761 0.772-0.761 0.43 0 0.761 0.32 0.761 0.761v5.217l-0.121 2.074 2.040-2.305 0.695-0.717c0.154-0.154 0.353-0.221 0.574-0.221 0.419 0 0.717 0.331 0.717 0.75 0 0.21-0.066 0.386-0.243 0.574l-3.849 3.915c-0.154 0.165-0.364 0.265-0.574 0.265zM11.688 21.989c-0.441 0-0.761-0.32-0.761-0.772 0-0.43 0.32-0.761 0.761-0.761h8.548c0.441 0 0.75 0.331 0.75 0.761 0 0.452-0.309 0.772-0.75 0.772h-8.548z"></path>
</svg>
