<!-- Generated by IcoMoon.io -->
<svg version="1.1" xmlns="http://www.w3.org/2000/svg" width="32" height="32" viewBox="0 0 32 32">
<title>arrow-uturn-up</title>
<path d="M12.684 26.614c4.224 0 7.125-2.846 7.125-7.886v-7.467l-0.154-3.419-0.507 0.199 2.338 2.724 3.099 3.176c0.176 0.176 0.397 0.276 0.673 0.276 0.574 0 0.971-0.397 0.971-0.982 0-0.243-0.11-0.529-0.298-0.717l-6.364-6.485c-0.21-0.221-0.474-0.32-0.739-0.32-0.276 0-0.529 0.099-0.739 0.32l-6.364 6.485c-0.187 0.187-0.309 0.474-0.309 0.717 0 0.585 0.408 0.982 0.971 0.982 0.287 0 0.507-0.099 0.684-0.276l3.099-3.176 2.338-2.724-0.518-0.199-0.143 3.419v7.632c0 3.761-2.085 5.757-5.051 5.757s-5.184-1.996-5.184-5.757v-2.537c0-0.607-0.441-1.004-0.982-1.004s-0.982 0.397-0.982 1.004v2.548c0 4.941 2.813 7.71 7.037 7.71z"></path>
</svg>
