<!-- Generated by IcoMoon.io -->
<svg version="1.1" xmlns="http://www.w3.org/2000/svg" width="32" height="32" viewBox="0 0 32 32">
<title>arrow-uturn-right</title>
<path d="M5.647 20.467c0 4.224 2.768 7.037 7.71 7.037h2.548c0.607 0 1.004-0.441 1.004-0.982s-0.397-0.982-1.004-0.982h-2.537c-3.761 0-5.757-2.206-5.757-5.184 0-2.967 1.996-5.040 5.757-5.040h7.566l3.43-0.154-0.198-0.507-2.735 2.338-3.176 3.099c-0.176 0.176-0.265 0.386-0.265 0.673 0 0.574 0.386 0.971 0.971 0.971 0.243 0 0.529-0.11 0.717-0.309l6.485-6.364c0.221-0.21 0.331-0.463 0.331-0.728 0-0.276-0.11-0.529-0.331-0.739l-6.485-6.364c-0.187-0.188-0.474-0.309-0.717-0.309-0.585 0-0.971 0.397-0.971 0.971 0 0.287 0.088 0.496 0.265 0.673l3.176 3.11 2.735 2.327 0.198-0.507-3.43-0.154h-7.401c-5.040 0-7.886 2.912-7.886 7.125z"></path>
</svg>
