<!-- Generated by IcoMoon.io -->
<svg version="1.1" xmlns="http://www.w3.org/2000/svg" width="32" height="32" viewBox="0 0 32 32">
<title>arrowtriangle-forward-circle</title>
<path d="M15.956 27.206c6.154 0 11.25-5.107 11.25-11.25 0-6.154-5.107-11.25-11.261-11.25-6.143 0-11.239 5.096-11.239 11.25 0 6.143 5.107 11.25 11.25 11.25zM15.956 25.331c-5.206 0-9.364-4.169-9.364-9.375s4.147-9.375 9.353-9.375c5.206 0 9.386 4.169 9.386 9.375s-4.169 9.375-9.375 9.375zM13.893 20.268l6.276-3.717c0.463-0.265 0.452-0.904 0-1.18l-6.276-3.717c-0.474-0.276-1.103-0.066-1.103 0.474v7.665c0 0.529 0.585 0.783 1.103 0.474z"></path>
</svg>
