<!-- Generated by IcoMoon.io -->
<svg version="1.1" xmlns="http://www.w3.org/2000/svg" width="32" height="32" viewBox="0 0 32 32">
<title>arrow-down-to-line</title>
<path d="M24.25 17.213c0-0.541-0.397-0.96-0.949-0.96-0.265 0-0.518 0.088-0.695 0.265l-2.515 2.471-3.949 4.335 0.618 0.221 0.11-3.287v-14.537c0-0.563-0.408-0.971-0.982-0.971s-0.982 0.408-0.982 0.971v14.537l0.11 3.287 0.629-0.221-3.96-4.334-2.515-2.471c-0.165-0.176-0.43-0.265-0.695-0.265-0.551 0-0.949 0.419-0.949 0.96 0 0.265 0.099 0.496 0.309 0.717l7.313 7.335c0.21 0.221 0.463 0.331 0.739 0.331s0.529-0.11 0.739-0.331l7.323-7.335c0.21-0.221 0.298-0.452 0.298-0.717zM24.25 26.577c0-0.574-0.386-0.982-0.949-0.982h-14.801c-0.574 0-0.971 0.408-0.971 0.982s0.397 0.993 0.971 0.993h14.801c0.563 0 0.949-0.419 0.949-0.993z"></path>
</svg>
