<!-- Generated by IcoMoon.io -->
<svg version="1.1" xmlns="http://www.w3.org/2000/svg" width="32" height="32" viewBox="0 0 32 32">
<title>arrow-down-backward-circle</title>
<path d="M15.956 27.206c6.154 0 11.25-5.107 11.25-11.25 0-6.154-5.107-11.25-11.261-11.25-6.143 0-11.239 5.096-11.239 11.25 0 6.143 5.107 11.25 11.25 11.25zM15.956 25.331c-5.206 0-9.364-4.169-9.364-9.375s4.147-9.375 9.353-9.375c5.206 0 9.386 4.169 9.386 9.375s-4.169 9.375-9.375 9.375zM12.482 13.221c-0.485 0-0.816 0.364-0.816 0.882v5.206c0 0.651 0.364 0.904 0.927 0.904h5.228c0.518 0 0.849-0.32 0.849-0.805s-0.342-0.805-0.871-0.805h-2.007l-1.632 0.176 1.721-1.61 4.070-4.059c0.154-0.154 0.265-0.375 0.265-0.596 0-0.496-0.331-0.816-0.816-0.816-0.265 0-0.474 0.099-0.629 0.254l-4.059 4.059-1.588 1.699 0.165-1.721v-1.908c0-0.529-0.32-0.86-0.805-0.86z"></path>
</svg>
