<!-- Generated by IcoMoon.io -->
<svg version="1.1" xmlns="http://www.w3.org/2000/svg" width="32" height="32" viewBox="0 0 32 32">
<title>arrow-uturn-down-square-fill</title>
<path d="M9.11 25.952h13.379c2.316 0 3.463-1.147 3.463-3.419v-13.467c0-2.272-1.147-3.419-3.463-3.419h-13.379c-2.305 0-3.463 1.136-3.463 3.419v13.467c0 2.283 1.158 3.419 3.463 3.419zM16.996 10.004c2.636 0 4.357 1.787 4.357 4.445v1.489c0 0.529-0.331 0.882-0.816 0.882-0.496 0-0.827-0.342-0.827-0.86v-1.511c0-1.665-1.081-2.801-2.713-2.801-1.511 0-2.515 1.114-2.515 2.79v3.232l-0.044 1.125 0.364-0.518 1.29-1.335c0.154-0.165 0.364-0.265 0.607-0.265 0.474 0 0.849 0.364 0.849 0.816 0 0.254-0.088 0.452-0.243 0.607l-2.956 2.89c-0.21 0.209-0.452 0.298-0.695 0.298-0.254 0-0.496-0.099-0.706-0.298l-2.923-2.879c-0.165-0.165-0.243-0.353-0.243-0.607 0-0.463 0.375-0.827 0.849-0.827 0.221 0 0.441 0.099 0.585 0.265l1.081 1.114 0.596 0.75-0.055-1.136v-3.232c0-2.658 1.665-4.434 4.158-4.434z"></path>
</svg>
