<!-- Generated by IcoMoon.io -->
<svg version="1.1" xmlns="http://www.w3.org/2000/svg" width="32" height="32" viewBox="0 0 32 32">
<title>arrow-up-right-and-arrow-down-left-rectangle-fill</title>
<path d="M6.287 25.952h19.081c2.316 0 3.463-1.136 3.463-3.408v-13.478c0-2.272-1.147-3.419-3.463-3.419h-19.081c-2.305 0-3.463 1.147-3.463 3.419v13.478c0 2.272 1.158 3.408 3.463 3.408zM6.54 17.504c0-0.21 0.088-0.408 0.309-0.618l4.798-4.798 0.871-0.805-2.79 0.11h-1.114c-0.474 0-0.838-0.331-0.838-0.805 0-0.485 0.342-0.805 0.838-0.805h5.636c0.507 0 0.849 0.331 0.849 0.827v5.482c0 0.507-0.331 0.838-0.805 0.838-0.485 0-0.805-0.331-0.805-0.838v-1.103l0.099-2.658-0.794 0.882-4.809 4.798c-0.221 0.221-0.419 0.309-0.607 0.309-0.452 0-0.838-0.386-0.838-0.816zM25.268 14.118c0 0.21-0.077 0.408-0.298 0.618l-4.809 4.809-0.86 0.794 2.791-0.099h1.114c0.463 0 0.838 0.32 0.838 0.794 0 0.485-0.353 0.816-0.838 0.816h-5.636c-0.507 0-0.849-0.342-0.849-0.838v-5.482c0-0.507 0.331-0.838 0.805-0.838 0.485 0 0.805 0.331 0.805 0.838v1.103l-0.099 2.658 0.794-0.882 4.798-4.798c0.232-0.221 0.43-0.309 0.618-0.309 0.452 0 0.827 0.386 0.827 0.816z"></path>
</svg>
