<!-- Generated by IcoMoon.io -->
<svg version="1.1" xmlns="http://www.w3.org/2000/svg" width="32" height="32" viewBox="0 0 32 32">
<title>arrow-left-arrow-right-square</title>
<path d="M9.11 25.974h13.379c2.316 0 3.463-1.147 3.463-3.419v-13.467c0-2.272-1.147-3.419-3.463-3.419h-13.379c-2.305 0-3.463 1.136-3.463 3.419v13.467c0 2.283 1.158 3.419 3.463 3.419zM9.132 24.198c-1.103 0-1.71-0.585-1.71-1.732v-13.29c0-1.147 0.607-1.732 1.71-1.732h13.335c1.092 0 1.71 0.585 1.71 1.732v13.29c0 1.147-0.618 1.732-1.71 1.732h-13.335zM10.643 11.978c-0.298 0.287-0.287 0.794 0 1.070l2.768 2.713c0.143 0.121 0.353 0.21 0.518 0.21 0.419 0 0.706-0.287 0.706-0.695 0-0.199-0.077-0.375-0.21-0.507l-1.169-1.136-0.463-0.43 0.518 0.033h7.169c0.408 0 0.706-0.32 0.706-0.728s-0.298-0.706-0.706-0.706h-7.158l-0.518 0.011 0.452-0.408 1.169-1.136c0.132-0.132 0.21-0.32 0.21-0.507 0-0.419-0.287-0.706-0.706-0.706-0.176 0-0.386 0.088-0.518 0.232l-2.768 2.691zM20.967 19.643c0.298-0.298 0.287-0.75 0-1.037l-2.779-2.713c-0.121-0.132-0.331-0.221-0.518-0.221-0.419 0-0.706 0.287-0.706 0.695 0 0.199 0.077 0.375 0.21 0.507l1.643 1.566-0.529-0.033h-7.158c-0.397 0-0.706 0.298-0.706 0.717 0 0.408 0.298 0.717 0.706 0.717h7.147l0.54-0.011-0.452 0.408-1.18 1.136c-0.132 0.143-0.221 0.309-0.221 0.507 0 0.408 0.309 0.706 0.706 0.706 0.165 0 0.375-0.088 0.518-0.221l2.779-2.724z"></path>
</svg>
