<!-- Generated by IcoMoon.io -->
<svg version="1.1" xmlns="http://www.w3.org/2000/svg" width="32" height="32" viewBox="0 0 32 32">
<title>arrowtriangle-left-and-line-vertical-and-arrowtriangle-right-fill</title>
<path d="M0.827 17.555l8.349 5.118c1.125 0.684 2.228 0.188 2.228-1.158v-10.522c0-1.312-1.081-1.842-2.228-1.147l-8.349 5.118c-1.114 0.673-1.092 1.919 0 2.592zM16.434 27.79c0.43 0 0.816-0.342 0.816-0.772v-21.529c0-0.43-0.386-0.761-0.816-0.761s-0.805 0.331-0.805 0.761v21.529c0 0.43 0.375 0.772 0.805 0.772zM23.691 22.673l8.36-5.118c1.081-0.673 1.103-1.919 0-2.592l-8.36-5.118c-1.147-0.695-2.228-0.165-2.228 1.147v10.522c0 1.346 1.103 1.842 2.228 1.158z"></path>
</svg>
