<!-- Generated by IcoMoon.io -->
<svg version="1.1" xmlns="http://www.w3.org/2000/svg" width="32" height="32" viewBox="0 0 32 32">
<title>arrow-uturn-right-square-fill</title>
<path d="M9.11 25.952h13.379c2.316 0 3.463-1.147 3.463-3.419v-13.467c0-2.272-1.147-3.419-3.463-3.419h-13.379c-2.305 0-3.463 1.136-3.463 3.419v13.467c0 2.283 1.158 3.419 3.463 3.419zM10.147 17.018c0-2.504 1.776-4.158 4.445-4.158h3.221l1.136 0.055-0.75-0.596-1.114-1.081c-0.165-0.143-0.254-0.364-0.254-0.585 0-0.485 0.342-0.849 0.816-0.849 0.254 0 0.441 0.077 0.607 0.243l2.879 2.923c0.199 0.21 0.298 0.452 0.298 0.706 0 0.243-0.088 0.485-0.298 0.695l-2.89 2.956c-0.154 0.154-0.353 0.243-0.607 0.243-0.452 0-0.805-0.375-0.805-0.849 0-0.243 0.088-0.441 0.254-0.607l1.335-1.29 0.518-0.364-1.125 0.044h-3.221c-1.688 0-2.801 1.004-2.801 2.515 0 1.632 1.136 2.713 2.813 2.713h1.5c0.518 0 0.86 0.331 0.86 0.816 0 0.496-0.353 0.827-0.882 0.827h-1.478c-2.669 0-4.456-1.721-4.456-4.357z"></path>
</svg>
