<!-- Generated by IcoMoon.io -->
<svg version="1.1" xmlns="http://www.w3.org/2000/svg" width="32" height="32" viewBox="0 0 32 32">
<title>arrow-left-arrow-right-circle</title>
<path d="M15.956 27.206c6.154 0 11.25-5.107 11.25-11.25 0-6.154-5.107-11.25-11.261-11.25-6.143 0-11.239 5.096-11.239 11.25 0 6.143 5.107 11.25 11.25 11.25zM15.956 25.331c-5.206 0-9.364-4.169-9.364-9.375s4.147-9.375 9.353-9.375c5.206 0 9.386 4.169 9.386 9.375s-4.169 9.375-9.375 9.375zM10.772 12.129c-0.287 0.287-0.276 0.794 0 1.070l2.779 2.713c0.143 0.121 0.342 0.21 0.518 0.21 0.408 0 0.706-0.287 0.706-0.695 0-0.198-0.077-0.375-0.21-0.507l-1.169-1.136-0.463-0.43 0.518 0.033h7.158c0.408 0 0.717-0.32 0.717-0.728s-0.298-0.706-0.717-0.706h-7.147l-0.518 0.011 0.452-0.408 1.169-1.136c0.132-0.132 0.21-0.32 0.21-0.507 0-0.419-0.298-0.706-0.706-0.706-0.176 0-0.386 0.088-0.518 0.232l-2.779 2.691zM21.107 19.794c0.298-0.298 0.276-0.75 0-1.037l-2.779-2.713c-0.121-0.132-0.331-0.221-0.518-0.221-0.419 0-0.706 0.287-0.706 0.695 0 0.198 0.077 0.375 0.209 0.507l1.18 1.136 0.463 0.43-0.529-0.033h-7.158c-0.397 0-0.706 0.298-0.706 0.717 0 0.408 0.298 0.717 0.706 0.717h7.147l0.54-0.011-0.463 0.408-1.169 1.136c-0.132 0.143-0.221 0.309-0.221 0.507 0 0.408 0.309 0.706 0.706 0.706 0.165 0 0.375-0.088 0.518-0.221l2.779-2.724z"></path>
</svg>
