<!-- Generated by IcoMoon.io -->
<svg version="1.1" xmlns="http://www.w3.org/2000/svg" width="32" height="32" viewBox="0 0 32 32">
<title>arrow-turn-right-down</title>
<path d="M9.857 5.647c-0.629 0-1.169 0.022-1.5 0.077-0.441 0.088-0.827 0.375-0.827 0.938 0 0.574 0.408 0.938 0.982 0.938 0.375 0 0.739-0.022 1.246-0.022 3.927 0 5.658 1.335 5.647 5.327l-0.011 7.544 0.099 3-2.217-2.427-3.607-3.618c-0.176-0.176-0.441-0.265-0.706-0.265-0.54 0-0.949 0.419-0.949 0.96 0 0.265 0.099 0.496 0.309 0.717l7.324 7.335c0.21 0.221 0.463 0.331 0.728 0.331 0.276 0 0.529-0.11 0.739-0.331l7.323-7.335c0.21-0.221 0.309-0.452 0.309-0.717 0-0.541-0.408-0.96-0.96-0.96-0.254 0-0.518 0.088-0.695 0.265l-3.618 3.618-2.195 2.415 0.088-2.989v-7.643c0-5.129-2.404-7.158-7.511-7.158z"></path>
</svg>
