<!-- Generated by IcoMoon.io -->
<svg version="1.1" xmlns="http://www.w3.org/2000/svg" width="32" height="32" viewBox="0 0 32 32">
<title>arrow-clockwise-heart</title>
<path d="M11.765 17.294c0 2.14 1.688 3.849 3.805 3.849s3.805-1.71 3.805-3.827c0-0.364-0.309-0.673-0.673-0.673-0.375 0-0.684 0.309-0.684 0.673 0 1.368-1.092 2.46-2.448 2.46s-2.449-1.092-2.449-2.46c0-1.114 0.75-2.040 1.765-2.338v1.059c0 0.408 0.441 0.562 0.75 0.298l1.798-1.544c0.298-0.265 0.298-0.618 0-0.871l-1.798-1.522c-0.309-0.265-0.75-0.11-0.75 0.298v0.904c-1.732 0.265-3.121 1.853-3.121 3.695zM4.706 12.982c0 4.699 3.937 9.32 10.158 13.29 0.232 0.143 0.573 0.298 0.794 0.298 0.232 0 0.563-0.154 0.805-0.298 6.221-3.971 10.158-8.592 10.158-13.29 0-3.904-2.68-6.662-6.265-6.662-2.040 0-3.695 0.971-4.699 2.46-0.982-1.478-2.647-2.46-4.699-2.46-3.574 0-6.254 2.757-6.254 6.662zM6.482 12.982c0-2.934 1.897-4.886 4.456-4.886 2.085 0 3.265 1.29 3.982 2.393 0.298 0.441 0.485 0.563 0.739 0.563 0.265 0 0.43-0.132 0.75-0.563 0.761-1.081 1.908-2.393 3.971-2.393 2.57 0 4.467 1.952 4.467 4.886 0 4.103-4.334 8.526-8.956 11.592-0.11 0.077-0.187 0.132-0.232 0.132-0.033 0-0.11-0.055-0.221-0.132-4.621-3.066-8.956-7.489-8.956-11.592z"></path>
</svg>
