<!-- Generated by IcoMoon.io -->
<svg version="1.1" xmlns="http://www.w3.org/2000/svg" width="32" height="32" viewBox="0 0 32 32">
<title>arrow-right-to-line-circle</title>
<path d="M15.956 27.206c6.154 0 11.25-5.107 11.25-11.25 0-6.154-5.107-11.25-11.261-11.25-6.143 0-11.239 5.096-11.239 11.25 0 6.143 5.107 11.25 11.25 11.25zM15.956 25.331c-5.206 0-9.364-4.169-9.364-9.375s4.147-9.375 9.353-9.375c5.206 0 9.386 4.169 9.386 9.375s-4.169 9.375-9.375 9.375zM9.018 15.967c0 0.441 0.309 0.739 0.728 0.739h5.063l2.029-0.121-2.239 1.985-0.706 0.651c-0.154 0.132-0.221 0.309-0.221 0.529 0 0.43 0.309 0.717 0.728 0.717 0.176 0 0.408-0.099 0.562-0.243l3.794-3.706c0.165-0.154 0.243-0.353 0.243-0.552 0-0.21-0.088-0.397-0.243-0.562l-3.805-3.739c-0.165-0.165-0.353-0.232-0.551-0.232-0.397 0-0.728 0.287-0.728 0.706 0 0.199 0.066 0.397 0.221 0.541l0.695 0.684 2.239 1.985-2.018-0.121h-5.063c-0.419 0-0.728 0.309-0.728 0.739zM20.577 20.82c0.441 0 0.75-0.298 0.75-0.728v-8.283c0-0.43-0.309-0.728-0.75-0.728-0.419 0-0.728 0.298-0.728 0.728v8.283c0 0.43 0.309 0.728 0.728 0.728z"></path>
</svg>
