<!-- Generated by IcoMoon.io -->
<svg version="1.1" xmlns="http://www.w3.org/2000/svg" width="32" height="32" viewBox="0 0 32 32">
<title>arrow-down-left</title>
<path d="M7.529 11.688l0.011 11.096c0 0.629 0.408 1.059 1.070 1.059h11.096c0.618 0 1.037-0.463 1.037-0.993s-0.474-0.982-0.993-0.982h-3.838l-5.382 0.176 2.051-1.809 10.93-10.941c0.198-0.199 0.309-0.463 0.309-0.695 0-0.529-0.485-1.037-1.037-1.037-0.243 0-0.485 0.099-0.695 0.298l-10.941 10.952-1.82 2.051 0.199-5.151v-4.070c0-0.529-0.452-1.004-0.993-1.004s-1.004 0.441-1.004 1.048z"></path>
</svg>
