<!-- Generated by IcoMoon.io -->
<svg version="1.1" xmlns="http://www.w3.org/2000/svg" width="32" height="32" viewBox="0 0 32 32">
<title>arrow-backward-to-line-circle</title>
<path d="M15.956 27.206c6.154 0 11.25-5.107 11.25-11.25 0-6.154-5.107-11.25-11.261-11.25-6.143 0-11.239 5.096-11.239 11.25 0 6.143 5.107 11.25 11.25 11.25zM15.956 25.331c-5.206 0-9.364-4.169-9.364-9.375s4.147-9.375 9.353-9.375c5.206 0 9.386 4.169 9.386 9.375s-4.169 9.375-9.375 9.375zM11.312 20.82c0.419 0 0.728-0.298 0.728-0.728v-8.283c0-0.43-0.309-0.728-0.728-0.728-0.43 0-0.75 0.298-0.75 0.728v8.283c0 0.43 0.32 0.728 0.75 0.728zM22.882 15.967c0-0.43-0.32-0.739-0.739-0.739h-5.063l-2.018 0.121 2.239-1.985 0.695-0.684c0.154-0.143 0.221-0.342 0.221-0.541 0-0.419-0.32-0.706-0.728-0.706-0.198 0-0.386 0.066-0.54 0.232l-3.805 3.739c-0.165 0.165-0.254 0.353-0.254 0.562 0 0.199 0.077 0.397 0.254 0.552l3.794 3.706c0.143 0.143 0.375 0.243 0.563 0.243 0.419 0 0.717-0.287 0.717-0.717 0-0.221-0.066-0.397-0.221-0.529l-0.706-0.651-2.239-1.985 2.029 0.121h5.063c0.419 0 0.739-0.298 0.739-0.739z"></path>
</svg>
