<!-- Generated by IcoMoon.io -->
<svg version="1.1" xmlns="http://www.w3.org/2000/svg" width="32" height="32" viewBox="0 0 32 32">
<title>arrow-triangle-pull</title>
<path d="M13.674 26.016c0.618 0 0.96-0.364 0.96-0.993v-8.526h-0.816c0.915 2.647 3.54 4.831 7.048 6 0.629 0.232 1.136-0.088 1.313-0.518 0.198-0.43 0.055-0.971-0.574-1.257-4.092-1.676-6.971-4.279-6.971-8.283v-4.114h-1.93v16.698c0 0.629 0.342 0.993 0.971 0.993zM11.137 9.748h5.063c0.783 0 0.982-0.54 0.563-1.147l-2.471-3.518c-0.353-0.496-0.882-0.507-1.246 0l-2.471 3.507c-0.43 0.618-0.232 1.158 0.562 1.158z"></path>
</svg>
