<!-- Generated by IcoMoon.io -->
<svg version="1.1" xmlns="http://www.w3.org/2000/svg" width="32" height="32" viewBox="0 0 32 32">
<title>arrow-right-circle</title>
<path d="M15.956 27.206c6.154 0 11.25-5.107 11.25-11.25 0-6.154-5.107-11.25-11.261-11.25-6.143 0-11.239 5.096-11.239 11.25 0 6.143 5.107 11.25 11.25 11.25zM15.956 25.331c-5.206 0-9.364-4.169-9.364-9.375s4.147-9.375 9.353-9.375c5.206 0 9.386 4.169 9.386 9.375s-4.169 9.375-9.375 9.375zM21.614 15.945c0-0.243-0.088-0.419-0.309-0.64l-3.728-3.75c-0.143-0.143-0.342-0.221-0.574-0.221-0.452 0-0.794 0.342-0.794 0.794 0 0.243 0.099 0.441 0.243 0.596l1.379 1.368 1.335 1.114-2.327-0.088h-5.757c-0.474 0-0.827 0.342-0.827 0.827 0 0.474 0.353 0.816 0.827 0.816h5.757l2.327-0.077-1.335 1.114-1.379 1.368c-0.154 0.143-0.243 0.342-0.243 0.585 0 0.452 0.342 0.805 0.794 0.805 0.232 0 0.43-0.088 0.574-0.232l3.728-3.739c0.21-0.198 0.309-0.397 0.309-0.64z"></path>
</svg>
