<!-- Generated by IcoMoon.io -->
<svg version="1.1" xmlns="http://www.w3.org/2000/svg" width="32" height="32" viewBox="0 0 32 32">
<title>arrow-forward-to-line</title>
<path d="M17.169 24.25c0.265 0 0.496-0.088 0.717-0.298l7.335-7.323c0.221-0.21 0.331-0.463 0.331-0.739 0-0.265-0.11-0.518-0.331-0.739l-7.335-7.313c-0.221-0.21-0.452-0.309-0.717-0.309-0.54 0-0.96 0.408-0.96 0.949 0 0.265 0.088 0.529 0.265 0.706l2.471 2.504 4.335 3.96 0.221-0.618-3.287-0.121h-14.537c-0.574 0-0.971 0.408-0.971 0.982s0.397 0.993 0.971 0.993h14.537l3.287-0.121-0.221-0.607-4.335 3.938-2.471 2.515c-0.176 0.176-0.265 0.441-0.265 0.695 0 0.552 0.419 0.949 0.96 0.949zM26.533 24.25c0.574 0 0.993-0.386 0.993-0.949v-14.79c0-0.574-0.419-0.982-0.993-0.982s-0.982 0.408-0.982 0.982v14.79c0 0.563 0.408 0.949 0.982 0.949z"></path>
</svg>
