<!-- Generated by IcoMoon.io -->
<svg version="1.1" xmlns="http://www.w3.org/2000/svg" width="32" height="32" viewBox="0 0 32 32">
<title>arrowshape-backward</title>
<path d="M3.765 15.761c0 0.364 0.143 0.783 0.563 1.18l8.702 8.217c0.529 0.496 0.971 0.717 1.511 0.717 0.75 0 1.29-0.552 1.29-1.29v-4.213h8.956c1.743 0 2.757-0.993 2.757-2.702v-3.805c0-1.71-1.015-2.702-2.757-2.702h-8.956v-4.169c0-0.739-0.54-1.346-1.312-1.346-0.54 0-0.904 0.232-1.489 0.783l-8.702 8.14c-0.43 0.408-0.563 0.816-0.563 1.191zM5.739 15.761c0-0.066 0.033-0.132 0.121-0.21l7.853-7.533c0.055-0.044 0.121-0.088 0.187-0.088 0.099 0 0.154 0.066 0.154 0.154v4.379c0 0.254 0.121 0.364 0.375 0.364h10.335c0.706 0 1.114 0.408 1.114 1.125v3.629c0 0.717-0.408 1.125-1.114 1.125h-10.335c-0.254 0-0.375 0.11-0.375 0.364v4.268c0 0.099-0.055 0.165-0.143 0.165-0.066 0-0.132-0.033-0.187-0.099l-7.864-7.434c-0.088-0.088-0.121-0.143-0.121-0.21z"></path>
</svg>
