<!-- Generated by IcoMoon.io -->
<svg version="1.1" xmlns="http://www.w3.org/2000/svg" width="32" height="32" viewBox="0 0 32 32">
<title>arrow-up-bin</title>
<path d="M16.93 21.496v-3.971l-0.077-1.787 1.908 1.952c0.154 0.154 0.364 0.243 0.585 0.243 0.441 0 0.783-0.309 0.783-0.75 0-0.254-0.11-0.441-0.287-0.596l-3.143-2.901c-0.232-0.21-0.397-0.287-0.618-0.287-0.21 0-0.386 0.077-0.618 0.287l-3.143 2.901c-0.176 0.154-0.276 0.342-0.276 0.596 0 0.441 0.331 0.75 0.783 0.75 0.198 0 0.43-0.088 0.585-0.243l0.96-0.993 0.938-0.96-0.066 1.787v3.971c0 0.452 0.386 0.827 0.838 0.827s0.849-0.375 0.849-0.827zM10.257 25.974h11.581c2.173 0 3.132-1.015 3.463-3.176l1.776-12-1.776 0.11-1.765 11.868c-0.165 1.092-0.75 1.533-1.721 1.533h-11.526c-0.993 0-1.566-0.441-1.721-1.533l-1.765-11.868-1.776-0.11 1.776 12c0.32 2.173 1.29 3.176 3.452 3.176zM4.919 11.735h22.268c1.357 0 2.096-0.849 2.096-2.195v-1.676c0-1.346-0.739-2.195-2.096-2.195h-22.268c-1.29 0-2.096 0.849-2.096 2.195v1.676c0 1.346 0.739 2.195 2.096 2.195zM5.371 10.070c-0.551 0-0.772-0.232-0.772-0.783v-1.169c0-0.551 0.221-0.783 0.772-0.783h21.375c0.551 0 0.761 0.232 0.761 0.783v1.169c0 0.551-0.21 0.783-0.761 0.783h-21.375z"></path>
</svg>
