<!-- Generated by IcoMoon.io -->
<svg version="1.1" xmlns="http://www.w3.org/2000/svg" width="32" height="32" viewBox="0 0 32 32">
<title>arrow-down-right-square-fill</title>
<path d="M9.11 25.974h13.379c2.316 0 3.463-1.147 3.463-3.419v-13.467c0-2.272-1.147-3.419-3.463-3.419h-13.379c-2.305 0-3.463 1.136-3.463 3.419v13.467c0 2.283 1.158 3.419 3.463 3.419zM19.368 12.982c0.496 0 0.838 0.375 0.838 0.915v5.36c0 0.673-0.375 0.938-0.96 0.938h-5.382c-0.541 0-0.882-0.331-0.882-0.838 0-0.496 0.353-0.827 0.904-0.827h2.051l1.688 0.176-1.776-1.665-4.18-4.158c-0.165-0.165-0.265-0.397-0.265-0.618 0-0.518 0.331-0.849 0.827-0.849 0.276 0 0.496 0.099 0.662 0.265l4.158 4.169 1.643 1.754-0.165-1.776v-1.952c0-0.552 0.331-0.893 0.838-0.893z"></path>
</svg>
