<!-- Generated by IcoMoon.io -->
<svg version="1.1" xmlns="http://www.w3.org/2000/svg" width="32" height="32" viewBox="0 0 32 32">
<title>arrowtriangle-left-and-line-vertical-and-arrowtriangle-right</title>
<path d="M0.827 17.555l8.349 5.118c1.048 0.64 2.228 0.188 2.228-1.158v-10.522c0-1.312-1.158-1.798-2.228-1.147l-8.349 5.118c-1.114 0.673-1.092 1.919 0 2.592zM2.007 16.485c-0.165-0.11-0.265-0.287 0-0.463l7.401-4.577c0.11-0.077 0.386-0.11 0.386 0.187v9.254c0 0.276-0.254 0.276-0.386 0.187l-7.401-4.588zM16.434 27.79c0.43 0 0.816-0.342 0.816-0.772v-21.529c0-0.43-0.386-0.761-0.816-0.761s-0.805 0.331-0.805 0.761v21.529c0 0.43 0.375 0.772 0.805 0.772zM23.691 22.673l8.36-5.118c1.081-0.673 1.103-1.919 0-2.592l-8.36-5.118c-1.070-0.651-2.228-0.165-2.228 1.147v10.522c0 1.346 1.18 1.798 2.228 1.158zM23.46 21.073c-0.132 0.077-0.386 0.088-0.386-0.187v-9.254c0-0.298 0.276-0.265 0.386-0.187l7.401 4.577c0.265 0.176 0.176 0.364 0 0.463l-7.401 4.588z"></path>
</svg>
