<!-- Generated by IcoMoon.io -->
<svg version="1.1" xmlns="http://www.w3.org/2000/svg" width="32" height="32" viewBox="0 0 32 32">
<title>arrow-uturn-down-circle</title>
<path d="M15.956 27.206c6.154 0 11.25-5.107 11.25-11.25 0-6.154-5.107-11.25-11.261-11.25-6.143 0-11.239 5.096-11.239 11.25 0 6.143 5.107 11.25 11.25 11.25zM15.956 25.331c-5.206 0-9.364-4.169-9.364-9.375s4.147-9.375 9.353-9.375c5.206 0 9.386 4.169 9.386 9.375s-4.169 9.375-9.375 9.375zM16.982 10.287c-2.658 0-4.257 1.908-4.257 4.489v3.287l0.033 1.312-0.684-0.871-1.103-1.147c-0.143-0.143-0.342-0.243-0.573-0.243-0.452 0-0.805 0.342-0.805 0.783 0 0.232 0.077 0.419 0.243 0.574l2.978 2.923c0.187 0.187 0.419 0.298 0.673 0.298 0.265 0 0.485-0.11 0.673-0.298l3-2.934c0.154-0.154 0.232-0.342 0.232-0.574 0-0.43-0.342-0.772-0.805-0.772-0.21 0-0.419 0.077-0.563 0.232l-1.335 1.39-0.474 0.64 0.055-1.312v-3.287c0-1.621 0.926-2.868 2.625-2.868 1.743 0 2.813 1.213 2.813 2.879 0 0.132 0 1.489 0 1.533 0 0.463 0.276 0.827 0.783 0.827 0.518 0 0.794-0.364 0.794-0.849 0-0.055 0-1.379 0-1.511 0-2.581-1.654-4.5-4.301-4.5z"></path>
</svg>
