<!-- Generated by IcoMoon.io -->
<svg version="1.1" xmlns="http://www.w3.org/2000/svg" width="32" height="32" viewBox="0 0 32 32">
<title>arrow-counterclockwise-icloud-fill</title>
<path d="M23.676 24.816c3.331 0 5.934-2.438 5.934-5.471 0-2.316-1.334-4.324-3.485-5.228 0.022-4.919-3.518-8.471-8.029-8.471-2.989 0-5.118 1.599-6.441 3.529-2.713-0.794-5.669 1.268-5.724 4.357-2.493 0.397-4.048 2.625-4.048 5.316 0 3.243 2.835 5.967 6.607 5.967h15.187zM20.566 16.599c0 2.581-2.040 4.632-4.588 4.632-2.537 0-4.577-2.051-4.577-4.599 0-0.375 0.32-0.695 0.706-0.695 0.397 0 0.717 0.32 0.717 0.695 0 1.765 1.401 3.187 3.154 3.187 1.765 0 3.165-1.423 3.165-3.187 0-1.743-1.401-3.154-3.165-3.154-0.121 0-0.254 0.011-0.353 0.033l0.982 0.971c0.121 0.121 0.199 0.287 0.199 0.463 0 0.375-0.287 0.662-0.651 0.662-0.165 0-0.342-0.077-0.452-0.187l-1.985-1.985c-0.254-0.254-0.254-0.717 0-0.96l1.963-2.007c0.11-0.132 0.298-0.21 0.474-0.21 0.364 0 0.651 0.309 0.651 0.673 0 0.165-0.077 0.353-0.188 0.463l-0.695 0.739c0.066-0.011 0.165-0.022 0.254-0.022 2.316 0 4.39 1.963 4.39 4.489z"></path>
</svg>
