<!-- Generated by IcoMoon.io -->
<svg version="1.1" xmlns="http://www.w3.org/2000/svg" width="32" height="32" viewBox="0 0 32 32">
<title>arrow-up-forward-app</title>
<path d="M24.695 6.971c-1.125-1.125-2.713-1.301-4.599-1.301h-8.592c-1.853 0-3.441 0.176-4.566 1.301s-1.29 2.702-1.29 4.544v8.515c0 1.886 0.165 3.452 1.29 4.577s2.713 1.301 4.588 1.301h8.57c1.886 0 3.474-0.176 4.599-1.301s1.29-2.691 1.29-4.577v-8.482c0-1.886-0.165-3.463-1.29-4.577zM24.21 11.239v9.088c0 1.147-0.143 2.316-0.816 2.989-0.662 0.662-1.853 0.816-2.989 0.816h-9.176c-1.136 0-2.327-0.154-3-0.816-0.662-0.673-0.805-1.842-0.805-2.989v-9.055c0-1.158 0.143-2.349 0.805-3.011 0.673-0.673 1.875-0.816 3.033-0.816h9.143c1.136 0 2.327 0.154 2.989 0.816 0.673 0.673 0.816 1.842 0.816 2.978zM19.279 18.507c0.485 0 0.805-0.375 0.805-0.882v-5.206c0-0.651-0.353-0.904-0.915-0.904h-5.239c-0.518 0-0.849 0.32-0.849 0.805s0.342 0.805 0.871 0.805h2.007l1.632-0.176-1.721 1.599-4.059 4.070c-0.154 0.154-0.265 0.375-0.265 0.596 0 0.496 0.32 0.816 0.805 0.816 0.265 0 0.474-0.099 0.629-0.254l4.059-4.059 1.588-1.699-0.165 1.721v1.908c0 0.518 0.32 0.86 0.816 0.86z"></path>
</svg>
