<!-- Generated by IcoMoon.io -->
<svg version="1.1" xmlns="http://www.w3.org/2000/svg" width="32" height="32" viewBox="0 0 32 32">
<title>arrow-up-to-line-circle</title>
<path d="M15.956 27.206c6.154 0 11.25-5.107 11.25-11.25 0-6.154-5.107-11.25-11.261-11.25-6.143 0-11.239 5.096-11.239 11.25 0 6.143 5.107 11.25 11.25 11.25zM15.956 25.331c-5.206 0-9.364-4.169-9.364-9.375s4.147-9.375 9.353-9.375c5.206 0 9.386 4.169 9.386 9.375s-4.169 9.375-9.375 9.375zM15.934 22.551c0.419 0 0.739-0.309 0.739-0.739v-5.063l-0.121-2.007 1.941 2.195 0.717 0.739c0.154 0.143 0.353 0.21 0.551 0.21 0.408 0 0.695-0.32 0.695-0.717 0-0.21-0.055-0.397-0.232-0.563l-3.739-3.794c-0.154-0.154-0.353-0.254-0.551-0.254s-0.397 0.088-0.551 0.254l-3.728 3.805c-0.132 0.143-0.221 0.375-0.221 0.552 0 0.419 0.287 0.717 0.706 0.717 0.232 0 0.397-0.066 0.541-0.21l0.629-0.695 2.007-2.25-0.121 2.018v5.063c0 0.43 0.298 0.739 0.739 0.739zM11.809 11.71h8.283c0.43 0 0.728-0.309 0.728-0.728 0-0.43-0.298-0.739-0.728-0.739h-8.283c-0.43 0-0.739 0.309-0.739 0.739 0 0.419 0.309 0.728 0.739 0.728z"></path>
</svg>
