<!-- Generated by IcoMoon.io -->
<svg version="1.1" xmlns="http://www.w3.org/2000/svg" width="32" height="32" viewBox="0 0 32 32">
<title>arrow-up-arrow-down-circle</title>
<path d="M15.956 27.206c6.154 0 11.25-5.107 11.25-11.25 0-6.154-5.107-11.25-11.261-11.25-6.143 0-11.239 5.096-11.239 11.25 0 6.143 5.107 11.25 11.25 11.25zM15.956 25.331c-5.206 0-9.364-4.169-9.364-9.375s4.147-9.375 9.353-9.375c5.206 0 9.386 4.169 9.386 9.375s-4.169 9.375-9.375 9.375zM12.007 10.805l-2.724 2.779c-0.121 0.143-0.221 0.353-0.221 0.507 0 0.408 0.309 0.717 0.717 0.717 0.187 0 0.364-0.088 0.496-0.221l1.136-1.18 0.419-0.452-0.022 0.54v7.147c0 0.397 0.309 0.695 0.717 0.695 0.419 0 0.717-0.298 0.717-0.695v-7.158l-0.022-0.529 0.419 0.452 1.147 1.191c0.132 0.132 0.309 0.21 0.496 0.21 0.408 0 0.695-0.298 0.695-0.717 0-0.176-0.088-0.386-0.21-0.507l-2.713-2.779c-0.265-0.276-0.728-0.32-1.048 0zM19.893 21.129l2.702-2.768c0.132-0.143 0.232-0.342 0.232-0.518 0-0.419-0.298-0.706-0.706-0.706-0.198 0-0.386 0.077-0.507 0.21l-1.136 1.169-0.419 0.452 0.022-0.518v-7.158c0-0.408-0.309-0.706-0.717-0.706s-0.717 0.298-0.717 0.706v7.169l0.022 0.518-0.419-0.463-1.136-1.169c-0.143-0.143-0.309-0.21-0.507-0.21-0.419 0-0.695 0.287-0.695 0.706 0 0.165 0.077 0.364 0.199 0.518l2.713 2.768c0.265 0.265 0.772 0.309 1.070 0z"></path>
</svg>
