<!-- Generated by IcoMoon.io -->
<svg version="1.1" xmlns="http://www.w3.org/2000/svg" width="32" height="32" viewBox="0 0 32 32">
<title>arrow-up-circle-fill</title>
<path d="M15.956 27.206c6.154 0 11.25-5.107 11.25-11.25 0-6.154-5.107-11.25-11.261-11.25-6.143 0-11.239 5.096-11.239 11.25 0 6.143 5.107 11.25 11.25 11.25zM15.967 21.647c-0.496 0-0.86-0.353-0.86-0.86v-5.658l0.099-2.415-1.136 1.368-1.346 1.357c-0.154 0.154-0.375 0.254-0.607 0.254-0.474 0-0.827-0.364-0.827-0.827 0-0.243 0.066-0.441 0.221-0.596l3.794-3.783c0.232-0.232 0.419-0.32 0.662-0.32 0.254 0 0.452 0.099 0.673 0.32l3.783 3.783c0.154 0.154 0.243 0.353 0.243 0.596 0 0.463-0.364 0.827-0.838 0.827-0.243 0-0.452-0.088-0.607-0.254l-1.335-1.357-1.158-1.379 0.099 2.426v5.658c0 0.507-0.353 0.86-0.86 0.86z"></path>
</svg>
