<!-- Generated by IcoMoon.io -->
<svg version="1.1" xmlns="http://www.w3.org/2000/svg" width="32" height="32" viewBox="0 0 32 32">
<title>arrow-up-forward</title>
<path d="M23.82 19.728l-0.011-11.096c0-0.629-0.408-1.070-1.070-1.070h-11.096c-0.618 0-1.037 0.474-1.037 1.004s0.474 0.982 0.993 0.982h3.838l5.382-0.176-2.051 1.798-10.93 10.952c-0.199 0.198-0.309 0.452-0.309 0.695 0 0.529 0.474 1.026 1.026 1.026 0.254 0 0.496-0.088 0.695-0.298l10.952-10.941 1.82-2.063-0.198 5.151v4.081c0 0.518 0.452 1.004 0.993 1.004 0.529 0 1.004-0.452 1.004-1.048z"></path>
</svg>
