<!-- Generated by IcoMoon.io -->
<svg version="1.1" xmlns="http://www.w3.org/2000/svg" width="32" height="32" viewBox="0 0 32 32">
<title>arrow-right-to-line-circle-fill</title>
<path d="M15.956 27.206c6.154 0 11.25-5.107 11.25-11.25 0-6.154-5.107-11.25-11.261-11.25-6.143 0-11.239 5.096-11.239 11.25 0 6.143 5.107 11.25 11.25 11.25zM8.809 15.967c0-0.441 0.32-0.761 0.761-0.761h5.206l2.085 0.121-2.316-2.051-0.706-0.695c-0.165-0.143-0.232-0.353-0.232-0.563 0-0.43 0.342-0.728 0.761-0.728 0.199 0 0.397 0.066 0.563 0.243l3.926 3.849c0.154 0.176 0.254 0.364 0.254 0.584 0 0.21-0.077 0.408-0.254 0.574l-3.915 3.816c-0.154 0.154-0.397 0.254-0.574 0.254-0.441 0-0.761-0.298-0.761-0.739 0-0.232 0.066-0.419 0.232-0.552l0.717-0.662 2.316-2.051-2.096 0.132h-5.206c-0.441 0-0.761-0.309-0.761-0.772zM20.732 20.974c-0.43 0-0.75-0.309-0.75-0.75v-8.548c0-0.441 0.32-0.75 0.75-0.75 0.463 0 0.783 0.309 0.783 0.75v8.548c0 0.441-0.32 0.75-0.783 0.75z"></path>
</svg>
