<!-- Generated by IcoMoon.io -->
<svg version="1.1" xmlns="http://www.w3.org/2000/svg" width="32" height="32" viewBox="0 0 32 32">
<title>arrow-down-app-fill</title>
<path d="M24.43 6.949c-1.125-1.125-2.713-1.301-4.599-1.301h-8.327c-1.853 0-3.441 0.176-4.566 1.301s-1.29 2.702-1.29 4.544v8.338c0 1.886 0.165 3.452 1.29 4.577s2.713 1.301 4.588 1.301h8.305c1.886 0 3.474-0.176 4.599-1.301s1.29-2.691 1.29-4.577v-8.305c0-1.886-0.165-3.463-1.29-4.577zM15.695 9.893c0.507 0 0.86 0.353 0.86 0.86v5.658l-0.088 2.426 1.147-1.379 1.335-1.357c0.154-0.176 0.364-0.254 0.607-0.254 0.474 0 0.838 0.353 0.838 0.827 0 0.243-0.077 0.441-0.232 0.596l-3.794 3.772c-0.221 0.221-0.408 0.331-0.673 0.331-0.243 0-0.419-0.099-0.651-0.331l-3.794-3.772c-0.165-0.154-0.232-0.353-0.232-0.596 0-0.474 0.353-0.827 0.827-0.827 0.243 0 0.452 0.088 0.607 0.254l1.346 1.357 1.136 1.368-0.088-2.415v-5.658c0-0.507 0.353-0.86 0.849-0.86z"></path>
</svg>
