<!-- Generated by IcoMoon.io -->
<svg version="1.1" xmlns="http://www.w3.org/2000/svg" width="32" height="32" viewBox="0 0 32 32">
<title>arrowshape-turn-up-backward-2-circle-fill</title>
<path d="M15.956 27.217c6.154 0 11.25-5.096 11.25-11.25 0-6.143-5.107-11.25-11.261-11.25-6.143 0-11.239 5.107-11.239 11.25 0 6.154 5.107 11.25 11.25 11.25zM13.386 20.665c-0.287 0-0.496-0.132-0.794-0.397l-4.699-4.412c-0.221-0.221-0.287-0.43-0.287-0.629 0-0.221 0.066-0.419 0.287-0.64l4.699-4.39c0.309-0.287 0.496-0.419 0.783-0.419 0.43 0 0.706 0.265 0.706 0.54v0.276l-3.739 3.43c-0.375 0.331-0.563 0.761-0.563 1.202s0.199 0.86 0.563 1.191l3.739 3.452v0.276c0 0.265-0.276 0.518-0.695 0.518zM16.386 20.665c-0.265 0-0.507-0.132-0.794-0.397l-4.688-4.412c-0.232-0.232-0.298-0.43-0.298-0.629 0-0.221 0.066-0.408 0.298-0.64l4.688-4.39c0.309-0.287 0.507-0.419 0.783-0.419 0.408 0 0.706 0.342 0.706 0.728v2.261h0.176c4.246 0 6.121 2.702 6.121 7.103 0 0.507-0.265 0.794-0.596 0.794-0.265 0-0.54-0.077-0.739-0.441-1.004-1.941-2.482-2.526-4.787-2.526h-0.176v2.261c0 0.419-0.298 0.706-0.695 0.706z"></path>
</svg>
