<!-- Generated by IcoMoon.io -->
<svg version="1.1" xmlns="http://www.w3.org/2000/svg" width="32" height="32" viewBox="0 0 32 32">
<title>arrow-turn-left-down</title>
<path d="M22.408 5.647c-5.096 0-7.5 2.029-7.5 7.158v7.643l0.077 2.989-2.195-2.415-3.618-3.618c-0.165-0.176-0.43-0.265-0.695-0.265-0.551 0-0.949 0.419-0.949 0.96 0 0.265 0.099 0.496 0.309 0.717l7.313 7.335c0.21 0.221 0.463 0.331 0.739 0.331s0.529-0.11 0.739-0.331l7.323-7.335c0.21-0.221 0.298-0.452 0.298-0.717 0-0.541-0.397-0.96-0.949-0.96-0.265 0-0.518 0.088-0.695 0.265l-3.618 3.618-2.206 2.427 0.088-3-0.011-7.544c-0.011-3.993 1.732-5.327 5.647-5.327 0.518 0 0.871 0.022 1.257 0.022 0.563 0 0.982-0.364 0.982-0.938 0-0.563-0.397-0.849-0.827-0.938-0.342-0.055-0.871-0.077-1.511-0.077z"></path>
</svg>
