<!-- Generated by IcoMoon.io -->
<svg version="1.1" xmlns="http://www.w3.org/2000/svg" width="32" height="32" viewBox="0 0 32 32">
<title>arrow-uturn-forward-circle-fill</title>
<path d="M15.956 27.206c6.154 0 11.25-5.096 11.25-11.25 0-6.143-5.107-11.25-11.261-11.25-6.143 0-11.239 5.107-11.239 11.25 0 6.154 5.107 11.25 11.25 11.25zM10.298 17.202c0-2.504 1.776-4.158 4.434-4.158h3.232l1.136 0.044-0.75-0.584-1.114-1.081c-0.165-0.154-0.265-0.364-0.265-0.596 0-0.474 0.353-0.849 0.827-0.849 0.254 0 0.441 0.088 0.607 0.254l2.879 2.923c0.198 0.198 0.298 0.452 0.298 0.695 0 0.254-0.088 0.496-0.298 0.695l-2.89 2.956c-0.154 0.154-0.353 0.243-0.607 0.243-0.452 0-0.816-0.375-0.816-0.849 0-0.232 0.099-0.441 0.265-0.607l1.335-1.279 0.518-0.375-1.125 0.055h-3.232c-1.676 0-2.79 1.004-2.79 2.515 0 1.621 1.136 2.702 2.802 2.702h1.511c0.518 0 0.86 0.342 0.86 0.827 0 0.496-0.353 0.816-0.882 0.816h-1.489c-2.658 0-4.445-1.721-4.445-4.346z"></path>
</svg>
