<!-- Generated by IcoMoon.io -->
<svg version="1.1" xmlns="http://www.w3.org/2000/svg" width="32" height="32" viewBox="0 0 32 32">
<title>arrowshape-turn-up-backward-2</title>
<path d="M17.21 25.875c0.75 0 1.29-0.552 1.29-1.29v-4.213h0.32c4.279 0 6.971 1.081 8.901 4.688 0.386 0.706 0.893 0.816 1.357 0.816 0.585 0 1.136-0.529 1.136-1.478 0-8.151-3.463-13.235-11.393-13.235h-0.32v-4.169c0-0.739-0.54-1.346-1.312-1.346-0.54 0-0.904 0.232-1.489 0.783l-8.702 8.14c-0.43 0.408-0.563 0.816-0.563 1.191 0 0.364 0.143 0.783 0.563 1.18l8.702 8.217c0.529 0.496 0.971 0.717 1.511 0.717zM16.581 23.504c-0.066 0-0.132-0.033-0.199-0.099l-7.853-7.434c-0.088-0.088-0.121-0.143-0.121-0.21s0.033-0.132 0.121-0.21l7.853-7.533c0.055-0.044 0.121-0.088 0.188-0.088 0.099 0 0.154 0.066 0.154 0.154v4.379c0 0.254 0.121 0.364 0.375 0.364h1.478c7.566 0 9.849 5.25 10.070 10.456 0 0.088-0.033 0.121-0.088 0.121-0.044 0-0.066-0.033-0.099-0.11-1.301-2.768-4.643-4.588-9.882-4.588h-1.478c-0.254 0-0.375 0.11-0.375 0.364v4.268c0 0.099-0.055 0.165-0.143 0.165zM11.717 25.875c0.75 0 1.29-0.552 1.29-1.29v-2.835l-1.776-1.412v3c0 0.099-0.055 0.165-0.154 0.165-0.055 0-0.121-0.033-0.187-0.099l-7.853-7.434c-0.088-0.088-0.121-0.143-0.121-0.21s0.033-0.132 0.121-0.21l7.853-7.533c0.055-0.044 0.121-0.088 0.187-0.088 0.099 0 0.154 0.066 0.154 0.154v3.077l1.776-1.401v-2.768c0-0.739-0.54-1.346-1.312-1.346-0.54 0-0.904 0.232-1.489 0.783l-8.713 8.14c-0.43 0.408-0.551 0.816-0.551 1.191 0 0.364 0.132 0.783 0.551 1.18l8.713 8.217c0.518 0.496 0.971 0.717 1.511 0.717z"></path>
</svg>
