<!-- Generated by IcoMoon.io -->
<svg version="1.1" xmlns="http://www.w3.org/2000/svg" width="32" height="32" viewBox="0 0 32 32">
<title>arrow-left</title>
<path d="M5.647 15.89c0 0.276 0.121 0.529 0.342 0.739l7.324 7.312c0.221 0.21 0.452 0.309 0.717 0.309 0.541 0 0.971-0.397 0.971-0.949 0-0.265-0.099-0.529-0.276-0.695l-2.471-2.515-4.368-3.982-0.232 0.54 3.551 0.221h13.952c0.573 0 0.971-0.408 0.971-0.982s-0.397-0.982-0.971-0.982h-13.952l-3.551 0.221 0.232 0.552 4.368-3.993 2.471-2.515c0.176-0.176 0.276-0.43 0.276-0.695 0-0.551-0.43-0.949-0.971-0.949-0.265 0-0.496 0.088-0.739 0.331l-7.301 7.291c-0.221 0.21-0.342 0.463-0.342 0.739z"></path>
</svg>
