<!-- Generated by IcoMoon.io -->
<svg version="1.1" xmlns="http://www.w3.org/2000/svg" width="32" height="32" viewBox="0 0 32 32">
<title>arrow-turn-down-left</title>
<path d="M25.312 6.588c-0.573 0-0.982 0.397-0.982 0.971 0 0.397 0.022 0.75 0.022 1.279 0 4.092-1.423 5.757-5.471 5.757h-7.61l-2.713 0.165 3.728-3.408 2.448-2.493c0.177-0.176 0.265-0.43 0.265-0.695 0-0.551-0.419-0.949-0.96-0.949-0.265 0-0.496 0.088-0.728 0.298l-7.324 7.324c-0.221 0.21-0.342 0.474-0.342 0.739 0 0.276 0.121 0.529 0.342 0.75l7.301 7.29c0.243 0.232 0.485 0.331 0.75 0.331 0.54 0 0.96-0.397 0.96-0.949 0-0.265-0.088-0.518-0.265-0.706l-2.448-2.493-3.717-3.386 2.702 0.154h7.71c5.239 0 7.368-2.294 7.368-7.632 0-0.651-0.022-1.191-0.088-1.533-0.099-0.441-0.364-0.816-0.949-0.816z"></path>
</svg>
