<!-- Generated by IcoMoon.io -->
<svg version="1.1" xmlns="http://www.w3.org/2000/svg" width="32" height="32" viewBox="0 0 32 32">
<title>arrow-up-and-down-circle</title>
<path d="M15.956 27.206c6.154 0 11.25-5.107 11.25-11.25 0-6.154-5.107-11.25-11.261-11.25-6.143 0-11.239 5.096-11.239 11.25 0 6.143 5.107 11.25 11.25 11.25zM15.956 25.331c-5.206 0-9.364-4.169-9.364-9.375s4.147-9.375 9.353-9.375c5.206 0 9.386 4.169 9.386 9.375s-4.169 9.375-9.375 9.375zM15.967 9.096c-0.243 0-0.441 0.11-0.651 0.32l-3.187 3.176c-0.143 0.143-0.232 0.342-0.232 0.574 0 0.452 0.353 0.794 0.805 0.794 0.243 0 0.441-0.088 0.585-0.243l0.816-0.838 1.125-1.335-0.088 2.338v4.147l0.088 2.338-1.125-1.334-0.816-0.838c-0.143-0.165-0.342-0.243-0.585-0.243-0.452 0-0.805 0.342-0.805 0.794 0 0.221 0.088 0.43 0.232 0.573l3.187 3.176c0.21 0.21 0.408 0.32 0.651 0.32 0.232 0 0.419-0.11 0.64-0.32l3.199-3.176c0.143-0.143 0.221-0.353 0.221-0.573 0-0.452-0.342-0.794-0.794-0.794-0.243 0-0.441 0.088-0.585 0.243l-0.827 0.838-1.114 1.323 0.088-2.327v-4.147l-0.088-2.327 1.114 1.324 0.827 0.838c0.143 0.143 0.342 0.243 0.585 0.243 0.452 0 0.794-0.342 0.794-0.794 0-0.232-0.077-0.43-0.221-0.574l-3.199-3.176c-0.221-0.21-0.408-0.32-0.64-0.32z"></path>
</svg>
