<!-- Generated by IcoMoon.io -->
<svg version="1.1" xmlns="http://www.w3.org/2000/svg" width="32" height="32" viewBox="0 0 32 32">
<title>arrow-down-square</title>
<path d="M9.11 25.974h13.379c2.316 0 3.463-1.147 3.463-3.419v-13.467c0-2.272-1.147-3.419-3.463-3.419h-13.379c-2.305 0-3.463 1.136-3.463 3.419v13.467c0 2.283 1.158 3.419 3.463 3.419zM9.132 24.198c-1.103 0-1.71-0.585-1.71-1.732v-13.29c0-1.147 0.607-1.732 1.71-1.732h13.335c1.092 0 1.71 0.585 1.71 1.732v13.29c0 1.147-0.618 1.732-1.71 1.732h-13.335zM15.816 10.191c-0.474 0-0.827 0.342-0.827 0.827v5.515l0.088 2.327-1.103-1.324-1.313-1.323c-0.143-0.154-0.342-0.243-0.585-0.243-0.452 0-0.794 0.342-0.794 0.794 0 0.232 0.066 0.43 0.21 0.574l3.684 3.662c0.221 0.221 0.408 0.32 0.64 0.32 0.254 0 0.441-0.11 0.651-0.32l3.673-3.662c0.154-0.143 0.232-0.342 0.232-0.574 0-0.452-0.353-0.794-0.805-0.794-0.243 0-0.441 0.077-0.585 0.243l-1.301 1.323-1.125 1.335 0.088-2.338v-5.515c0-0.485-0.342-0.827-0.827-0.827z"></path>
</svg>
