<!-- Generated by IcoMoon.io -->
<svg version="1.1" xmlns="http://www.w3.org/2000/svg" width="32" height="32" viewBox="0 0 32 32">
<title>arrow-left-and-right-circle</title>
<path d="M15.956 27.206c6.154 0 11.25-5.107 11.25-11.25 0-6.154-5.107-11.25-11.261-11.25-6.143 0-11.239 5.096-11.239 11.25 0 6.143 5.107 11.25 11.25 11.25zM15.956 25.331c-5.206 0-9.364-4.169-9.364-9.375s4.147-9.375 9.353-9.375c5.206 0 9.386 4.169 9.386 9.375s-4.169 9.375-9.375 9.375zM22.794 15.967c0-0.254-0.099-0.441-0.309-0.651l-3.187-3.187c-0.143-0.154-0.342-0.232-0.574-0.232-0.452 0-0.794 0.353-0.794 0.805 0 0.232 0.088 0.441 0.243 0.585l0.838 0.816 1.335 1.125-2.338-0.088h-4.147l-2.338 0.088 1.346-1.125 0.838-0.816c0.154-0.143 0.243-0.353 0.243-0.585 0-0.452-0.342-0.805-0.794-0.805-0.232 0-0.43 0.077-0.574 0.232l-3.188 3.187c-0.21 0.21-0.309 0.397-0.309 0.651 0 0.232 0.099 0.408 0.309 0.629l3.188 3.21c0.143 0.143 0.342 0.221 0.574 0.221 0.452 0 0.794-0.353 0.794-0.794 0-0.243-0.099-0.441-0.243-0.596l-0.838-0.827-1.335-1.103 2.327 0.077h4.147l2.327-0.077-1.324 1.103-0.838 0.827c-0.143 0.154-0.243 0.353-0.243 0.596 0 0.441 0.342 0.794 0.794 0.794 0.232 0 0.43-0.077 0.574-0.221l3.187-3.21c0.21-0.221 0.309-0.397 0.309-0.629z"></path>
</svg>
