<!-- Generated by IcoMoon.io -->
<svg version="1.1" xmlns="http://www.w3.org/2000/svg" width="32" height="32" viewBox="0 0 32 32">
<title>arrow-turn-down-right</title>
<path d="M6.684 6.588c-0.585 0-0.849 0.375-0.938 0.816-0.077 0.342-0.099 0.882-0.099 1.533 0 5.338 2.14 7.632 7.368 7.632h7.71l2.702-0.154-3.717 3.386-2.449 2.493c-0.176 0.187-0.265 0.441-0.265 0.706 0 0.551 0.419 0.949 0.971 0.949 0.254 0 0.496-0.099 0.739-0.331l7.301-7.29c0.232-0.221 0.342-0.474 0.342-0.75 0-0.265-0.11-0.529-0.342-0.739l-7.323-7.324c-0.221-0.21-0.463-0.298-0.717-0.298-0.551 0-0.971 0.397-0.971 0.949 0 0.265 0.099 0.518 0.265 0.695l2.449 2.493 3.728 3.408-2.713-0.165h-7.61c-4.048 0-5.471-1.665-5.471-5.757 0-0.529 0.033-0.882 0.033-1.279 0-0.574-0.419-0.971-0.993-0.971z"></path>
</svg>
