<!-- Generated by IcoMoon.io -->
<svg version="1.1" xmlns="http://www.w3.org/2000/svg" width="32" height="32" viewBox="0 0 32 32">
<title>arrow-down-forward-and-arrow-up-backward</title>
<path d="M7.632 14.699h6.121c1.125 0 1.776-0.662 1.776-1.787v-6.11c0-0.574-0.43-1.026-1.015-1.026s-1.004 0.441-1.004 1.026v0.926l0.232 3.849-2.912-3.055-3.386-3.419c-0.188-0.199-0.441-0.298-0.706-0.298-0.629 0-1.092 0.419-1.092 1.037 0 0.287 0.11 0.563 0.309 0.761l3.397 3.397 3.055 2.901-3.849-0.221h-0.926c-0.585 0-1.037 0.408-1.037 1.004 0 0.585 0.441 1.015 1.037 1.015zM18.21 25.893c0.585 0 1.004-0.43 1.004-1.026v-1.048l-0.232-3.838 2.912 3.055 3.463 3.485c0.187 0.198 0.43 0.298 0.706 0.298 0.618 0 1.081-0.419 1.081-1.037 0-0.287-0.099-0.562-0.298-0.761l-3.474-3.474-3.066-2.901 3.86 0.221h1.048c0.585 0 1.037-0.408 1.037-0.993 0-0.596-0.441-1.015-1.037-1.015h-6.243c-1.125 0-1.776 0.651-1.776 1.776v6.232c0 0.585 0.419 1.026 1.015 1.026z"></path>
</svg>
