<!-- Generated by IcoMoon.io -->
<svg version="1.1" xmlns="http://www.w3.org/2000/svg" width="32" height="32" viewBox="0 0 32 32">
<title>arrow-down-left-video</title>
<path d="M7.125 24.721h11.526c2.691 0 4.301-1.566 4.301-4.257v-9.629c0-2.68-1.61-4.246-4.301-4.246h-11.526c-2.57 0-4.301 1.566-4.301 4.246v9.629c0 2.691 1.61 4.257 4.301 4.257zM7.434 23.055c-1.809 0-2.835-0.938-2.835-2.846v-9.11c0-1.919 1.026-2.857 2.835-2.857h10.908c1.798 0 2.835 0.938 2.835 2.857v9.11c0 1.908-1.037 2.846-2.835 2.846h-10.908zM22.699 12.566v2.096l5.25-4.335c0.099-0.077 0.165-0.132 0.265-0.132 0.132 0 0.187 0.11 0.187 0.265v10.39c0 0.154-0.055 0.254-0.187 0.254-0.099 0-0.165-0.055-0.265-0.121l-5.25-4.335v2.085l4.423 3.75c0.441 0.364 0.927 0.618 1.379 0.618 0.971 0 1.61-0.717 1.61-1.743v-11.404c0-1.026-0.64-1.743-1.61-1.743-0.452 0-0.937 0.254-1.379 0.618l-4.423 3.739zM16.566 11.21c-0.232 0-0.408 0.077-0.574 0.243l-4.522 4.522-1.699 1.853 0.187-3.154v-1.489c0-0.43-0.32-0.783-0.75-0.783-0.452 0-0.816 0.331-0.816 0.783v6.132c0 0.585 0.276 0.871 0.871 0.871h6.143c0.452 0 0.794-0.364 0.794-0.816 0-0.441-0.364-0.75-0.794-0.75h-1.511l-3.154 0.187 1.864-1.699 4.511-4.533c0.187-0.176 0.265-0.364 0.265-0.607 0-0.43-0.353-0.761-0.816-0.761z"></path>
</svg>
