<!-- Generated by IcoMoon.io -->
<svg version="1.1" xmlns="http://www.w3.org/2000/svg" width="32" height="32" viewBox="0 0 32 32">
<title>aspectratio</title>
<path d="M22.654 25.147v-10.61c0-1.765-0.949-2.702-2.746-2.702h-16.136v1.577h16.026c0.805 0 1.279 0.485 1.279 1.301v10.434h1.577zM16.665 12.353h-1.577v12.794h1.577v-12.794zM6.287 25.952h19.081c2.316 0 3.463-1.136 3.463-3.408v-13.478c0-2.272-1.147-3.419-3.463-3.419h-19.081c-2.305 0-3.463 1.147-3.463 3.419v13.478c0 2.272 1.158 3.408 3.463 3.408zM6.309 24.176c-1.103 0-1.71-0.585-1.71-1.732v-13.279c0-1.147 0.607-1.743 1.71-1.743h19.037c1.092 0 1.71 0.596 1.71 1.743v13.279c0 1.147-0.618 1.732-1.71 1.732h-19.037z"></path>
</svg>
