<!-- Generated by IcoMoon.io -->
<svg version="1.1" xmlns="http://www.w3.org/2000/svg" width="32" height="32" viewBox="0 0 32 32">
<title>asterisk-circle</title>
<path d="M15.956 27.206c6.154 0 11.25-5.096 11.25-11.25 0-6.143-5.107-11.25-11.261-11.25-6.143 0-11.239 5.107-11.239 11.25 0 6.154 5.107 11.25 11.25 11.25zM15.956 25.331c-5.206 0-9.364-4.169-9.364-9.375s4.147-9.375 9.353-9.375c5.206 0 9.386 4.169 9.386 9.375s-4.169 9.375-9.375 9.375zM15.967 21.636c0.574 0 0.893-0.342 0.882-0.938l-0.099-3.309 2.989 1.941c0.165 0.099 0.353 0.165 0.573 0.165 0.452 0 0.871-0.353 0.871-0.915 0-0.364-0.165-0.607-0.529-0.805l-3.132-1.754 3.132-1.743c0.364-0.199 0.529-0.452 0.529-0.805 0-0.574-0.419-0.927-0.871-0.927-0.221 0-0.408 0.066-0.573 0.176l-2.989 1.908 0.099-3.408c0.011-0.607-0.309-0.949-0.882-0.949-0.584 0-0.937 0.364-0.926 0.949l0.099 3.408-2.989-1.897c-0.165-0.11-0.353-0.165-0.574-0.165-0.452 0-0.871 0.342-0.871 0.915 0 0.364 0.165 0.607 0.529 0.816l3.11 1.721-3.11 1.743c-0.364 0.198-0.529 0.452-0.529 0.805 0 0.562 0.419 0.915 0.871 0.915 0.221 0 0.408-0.066 0.574-0.165l2.989-1.93-0.099 3.309c-0.011 0.574 0.342 0.938 0.926 0.938z"></path>
</svg>
