<!-- Generated by IcoMoon.io -->
<svg version="1.1" xmlns="http://www.w3.org/2000/svg" width="32" height="32" viewBox="0 0 32 32">
<title>asterisk-circle-fill</title>
<path d="M15.956 27.206c6.154 0 11.25-5.107 11.25-11.25 0-6.154-5.107-11.25-11.261-11.25-6.143 0-11.239 5.096-11.239 11.25 0 6.143 5.107 11.25 11.25 11.25zM15.978 21.824c-0.607 0-0.971-0.375-0.96-0.982l0.099-3.408-3.077 1.996c-0.165 0.11-0.364 0.176-0.596 0.176-0.463 0-0.904-0.364-0.904-0.949 0-0.386 0.176-0.629 0.552-0.838l3.21-1.798-3.21-1.776c-0.375-0.21-0.552-0.474-0.552-0.838 0-0.596 0.441-0.949 0.904-0.949 0.232 0 0.43 0.055 0.596 0.165l3.077 1.963-0.099-3.518c-0.011-0.607 0.353-0.982 0.96-0.982 0.596 0 0.926 0.353 0.915 0.982l-0.099 3.518 3.077-1.974c0.165-0.11 0.364-0.176 0.596-0.176 0.463 0 0.904 0.364 0.904 0.949 0 0.375-0.176 0.64-0.551 0.849l-3.232 1.776 3.232 1.82c0.375 0.21 0.551 0.452 0.551 0.838 0 0.585-0.441 0.949-0.904 0.949-0.232 0-0.43-0.066-0.596-0.177l-3.077-2.007 0.099 3.408c0.011 0.629-0.32 0.982-0.915 0.982z"></path>
</svg>
