<!-- Generated by IcoMoon.io -->
<svg version="1.1" xmlns="http://www.w3.org/2000/svg" width="32" height="32" viewBox="0 0 32 32">
<title>asterisk</title>
<path d="M16.426 27.482c0.717 0 1.136-0.441 1.136-1.191 0-0.132-0.011-0.287-0.011-0.419l-0.154-8.085 6.882 4.136c0.276 0.165 0.529 0.232 0.816 0.232 0.662 0 1.147-0.485 1.147-1.169 0-0.518-0.198-0.805-0.75-1.103l-7.202-3.783 7.202-3.794c0.552-0.287 0.75-0.585 0.75-1.092 0-0.673-0.474-1.169-1.147-1.169-0.287 0-0.541 0.066-0.816 0.232l-6.882 4.136 0.154-8.085c0-0.143 0.011-0.287 0.011-0.43 0-0.75-0.419-1.18-1.136-1.18s-1.147 0.43-1.147 1.18c0 0.143 0.011 0.287 0.011 0.43l0.154 8.085-6.893-4.136c-0.276-0.165-0.529-0.232-0.827-0.232-0.662 0-1.136 0.485-1.136 1.169 0 0.507 0.199 0.805 0.761 1.092l7.202 3.794-7.202 3.783c-0.563 0.298-0.761 0.585-0.761 1.103 0 0.684 0.474 1.169 1.136 1.169 0.298 0 0.551-0.066 0.827-0.232l6.893-4.136-0.154 8.085c0 0.132-0.011 0.287-0.011 0.419 0 0.75 0.43 1.191 1.147 1.191z"></path>
</svg>
