<!-- Generated by IcoMoon.io -->
<svg version="1.1" xmlns="http://www.w3.org/2000/svg" width="32" height="32" viewBox="0 0 32 32">
<title>at-circle</title>
<path d="M15.956 27.206c6.154 0 11.25-5.107 11.25-11.25 0-6.154-5.107-11.25-11.261-11.25-6.143 0-11.239 5.096-11.239 11.25 0 6.143 5.107 11.25 11.25 11.25zM15.956 25.331c-5.206 0-9.364-4.169-9.364-9.375s4.147-9.375 9.353-9.375c5.206 0 9.386 4.169 9.386 9.375s-4.169 9.375-9.375 9.375zM16.088 22.563c1.004 0 1.974-0.121 2.603-0.331 0.463-0.143 0.717-0.43 0.717-0.805 0-0.364-0.276-0.64-0.64-0.64-0.088 0-0.221 0.033-0.342 0.066-0.728 0.165-1.323 0.276-2.151 0.276-3.243 0-5.272-1.963-5.272-5.118 0-3.143 2.040-5.272 5.051-5.272 2.945 0 4.919 1.842 4.919 4.61 0 1.71-0.552 2.802-1.357 2.802-0.529 0-0.794-0.276-0.794-0.805v-4.070c0-0.452-0.287-0.761-0.739-0.761-0.408 0-0.684 0.331-0.684 0.596v0.221c-0.408-0.474-1.081-0.816-1.787-0.816-1.687 0-2.89 1.445-2.89 3.474 0 2.051 1.202 3.507 2.923 3.507 0.827 0 1.533-0.386 1.963-1.059 0.309 0.651 0.982 1.059 1.853 1.059 1.776 0 2.956-1.698 2.956-4.191 0-3.551-2.592-5.989-6.353-5.989-3.893 0-6.574 2.713-6.574 6.662s2.647 6.585 6.596 6.585zM15.901 18.018c-0.938 0-1.522-0.783-1.522-2.063 0-1.268 0.596-2.063 1.533-2.063 0.949 0 1.555 0.772 1.555 2.029 0 1.29-0.618 2.096-1.566 2.096z"></path>
</svg>
