<!-- Generated by IcoMoon.io -->
<svg version="1.1" xmlns="http://www.w3.org/2000/svg" width="32" height="32" viewBox="0 0 32 32">
<title>at-circle-fill</title>
<path d="M15.956 27.206c6.154 0 11.25-5.107 11.25-11.25 0-6.154-5.107-11.25-11.261-11.25-6.143 0-11.239 5.096-11.239 11.25 0 6.143 5.107 11.25 11.25 11.25zM16.099 22.772c-4.070 0-6.794-2.724-6.794-6.794s2.757-6.871 6.772-6.871c3.882 0 6.552 2.515 6.552 6.177 0 2.57-1.213 4.323-3.044 4.323-0.904 0-1.599-0.419-1.919-1.092-0.441 0.695-1.169 1.092-2.018 1.092-1.776 0-3.011-1.5-3.011-3.618 0-2.096 1.235-3.585 2.978-3.585 0.728 0 1.412 0.353 1.842 0.838v-0.221c0-0.276 0.287-0.618 0.706-0.618 0.463 0 0.761 0.32 0.761 0.794v4.191c0 0.54 0.276 0.827 0.816 0.827 0.827 0 1.401-1.125 1.401-2.89 0-2.846-2.040-4.743-5.073-4.743-3.099 0-5.195 2.195-5.195 5.426 0 3.254 2.085 5.272 5.426 5.272 0.849 0 1.467-0.11 2.217-0.287 0.132-0.033 0.265-0.066 0.353-0.066 0.375 0 0.662 0.287 0.662 0.662 0 0.386-0.265 0.684-0.739 0.838-0.651 0.21-1.654 0.342-2.691 0.342zM15.912 18.073c0.971 0 1.61-0.827 1.61-2.151 0-1.29-0.629-2.085-1.599-2.085-0.96 0-1.577 0.816-1.577 2.118 0 1.313 0.607 2.118 1.566 2.118z"></path>
</svg>
