<!-- Generated by IcoMoon.io -->
<svg version="1.1" xmlns="http://www.w3.org/2000/svg" width="32" height="32" viewBox="0 0 32 32">
<title>at</title>
<path d="M4.706 16.471c0 7.268 4.919 11.68 11.691 11.68 1.831 0 3.574-0.254 4.654-0.607 0.761-0.243 1.004-0.64 1.004-1.048s-0.32-0.717-0.728-0.717c-0.132 0-0.309 0.022-0.518 0.077-1.346 0.331-2.504 0.551-4.059 0.551-6.033 0-10.147-3.64-10.147-9.871 0-5.967 3.882-10.125 9.728-10.125 5.173 0 9.496 3.187 9.496 8.912 0 3.342-1.125 5.592-2.945 5.592-1.213 0-1.897-0.706-1.897-1.908v-7.478c0-0.596-0.331-0.96-0.893-0.96-0.552 0-0.893 0.364-0.893 0.96v1.257h-0.099c-0.563-1.357-1.941-2.217-3.585-2.217-2.857 0-4.864 2.437-4.864 5.934 0 3.529 1.996 5.989 4.908 5.989 1.71 0 3.033-0.926 3.673-2.493h0.099c0.209 1.555 1.522 2.504 3.265 2.504 3.077 0 4.985-3.022 4.985-7.257 0-6.408-4.71-10.566-11.228-10.566-6.849 0-11.647 4.688-11.647 11.79zM15.857 20.75c-1.974 0-3.232-1.643-3.232-4.257 0-2.57 1.268-4.213 3.243-4.213 2.029 0 3.309 1.61 3.309 4.169 0 2.614-1.312 4.301-3.32 4.301z"></path>
</svg>
