<!-- Generated by IcoMoon.io -->
<svg version="1.1" xmlns="http://www.w3.org/2000/svg" width="32" height="32" viewBox="0 0 32 32">
<title>atom</title>
<path d="M15.678 29.437c3.232 0 5.327-5.261 5.327-13.312 0-8.018-2.096-13.279-5.327-13.279s-5.327 5.261-5.327 13.279c0 8.051 2.096 13.312 5.327 13.312zM15.678 27.816c-2.151 0-3.574-4.61-3.574-11.691 0-7.070 1.423-11.658 3.574-11.658 2.162 0 3.585 4.588 3.585 11.658 0 7.081-1.423 11.691-3.585 11.691zM4.152 22.897c1.621 2.791 7.213 1.985 14.195-2.040 6.971-4.015 10.478-8.449 8.857-11.25-1.621-2.79-7.213-1.985-14.173 2.029-6.982 4.059-10.467 8.471-8.879 11.261zM5.575 22.081c-1.081-1.853 2.184-5.371 8.338-8.923 6.099-3.529 10.798-4.599 11.868-2.724 1.092 1.842-2.184 5.371-8.294 8.89-6.143 3.552-10.831 4.621-11.912 2.757zM27.204 22.897c1.599-2.79-1.897-7.202-8.879-11.261-6.96-4.015-12.54-4.82-14.173-2.029-1.61 2.802 1.886 7.235 8.857 11.25 6.993 4.026 12.585 4.831 14.195 2.040zM25.781 22.081c-1.070 1.864-5.757 0.794-11.901-2.757-6.121-3.518-9.397-7.048-8.305-8.89 1.070-1.875 5.779-0.805 11.879 2.724 6.143 3.551 9.408 7.070 8.327 8.923zM15.689 18.485c1.29 0 2.338-1.048 2.338-2.349 0-1.29-1.048-2.338-2.338-2.338-1.301 0-2.349 1.048-2.349 2.338 0 1.301 1.048 2.349 2.349 2.349z"></path>
</svg>
