<!-- Generated by IcoMoon.io -->
<svg version="1.1" xmlns="http://www.w3.org/2000/svg" width="32" height="32" viewBox="0 0 32 32">
<title>australsign-square-fill</title>
<path d="M9.11 25.974h13.379c2.316 0 3.463-1.147 3.463-3.419v-13.467c0-2.272-1.147-3.419-3.463-3.419h-13.379c-2.305 0-3.463 1.136-3.463 3.419v13.467c0 2.283 1.158 3.419 3.463 3.419zM11.173 18.154c0-0.32 0.21-0.574 0.551-0.574h0.982l0.32-0.96h-1.301c-0.342 0-0.551-0.243-0.551-0.563s0.21-0.563 0.551-0.563h1.677l1.5-4.555c0.143-0.419 0.419-0.662 0.893-0.662 0.463 0 0.739 0.254 0.882 0.662l1.511 4.555h1.688c0.342 0 0.551 0.243 0.551 0.563s-0.209 0.563-0.551 0.563h-1.312l0.32 0.96h0.993c0.342 0 0.551 0.254 0.551 0.574s-0.209 0.551-0.551 0.551h-0.629l0.552 1.665c0.055 0.176 0.088 0.287 0.088 0.386 0 0.386-0.309 0.673-0.75 0.673-0.375 0-0.607-0.165-0.717-0.551l-0.684-2.173h-3.871l-0.684 2.162c-0.11 0.386-0.364 0.562-0.717 0.562-0.441 0-0.75-0.287-0.75-0.673 0-0.099 0.011-0.21 0.077-0.386l0.552-1.665h-0.618c-0.342 0-0.551-0.232-0.551-0.551zM14.206 17.581h3.187l-0.309-0.96h-2.581l-0.298 0.96zM14.846 15.496h1.897l-0.949-3.044-0.949 3.044z"></path>
</svg>
