<!-- Generated by IcoMoon.io -->
<svg version="1.1" xmlns="http://www.w3.org/2000/svg" width="32" height="32" viewBox="0 0 32 32">
<title>australsign-circle-fill</title>
<path d="M15.956 27.206c6.154 0 11.25-5.107 11.25-11.25 0-6.154-5.107-11.25-11.261-11.25-6.143 0-11.239 5.096-11.239 11.25 0 6.143 5.107 11.25 11.25 11.25zM11.323 18.305c0-0.32 0.21-0.574 0.552-0.574h0.982l0.32-0.96h-1.301c-0.342 0-0.552-0.243-0.552-0.562s0.21-0.563 0.552-0.563h1.676l1.5-4.555c0.143-0.419 0.408-0.662 0.893-0.662 0.463 0 0.739 0.254 0.882 0.662l1.511 4.555h1.687c0.342 0 0.552 0.243 0.552 0.563s-0.21 0.562-0.552 0.562h-1.312l0.32 0.96h0.993c0.342 0 0.552 0.254 0.552 0.574s-0.21 0.552-0.552 0.552h-0.64l0.562 1.665c0.055 0.176 0.088 0.287 0.088 0.386 0 0.386-0.309 0.673-0.75 0.673-0.375 0-0.607-0.165-0.717-0.551l-0.684-2.173h-3.871l-0.684 2.162c-0.11 0.386-0.364 0.563-0.728 0.563-0.441 0-0.739-0.287-0.739-0.673 0-0.099 0.011-0.209 0.066-0.386l0.562-1.665h-0.618c-0.342 0-0.552-0.232-0.552-0.552zM14.346 17.732h3.199l-0.309-0.96h-2.581l-0.309 0.96zM14.996 15.647h1.897l-0.949-3.044-0.949 3.044z"></path>
</svg>
