<!-- Generated by IcoMoon.io -->
<svg version="1.1" xmlns="http://www.w3.org/2000/svg" width="32" height="32" viewBox="0 0 32 32">
<title>australsign-circle</title>
<path d="M15.956 27.206c6.154 0 11.25-5.107 11.25-11.25 0-6.154-5.107-11.25-11.261-11.25-6.143 0-11.239 5.096-11.239 11.25 0 6.143 5.107 11.25 11.25 11.25zM15.956 25.331c-5.206 0-9.364-4.169-9.364-9.375s4.147-9.375 9.353-9.375c5.206 0 9.386 4.169 9.386 9.375s-4.169 9.375-9.375 9.375zM11.456 18.228c0 0.309 0.21 0.54 0.54 0.54h0.596l-0.551 1.621c-0.044 0.165-0.055 0.276-0.055 0.364 0 0.375 0.287 0.651 0.706 0.651 0.353 0 0.596-0.165 0.706-0.54l0.662-2.096h3.761l0.662 2.107c0.11 0.375 0.331 0.529 0.695 0.529 0.419 0 0.717-0.276 0.717-0.651 0-0.088-0.022-0.199-0.077-0.364l-0.551-1.621h0.618c0.331 0 0.54-0.232 0.54-0.54s-0.209-0.552-0.54-0.552h-0.96l-0.309-0.926h1.268c0.331 0 0.54-0.243 0.54-0.552s-0.209-0.54-0.54-0.54h-1.632l-1.467-4.412c-0.132-0.397-0.397-0.64-0.849-0.64-0.463 0-0.728 0.232-0.86 0.64l-1.456 4.412h-1.621c-0.331 0-0.54 0.232-0.54 0.54s0.21 0.552 0.54 0.552h1.257l-0.309 0.926h-0.949c-0.331 0-0.54 0.243-0.54 0.552zM14.379 17.676l0.298-0.926h2.515l0.298 0.926h-3.11zM15.007 15.658l0.927-2.956 0.927 2.956h-1.853z"></path>
</svg>
