<!-- Generated by IcoMoon.io -->
<svg version="1.1" xmlns="http://www.w3.org/2000/svg" width="32" height="32" viewBox="0 0 32 32">
<title>australsign-square</title>
<path d="M9.11 25.974h13.379c2.316 0 3.463-1.147 3.463-3.419v-13.467c0-2.272-1.147-3.419-3.463-3.419h-13.379c-2.305 0-3.463 1.136-3.463 3.419v13.467c0 2.283 1.158 3.419 3.463 3.419zM9.132 24.198c-1.103 0-1.71-0.585-1.71-1.732v-13.29c0-1.147 0.607-1.732 1.71-1.732h13.335c1.092 0 1.71 0.585 1.71 1.732v13.29c0 1.147-0.618 1.732-1.71 1.732h-13.335zM11.316 18.077c0 0.309 0.21 0.54 0.541 0.54h0.596l-0.541 1.621c-0.055 0.165-0.066 0.276-0.066 0.364 0 0.375 0.298 0.651 0.717 0.651 0.342 0 0.585-0.165 0.695-0.54l0.662-2.096h3.761l0.662 2.107c0.11 0.375 0.331 0.529 0.695 0.529 0.419 0 0.717-0.276 0.717-0.651 0-0.088-0.022-0.198-0.077-0.364l-0.54-1.621h0.607c0.331 0 0.54-0.232 0.54-0.54s-0.21-0.551-0.54-0.551h-0.96l-0.309-0.927h1.268c0.331 0 0.54-0.243 0.54-0.551s-0.21-0.54-0.54-0.54h-1.632l-1.467-4.412c-0.132-0.397-0.397-0.64-0.849-0.64s-0.728 0.232-0.86 0.64l-1.456 4.412h-1.621c-0.331 0-0.541 0.232-0.541 0.54s0.21 0.551 0.541 0.551h1.257l-0.309 0.927h-0.949c-0.331 0-0.541 0.243-0.541 0.551zM14.25 17.526l0.287-0.927h2.515l0.298 0.927h-3.099zM14.868 15.507l0.926-2.956 0.927 2.956h-1.853z"></path>
</svg>
