<!-- Generated by IcoMoon.io -->
<svg version="1.1" xmlns="http://www.w3.org/2000/svg" width="32" height="32" viewBox="0 0 32 32">
<title>auto-headlight-low-beam-fill</title>
<path d="M12.537 15.661c0 2.074 0.143 4.092 0.717 6.121 0.673 2.25 1.919 3.055 4.566 3.055h0.618c6.463 0 12.188-4.224 12.188-9.176 0-4.941-5.724-9.176-12.188-9.176h-0.618c-2.636 0-3.882 0.805-4.566 3.055-0.573 2.040-0.717 4.059-0.717 6.121zM2.621 12.143c-0.463 0.121-0.739 0.463-0.739 0.904 0 0.585 0.463 0.96 1.114 0.794l7.831-2.085c0.121-0.938 0.221-1.235 0.331-1.897l-8.537 2.283zM2.621 16.069c-0.463 0.121-0.739 0.474-0.739 0.915 0 0.584 0.485 0.96 1.114 0.794l7.566-2.029c0.011-0.64 0.011-1.092 0.033-1.809l-7.974 2.129zM2.621 20.007c-0.463 0.121-0.739 0.474-0.739 0.904 0 0.596 0.463 0.971 1.114 0.794l7.809-2.073c-0.088-0.563-0.143-1.147-0.188-1.754l-7.996 2.129zM2.621 23.944c-0.463 0.121-0.739 0.463-0.739 0.904 0 0.596 0.474 0.971 1.114 0.794l8.702-2.327c-0.198-0.485-0.408-1.158-0.529-1.654l-8.548 2.283zM17.323 19.952c-0.474 0-0.772-0.287-0.772-0.728 0-0.154 0.033-0.309 0.121-0.529l2.857-7.721c0.21-0.54 0.585-0.816 1.147-0.816s0.971 0.276 1.169 0.816l2.868 7.721c0.077 0.221 0.11 0.375 0.11 0.529 0 0.441-0.309 0.728-0.772 0.728-0.375 0-0.64-0.187-0.794-0.662l-0.739-2.173h-3.651l-0.75 2.173c-0.154 0.474-0.419 0.662-0.794 0.662zM19.276 15.871h2.824l-1.357-3.938h-0.099l-1.368 3.938z"></path>
</svg>
