<!-- Generated by IcoMoon.io -->
<svg version="1.1" xmlns="http://www.w3.org/2000/svg" width="32" height="32" viewBox="0 0 32 32">
<title>auto-brakesignal</title>
<path d="M15.739 27.154c5.879 0 10.765-4.875 10.765-10.754s-4.886-10.754-10.776-10.754c-5.879 0-10.743 4.864-10.743 10.754 0 5.879 4.875 10.754 10.754 10.754zM15.739 25.279c-4.919 0-8.868-3.949-8.868-8.879 0-4.941 3.938-8.89 8.857-8.89 4.93 0 8.89 3.949 8.901 8.89 0.011 4.919-3.949 8.879-8.89 8.879zM0 16.401c0 3.496 1.136 6.706 3.055 9.32 0.342 0.474 0.926 0.518 1.368 0.165 0.397-0.342 0.452-0.871 0.132-1.312-1.676-2.283-2.669-5.118-2.669-8.173 0-3.066 0.993-5.89 2.669-8.195 0.32-0.419 0.276-0.96-0.132-1.301-0.441-0.353-1.026-0.298-1.368 0.165-1.919 2.614-3.055 5.835-3.055 9.331zM31.478 16.401c0-3.496-1.125-6.717-3.055-9.331-0.342-0.463-0.927-0.518-1.368-0.165-0.408 0.342-0.441 0.882-0.132 1.301 1.687 2.305 2.669 5.129 2.669 8.195 0 3.055-0.982 5.89-2.669 8.173-0.309 0.441-0.265 0.971 0.132 1.312 0.441 0.353 1.026 0.309 1.368-0.165 1.93-2.614 3.055-5.824 3.055-9.32zM12.099 21.596c0.397 0 0.684-0.187 0.849-0.706l0.805-2.349h3.949l0.805 2.349c0.165 0.507 0.452 0.706 0.849 0.706 0.485 0 0.816-0.32 0.816-0.761 0-0.176-0.044-0.331-0.121-0.574l-3.088-8.327c-0.221-0.574-0.64-0.871-1.246-0.871-0.596 0-1.004 0.298-1.224 0.871l-3.088 8.327c-0.077 0.243-0.121 0.397-0.121 0.563 0 0.463 0.331 0.772 0.816 0.772zM14.195 17.217l1.478-4.268h0.11l1.478 4.268h-3.066z"></path>
</svg>
