<!-- Generated by IcoMoon.io -->
<svg version="1.1" xmlns="http://www.w3.org/2000/svg" width="32" height="32" viewBox="0 0 32 32">
<title>autostartstop</title>
<path d="M4.706 16.366c0 3.717 1.897 7.004 4.71 9.099 0.485 0.375 1.092 0.254 1.368-0.199s0.132-0.982-0.32-1.312c-2.349-1.688-3.871-4.445-3.882-7.588-0.022-5.206 4.169-9.375 9.375-9.375s9.397 4.169 9.375 9.375c-0.011 3.143-1.533 5.901-3.882 7.588-0.452 0.331-0.596 0.86-0.32 1.312s0.882 0.574 1.368 0.199c2.813-2.096 4.71-5.382 4.71-9.099 0-6.154-5.096-11.25-11.25-11.25-6.143 0-11.25 5.096-11.25 11.25zM24.449 26.226l-3.485-3.64c-0.551-0.574-1.081-0.331-1.224 0.386l-0.86 4.147c-0.121 0.618 0.243 0.993 0.882 0.904l4.224-0.596c0.761-0.11 1.004-0.618 0.463-1.202zM12.327 20.888c0.397 0 0.684-0.198 0.849-0.706l0.805-2.349h3.949l0.805 2.349c0.165 0.507 0.441 0.706 0.849 0.706 0.485 0 0.816-0.32 0.816-0.761 0-0.176-0.044-0.331-0.121-0.574l-3.099-8.327c-0.21-0.573-0.629-0.871-1.235-0.871-0.596 0-1.004 0.298-1.224 0.871l-3.088 8.327c-0.088 0.243-0.121 0.397-0.121 0.563 0 0.463 0.32 0.772 0.816 0.772zM14.423 16.509l1.467-4.268h0.121l1.467 4.268h-3.055z"></path>
</svg>
