<!-- Generated by IcoMoon.io -->
<svg version="1.1" xmlns="http://www.w3.org/2000/svg" width="32" height="32" viewBox="0 0 32 32">
<title>auto-headlight-low-beam</title>
<path d="M12.537 15.661c0 2.074 0.143 4.092 0.717 6.121 0.673 2.25 1.919 3.055 4.566 3.055h0.618c6.463 0 12.188-4.224 12.188-9.176 0-4.941-5.724-9.176-12.188-9.176h-0.618c-2.636 0-3.882 0.805-4.566 3.055-0.573 2.040-0.717 4.059-0.717 6.121zM14.335 15.661c0-2.283 0.176-3.971 0.651-5.625 0.386-1.279 1.158-1.754 2.835-1.754h0.618c5.416 0 10.39 3.452 10.39 7.379s-4.974 7.379-10.39 7.379h-0.618c-1.699 0-2.46-0.474-2.835-1.743-0.474-1.677-0.651-3.342-0.651-5.636zM2.621 12.143c-0.463 0.121-0.739 0.463-0.739 0.904 0 0.585 0.463 0.96 1.114 0.794l7.831-2.085c0.121-0.938 0.221-1.235 0.331-1.897l-8.537 2.283zM2.621 16.069c-0.463 0.121-0.739 0.474-0.739 0.915 0 0.584 0.485 0.96 1.114 0.794l7.566-2.029c0.011-0.64 0.011-1.092 0.033-1.809l-7.974 2.129zM2.621 20.007c-0.463 0.121-0.739 0.474-0.739 0.904 0 0.596 0.463 0.971 1.114 0.794l7.809-2.073c-0.088-0.563-0.143-1.147-0.188-1.754l-7.996 2.129zM2.621 23.944c-0.463 0.121-0.739 0.463-0.739 0.904 0 0.596 0.474 0.971 1.114 0.794l8.702-2.327c-0.198-0.485-0.408-1.158-0.529-1.654l-8.548 2.283zM17.423 19.797c0.364 0 0.618-0.176 0.772-0.64l0.728-2.107h3.54l0.717 2.107c0.154 0.463 0.408 0.64 0.772 0.64 0.441 0 0.739-0.276 0.739-0.695 0-0.154-0.033-0.298-0.099-0.518l-2.79-7.489c-0.188-0.518-0.585-0.783-1.125-0.783s-0.904 0.265-1.103 0.783l-2.779 7.489c-0.088 0.221-0.11 0.364-0.11 0.518 0 0.419 0.287 0.695 0.739 0.695zM19.32 15.849l1.324-3.827h0.099l1.312 3.827h-2.735z"></path>
</svg>
