<!-- Generated by IcoMoon.io -->
<svg version="1.1" xmlns="http://www.w3.org/2000/svg" width="32" height="32" viewBox="0 0 32 32">
<title>autostartstop-slash</title>
<path d="M4.706 16.366c0 3.717 1.897 7.004 4.71 9.099 0.485 0.375 1.092 0.254 1.368-0.199s0.132-0.982-0.32-1.312c-2.349-1.688-3.871-4.445-3.882-7.588-0.011-1.809 0.496-3.485 1.379-4.908l-1.324-1.335c-1.213 1.798-1.93 3.937-1.93 6.243zM15.956 6.991c5.206 0 9.397 4.169 9.375 9.375-0.011 1.809-0.518 3.485-1.412 4.908l1.334 1.324c1.213-1.798 1.952-3.927 1.952-6.232 0-6.154-5.096-11.25-11.25-11.25-2.305 0-4.456 0.717-6.254 1.93l1.346 1.346c1.423-0.882 3.099-1.401 4.908-1.401zM19.695 23.193l-0.816 3.927c-0.121 0.618 0.243 0.993 0.882 0.904l4.158-0.607-4.224-4.224zM14.5 11.844l1.125 1.125 0.265-0.728h0.121l0.618 1.732 2.515 2.515-1.963-5.261c-0.21-0.573-0.629-0.871-1.235-0.871-0.596 0-1.004 0.298-1.224 0.871l-0.221 0.618zM13.176 20.182l0.904-2.603-1.246-1.246-1.202 3.221c-0.088 0.232-0.121 0.408-0.121 0.574 0 0.452 0.331 0.761 0.816 0.761 0.397 0 0.684-0.198 0.849-0.706zM25.474 27.097c0.331 0.331 0.871 0.32 1.202-0.011 0.32-0.331 0.331-0.871 0-1.202l-20.239-20.228c-0.331-0.331-0.871-0.342-1.213 0-0.32 0.32-0.32 0.871 0 1.202l20.25 20.239z"></path>
</svg>
