<!-- Generated by IcoMoon.io -->
<svg version="1.1" xmlns="http://www.w3.org/2000/svg" width="32" height="32" viewBox="0 0 32 32">
<title>auto-headlight-high-beam-fill</title>
<path d="M12.471 15.754c-0.022 2.074 0.143 4.081 0.717 6.121 0.662 2.228 1.919 3.022 4.555 3.022h0.607c6.452 0 12.176-4.202 12.176-9.143s-5.724-9.165-12.176-9.165h-0.607c-2.625 0-3.882 0.805-4.555 3.033-0.574 2.051-0.739 4.059-0.717 6.132zM1.882 9.599c0 0.496 0.397 0.882 0.882 0.882h8.206c0.199-0.86 0.298-1.312 0.463-1.765h-8.669c-0.485 0-0.882 0.408-0.882 0.882zM1.882 13.691c0 0.485 0.408 0.882 0.882 0.882l7.743 0.011c0.022-0.607 0.066-1.191 0.121-1.776h-7.864c-0.485 0-0.882 0.408-0.882 0.882zM1.882 17.805c0 0.474 0.397 0.86 0.882 0.86h7.864c-0.055-0.573-0.088-1.158-0.121-1.754h-7.743c-0.485 0-0.882 0.408-0.882 0.893zM1.882 21.897c0 0.474 0.397 0.86 0.882 0.86l8.658 0.011c-0.143-0.419-0.342-1.246-0.452-1.754l-8.206-0.011c-0.485 0-0.882 0.408-0.882 0.893zM17.235 20.044c-0.474 0-0.772-0.287-0.772-0.728 0-0.154 0.033-0.309 0.121-0.529l2.857-7.721c0.21-0.54 0.585-0.816 1.147-0.816s0.971 0.276 1.169 0.816l2.868 7.721c0.077 0.221 0.11 0.375 0.11 0.529 0 0.441-0.309 0.728-0.772 0.728-0.375 0-0.64-0.187-0.794-0.662l-0.739-2.173h-3.651l-0.75 2.173c-0.154 0.474-0.419 0.662-0.794 0.662zM19.187 15.963h2.824l-1.357-3.938h-0.099l-1.368 3.938z"></path>
</svg>
