<!-- Generated by IcoMoon.io -->
<svg version="1.1" xmlns="http://www.w3.org/2000/svg" width="32" height="32" viewBox="0 0 32 32">
<title>auto-headlight-high-beam</title>
<path d="M12.471 15.754c0 2.074 0.154 4.081 0.728 6.121 0.662 2.228 1.919 3.022 4.555 3.022h0.607c6.452 0 12.176-4.202 12.176-9.143s-5.724-9.165-12.176-9.165h-0.607c-2.625 0-3.882 0.805-4.555 3.033-0.573 2.051-0.728 4.059-0.728 6.132zM14.246 15.754c0-2.316 0.176-3.993 0.651-5.636 0.386-1.29 1.169-1.776 2.857-1.776h0.607c5.438 0 10.412 3.474 10.412 7.412 0 3.927-4.974 7.39-10.412 7.39h-0.607c-1.71 0-2.482-0.474-2.857-1.754-0.474-1.654-0.651-3.32-0.651-5.636zM1.882 9.599c0 0.496 0.397 0.882 0.882 0.882h8.206c0.199-0.86 0.298-1.312 0.463-1.765h-8.669c-0.485 0-0.882 0.408-0.882 0.882zM1.882 13.691c0 0.485 0.408 0.882 0.882 0.882l7.743 0.011c0.022-0.607 0.066-1.191 0.121-1.776h-7.864c-0.485 0-0.882 0.408-0.882 0.882zM1.882 17.805c0 0.474 0.397 0.86 0.882 0.86h7.864c-0.055-0.573-0.088-1.158-0.121-1.754h-7.743c-0.485 0-0.882 0.408-0.882 0.893zM1.882 21.897c0 0.474 0.397 0.86 0.882 0.86l8.658 0.011c-0.143-0.419-0.342-1.246-0.452-1.754l-8.206-0.011c-0.485 0-0.882 0.408-0.882 0.893zM17.335 19.89c0.364 0 0.618-0.176 0.772-0.64l0.728-2.107h3.54l0.717 2.107c0.154 0.463 0.408 0.64 0.772 0.64 0.441 0 0.739-0.276 0.739-0.695 0-0.154-0.033-0.298-0.099-0.518l-2.791-7.489c-0.187-0.518-0.585-0.783-1.125-0.783s-0.904 0.265-1.103 0.783l-2.779 7.489c-0.077 0.221-0.11 0.364-0.11 0.518 0 0.419 0.287 0.695 0.739 0.695zM19.232 15.941l1.323-3.827h0.099l1.312 3.827h-2.735z"></path>
</svg>
