<!-- Generated by IcoMoon.io -->
<svg version="1.1" xmlns="http://www.w3.org/2000/svg" width="32" height="32" viewBox="0 0 32 32">
<title>av-remote-fill</title>
<path d="M12.29 28.665h6.838c1.765 0 2.879-1.081 2.879-2.746v-20.36c0-1.665-1.114-2.735-2.879-2.735h-6.838c-1.765 0-2.879 1.070-2.879 2.735v20.36c0 1.665 1.114 2.746 2.879 2.746zM16.404 6.805c-0.397 0-0.717-0.309-0.717-0.706s0.32-0.717 0.717-0.717h2.426c0.397 0 0.706 0.32 0.706 0.717s-0.309 0.706-0.706 0.706h-2.426zM12.93 11.040c-0.607 0-1.103-0.485-1.103-1.114 0-0.596 0.496-1.103 1.103-1.103 0.618 0 1.114 0.507 1.114 1.103 0 0.629-0.496 1.114-1.114 1.114zM15.71 11.040c-0.618 0-1.103-0.485-1.103-1.114 0-0.596 0.485-1.103 1.103-1.103s1.103 0.507 1.103 1.103c0 0.629-0.485 1.114-1.103 1.114zM18.5 11.040c-0.618 0-1.103-0.485-1.103-1.114 0-0.596 0.485-1.103 1.103-1.103 0.607 0 1.103 0.507 1.103 1.103 0 0.629-0.496 1.114-1.103 1.114zM12.93 14.217c-0.607 0-1.103-0.485-1.103-1.103 0-0.596 0.496-1.103 1.103-1.103 0.618 0 1.114 0.507 1.114 1.103 0 0.618-0.496 1.103-1.114 1.103zM15.71 14.217c-0.618 0-1.103-0.485-1.103-1.103 0-0.596 0.485-1.103 1.103-1.103s1.103 0.507 1.103 1.103c0 0.618-0.485 1.103-1.103 1.103zM18.5 14.217c-0.618 0-1.103-0.485-1.103-1.103 0-0.596 0.485-1.103 1.103-1.103 0.607 0 1.103 0.507 1.103 1.103 0 0.618-0.496 1.103-1.103 1.103zM12.93 17.393c-0.607 0-1.103-0.474-1.103-1.103 0-0.607 0.496-1.103 1.103-1.103 0.618 0 1.114 0.496 1.114 1.103 0 0.629-0.496 1.103-1.114 1.103zM15.71 17.393c-0.618 0-1.103-0.496-1.103-1.103 0-0.618 0.485-1.103 1.103-1.103s1.103 0.485 1.103 1.103c0 0.607-0.485 1.103-1.103 1.103zM18.5 17.393c-0.618 0-1.103-0.496-1.103-1.103 0-0.618 0.485-1.103 1.103-1.103 0.607 0 1.103 0.485 1.103 1.103 0 0.607-0.496 1.103-1.103 1.103zM12.688 24.949c-0.474 0-0.86-0.386-0.86-0.86v-4.026c0-0.474 0.386-0.849 0.86-0.849s0.849 0.375 0.849 0.849v4.026c0 0.474-0.375 0.86-0.849 0.86zM15.147 21.651c-0.364 0-0.585-0.232-0.585-0.596v-0.739c0-0.375 0.221-0.607 0.585-0.607h1.114c0.386 0 0.596 0.232 0.596 0.607v0.739c0 0.364-0.21 0.596-0.596 0.596h-1.114zM15.147 24.43c-0.364 0-0.585-0.209-0.585-0.585v-0.739c0-0.375 0.221-0.596 0.585-0.596h1.114c0.386 0 0.596 0.221 0.596 0.596v0.739c0 0.375-0.21 0.585-0.596 0.585h-1.114zM18.743 24.949c-0.474 0-0.849-0.386-0.849-0.86v-4.026c0-0.474 0.375-0.849 0.849-0.849s0.86 0.375 0.86 0.849v4.026c0 0.474-0.386 0.86-0.86 0.86z"></path>
</svg>
