<!-- Generated by IcoMoon.io -->
<svg version="1.1" xmlns="http://www.w3.org/2000/svg" width="32" height="32" viewBox="0 0 32 32">
<title>av-remote</title>
<path d="M12.29 28.665h6.838c1.765 0 2.879-1.081 2.879-2.746v-20.36c0-1.665-1.114-2.735-2.879-2.735h-6.838c-1.765 0-2.879 1.070-2.879 2.735v20.36c0 1.665 1.114 2.746 2.879 2.746zM12.478 27.055c-0.882 0-1.434-0.529-1.434-1.368v-19.886c0-0.838 0.551-1.368 1.434-1.368h6.463c0.882 0 1.434 0.529 1.434 1.368v19.886c0 0.838-0.551 1.368-1.434 1.368h-6.463zM16.382 7.059h2.349c0.386 0 0.695-0.298 0.695-0.684 0-0.397-0.309-0.695-0.695-0.695h-2.349c-0.386 0-0.695 0.298-0.695 0.695 0 0.386 0.309 0.684 0.695 0.684zM13.018 11.162c0.596 0 1.070-0.463 1.070-1.070 0-0.585-0.474-1.070-1.070-1.070s-1.070 0.485-1.070 1.070c0 0.607 0.474 1.070 1.070 1.070zM15.71 11.162c0.596 0 1.070-0.463 1.070-1.070 0-0.585-0.474-1.070-1.070-1.070s-1.070 0.485-1.070 1.070c0 0.607 0.474 1.070 1.070 1.070zM18.412 11.162c0.596 0 1.070-0.463 1.070-1.070 0-0.585-0.474-1.070-1.070-1.070s-1.070 0.485-1.070 1.070c0 0.607 0.474 1.070 1.070 1.070zM13.018 14.25c0.596 0 1.070-0.474 1.070-1.070 0-0.585-0.474-1.070-1.070-1.070s-1.070 0.485-1.070 1.070c0 0.596 0.474 1.070 1.070 1.070zM15.71 14.25c0.596 0 1.070-0.474 1.070-1.070 0-0.585-0.474-1.070-1.070-1.070s-1.070 0.485-1.070 1.070c0 0.596 0.474 1.070 1.070 1.070zM18.412 14.25c0.596 0 1.070-0.474 1.070-1.070 0-0.585-0.474-1.070-1.070-1.070s-1.070 0.485-1.070 1.070c0 0.596 0.474 1.070 1.070 1.070zM13.018 17.327c0.596 0 1.070-0.463 1.070-1.070 0-0.585-0.474-1.070-1.070-1.070s-1.070 0.485-1.070 1.070c0 0.607 0.474 1.070 1.070 1.070zM15.71 17.327c0.596 0 1.070-0.485 1.070-1.070 0-0.596-0.474-1.070-1.070-1.070s-1.070 0.474-1.070 1.070c0 0.585 0.474 1.070 1.070 1.070zM18.412 17.327c0.596 0 1.070-0.485 1.070-1.070 0-0.596-0.474-1.070-1.070-1.070s-1.070 0.474-1.070 1.070c0 0.585 0.474 1.070 1.070 1.070zM12.776 24.651c0.463 0 0.827-0.375 0.827-0.827v-3.904c0-0.463-0.364-0.827-0.827-0.827-0.452 0-0.827 0.364-0.827 0.827v3.904c0 0.452 0.375 0.827 0.827 0.827zM15.169 21.452h1.070c0.375 0 0.585-0.221 0.585-0.574v-0.717c0-0.364-0.21-0.585-0.585-0.585h-1.070c-0.353 0-0.574 0.221-0.574 0.585v0.717c0 0.353 0.221 0.574 0.574 0.574zM15.169 24.154h1.070c0.375 0 0.585-0.21 0.585-0.574v-0.717c0-0.364-0.21-0.574-0.585-0.574h-1.070c-0.353 0-0.574 0.209-0.574 0.574v0.717c0 0.364 0.221 0.574 0.574 0.574zM18.654 24.651c0.452 0 0.827-0.375 0.827-0.827v-3.904c0-0.463-0.375-0.827-0.827-0.827-0.463 0-0.827 0.364-0.827 0.827v3.904c0 0.452 0.364 0.827 0.827 0.827z"></path>
</svg>
