<!-- Generated by IcoMoon.io -->
<svg version="1.1" xmlns="http://www.w3.org/2000/svg" width="32" height="32" viewBox="0 0 32 32">
<title>axel-2-front-and-rear-engaged</title>
<path d="M6.661 11.11l0.827 0.298c0.86 0.32 1.665-0.077 1.985-0.96l1.555-4.268c0.32-0.882-0.044-1.688-0.904-2.007l-0.827-0.298c-0.86-0.32-1.654 0.077-1.985 0.971l-1.544 4.257c-0.331 0.882 0.033 1.687 0.893 2.007zM21.187 11.11l0.838 0.298c0.86 0.32 1.654-0.077 1.974-0.96l1.555-4.268c0.331-0.882-0.044-1.688-0.893-2.007l-0.838-0.298c-0.86-0.32-1.643 0.077-1.974 0.971l-1.555 4.257c-0.32 0.882 0.044 1.698 0.893 2.007zM9.496 8.529h4.279v-1.776h-4.279v1.776zM17.658 8.529h4.18v-1.776h-4.18v1.776zM14.768 9.588v11.901h1.776v-11.901h-1.776zM15.661 10.503c1.588 0 2.846-1.268 2.846-2.868s-1.257-2.857-2.846-2.857c-1.599 0-2.868 1.257-2.868 2.857s1.268 2.868 2.868 2.868zM15.661 9.047c-0.794 0-1.423-0.618-1.423-1.412 0-0.783 0.629-1.412 1.423-1.412 0.783 0 1.401 0.629 1.401 1.412 0 0.794-0.618 1.412-1.401 1.412zM7.952 27.466h0.882c0.915 0 1.533-0.64 1.533-1.577v-4.533c0-0.949-0.618-1.588-1.533-1.588h-0.882c-0.904 0-1.522 0.64-1.522 1.588v4.533c0 0.938 0.618 1.577 1.522 1.577zM22.478 27.466h0.882c0.915 0 1.533-0.64 1.533-1.577v-4.533c0-0.949-0.618-1.588-1.533-1.588h-0.882c-0.904 0-1.522 0.64-1.522 1.588v4.533c0 0.938 0.618 1.577 1.522 1.577zM9.496 24.51h4.026v-1.776h-4.026v1.776zM17.79 24.51h4.048v-1.776h-4.048v1.776zM15.661 26.485c1.588 0 2.846-1.257 2.846-2.857s-1.257-2.868-2.846-2.868c-1.599 0-2.868 1.268-2.868 2.868s1.268 2.857 2.868 2.857zM15.661 25.040c-0.794 0-1.423-0.629-1.423-1.412 0-0.794 0.629-1.412 1.423-1.412 0.783 0 1.401 0.618 1.401 1.412 0 0.783-0.618 1.412-1.401 1.412z"></path>
</svg>
