<!-- Generated by IcoMoon.io -->
<svg version="1.1" xmlns="http://www.w3.org/2000/svg" width="32" height="32" viewBox="0 0 32 32">
<title>b-circle-fill</title>
<path d="M15.956 27.206c6.154 0 11.25-5.107 11.25-11.25 0-6.154-5.107-11.25-11.261-11.25-6.143 0-11.239 5.096-11.239 11.25 0 6.143 5.107 11.25 11.25 11.25zM13.243 21.051c-0.64 0-1.026-0.386-1.026-1.015v-8.36c0-0.651 0.386-1.026 1.026-1.026h3.342c1.952 0 3.221 1.004 3.221 2.57 0 1.136-0.695 2.018-1.82 2.294v0.066c1.511 0.187 2.448 1.158 2.448 2.548 0 1.787-1.522 2.923-3.871 2.923h-3.32zM13.993 15.073h1.71c1.522 0 2.349-0.574 2.349-1.566 0-0.938-0.684-1.511-1.831-1.511h-2.228v3.077zM13.993 19.706h1.842c1.897 0 2.768-0.518 2.768-1.654 0-1.092-0.805-1.721-2.195-1.721h-2.415v3.375z"></path>
</svg>
