<!-- Generated by IcoMoon.io -->
<svg version="1.1" xmlns="http://www.w3.org/2000/svg" width="32" height="32" viewBox="0 0 32 32">
<title>b-circle</title>
<path d="M15.956 27.206c6.154 0 11.25-5.107 11.25-11.25 0-6.154-5.107-11.25-11.261-11.25-6.143 0-11.239 5.096-11.239 11.25 0 6.143 5.107 11.25 11.25 11.25zM15.956 25.331c-5.206 0-9.364-4.169-9.364-9.375s4.147-9.375 9.353-9.375c5.206 0 9.386 4.169 9.386 9.375s-4.169 9.375-9.375 9.375zM13.309 20.897h3.221c2.283 0 3.75-1.103 3.75-2.835 0-1.346-0.904-2.294-2.371-2.471v-0.066c1.092-0.265 1.765-1.125 1.765-2.228 0-1.511-1.224-2.493-3.121-2.493h-3.243c-0.618 0-0.982 0.364-0.982 0.993v8.118c0 0.607 0.364 0.982 0.982 0.982zM14.037 15.096v-2.989h2.162c1.114 0 1.787 0.562 1.787 1.467 0 0.971-0.805 1.522-2.283 1.522h-1.665zM14.037 19.596v-3.287h2.349c1.346 0 2.129 0.618 2.129 1.677 0 1.103-0.849 1.61-2.68 1.61h-1.798z"></path>
</svg>
