<!-- Generated by IcoMoon.io -->
<svg version="1.1" xmlns="http://www.w3.org/2000/svg" width="32" height="32" viewBox="0 0 32 32">
<title>b-square</title>
<path d="M9.11 25.974h13.379c2.316 0 3.463-1.147 3.463-3.419v-13.467c0-2.272-1.147-3.419-3.463-3.419h-13.379c-2.305 0-3.463 1.136-3.463 3.419v13.467c0 2.283 1.158 3.419 3.463 3.419zM9.132 24.198c-1.103 0-1.71-0.585-1.71-1.732v-13.29c0-1.147 0.607-1.732 1.71-1.732h13.335c1.092 0 1.71 0.585 1.71 1.732v13.29c0 1.147-0.618 1.732-1.71 1.732h-13.335zM13.169 20.746h3.221c2.283 0 3.75-1.103 3.75-2.835 0-1.346-0.904-2.294-2.371-2.471v-0.066c1.092-0.265 1.765-1.125 1.765-2.228 0-1.511-1.224-2.493-3.121-2.493h-3.243c-0.607 0-0.971 0.364-0.971 0.993v8.118c0 0.607 0.364 0.982 0.971 0.982zM13.897 14.945v-2.989h2.162c1.114 0 1.787 0.563 1.787 1.467 0 0.971-0.805 1.522-2.283 1.522h-1.665zM13.897 19.445v-3.287h2.349c1.346 0 2.129 0.618 2.129 1.676 0 1.103-0.849 1.61-2.68 1.61h-1.798z"></path>
</svg>
