<!-- Generated by IcoMoon.io -->
<svg version="1.1" xmlns="http://www.w3.org/2000/svg" width="32" height="32" viewBox="0 0 32 32">
<title>backward-end</title>
<path d="M8.467 24.82c0.529 0 0.949-0.397 0.949-0.915v-16.379c0-0.518-0.419-0.926-0.949-0.926-0.518 0-0.938 0.408-0.938 0.926v16.379c0 0.518 0.419 0.915 0.938 0.915zM22.982 24.379c0.871 0 1.588-0.662 1.588-1.897v-13.544c0-1.235-0.717-1.897-1.588-1.897-0.452 0-0.816 0.143-1.268 0.408l-11.239 6.618c-0.783 0.463-1.114 1.015-1.114 1.643s0.331 1.18 1.114 1.643l11.239 6.618c0.452 0.265 0.816 0.408 1.268 0.408zM22.507 22.338c-0.077 0-0.165-0.033-0.276-0.099l-10.478-6.221c-0.154-0.088-0.243-0.165-0.243-0.309 0-0.154 0.077-0.221 0.243-0.309l10.478-6.221c0.11-0.066 0.198-0.099 0.276-0.099 0.154 0 0.298 0.11 0.298 0.331v12.596c0 0.221-0.143 0.331-0.298 0.331z"></path>
</svg>
