<!-- Generated by IcoMoon.io -->
<svg version="1.1" xmlns="http://www.w3.org/2000/svg" width="32" height="32" viewBox="0 0 32 32">
<title>backward-end-circle</title>
<path d="M15.956 27.206c6.154 0 11.25-5.107 11.25-11.25 0-6.154-5.107-11.25-11.261-11.25-6.143 0-11.239 5.096-11.239 11.25 0 6.143 5.107 11.25 11.25 11.25zM15.956 25.331c-5.206 0-9.364-4.169-9.364-9.375s4.147-9.375 9.353-9.375c5.206 0 9.386 4.169 9.386 9.375s-4.169 9.375-9.375 9.375zM20.004 20.015c0.397 0 0.728-0.298 0.728-0.871v-6.342c0-0.574-0.331-0.871-0.728-0.871-0.21 0-0.397 0.066-0.596 0.187l-5.261 3.088c-0.364 0.21-0.518 0.474-0.518 0.761 0 0.298 0.154 0.563 0.518 0.772l5.261 3.088c0.198 0.121 0.386 0.187 0.596 0.187zM11.842 20.158h1.18c0.441 0 0.684-0.221 0.684-0.673v-7.048c0-0.463-0.243-0.684-0.684-0.684h-1.18c-0.441 0-0.684 0.232-0.684 0.684v7.048c0 0.452 0.243 0.673 0.684 0.673z"></path>
</svg>
