<!-- Generated by IcoMoon.io -->
<svg version="1.1" xmlns="http://www.w3.org/2000/svg" width="32" height="32" viewBox="0 0 32 32">
<title>backpack-circle-fill</title>
<path d="M15.956 27.217c6.154 0 11.25-5.096 11.25-11.25 0-6.143-5.107-11.25-11.261-11.25-6.143 0-11.239 5.107-11.239 11.25 0 6.154 5.107 11.25 11.25 11.25zM14.169 22.893c-1.996 0-2.989-1.015-2.978-3.055 0.033-2.327 0.044-4.015 0.099-5.272 0.132-2.934 0.805-4.235 2.779-4.643 0.121-0.904 0.86-1.544 1.875-1.544s1.754 0.64 1.875 1.544c1.974 0.408 2.647 1.71 2.779 4.643 0.055 1.257 0.066 2.945 0.099 5.272 0.011 2.040-0.982 3.055-2.978 3.055h-3.551zM14.996 9.79c0.298-0.022 0.607-0.033 0.949-0.033s0.651 0.011 0.949 0.033c-0.165-0.331-0.507-0.551-0.949-0.551s-0.783 0.221-0.949 0.551zM13.198 17.544h5.493v-0.739c0-0.485-0.309-0.805-0.816-0.805h-3.849c-0.507 0-0.827 0.32-0.827 0.805v0.739zM14.026 20.599h3.849c0.507 0 0.816-0.32 0.816-0.816v-1.522h-5.493v1.522c0 0.496 0.32 0.816 0.827 0.816z"></path>
</svg>
