<!-- Generated by IcoMoon.io -->
<svg version="1.1" xmlns="http://www.w3.org/2000/svg" width="32" height="32" viewBox="0 0 32 32">
<title>backward</title>
<path d="M14.563 24.879c0.86 0 1.588-0.662 1.588-1.886v-13.555c0-1.224-0.728-1.886-1.588-1.886-0.452 0-0.816 0.143-1.268 0.408l-11.239 6.618c-0.783 0.463-1.114 1.004-1.114 1.632 0 0.64 0.331 1.18 1.114 1.643l11.239 6.618c0.441 0.265 0.816 0.408 1.268 0.408zM14.077 22.838c-0.077 0-0.165-0.022-0.265-0.088l-10.489-6.221c-0.154-0.088-0.243-0.165-0.243-0.32 0-0.143 0.088-0.221 0.243-0.309l10.489-6.221c0.11-0.055 0.187-0.088 0.265-0.088 0.165 0 0.298 0.099 0.298 0.331v12.585c0 0.232-0.132 0.331-0.298 0.331zM29.717 24.879c0.86 0 1.588-0.662 1.588-1.886v-13.555c0-1.224-0.728-1.886-1.588-1.886-0.452 0-0.816 0.143-1.268 0.408l-11.239 6.618c-0.783 0.463-1.114 1.004-1.114 1.632 0 0.64 0.331 1.18 1.114 1.643l11.239 6.618c0.441 0.265 0.816 0.408 1.268 0.408zM29.232 22.838c-0.066 0-0.154-0.022-0.265-0.088l-10.489-6.221c-0.154-0.088-0.232-0.165-0.232-0.32 0-0.143 0.077-0.221 0.232-0.309l10.489-6.221c0.11-0.055 0.199-0.088 0.265-0.088 0.165 0 0.298 0.099 0.298 0.331v12.585c0 0.232-0.132 0.331-0.298 0.331z"></path>
</svg>
