<!-- Generated by IcoMoon.io -->
<svg version="1.1" xmlns="http://www.w3.org/2000/svg" width="32" height="32" viewBox="0 0 32 32">
<title>backward-fill</title>
<path d="M14.563 24.879c0.86 0 1.588-0.662 1.588-1.886v-13.555c0-1.224-0.728-1.886-1.588-1.886-0.452 0-0.816 0.143-1.268 0.408l-11.239 6.618c-0.783 0.463-1.114 1.004-1.114 1.632 0 0.64 0.331 1.18 1.114 1.643l11.239 6.618c0.441 0.265 0.816 0.408 1.268 0.408zM29.717 24.879c0.86 0 1.588-0.662 1.588-1.886v-13.555c0-1.224-0.728-1.886-1.588-1.886-0.452 0-0.816 0.143-1.268 0.408l-11.239 6.618c-0.783 0.463-1.114 1.004-1.114 1.632 0 0.64 0.331 1.18 1.114 1.643l11.239 6.618c0.441 0.265 0.816 0.408 1.268 0.408z"></path>
</svg>
