<!-- Generated by IcoMoon.io -->
<svg version="1.1" xmlns="http://www.w3.org/2000/svg" width="32" height="32" viewBox="0 0 32 32">
<title>backpack-fill</title>
<path d="M12.291 29.544h6.739c3.838 0 5.735-1.941 5.702-5.824-0.044-4.434-0.066-7.654-0.176-10.070-0.32-7.103-2.316-9.188-8.89-9.188s-8.581 2.085-8.901 9.188c-0.11 2.415-0.132 5.636-0.176 10.070-0.033 3.882 1.864 5.824 5.702 5.824zM11.971 25.165c-0.949 0-1.555-0.618-1.555-1.544v-5.691c0-0.938 0.607-1.555 1.555-1.555h7.39c0.938 0 1.544 0.618 1.544 1.555v5.691c0 0.926-0.607 1.544-1.544 1.544h-7.39zM10.416 20.621h10.489v-1.313h-10.489v1.313zM15.666 1.882c-2.118 0-3.607 1.434-3.607 3.386h1.555c0-1.070 0.838-1.831 2.051-1.831 1.202 0 2.051 0.761 2.051 1.831h1.555c0-1.952-1.5-3.386-3.607-3.386z"></path>
</svg>
