<!-- Generated by IcoMoon.io -->
<svg version="1.1" xmlns="http://www.w3.org/2000/svg" width="32" height="32" viewBox="0 0 32 32">
<title>backpack</title>
<path d="M12.291 29.544h6.739c3.838 0 5.735-1.941 5.702-5.824-0.044-4.434-0.066-7.654-0.176-10.070-0.32-7.103-2.316-9.188-8.89-9.188s-8.581 2.085-8.901 9.188c-0.11 2.415-0.132 5.636-0.176 10.070-0.033 3.882 1.864 5.824 5.702 5.824zM12.291 27.923c-2.923 0-4.103-1.202-4.081-4.18 0.044-4.434 0.077-7.632 0.188-10.015 0.276-6.243 1.599-7.632 7.268-7.632 5.658 0 6.982 1.39 7.268 7.632 0.099 2.382 0.132 5.581 0.176 10.015 0.022 2.978-1.158 4.18-4.081 4.18h-6.739zM15.666 1.882c-2.118 0-3.607 1.434-3.607 3.386h1.555c0-1.070 0.838-1.831 2.051-1.831 1.202 0 2.051 0.761 2.051 1.831h1.555c0-1.952-1.5-3.386-3.607-3.386zM12.037 25.198h7.257c0.993 0 1.643-0.651 1.643-1.632v-5.592c0-0.993-0.651-1.643-1.643-1.643h-7.257c-0.993 0-1.654 0.662-1.654 1.643v5.592c0 0.971 0.662 1.632 1.654 1.632zM12.302 23.654c-0.221 0-0.364-0.143-0.364-0.353v-5.063c0-0.221 0.143-0.364 0.364-0.364h6.717c0.221 0 0.364 0.143 0.364 0.364v5.063c0 0.21-0.143 0.353-0.364 0.353h-6.717zM11.265 20.677h8.79v-1.39h-8.79v1.39z"></path>
</svg>
