<!-- Generated by IcoMoon.io -->
<svg version="1.1" xmlns="http://www.w3.org/2000/svg" width="32" height="32" viewBox="0 0 32 32">
<title>backpack-circle</title>
<path d="M15.956 27.206c6.154 0 11.25-5.107 11.25-11.25 0-6.154-5.107-11.25-11.261-11.25-6.143 0-11.239 5.096-11.239 11.25 0 6.143 5.107 11.25 11.25 11.25zM15.956 25.331c-5.206 0-9.364-4.169-9.364-9.375s4.147-9.375 9.353-9.375c5.206 0 9.386 4.169 9.386 9.375s-4.169 9.375-9.375 9.375zM14.224 22.662h3.441c1.941 0 2.901-0.982 2.89-2.956-0.033-2.261-0.044-3.904-0.099-5.118-0.154-3.618-1.169-4.665-4.511-4.665s-4.346 1.048-4.511 4.665c-0.055 1.213-0.066 2.857-0.099 5.118-0.011 1.974 0.949 2.956 2.89 2.956zM14.081 20.434c-0.485 0-0.794-0.309-0.794-0.783v-2.89c0-0.474 0.309-0.794 0.794-0.794h3.739c0.485 0 0.783 0.32 0.783 0.794v2.89c0 0.474-0.298 0.783-0.783 0.783h-3.739zM13.287 18.173h5.316v-0.695h-5.316v0.695zM15.945 8.588c-1.081 0-1.842 0.75-1.842 1.754h0.827c0-0.529 0.441-0.927 1.015-0.927s1.015 0.397 1.015 0.927h0.816c0-1.004-0.75-1.754-1.831-1.754z"></path>
</svg>
