<!-- Generated by IcoMoon.io -->
<svg version="1.1" xmlns="http://www.w3.org/2000/svg" width="32" height="32" viewBox="0 0 32 32">
<title>backward-end-alt-fill</title>
<path d="M-0.415 24.555h2.515c0.96 0 1.467-0.507 1.467-1.478v-15.022c0-1.004-0.507-1.467-1.467-1.467h-2.515c-0.96 0-1.467 0.507-1.467 1.467v15.022c0 0.971 0.507 1.478 1.467 1.478zM17.132 24.224c0.871 0 1.588-0.651 1.588-1.886v-13.544c0-1.235-0.717-1.897-1.588-1.897-0.452 0-0.816 0.143-1.268 0.408l-11.239 6.618c-0.783 0.463-1.114 1.004-1.114 1.643 0 0.629 0.331 1.18 1.114 1.643l11.239 6.607c0.452 0.265 0.816 0.408 1.268 0.408zM32.287 24.224c0.871 0 1.588-0.651 1.588-1.886v-13.544c0-1.235-0.717-1.897-1.588-1.897-0.452 0-0.816 0.143-1.268 0.408l-11.239 6.618c-0.783 0.463-1.114 1.004-1.114 1.643 0 0.629 0.331 1.18 1.114 1.643l11.239 6.607c0.452 0.265 0.816 0.408 1.268 0.408z"></path>
</svg>
