<!-- Generated by IcoMoon.io -->
<svg version="1.1" xmlns="http://www.w3.org/2000/svg" width="32" height="32" viewBox="0 0 32 32">
<title>backward-circle</title>
<path d="M15.956 27.206c6.154 0 11.25-5.107 11.25-11.25 0-6.154-5.107-11.25-11.261-11.25-6.143 0-11.239 5.096-11.239 11.25 0 6.143 5.107 11.25 11.25 11.25zM15.956 25.331c-5.206 0-9.364-4.169-9.364-9.375s4.147-9.375 9.353-9.375c5.206 0 9.386 4.169 9.386 9.375s-4.169 9.375-9.375 9.375zM14.445 20.015c0.397 0 0.739-0.309 0.739-0.871v-6.353c0-0.562-0.342-0.871-0.739-0.871-0.21 0-0.375 0.066-0.596 0.187l-5.261 3.099c-0.353 0.21-0.507 0.474-0.507 0.761s0.154 0.552 0.507 0.761l5.261 3.099c0.221 0.121 0.386 0.187 0.596 0.187zM21.526 20.015c0.397 0 0.728-0.309 0.728-0.871v-6.353c0-0.562-0.331-0.871-0.728-0.871-0.21 0-0.397 0.066-0.596 0.187l-5.261 3.099c-0.364 0.21-0.518 0.474-0.518 0.761s0.154 0.552 0.518 0.761l5.261 3.099c0.198 0.121 0.386 0.187 0.596 0.187z"></path>
</svg>
