<!-- Generated by IcoMoon.io -->
<svg version="1.1" xmlns="http://www.w3.org/2000/svg" width="32" height="32" viewBox="0 0 32 32">
<title>backward-circle-fill</title>
<path d="M15.956 27.206c6.154 0 11.25-5.107 11.25-11.25 0-6.154-5.107-11.25-11.261-11.25-6.143 0-11.239 5.096-11.239 11.25 0 6.143 5.107 11.25 11.25 11.25zM7.86 15.967c0-0.298 0.165-0.562 0.54-0.783l5.415-3.187c0.221-0.132 0.386-0.187 0.607-0.187 0.419 0 0.761 0.298 0.761 0.893v2.923c0.088-0.165 0.232-0.309 0.452-0.441l5.415-3.187c0.221-0.132 0.397-0.187 0.618-0.187 0.408 0 0.761 0.298 0.761 0.893v6.54c0 0.596-0.353 0.893-0.761 0.893-0.221 0-0.397-0.055-0.618-0.187l-5.415-3.187c-0.221-0.132-0.364-0.276-0.452-0.441v2.923c0 0.596-0.342 0.893-0.761 0.893-0.221 0-0.386-0.055-0.607-0.187l-5.415-3.187c-0.375-0.221-0.54-0.485-0.54-0.794z"></path>
</svg>
