<!-- Generated by IcoMoon.io -->
<svg version="1.1" xmlns="http://www.w3.org/2000/svg" width="32" height="32" viewBox="0 0 32 32">
<title>backward-end-circle-fill</title>
<path d="M15.956 27.206c6.154 0 11.25-5.107 11.25-11.25 0-6.154-5.107-11.25-11.261-11.25-6.143 0-11.239 5.096-11.239 11.25 0 6.143 5.107 11.25 11.25 11.25zM11.004 19.585v-7.257c0-0.463 0.254-0.706 0.706-0.706h1.224c0.452 0 0.706 0.232 0.706 0.706v3.32c0.077-0.176 0.221-0.331 0.452-0.463l5.426-3.187c0.198-0.121 0.397-0.187 0.607-0.187 0.419 0 0.761 0.309 0.761 0.893v6.54c0 0.596-0.342 0.893-0.761 0.893-0.209 0-0.408-0.066-0.607-0.187l-5.426-3.187c-0.232-0.132-0.375-0.287-0.452-0.463v3.287c0 0.474-0.254 0.706-0.706 0.706h-1.224c-0.452 0-0.706-0.232-0.706-0.706z"></path>
</svg>
