<!-- Generated by IcoMoon.io -->
<svg version="1.1" xmlns="http://www.w3.org/2000/svg" width="32" height="32" viewBox="0 0 32 32">
<title>bag-circle-fill</title>
<path d="M15.956 27.217c6.154 0 11.25-5.096 11.25-11.25 0-6.143-5.107-11.25-11.261-11.25-6.143 0-11.239 5.107-11.239 11.25 0 6.154 5.107 11.25 11.25 11.25zM12.57 21.559c-1.246 0-1.875-0.607-1.875-1.82v-6.143c0-1.224 0.629-1.82 1.875-1.82h0.938c0.022-1.257 1.103-2.316 2.448-2.316s2.426 1.059 2.449 2.316h0.938c1.246 0 1.875 0.607 1.875 1.82v6.143c0 1.213-0.618 1.82-1.688 1.82h-6.96zM14.61 11.776h2.691c-0.033-0.772-0.54-1.268-1.346-1.268s-1.312 0.496-1.346 1.268z"></path>
</svg>
