<!-- Generated by IcoMoon.io -->
<svg version="1.1" xmlns="http://www.w3.org/2000/svg" width="32" height="32" viewBox="0 0 32 32">
<title>bag-circle</title>
<path d="M15.956 27.206c6.154 0 11.25-5.107 11.25-11.25 0-6.154-5.107-11.25-11.261-11.25-6.143 0-11.239 5.096-11.239 11.25 0 6.143 5.107 11.25 11.25 11.25zM15.956 25.331c-5.206 0-9.364-4.169-9.364-9.375s4.147-9.375 9.353-9.375c5.206 0 9.386 4.169 9.386 9.375s-4.169 9.375-9.375 9.375zM12.669 21.36h6.75c1.037 0 1.632-0.596 1.632-1.765v-5.956c0-1.18-0.607-1.765-1.809-1.765h-0.915c-0.022-1.213-1.070-2.239-2.371-2.239s-2.349 1.026-2.371 2.239h-0.915c-1.202 0-1.809 0.585-1.809 1.765v5.956c0 1.18 0.607 1.765 1.809 1.765zM14.643 11.875c0.033-0.761 0.529-1.235 1.312-1.235s1.279 0.474 1.313 1.235h-2.625z"></path>
</svg>
