<!-- Generated by IcoMoon.io -->
<svg version="1.1" xmlns="http://www.w3.org/2000/svg" width="32" height="32" viewBox="0 0 32 32">
<title>bag</title>
<path d="M6.588 22.89c0 2.283 1.158 3.419 3.463 3.419h12.982c1.974 0 3.132-1.147 3.132-3.419v-11.415c0-2.272-1.169-3.419-3.463-3.419h-1.765c-0.055-2.316-2.073-4.29-4.566-4.29s-4.5 1.974-4.566 4.29h-1.754c-2.305 0-3.463 1.136-3.463 3.419v11.415zM8.364 22.802v-11.239c0-1.147 0.607-1.732 1.71-1.732h12.596c1.092 0 1.721 0.585 1.721 1.732v11.239c0 1.147-0.629 1.732-1.39 1.732h-12.927c-1.103 0-1.71-0.585-1.71-1.732zM13.581 8.055c0.055-1.434 1.235-2.614 2.79-2.614s2.746 1.18 2.791 2.614h-5.581z"></path>
</svg>
