<!-- Generated by IcoMoon.io -->
<svg version="1.1" xmlns="http://www.w3.org/2000/svg" width="32" height="32" viewBox="0 0 32 32">
<title>bahtsign-square</title>
<path d="M9.11 25.974h13.379c2.316 0 3.463-1.147 3.463-3.419v-13.467c0-2.272-1.147-3.419-3.463-3.419h-13.379c-2.305 0-3.463 1.136-3.463 3.419v13.467c0 2.283 1.158 3.419 3.463 3.419zM9.132 24.198c-1.103 0-1.71-0.585-1.71-1.732v-13.29c0-1.147 0.607-1.732 1.71-1.732h13.335c1.092 0 1.71 0.585 1.71 1.732v13.29c0 1.147-0.618 1.732-1.71 1.732h-13.335zM15.982 22.312c0.309 0 0.54-0.221 0.54-0.54v-0.739h0.143c2.051 0 3.353-1.125 3.353-2.912 0-1.246-0.739-2.173-1.886-2.515 0.816-0.397 1.39-1.268 1.39-2.206 0-1.522-1.158-2.625-2.857-2.625h-0.143v-0.838c0-0.309-0.232-0.529-0.54-0.529-0.298 0-0.529 0.221-0.529 0.529v0.838h-1.654c-0.507 0-0.871 0.353-0.871 0.871v8.526c0 0.507 0.353 0.86 0.871 0.86h1.654v0.739c0 0.32 0.232 0.54 0.529 0.54zM14.349 19.743v-3.353h1.103v3.342l-1.103 0.011zM16.522 19.721v-3.32c1.39 0.077 2.085 0.64 2.085 1.665 0 1.037-0.695 1.599-2.085 1.654zM14.349 15.11v-3.055h1.103v3.055h-1.103zM16.522 15.055v-2.978c1.026 0.088 1.577 0.585 1.577 1.434 0 0.86-0.529 1.401-1.577 1.544z"></path>
</svg>
