<!-- Generated by IcoMoon.io -->
<svg version="1.1" xmlns="http://www.w3.org/2000/svg" width="32" height="32" viewBox="0 0 32 32">
<title>bahtsign-circle</title>
<path d="M15.956 27.206c6.154 0 11.25-5.107 11.25-11.25 0-6.154-5.107-11.25-11.261-11.25-6.143 0-11.239 5.096-11.239 11.25 0 6.143 5.107 11.25 11.25 11.25zM15.956 25.331c-5.206 0-9.364-4.169-9.364-9.375s4.147-9.375 9.353-9.375c5.206 0 9.386 4.169 9.386 9.375s-4.169 9.375-9.375 9.375zM16.121 22.463c0.309 0 0.54-0.221 0.54-0.54v-0.739h0.143c2.051 0 3.353-1.125 3.353-2.912 0-1.246-0.739-2.173-1.886-2.515 0.805-0.397 1.379-1.268 1.379-2.206 0-1.522-1.147-2.625-2.846-2.625h-0.143v-0.838c0-0.309-0.232-0.53-0.54-0.53-0.298 0-0.529 0.221-0.529 0.53v0.838h-1.654c-0.507 0-0.871 0.353-0.871 0.871v8.526c0 0.507 0.353 0.86 0.871 0.86h1.654v0.739c0 0.32 0.232 0.54 0.529 0.54zM14.489 19.893v-3.353h1.103v3.342l-1.103 0.011zM16.662 19.871v-3.32c1.39 0.077 2.085 0.64 2.085 1.666 0 1.037-0.695 1.599-2.085 1.654zM14.478 15.261l0.011-3.055h1.103v3.055h-1.114zM16.662 15.206v-2.978c1.026 0.088 1.577 0.585 1.577 1.434 0 0.86-0.529 1.401-1.577 1.544z"></path>
</svg>
