<!-- Generated by IcoMoon.io -->
<svg version="1.1" xmlns="http://www.w3.org/2000/svg" width="32" height="32" viewBox="0 0 32 32">
<title>bahtsign-square-fill</title>
<path d="M9.11 25.974h13.379c2.316 0 3.463-1.147 3.463-3.419v-13.467c0-2.272-1.147-3.419-3.463-3.419h-13.379c-2.305 0-3.463 1.136-3.463 3.419v13.467c0 2.283 1.158 3.419 3.463 3.419zM15.993 22.522c-0.309 0-0.552-0.232-0.552-0.563v-0.761h-1.71c-0.529 0-0.893-0.364-0.893-0.893v-8.79c0-0.54 0.375-0.904 0.893-0.904h1.71v-0.86c0-0.32 0.243-0.552 0.552-0.552 0.32 0 0.551 0.232 0.551 0.552v0.86h0.154c1.754 0 2.945 1.136 2.945 2.713 0 0.971-0.596 1.864-1.434 2.272 1.18 0.353 1.941 1.312 1.941 2.603 0 1.842-1.335 3-3.452 3h-0.154v0.761c0 0.331-0.232 0.563-0.551 0.563zM14.305 19.864l1.136-0.011v-3.441h-1.136v3.452zM16.544 19.842c1.434-0.055 2.151-0.64 2.151-1.71 0-1.048-0.717-1.632-2.151-1.71v3.419zM14.305 15.088h1.136v-3.154h-1.136v3.154zM16.544 15.022c1.081-0.143 1.621-0.695 1.621-1.588 0-0.871-0.563-1.379-1.621-1.467v3.055z"></path>
</svg>
