<!-- Generated by IcoMoon.io -->
<svg version="1.1" xmlns="http://www.w3.org/2000/svg" width="32" height="32" viewBox="0 0 32 32">
<title>balloon-2</title>
<path d="M19.732 17.838c4.004 0 7.136-4.257 7.136-9.573 0-4.18-2.923-7.324-7.136-7.324s-7.114 3.143-7.114 7.324c0 5.316 3.121 9.573 7.114 9.573zM19.732 16.184c-3.077 0-5.448-3.596-5.448-7.919 0-3.154 2.25-5.658 5.448-5.658s5.471 2.504 5.471 5.658c0 4.324-2.404 7.919-5.471 7.919zM18.187 17.077l-0.518 1.985c-0.132 0.441 0.121 0.915 0.684 0.915h2.768c0.563 0 0.805-0.474 0.684-0.915l-0.529-1.985h-3.088zM19.599 30.952c0.43 0 0.794-0.364 0.794-0.794 0-2.415 2.195-2.978 2.195-5.427 0-2.515-2.129-2.989-2.107-5.184l-1.566 0.011c-0.011 2.989 2.118 3.452 2.118 5.173 0 1.754-2.206 2.018-2.206 5.427 0 0.43 0.342 0.794 0.772 0.794zM16.974 15.654l-1.522-0.75c-0.684 2.173-2.129 3.651-3.882 3.651-2.415 0-4.246-2.79-4.246-6.232 0-2.493 1.732-4.5 4.246-4.5 0.585 0 1.103 0.121 1.599 0.298l0.165-1.71c-0.529-0.154-1.125-0.254-1.765-0.254-3.496 0-5.923 2.691-5.923 6.165 0 4.357 2.581 7.908 5.923 7.908 2.426 0.011 4.467-1.875 5.404-4.577zM9.949 19.449l-0.463 1.809c-0.121 0.397 0.11 0.816 0.618 0.816h2.504c0.518 0 0.728-0.419 0.618-0.816l-0.474-1.809h-2.801zM11.25 31.107c0.397 0 0.717-0.32 0.717-0.695 0-2.107 1.853-2.393 1.853-4.489 0-2.217-1.798-2.327-1.776-4.268h-1.39c-0.022 2.647 1.787 2.779 1.787 4.268 0 1.467-1.864 1.489-1.864 4.489 0 0.375 0.287 0.695 0.673 0.695z"></path>
</svg>
