<!-- Generated by IcoMoon.io -->
<svg version="1.1" xmlns="http://www.w3.org/2000/svg" width="32" height="32" viewBox="0 0 32 32">
<title>balloon-fill</title>
<path d="M15.585 17.838c4.004 0 7.125-4.257 7.125-9.573 0-4.18-2.912-7.324-7.125-7.324s-7.114 3.143-7.114 7.324c0 5.316 3.11 9.573 7.114 9.573zM14.040 17.077l-0.518 1.985c-0.11 0.441 0.121 0.915 0.684 0.915h2.768c0.562 0 0.805-0.474 0.684-0.915l-0.54-1.985h-3.077zM15.452 30.952c0.43 0 0.783-0.364 0.783-0.794 0-2.415 2.195-2.978 2.195-5.427 0-2.515-2.118-2.989-2.096-5.184h-1.566c-0.011 3 2.107 3.463 2.107 5.184 0 1.754-2.206 2.018-2.206 5.427 0 0.43 0.353 0.794 0.783 0.794z"></path>
</svg>
