<!-- Generated by IcoMoon.io -->
<svg version="1.1" xmlns="http://www.w3.org/2000/svg" width="32" height="32" viewBox="0 0 32 32">
<title>bandage</title>
<path d="M6.414 25.897c2.338 2.327 5.647 2.305 8.206-0.243l3.364-3.386-1.246-1.257-3.364 3.375c-1.776 1.765-4.103 2.018-5.79 0.342-1.699-1.677-1.434-4.015 0.342-5.79l3.375-3.375-1.257-1.235-3.386 3.364c-2.548 2.559-2.57 5.868-0.243 8.206zM25.892 6.419c-2.338-2.327-5.647-2.316-8.195 0.232l-3.375 3.386 1.246 1.268 3.375-3.375c1.765-1.776 4.092-2.018 5.779-0.353 1.699 1.676 1.434 4.026-0.342 5.791l-3.375 3.375 1.268 1.246 3.375-3.375c2.559-2.548 2.57-5.857 0.243-8.195zM22.285 14.129l-4.114-4.103c-1.29-1.29-2.526-1.324-3.849 0.011l-4.279 4.29c-1.346 1.323-1.302 2.559-0.022 3.849l4.114 4.114c1.29 1.279 2.526 1.324 3.849-0.022l4.29-4.279c1.334-1.335 1.301-2.559 0.011-3.86zM17.157 11.36l3.794 3.794c0.629 0.629 0.563 1.092-0.099 1.743l-3.96 3.96c-0.651 0.662-1.114 0.728-1.743 0.099l-3.794-3.794c-0.629-0.629-0.563-1.103 0.099-1.754l3.96-3.949c0.651-0.662 1.114-0.728 1.743-0.099zM16.142 14.923c0.541 0 0.938-0.419 0.938-0.927 0.022-0.507-0.408-0.938-0.926-0.938s-0.927 0.43-0.927 0.96c0 0.474 0.43 0.904 0.915 0.904zM14.024 17.085c0.507 0 0.915-0.441 0.915-0.915 0-0.529-0.408-0.949-0.927-0.949-0.529 0-0.938 0.419-0.938 0.937 0 0.507 0.408 0.927 0.949 0.927zM18.293 17.085c0.518 0 0.949-0.43 0.938-0.938 0-0.507-0.408-0.927-0.949-0.927-0.485 0-0.915 0.43-0.915 0.904 0 0.529 0.419 0.96 0.927 0.96zM16.153 19.235c0.518 0 0.926-0.419 0.926-0.949 0-0.474-0.408-0.915-0.915-0.915-0.54 0-0.949 0.419-0.949 0.926 0 0.518 0.408 0.938 0.937 0.938z"></path>
</svg>
