<!-- Generated by IcoMoon.io -->
<svg version="1.1" xmlns="http://www.w3.org/2000/svg" width="32" height="32" viewBox="0 0 32 32">
<title>bandage-fill</title>
<path d="M6.371 25.699c2.272 2.305 5.404 2.217 7.996-0.188l1.908-1.787c-0.96 0.276-1.93 0.088-3.011-0.982l-4.015-4.026c-1.081-1.070-1.18-1.963-0.904-2.923l-1.787 1.908c-2.415 2.603-2.46 5.702-0.188 7.996zM14.301 21.618c1.103 1.103 2.173 1.136 3.298 0l4.015-4.026c1.147-1.136 1.125-2.184 0.022-3.287l-3.871-3.871c-1.103-1.103-2.151-1.125-3.287 0.022l-4.026 4.015c-1.125 1.136-1.103 2.195 0 3.298l3.849 3.849zM12.978 16.776c-0.419-0.419-0.419-1.059 0-1.478s1.059-0.408 1.478 0.011c0.386 0.397 0.397 1.048 0 1.445-0.441 0.441-1.081 0.419-1.478 0.022zM15.316 14.449c-0.419-0.419-0.419-1.070-0.022-1.478 0.419-0.419 1.059-0.419 1.478 0 0.408 0.408 0.419 1.048-0.011 1.478-0.397 0.386-1.059 0.386-1.445 0zM19.099 16.776c-0.408 0.397-1.059 0.397-1.478-0.022-0.386-0.386-0.386-1.048 0-1.445 0.43-0.43 1.070-0.419 1.478-0.011 0.419 0.419 0.419 1.059 0 1.478zM15.294 19.093c-0.397-0.397-0.419-1.037 0.022-1.467 0.397-0.408 1.048-0.397 1.445 0 0.419 0.408 0.43 1.070 0.011 1.467-0.43 0.419-1.059 0.419-1.478 0zM23.731 16.302l1.776-1.93c2.404-2.614 2.471-5.702 0.199-7.996-2.283-2.305-5.404-2.206-8.007 0.188l-1.919 1.776c0.949-0.276 1.974-0.055 3.055 1.026l4.015 4.015c1.081 1.070 1.158 1.963 0.882 2.923z"></path>
</svg>
