<!-- Generated by IcoMoon.io -->
<svg version="1.1" xmlns="http://www.w3.org/2000/svg" width="32" height="32" viewBox="0 0 32 32">
<title>banknote</title>
<path d="M1.882 23.938c0 0.529 0.353 0.882 0.882 0.882h27.364c0.529 0 0.871-0.353 0.871-0.882v-16.478c0-0.529-0.342-0.871-0.871-0.871h-27.364c-0.529 0-0.882 0.342-0.882 0.871v16.478zM3.658 22.724v-14.040c0-0.243 0.088-0.32 0.32-0.32h24.926c0.243 0 0.32 0.077 0.32 0.32v14.040c0 0.232-0.077 0.32-0.32 0.32h-24.926c-0.232 0-0.32-0.088-0.32-0.32zM4.849 21.202c0 0.419 0.232 0.651 0.64 0.651h21.915c0.397 0 0.64-0.232 0.64-0.651v-11.007c0-0.408-0.243-0.651-0.64-0.651h-21.915c-0.408 0-0.64 0.243-0.64 0.651v11.007zM5.963 20.485v-9.573c0-0.165 0.077-0.254 0.243-0.254h20.471c0.165 0 0.254 0.088 0.254 0.254v9.573c0 0.165-0.088 0.254-0.254 0.254h-20.471c-0.165 0-0.243-0.088-0.243-0.254zM16.397 21.853c2.382 0 4.279-2.393 4.279-6.165 0-3.761-1.897-6.143-4.279-6.143-2.316 0-4.18 2.382-4.18 6.143 0 3.772 1.864 6.165 4.18 6.165zM16.397 20.551c-1.566 0-2.901-1.864-2.901-4.864 0-2.989 1.335-4.842 2.901-4.842 1.632 0 3.011 1.853 3.011 4.842 0 3-1.379 4.864-3.011 4.864z"></path>
</svg>
