<!-- Generated by IcoMoon.io -->
<svg version="1.1" xmlns="http://www.w3.org/2000/svg" width="32" height="32" viewBox="0 0 32 32">
<title>banknote-fill</title>
<path d="M1.882 23.938c0 0.529 0.353 0.882 0.882 0.882h27.364c0.529 0 0.871-0.353 0.871-0.882v-16.478c0-0.529-0.342-0.871-0.871-0.871h-27.364c-0.529 0-0.882 0.342-0.882 0.871v16.478zM3.901 22.129v-12.849c0-0.441 0.254-0.673 0.662-0.673h23.757c0.419 0 0.662 0.232 0.662 0.673v12.849c0 0.43-0.243 0.673-0.662 0.673h-23.757c-0.408 0-0.662-0.243-0.662-0.673zM5.048 21.39c0 0.176 0.099 0.265 0.265 0.265h8.625c-1.169-1.191-1.853-3.298-1.853-5.967 0-2.658 0.684-4.754 1.831-5.934h-8.603c-0.165 0-0.265 0.088-0.265 0.265v11.371zM13.408 15.688c0 3.441 1.191 5.746 2.989 5.746 1.853 0 3.099-2.305 3.099-5.746s-1.246-5.735-3.099-5.735c-1.798 0-2.989 2.294-2.989 5.735zM18.923 21.654h8.647c0.165 0 0.265-0.088 0.265-0.265v-11.371c0-0.176-0.099-0.265-0.265-0.265h-8.636c1.18 1.18 1.875 3.276 1.875 5.934 0 2.669-0.706 4.776-1.886 5.967z"></path>
</svg>
