<!-- Generated by IcoMoon.io -->
<svg version="1.1" xmlns="http://www.w3.org/2000/svg" width="32" height="32" viewBox="0 0 32 32">
<title>barcode-viewfinder</title>
<path d="M6.529 12.684c0.585 0 0.893-0.331 0.893-0.904v-2.603c0-1.147 0.607-1.732 1.71-1.732h2.669c0.585 0 0.904-0.32 0.904-0.893s-0.32-0.882-0.904-0.882h-2.691c-2.305 0-3.463 1.136-3.463 3.408v2.702c0 0.574 0.32 0.904 0.882 0.904zM26.349 12.684c0.585 0 0.893-0.331 0.893-0.904v-2.702c0-2.272-1.158-3.408-3.463-3.408h-2.702c-0.573 0-0.893 0.309-0.893 0.882s0.32 0.893 0.893 0.893h2.669c1.092 0 1.721 0.585 1.721 1.732v2.603c0 0.574 0.32 0.904 0.882 0.904zM9.11 27.254h2.691c0.585 0 0.904-0.32 0.904-0.882 0-0.573-0.32-0.893-0.904-0.893h-2.669c-1.103 0-1.71-0.585-1.71-1.732v-2.603c0-0.584-0.32-0.904-0.893-0.904s-0.882 0.32-0.882 0.904v2.691c0 2.283 1.158 3.419 3.463 3.419zM21.077 27.254h2.702c2.305 0 3.463-1.147 3.463-3.419v-2.691c0-0.584-0.32-0.904-0.893-0.904s-0.882 0.32-0.882 0.904v2.603c0 1.147-0.629 1.732-1.721 1.732h-2.669c-0.573 0-0.893 0.32-0.893 0.893 0 0.563 0.32 0.882 0.893 0.882zM11.404 20.945h0.794v-8.967h-0.794v8.967zM13.191 20.945h1.489v-8.967h-1.489v8.967zM15.342 20.945h0.938v-8.967h-0.938v8.967zM17.118 20.945h1.445v-8.967h-1.445v8.967zM19.158 20.945h1.158v-8.967h-1.158v8.967zM20.735 20.945h0.739v-8.967h-0.739v8.967z"></path>
</svg>
