<!-- Generated by IcoMoon.io -->
<svg version="1.1" xmlns="http://www.w3.org/2000/svg" width="32" height="32" viewBox="0 0 32 32">
<title>barometer</title>
<path d="M15.923 18.404c1.346 0 2.448-1.103 2.448-2.449 0-1.357-1.103-2.448-2.448-2.448s-2.449 1.092-2.449 2.448c0 1.346 1.103 2.449 2.449 2.449zM15.923 17.015c-0.585 0-1.059-0.474-1.059-1.059 0-0.596 0.474-1.059 1.059-1.059s1.059 0.463 1.059 1.059c0 0.585-0.474 1.059-1.059 1.059zM15.426 17.743l-1.257-1.257-1.621 1.621c-0.342 0.342-0.342 0.915 0 1.257s0.904 0.342 1.257 0l1.621-1.621zM16.474 14.191l1.257 1.235 3.904-3.904c0.353-0.342 0.353-0.904 0-1.257-0.342-0.342-0.904-0.342-1.246 0l-3.915 3.926zM15.956 27.206c6.154 0 11.25-5.107 11.25-11.25 0-6.154-5.107-11.25-11.261-11.25-6.143 0-11.239 5.096-11.239 11.25 0 6.143 5.107 11.25 11.25 11.25zM15.956 25.331c-5.206 0-9.364-4.169-9.364-9.375s4.147-9.375 9.353-9.375c5.206 0 9.386 4.169 9.386 9.375s-4.169 9.375-9.375 9.375z"></path>
</svg>
