<!-- Generated by IcoMoon.io -->
<svg version="1.1" xmlns="http://www.w3.org/2000/svg" width="32" height="32" viewBox="0 0 32 32">
<title>baseball</title>
<path d="M13.43 26.114l1.081 0.265c0.949-2.934 0.728-6.243-0.927-9.088-1.643-2.835-4.379-4.699-7.379-5.338l-0.309 1.059c2.702 0.574 5.173 2.261 6.684 4.864 1.511 2.614 1.721 5.592 0.849 8.239zM8.886 14.776l1.015-1.864c0.132-0.243 0.055-0.541-0.187-0.662-0.254-0.143-0.563-0.077-0.695 0.176l-1.004 1.853c-0.143 0.254-0.055 0.562 0.199 0.684 0.243 0.143 0.529 0.066 0.673-0.187zM10.904 16.243l1.478-1.511c0.21-0.21 0.199-0.518 0-0.695-0.198-0.21-0.507-0.232-0.717-0.022l-1.478 1.511c-0.21 0.198-0.198 0.529 0.011 0.706 0.199 0.198 0.496 0.21 0.706 0.011zM12.471 18.504l1.842-1.037c0.265-0.143 0.331-0.452 0.187-0.684-0.143-0.243-0.441-0.342-0.684-0.198l-1.842 1.026c-0.254 0.143-0.331 0.463-0.176 0.695 0.143 0.243 0.419 0.331 0.673 0.199zM13.298 21.063l2.051-0.529c0.265-0.077 0.419-0.353 0.353-0.618-0.077-0.276-0.331-0.441-0.618-0.364l-2.040 0.529c-0.276 0.066-0.43 0.342-0.364 0.607 0.077 0.276 0.342 0.441 0.618 0.375zM13.452 23.654l2.107 0.055c0.287 0.011 0.507-0.221 0.507-0.496 0.011-0.265-0.21-0.496-0.485-0.507l-2.107-0.055c-0.287-0.011-0.507 0.221-0.518 0.496 0 0.276 0.221 0.496 0.496 0.507zM25.673 19.938l0.298-1.081c-2.724-0.563-5.195-2.239-6.706-4.842-1.5-2.625-1.721-5.614-0.849-8.25l-1.081-0.243c-0.949 2.923-0.717 6.21 0.926 9.066s4.39 4.688 7.412 5.349zM18.415 9.261c0.287 0.011 0.496-0.199 0.496-0.485 0.011-0.276-0.21-0.507-0.485-0.518l-2.107-0.066c-0.287 0.011-0.507 0.232-0.507 0.518-0.011 0.276 0.199 0.496 0.485 0.496l2.118 0.055zM18.68 11.754c0.276-0.077 0.43-0.342 0.342-0.607-0.055-0.276-0.32-0.441-0.596-0.364l-2.051 0.518c-0.287 0.077-0.419 0.353-0.331 0.618 0.044 0.276 0.309 0.43 0.585 0.353l2.051-0.518zM19.871 14.246c0.254-0.143 0.32-0.419 0.187-0.684-0.132-0.232-0.43-0.342-0.673-0.188l-1.853 1.048c-0.243 0.132-0.309 0.441-0.165 0.684 0.11 0.232 0.419 0.342 0.662 0.187l1.842-1.048zM21.691 16.232c0.209-0.221 0.198-0.529-0.011-0.728-0.188-0.188-0.507-0.199-0.706 0.011l-1.489 1.511c-0.198 0.188-0.187 0.507 0.022 0.695 0.187 0.187 0.496 0.199 0.695 0l1.489-1.489zM23.864 17.643c0.143-0.254 0.044-0.54-0.199-0.695-0.243-0.121-0.551-0.044-0.673 0.199l-1.015 1.853c-0.143 0.243-0.055 0.551 0.187 0.684 0.232 0.132 0.562 0.055 0.684-0.199l1.015-1.842zM15.956 27.206c6.154 0 11.25-5.107 11.25-11.25 0-6.154-5.107-11.25-11.261-11.25-6.143 0-11.239 5.096-11.239 11.25 0 6.143 5.107 11.25 11.25 11.25zM15.956 25.706c-5.327 0-9.75-4.423-9.75-9.75s4.412-9.75 9.739-9.75 9.761 4.423 9.761 9.75c0 5.327-4.423 9.75-9.75 9.75z"></path>
</svg>
