<!-- Generated by IcoMoon.io -->
<svg version="1.1" xmlns="http://www.w3.org/2000/svg" width="32" height="32" viewBox="0 0 32 32">
<title>baseball-diamond-bases</title>
<path d="M0.571 20.089l5.074 3.529c0.574 0.408 1.379 0.386 2.018-0.044l4.996-3.485c0.761-0.529 0.761-1.379 0-1.908l-5.051-3.518c-0.596-0.408-1.39-0.419-1.963-0.022l-5.074 3.54c-0.761 0.529-0.761 1.379 0 1.908zM9.659 13.273l5.085 3.529c0.574 0.408 1.379 0.386 2.007-0.055l5.007-3.474c0.761-0.529 0.761-1.379 0-1.908l-5.063-3.518c-0.585-0.419-1.379-0.419-1.952-0.022l-5.085 3.54c-0.75 0.529-0.75 1.379 0 1.908zM18.769 20.089l5.018 3.496c0.618 0.43 1.423 0.43 2.007 0.022l5.063-3.518c0.75-0.529 0.75-1.379 0-1.908l-5.063-3.518c-0.585-0.408-1.379-0.419-1.952-0.022l-5.073 3.54c-0.761 0.529-0.761 1.379 0 1.908z"></path>
</svg>
