<!-- Generated by IcoMoon.io -->
<svg version="1.1" xmlns="http://www.w3.org/2000/svg" width="32" height="32" viewBox="0 0 32 32">
<title>baseball-fill</title>
<path d="M4.706 15.956c0 5.206 3.651 9.662 8.504 10.897 0.342-0.926 0.562-1.93 0.629-2.934l-0.463-0.022c-0.287-0.011-0.518-0.243-0.518-0.529 0.011-0.287 0.243-0.518 0.54-0.507l0.463 0.022c-0.011-0.596-0.077-1.18-0.188-1.776l-0.463 0.121c-0.287 0.066-0.563-0.11-0.64-0.386-0.066-0.276 0.099-0.562 0.375-0.629l0.463-0.121c-0.176-0.574-0.397-1.147-0.684-1.699l-0.364 0.198c-0.265 0.132-0.551 0.044-0.695-0.21-0.165-0.243-0.077-0.573 0.176-0.717l0.353-0.187c-0.353-0.54-0.75-1.048-1.191-1.5l-0.254 0.276c-0.221 0.21-0.518 0.199-0.739-0.011-0.198-0.187-0.221-0.518-0.011-0.728l0.254-0.265c-0.419-0.375-0.871-0.684-1.346-0.982l-0.243 0.474c-0.143 0.265-0.441 0.342-0.695 0.198-0.265-0.132-0.353-0.452-0.21-0.717l0.243-0.463c-0.893-0.441-1.875-0.75-2.846-0.915-0.298 0.993-0.452 2.029-0.452 3.11zM15.956 27.206c4.677 0 8.757-2.956 10.423-7.070-1.059-0.187-2.096-0.54-3.066-1.004l-0.254 0.463c-0.121 0.265-0.463 0.342-0.706 0.21-0.243-0.143-0.342-0.463-0.187-0.717l0.243-0.441c-0.607-0.364-1.18-0.761-1.721-1.224l-0.353 0.353c-0.199 0.21-0.518 0.199-0.717 0-0.221-0.198-0.232-0.529-0.022-0.717l0.353-0.364c-0.496-0.507-0.938-1.081-1.346-1.71l-0.507 0.287c-0.254 0.165-0.574 0.044-0.684-0.188-0.143-0.254-0.077-0.573 0.176-0.706l0.496-0.287c-0.353-0.673-0.629-1.368-0.827-2.074l-0.607 0.143c-0.287 0.077-0.562-0.077-0.607-0.364-0.088-0.276 0.044-0.563 0.342-0.64l0.629-0.154c-0.132-0.651-0.198-1.323-0.209-1.985l-0.496-0.022c-0.298 0-0.518-0.221-0.496-0.507 0-0.298 0.221-0.529 0.518-0.54l0.496 0.022c0.099-1.081 0.298-2.151 0.684-3.154-0.518-0.066-1.037-0.11-1.566-0.11-4.676 0-8.724 2.945-10.412 7.048 1.048 0.198 2.074 0.507 3.033 0.993l0.243-0.43c0.132-0.265 0.452-0.331 0.717-0.176 0.254 0.121 0.331 0.43 0.187 0.684l-0.232 0.419c0.563 0.342 1.103 0.717 1.61 1.158l0.441-0.452c0.21-0.21 0.529-0.187 0.739 0.033 0.187 0.198 0.221 0.496 0 0.717l-0.43 0.43c0.518 0.54 0.993 1.114 1.401 1.754l0.507-0.276c0.254-0.154 0.562-0.044 0.706 0.199s0.077 0.562-0.199 0.706l-0.496 0.276c0.342 0.651 0.607 1.324 0.816 1.996l0.474-0.121c0.298-0.077 0.562 0.088 0.64 0.375 0.077 0.276-0.088 0.562-0.364 0.64l-0.496 0.132c0.132 0.695 0.199 1.39 0.21 2.085l0.529 0.022c0.287 0.011 0.518 0.243 0.507 0.518 0 0.287-0.232 0.529-0.529 0.518l-0.54-0.022c-0.077 1.081-0.298 2.14-0.673 3.154 0.518 0.077 1.070 0.121 1.621 0.121zM27.206 15.956c0-5.228-3.695-9.695-8.581-10.919-0.331 0.938-0.563 1.952-0.629 2.956l0.507 0.022c0.287 0.011 0.518 0.254 0.507 0.54 0 0.298-0.221 0.507-0.518 0.496l-0.507-0.022c0.011 0.551 0.066 1.114 0.176 1.665l0.342-0.077c0.287-0.077 0.54 0.088 0.618 0.375 0.066 0.276-0.066 0.551-0.353 0.629l-0.353 0.077c0.187 0.607 0.419 1.202 0.717 1.787l0.364-0.198c0.254-0.154 0.563-0.044 0.695 0.198 0.143 0.276 0.066 0.563-0.187 0.706l-0.364 0.199c0.353 0.529 0.728 1.015 1.136 1.456l0.353-0.353c0.21-0.21 0.54-0.198 0.739-0.011 0.209 0.199 0.221 0.529 0.011 0.761l-0.342 0.342c0.452 0.397 0.927 0.75 1.445 1.048l0.232-0.452c0.121-0.254 0.441-0.342 0.695-0.21 0.254 0.154 0.353 0.463 0.21 0.728l-0.232 0.441c0.904 0.441 1.875 0.739 2.879 0.893 0.287-0.982 0.441-2.007 0.441-3.077z"></path>
</svg>
