<!-- Generated by IcoMoon.io -->
<svg version="1.1" xmlns="http://www.w3.org/2000/svg" width="32" height="32" viewBox="0 0 32 32">
<title>baseball-circle</title>
<path d="M15.956 27.206c6.154 0 11.25-5.107 11.25-11.25 0-6.154-5.107-11.25-11.261-11.25-6.143 0-11.239 5.096-11.239 11.25 0 6.143 5.107 11.25 11.25 11.25zM15.956 25.331c-5.206 0-9.364-4.169-9.364-9.375s4.147-9.375 9.353-9.375c5.206 0 9.386 4.169 9.386 9.375s-4.169 9.375-9.375 9.375zM10.044 15.956c0 2.713 1.908 5.051 4.445 5.724 0.143-0.419 0.221-0.838 0.276-1.268l-0.232-0.011c-0.21-0.011-0.364-0.187-0.364-0.386 0.011-0.198 0.165-0.386 0.386-0.386l0.221 0.011c-0.011-0.254-0.044-0.496-0.077-0.761l-0.232 0.055c-0.198 0.055-0.397-0.077-0.441-0.265-0.055-0.209 0.066-0.43 0.254-0.474l0.221-0.055c-0.088-0.265-0.187-0.507-0.32-0.75l-0.154 0.088c-0.176 0.099-0.397 0.044-0.507-0.143-0.099-0.176-0.044-0.419 0.143-0.518l0.154-0.088c-0.165-0.232-0.331-0.452-0.529-0.662l-0.121 0.121c-0.143 0.143-0.375 0.132-0.529-0.011-0.143-0.132-0.154-0.386-0.011-0.529l0.11-0.11c-0.176-0.154-0.375-0.298-0.573-0.419l-0.121 0.221c-0.099 0.187-0.331 0.243-0.496 0.143-0.198-0.088-0.265-0.32-0.154-0.518l0.11-0.21c-0.397-0.199-0.805-0.331-1.224-0.419-0.143 0.507-0.232 1.070-0.232 1.621zM15.956 21.879c2.426 0 4.555-1.533 5.46-3.662-0.474-0.099-0.927-0.254-1.357-0.452l-0.121 0.221c-0.099 0.187-0.331 0.265-0.518 0.165-0.176-0.11-0.243-0.342-0.143-0.529l0.121-0.21c-0.276-0.165-0.54-0.364-0.794-0.563l-0.176 0.176c-0.143 0.143-0.375 0.121-0.529-0.011-0.143-0.143-0.165-0.375-0.022-0.518l0.176-0.176c-0.232-0.254-0.441-0.518-0.629-0.805l-0.243 0.143c-0.187 0.11-0.408 0.033-0.507-0.143-0.088-0.187-0.044-0.419 0.132-0.507l0.243-0.143c-0.154-0.32-0.287-0.64-0.386-0.971l-0.298 0.077c-0.209 0.055-0.397-0.066-0.452-0.276-0.055-0.187 0.044-0.397 0.265-0.452l0.309-0.077c-0.055-0.298-0.077-0.607-0.088-0.915h-0.254c-0.21-0.011-0.353-0.187-0.353-0.397 0-0.199 0.165-0.375 0.386-0.375l0.232 0.011c0.044-0.474 0.143-0.938 0.287-1.401-0.243-0.033-0.507-0.055-0.75-0.055-2.415 0-4.533 1.533-5.426 3.64 0.452 0.099 0.893 0.254 1.323 0.452l0.11-0.198c0.11-0.199 0.331-0.243 0.518-0.154 0.176 0.088 0.254 0.331 0.143 0.518l-0.11 0.198c0.265 0.154 0.507 0.342 0.739 0.529l0.232-0.221c0.154-0.143 0.353-0.132 0.529 0.011 0.154 0.143 0.154 0.375 0.011 0.518l-0.221 0.221c0.243 0.254 0.463 0.518 0.651 0.816l0.265-0.143c0.187-0.11 0.397-0.033 0.507 0.154 0.11 0.165 0.055 0.419-0.132 0.518l-0.254 0.143c0.154 0.298 0.276 0.607 0.375 0.926l0.243-0.066c0.198-0.055 0.397 0.066 0.452 0.265 0.044 0.209-0.077 0.419-0.265 0.474l-0.243 0.066c0.055 0.309 0.077 0.64 0.088 0.96h0.265c0.21 0.011 0.364 0.199 0.364 0.397 0 0.21-0.165 0.375-0.375 0.375l-0.276-0.011c-0.055 0.474-0.143 0.949-0.298 1.39 0.265 0.044 0.529 0.066 0.794 0.066zM21.879 15.956c0-2.724-1.941-5.073-4.489-5.746-0.143 0.43-0.232 0.86-0.276 1.29l0.254 0.011c0.199 0.011 0.364 0.187 0.353 0.386 0 0.221-0.154 0.386-0.375 0.386l-0.243-0.011c0.011 0.232 0.033 0.463 0.077 0.706l0.143-0.033c0.21-0.055 0.408 0.066 0.463 0.276 0.055 0.198-0.066 0.397-0.265 0.452l-0.154 0.044c0.088 0.265 0.187 0.518 0.331 0.772l0.143-0.077c0.187-0.11 0.419-0.033 0.518 0.143 0.099 0.21 0.044 0.408-0.143 0.507l-0.154 0.088c0.154 0.232 0.32 0.441 0.496 0.651l0.165-0.165c0.165-0.165 0.375-0.143 0.541 0 0.132 0.132 0.165 0.375 0 0.54l-0.154 0.154c0.198 0.176 0.408 0.331 0.629 0.463l0.11-0.199c0.099-0.176 0.342-0.265 0.496-0.154 0.198 0.099 0.265 0.32 0.154 0.507l-0.11 0.21c0.408 0.187 0.827 0.32 1.257 0.397 0.154-0.507 0.232-1.048 0.232-1.599z"></path>
</svg>
