<!-- Generated by IcoMoon.io -->
<svg version="1.1" xmlns="http://www.w3.org/2000/svg" width="32" height="32" viewBox="0 0 32 32">
<title>basket</title>
<path d="M2.824 14.662c0 1.037 0.64 1.688 1.688 1.688h22.445c1.048 0 1.699-0.651 1.699-1.688v-1.599c0-1.037-0.651-1.699-1.699-1.699h-22.445c-1.048 0-1.688 0.662-1.688 1.699v1.599zM4.941 13.118h21.585c0.243 0 0.386 0.143 0.386 0.386v0.706c0 0.243-0.143 0.397-0.386 0.397h-21.585c-0.243 0-0.375-0.154-0.375-0.397v-0.706c0-0.243 0.132-0.386 0.375-0.386zM9.838 27.401h11.802c2.548 0 3.331-1.489 3.662-3.088l1.754-8.404-1.732-0.298-1.643 8.029c-0.298 1.412-0.739 1.996-2.349 1.996h-11.184c-1.61 0-2.051-0.585-2.349-1.996l-1.643-8.029-1.732 0.298 1.754 8.404c0.331 1.599 1.114 3.088 3.662 3.088zM11.040 24.434c0.408-0.066 0.629-0.364 0.573-0.717l-0.915-5.768c-0.066-0.364-0.375-0.563-0.772-0.507-0.408 0.077-0.64 0.364-0.574 0.717l0.915 5.768c0.066 0.364 0.364 0.573 0.772 0.507zM14.206 24.368c0.397-0.022 0.662-0.287 0.64-0.651l-0.353-5.713c-0.033-0.375-0.309-0.629-0.717-0.596-0.397 0.033-0.662 0.298-0.64 0.673l0.353 5.702c0.022 0.375 0.32 0.618 0.717 0.585zM17.283 24.368c0.397 0.033 0.695-0.209 0.717-0.585l0.353-5.702c0.022-0.375-0.243-0.64-0.64-0.673-0.408-0.033-0.684 0.221-0.717 0.596l-0.353 5.713c-0.022 0.364 0.243 0.629 0.64 0.651zM20.437 24.434c0.397 0.066 0.706-0.143 0.772-0.507l0.926-5.768c0.055-0.353-0.176-0.64-0.585-0.717-0.397-0.055-0.706 0.143-0.772 0.507l-0.915 5.768c-0.055 0.353 0.165 0.651 0.573 0.717zM6.386 11.817h2.217l3.86-6.717c0.298-0.529 0.055-0.993-0.353-1.213-0.397-0.21-0.927-0.176-1.224 0.32l-4.5 7.61zM22.875 11.817h2.217l-4.5-7.61c-0.287-0.485-0.816-0.518-1.224-0.32-0.397 0.221-0.651 0.684-0.353 1.213l3.86 6.717z"></path>
</svg>
