<!-- Generated by IcoMoon.io -->
<svg version="1.1" xmlns="http://www.w3.org/2000/svg" width="32" height="32" viewBox="0 0 32 32">
<title>basketball-circle-fill</title>
<path d="M15.956 27.206c6.154 0 11.25-5.107 11.25-11.25 0-6.154-5.107-11.25-11.261-11.25-6.143 0-11.239 5.096-11.239 11.25 0 6.143 5.107 11.25 11.25 11.25zM9.868 15.68c0.022-1.015 0.452-2.272 1.081-3.176 0.441 0.132 0.717 0.904 0.728 1.39-0.684 0.529-1.279 1.114-1.809 1.787zM12.36 13.408c-0.121-0.563-0.441-1.279-0.971-1.467 0.463-0.518 0.993-0.949 1.588-1.29-0.132 0.585-0.176 1.412-0.055 2.426-0.199 0.099-0.375 0.221-0.563 0.331zM13.607 12.735c-0.121-1.158 0.011-1.985 0.132-2.459 0.596-0.221 1.213-0.375 1.875-0.408-0.706 0.507-1.136 1.268-1.136 2.151 0 0.132 0 0.254 0.011 0.353-0.298 0.11-0.607 0.232-0.882 0.364zM15.239 12.173c-0.033-1.202 0.618-1.787 1.853-2.217 1.577 0.309 2.956 1.246 3.849 2.526-1.026-0.408-2.184-0.607-3.353-0.607-0.805 0-1.599 0.088-2.349 0.298zM9.934 16.882c0.496-0.761 1.070-1.423 1.732-2.018-0.099 1.743-0.54 3.761 0.022 5.404-0.904-0.893-1.544-2.085-1.754-3.386zM12.426 14.257c0.199-0.132 0.397-0.265 0.607-0.386 0.419 2.338 1.555 5.316 3.827 8.129-0.298 0.044-0.596 0.055-0.893 0.055-0.794 0-1.544-0.187-2.206-0.507-2.504-1.533-1.324-4.588-1.335-7.29zM13.695 13.507c0.331-0.154 0.662-0.298 0.993-0.408 1.125 2.548 6.044 3.463 6.265 6.331-0.794 1.136-1.952 1.985-3.298 2.382-2.426-2.923-3.585-6.033-3.96-8.305zM15.426 12.879c0.695-0.176 1.423-0.265 2.162-0.265 1.434 0 2.724 0.32 3.971 0.96 0.32 0.739 0.507 1.544 0.507 2.382 0 0.904-0.209 1.743-0.562 2.515-1.015-2.757-5.118-3.651-6.077-5.592z"></path>
</svg>
