<!-- Generated by IcoMoon.io -->
<svg version="1.1" xmlns="http://www.w3.org/2000/svg" width="32" height="32" viewBox="0 0 32 32">
<title>basketball</title>
<path d="M5.875 16.728c3-4.092 7.599-6.673 12.915-6.673 2.14 0 4.147 0.408 6.055 1.224l-0.243-1.423c-1.798-0.662-3.794-1.026-5.813-1.026-5.647 0-10.665 2.801-13.831 7.081l0.915 0.816zM24.625 21.173l1.169-0.342c-1.665-5.835-11.217-7.103-11.217-11.779 0-1.401 0.717-2.426 2.029-3.121l-0.761-0.982c-1.511 0.871-2.493 2.338-2.493 4.103 0 5.658 9.816 7.114 11.272 12.121zM8.555 23.776l1.412 0.132c-1.665-3.176-0.022-7.82-0.298-11.812-0.077-1.059-0.739-2.967-1.93-3.254l-0.309 1.191c0.529 0.066 0.971 1.423 1.015 2.162 0.243 3.507-1.257 8.018 0.11 11.581zM17.445 26.401l0.982-0.739c-6.463-8.029-7.423-16.787-6.364-19.169l-1.335 0.188c-0.827 3.43 0.541 12 6.717 19.721zM15.956 27.206c6.154 0 11.25-5.107 11.25-11.25 0-6.154-5.107-11.25-11.261-11.25-6.143 0-11.239 5.096-11.239 11.25 0 6.143 5.107 11.25 11.25 11.25zM15.956 25.706c-5.327 0-9.75-4.423-9.75-9.75s4.412-9.75 9.739-9.75 9.761 4.423 9.761 9.75c0 5.327-4.423 9.75-9.75 9.75z"></path>
</svg>
