<!-- Generated by IcoMoon.io -->
<svg version="1.1" xmlns="http://www.w3.org/2000/svg" width="32" height="32" viewBox="0 0 32 32">
<title>basketball-fill</title>
<path d="M4.717 15.813c0.971-1.335 2.195-2.57 3.529-3.585-0.011-0.044-0.011-0.099-0.022-0.154-0.044-0.805-0.563-2.371-1.5-2.504-1.202 1.721-1.941 3.783-2.018 6 0 0.088 0 0.165 0.011 0.243zM9.404 11.412c0.353-0.232 0.717-0.452 1.081-0.651-0.232-1.996-0.143-3.618 0.199-4.732-1.224 0.662-2.305 1.533-3.221 2.57 1.103 0.298 1.721 1.71 1.941 2.813zM11.654 10.176c0.54-0.254 1.103-0.474 1.677-0.662-0.022-0.232-0.044-0.452-0.044-0.684 0-1.765 0.949-3.232 2.426-4.125-0.077 0-0.132 0-0.21 0-1.235 0.044-2.438 0.298-3.541 0.728-0.298 0.982-0.518 2.548-0.309 4.743zM14.577 9.14c1.379-0.353 2.824-0.54 4.323-0.54 2.239 0 4.467 0.441 6.463 1.257-1.599-2.46-4.125-4.268-7.070-4.908-2.327 0.673-3.794 1.919-3.739 3.882 0 0.099 0.011 0.21 0.022 0.309zM8.224 13.871c-1.268 1.125-2.449 2.471-3.364 3.938 0.43 2.515 1.732 4.776 3.574 6.452-1.335-3.132-0.375-7.037-0.21-10.39zM9.526 12.846c0.033 5.040-2.239 10.82 2.636 13.621 1.169 0.463 2.46 0.728 3.794 0.728 0.618 0 1.224-0.044 1.809-0.143-4.213-5.14-6.331-10.677-7.081-14.956-0.397 0.232-0.783 0.474-1.158 0.75zM13.673 10.717c-0.629 0.221-1.257 0.474-1.853 0.772 0.673 4.158 2.79 9.904 7.323 15.232 2.404-0.717 4.489-2.239 5.934-4.257-0.165-5.426-9.397-7.048-11.404-11.746zM26.070 20.82c0.728-1.489 1.136-3.132 1.136-4.875 0-1.5-0.298-2.945-0.86-4.246-2.349-1.224-4.776-1.831-7.445-1.831-1.379 0-2.713 0.165-3.982 0.485 1.754 3.629 9.518 5.261 11.151 10.467z"></path>
</svg>
