<!-- Generated by IcoMoon.io -->
<svg version="1.1" xmlns="http://www.w3.org/2000/svg" width="32" height="32" viewBox="0 0 32 32">
<title>basketball-circle</title>
<path d="M15.956 27.206c6.154 0 11.25-5.107 11.25-11.25 0-6.154-5.107-11.25-11.261-11.25-6.143 0-11.239 5.096-11.239 11.25 0 6.143 5.107 11.25 11.25 11.25zM15.956 25.331c-5.206 0-9.364-4.169-9.364-9.375s4.147-9.375 9.353-9.375c5.206 0 9.386 4.169 9.386 9.375s-4.169 9.375-9.375 9.375zM10.044 15.691c0.507-0.651 1.092-1.224 1.754-1.732-0.011-0.419-0.276-1.224-0.706-1.346-0.618 0.882-1.026 2.085-1.048 3.077zM12.46 13.485c0.176-0.11 0.353-0.221 0.54-0.32-0.11-0.982-0.077-1.787 0.055-2.349-0.574 0.331-1.092 0.75-1.533 1.246 0.507 0.187 0.816 0.882 0.938 1.423zM13.662 12.835c0.276-0.132 0.574-0.243 0.86-0.353-0.011-0.099-0.011-0.221-0.011-0.342 0-0.86 0.419-1.599 1.103-2.085-0.474 0.011-1.235 0.165-1.82 0.397-0.121 0.463-0.243 1.257-0.132 2.382zM15.25 12.283c0.728-0.199 1.5-0.287 2.283-0.287 1.125 0 2.25 0.198 3.243 0.585-0.871-1.235-2.206-2.14-3.739-2.438-1.158 0.397-1.864 1.081-1.787 2.14zM10.11 16.849c0.198 1.268 0.816 2.416 1.699 3.287-0.563-1.599-0.121-3.551-0.022-5.239-0.64 0.574-1.202 1.213-1.676 1.952zM12.526 14.312c0.011 2.614-1.136 5.57 1.279 7.059 0.64 0.309 1.379 0.496 2.151 0.496 0.287 0 0.574-0.011 0.86-0.055-2.195-2.724-3.298-5.614-3.706-7.875-0.198 0.11-0.397 0.243-0.585 0.375zM13.75 13.585c0.364 2.195 1.489 5.217 3.838 8.051 1.312-0.386 2.437-1.213 3.198-2.316-0.221-2.779-4.985-3.662-6.066-6.132-0.331 0.099-0.651 0.243-0.971 0.397zM15.426 12.967c0.937 1.886 4.908 2.757 5.901 5.427 0.342-0.75 0.54-1.566 0.54-2.438 0-0.816-0.176-1.599-0.496-2.316-1.202-0.618-2.448-0.927-3.838-0.927-0.717 0-1.423 0.088-2.107 0.254z"></path>
</svg>
