<!-- Generated by IcoMoon.io -->
<svg version="1.1" xmlns="http://www.w3.org/2000/svg" width="32" height="32" viewBox="0 0 32 32">
<title>basket-fill</title>
<path d="M2.824 13.603c0 1.048 0.64 1.688 1.688 1.688h22.445c1.048 0 1.699-0.64 1.699-1.688v-0.54c0-1.037-0.651-1.699-1.699-1.699h-22.445c-1.048 0-1.688 0.662-1.688 1.699v0.54zM9.838 27.401h11.802c2.548 0 3.342-1.489 3.662-3.088l1.533-7.511h-22.18l1.522 7.511c0.32 1.599 1.114 3.088 3.662 3.088zM10.555 25.504c-0.419 0.066-0.728-0.154-0.794-0.529l-0.949-5.548c-0.066-0.375 0.176-0.673 0.596-0.75 0.419-0.055 0.739 0.154 0.805 0.529l0.938 5.548c0.055 0.375-0.165 0.673-0.596 0.75zM14.051 25.493c-0.419 0.022-0.728-0.232-0.75-0.618l-0.364-5.482c-0.022-0.386 0.254-0.662 0.662-0.695 0.43-0.033 0.717 0.232 0.75 0.618l0.364 5.482c0.022 0.386-0.254 0.673-0.662 0.695zM17.449 25.493c-0.419-0.022-0.695-0.309-0.673-0.695l0.364-5.482c0.033-0.386 0.32-0.651 0.75-0.618 0.408 0.033 0.684 0.309 0.662 0.695l-0.364 5.482c-0.022 0.386-0.331 0.64-0.739 0.618zM20.923 25.504c-0.43-0.077-0.651-0.375-0.596-0.75l0.938-5.548c0.066-0.375 0.386-0.585 0.805-0.529 0.419 0.077 0.662 0.397 0.596 0.772l-0.949 5.526c-0.066 0.375-0.386 0.596-0.794 0.529zM6.375 11.839h2.206l3.882-6.739c0.298-0.529 0.055-0.993-0.353-1.213-0.397-0.21-0.927-0.176-1.224 0.32l-4.511 7.632zM22.897 11.839h2.206l-4.511-7.632c-0.287-0.485-0.816-0.518-1.224-0.32-0.397 0.221-0.651 0.684-0.353 1.213l3.882 6.739z"></path>
</svg>
