<!-- Generated by IcoMoon.io -->
<svg version="1.1" xmlns="http://www.w3.org/2000/svg" width="32" height="32" viewBox="0 0 32 32">
<title>bathtub-fill</title>
<path d="M1.882 8.963c0 0.794 0.64 1.434 1.434 1.434h25.379c0.794 0 1.445-0.64 1.445-1.434s-0.651-1.434-1.445-1.434h-25.379c-0.794 0-1.434 0.64-1.434 1.434zM9.636 22.298h12.739c4.158 0 6.309-2.029 6.309-5.978v-4.423h-25.346v4.423c0 3.949 2.14 5.978 6.298 5.978zM6.559 24.757c0.463 0.176 0.982-0.077 1.147-0.529l0.938-2.592-1.665-0.607-0.938 2.592c-0.165 0.452 0.066 0.982 0.518 1.136zM25.452 24.757c0.452-0.154 0.695-0.684 0.529-1.136l-0.938-2.592-1.677 0.607 0.938 2.592c0.176 0.452 0.695 0.706 1.147 0.529z"></path>
</svg>
