<!-- Generated by IcoMoon.io -->
<svg version="1.1" xmlns="http://www.w3.org/2000/svg" width="32" height="32" viewBox="0 0 32 32">
<title>battery-100-bolt</title>
<path d="M5.879 23.398h4.963c-0.21-0.563-0.143-1.015 0.132-1.776h-5.393c-1.136 0-2.327-0.154-3-0.816-0.662-0.673-0.805-1.853-0.805-2.989v-3.739c0-1.158 0.143-2.338 0.805-3.011 0.673-0.673 1.875-0.816 3.033-0.816h7.456l1.423-1.776h-8.636c-1.853 0-3.441 0.176-4.566 1.301s-1.29 2.702-1.29 4.544v3.199c0 1.886 0.165 3.452 1.29 4.577s2.713 1.301 4.588 1.301zM14.89 23.398h8.327c1.886 0 3.474-0.176 4.599-1.301s1.29-2.691 1.29-4.577v-3.165c0-1.886-0.165-3.452-1.29-4.577s-2.713-1.301-4.599-1.301h-4.677c0.187 0.529 0.132 0.982-0.132 1.776h5.118c1.136 0 2.327 0.154 2.989 0.816 0.673 0.673 0.816 1.842 0.816 2.978v3.772c0 1.136-0.143 2.316-0.816 2.989-0.662 0.662-1.853 0.816-2.989 0.816h-7.213l-1.423 1.776zM30.607 18.788c0.871-0.055 2.040-1.169 2.040-2.857 0-1.677-1.169-2.79-2.040-2.846v5.702zM4.996 20.343h6.463l0.585-1.588h-1.555c-1.114 0-2.018-0.871-2.018-1.985 0-0.496 0.188-0.971 0.496-1.357l3.088-3.882h-7.026c-0.783 0-1.235 0.11-1.533 0.419-0.309 0.309-0.43 0.761-0.43 1.533v4.93c0 0.761 0.121 1.202 0.43 1.511s0.75 0.419 1.5 0.419zM17.327 20.343h6.794c0.75 0 1.191-0.11 1.5-0.419s0.43-0.75 0.43-1.511v-4.952c0-0.761-0.121-1.202-0.43-1.511s-0.75-0.419-1.5-0.419h-6.198l-0.585 1.588h1.566c1.103 0 2.007 0.86 2.007 1.985 0 0.496-0.188 0.971-0.496 1.357l-3.088 3.882zM9.971 16.77c0 0.276 0.232 0.474 0.518 0.474h3.728l-1.985 5.36c-0.265 0.706 0.496 1.092 0.949 0.529l6.044-7.599c0.11-0.143 0.187-0.287 0.187-0.43 0-0.276-0.232-0.474-0.507-0.474h-3.739l1.985-5.36c0.265-0.706-0.485-1.092-0.938-0.529l-6.055 7.588c-0.11 0.154-0.187 0.298-0.187 0.441z"></path>
</svg>
