<!-- Generated by IcoMoon.io -->
<svg version="1.1" xmlns="http://www.w3.org/2000/svg" width="32" height="32" viewBox="0 0 32 32">
<title>batteryblock</title>
<path d="M6.287 25.952h19.081c2.316 0 3.463-1.136 3.463-3.408v-10.665c0-2.272-1.147-3.408-3.463-3.408h-1.522v-1.478c0-0.838-0.485-1.346-1.334-1.346h-3.254c-0.838 0-1.323 0.507-1.323 1.346v1.478h-4.202v-1.478c0-0.838-0.485-1.346-1.335-1.346h-3.254c-0.849 0-1.324 0.507-1.324 1.346v1.478h-1.533c-2.305 0-3.463 1.136-3.463 3.408v10.665c0 2.272 1.158 3.408 3.463 3.408zM4.599 22.445v-10.467c0-1.147 0.607-1.732 1.71-1.732h19.037c1.092 0 1.71 0.585 1.71 1.732v10.467c0 1.147-0.618 1.732-1.71 1.732h-19.037c-1.103 0-1.71-0.585-1.71-1.732z"></path>
</svg>
