<!-- Generated by IcoMoon.io -->
<svg version="1.1" xmlns="http://www.w3.org/2000/svg" width="32" height="32" viewBox="0 0 32 32">
<title>battery-0</title>
<path d="M5.879 23.393h17.338c1.886 0 3.474-0.176 4.599-1.301s1.29-2.691 1.29-4.577v-3.165c0-1.886-0.165-3.452-1.29-4.577s-2.713-1.301-4.599-1.301h-17.36c-1.853 0-3.441 0.176-4.566 1.301s-1.29 2.702-1.29 4.544v3.199c0 1.886 0.165 3.452 1.29 4.577s2.713 1.301 4.588 1.301zM5.581 21.618c-1.136 0-2.327-0.154-3-0.816-0.662-0.673-0.805-1.853-0.805-2.989v-3.739c0-1.158 0.143-2.338 0.805-3.011 0.673-0.673 1.875-0.816 3.033-0.816h17.912c1.136 0 2.327 0.154 2.989 0.816 0.673 0.673 0.816 1.842 0.816 2.978v3.772c0 1.136-0.143 2.316-0.816 2.989-0.662 0.662-1.853 0.816-2.989 0.816h-17.945zM30.607 18.783c0.871-0.055 2.040-1.169 2.040-2.857 0-1.677-1.169-2.79-2.040-2.846v5.702z"></path>
</svg>
