<!-- Generated by IcoMoon.io -->
<svg version="1.1" xmlns="http://www.w3.org/2000/svg" width="32" height="32" viewBox="0 0 32 32">
<title>battery-100-circle</title>
<path d="M15.956 27.206c6.154 0 11.25-5.107 11.25-11.25 0-6.154-5.107-11.25-11.261-11.25-6.143 0-11.239 5.096-11.239 11.25 0 6.143 5.107 11.25 11.25 11.25zM15.956 25.331c-5.206 0-9.364-4.169-9.364-9.375s4.147-9.375 9.353-9.375c5.206 0 9.386 4.169 9.386 9.375s-4.169 9.375-9.375 9.375zM11.919 19.386h7.412c0.827 0 1.588-0.077 2.118-0.607 0.54-0.551 0.629-1.301 0.629-2.118v-1.412c0-0.816-0.088-1.577-0.629-2.118-0.529-0.529-1.302-0.618-2.118-0.618h-7.412c-0.816 0-1.588 0.088-2.14 0.618-0.529 0.54-0.607 1.301-0.607 2.118v1.412c0 0.816 0.077 1.566 0.607 2.118 0.552 0.529 1.313 0.607 2.14 0.607zM11.776 18.162c-0.54 0-0.904-0.099-1.092-0.287-0.188-0.176-0.265-0.54-0.265-1.081v-1.688c0-0.54 0.077-0.904 0.265-1.081 0.187-0.187 0.562-0.287 1.092-0.287h7.699c0.518 0 0.904 0.099 1.092 0.298 0.176 0.176 0.287 0.551 0.287 1.070v1.688c0 0.529-0.11 0.904-0.287 1.081-0.188 0.187-0.563 0.287-1.092 0.287h-7.699zM11.831 17.511h7.599c0.298 0 0.474-0.033 0.596-0.154s0.176-0.309 0.176-0.596v-1.632c0-0.287-0.055-0.474-0.176-0.596-0.121-0.11-0.298-0.154-0.596-0.154h-7.599c-0.298 0-0.485 0.044-0.607 0.154-0.11 0.121-0.165 0.298-0.165 0.596v1.632c0 0.298 0.055 0.485 0.165 0.596 0.121 0.121 0.309 0.154 0.607 0.154zM22.563 17.257c0.386-0.033 0.926-0.54 0.926-1.301s-0.54-1.279-0.926-1.301v2.603z"></path>
</svg>
