<!-- Generated by IcoMoon.io -->
<svg version="1.1" xmlns="http://www.w3.org/2000/svg" width="32" height="32" viewBox="0 0 32 32">
<title>batteryblock-slash-fill</title>
<path d="M6.287 25.855h16.357l-17.327-17.294h-0.32c-1.445 0.364-2.173 1.434-2.173 3.221v10.665c0 2.272 1.158 3.408 3.463 3.408zM28.114 24.664c0.474-0.507 0.717-1.246 0.717-2.217v-10.665c0-2.272-1.147-3.408-3.463-3.408h-1.522v-1.478c0-0.838-0.485-1.346-1.334-1.346h-3.254c-0.838 0-1.323 0.507-1.323 1.346v1.478h-4.202v-1.478c0-0.838-0.485-1.346-1.335-1.346h-3.11c-0.099 0-0.176 0.033-0.232 0.077l19.059 19.037zM26.316 27.41c0.342 0.331 0.882 0.342 1.202 0 0.331-0.331 0.342-0.871 0-1.202l-22.18-22.169c-0.331-0.331-0.871-0.342-1.213 0-0.32 0.32-0.32 0.871 0 1.202l22.191 22.169z"></path>
</svg>
