<!-- Generated by IcoMoon.io -->
<svg version="1.1" xmlns="http://www.w3.org/2000/svg" width="32" height="32" viewBox="0 0 32 32">
<title>battery-100-circle-fill</title>
<path d="M15.956 27.206c6.154 0 11.25-5.107 11.25-11.25 0-6.154-5.107-11.25-11.261-11.25-6.143 0-11.239 5.096-11.239 11.25 0 6.143 5.107 11.25 11.25 11.25zM11.787 19.496c-0.86 0-1.643-0.077-2.217-0.629-0.54-0.563-0.629-1.346-0.629-2.184v-1.456c0-0.838 0.088-1.621 0.629-2.184 0.573-0.552 1.368-0.64 2.217-0.64h7.643c0.838 0 1.632 0.088 2.184 0.64 0.552 0.562 0.651 1.346 0.651 2.184v1.456c0 0.838-0.099 1.621-0.651 2.184-0.551 0.551-1.334 0.629-2.184 0.629h-7.643zM11.632 18.228h7.941c0.54 0 0.926-0.099 1.125-0.298 0.176-0.176 0.298-0.563 0.298-1.114v-1.732c0-0.54-0.121-0.926-0.298-1.103-0.199-0.21-0.596-0.309-1.125-0.309h-7.941c-0.54 0-0.927 0.099-1.125 0.298-0.188 0.176-0.265 0.551-0.265 1.114v1.732c0 0.562 0.077 0.938 0.265 1.114 0.198 0.198 0.573 0.298 1.125 0.298zM11.688 17.555c-0.298 0-0.496-0.033-0.618-0.154-0.11-0.121-0.165-0.309-0.165-0.618v-1.676c0-0.309 0.055-0.485 0.165-0.618 0.121-0.11 0.32-0.154 0.618-0.154h7.842c0.309 0 0.485 0.044 0.607 0.154 0.132 0.132 0.188 0.32 0.188 0.618v1.676c0 0.298-0.055 0.485-0.188 0.618-0.121 0.121-0.298 0.154-0.607 0.154h-7.842zM22.761 17.301v-2.691c0.397 0.033 0.96 0.563 0.96 1.346s-0.562 1.313-0.96 1.346z"></path>
</svg>
