<!-- Generated by IcoMoon.io -->
<svg version="1.1" xmlns="http://www.w3.org/2000/svg" width="32" height="32" viewBox="0 0 32 32">
<title>beach-umbrella-fill</title>
<path d="M17.237 8.465l1.754 0.64 1.787-4.93c0.199-0.54-0.022-1.048-0.54-1.246-0.518-0.188-1.004 0.055-1.202 0.607l-1.798 4.93zM17.424 4.847c-6.452-1.324-11.228 3.011-12.64 6.938-0.232 0.618 0.077 1.136 0.529 1.313 0.364 0.132 0.684-0.022 0.971-0.254 1.026-0.761 1.985-1.081 3.121-0.662 0.761 0.276 1.202 0.794 1.467 1.313 0.165 0.32 0.485 0.331 0.574-0.022 0.938-3.673 3.187-6.75 5.978-8.625zM19.641 4.45c-3.143 2.129-5.89 5.857-6.838 9.783-0.088 0.375 0.198 0.629 0.64 0.463 0.882-0.364 1.732-0.485 2.537-0.187 0.805 0.287 1.379 0.927 1.831 1.776 0.221 0.397 0.585 0.408 0.772 0.055 1.798-3.607 2.096-8.25 1.059-11.89zM21.141 6.193c0.927 3.221 0.662 7.015-0.96 10.467-0.154 0.32 0.077 0.529 0.419 0.375 0.552-0.232 1.213-0.342 1.963-0.066 1.147 0.419 1.676 1.29 1.974 2.515 0.066 0.364 0.232 0.695 0.574 0.816 0.463 0.165 1.037-0.033 1.257-0.662 1.434-3.915 0.574-10.302-5.228-13.445zM10.222 27.744c-0.176 0.485 0.066 1.015 0.551 1.191 0.474 0.165 1.026-0.099 1.191-0.562l5.096-13.974-1.743-0.64-5.096 13.985z"></path>
</svg>
