<!-- Generated by IcoMoon.io -->
<svg version="1.1" xmlns="http://www.w3.org/2000/svg" width="32" height="32" viewBox="0 0 32 32">
<title>beach-umbrella</title>
<path d="M4.78 11.764c-0.221 0.629 0.077 1.147 0.54 1.312 0.353 0.132 0.695-0.033 0.982-0.265 1.004-0.739 1.963-1.070 3.11-0.651 1.147 0.408 1.61 1.257 1.809 2.438 0.055 0.386 0.187 0.695 0.518 0.816 0.353 0.132 0.651-0.022 0.949-0.276 0.662-0.562 1.555-0.849 2.404-0.805l-4.886 13.39c-0.176 0.474 0.077 1.015 0.563 1.191 0.463 0.165 1.015-0.088 1.191-0.563l4.875-13.39c0.673 0.518 1.158 1.313 1.301 2.173 0.077 0.364 0.198 0.684 0.54 0.805s0.64-0.044 0.938-0.287c0.915-0.772 1.798-1.125 2.945-0.717 1.147 0.43 1.676 1.29 1.963 2.526 0.088 0.353 0.232 0.695 0.585 0.816 0.463 0.165 1.048-0.033 1.257-0.662 1.5-4.114 0.474-10.974-6.165-13.908l0.574-1.555c0.187-0.551-0.022-1.048-0.552-1.246-0.507-0.188-1.004 0.066-1.202 0.607l-0.563 1.566c-6.971-2.029-12.176 2.548-13.676 6.684zM7.361 10.485c1.875-2.879 5.404-4.699 9.353-4.026-1.776 1.169-3.485 3.221-4.599 5.868-0.441-0.849-1.158-1.434-2.107-1.765-0.893-0.32-1.765-0.353-2.647-0.077zM13.449 12.878c1.257-2.989 3.375-5.14 5.294-5.912 0.993 1.831 1.235 4.831 0.276 7.952-0.529-0.915-1.423-1.654-2.426-2.029-1.004-0.364-2.162-0.364-3.143-0.011zM20.387 15.338c0.86-2.746 0.871-5.405 0.265-7.445 3.441 2.029 4.974 5.691 4.555 9.088-0.496-0.772-1.191-1.313-2.063-1.643-0.949-0.342-1.875-0.364-2.757 0z"></path>
</svg>
