<!-- Generated by IcoMoon.io -->
<svg version="1.1" xmlns="http://www.w3.org/2000/svg" width="32" height="32" viewBox="0 0 32 32">
<title>beats-studiobuds-chargingcase-fill</title>
<path d="M14.39 25.952h3.221c3.099 0 5.338-0.375 7.081-1.224 3.662-1.765 5.426-5.217 5.426-8.934 0-1.489-0.287-2.934-0.86-4.246h-26.515c-0.574 1.313-0.86 2.757-0.86 4.246 0 3.717 1.765 7.169 5.426 8.934 1.743 0.849 3.982 1.224 7.081 1.224zM16.011 19.842c-1.312 0-2.305-0.993-2.305-2.261v-3.331l1.037-0.452v1.842c0.397-0.287 0.805-0.408 1.268-0.408 1.246 0 2.316 1.059 2.316 2.349 0 1.235-1.037 2.261-2.316 2.261zM16.011 18.816c0.684 0 1.246-0.574 1.246-1.235 0-0.684-0.562-1.268-1.246-1.268s-1.268 0.574-1.268 1.268c0 0.662 0.573 1.235 1.268 1.235zM3.327 10.434h25.346c-0.893-1.478-2.217-2.724-3.982-3.562-1.743-0.86-3.982-1.224-7.081-1.224h-3.221c-3.099 0-5.338 0.364-7.081 1.224-1.765 0.838-3.088 2.085-3.982 3.562z"></path>
</svg>
