<!-- Generated by IcoMoon.io -->
<svg version="1.1" xmlns="http://www.w3.org/2000/svg" width="32" height="32" viewBox="0 0 32 32">
<title>beats-powerbeatspro-right</title>
<path d="M18.309 5.647c-5.393 0-9.838 6.199-9.838 13.798 0 3.573 0.96 7.522 2.118 7.522 0.893 0 1.632-1.191 1.721-2.393-1.776-0.518-3.088-2.162-3.088-4.092 0-1.158 0.452-2.195 1.279-3.011 0.397-5.239 3.783-9.838 7.688-9.838 2.338 0 3.408 1.743 3.408 4.974l-9.32 4.864c-1.357 0.717-1.985 1.82-1.985 3.011 0 1.743 1.434 3.187 3.176 3.187 0.86 0 1.423-0.221 2.636-0.871l4.687-2.581c2.051-1.125 2.779-2.493 2.779-5.382v-2.57c0-4.059-1.787-6.618-5.261-6.618zM13.39 22.478c-1.114 0-2.007-0.904-2.007-2.007s0.893-2.007 2.007-2.007c1.103 0 2.007 0.904 2.007 2.007s-0.904 2.007-2.007 2.007zM13.39 21.695c0.673 0 1.224-0.552 1.224-1.224 0-0.662-0.551-1.224-1.224-1.224-0.684 0-1.224 0.563-1.224 1.224 0 0.673 0.54 1.224 1.224 1.224z"></path>
<path d="M13.39 22.478c-1.114 0-2.007-0.904-2.007-2.007s0.893-2.007 2.007-2.007c1.103 0 2.007 0.904 2.007 2.007s-0.904 2.007-2.007 2.007zM13.39 21.695c0.673 0 1.224-0.552 1.224-1.224 0-0.662-0.551-1.224-1.224-1.224-0.684 0-1.224 0.563-1.224 1.224 0 0.673 0.54 1.224 1.224 1.224z"></path>
</svg>
