<!-- Generated by IcoMoon.io -->
<svg version="1.1" xmlns="http://www.w3.org/2000/svg" width="32" height="32" viewBox="0 0 32 32">
<title>beats-powerbeatspro</title>
<path d="M10.305 5.658c-5.14 0-9.364 5.89-9.364 13.125 0 3.408 0.915 7.169 2.018 7.169 0.849 0 1.544-1.147 1.632-2.283-1.688-0.496-2.934-2.063-2.934-3.904 0-1.103 0.43-2.085 1.213-2.857 0.375-4.996 3.607-9.375 7.324-9.375 2.228 0 3.243 1.665 3.243 4.743l-8.879 4.632c-1.29 0.673-1.886 1.732-1.886 2.857 0 1.665 1.368 3.033 3.033 3.033 0.805 0 1.346-0.199 2.504-0.827l4.456-2.449c1.952-1.070 2.647-2.371 2.647-5.129v-2.438c0-3.871-1.699-6.298-5.007-6.298zM5.629 21.673c-1.059 0-1.919-0.86-1.919-1.908s0.86-1.908 1.919-1.908c1.048 0 1.908 0.86 1.908 1.908s-0.86 1.908-1.908 1.908zM5.629 20.934c0.64 0 1.158-0.529 1.158-1.169s-0.518-1.169-1.158-1.169c-0.651 0-1.169 0.529-1.169 1.169s0.518 1.169 1.169 1.169zM21.743 5.658c-3.309 0-5.007 2.426-5.007 6.298v2.438c0 2.757 0.695 4.059 2.636 5.129l4.467 2.449c1.158 0.629 1.699 0.827 2.504 0.827 1.665 0 3.033-1.368 3.033-3.033 0-1.125-0.596-2.184-1.897-2.857l-8.868-4.632c0-3.077 1.015-4.743 3.243-4.743 3.717 0 6.949 4.379 7.323 9.375 0.783 0.772 1.213 1.754 1.213 2.857 0 1.842-1.257 3.408-2.945 3.904 0.088 1.136 0.794 2.283 1.643 2.283 1.103 0 2.018-3.761 2.018-7.169 0-7.235-4.224-13.125-9.364-13.125zM26.419 21.673c-1.048 0-1.908-0.86-1.908-1.908s0.86-1.908 1.908-1.908c1.059 0 1.919 0.86 1.919 1.908s-0.86 1.908-1.919 1.908zM26.419 20.934c0.651 0 1.169-0.529 1.169-1.169s-0.518-1.169-1.169-1.169c-0.64 0-1.169 0.529-1.169 1.169s0.529 1.169 1.169 1.169z"></path>
<path d="M5.629 21.673c-1.059 0-1.919-0.86-1.919-1.908s0.86-1.908 1.919-1.908c1.048 0 1.908 0.86 1.908 1.908s-0.86 1.908-1.908 1.908zM5.629 20.934c0.64 0 1.158-0.529 1.158-1.169s-0.518-1.169-1.158-1.169c-0.651 0-1.169 0.529-1.169 1.169s0.518 1.169 1.169 1.169zM26.419 21.673c-1.048 0-1.908-0.86-1.908-1.908s0.86-1.908 1.908-1.908c1.059 0 1.919 0.86 1.919 1.908s-0.86 1.908-1.919 1.908zM26.419 20.934c0.651 0 1.169-0.529 1.169-1.169s-0.518-1.169-1.169-1.169c-0.64 0-1.169 0.529-1.169 1.169s0.529 1.169 1.169 1.169z"></path>
</svg>
