<!-- Generated by IcoMoon.io -->
<svg version="1.1" xmlns="http://www.w3.org/2000/svg" width="32" height="32" viewBox="0 0 32 32">
<title>beats-studiobud-right</title>
<path d="M17.484 17.937c1.555-0.673 2.294-2.46 1.621-4.004l-2.217-5.074c-0.695-1.566-2.471-2.294-4.026-1.632-1.544 0.673-2.283 2.482-1.61 4.015l2.228 5.073c0.673 1.522 2.46 2.283 4.004 1.621zM16.37 17.033c-1.070 0-1.908-0.838-1.908-1.897 0-1.048 0.838-1.897 1.908-1.897 1.048 0 1.886 0.849 1.886 1.897 0 1.059-0.827 1.897-1.886 1.897zM16.37 16.25c0.629 0 1.103-0.496 1.103-1.114 0-0.607-0.474-1.114-1.103-1.114-0.651 0-1.125 0.507-1.125 1.114 0 0.618 0.474 1.114 1.125 1.114zM6.829 14.695c-0.827 2.846 0.518 5.471 3.353 6.585l2.085 0.827c3.463 1.357 6.982 0.629 8.371-3.243 0.761-2.096 0.529-3.949-0.485-5.162 0.783 2.029-0.21 4.323-2.239 5.217-2.085 0.871-4.489-0.088-5.404-2.173l-2.228-5.074c-0.121-0.265-0.21-0.518-0.265-0.794-1.213 1.015-2.625 1.919-3.187 3.816z"></path>
<path d="M21.642 19.228c-0.783 2.184-2.25 3.629-4.114 4.235 0.849 0.761 1.963 1.202 3.187 1.202 2.691 0 4.875-2.184 4.875-4.886 0-2.261-1.533-4.158-3.607-4.721 0.287 1.368 0.176 2.757-0.342 4.169z"></path>
<path d="M16.37 17.033c-1.070 0-1.908-0.838-1.908-1.897 0-1.048 0.838-1.897 1.908-1.897 1.048 0 1.886 0.849 1.886 1.897 0 1.059-0.827 1.897-1.886 1.897zM16.37 16.25c0.629 0 1.103-0.496 1.103-1.114 0-0.607-0.474-1.114-1.103-1.114-0.651 0-1.125 0.507-1.125 1.114 0 0.618 0.474 1.114 1.125 1.114z"></path>
</svg>
