<!-- Generated by IcoMoon.io -->
<svg version="1.1" xmlns="http://www.w3.org/2000/svg" width="32" height="32" viewBox="0 0 32 32">
<title>beats-powerbeatspro-chargingcase</title>
<path d="M11.467 26.61h8.471c4.467 0 6.794-2.316 6.794-6.761v-8.382c0-4.445-2.327-6.761-6.794-6.761h-8.471c-4.445 0-6.761 2.316-6.761 6.761v8.382c0 4.445 2.316 6.761 6.761 6.761zM11.224 24.835c-3.121 0-4.743-1.632-4.743-4.743v-8.868c0-3.121 1.621-4.743 4.743-4.743h9.022c3.088 0 4.71 1.61 4.71 4.677v9c0 3.066-1.621 4.676-4.71 4.676h-9.022zM15.713 20.875c2.89 0 5.217-2.371 5.217-5.217 0-2.879-2.382-5.195-5.217-5.195-0.507 0-0.971 0.044-1.379 0.165v2.956c0.408-0.298 0.893-0.463 1.379-0.463 1.357 0 2.515 1.169 2.515 2.537s-1.136 2.482-2.515 2.482c-1.401 0-2.504-1.092-2.504-2.482v-4.577c-1.655 0.927-2.702 2.647-2.702 4.577 0 2.901 2.327 5.217 5.206 5.217zM15.713 17.037c0.739 0 1.368-0.651 1.368-1.379 0-0.706-0.651-1.357-1.368-1.357s-1.357 0.618-1.357 1.357c0 0.761 0.618 1.379 1.357 1.379z"></path>
</svg>
