<!-- Generated by IcoMoon.io -->
<svg version="1.1" xmlns="http://www.w3.org/2000/svg" width="32" height="32" viewBox="0 0 32 32">
<title>beats-earphones</title>
<path d="M10.853 15.408c2.702 0 4.886-2.217 4.886-4.875 0-2.691-2.239-4.875-4.886-4.875-0.474 0-0.904 0.044-1.279 0.165v2.757c0.375-0.276 0.816-0.43 1.279-0.43 1.268 0 2.349 1.092 2.349 2.382 0 1.268-1.059 2.316-2.349 2.316-1.313 0-2.338-1.015-2.338-2.316v-4.301c-1.555 0.882-2.537 2.482-2.537 4.301 0 2.713 2.173 4.875 4.875 4.875zM10.853 11.824c0.695 0 1.279-0.607 1.279-1.29 0-0.662-0.607-1.279-1.279-1.279s-1.268 0.596-1.268 1.279c0 0.695 0.574 1.29 1.268 1.29zM9.044 14.327v2.581c0 0.651 0.43 0.982 1.081 0.982h1.456c0.673 0 1.092-0.331 1.092-0.982v-2.581h-3.629zM10.026 27.099h1.665v-10.346h-1.665v10.346zM21.805 15.408c2.702 0 4.886-2.217 4.886-4.875 0-2.691-2.239-4.875-4.886-4.875-0.474 0-0.904 0.044-1.279 0.165v2.757c0.375-0.276 0.816-0.43 1.279-0.43 1.268 0 2.349 1.092 2.349 2.382 0 1.268-1.059 2.316-2.349 2.316-1.313 0-2.338-1.015-2.338-2.316v-4.301c-1.555 0.882-2.537 2.482-2.537 4.301 0 2.713 2.173 4.875 4.875 4.875zM21.805 11.824c0.695 0 1.279-0.607 1.279-1.29 0-0.662-0.607-1.279-1.279-1.279s-1.268 0.596-1.268 1.279c0 0.695 0.574 1.29 1.268 1.29zM23.625 14.327h-3.629v2.581c0 0.651 0.408 0.982 1.081 0.982h1.467c0.651 0 1.081-0.331 1.081-0.982v-2.581zM22.643 27.099v-10.346h-1.665v10.346h1.665z"></path>
<path d="M5.129 10.544c0-1.93 0.96-3.629 2.415-4.665-2.68 0.044-4.721 2.051-4.721 4.665 0 2.592 2.007 4.61 4.721 4.665-1.456-1.037-2.415-2.735-2.415-4.665zM27.54 10.544c0 1.93-0.96 3.629-2.415 4.665 2.669-0.055 4.721-2.051 4.721-4.665 0-2.592-2.018-4.621-4.721-4.665 1.456 1.037 2.415 2.735 2.415 4.665z"></path>
</svg>
