<!-- Generated by IcoMoon.io -->
<svg version="1.1" xmlns="http://www.w3.org/2000/svg" width="32" height="32" viewBox="0 0 32 32">
<title>beats-studiobuds-chargingcase</title>
<path d="M1.882 15.794c0 3.717 1.765 7.169 5.426 8.934 1.743 0.849 3.982 1.224 7.081 1.224h3.221c3.099 0 5.338-0.375 7.081-1.224 3.662-1.765 5.426-5.217 5.426-8.934 0-3.32-1.787-6.761-5.426-8.515-1.743-0.849-3.982-1.224-7.081-1.224h-3.221c-3.099 0-5.338 0.375-7.081 1.224-3.651 1.754-5.426 5.195-5.426 8.515zM3.658 15.794c0-3.573 2.438-6.64 6.199-7.533 1.202-0.287 2.68-0.43 4.533-0.43h3.221c2.89 0 4.842 0.331 6.309 1.048 2.735 1.323 4.423 3.96 4.423 6.915 0 4.577-3.055 7.853-8.029 8.25-0.805 0.088-1.699 0.132-2.702 0.132h-3.221c-2.89 0-4.842-0.331-6.309-1.048-2.813-1.357-4.423-4.015-4.423-7.335zM3.923 11.768h24.166v-1.114h-24.166v1.114zM16.011 19.643c1.235 0 2.25-1.004 2.25-2.195 0-1.257-1.037-2.283-2.25-2.283-0.452 0-0.849 0.121-1.224 0.397v-1.787l-1.015 0.441v3.232c0 1.224 0.971 2.195 2.239 2.195zM16.011 18.64c-0.673 0-1.224-0.551-1.224-1.191 0-0.673 0.563-1.235 1.224-1.235s1.213 0.573 1.213 1.235c0 0.64-0.552 1.191-1.213 1.191z"></path>
</svg>
