<!-- Generated by IcoMoon.io -->
<svg version="1.1" xmlns="http://www.w3.org/2000/svg" width="32" height="32" viewBox="0 0 32 32">
<title>beats-powerbeatspro-chargingcase-fill</title>
<path d="M11.467 26.61h8.471c4.467 0 6.794-2.316 6.794-6.761v-8.382c0-4.445-2.327-6.761-6.794-6.761h-8.471c-4.445 0-6.761 2.316-6.761 6.761v8.382c0 4.445 2.316 6.761 6.761 6.761zM15.713 21.040c-2.967 0-5.371-2.393-5.371-5.382 0-1.996 1.081-3.761 2.79-4.721v4.721c0 1.434 1.136 2.559 2.581 2.559 1.423 0 2.592-1.147 2.592-2.559s-1.191-2.614-2.592-2.614c-0.496 0-1.004 0.165-1.423 0.474v-3.044c0.419-0.132 0.904-0.176 1.423-0.176 2.923 0 5.382 2.393 5.382 5.36 0 2.934-2.404 5.382-5.382 5.382zM15.713 17.081c-0.761 0-1.401-0.64-1.401-1.423 0-0.761 0.662-1.401 1.401-1.401s1.412 0.673 1.412 1.401c0 0.75-0.651 1.423-1.412 1.423z"></path>
</svg>
