<!-- Generated by IcoMoon.io -->
<svg version="1.1" xmlns="http://www.w3.org/2000/svg" width="32" height="32" viewBox="0 0 32 32">
<title>beats-fit-pro-right</title>
<path d="M10.627 20.816c2.217 0 3.871-1.908 3.463-4.368l-0.717-4.335c-0.099-0.607 0.121-1.015 0.717-1.29 1.5-0.706 2.912-1.081 4.765-1.368 1.147-0.165 1.732-1.015 1.732-2.151 0-0.463-0.232-0.717-0.949-0.717-2.349 0-4.677 0.375-7.059 1.202-4.015 1.39-6.507 3.849-5.901 7.147l0.585 3.165c0.342 1.853 1.908 2.713 3.364 2.713zM10.627 19.129c-1.037 0-1.853-0.805-1.853-1.842s0.816-1.842 1.853-1.842c1.026 0 1.831 0.816 1.831 1.842s-0.805 1.842-1.831 1.842zM10.627 18.346c0.585 0 1.048-0.463 1.048-1.059 0-0.585-0.463-1.059-1.048-1.059-0.607 0-1.070 0.474-1.070 1.059 0 0.596 0.463 1.059 1.070 1.059zM10.627 21.886c-1.699 0-3.154-0.86-3.915-2.217 0.232 3.673 3.551 5.504 7.312 5.504 0.993 0 1.721-0.132 2.415-0.485 1.423-2.482 2.427-5.074 3.066-7.875-0.728-1.533-2.438-2.537-4.798-3.143l0.441 2.603c0.507 3.044-1.577 5.614-4.522 5.614z"></path>
<path d="M24.69 21.423c0-2.57-2.029-4.279-4.114-4.489-0.673 2.978-1.754 5.779-3.287 8.393 0.618 0.43 1.621 0.794 2.735 0.794 2.802 0 4.665-1.886 4.665-4.699z"></path>
<path d="M10.627 19.129c-1.037 0-1.853-0.805-1.853-1.842s0.816-1.842 1.853-1.842c1.026 0 1.831 0.816 1.831 1.842s-0.805 1.842-1.831 1.842zM10.627 18.346c0.585 0 1.048-0.463 1.048-1.059 0-0.585-0.463-1.059-1.048-1.059-0.607 0-1.070 0.474-1.070 1.059 0 0.596 0.463 1.059 1.070 1.059z"></path>
</svg>
