<!-- Generated by IcoMoon.io -->
<svg version="1.1" xmlns="http://www.w3.org/2000/svg" width="32" height="32" viewBox="0 0 32 32">
<title>beats-studiobuds</title>
<path d="M4.886 18.36c1.478 0.629 3.176-0.088 3.816-1.544l2.129-4.831c0.64-1.456-0.066-3.187-1.544-3.827-1.478-0.618-3.165 0.066-3.827 1.555l-2.118 4.831c-0.64 1.478 0.066 3.176 1.544 3.816zM5.956 17.5c-1.004 0-1.798-0.794-1.798-1.809 0-1.004 0.805-1.809 1.798-1.809 1.015 0 1.809 0.805 1.809 1.809 0 1.015-0.794 1.809-1.809 1.809zM5.956 16.75c0.618 0 1.059-0.463 1.059-1.059 0-0.574-0.441-1.059-1.059-1.059-0.596 0-1.048 0.485-1.048 1.059 0 0.596 0.452 1.059 1.048 1.059zM15.033 15.272c-0.541-1.809-1.886-2.669-3.033-3.64-0.055 0.265-0.132 0.507-0.243 0.761l-2.129 4.831c-0.871 1.974-3.165 2.901-5.151 2.073-1.93-0.86-2.868-3.044-2.129-4.974-0.96 1.158-1.18 2.923-0.463 4.919 1.324 3.684 4.676 4.379 7.974 3.088l1.985-0.783c2.691-1.070 3.982-3.573 3.188-6.276zM27.022 18.36c1.467-0.64 2.184-2.338 1.544-3.816l-2.118-4.831c-0.662-1.489-2.349-2.173-3.827-1.555-1.478 0.64-2.184 2.371-1.544 3.827l2.129 4.831c0.64 1.456 2.338 2.173 3.816 1.544zM25.952 17.5c-1.015 0-1.809-0.794-1.809-1.809 0-1.004 0.794-1.809 1.809-1.809 0.993 0 1.798 0.805 1.798 1.809 0 1.015-0.794 1.809-1.798 1.809zM25.952 16.75c0.596 0 1.048-0.463 1.048-1.059 0-0.574-0.452-1.059-1.048-1.059-0.618 0-1.070 0.485-1.070 1.059 0 0.596 0.452 1.059 1.070 1.059zM16.864 15.272c-0.783 2.702 0.496 5.206 3.198 6.276l1.985 0.783c3.298 1.29 6.651 0.596 7.963-3.088 0.728-1.996 0.507-3.761-0.452-4.919 0.739 1.93-0.198 4.114-2.14 4.974-1.974 0.827-4.268-0.099-5.14-2.073l-2.129-4.831c-0.11-0.254-0.188-0.496-0.243-0.761-1.158 0.971-2.493 1.831-3.044 3.64z"></path>
<path d="M0.938 19.585c-0.496-1.346-0.607-2.669-0.331-3.971-1.963 0.541-3.43 2.349-3.43 4.489 0 2.581 2.074 4.665 4.632 4.665 1.169 0 2.228-0.43 3.044-1.147-1.776-0.585-3.176-1.963-3.915-4.037zM30.971 19.585c-0.75 2.073-2.14 3.452-3.915 4.037 0.816 0.717 1.875 1.147 3.044 1.147 2.559 0 4.632-2.085 4.632-4.665 0-2.14-1.467-3.949-3.43-4.489 0.276 1.302 0.154 2.625-0.331 3.971z"></path>
<path d="M5.956 17.5c-1.004 0-1.798-0.794-1.798-1.809 0-1.004 0.805-1.809 1.798-1.809 1.015 0 1.809 0.805 1.809 1.809 0 1.015-0.794 1.809-1.809 1.809zM5.956 16.75c0.618 0 1.059-0.463 1.059-1.059 0-0.574-0.441-1.059-1.059-1.059-0.596 0-1.048 0.485-1.048 1.059 0 0.596 0.452 1.059 1.048 1.059zM25.952 17.5c-1.015 0-1.809-0.794-1.809-1.809 0-1.004 0.794-1.809 1.809-1.809 0.993 0 1.798 0.805 1.798 1.809 0 1.015-0.794 1.809-1.798 1.809zM25.952 16.75c0.596 0 1.048-0.463 1.048-1.059 0-0.574-0.452-1.059-1.048-1.059-0.618 0-1.070 0.485-1.070 1.059 0 0.596 0.452 1.059 1.070 1.059z"></path>
</svg>
