<!-- Generated by IcoMoon.io -->
<svg version="1.1" xmlns="http://www.w3.org/2000/svg" width="32" height="32" viewBox="0 0 32 32">
<title>beats-headphones</title>
<path d="M4.706 15.79c0 1.919 0.485 3.904 1.39 5.757-0.298 0.32-0.364 0.927-0.055 1.544l2.14 4.346c0.188 0.386 0.629 0.596 1.059 0.596 0.463 0 0.904-0.254 0.971-0.827l-2.415-4.93c-0.761-1.544-1.423-4.059-1.423-6.474 0-5.504 3.761-9.221 9.32-9.221 5.548 0 9.32 3.717 9.32 9.221 0 2.415-0.662 4.93-1.423 6.474l-2.426 4.93c0.077 0.574 0.518 0.827 0.982 0.827 0.419 0 0.86-0.21 1.059-0.596l2.129-4.346c0.309-0.618 0.254-1.224-0.044-1.544 0.904-1.853 1.39-3.838 1.39-5.757 0-6.176-4.257-11.085-10.985-11.085s-10.985 4.908-10.985 11.085z"></path>
<path d="M10.375 19.805c-0.397-0.816-1.147-0.993-1.721-0.761-0.651 0.254-1.103 1.026-0.618 2.018l2.812 5.724c0.43 0.871 1.202 1.18 1.952 0.805 0.651-0.309 0.893-1.048 0.518-1.831l-2.945-5.956zM20.996 19.805l-2.934 5.956c-0.375 0.783-0.132 1.522 0.507 1.831 0.75 0.375 1.533 0.066 1.963-0.805l2.813-5.724c0.485-0.993 0.022-1.765-0.618-2.018-0.585-0.232-1.323-0.055-1.732 0.761z"></path>
</svg>
