<!-- Generated by IcoMoon.io -->
<svg version="1.1" xmlns="http://www.w3.org/2000/svg" width="32" height="32" viewBox="0 0 32 32">
<title>beats-fit-pro-left</title>
<path d="M20.662 20.816c1.445 0 3.011-0.86 3.353-2.713l0.585-3.165c0.607-3.298-1.886-5.757-5.901-7.147-2.382-0.827-4.71-1.202-7.059-1.202-0.706 0-0.949 0.254-0.949 0.717 0 1.136 0.596 1.985 1.732 2.151 1.864 0.287 3.276 0.662 4.765 1.368 0.596 0.276 0.827 0.684 0.717 1.29l-0.717 4.335c-0.408 2.459 1.246 4.368 3.474 4.368zM20.662 19.129c-1.026 0-1.842-0.816-1.842-1.842s0.816-1.842 1.842-1.842c1.026 0 1.842 0.805 1.842 1.842s-0.816 1.842-1.842 1.842zM20.662 18.346c0.596 0 1.059-0.463 1.059-1.059 0-0.585-0.463-1.059-1.059-1.059s-1.059 0.474-1.059 1.059c0 0.596 0.463 1.059 1.059 1.059zM20.662 21.886c-2.956 0-5.040-2.57-4.522-5.614l0.43-2.603c-2.36 0.607-4.070 1.61-4.787 3.143 0.629 2.801 1.643 5.393 3.066 7.875 0.695 0.353 1.423 0.485 2.404 0.485 3.772 0 7.092-1.831 7.324-5.504-0.772 1.357-2.228 2.217-3.915 2.217z"></path>
<path d="M6.588 21.423c0 2.813 1.864 4.699 4.665 4.699 1.114 0 2.129-0.364 2.735-0.794-1.522-2.614-2.603-5.416-3.287-8.393-2.085 0.209-4.114 1.919-4.114 4.489z"></path>
<path d="M20.662 19.129c-1.026 0-1.842-0.816-1.842-1.842s0.816-1.842 1.842-1.842c1.026 0 1.842 0.805 1.842 1.842s-0.816 1.842-1.842 1.842zM20.662 18.346c0.596 0 1.059-0.463 1.059-1.059 0-0.585-0.463-1.059-1.059-1.059s-1.059 0.474-1.059 1.059c0 0.596 0.463 1.059 1.059 1.059z"></path>
</svg>
