<!-- Generated by IcoMoon.io -->
<svg version="1.1" xmlns="http://www.w3.org/2000/svg" width="32" height="32" viewBox="0 0 32 32">
<title>beats-fit-pro</title>
<path d="M11.963 19.636c1.335 0 2.768-0.794 3.077-2.482l0.54-2.912c0.551-3.022-1.732-5.283-5.415-6.551-2.184-0.761-4.313-1.103-6.463-1.103-0.662 0-0.871 0.232-0.871 0.662 0 1.037 0.54 1.82 1.588 1.974 1.699 0.254 2.989 0.607 4.368 1.246 0.541 0.254 0.75 0.629 0.651 1.18l-0.662 3.982c-0.364 2.25 1.147 4.004 3.187 4.004zM11.963 18.081c-0.938 0-1.687-0.739-1.687-1.676 0-0.949 0.75-1.699 1.687-1.699 0.949 0 1.688 0.75 1.688 1.699s-0.739 1.676-1.688 1.676zM11.963 17.364c0.552 0 0.971-0.419 0.971-0.96 0-0.551-0.419-0.982-0.971-0.982-0.54 0-0.971 0.43-0.971 0.982 0 0.54 0.43 0.96 0.971 0.96zM11.963 20.607c-2.702 0-4.61-2.349-4.147-5.14l0.397-2.382c-2.162 0.552-3.728 1.478-4.39 2.879 0.585 2.57 1.511 4.941 2.813 7.224 0.64 0.32 1.301 0.43 2.206 0.43 3.452 0 6.496-1.677 6.706-5.040-0.695 1.257-2.029 2.029-3.585 2.029zM20.963 19.636c2.029 0 3.552-1.754 3.176-4.004l-0.662-3.982c-0.088-0.551 0.11-0.927 0.662-1.18 1.368-0.64 2.669-0.993 4.368-1.246 1.048-0.154 1.588-0.938 1.588-1.974 0-0.43-0.221-0.662-0.871-0.662-2.151 0-4.29 0.342-6.463 1.103-3.684 1.268-5.967 3.529-5.415 6.551l0.54 2.912c0.309 1.687 1.743 2.482 3.077 2.482zM20.963 18.081c-0.949 0-1.698-0.728-1.698-1.676s0.75-1.699 1.698-1.699c0.938 0 1.677 0.75 1.677 1.699 0 0.938-0.739 1.676-1.677 1.676zM20.963 17.364c0.541 0 0.96-0.419 0.96-0.96 0-0.551-0.419-0.982-0.96-0.982-0.551 0-0.982 0.43-0.982 0.982 0 0.54 0.43 0.96 0.982 0.96zM20.963 20.607c-1.555 0-2.89-0.772-3.596-2.029 0.21 3.364 3.265 5.040 6.717 5.040 0.904 0 1.566-0.11 2.206-0.43 1.301-2.283 2.228-4.654 2.813-7.224-0.673-1.401-2.228-2.327-4.401-2.879l0.408 2.382c0.463 2.79-1.445 5.14-4.147 5.14z"></path>
<path d="M-0.941 20.198c0 2.57 1.721 4.301 4.29 4.301 1.015 0 1.941-0.342 2.504-0.739-1.401-2.393-2.393-4.952-3.011-7.688-1.919 0.187-3.783 1.754-3.783 4.125zM33.857 20.198c0-2.371-1.864-3.938-3.772-4.125-0.618 2.735-1.61 5.294-3.011 7.688 0.563 0.397 1.489 0.739 2.504 0.739 2.57 0 4.279-1.732 4.279-4.301z"></path>
<path d="M11.963 18.081c-0.938 0-1.687-0.739-1.687-1.676 0-0.949 0.75-1.699 1.687-1.699 0.949 0 1.688 0.75 1.688 1.699s-0.739 1.676-1.688 1.676zM11.963 17.364c0.552 0 0.971-0.419 0.971-0.96 0-0.552-0.419-0.982-0.971-0.982-0.54 0-0.971 0.43-0.971 0.982 0 0.54 0.43 0.96 0.971 0.96zM20.963 18.081c-0.949 0-1.698-0.728-1.698-1.676s0.75-1.699 1.698-1.699c0.938 0 1.677 0.75 1.677 1.699 0 0.938-0.739 1.676-1.677 1.676zM20.963 17.364c0.541 0 0.96-0.419 0.96-0.96 0-0.552-0.419-0.982-0.96-0.982-0.551 0-0.982 0.43-0.982 0.982 0 0.54 0.43 0.96 0.982 0.96z"></path>
</svg>
