<!-- Generated by IcoMoon.io -->
<svg version="1.1" xmlns="http://www.w3.org/2000/svg" width="32" height="32" viewBox="0 0 32 32">
<title>beats-fit-pro-chargingcase</title>
<path d="M0.543 15.949c0 5.158 3.68 8.075 10.191 8.075h9.753c6.511 0 10.191-2.917 10.191-8.075 0-5.167-3.68-8.084-10.191-8.084h-9.753c-6.511 0-10.191 2.917-10.191 8.084zM2.078 15.949c0-4.204 3.108-6.549 8.656-6.549h9.753c5.539 0 8.656 2.345 8.656 6.549 0 4.195-3.117 6.54-8.656 6.54h-9.753c-5.548 0-8.656-2.345-8.656-6.54zM1.325 15.94h28.572v-0.963h-28.572v0.963zM8.828 16.597h13.557c0.667 0 1.154-0.467 1.154-1.135 0-0.677-0.486-1.144-1.154-1.144h-13.556c-0.648 0-1.144 0.467-1.144 1.144 0 0.667 0.496 1.135 1.144 1.135zM15.606 19.448c0.534-0.010 0.972-0.458 0.972-0.953 0-0.543-0.438-0.972-0.972-0.972s-0.972 0.429-0.972 0.972c0 0.524 0.439 0.972 0.972 0.953z"></path>
</svg>
