<!-- Generated by IcoMoon.io -->
<svg version="1.1" xmlns="http://www.w3.org/2000/svg" width="32" height="32" viewBox="0 0 32 32">
<title>beats-studiobud-left</title>
<path d="M14.695 17.937c1.544 0.662 3.331-0.099 4.004-1.621l2.228-5.073c0.673-1.533-0.066-3.342-1.61-4.015-1.555-0.662-3.342 0.066-4.026 1.632l-2.217 5.074c-0.684 1.544 0.066 3.331 1.621 4.004zM15.809 17.033c-1.059 0-1.886-0.838-1.886-1.897 0-1.048 0.838-1.897 1.886-1.897 1.070 0 1.908 0.849 1.908 1.897 0 1.059-0.838 1.897-1.908 1.897zM15.809 16.25c0.651 0 1.114-0.496 1.114-1.114 0-0.607-0.463-1.114-1.114-1.114-0.629 0-1.103 0.507-1.103 1.114 0 0.618 0.474 1.114 1.103 1.114zM25.349 14.695c-0.574-1.897-1.985-2.801-3.187-3.816-0.066 0.276-0.143 0.529-0.265 0.794l-2.228 5.074c-0.915 2.085-3.32 3.044-5.404 2.173-2.040-0.893-3.022-3.188-2.239-5.217-1.015 1.213-1.246 3.066-0.485 5.162 1.379 3.871 4.908 4.599 8.371 3.243l2.085-0.827c2.835-1.114 4.18-3.739 3.353-6.585z"></path>
<path d="M10.537 19.228c-0.518-1.412-0.64-2.802-0.342-4.169-2.074 0.563-3.607 2.46-3.607 4.721 0 2.702 2.184 4.886 4.864 4.886 1.224 0 2.349-0.441 3.198-1.202-1.864-0.607-3.331-2.051-4.114-4.235z"></path>
<path d="M15.809 17.033c-1.059 0-1.886-0.838-1.886-1.897 0-1.048 0.838-1.897 1.886-1.897 1.070 0 1.908 0.849 1.908 1.897 0 1.059-0.838 1.897-1.908 1.897zM15.809 16.25c0.651 0 1.114-0.496 1.114-1.114 0-0.607-0.463-1.114-1.114-1.114-0.629 0-1.103 0.507-1.103 1.114 0 0.618 0.474 1.114 1.103 1.114z"></path>
</svg>
