<!-- Generated by IcoMoon.io -->
<svg version="1.1" xmlns="http://www.w3.org/2000/svg" width="32" height="32" viewBox="0 0 32 32">
<title>beats-powerbeatspro-left</title>
<path d="M13.732 5.647c-3.474 0-5.261 2.559-5.261 6.618v2.57c0 2.89 0.728 4.257 2.779 5.382l4.688 2.581c1.213 0.651 1.776 0.871 2.625 0.871 1.754 0 3.187-1.445 3.187-3.187 0-1.191-0.629-2.294-1.985-3.011l-9.32-4.864c0-3.232 1.059-4.974 3.397-4.974 3.915 0 7.301 4.599 7.699 9.838 0.827 0.816 1.279 1.853 1.279 3.011 0 1.93-1.324 3.574-3.088 4.092 0.088 1.202 0.827 2.393 1.721 2.393 1.158 0 2.118-3.949 2.118-7.522 0-7.599-4.445-13.798-9.838-13.798zM18.64 22.478c-1.092 0-1.996-0.904-1.996-2.007s0.904-2.007 1.996-2.007c1.114 0 2.018 0.904 2.018 2.007s-0.904 2.007-2.018 2.007zM18.64 21.695c0.684 0 1.235-0.552 1.235-1.224 0-0.662-0.552-1.224-1.235-1.224-0.662 0-1.213 0.563-1.213 1.224 0 0.673 0.552 1.224 1.213 1.224z"></path>
<path d="M18.64 22.478c-1.092 0-1.996-0.904-1.996-2.007s0.904-2.007 1.996-2.007c1.114 0 2.018 0.904 2.018 2.007s-0.904 2.007-2.018 2.007zM18.64 21.695c0.684 0 1.235-0.552 1.235-1.224 0-0.662-0.552-1.224-1.235-1.224-0.662 0-1.213 0.563-1.213 1.224 0 0.673 0.552 1.224 1.213 1.224z"></path>
</svg>
