<!-- Generated by IcoMoon.io -->
<svg version="1.1" xmlns="http://www.w3.org/2000/svg" width="32" height="32" viewBox="0 0 32 32">
<title>beats-powerbeats3</title>
<path d="M5.261 21.857h8.68c0.452 0 0.805-0.287 0.86-0.761l0.364-3.816c0.044-0.574-0.342-0.982-0.904-0.982h-9c-1.533 0-2.768 1.246-2.768 2.79 0 1.533 1.235 2.768 2.768 2.768zM5.261 20.125c0.585 0 1.059-0.452 1.059-1.037s-0.474-1.059-1.059-1.059-1.048 0.474-1.048 1.059c0 0.585 0.463 1.037 1.048 1.037zM11.625 27.073h1.048l0.386-3.706h-1.059l-0.375 3.706zM5.261 20.908c-1.015 0-1.831-0.805-1.831-1.82s0.816-1.842 1.831-1.842c1.026 0 1.842 0.827 1.842 1.842s-0.816 1.82-1.842 1.82zM9.871 4.706c-5.118 0-9.871 4.577-9.871 11.085 0 4.302 1.39 10.224 3.673 10.246 0.574 0 0.993-0.574 0.993-1.875 0-0.375-0.022-0.728-0.11-1.301-1.776-0.331-3.132-1.897-3.132-3.772 0-0.717 0.199-1.379 0.54-1.963-0.077-0.485-0.121-1.015-0.121-1.423 0-5.085 4.191-9.154 7.908-9.154 2.283 0 3.441 1.776 3.132 4.765l-1.29 12.397c-0.121 1.213 1.699 1.213 1.809 0.143l1.268-12.618c0.419-4.191-1.346-6.529-4.798-6.529zM26.316 21.857c1.544 0 2.779-1.235 2.779-2.768 0-1.544-1.235-2.79-2.779-2.79h-8.989c-0.574 0-0.96 0.408-0.904 0.982l0.364 3.816c0.055 0.474 0.408 0.761 0.849 0.761h8.68zM26.316 20.125c0.596 0 1.048-0.452 1.048-1.037s-0.452-1.059-1.048-1.059c-0.585 0-1.048 0.474-1.048 1.059s0.463 1.037 1.048 1.037zM19.963 27.073l-0.386-3.706h-1.048l0.386 3.706h1.048zM26.316 20.908c-1.015 0-1.842-0.805-1.842-1.82s0.827-1.842 1.842-1.842c1.026 0 1.831 0.827 1.831 1.842s-0.805 1.82-1.831 1.82zM21.717 4.706c-3.463 0-5.228 2.338-4.798 6.529l1.268 12.618c0.11 1.070 1.93 1.070 1.798-0.143l-1.279-12.397c-0.32-2.989 0.849-4.765 3.132-4.765 3.706 0 7.897 4.070 7.897 9.154 0 0.408-0.044 0.938-0.11 1.423 0.331 0.585 0.529 1.246 0.529 1.963 0 1.875-1.346 3.441-3.121 3.772-0.088 0.573-0.121 0.926-0.121 1.301 0 1.301 0.419 1.875 0.993 1.875 2.294-0.022 3.684-5.945 3.684-10.246 0-6.507-4.765-11.085-9.871-11.085z"></path>
<path d="M5.261 20.125c0.585 0 1.059-0.452 1.059-1.037s-0.474-1.059-1.059-1.059-1.048 0.474-1.048 1.059c0 0.585 0.463 1.037 1.048 1.037zM5.261 20.908c-1.015 0-1.831-0.805-1.831-1.82s0.816-1.842 1.831-1.842c1.026 0 1.842 0.827 1.842 1.842s-0.816 1.82-1.842 1.82zM26.316 20.125c0.596 0 1.048-0.452 1.048-1.037s-0.452-1.059-1.048-1.059c-0.585 0-1.048 0.474-1.048 1.059s0.463 1.037 1.048 1.037zM26.316 20.908c-1.015 0-1.842-0.805-1.842-1.82s0.827-1.842 1.842-1.842c1.026 0 1.831 0.827 1.831 1.842s-0.805 1.82-1.831 1.82z"></path>
</svg>
