<!-- Generated by IcoMoon.io -->
<svg version="1.1" xmlns="http://www.w3.org/2000/svg" width="32" height="32" viewBox="0 0 32 32">
<title>beats-powerbeats</title>
<path d="M10.794 4.706c-4.886 0-8.912 5.614-8.912 12.507 0 3.243 0.86 6.827 1.919 6.827 0.816 0 1.478-1.081 1.566-2.173-1.61-0.474-2.801-1.963-2.801-3.706 0-1.059 0.408-1.996 1.147-2.746 0.364-4.743 3.441-8.923 6.982-8.923 2.118 0 3.088 1.588 3.088 4.522l-8.448 4.412c-1.235 0.64-1.798 1.654-1.798 2.735 0 1.577 1.301 2.879 2.879 2.879 0.772 0 1.29-0.199 2.382-0.783l4.268-2.338c1.853-1.026 2.515-2.272 2.515-4.886v-2.327c0-3.673-1.621-6-4.787-6zM6.349 19.971c-1.015 0-1.831-0.827-1.831-1.82 0-1.004 0.816-1.82 1.831-1.82 0.993 0 1.809 0.816 1.809 1.82 0 0.993-0.816 1.82-1.809 1.82zM6.349 19.265c0.596 0 1.103-0.507 1.103-1.114s-0.507-1.114-1.103-1.114c-0.618 0-1.114 0.507-1.114 1.114s0.496 1.114 1.114 1.114zM3.349 27.669h1.015v-4.048h-1.015v4.048zM21.702 4.706c-3.165 0-4.787 2.327-4.787 6v2.327c0 2.614 0.662 3.86 2.515 4.886l4.268 2.338c1.092 0.585 1.61 0.783 2.382 0.783 1.577 0 2.879-1.301 2.879-2.879 0-1.081-0.562-2.096-1.798-2.735l-8.449-4.412c0-2.934 0.971-4.522 3.088-4.522 3.529 0 6.618 4.18 6.982 8.923 0.739 0.75 1.147 1.688 1.147 2.746 0 1.743-1.191 3.232-2.802 3.706 0.077 1.092 0.75 2.173 1.566 2.173 1.048 0 1.919-3.585 1.919-6.827 0-6.893-4.026-12.507-8.912-12.507zM26.147 19.971c-0.993 0-1.82-0.827-1.82-1.82 0-1.004 0.827-1.82 1.82-1.82 1.015 0 1.831 0.816 1.831 1.82 0 0.993-0.816 1.82-1.831 1.82zM26.147 19.265c0.618 0 1.114-0.507 1.114-1.114s-0.496-1.114-1.114-1.114c-0.607 0-1.114 0.507-1.114 1.114s0.507 1.114 1.114 1.114zM29.147 27.669v-4.048h-1.015v4.048h1.015z"></path>
<path d="M6.349 19.971c-1.015 0-1.831-0.827-1.831-1.82 0-1.004 0.816-1.82 1.831-1.82 0.993 0 1.809 0.816 1.809 1.82 0 0.993-0.816 1.82-1.809 1.82zM6.349 19.265c0.596 0 1.103-0.507 1.103-1.114s-0.507-1.114-1.103-1.114c-0.618 0-1.114 0.507-1.114 1.114s0.496 1.114 1.114 1.114zM26.147 19.971c-0.993 0-1.82-0.827-1.82-1.82 0-1.004 0.827-1.82 1.82-1.82 1.015 0 1.831 0.816 1.831 1.82 0 0.993-0.816 1.82-1.831 1.82zM26.147 19.265c0.618 0 1.114-0.507 1.114-1.114s-0.496-1.114-1.114-1.114c-0.607 0-1.114 0.507-1.114 1.114s0.507 1.114 1.114 1.114z"></path>
</svg>
