<!-- Generated by IcoMoon.io -->
<svg version="1.1" xmlns="http://www.w3.org/2000/svg" width="32" height="32" viewBox="0 0 32 32">
<title>beats-fit-pro-chargingcase-fill</title>
<path d="M0.591 15.101h7.198c0.172-0.4 0.562-0.658 1.039-0.658h13.557c0.477 0 0.877 0.257 1.049 0.658h7.198c-0.477-4.757-3.956-7.236-10.144-7.236h-9.753c-6.178 0-9.657 2.479-10.143 7.236zM20.487 24.024c6.549 0 10.115-2.774 10.191-7.96h-7.245c-0.172 0.4-0.572 0.658-1.049 0.658h-13.556c-0.477 0-0.868-0.257-1.039-0.658h-7.245c0.067 5.005 3.861 7.96 10.191 7.96h9.753zM15.606 19.915c-0.534 0.010-0.972-0.439-0.972-0.963 0-0.534 0.439-0.972 0.972-0.972s0.972 0.439 0.972 0.972c0 0.496-0.438 0.944-0.972 0.963z"></path>
</svg>
