<!-- Generated by IcoMoon.io -->
<svg version="1.1" xmlns="http://www.w3.org/2000/svg" width="32" height="32" viewBox="0 0 32 32">
<title>bed-double-circle-fill</title>
<path d="M15.956 27.217c6.154 0 11.25-5.096 11.25-11.25 0-6.143-5.107-11.25-11.261-11.25-6.143 0-11.239 5.107-11.239 11.25 0 6.154 5.107 11.25 11.25 11.25zM9.085 20.059v-3.221c0-1.026 0.585-1.61 1.621-1.61h10.5c1.037 0 1.621 0.585 1.621 1.61v3.221c0 0.287-0.187 0.463-0.474 0.463h-0.309c-0.276 0-0.463-0.176-0.463-0.463v-0.794c-0.066 0.011-0.243 0.011-0.375 0.011h-10.5c-0.132 0-0.309 0-0.375-0.011v0.794c0 0.287-0.188 0.463-0.463 0.463h-0.309c-0.276 0-0.474-0.176-0.474-0.463zM10.397 14.456v-1.544c0-0.993 0.529-1.511 1.5-1.511h8.118c0.971 0 1.511 0.518 1.511 1.511v1.544h-1.379v-0.761c0-0.507-0.276-0.794-0.838-0.794h-1.886c-0.54 0-0.816 0.287-0.816 0.794v0.761h-1.235v-0.761c0-0.507-0.276-0.794-0.783-0.794h-2.018c-0.529 0-0.794 0.287-0.794 0.794v0.761h-1.379z"></path>
</svg>
