<!-- Generated by IcoMoon.io -->
<svg version="1.1" xmlns="http://www.w3.org/2000/svg" width="32" height="32" viewBox="0 0 32 32">
<title>bed-double-fill</title>
<path d="M1.882 24.257c0 0.574 0.364 0.938 0.938 0.938h0.662c0.563 0 0.938-0.364 0.938-0.938v-1.632c0.121 0.033 0.485 0.055 0.75 0.055h21.375c0.265 0 0.629-0.022 0.75-0.055v1.632c0 0.574 0.375 0.938 0.938 0.938h0.662c0.574 0 0.938-0.364 0.938-0.938v-6.573c0-2.107-1.169-3.265-3.276-3.265h-21.397c-2.107 0-3.276 1.158-3.276 3.265v6.573zM4.529 12.842h2.801v-1.588c0-1.026 0.574-1.588 1.621-1.588h4.114c1.037 0 1.61 0.563 1.61 1.588v1.588h2.504v-1.588c0-1.026 0.574-1.588 1.677-1.588h3.86c1.103 0 1.677 0.563 1.677 1.588v1.588h2.812v-3.165c0-2.040-1.103-3.088-3.088-3.088h-16.511c-1.985 0-3.077 1.048-3.077 3.088v3.165z"></path>
</svg>
