<!-- Generated by IcoMoon.io -->
<svg version="1.1" xmlns="http://www.w3.org/2000/svg" width="32" height="32" viewBox="0 0 32 32">
<title>bed-double-circle</title>
<path d="M15.956 27.206c6.154 0 11.25-5.107 11.25-11.25 0-6.154-5.107-11.25-11.261-11.25-6.143 0-11.239 5.096-11.239 11.25 0 6.143 5.107 11.25 11.25 11.25zM15.956 25.331c-5.206 0-9.364-4.169-9.364-9.375s4.147-9.375 9.353-9.375c5.206 0 9.386 4.169 9.386 9.375s-4.169 9.375-9.375 9.375zM9.294 19.927c0 0.265 0.187 0.441 0.452 0.441h0.309c0.265 0 0.441-0.176 0.441-0.441v-0.772c0.066 0.011 0.232 0.011 0.364 0.011h10.191c0.132 0 0.298 0 0.364-0.011v0.772c0 0.265 0.176 0.441 0.441 0.441h0.309c0.276 0 0.452-0.176 0.452-0.441v-3.132c0-1.004-0.562-1.555-1.566-1.555h-10.191c-1.004 0-1.566 0.551-1.566 1.555v3.132zM10.563 14.489h1.335v-0.739c0-0.496 0.265-0.772 0.772-0.772h1.963c0.485 0 0.761 0.276 0.761 0.772v0.739h1.191v-0.739c0-0.496 0.276-0.772 0.794-0.772h1.831c0.54 0 0.816 0.276 0.816 0.772v0.739h1.335v-1.5c0-0.96-0.529-1.456-1.467-1.456h-7.875c-0.938 0-1.456 0.496-1.456 1.456v1.5z"></path>
</svg>
