<!-- Generated by IcoMoon.io -->
<svg version="1.1" xmlns="http://www.w3.org/2000/svg" width="32" height="32" viewBox="0 0 32 32">
<title>bed-double</title>
<path d="M2.82 25.195h0.662c0.563 0 0.938-0.364 0.938-0.938v-1.632c0.121 0.033 0.485 0.055 0.75 0.055h21.375c0.265 0 0.629-0.022 0.75-0.055v1.632c0 0.574 0.375 0.938 0.938 0.938h0.662c0.574 0 0.938-0.364 0.938-0.938v-7.555c0-2.107-1.147-3.243-3.254-3.243h-21.441c-2.107 0-3.254 1.136-3.254 3.243v7.555c0 0.574 0.364 0.938 0.938 0.938zM4.088 21.070c-0.232 0-0.375-0.165-0.375-0.43v-4.191c0-0.838 0.551-1.379 1.412-1.379h21.474c0.849 0 1.401 0.54 1.401 1.379v4.191c0 0.265-0.143 0.43-0.375 0.43h-23.537zM4.75 13.691h2.901v-2.272c0-1.026 0.574-1.588 1.621-1.588h3.871c1.037 0 1.61 0.563 1.61 1.588v2.272h2.206v-2.272c0-1.026 0.574-1.588 1.61-1.588h3.871c1.048 0 1.621 0.563 1.621 1.588v2.272h2.901v-4.015c0-2.040-1.092-3.088-3.077-3.088h-16.059c-1.974 0-3.077 1.048-3.077 3.088v4.015z"></path>
</svg>
