<!-- Generated by IcoMoon.io -->
<svg version="1.1" xmlns="http://www.w3.org/2000/svg" width="32" height="32" viewBox="0 0 32 32">
<title>bell-square</title>
<path d="M9.11 25.974h13.379c2.316 0 3.463-1.147 3.463-3.419v-13.467c0-2.272-1.147-3.419-3.463-3.419h-13.379c-2.305 0-3.463 1.136-3.463 3.419v13.467c0 2.283 1.158 3.419 3.463 3.419zM9.132 24.198c-1.103 0-1.71-0.585-1.71-1.732v-13.29c0-1.147 0.607-1.732 1.71-1.732h13.335c1.092 0 1.71 0.585 1.71 1.732v13.29c0 1.147-0.618 1.732-1.71 1.732h-13.335zM10.963 19.787h9.717c0.562 0 0.893-0.298 0.893-0.728 0-0.618-0.607-1.158-1.147-1.71-0.419-0.43-0.496-1.301-0.54-1.996-0.044-2.349-0.684-3.96-2.294-4.555-0.243-0.783-0.882-1.423-1.776-1.423s-1.522 0.64-1.776 1.423c-1.61 0.596-2.239 2.206-2.283 4.555-0.044 0.695-0.143 1.566-0.552 1.996-0.518 0.562-1.147 1.092-1.147 1.71 0 0.43 0.331 0.728 0.904 0.728zM15.816 22.335c1.037 0 1.798-0.739 1.875-1.632h-3.739c0.077 0.893 0.827 1.632 1.864 1.632z"></path>
</svg>
