<!-- Generated by IcoMoon.io -->
<svg version="1.1" xmlns="http://www.w3.org/2000/svg" width="32" height="32" viewBox="0 0 32 32">
<title>bell-circle</title>
<path d="M15.956 27.206c6.154 0 11.25-5.107 11.25-11.25 0-6.154-5.107-11.25-11.261-11.25-6.143 0-11.239 5.096-11.239 11.25 0 6.143 5.107 11.25 11.25 11.25zM15.956 25.331c-5.206 0-9.364-4.169-9.364-9.375s4.147-9.375 9.353-9.375c5.206 0 9.386 4.169 9.386 9.375s-4.169 9.375-9.375 9.375zM11.103 19.938h9.717c0.563 0 0.893-0.298 0.893-0.728 0-0.618-0.607-1.158-1.147-1.71-0.419-0.43-0.496-1.302-0.541-1.996-0.055-2.349-0.684-3.96-2.294-4.555-0.243-0.783-0.882-1.423-1.776-1.423s-1.522 0.64-1.776 1.423c-1.61 0.596-2.239 2.206-2.283 4.555-0.055 0.695-0.143 1.566-0.551 1.996-0.518 0.562-1.147 1.092-1.147 1.71 0 0.43 0.331 0.728 0.904 0.728zM15.956 22.485c1.037 0 1.798-0.739 1.864-1.632h-3.728c0.077 0.893 0.827 1.632 1.864 1.632z"></path>
</svg>
