<!-- Generated by IcoMoon.io -->
<svg version="1.1" xmlns="http://www.w3.org/2000/svg" width="32" height="32" viewBox="0 0 32 32">
<title>bell-fill</title>
<path d="M7.313 23.5h17.482c1.037 0 1.665-0.529 1.665-1.335 0-1.103-1.125-2.096-2.073-3.077-0.728-0.761-0.927-2.327-1.015-3.596-0.077-4.235-1.202-7.147-4.136-8.206-0.419-1.445-1.555-2.581-3.187-2.581-1.621 0-2.768 1.136-3.176 2.581-2.934 1.059-4.059 3.971-4.136 8.206-0.088 1.268-0.287 2.835-1.015 3.596-0.96 0.982-2.074 1.974-2.074 3.077 0 0.805 0.618 1.335 1.665 1.335zM16.048 27.923c1.875 0 3.243-1.368 3.386-2.912h-6.761c0.143 1.544 1.511 2.912 3.375 2.912z"></path>
</svg>
