<!-- Generated by IcoMoon.io -->
<svg version="1.1" xmlns="http://www.w3.org/2000/svg" width="32" height="32" viewBox="0 0 32 32">
<title>bell-slash</title>
<path d="M16.078 27.493c2.239 0 3.86-1.71 4.059-3.75h0.717l-1.908-1.908h-11.129v-0.132c0.199-0.32 0.849-0.971 1.434-1.61 0.783-0.882 1.169-2.305 1.257-4.456 0.022-0.772 0.077-1.456 0.165-2.074l-1.544-1.544c-0.243 1.004-0.353 2.173-0.375 3.474-0.088 1.268-0.276 2.835-1.004 3.596-0.96 0.982-2.085 1.974-2.085 3.077 0 0.816 0.618 1.335 1.676 1.335h4.643c0.088 2.129 1.754 3.993 4.092 3.993zM16.078 25.938c-1.335 0-2.283-0.938-2.371-2.437h4.732c-0.077 1.5-1.037 2.437-2.36 2.437zM11.347 8.125l1.268 1.268c0.397-0.298 0.838-0.496 1.312-0.629 0.276-0.066 0.419-0.199 0.43-0.485 0.044-1.147 0.695-1.952 1.721-1.952 1.015 0 1.677 0.805 1.71 1.952 0.011 0.287 0.165 0.419 0.441 0.485 1.919 0.529 3.386 2.118 3.452 7.158 0.055 1.346 0.165 2.173 0.552 2.912l3.915 4.037c0.187-0.21 0.287-0.496 0.287-0.805 0-0.882-0.915-1.71-1.71-2.515-0.904-1.015-1.235-2.096-1.29-3.673-0.055-4.688-1.224-7.522-4.169-8.592-0.375-1.445-1.566-2.581-3.187-2.581-1.632 0-2.813 1.136-3.187 2.581-0.596 0.199-1.103 0.485-1.544 0.838zM5.887 6.945l19.82 19.787c0.331 0.342 0.871 0.342 1.202 0 0.32-0.331 0.331-0.86 0-1.202l-19.809-19.787c-0.331-0.331-0.871-0.331-1.213 0-0.32 0.32-0.32 0.882 0 1.202z"></path>
</svg>
