<!-- Generated by IcoMoon.io -->
<svg version="1.1" xmlns="http://www.w3.org/2000/svg" width="32" height="32" viewBox="0 0 32 32">
<title>bell</title>
<path d="M5.647 22.165c0 0.805 0.618 1.335 1.665 1.335h4.654c0.088 2.129 1.754 3.993 4.081 3.993 2.338 0 4.004-1.853 4.092-3.993h4.654c1.037 0 1.665-0.529 1.665-1.335 0-1.103-1.125-2.096-2.073-3.077-0.728-0.761-0.927-2.327-1.015-3.596-0.077-4.346-1.202-7.147-4.136-8.206-0.375-1.445-1.555-2.581-3.187-2.581-1.621 0-2.813 1.136-3.176 2.581-2.934 1.059-4.059 3.86-4.136 8.206-0.088 1.268-0.287 2.835-1.015 3.596-0.96 0.982-2.074 1.974-2.074 3.077zM7.787 21.835v-0.132c0.199-0.32 0.86-0.971 1.434-1.61 0.794-0.882 1.169-2.305 1.268-4.456 0.088-4.82 1.522-6.353 3.408-6.871 0.276-0.066 0.43-0.199 0.441-0.485 0.033-1.147 0.695-1.952 1.71-1.952 1.026 0 1.676 0.805 1.721 1.952 0.011 0.287 0.154 0.419 0.43 0.485 1.897 0.518 3.331 2.051 3.419 6.871 0.099 2.151 0.474 3.574 1.257 4.456 0.585 0.64 1.235 1.29 1.434 1.61v0.132h-16.522zM13.688 23.5h4.732c-0.088 1.5-1.037 2.437-2.371 2.437-1.324 0-2.283-0.938-2.36-2.437z"></path>
</svg>
