<!-- Generated by IcoMoon.io -->
<svg version="1.1" xmlns="http://www.w3.org/2000/svg" width="32" height="32" viewBox="0 0 32 32">
<title>bell-and-waves-left-and-right-fill</title>
<path d="M3.721 22.218c0.279-0.314 0.192-0.725-0.122-1.083-1.17-1.301-1.825-3.013-1.825-4.891s0.655-3.59 1.825-4.891c0.314-0.358 0.402-0.769 0.122-1.083-0.279-0.332-0.769-0.323-1.1 0.044-1.45 1.572-2.271 3.668-2.271 5.93s0.821 4.349 2.271 5.93c0.332 0.367 0.821 0.367 1.1 0.044zM6.166 19.729c0.279-0.314 0.166-0.707-0.114-1.083-0.524-0.655-0.777-1.493-0.777-2.402s0.253-1.755 0.777-2.402c0.279-0.376 0.393-0.769 0.114-1.083-0.288-0.332-0.812-0.332-1.118 0.061-0.76 0.943-1.196 2.14-1.196 3.423s0.437 2.48 1.196 3.424c0.306 0.393 0.83 0.384 1.118 0.061zM28.131 22.218c0.279 0.323 0.769 0.323 1.1-0.044 1.45-1.581 2.271-3.668 2.271-5.93s-0.821-4.358-2.271-5.93c-0.332-0.367-0.821-0.376-1.1-0.044-0.279 0.314-0.192 0.725 0.122 1.083 1.17 1.301 1.825 3.013 1.825 4.891s-0.655 3.59-1.825 4.891c-0.314 0.358-0.402 0.769-0.122 1.083zM25.677 19.729c0.297 0.323 0.812 0.332 1.127-0.061 0.76-0.943 1.197-2.14 1.197-3.424s-0.437-2.48-1.197-3.424c-0.314-0.393-0.83-0.393-1.127-0.061-0.271 0.314-0.157 0.707 0.122 1.083 0.515 0.646 0.777 1.493 0.777 2.402s-0.262 1.747-0.777 2.402c-0.279 0.376-0.393 0.768-0.122 1.083zM9.004 21.939h13.843c0.821 0 1.319-0.419 1.319-1.057 0-0.873-0.891-1.659-1.642-2.437-0.576-0.603-0.734-1.843-0.803-2.847-0.061-3.354-0.952-5.659-3.275-6.498-0.332-1.144-1.231-2.044-2.524-2.044-1.284 0-2.192 0.9-2.515 2.044-2.323 0.838-3.214 3.144-3.275 6.498-0.070 1.004-0.227 2.245-0.803 2.847-0.76 0.777-1.642 1.563-1.642 2.437 0 0.637 0.489 1.057 1.319 1.057zM15.921 25.441c1.485 0 2.568-1.083 2.681-2.306h-5.354c0.114 1.223 1.197 2.306 2.672 2.306z"></path>
</svg>
