<!-- Generated by IcoMoon.io -->
<svg version="1.1" xmlns="http://www.w3.org/2000/svg" width="32" height="32" viewBox="0 0 32 32">
<title>bell-circle-fill</title>
<path d="M15.956 27.217c6.154 0 11.25-5.096 11.25-11.25 0-6.143-5.107-11.25-11.261-11.25-6.143 0-11.239 5.107-11.239 11.25 0 6.154 5.107 11.25 11.25 11.25zM10.971 20.070c-0.596 0-0.937-0.309-0.937-0.75 0-0.64 0.64-1.191 1.18-1.754 0.419-0.452 0.507-1.346 0.562-2.051 0.044-2.438 0.695-4.092 2.36-4.71 0.265-0.816 0.904-1.467 1.831-1.467s1.577 0.651 1.831 1.467c1.665 0.618 2.316 2.272 2.371 4.71 0.044 0.706 0.121 1.599 0.551 2.051 0.563 0.551 1.18 1.114 1.18 1.754 0 0.441-0.342 0.75-0.926 0.75h-10.004zM15.967 22.706c-1.070 0-1.842-0.772-1.919-1.676h3.838c-0.066 0.904-0.849 1.676-1.919 1.676z"></path>
</svg>
