<!-- Generated by IcoMoon.io -->
<svg version="1.1" xmlns="http://www.w3.org/2000/svg" width="32" height="32" viewBox="0 0 32 32">
<title>bell-and-waves-left-and-right</title>
<path d="M3.727 22.049c0.279-0.314 0.192-0.725-0.122-1.082-1.17-1.301-1.824-3.012-1.824-4.888s0.655-3.588 1.824-4.888c0.314-0.358 0.402-0.768 0.122-1.082-0.279-0.332-0.768-0.323-1.1 0.044-1.449 1.571-2.27 3.666-2.27 5.927s0.821 4.347 2.27 5.927c0.332 0.367 0.821 0.367 1.1 0.044zM6.171 19.561c0.279-0.314 0.166-0.707-0.113-1.082-0.524-0.655-0.777-1.493-0.777-2.4s0.253-1.755 0.777-2.401c0.279-0.375 0.393-0.768 0.113-1.082-0.288-0.332-0.812-0.332-1.117 0.061-0.759 0.943-1.196 2.139-1.196 3.422s0.436 2.479 1.196 3.422c0.306 0.393 0.829 0.384 1.117 0.061zM28.125 22.049c0.279 0.323 0.768 0.323 1.1-0.044 1.449-1.58 2.27-3.666 2.27-5.927s-0.821-4.356-2.27-5.927c-0.332-0.367-0.821-0.375-1.1-0.044-0.279 0.314-0.192 0.725 0.122 1.082 1.17 1.301 1.824 3.011 1.824 4.888s-0.655 3.588-1.824 4.888c-0.314 0.358-0.402 0.768-0.122 1.082zM25.672 19.561c0.297 0.323 0.812 0.332 1.126-0.061 0.759-0.943 1.196-2.139 1.196-3.422s-0.436-2.479-1.196-3.422c-0.314-0.393-0.829-0.393-1.126-0.061-0.271 0.314-0.157 0.707 0.122 1.082 0.515 0.646 0.777 1.493 0.777 2.401s-0.262 1.746-0.777 2.4c-0.279 0.375-0.393 0.768-0.122 1.082zM7.69 20.88c0 0.637 0.489 1.056 1.318 1.056h3.684c0.070 1.685 1.388 3.16 3.23 3.16 1.851 0 3.169-1.466 3.239-3.16h3.684c0.821 0 1.318-0.419 1.318-1.056 0-0.873-0.89-1.659-1.641-2.435-0.576-0.602-0.733-1.842-0.803-2.846-0.061-3.439-0.951-5.656-3.273-6.494-0.297-1.143-1.231-2.043-2.523-2.043-1.283 0-2.226 0.899-2.514 2.043-2.322 0.838-3.212 3.055-3.273 6.494-0.070 1.004-0.227 2.243-0.803 2.846-0.759 0.777-1.641 1.563-1.641 2.435zM9.383 20.618v-0.105c0.157-0.253 0.681-0.768 1.135-1.274 0.629-0.698 0.925-1.824 1.004-3.527 0.070-3.815 1.205-5.028 2.697-5.438 0.218-0.052 0.34-0.157 0.349-0.384 0.026-0.908 0.55-1.545 1.353-1.545 0.812 0 1.327 0.637 1.362 1.545 0.009 0.227 0.122 0.332 0.349 0.384 1.493 0.41 2.628 1.624 2.697 5.438 0.079 1.702 0.375 2.828 0.995 3.527 0.463 0.506 0.978 1.021 1.135 1.274v0.105h-13.076zM14.053 21.936h3.745c-0.061 1.187-0.821 1.929-1.877 1.929-1.047 0-1.807-0.742-1.868-1.929z"></path>
</svg>
