<!-- Generated by IcoMoon.io -->
<svg version="1.1" xmlns="http://www.w3.org/2000/svg" width="32" height="32" viewBox="0 0 32 32">
<title>bell-slash-circle-fill</title>
<path d="M15.956 27.217c6.154 0 11.25-5.096 11.25-11.25 0-6.143-5.107-11.25-11.261-11.25-6.143 0-11.239 5.107-11.239 11.25 0 6.154 5.107 11.25 11.25 11.25zM13.265 11.29c0.232-0.21 0.518-0.364 0.86-0.485 0.254-0.816 0.904-1.467 1.82-1.467 0.927 0 1.577 0.651 1.831 1.467 1.665 0.618 2.327 2.272 2.371 4.71 0.044 0.706 0.121 1.599 0.552 2.051 0.562 0.551 1.18 1.114 1.18 1.754 0 0.165-0.066 0.32-0.165 0.419l-8.448-8.449zM18.051 20.070h-7.103c-0.585 0-0.938-0.309-0.938-0.75 0-0.64 0.64-1.191 1.191-1.754 0.408-0.452 0.507-1.346 0.552-2.051 0.011-0.585 0.044-1.125 0.132-1.621l6.165 6.176zM15.945 22.706c-1.070 0-1.842-0.772-1.919-1.676h3.849c-0.077 0.904-0.86 1.676-1.93 1.676zM21.305 22.055l-11.46-11.46c-0.187-0.187-0.198-0.518 0-0.728 0.21-0.21 0.541-0.21 0.75 0l11.449 11.46c0.198 0.209 0.198 0.518 0 0.728-0.199 0.198-0.54 0.198-0.739 0z"></path>
</svg>
