<!-- Generated by IcoMoon.io -->
<svg version="1.1" xmlns="http://www.w3.org/2000/svg" width="32" height="32" viewBox="0 0 32 32">
<title>bell-slash-fill</title>
<path d="M16.059 27.923c1.864 0 3.232-1.368 3.386-2.912h-6.772c0.143 1.544 1.511 2.912 3.386 2.912zM7.313 23.5h13.313l-11.504-11.515c-0.243 1.048-0.364 2.206-0.386 3.507-0.088 1.268-0.276 2.835-1.004 3.596-0.96 0.982-2.085 1.974-2.085 3.077 0 0.805 0.629 1.335 1.665 1.335zM16.059 4.706c-1.632 0-2.768 1.136-3.187 2.581-0.585 0.199-1.092 0.474-1.522 0.827l14.835 14.857c0.187-0.209 0.276-0.485 0.276-0.805 0-1.103-1.114-2.096-2.073-3.077-0.728-0.761-0.927-2.327-1.004-3.596-0.088-4.235-1.202-7.147-4.136-8.206-0.419-1.445-1.566-2.581-3.187-2.581zM5.89 6.945l19.82 19.787c0.331 0.342 0.871 0.342 1.202 0 0.32-0.331 0.331-0.86 0-1.202l-19.809-19.787c-0.331-0.331-0.871-0.331-1.213 0-0.32 0.32-0.32 0.882 0 1.202z"></path>
</svg>
