<!-- Generated by IcoMoon.io -->
<svg version="1.1" xmlns="http://www.w3.org/2000/svg" width="32" height="32" viewBox="0 0 32 32">
<title>bell-square-fill</title>
<path d="M9.11 25.974h13.379c2.316 0 3.463-1.147 3.463-3.419v-13.467c0-2.272-1.147-3.419-3.463-3.419h-13.379c-2.305 0-3.463 1.136-3.463 3.419v13.467c0 2.283 1.158 3.419 3.463 3.419zM10.82 19.908c-0.596 0-0.938-0.309-0.938-0.75 0-0.64 0.64-1.191 1.18-1.765 0.419-0.441 0.518-1.335 0.563-2.040 0.044-2.437 0.695-4.103 2.36-4.721 0.265-0.805 0.904-1.467 1.831-1.467s1.577 0.662 1.831 1.467c1.665 0.618 2.327 2.283 2.371 4.721 0.044 0.706 0.121 1.599 0.552 2.040 0.562 0.562 1.18 1.125 1.18 1.765 0 0.441-0.342 0.75-0.927 0.75h-10.004zM15.816 22.544c-1.070 0-1.842-0.772-1.919-1.687h3.849c-0.077 0.915-0.86 1.687-1.93 1.687z"></path>
</svg>
