<!-- Generated by IcoMoon.io -->
<svg version="1.1" xmlns="http://www.w3.org/2000/svg" width="32" height="32" viewBox="0 0 32 32">
<title>bell-slash-circle</title>
<path d="M15.956 27.206c6.154 0 11.25-5.107 11.25-11.25 0-6.154-5.107-11.25-11.261-11.25-6.143 0-11.239 5.096-11.239 11.25 0 6.143 5.107 11.25 11.25 11.25zM15.956 25.331c-5.206 0-9.364-4.169-9.364-9.375s4.147-9.375 9.353-9.375c5.206 0 9.386 4.169 9.386 9.375s-4.169 9.375-9.375 9.375zM13.331 11.423l8.195 8.195c0.099-0.099 0.165-0.243 0.165-0.419 0-0.607-0.607-1.147-1.147-1.698-0.419-0.43-0.496-1.302-0.54-1.996-0.044-2.349-0.684-3.96-2.294-4.555-0.243-0.783-0.882-1.423-1.776-1.423-0.882 0-1.522 0.64-1.765 1.423-0.331 0.11-0.607 0.276-0.838 0.474zM17.985 19.938l-5.989-5.989c-0.077 0.474-0.121 0.982-0.121 1.555-0.044 0.695-0.143 1.566-0.54 1.996-0.529 0.562-1.158 1.092-1.158 1.71 0 0.43 0.342 0.728 0.904 0.728h6.904zM15.934 22.485c1.037 0 1.798-0.739 1.875-1.632h-3.739c0.077 0.893 0.827 1.632 1.864 1.632zM21.14 21.868c0.188 0.187 0.518 0.187 0.706 0 0.199-0.21 0.199-0.507 0-0.706l-11.107-11.118c-0.199-0.199-0.518-0.199-0.717 0-0.198 0.187-0.187 0.518 0 0.706l11.118 11.118z"></path>
</svg>
