<!-- Generated by IcoMoon.io -->
<svg version="1.1" xmlns="http://www.w3.org/2000/svg" width="32" height="32" viewBox="0 0 32 32">
<title>bell-and-waveform-fill</title>
<path d="M15.118 27.518c1.864 0 3.232-1.368 3.386-2.912h-6.772c0.143 1.544 1.511 2.912 3.386 2.912zM6.371 23.096h17.482c1.048 0 1.665-0.529 1.665-1.335 0-1.103-1.114-2.096-2.073-3.077-0.673-0.684-0.927-2.051-0.971-3.176 0-0.221 0-0.419-0.011-0.618-0.199 0.099-0.43 0.143-0.684 0.143-1.114 0-2.018-0.717-2.294-1.721l-0.033-0.232c-0.077 0.033-0.165 0.055-0.254 0.055-1.081 0-2.029-0.739-2.305-1.732l-0.022-0.187c-0.088 0.033-0.176 0.055-0.276 0.055-1.323 0-2.393-1.070-2.393-2.393v-1.676c0-1.335 1.070-2.415 2.393-2.415 0.044 0 0.11 0 0.154 0.011l0.011-0.044c-0.463-0.276-1.026-0.452-1.643-0.452-1.632 0-2.768 1.136-3.187 2.581-2.934 1.059-4.059 3.971-4.136 8.206-0.088 1.268-0.276 2.835-1.004 3.596-0.96 0.982-2.085 1.974-2.085 3.077 0 0.805 0.629 1.335 1.665 1.335zM16.596 9.485c0.364 0 0.64-0.276 0.64-0.607v-1.676c0-0.353-0.276-0.629-0.64-0.629-0.331 0-0.607 0.276-0.607 0.629v1.676c0 0.331 0.276 0.607 0.607 0.607zM19.198 11.338c0.342 0 0.618-0.265 0.618-0.629v-5.36c0-0.342-0.276-0.618-0.618-0.618-0.353 0-0.618 0.276-0.618 0.618v5.36c0 0.364 0.265 0.629 0.618 0.629zM21.779 13.246c0.353 0 0.629-0.265 0.629-0.618v-9.165c0-0.364-0.276-0.64-0.629-0.64-0.342 0-0.618 0.276-0.618 0.64v9.165c0 0.364 0.265 0.618 0.618 0.618zM24.36 12.154c0.353 0 0.629-0.276 0.629-0.629v-6.993c0-0.331-0.276-0.607-0.629-0.607-0.342 0-0.607 0.276-0.607 0.607v6.993c0 0.353 0.265 0.629 0.607 0.629zM26.952 10.070c0.364 0 0.629-0.265 0.629-0.618v-2.835c0-0.353-0.265-0.618-0.629-0.618-0.342 0-0.618 0.276-0.618 0.618v2.835c0 0.342 0.276 0.618 0.618 0.618z"></path>
</svg>
