<!-- Generated by IcoMoon.io -->
<svg version="1.1" xmlns="http://www.w3.org/2000/svg" width="32" height="32" viewBox="0 0 32 32">
<title>bell-and-waveform</title>
<path d="M15.107 27.088c2.338 0 4.004-1.853 4.092-3.993h4.654c1.037 0 1.665-0.529 1.665-1.335 0-1.103-1.125-2.096-2.073-3.077-0.673-0.684-0.927-2.051-0.971-3.176 0-0.21 0-0.419-0.011-0.618-0.629 0.121-1.191 0.11-1.765-0.243 0.011 0.32 0.022 0.651 0.033 1.004 0.033 2.029 0.485 3.232 1.202 4.037 0.585 0.64 1.235 1.29 1.434 1.61v0.132h-16.522v-0.132c0.199-0.32 0.86-0.971 1.434-1.61 0.794-0.882 1.169-2.305 1.268-4.456 0.088-4.82 1.522-6.353 3.408-6.871 0.276-0.066 0.43-0.199 0.441-0.485 0.033-0.904 0.496-1.533 1.092-1.732 0.375-0.794 1.169-1.357 2.107-1.357 0.077 0 0.143 0 0.243 0.022 0-0.022 0-0.022 0-0.033-0.496-0.287-1.081-0.474-1.732-0.474-1.621 0-2.813 1.136-3.176 2.581-2.934 1.059-4.059 3.86-4.136 8.206-0.088 1.268-0.287 2.835-1.015 3.596-0.96 0.982-2.074 1.974-2.074 3.077 0 0.805 0.618 1.335 1.665 1.335h4.654c0.088 2.129 1.754 3.993 4.081 3.993zM15.107 25.533c-1.324 0-2.283-0.938-2.36-2.437h4.732c-0.088 1.5-1.037 2.437-2.371 2.437zM16.596 9.485c0.364 0 0.64-0.276 0.64-0.607v-1.676c0-0.353-0.276-0.629-0.64-0.629-0.331 0-0.607 0.276-0.607 0.629v1.676c0 0.331 0.276 0.607 0.607 0.607zM19.198 11.338c0.342 0 0.618-0.265 0.618-0.629v-5.36c0-0.342-0.276-0.618-0.618-0.618-0.353 0-0.618 0.276-0.618 0.618v5.36c0 0.364 0.265 0.629 0.618 0.629zM21.779 13.246c0.353 0 0.629-0.265 0.629-0.618v-9.165c0-0.364-0.276-0.64-0.629-0.64-0.342 0-0.618 0.276-0.618 0.64v9.165c0 0.364 0.265 0.618 0.618 0.618zM24.36 12.154c0.353 0 0.629-0.276 0.629-0.629v-6.993c0-0.331-0.276-0.607-0.629-0.607-0.342 0-0.607 0.276-0.607 0.607v6.993c0 0.353 0.265 0.629 0.607 0.629zM26.952 10.070c0.364 0 0.629-0.265 0.629-0.618v-2.835c0-0.353-0.265-0.618-0.629-0.618-0.342 0-0.618 0.276-0.618 0.618v2.835c0 0.342 0.276 0.618 0.618 0.618z"></path>
</svg>
