<!-- Generated by IcoMoon.io -->
<svg version="1.1" xmlns="http://www.w3.org/2000/svg" width="32" height="32" viewBox="0 0 32 32">
<title>bicycle-circle-fill</title>
<path d="M15.956 27.217c6.154 0 11.25-5.096 11.25-11.25 0-6.143-5.107-11.25-11.261-11.25-6.143 0-11.239 5.107-11.239 11.25 0 6.154 5.107 11.25 11.25 11.25zM7.706 17.346c0-1.776 1.434-3.187 3.199-3.187 0.651 0 1.246 0.187 1.754 0.518l0.816-0.949-0.794-1.445h-0.651c-0.254 0-0.463-0.199-0.463-0.441 0-0.276 0.21-0.474 0.463-0.474h2.14c0.265 0 0.485 0.21 0.485 0.474 0 0.243-0.232 0.441-0.485 0.441h-0.452l0.673 1.213 4.335-0.562-0.695-1.721h-1.268c-0.276 0-0.474-0.221-0.474-0.474s0.209-0.452 0.474-0.452h1.401c0.331 0 0.496 0.099 0.618 0.375l1.467 3.596c0.243-0.077 0.518-0.099 0.783-0.099 1.765 0 3.198 1.412 3.198 3.187 0 1.765-1.434 3.198-3.198 3.198s-3.199-1.434-3.199-3.198c0-1.18 0.64-2.195 1.577-2.746l-0.298-0.717-2.879 3.364c-0.254 0.276-0.485 0.386-0.949 0.386h-1.191c-0.154 1.632-1.522 2.912-3.188 2.912-1.765 0-3.199-1.434-3.199-3.198zM8.643 17.323c0 1.279 1.015 2.272 2.272 2.272 1.246 0 2.261-0.993 2.261-2.272 0-0.496-0.165-0.96-0.43-1.335l-1.092 1.213c0 0.011 0.011 0.077 0.011 0.132 0 0.441-0.331 0.772-0.75 0.772-0.441 0-0.772-0.331-0.772-0.772 0-0.419 0.342-0.783 0.849-0.75l1.048-1.213c-0.331-0.187-0.717-0.309-1.125-0.309-1.257 0-2.272 1.015-2.272 2.261zM18.768 17.323c0 1.279 1.015 2.272 2.283 2.272 1.246 0 2.261-0.993 2.261-2.272 0-1.246-1.015-2.261-2.261-2.261-0.165 0-0.309 0.022-0.452 0.055l0.596 1.467c0.342 0.077 0.607 0.375 0.607 0.75 0 0.441-0.331 0.772-0.75 0.772-0.441 0-0.772-0.331-0.772-0.772 0-0.121 0.033-0.243 0.088-0.342l-0.618-1.522c-0.585 0.408-0.982 1.081-0.982 1.853zM14.864 14.357l1.059 1.886 2.096-2.426-3.154 0.54zM13.375 15.305c0.331 0.408 0.574 0.904 0.673 1.445h1.125l-1.18-2.129-0.618 0.684z"></path>
</svg>
