<!-- Generated by IcoMoon.io -->
<svg version="1.1" xmlns="http://www.w3.org/2000/svg" width="32" height="32" viewBox="0 0 32 32">
<title>bicycle-circle</title>
<path d="M15.956 27.206c6.154 0 11.25-5.107 11.25-11.25 0-6.154-5.107-11.25-11.261-11.25-6.143 0-11.239 5.096-11.239 11.25 0 6.143 5.107 11.25 11.25 11.25zM15.956 25.331c-5.206 0-9.364-4.169-9.364-9.375s4.147-9.375 9.353-9.375c5.206 0 9.386 4.169 9.386 9.375s-4.169 9.375-9.375 9.375zM11.048 20.368c1.71 0 3.099-1.39 3.099-3.099s-1.39-3.099-3.099-3.099-3.099 1.39-3.099 3.099c0 1.71 1.39 3.099 3.099 3.099zM11.059 19.463c-1.224 0-2.206-0.982-2.206-2.217 0-1.213 0.982-2.184 2.206-2.184 1.213 0 2.195 0.971 2.195 2.184 0 1.235-0.982 2.217-2.195 2.217zM11.059 18.007c0.408 0 0.728-0.331 0.728-0.75 0-0.408-0.32-0.728-0.728-0.728-0.43 0-0.75 0.32-0.75 0.728 0 0.419 0.32 0.75 0.75 0.75zM20.864 20.368c1.721 0 3.099-1.39 3.099-3.099s-1.379-3.099-3.099-3.099c-1.71 0-3.099 1.39-3.099 3.099s1.39 3.099 3.099 3.099zM20.886 19.463c-1.235 0-2.217-0.982-2.217-2.217 0-1.213 0.982-2.184 2.217-2.184 1.213 0 2.195 0.971 2.195 2.184 0 1.235-0.982 2.217-2.195 2.217zM20.886 18.007c0.408 0 0.728-0.331 0.728-0.75 0-0.408-0.32-0.728-0.728-0.728-0.43 0-0.75 0.32-0.75 0.728 0 0.419 0.32 0.75 0.75 0.75zM12.14 12.36h2.074c0.243 0 0.463-0.198 0.463-0.43 0-0.254-0.21-0.463-0.463-0.463h-2.074c-0.254 0-0.452 0.21-0.452 0.463 0 0.232 0.198 0.43 0.452 0.43zM10.915 16.761l0.717 0.518 2.404-2.658 1.147 2.073h-1.335v0.849h1.445c0.452 0 0.673-0.11 0.915-0.375l2.79-3.265 1.324 3.276 0.805-0.364-2.448-6.022c-0.121-0.276-0.276-0.375-0.596-0.375h-1.357c-0.254 0-0.463 0.198-0.463 0.452 0 0.232 0.199 0.441 0.463 0.441h1.224l0.684 1.677-4.213 0.54-0.816-1.478-0.893 0.221 0.827 1.489-2.625 3zM14.886 14.368l3.066-0.518-2.040 2.349-1.026-1.831z"></path>
</svg>
