<!-- Generated by IcoMoon.io -->
<svg version="1.1" xmlns="http://www.w3.org/2000/svg" width="32" height="32" viewBox="0 0 32 32">
<title>binoculars-fill</title>
<path d="M1.882 21.173c0 3.077 2.757 5.382 6.132 5.382 3.364 0 6.11-2.305 6.11-5.382v-2.824c0.54-0.21 1.191-0.331 1.842-0.331 0.717 0 1.335 0.077 1.831 0.254v2.901c0 3.077 2.746 5.382 6.11 5.382s6.132-2.305 6.132-5.382c0-0.805-0.121-1.555-0.574-2.603l-4.577-10.677c-0.629-1.434-1.941-2.272-3.596-2.272-2.118 0-3.496 1.346-3.496 3.364v1.070c-0.552-0.143-1.158-0.221-1.831-0.221-0.64 0-1.257 0.099-1.842 0.287v-1.136c0-2.018-1.379-3.364-3.496-3.364-1.654 0-2.978 0.838-3.596 2.272l-4.588 10.677c-0.452 1.048-0.563 1.798-0.563 2.603zM3.614 21.173c0-2.217 1.908-3.728 4.401-3.728 2.482 0 4.456 1.511 4.456 3.728s-1.974 3.728-4.456 3.728c-2.493 0-4.401-1.511-4.401-3.728zM19.452 21.173c0-2.217 1.963-3.728 4.456-3.728 2.482 0 4.39 1.511 4.39 3.728s-1.908 3.728-4.39 3.728c-2.493 0-4.456-1.511-4.456-3.728zM14.125 14.985v-1.5c0.585-0.187 1.202-0.276 1.842-0.276 0.673 0 1.279 0.066 1.831 0.21v1.478c-0.496-0.165-1.103-0.243-1.831-0.243-0.651 0-1.301 0.121-1.842 0.331z"></path>
</svg>
