<!-- Generated by IcoMoon.io -->
<svg version="1.1" xmlns="http://www.w3.org/2000/svg" width="32" height="32" viewBox="0 0 32 32">
<title>binoculars</title>
<path d="M1.882 21.173c0 3.077 2.757 5.382 6.132 5.382 3.364 0 6.11-2.305 6.11-5.382v-12.188c0-2.018-1.379-3.364-3.496-3.364-1.654 0-2.978 0.838-3.596 2.272l-4.588 10.677c-0.452 1.048-0.563 1.798-0.563 2.603zM5.169 16.452l3.364-7.82c0.375-0.882 1.125-1.401 2.029-1.401 1.169 0 1.919 0.772 1.919 1.93v8.382c-1.103-1.092-2.735-1.754-4.467-1.754-0.982 0-1.985 0.243-2.846 0.662zM3.614 21.173c0-2.217 1.908-3.728 4.401-3.728 2.482 0 4.456 1.511 4.456 3.728s-1.974 3.728-4.456 3.728c-2.493 0-4.401-1.511-4.401-3.728zM30.040 21.173c0-0.805-0.121-1.555-0.574-2.603l-4.577-10.677c-0.629-1.434-1.941-2.272-3.596-2.272-2.118 0-3.496 1.346-3.496 3.364v12.188c0 3.077 2.746 5.382 6.11 5.382s6.132-2.305 6.132-5.382zM26.754 16.452c-0.86-0.419-1.864-0.662-2.846-0.662-1.732 0-3.375 0.662-4.478 1.754v-8.382c0-1.158 0.761-1.93 1.93-1.93 0.893 0 1.643 0.518 2.018 1.401l3.375 7.82zM28.298 21.173c0 2.217-1.908 3.728-4.39 3.728-2.493 0-4.456-1.511-4.456-3.728s1.963-3.728 4.456-3.728c2.482 0 4.39 1.511 4.39 3.728zM13.386 18.691c0.64-0.408 1.588-0.673 2.581-0.673 1.224 0 2.018 0.188 2.647 0.651v-1.643c-0.728-0.309-1.599-0.452-2.647-0.452-0.915 0-1.809 0.187-2.581 0.507v1.61zM13.386 15.327c0.64-0.419 1.588-0.673 2.581-0.673 1.224 0 2.018 0.176 2.647 0.651v-1.643c-0.728-0.309-1.599-0.452-2.647-0.452-0.915 0-1.809 0.187-2.581 0.507v1.61zM13.386 11.952c0.64-0.408 1.588-0.673 2.581-0.673 1.224 0 2.018 0.187 2.647 0.651v-1.632c-0.728-0.309-1.599-0.463-2.647-0.463-0.915 0-1.809 0.199-2.581 0.518v1.599z"></path>
</svg>
