<!-- Generated by IcoMoon.io -->
<svg version="1.1" xmlns="http://www.w3.org/2000/svg" width="32" height="32" viewBox="0 0 32 32">
<title>bird-fill</title>
<path d="M21.163 8.193c-1.654 0-2.89 0.915-3.761 3.099-3.187-3.254-8.272-6.154-13.346-6.54-1.026-0.066-1.191 0.695-1.213 1.335-0.353 5.614 4.070 10.456 9.915 10.875-1.599 3.794-4.136 6.739-6.64 9.077-0.397 0.364-0.298 0.86-0.033 1.257 1.279 1.963 5.283 3.143 7.996 2.206 0.596-0.221 0.706-0.507 0.706-1.004v-4.191c2.967-0.132 7.765-2.051 6.982-8.162l-0.121-0.871c2.283-0.54 3.805-1.974 3.805-3.441 0-1.754-1.93-3.64-4.29-3.64zM22.321 12.021c-0.375 0-0.684-0.298-0.684-0.673 0-0.364 0.309-0.684 0.684-0.684 0.364 0 0.673 0.32 0.673 0.684 0 0.375-0.309 0.673-0.673 0.673zM23.942 13.454l4.026 0.574c0.75 0.11 1.103-1.004 0.342-1.324l-3.64-1.544-0.728 2.294zM19.74 6.881c-1.423-2.537-3.232-4.39-5.559-5.724-0.849-0.485-1.71-0.121-1.941 0.794-0.32 1.136-0.518 2.283-0.585 3.419 1.985 0.971 3.805 2.184 5.349 3.507 0.761-1.048 1.688-1.699 2.735-1.996z"></path>
</svg>
