<!-- Generated by IcoMoon.io -->
<svg version="1.1" xmlns="http://www.w3.org/2000/svg" width="32" height="32" viewBox="0 0 32 32">
<title>bird</title>
<path d="M21.274 8.017c-1.643 0-2.912 0.904-3.805 3.011-3.198-3.21-8.25-6.066-13.29-6.452-1.125-0.077-1.313 0.794-1.335 1.445-0.353 5.526 3.937 10.335 9.452 10.963-1.456 3.243-3.419 6.331-6.143 8.912-0.441 0.408-0.32 0.982-0.044 1.39 1.301 2.007 5.371 3.198 8.118 2.25 0.662-0.232 0.772-0.596 0.772-1.103v-4.092c3.011-0.165 7.776-2.151 6.993-8.272l-0.11-0.772c2.261-0.574 3.794-2.040 3.794-3.518 0-1.809-1.996-3.761-4.401-3.761zM21.373 9.605c1.577 0 2.713 1.147 2.713 2.173 0 0.838-1.114 1.809-3.254 2.107-0.331 0.033-0.574 0.276-0.541 0.585l0.143 1.643c0.474 5.669-3.915 6.474-6.474 6.596-0.32 0.011-0.563 0.232-0.563 0.563v4.831c0 0.11-0.044 0.198-0.165 0.209-2.14 0.386-4.467-0.386-5.57-1.522-0.077-0.077-0.11-0.199-0.022-0.276 2.978-2.857 5.007-6.32 6.529-9.96 0.21-0.507 0.011-0.915-0.507-0.938-5.25-0.132-9.188-3.993-9.232-9.21 0-0.165 0.033-0.21 0.21-0.188 4.654 0.574 9.055 3.21 11.581 5.824 0.452 0.452 0.772 0.684 1.213 0.684 0.717 0 1.059-0.353 1.423-1.092 0.64-1.324 1.202-2.029 2.515-2.029zM19.311 9.318l1.489-0.518c-1.533-3.551-3.64-6-6.507-7.643-0.849-0.485-1.71-0.121-1.941 0.794-0.551 2.007-0.772 3.938-0.507 5.945l1.732 0.816c-0.397-2.007-0.32-3.761 0.143-5.636 0.033-0.199 0.232-0.265 0.397-0.165 2.228 1.456 3.893 3.463 5.195 6.408zM22.101 12.065c0.364 0 0.673-0.298 0.673-0.673 0-0.364-0.309-0.684-0.673-0.684-0.386 0-0.684 0.32-0.684 0.684 0 0.375 0.298 0.673 0.684 0.673zM23.943 13.499l4.026 0.573c0.75 0.11 1.103-1.004 0.342-1.323l-3.64-1.544-0.728 2.294z"></path>
</svg>
