<!-- Generated by IcoMoon.io -->
<svg version="1.1" xmlns="http://www.w3.org/2000/svg" width="32" height="32" viewBox="0 0 32 32">
<title>birthday-cake-fill</title>
<path d="M16.471 8.022c0.805 0 1.445-0.717 1.445-1.643 0-0.949-0.298-1.566-0.827-2.184-0.353-0.441-0.827-0.452-1.191-0.066-0.529 0.64-0.871 1.268-0.871 2.25 0 0.926 0.651 1.643 1.445 1.643zM15.842 13.107h1.224v-6.265h-1.224v6.265zM9.268 16.515h14.404v-0.772c0-2.184-1.125-3.298-3.342-3.298h-7.721c-2.206 0-3.342 1.114-3.342 3.298v0.772zM5.507 28.063h21.915v-6.75c0-2.184-1.125-3.298-3.331-3.298h-15.243c-2.206 0-3.342 1.114-3.342 3.298v6.75zM16.46 23.408c-1.092 0-1.864 1.279-3.441 1.279-1.522 0-2.25-1.279-3.265-1.279-1.037 0-1.765 1.279-3.827 1.279h-0.419v-1.456h0.419c1.566 0 2.327-1.279 3.827-1.279 1.467 0 2.063 1.279 3.265 1.279 1.412 0 1.941-1.279 3.441-1.279s2.029 1.279 3.452 1.279c1.202 0 1.787-1.279 3.265-1.279s2.25 1.279 3.805 1.279h0.441v1.456h-0.441c-2.051 0-2.791-1.279-3.805-1.279-1.037 0-1.754 1.279-3.265 1.279-1.588 0-2.371-1.279-3.452-1.279zM4.647 28.835h23.636c0.485 0 0.882-0.408 0.882-0.893s-0.397-0.882-0.882-0.882h-23.636c-0.485 0-0.882 0.397-0.882 0.882s0.397 0.893 0.882 0.893z"></path>
</svg>
