<!-- Generated by IcoMoon.io -->
<svg version="1.1" xmlns="http://www.w3.org/2000/svg" width="32" height="32" viewBox="0 0 32 32">
<title>birthday-cake</title>
<path d="M16.471 8.022c0.805 0 1.445-0.717 1.445-1.643 0-0.949-0.298-1.566-0.827-2.184-0.353-0.441-0.827-0.452-1.191-0.066-0.529 0.64-0.871 1.268-0.871 2.25 0 0.926 0.651 1.643 1.445 1.643zM15.842 13.107h1.224v-6.265h-1.224v6.265zM9.268 18.5h1.776v-2.669c0-1.048 0.585-1.61 1.588-1.61h7.665c1.004 0 1.599 0.562 1.599 1.61v2.669h1.776v-2.757c0-2.184-1.125-3.298-3.342-3.298h-7.721c-2.206 0-3.342 1.114-3.342 3.298v2.757zM5.507 28.063h1.776v-6.651c0-1.048 0.585-1.621 1.588-1.621h15.188c1.004 0 1.588 0.574 1.588 1.621v6.651h1.776v-6.75c0-2.184-1.125-3.298-3.331-3.298h-15.243c-2.206 0-3.342 1.114-3.342 3.298v6.75zM16.46 23.563c0.96 0 1.721 1.235 3.342 1.235 1.566 0 2.261-1.235 3.165-1.235s1.61 1.235 3.32 1.235h0.298v-1.721h-0.298c-1.048 0-1.798-1.235-3.32-1.235-1.533 0-2.107 1.235-3.165 1.235-1.268 0-1.787-1.235-3.342-1.235-1.566 0-2.073 1.235-3.342 1.235-1.059 0-1.632-1.235-3.165-1.235s-2.272 1.235-3.32 1.235h-0.364v1.721h0.364c1.71 0 2.415-1.235 3.32-1.235 0.893 0 1.599 1.235 3.165 1.235 1.621 0 2.371-1.235 3.342-1.235zM4.647 28.835h23.636c0.485 0 0.882-0.408 0.882-0.893s-0.397-0.882-0.882-0.882h-23.636c-0.485 0-0.882 0.397-0.882 0.882s0.397 0.893 0.882 0.893z"></path>
</svg>
