<!-- Generated by IcoMoon.io -->
<svg version="1.1" xmlns="http://www.w3.org/2000/svg" width="32" height="32" viewBox="0 0 32 32">
<title>bitcoinsign-circle</title>
<path d="M15.956 27.206c6.154 0 11.25-5.107 11.25-11.25 0-6.154-5.107-11.25-11.261-11.25-6.143 0-11.239 5.096-11.239 11.25 0 6.143 5.107 11.25 11.25 11.25zM15.956 25.331c-5.206 0-9.364-4.169-9.364-9.375s4.147-9.375 9.353-9.375c5.206 0 9.386 4.169 9.386 9.375s-4.169 9.375-9.375 9.375zM12.835 20.39c0 0.507 0.353 0.86 0.871 0.86h0.463v0.871c0 0.32 0.221 0.54 0.529 0.54s0.529-0.221 0.529-0.54v-0.871h0.717v0.871c0 0.32 0.232 0.54 0.529 0.54 0.309 0 0.54-0.221 0.54-0.54v-0.904c1.831-0.199 2.901-1.257 2.901-2.879 0-1.246-0.739-2.173-1.875-2.515 0.816-0.397 1.379-1.268 1.379-2.206 0-1.368-0.938-2.36-2.404-2.581v-0.893c0-0.32-0.232-0.54-0.54-0.54-0.298 0-0.529 0.221-0.529 0.54v0.849h-0.717v-0.849c0-0.32-0.221-0.54-0.529-0.54s-0.529 0.221-0.529 0.54v0.849h-0.463c-0.507 0-0.871 0.353-0.871 0.871v8.526zM14.246 19.96v-3.353h1.864c1.577 0 2.393 0.563 2.393 1.677 0 1.092-0.783 1.654-2.272 1.665l-1.985 0.011zM14.246 15.316v-3.044h1.886c1.191 0 1.875 0.518 1.875 1.456 0 1.037-0.772 1.61-2.184 1.599l-1.577-0.011z"></path>
</svg>
