<!-- Generated by IcoMoon.io -->
<svg version="1.1" xmlns="http://www.w3.org/2000/svg" width="32" height="32" viewBox="0 0 32 32">
<title>bitcoinsign</title>
<path d="M10.779 26.287h5.305c4.125 0 6.607-2.018 6.607-5.393 0-2.658-1.82-4.5-4.511-4.831v-0.088c2.007-0.364 3.507-2.239 3.507-4.346 0-2.901-2.261-4.831-5.625-4.831h-5.283c-0.827 0-1.368 0.54-1.368 1.368v16.754c0 0.827 0.54 1.368 1.368 1.368zM11.518 15.312v-6.662h4.059c2.504 0 4.004 1.147 4.004 3.199 0 2.239-1.688 3.463-4.61 3.463h-3.452zM11.518 24.434v-7.257h3.982c3.265 0 5.051 1.246 5.051 3.629 0 2.371-1.732 3.629-4.798 3.629h-4.235zM13.482 8.055v-3.221c0-0.397-0.32-0.728-0.717-0.728-0.408 0-0.728 0.331-0.728 0.728v3.221h1.445zM16.956 8.055v-3.221c0-0.397-0.32-0.728-0.728-0.728-0.397 0-0.717 0.331-0.717 0.728v3.221h1.445zM13.482 25.040h-1.445v3.298c0 0.397 0.32 0.717 0.728 0.717 0.397 0 0.717-0.32 0.717-0.717v-3.298zM16.956 25.040h-1.445v3.298c0 0.397 0.32 0.717 0.717 0.717 0.408 0 0.728-0.32 0.728-0.717v-3.298z"></path>
</svg>
