<!-- Generated by IcoMoon.io -->
<svg version="1.1" xmlns="http://www.w3.org/2000/svg" width="32" height="32" viewBox="0 0 32 32">
<title>bitcoinsign-square-fill</title>
<path d="M9.11 25.974h13.379c2.316 0 3.463-1.147 3.463-3.419v-13.467c0-2.272-1.147-3.419-3.463-3.419h-13.379c-2.305 0-3.463 1.136-3.463 3.419v13.467c0 2.283 1.158 3.419 3.463 3.419zM12.695 20.239v-8.526c0-0.518 0.364-0.871 0.871-0.871h0.463v-0.849c0-0.32 0.232-0.54 0.53-0.54 0.309 0 0.54 0.221 0.54 0.54v0.849h0.706v-0.849c0-0.32 0.232-0.54 0.54-0.54 0.298 0 0.529 0.221 0.529 0.54v0.893c1.478 0.221 2.415 1.213 2.415 2.581 0 0.938-0.574 1.809-1.39 2.206 1.147 0.342 1.875 1.268 1.875 2.515 0 1.621-1.070 2.68-2.901 2.879v0.904c0 0.32-0.232 0.54-0.529 0.54-0.309 0-0.54-0.221-0.54-0.54v-0.871h-0.706v0.871c0 0.32-0.232 0.54-0.54 0.54-0.298 0-0.53-0.221-0.53-0.54v-0.871h-0.463c-0.518 0-0.871-0.353-0.871-0.86zM14.118 19.809l1.985-0.011c1.478-0.011 2.261-0.574 2.261-1.666 0-1.114-0.816-1.676-2.393-1.676h-1.853v3.353zM14.118 15.165l1.566 0.011c1.412 0.011 2.184-0.563 2.184-1.599 0-0.938-0.684-1.456-1.864-1.456h-1.886v3.044z"></path>
</svg>
