<!-- Generated by IcoMoon.io -->
<svg version="1.1" xmlns="http://www.w3.org/2000/svg" width="32" height="32" viewBox="0 0 32 32">
<title>bitcoinsign-circle-fill</title>
<path d="M15.956 27.206c6.154 0 11.25-5.107 11.25-11.25 0-6.154-5.107-11.25-11.261-11.25-6.143 0-11.239 5.096-11.239 11.25 0 6.143 5.107 11.25 11.25 11.25zM12.846 20.39v-8.526c0-0.518 0.364-0.871 0.871-0.871h0.463v-0.849c0-0.32 0.221-0.54 0.529-0.54s0.529 0.221 0.529 0.54v0.849h0.717v-0.849c0-0.32 0.232-0.54 0.529-0.54 0.309 0 0.54 0.221 0.54 0.54v0.893c1.467 0.221 2.404 1.213 2.404 2.581 0 0.937-0.562 1.809-1.379 2.206 1.136 0.342 1.875 1.268 1.875 2.515 0 1.621-1.070 2.68-2.901 2.879v0.904c0 0.32-0.232 0.54-0.54 0.54-0.298 0-0.529-0.221-0.529-0.54v-0.871h-0.717v0.871c0 0.32-0.221 0.54-0.529 0.54s-0.529-0.221-0.529-0.54v-0.871h-0.463c-0.518 0-0.871-0.353-0.871-0.86zM14.257 19.96l1.985-0.011c1.489-0.011 2.272-0.574 2.272-1.665 0-1.114-0.816-1.677-2.393-1.677h-1.864v3.353zM14.257 15.316l1.577 0.011c1.412 0.011 2.184-0.563 2.184-1.599 0-0.938-0.684-1.456-1.875-1.456h-1.886v3.044z"></path>
</svg>
