<!-- Generated by IcoMoon.io -->
<svg version="1.1" xmlns="http://www.w3.org/2000/svg" width="32" height="32" viewBox="0 0 32 32">
<title>bitcoinsign-square</title>
<path d="M9.11 25.974h13.379c2.316 0 3.463-1.147 3.463-3.419v-13.467c0-2.272-1.147-3.419-3.463-3.419h-13.379c-2.305 0-3.463 1.136-3.463 3.419v13.467c0 2.283 1.158 3.419 3.463 3.419zM9.132 24.198c-1.103 0-1.71-0.585-1.71-1.732v-13.29c0-1.147 0.607-1.732 1.71-1.732h13.335c1.092 0 1.71 0.585 1.71 1.732v13.29c0 1.147-0.618 1.732-1.71 1.732h-13.335zM12.695 20.239c0 0.507 0.353 0.86 0.871 0.86h0.463v0.871c0 0.32 0.232 0.54 0.53 0.54 0.309 0 0.54-0.221 0.54-0.54v-0.871h0.706v0.871c0 0.32 0.232 0.54 0.54 0.54 0.298 0 0.529-0.221 0.529-0.54v-0.904c1.831-0.198 2.901-1.257 2.901-2.879 0-1.246-0.728-2.173-1.875-2.515 0.816-0.397 1.39-1.268 1.39-2.206 0-1.368-0.938-2.36-2.415-2.581v-0.893c0-0.32-0.232-0.54-0.529-0.54-0.309 0-0.54 0.221-0.54 0.54v0.849h-0.706v-0.849c0-0.32-0.232-0.54-0.54-0.54-0.298 0-0.53 0.221-0.53 0.54v0.849h-0.463c-0.507 0-0.871 0.353-0.871 0.871v8.526zM14.118 19.809v-3.353h1.853c1.577 0 2.393 0.562 2.393 1.676 0 1.092-0.783 1.654-2.261 1.666l-1.985 0.011zM14.118 15.165v-3.044h1.886c1.18 0 1.864 0.518 1.864 1.456 0 1.037-0.772 1.61-2.184 1.599l-1.566-0.011z"></path>
</svg>
