<!-- Generated by IcoMoon.io -->
<svg version="1.1" xmlns="http://www.w3.org/2000/svg" width="32" height="32" viewBox="0 0 32 32">
<title>blinds-vertical-closed</title>
<path d="M4.706 5.588c0 0.485 0.408 0.893 0.893 0.893h21.629c0.485 0 0.893-0.408 0.893-0.893s-0.408-0.882-0.893-0.882h-21.629c-0.485 0-0.893 0.397-0.893 0.882zM9.063 27.228h2.393c0.474 0 0.783-0.309 0.783-0.794v-18.165c0-0.485-0.309-0.794-0.783-0.794h-2.393c-0.463 0-0.772 0.309-0.772 0.794v18.165c0 0.485 0.309 0.794 0.772 0.794zM14.059 27.228h2.404c0.452 0 0.761-0.309 0.761-0.794v-18.165c0-0.485-0.309-0.794-0.761-0.794h-2.404c-0.474 0-0.783 0.309-0.783 0.794v18.165c0 0.485 0.309 0.794 0.783 0.794zM19.044 27.228h2.404c0.474 0 0.783-0.309 0.783-0.794v-18.165c0-0.485-0.309-0.794-0.783-0.794h-2.404c-0.452 0-0.761 0.309-0.761 0.794v18.165c0 0.485 0.309 0.794 0.761 0.794zM24.051 27.228h2.393c0.463 0 0.772-0.309 0.772-0.794v-18.165c0-0.485-0.309-0.794-0.772-0.794h-2.393c-0.463 0-0.783 0.309-0.783 0.794v18.165c0 0.485 0.32 0.794 0.783 0.794zM5.599 9.040c0.408 0 0.75-0.342 0.75-0.75 0-0.419-0.342-0.75-0.75-0.75-0.419 0-0.761 0.331-0.761 0.75 0 0.408 0.342 0.75 0.761 0.75zM5.599 11.599c0.408 0 0.75-0.353 0.75-0.761s-0.342-0.75-0.75-0.75c-0.419 0-0.761 0.342-0.761 0.75s0.342 0.761 0.761 0.761zM5.599 14.147c0.408 0 0.75-0.342 0.75-0.75 0-0.419-0.342-0.75-0.75-0.75-0.419 0-0.761 0.331-0.761 0.75 0 0.408 0.342 0.75 0.761 0.75zM5.599 16.706c0.408 0 0.75-0.353 0.75-0.761s-0.342-0.75-0.75-0.75c-0.419 0-0.761 0.342-0.761 0.75s0.342 0.761 0.761 0.761zM5.599 19.254c0.408 0 0.75-0.342 0.75-0.75 0-0.419-0.342-0.75-0.75-0.75-0.419 0-0.761 0.331-0.761 0.75 0 0.408 0.342 0.75 0.761 0.75zM5.599 21.813c0.408 0 0.75-0.353 0.75-0.761s-0.342-0.75-0.75-0.75c-0.419 0-0.761 0.342-0.761 0.75s0.342 0.761 0.761 0.761zM5.599 27.228c0.474 0 0.882-0.397 0.882-0.882v-2.603c0-0.485-0.397-0.882-0.882-0.882s-0.893 0.397-0.893 0.882v2.603c0 0.485 0.408 0.882 0.893 0.882z"></path>
</svg>
