<!-- Generated by IcoMoon.io -->
<svg version="1.1" xmlns="http://www.w3.org/2000/svg" width="32" height="32" viewBox="0 0 32 32">
<title>blinds-horizontal-closed</title>
<path d="M4.706 5.588c0 0.485 0.408 0.893 0.893 0.893h21.629c0.485 0 0.893-0.408 0.893-0.893s-0.408-0.882-0.893-0.882h-21.629c-0.485 0-0.893 0.397-0.893 0.882zM5.599 9.040c0.408 0 0.75-0.342 0.75-0.75 0-0.419-0.342-0.75-0.75-0.75-0.419 0-0.761 0.331-0.761 0.75 0 0.408 0.342 0.75 0.761 0.75zM5.599 11.599c0.408 0 0.75-0.353 0.75-0.761s-0.342-0.75-0.75-0.75c-0.419 0-0.761 0.342-0.761 0.75s0.342 0.761 0.761 0.761zM5.599 14.147c0.408 0 0.75-0.342 0.75-0.75 0-0.419-0.342-0.75-0.75-0.75-0.419 0-0.761 0.331-0.761 0.75 0 0.408 0.342 0.75 0.761 0.75zM5.599 16.706c0.408 0 0.75-0.353 0.75-0.761s-0.342-0.75-0.75-0.75c-0.419 0-0.761 0.342-0.761 0.75s0.342 0.761 0.761 0.761zM5.599 19.254c0.408 0 0.75-0.342 0.75-0.75 0-0.419-0.342-0.75-0.75-0.75-0.419 0-0.761 0.331-0.761 0.75 0 0.408 0.342 0.75 0.761 0.75zM5.599 21.813c0.408 0 0.75-0.353 0.75-0.761s-0.342-0.75-0.75-0.75c-0.419 0-0.761 0.342-0.761 0.75s0.342 0.761 0.761 0.761zM5.599 27.228c0.474 0 0.882-0.397 0.882-0.882v-2.603c0-0.485-0.397-0.882-0.882-0.882s-0.893 0.397-0.893 0.882v2.603c0 0.485 0.408 0.882 0.893 0.882zM7.684 8.445v2.548c0 0.463 0.331 0.772 0.805 0.772h17.945c0.496 0 0.794-0.32 0.794-0.783v-2.548c0-0.463-0.309-0.783-0.794-0.783h-17.945c-0.485 0-0.805 0.331-0.805 0.794zM7.684 13.585v2.57c0 0.452 0.32 0.761 0.805 0.761h17.956c0.474 0 0.783-0.32 0.783-0.761v-2.581c0-0.452-0.309-0.761-0.783-0.761h-17.945c-0.485 0-0.816 0.309-0.816 0.772zM7.684 18.735v2.559c0 0.463 0.32 0.783 0.805 0.783h17.945c0.496 0 0.794-0.32 0.794-0.783v-2.57c0-0.441-0.298-0.75-0.794-0.75h-17.945c-0.474 0-0.805 0.309-0.805 0.761zM7.684 23.886v2.559c0 0.463 0.309 0.772 0.794 0.772h17.945c0.485 0 0.805-0.309 0.805-0.772v-2.559c0-0.474-0.309-0.772-0.794-0.772h-17.945c-0.496 0-0.805 0.309-0.805 0.772z"></path>
</svg>
