<!-- Generated by IcoMoon.io -->
<svg version="1.1" xmlns="http://www.w3.org/2000/svg" width="32" height="32" viewBox="0 0 32 32">
<title>bold-italic-underline</title>
<path d="M2.212 21.956h4.205c2.47 0 4.027-1.299 4.027-3.293 0-1.574-1.138-2.712-2.776-2.801v-0.065c1.34-0.186 2.252-1.194 2.252-2.478 0-1.8-1.38-2.905-3.616-2.905h-4.092c-0.864 0-1.364 0.508-1.364 1.396v8.757c0 0.88 0.5 1.388 1.364 1.388zM3.512 20.092v-3.204h2.026c1.412 0 2.203 0.549 2.203 1.582 0 1.057-0.759 1.622-2.147 1.622h-2.082zM3.512 15.209v-2.897h1.985c1.13 0 1.8 0.517 1.8 1.404 0 0.936-0.742 1.493-2.002 1.493h-1.784zM12.285 21.956h5.101c0.379 0 0.646-0.234 0.646-0.613 0-0.363-0.258-0.597-0.638-0.597h-1.816l1.961-9.12h1.808c0.379 0 0.646-0.234 0.646-0.613 0-0.363-0.258-0.597-0.638-0.597h-5.117c-0.379 0-0.638 0.234-0.638 0.597 0 0.379 0.266 0.613 0.646 0.613h1.8l-1.961 9.12h-1.808c-0.379 0-0.646 0.234-0.646 0.597 0 0.379 0.274 0.613 0.654 0.613zM27.070 22.166c2.914 0 4.705-1.743 4.705-4.277v-6.917c0-0.452-0.299-0.743-0.751-0.743-0.46 0-0.742 0.291-0.742 0.743v6.796c0 1.8-1.186 3.018-3.212 3.018-2.010 0-3.204-1.219-3.204-3.018v-6.796c0-0.452-0.299-0.743-0.751-0.743s-0.742 0.291-0.742 0.743v6.917c0 2.534 1.8 4.277 4.697 4.277zM22.849 24.644h8.442c0.266 0 0.484-0.202 0.484-0.476s-0.218-0.484-0.484-0.484h-8.442c-0.25 0-0.476 0.21-0.476 0.484s0.226 0.476 0.476 0.476z"></path>
</svg>
