<!-- Generated by IcoMoon.io -->
<svg version="1.1" xmlns="http://www.w3.org/2000/svg" width="32" height="32" viewBox="0 0 32 32">
<title>bold</title>
<path d="M11.276 24.243h5.746c3.375 0 5.504-1.776 5.504-4.5 0-2.151-1.555-3.706-3.794-3.827v-0.088c1.831-0.254 3.077-1.632 3.077-3.386 0-2.46-1.886-3.971-4.941-3.971h-5.592c-1.18 0-1.864 0.695-1.864 1.908v11.967c0 1.202 0.684 1.897 1.864 1.897zM13.051 21.695v-4.379h2.768c1.93 0 3.011 0.75 3.011 2.162 0 1.445-1.037 2.217-2.934 2.217h-2.846zM13.051 15.022v-3.96h2.713c1.544 0 2.46 0.706 2.46 1.919 0 1.279-1.015 2.040-2.735 2.040h-2.437z"></path>
</svg>
