<!-- Generated by IcoMoon.io -->
<svg version="1.1" xmlns="http://www.w3.org/2000/svg" width="32" height="32" viewBox="0 0 32 32">
<title>bolt-circle</title>
<path d="M15.956 27.206c6.154 0 11.25-5.107 11.25-11.25 0-6.154-5.107-11.25-11.261-11.25-6.143 0-11.239 5.096-11.239 11.25 0 6.143 5.107 11.25 11.25 11.25zM15.956 25.331c-5.206 0-9.364-4.169-9.364-9.375s4.147-9.375 9.353-9.375c5.206 0 9.386 4.169 9.386 9.375s-4.169 9.375-9.375 9.375zM11.114 16.717c0 0.276 0.221 0.474 0.507 0.474h3.739l-1.996 5.36c-0.265 0.706 0.485 1.092 0.949 0.518l6.044-7.588c0.121-0.132 0.187-0.287 0.187-0.43 0-0.276-0.221-0.474-0.507-0.474h-3.739l1.996-5.36c0.265-0.706-0.485-1.092-0.949-0.529l-6.044 7.588c-0.121 0.143-0.187 0.298-0.187 0.441z"></path>
</svg>
