<!-- Generated by IcoMoon.io -->
<svg version="1.1" xmlns="http://www.w3.org/2000/svg" width="32" height="32" viewBox="0 0 32 32">
<title>bolt-slash-circle-fill</title>
<path d="M15.956 27.217c6.154 0 11.25-5.096 11.25-11.25 0-6.143-5.107-11.25-11.261-11.25-6.143 0-11.239 5.107-11.239 11.25 0 6.154 5.107 11.25 11.25 11.25zM18.36 9.018l-2.007 5.371-2.040-2.051 3.066-3.86c0.463-0.585 1.246-0.188 0.982 0.54zM16.54 14.577h3.596c0.287 0 0.518 0.21 0.518 0.496 0 0.143-0.066 0.298-0.176 0.441l-1.335 1.665-2.603-2.603zM15.14 17.103h-3.551c-0.287 0-0.529-0.199-0.529-0.496 0-0.132 0.088-0.287 0.198-0.441l1.302-1.643 2.581 2.581zM17.401 19.375l-3.143 3.938c-0.474 0.585-1.246 0.188-0.971-0.54l2.029-5.504 2.085 2.107zM21.316 22.055l-11.459-11.449c-0.188-0.21-0.199-0.54 0-0.728 0.21-0.221 0.54-0.221 0.75 0l11.449 11.449c0.198 0.198 0.198 0.518 0 0.728-0.198 0.198-0.54 0.187-0.739 0z"></path>
</svg>
