<!-- Generated by IcoMoon.io -->
<svg version="1.1" xmlns="http://www.w3.org/2000/svg" width="32" height="32" viewBox="0 0 32 32">
<title>bolt-square</title>
<path d="M9.11 25.974h13.379c2.316 0 3.463-1.147 3.463-3.419v-13.467c0-2.272-1.147-3.419-3.463-3.419h-13.379c-2.305 0-3.463 1.136-3.463 3.419v13.467c0 2.283 1.158 3.419 3.463 3.419zM9.132 24.198c-1.103 0-1.71-0.585-1.71-1.732v-13.29c0-1.147 0.607-1.732 1.71-1.732h13.335c1.092 0 1.71 0.585 1.71 1.732v13.29c0 1.147-0.618 1.732-1.71 1.732h-13.335zM10.974 16.566c0 0.276 0.232 0.474 0.507 0.474h3.739l-1.996 5.36c-0.265 0.706 0.485 1.092 0.949 0.518l6.055-7.588c0.11-0.132 0.176-0.287 0.176-0.43 0-0.276-0.221-0.474-0.507-0.474h-3.728l1.985-5.36c0.276-0.706-0.485-1.092-0.949-0.529l-6.044 7.588c-0.121 0.143-0.187 0.298-0.187 0.441z"></path>
</svg>
