<!-- Generated by IcoMoon.io -->
<svg version="1.1" xmlns="http://www.w3.org/2000/svg" width="32" height="32" viewBox="0 0 32 32">
<title>bolt-ring-closed</title>
<path d="M4.706 15.967c0 6.21 5.051 11.261 11.261 11.261s11.272-5.051 11.272-11.261c0-5.636-4.169-10.323-9.585-11.129 0.221 0.32 0.364 0.717 0.364 1.147 0 0.551-0.221 1.037-0.573 1.401 4.092 0.717 7.224 4.29 7.224 8.581 0 4.798-3.893 8.702-8.702 8.702-4.798 0-8.702-3.904-8.702-8.702s3.904-8.702 8.702-8.702c0.706 0 1.279-0.574 1.279-1.279s-0.574-1.279-1.279-1.279c-6.21 0-11.261 5.051-11.261 11.261zM11.434 16.662c0 0.265 0.21 0.463 0.474 0.463h3.474l-1.853 4.974c-0.243 0.662 0.463 1.037 0.893 0.496l5.636-7.070c0.099-0.132 0.165-0.276 0.165-0.397 0-0.265-0.21-0.463-0.474-0.463h-3.474l1.853-4.985c0.243-0.662-0.463-1.026-0.893-0.496l-5.636 7.081c-0.099 0.132-0.165 0.276-0.165 0.397z"></path>
</svg>
