<!-- Generated by IcoMoon.io -->
<svg version="1.1" xmlns="http://www.w3.org/2000/svg" width="32" height="32" viewBox="0 0 32 32">
<title>bolt-slash-circle</title>
<path d="M15.956 27.206c6.154 0 11.25-5.096 11.25-11.25 0-6.143-5.107-11.25-11.261-11.25-6.143 0-11.239 5.107-11.239 11.25 0 6.154 5.107 11.25 11.25 11.25zM15.956 25.331c-5.206 0-9.364-4.169-9.364-9.375 0-5.195 4.147-9.375 9.353-9.375s9.386 4.18 9.386 9.375c0 5.206-4.169 9.375-9.375 9.375zM18.272 9.217c0.265-0.706-0.496-1.092-0.949-0.518l-2.978 3.75 1.985 1.985 1.941-5.217zM16.507 14.61l2.526 2.526 1.29-1.61c0.11-0.154 0.176-0.298 0.176-0.441 0-0.276-0.221-0.474-0.507-0.474h-3.485zM15.162 17.059l-2.504-2.504-1.268 1.588c-0.11 0.154-0.188 0.298-0.188 0.43 0 0.287 0.232 0.485 0.507 0.485h3.452zM17.346 19.254l-2.018-2.029-1.974 5.327c-0.265 0.717 0.485 1.092 0.938 0.529l3.055-3.827zM21.151 21.868c0.187 0.187 0.518 0.187 0.706 0 0.198-0.21 0.198-0.507 0-0.706l-11.107-11.118c-0.199-0.199-0.518-0.199-0.717 0-0.199 0.187-0.188 0.518 0 0.706l11.118 11.118z"></path>
</svg>
