<!-- Generated by IcoMoon.io -->
<svg version="1.1" xmlns="http://www.w3.org/2000/svg" width="32" height="32" viewBox="0 0 32 32">
<title>bolt-batteryblock-fill</title>
<path d="M12.221 17.945c0-0.11 0.055-0.209 0.143-0.32l4.555-5.724c0.342-0.441 0.915-0.143 0.717 0.397l-1.5 4.026h2.813c0.21 0 0.397 0.165 0.397 0.364 0 0.11-0.055 0.232-0.154 0.331l-4.544 5.713c-0.342 0.441-0.927 0.143-0.728-0.386l1.511-4.037h-2.824c-0.21 0-0.386-0.154-0.386-0.364zM6.287 25.952h19.081c2.316 0 3.463-1.136 3.463-3.408v-10.665c0-2.272-1.147-3.408-3.463-3.408h-1.522v-1.478c0-0.838-0.485-1.346-1.334-1.346h-3.254c-0.838 0-1.323 0.507-1.323 1.346v1.478h-4.202v-1.478c0-0.838-0.485-1.346-1.335-1.346h-3.254c-0.849 0-1.324 0.507-1.324 1.346v1.478h-1.533c-2.305 0-3.463 1.136-3.463 3.408v10.665c0 2.272 1.158 3.408 3.463 3.408z"></path>
</svg>
