<!-- Generated by IcoMoon.io -->
<svg version="1.1" xmlns="http://www.w3.org/2000/svg" width="32" height="32" viewBox="0 0 32 32">
<title>bolt-heart-fill</title>
<path d="M11.963 17.57c0-0.121 0.055-0.221 0.143-0.331l4.555-5.724c0.342-0.43 0.915-0.143 0.717 0.397l-1.5 4.026h2.813c0.209 0 0.397 0.165 0.397 0.364 0 0.11-0.055 0.232-0.154 0.331l-4.544 5.724c-0.353 0.43-0.927 0.132-0.728-0.397l1.511-4.037h-2.824c-0.21 0-0.386-0.154-0.386-0.353zM15.658 26.57c0.232 0 0.563-0.154 0.805-0.298 6.221-3.971 10.158-8.592 10.158-13.29 0-3.904-2.68-6.662-6.154-6.662-2.151 0-3.805 1.191-4.809 3.011-0.982-1.809-2.647-3.011-4.809-3.011-3.463 0-6.143 2.757-6.143 6.662 0 4.699 3.938 9.32 10.158 13.29 0.232 0.143 0.573 0.298 0.794 0.298z"></path>
</svg>
