<!-- Generated by IcoMoon.io -->
<svg version="1.1" xmlns="http://www.w3.org/2000/svg" width="32" height="32" viewBox="0 0 32 32">
<title>bolt-horizontal-circle</title>
<path d="M15.956 27.206c6.154 0 11.25-5.107 11.25-11.25 0-6.154-5.107-11.25-11.261-11.25-6.143 0-11.239 5.096-11.239 11.25 0 6.143 5.107 11.25 11.25 11.25zM15.956 25.331c-5.206 0-9.364-4.169-9.364-9.375s4.147-9.375 9.353-9.375c5.206 0 9.386 4.169 9.386 9.375s-4.169 9.375-9.375 9.375zM8.82 18.051c-0.507 0.651 0.154 1.235 0.783 0.904l3.651-1.974 4.798 2.57c0.209 0.121 0.419 0.188 0.596 0.188 0.254 0 0.485-0.132 0.717-0.408l3.728-4.82c0.463-0.607-0.121-1.235-0.783-0.882l-3.673 1.974-4.787-2.581c-0.221-0.11-0.419-0.187-0.607-0.187-0.254 0-0.485 0.132-0.706 0.419l-3.717 4.798z"></path>
</svg>
