<!-- Generated by IcoMoon.io -->
<svg version="1.1" xmlns="http://www.w3.org/2000/svg" width="32" height="32" viewBox="0 0 32 32">
<title>bolt-shield-fill</title>
<path d="M15.61 26.974c0.176 0 0.452-0.066 0.728-0.21 6.276-3.287 8.294-4.93 8.294-8.89v-8.316c0-1.136-0.485-1.5-1.412-1.886-1.29-0.529-5.415-2.029-6.695-2.471-0.298-0.099-0.607-0.154-0.915-0.154s-0.618 0.066-0.904 0.154c-1.29 0.419-5.415 1.952-6.706 2.471-0.915 0.375-1.412 0.75-1.412 1.886v8.316c0 3.96 2.129 5.415 8.294 8.89 0.287 0.154 0.551 0.21 0.728 0.21zM10.636 16.375c0-0.132 0.066-0.298 0.187-0.441l6.232-7.82c0.474-0.596 1.268-0.199 0.982 0.54l-2.051 5.515h3.849c0.298 0 0.518 0.21 0.518 0.507 0 0.132-0.066 0.298-0.187 0.441l-6.232 7.82c-0.474 0.596-1.257 0.198-0.982-0.529l2.063-5.526h-3.86c-0.287 0-0.518-0.21-0.518-0.507z"></path>
</svg>
