<!-- Generated by IcoMoon.io -->
<svg version="1.1" xmlns="http://www.w3.org/2000/svg" width="32" height="32" viewBox="0 0 32 32">
<title>bolt-car-circle</title>
<path d="M15.956 27.206c6.154 0 11.25-5.107 11.25-11.25 0-6.154-5.107-11.25-11.261-11.25-6.143 0-11.239 5.096-11.239 11.25 0 6.143 5.107 11.25 11.25 11.25zM15.956 25.331c-5.206 0-9.364-4.169-9.364-9.375s4.147-9.375 9.353-9.375c5.206 0 9.386 4.169 9.386 9.375s-4.169 9.375-9.375 9.375zM9.901 19.607c0 0.386 0.298 0.673 0.684 0.673h0.607c0.375 0 0.673-0.287 0.673-0.673v-0.849c1.136 0.066 2.779 0.121 4.092 0.121s2.945-0.055 4.081-0.121v0.849c0 0.386 0.298 0.673 0.684 0.673h0.607c0.375 0 0.673-0.287 0.673-0.673v-2.945c0-0.849-0.176-1.335-0.651-1.952l-0.43-0.551c-0.199-0.927-0.529-1.897-0.695-2.272-0.276-0.574-0.805-0.904-1.489-1.004-0.342-0.044-1.467-0.066-2.779-0.066-1.323 0-2.437 0.022-2.79 0.066-0.673 0.088-1.202 0.43-1.478 1.004-0.176 0.375-0.507 1.346-0.695 2.272l-0.441 0.551c-0.463 0.618-0.651 1.103-0.651 1.952v2.945zM14.136 15.25c0-0.066 0.022-0.132 0.077-0.198l2.217-2.835c0.21-0.276 0.54-0.099 0.419 0.221l-0.684 1.842h1.379c0.132 0 0.232 0.099 0.232 0.232 0 0.055-0.044 0.132-0.077 0.187l-2.195 2.835c-0.21 0.276-0.563 0.088-0.441-0.232l0.684-1.853h-1.379c-0.132 0-0.232-0.088-0.232-0.199z"></path>
</svg>
