<!-- Generated by IcoMoon.io -->
<svg version="1.1" xmlns="http://www.w3.org/2000/svg" width="32" height="32" viewBox="0 0 32 32">
<title>bolt-heart</title>
<path d="M12.073 17.526c0 0.198 0.165 0.342 0.375 0.342h2.735l-1.467 3.915c-0.187 0.518 0.364 0.805 0.706 0.386l4.412-5.548c0.088-0.099 0.143-0.221 0.143-0.32 0-0.198-0.176-0.353-0.386-0.353h-2.724l1.456-3.904c0.188-0.529-0.364-0.805-0.695-0.386l-4.423 5.548c-0.077 0.11-0.132 0.21-0.132 0.32zM4.706 12.982c0 4.699 3.937 9.32 10.158 13.29 0.232 0.143 0.573 0.298 0.794 0.298 0.232 0 0.563-0.154 0.805-0.298 6.221-3.971 10.158-8.592 10.158-13.29 0-3.904-2.68-6.662-6.265-6.662-2.040 0-3.695 0.971-4.699 2.46-0.982-1.478-2.647-2.46-4.699-2.46-3.574 0-6.254 2.757-6.254 6.662zM6.482 12.982c0-2.934 1.897-4.886 4.456-4.886 2.085 0 3.265 1.29 3.982 2.393 0.298 0.441 0.485 0.563 0.739 0.563 0.265 0 0.43-0.132 0.75-0.563 0.761-1.081 1.908-2.393 3.971-2.393 2.57 0 4.467 1.952 4.467 4.886 0 4.103-4.334 8.526-8.956 11.592-0.11 0.077-0.187 0.132-0.232 0.132-0.033 0-0.11-0.055-0.221-0.132-4.621-3.066-8.956-7.489-8.956-11.592z"></path>
</svg>
