<!-- Generated by IcoMoon.io -->
<svg version="1.1" xmlns="http://www.w3.org/2000/svg" width="32" height="32" viewBox="0 0 32 32">
<title>bolt-car-circle-fill</title>
<path d="M15.956 27.217c6.154 0 11.25-5.096 11.25-11.25 0-6.143-5.107-11.25-11.261-11.25-6.143 0-11.239 5.107-11.239 11.25 0 6.154 5.107 11.25 11.25 11.25zM9.713 19.739v-3.022c0-0.882 0.187-1.39 0.673-2.007l0.452-0.585c0.199-0.96 0.529-1.952 0.717-2.338 0.287-0.596 0.827-0.949 1.522-1.037 0.364-0.044 1.511-0.066 2.879-0.066 1.357 0 2.515 0.022 2.868 0.066 0.706 0.099 1.246 0.441 1.522 1.037 0.187 0.386 0.518 1.379 0.728 2.338l0.441 0.585c0.496 0.618 0.673 1.125 0.673 2.007v3.022c0 0.397-0.309 0.706-0.695 0.706h-0.629c-0.397 0-0.706-0.309-0.706-0.706v-0.871c-1.169 0.077-2.846 0.121-4.202 0.121s-3.044-0.044-4.213-0.121v0.871c0 0.397-0.309 0.706-0.695 0.706h-0.629c-0.397 0-0.706-0.309-0.706-0.706zM14.081 15.25c0 0.121 0.099 0.221 0.232 0.221h1.423l-0.695 1.897c-0.132 0.342 0.232 0.529 0.452 0.254l2.261-2.923c0.033-0.066 0.077-0.143 0.077-0.21 0-0.132-0.099-0.232-0.232-0.232l-1.423 0.011 0.706-1.908c0.121-0.342-0.221-0.507-0.441-0.232l-2.283 2.923c-0.055 0.066-0.077 0.132-0.077 0.198z"></path>
</svg>
