<!-- Generated by IcoMoon.io -->
<svg version="1.1" xmlns="http://www.w3.org/2000/svg" width="32" height="32" viewBox="0 0 32 32">
<title>bolt-circle-fill</title>
<path d="M15.956 27.217c6.154 0 11.25-5.096 11.25-11.25 0-6.143-5.107-11.25-11.261-11.25-6.143 0-11.239 5.107-11.239 11.25 0 6.154 5.107 11.25 11.25 11.25zM10.982 16.75c0-0.143 0.066-0.309 0.187-0.441l6.232-7.831c0.474-0.585 1.257-0.188 0.982 0.54l-2.063 5.526h3.86c0.298 0 0.518 0.21 0.518 0.496 0 0.143-0.066 0.309-0.187 0.452l-6.232 7.82c-0.474 0.585-1.257 0.188-0.982-0.54l2.063-5.526h-3.86c-0.298 0-0.518-0.209-0.518-0.496z"></path>
</svg>
