<!-- Generated by IcoMoon.io -->
<svg version="1.1" xmlns="http://www.w3.org/2000/svg" width="32" height="32" viewBox="0 0 32 32">
<title>bolt</title>
<path d="M13.699 27.955l10.026-12.893c0.187-0.232 0.287-0.452 0.287-0.706 0-0.419-0.331-0.739-0.794-0.739h-6.232l3.287-8.581c0.441-1.136-0.772-1.754-1.489-0.805l-10.026 12.882c-0.188 0.243-0.287 0.463-0.287 0.706 0 0.43 0.331 0.75 0.794 0.75h6.232l-3.287 8.57c-0.441 1.136 0.772 1.754 1.489 0.816zM14.349 24.988l3.695-8.063h-6.816l7.202-9.562-0.309-0.165-3.684 8.063h6.805l-7.202 9.562 0.309 0.165z"></path>
</svg>
