<!-- Generated by IcoMoon.io -->
<svg version="1.1" xmlns="http://www.w3.org/2000/svg" width="32" height="32" viewBox="0 0 32 32">
<title>bolt-square-fill</title>
<path d="M9.11 25.974h13.379c2.316 0 3.463-1.147 3.463-3.419v-13.467c0-2.272-1.147-3.419-3.463-3.419h-13.379c-2.305 0-3.463 1.136-3.463 3.419v13.467c0 2.283 1.158 3.419 3.463 3.419zM10.831 16.588c0-0.143 0.066-0.309 0.187-0.452l6.232-7.82c0.474-0.585 1.268-0.188 0.982 0.54l-2.051 5.526h3.849c0.298 0 0.518 0.21 0.518 0.496 0 0.143-0.066 0.309-0.176 0.441l-6.243 7.82c-0.474 0.596-1.257 0.199-0.982-0.529l2.063-5.526h-3.86c-0.287 0-0.518-0.209-0.518-0.496z"></path>
</svg>
