<!-- Generated by IcoMoon.io -->
<svg version="1.1" xmlns="http://www.w3.org/2000/svg" width="32" height="32" viewBox="0 0 32 32">
<title>bolt-horizontal-icloud</title>
<path d="M23.676 24.816c3.331 0 5.934-2.438 5.934-5.471 0-2.316-1.334-4.324-3.485-5.228 0.022-4.919-3.518-8.471-8.029-8.471-2.989 0-5.118 1.599-6.441 3.529-2.713-0.794-5.669 1.268-5.724 4.357-2.493 0.397-4.048 2.625-4.048 5.316 0 3.243 2.835 5.967 6.607 5.967h15.187zM23.676 23.040h-15.187c-2.779 0-4.831-1.941-4.831-4.191 0-2.206 1.335-3.96 3.673-3.96 0.154 0 0.21-0.077 0.21-0.221 0-3.397 2.449-4.401 4.71-3.662 0.132 0.044 0.21 0.011 0.276-0.11 1.070-1.908 2.713-3.474 5.57-3.474 3.618 0 6.121 2.868 6.309 6.143 0.033 0.507 0 1.103-0.044 1.621-0.011 0.143 0.044 0.221 0.176 0.254 2.007 0.441 3.298 1.908 3.298 3.904 0 2.051-1.809 3.695-4.158 3.695zM8.621 18.221c-0.507 0.651 0.154 1.235 0.783 0.904l3.651-1.974 4.798 2.57c0.209 0.121 0.419 0.187 0.596 0.187 0.254 0 0.496-0.132 0.717-0.408l3.728-4.82c0.463-0.607-0.121-1.235-0.783-0.882l-3.673 1.974-4.787-2.581c-0.21-0.11-0.419-0.187-0.607-0.187-0.254 0-0.485 0.132-0.706 0.419l-3.717 4.798z"></path>
</svg>
