<!-- Generated by IcoMoon.io -->
<svg version="1.1" xmlns="http://www.w3.org/2000/svg" width="32" height="32" viewBox="0 0 32 32">
<title>bolt-slash-fill</title>
<path d="M13.236 27.952l5.040-6.32-7.721-7.721-2.261 2.835c-0.188 0.243-0.298 0.463-0.298 0.706 0 0.43 0.331 0.75 0.794 0.75l6.055 0.088-3.11 8.846c-0.397 1.136 0.75 1.743 1.5 0.816zM20.968 18.268l2.283-2.846c0.187-0.232 0.287-0.452 0.287-0.706 0-0.419-0.32-0.739-0.783-0.75l-6.066-0.088 3.121-8.846c0.397-1.147-0.75-1.743-1.5-0.805l-5.063 6.331 7.721 7.71zM23.483 25.007c0.331 0.331 0.882 0.331 1.202 0 0.331-0.32 0.331-0.86 0-1.202l-16.643-16.643c-0.331-0.331-0.893-0.331-1.213 0-0.32 0.32-0.32 0.882 0 1.202l16.654 16.643z"></path>
</svg>
