<!-- Generated by IcoMoon.io -->
<svg version="1.1" xmlns="http://www.w3.org/2000/svg" width="32" height="32" viewBox="0 0 32 32">
<title>bolt-horizontal-icloud-fill</title>
<path d="M23.676 24.816c3.331 0 5.934-2.438 5.934-5.471 0-2.316-1.334-4.324-3.485-5.228 0.022-4.919-3.518-8.471-8.029-8.471-2.989 0-5.118 1.599-6.441 3.529-2.713-0.794-5.669 1.268-5.724 4.357-2.493 0.397-4.048 2.625-4.048 5.316 0 3.243 2.835 5.967 6.607 5.967h15.187zM8.39 18.276l3.827-4.952c0.243-0.298 0.485-0.43 0.728-0.43 0.21 0 0.408 0.088 0.629 0.199l4.952 2.658 3.783-2.040c0.673-0.364 1.279 0.287 0.805 0.915l-3.849 4.974c-0.232 0.287-0.485 0.419-0.739 0.419-0.187 0-0.386-0.077-0.618-0.198l-4.952-2.647-3.761 2.040c-0.651 0.342-1.324-0.265-0.805-0.938z"></path>
</svg>
