<!-- Generated by IcoMoon.io -->
<svg version="1.1" xmlns="http://www.w3.org/2000/svg" width="32" height="32" viewBox="0 0 32 32">
<title>bolt-shield</title>
<path d="M15.754 27.57c0.176 0 0.463-0.066 0.739-0.221 6.276-3.518 8.427-5.007 8.427-9.033v-8.437c0-1.158-0.496-1.522-1.434-1.919-1.301-0.54-5.504-2.051-6.805-2.504-0.298-0.099-0.618-0.165-0.927-0.165s-0.629 0.088-0.915 0.165c-1.301 0.375-5.515 1.974-6.816 2.504-0.926 0.386-1.434 0.761-1.434 1.919v8.437c0 4.026 2.162 5.504 8.426 9.033 0.287 0.154 0.563 0.221 0.739 0.221zM15.754 25.574c-0.176 0-0.353-0.066-0.684-0.265-5.096-3.088-6.728-3.993-6.728-7.401v-7.687c0-0.375 0.066-0.518 0.375-0.64 1.677-0.662 4.93-1.754 6.596-2.415 0.176-0.077 0.32-0.099 0.441-0.099s0.265 0.033 0.441 0.099c1.666 0.662 4.897 1.831 6.607 2.415 0.298 0.11 0.364 0.265 0.364 0.64v7.687c0 3.408-1.632 4.302-6.728 7.401-0.32 0.199-0.507 0.265-0.684 0.265zM11.154 16.618c0 0.265 0.21 0.452 0.485 0.452h3.551l-1.897 5.096c-0.254 0.673 0.463 1.048 0.904 0.507l5.757-7.224c0.121-0.143 0.176-0.287 0.176-0.419 0-0.265-0.209-0.452-0.485-0.452h-3.551l1.897-5.107c0.254-0.673-0.463-1.037-0.904-0.496l-5.757 7.224c-0.11 0.132-0.176 0.287-0.176 0.419z"></path>
</svg>
