<!-- Generated by IcoMoon.io -->
<svg version="1.1" xmlns="http://www.w3.org/2000/svg" width="32" height="32" viewBox="0 0 32 32">
<title>bolt-slash</title>
<path d="M7.997 17.818c0 0.43 0.331 0.75 0.794 0.75h6.232l-3.287 8.57c-0.441 1.136 0.772 1.754 1.489 0.816l4.974-6.397-1.235-1.235-3.397 4.5 0.309 0.165 2.404-5.36-2.724-2.702h-2.801l1.213-1.599-1.29-1.29-2.393 3.077c-0.188 0.243-0.287 0.463-0.287 0.706zM13.324 10.627l1.235 1.235 3.397-4.5-0.309-0.165-2.404 5.36 2.702 2.702h2.824l-1.213 1.599 1.29 1.29 2.404-3.088c0.187-0.232 0.287-0.452 0.287-0.706 0-0.419-0.331-0.739-0.794-0.739h-6.232l3.287-8.581c0.441-1.136-0.772-1.754-1.489-0.805l-4.985 6.397zM23.483 25.010c0.331 0.331 0.882 0.331 1.202 0 0.331-0.32 0.331-0.86 0-1.202l-16.643-16.643c-0.331-0.331-0.893-0.331-1.213 0-0.32 0.32-0.32 0.882 0 1.202l16.654 16.643z"></path>
</svg>
