<!-- Generated by IcoMoon.io -->
<svg version="1.1" xmlns="http://www.w3.org/2000/svg" width="32" height="32" viewBox="0 0 32 32">
<title>bolt-horizontal</title>
<path d="M1.318 20.46c-1.048 1.346 0.298 2.437 1.511 1.732l7.996-4.566 9.485 5.085c0.441 0.221 0.816 0.353 1.18 0.353 0.507 0 0.971-0.232 1.412-0.794l8.118-10.257c0.882-1.114-0.198-2.493-1.533-1.743l-7.996 4.599-9.496-5.085c-0.43-0.243-0.827-0.353-1.18-0.353-0.518 0-0.96 0.232-1.401 0.794l-8.096 10.235zM3.821 20.029c-0.132 0.066-0.199-0.044-0.11-0.143l6.982-8.46c0.154-0.198 0.298-0.221 0.507-0.11l9.893 5.283c0.463 0.243 0.607 0.176 0.971-0.055l6.463-4.114c0.099-0.066 0.209 0.044 0.121 0.143l-7.015 8.493c-0.154 0.187-0.309 0.221-0.507 0.11l-9.904-5.283c-0.463-0.243-0.607-0.187-0.971 0.044l-6.43 4.092z"></path>
</svg>
