<!-- Generated by IcoMoon.io -->
<svg version="1.1" xmlns="http://www.w3.org/2000/svg" width="32" height="32" viewBox="0 0 32 32">
<title>bolt-horizontal-circle-fill</title>
<path d="M15.956 27.217c6.154 0 11.25-5.096 11.25-11.25 0-6.143-5.107-11.25-11.261-11.25-6.143 0-11.239 5.107-11.239 11.25 0 6.154 5.107 11.25 11.25 11.25zM8.599 18.118l3.827-4.952c0.243-0.287 0.474-0.419 0.728-0.419 0.198 0 0.408 0.077 0.629 0.198l4.941 2.647 3.794-2.040c0.673-0.364 1.279 0.298 0.805 0.915l-3.849 4.974c-0.232 0.298-0.485 0.419-0.739 0.419-0.187 0-0.397-0.077-0.618-0.199l-4.952-2.647-3.761 2.040c-0.651 0.353-1.324-0.254-0.805-0.938z"></path>
</svg>
