<!-- Generated by IcoMoon.io -->
<svg version="1.1" xmlns="http://www.w3.org/2000/svg" width="32" height="32" viewBox="0 0 32 32">
<title>bolt-car-fill</title>
<path d="M15.871 23.073c3.706 0 8.636-0.187 10.721-0.43 1.5-0.165 2.327-0.993 2.327-2.404v-1.941c0-1.864-0.375-2.901-1.39-4.224l-0.938-1.202c-0.397-1.985-1.136-4.070-1.511-4.886-0.596-1.246-1.732-1.985-3.198-2.184-0.739-0.099-3.154-0.154-6.011-0.154-2.846 0-5.261 0.066-6 0.154-1.467 0.176-2.614 0.938-3.199 2.184-0.386 0.816-1.114 2.901-1.522 4.886l-0.926 1.202c-1.026 1.324-1.401 2.36-1.401 4.224v1.941c0 1.412 0.838 2.239 2.327 2.404 2.096 0.243 7.015 0.43 10.721 0.43zM4.29 26.107h1.29c0.827 0 1.467-0.64 1.467-1.456v-2.746l-4.224-2.007v4.754c0 0.816 0.64 1.456 1.467 1.456zM26.162 26.107h1.301c0.827 0 1.456-0.64 1.456-1.456v-4.754l-4.213 2.007v2.746c0 0.816 0.629 1.456 1.456 1.456zM12.276 15.066c0-0.121 0.055-0.221 0.143-0.331l4.555-5.724c0.342-0.43 0.915-0.143 0.717 0.397l-1.5 4.026h2.813c0.21 0 0.397 0.165 0.397 0.364 0 0.11-0.055 0.232-0.165 0.331l-4.533 5.724c-0.353 0.43-0.938 0.132-0.728-0.397l1.511-4.037h-2.824c-0.21 0-0.386-0.154-0.386-0.353z"></path>
</svg>
