<!-- Generated by IcoMoon.io -->
<svg version="1.1" xmlns="http://www.w3.org/2000/svg" width="32" height="32" viewBox="0 0 32 32">
<title>bonjour</title>
<path d="M3.765 10.695c0 3.739 4.544 7.566 12.11 7.566 3.629 0 6.849-0.904 9.11-2.559-0.651-0.287-1.202-0.772-1.566-1.39-1.654 1.599-4.301 2.46-7.544 2.46-6.574 0-9.044-3.474-9.044-5.537 0-0.507 0.077-0.96 0.243-1.346-1.037-0.585-1.721-1.71-1.743-2.923-1.037 0.971-1.566 2.228-1.566 3.728zM21.93 20.688c0-4.71-4.588-11.779-9.706-14.096 0.011 0.099 0.011 0.188 0.011 0.276 0 0.607-0.154 1.191-0.441 1.699 4.004 1.224 7.787 6.551 7.787 11.029 0 2.581-1.511 4.368-3.507 4.368 0.077 0.32 0.121 0.651 0.121 0.971 0 0.761-0.243 1.489-0.695 2.085 0.099 0.011 0.232 0.011 0.353 0.011 3.529 0 6.077-2.658 6.077-6.342zM22.702 5.853c-6.176 0-12.904 9.143-12.904 14.835 0 0.673 0.088 1.357 0.287 2.029 0.507-0.739 1.533-1.213 2.349-1.235-0.187-0.562-0.298-1.213-0.298-1.886 0-4.919 4.809-11.305 9.552-11.305 1.301 0 2.305 0.474 2.824 1.346 0.562-0.364 1.202-0.552 1.875-0.552 0.507 0 1.004 0.121 1.456 0.32-0.518-2.206-2.437-3.551-5.14-3.551zM8.783 9.029c1.191 0 2.162-0.96 2.162-2.162 0-1.191-0.971-2.162-2.162-2.162-1.202 0-2.173 0.971-2.173 2.162 0 1.202 0.971 2.162 2.173 2.162zM26.386 14.71c1.202 0 2.162-0.971 2.162-2.162 0-1.202-0.96-2.173-2.162-2.173-1.191 0-2.162 0.971-2.162 2.173 0 1.191 0.971 2.162 2.162 2.162zM12.743 27.096c1.202 0 2.162-0.96 2.162-2.162s-0.971-2.162-2.162-2.162c-1.202 0-2.162 0.96-2.162 2.162s0.96 2.162 2.162 2.162z"></path>
</svg>
