<!-- Generated by IcoMoon.io -->
<svg version="1.1" xmlns="http://www.w3.org/2000/svg" width="32" height="32" viewBox="0 0 32 32">
<title>books-vertical-circle-fill</title>
<path d="M15.956 27.217c6.154 0 11.25-5.096 11.25-11.25 0-6.143-5.107-11.25-11.261-11.25-6.143 0-11.239 5.107-11.239 11.25 0 6.154 5.107 11.25 11.25 11.25zM9.471 20.897v-8.89c0-0.408 0.243-0.629 0.673-0.629h0.982c0.419 0 0.651 0.221 0.651 0.629v8.89c0 0.408-0.232 0.64-0.651 0.64h-0.982c-0.43 0-0.673-0.232-0.673-0.64zM12.537 20.897v-7.092c0-0.397 0.243-0.651 0.651-0.651h2.129c0.43 0 0.64 0.254 0.64 0.651v7.092c0 0.408-0.21 0.64-0.64 0.64h-2.129c-0.408 0-0.651-0.232-0.651-0.64zM13.353 19.993c0 0.198 0.143 0.353 0.331 0.353h1.147c0.199 0 0.342-0.154 0.342-0.353 0-0.187-0.143-0.342-0.342-0.342h-1.147c-0.199 0-0.331 0.143-0.331 0.342zM13.353 14.721c0 0.176 0.132 0.342 0.331 0.342h1.147c0.199 0 0.342-0.176 0.342-0.342 0-0.198-0.143-0.342-0.342-0.342h-1.147c-0.188 0-0.331 0.143-0.331 0.342zM16.739 20.897v-10.335c0-0.419 0.209-0.651 0.64-0.651h1.29c0.419 0 0.651 0.232 0.651 0.651v1.125l0.871-0.221c0.408-0.099 0.673 0.11 0.75 0.518l1.787 8.581c0.066 0.408-0.11 0.684-0.518 0.772l-0.827 0.198c-0.397 0.099-0.673-0.099-0.75-0.496l-1.313-6.353v6.21c0 0.408-0.232 0.64-0.651 0.64h-1.29c-0.43 0-0.64-0.232-0.64-0.64z"></path>
</svg>
