<!-- Generated by IcoMoon.io -->
<svg version="1.1" xmlns="http://www.w3.org/2000/svg" width="32" height="32" viewBox="0 0 32 32">
<title>bookmark-circle</title>
<path d="M15.956 27.206c6.154 0 11.25-5.107 11.25-11.25 0-6.154-5.107-11.25-11.261-11.25-6.143 0-11.239 5.096-11.239 11.25 0 6.143 5.107 11.25 11.25 11.25zM15.956 25.331c-5.206 0-9.364-4.169-9.364-9.375s4.147-9.375 9.353-9.375c5.206 0 9.386 4.169 9.386 9.375s-4.169 9.375-9.375 9.375zM12.68 21.802c0.287 0 0.452-0.165 0.96-0.662l2.25-2.217c0.033-0.033 0.077-0.033 0.11 0l2.261 2.217c0.496 0.496 0.662 0.662 0.949 0.662 0.364 0 0.596-0.265 0.596-0.706v-9.287c0-1.070-0.552-1.632-1.621-1.632h-4.478c-1.070 0-1.621 0.563-1.621 1.632v9.287c0 0.441 0.232 0.706 0.596 0.706z"></path>
</svg>
