<!-- Generated by IcoMoon.io -->
<svg version="1.1" xmlns="http://www.w3.org/2000/svg" width="32" height="32" viewBox="0 0 32 32">
<title>bookmark-square-fill</title>
<path d="M9.11 25.974h13.379c2.316 0 3.463-1.147 3.463-3.419v-13.467c0-2.272-1.147-3.419-3.463-3.419h-13.379c-2.305 0-3.463 1.136-3.463 3.419v13.467c0 2.283 1.158 3.419 3.463 3.419zM12.441 21.838c-0.375 0-0.618-0.276-0.618-0.739v-9.574c0-1.103 0.574-1.688 1.677-1.688h4.61c1.114 0 1.688 0.585 1.688 1.688v9.574c0 0.463-0.243 0.739-0.629 0.739-0.298 0-0.463-0.176-0.982-0.695l-2.327-2.272c-0.033-0.033-0.077-0.033-0.11 0l-2.316 2.272c-0.529 0.518-0.695 0.695-0.993 0.695z"></path>
</svg>
