<!-- Generated by IcoMoon.io -->
<svg version="1.1" xmlns="http://www.w3.org/2000/svg" width="32" height="32" viewBox="0 0 32 32">
<title>bookmark-circle-fill</title>
<path d="M15.956 27.217c6.154 0 11.25-5.096 11.25-11.25 0-6.143-5.107-11.25-11.261-11.25-6.143 0-11.239 5.107-11.239 11.25 0 6.154 5.107 11.25 11.25 11.25zM12.592 22c-0.375 0-0.618-0.276-0.618-0.728v-9.585c0-1.103 0.573-1.688 1.676-1.688h4.61c1.103 0 1.677 0.585 1.677 1.688v9.585c0 0.452-0.243 0.728-0.618 0.728-0.298 0-0.463-0.176-0.982-0.684l-2.327-2.283c-0.033-0.033-0.077-0.033-0.11 0l-2.316 2.283c-0.529 0.507-0.695 0.684-0.993 0.684z"></path>
</svg>
