<!-- Generated by IcoMoon.io -->
<svg version="1.1" xmlns="http://www.w3.org/2000/svg" width="32" height="32" viewBox="0 0 32 32">
<title>bookmark-slash-fill</title>
<path d="M23.391 19.371v-12.441c0-2.096-1.048-3.165-3.121-3.165h-8.625c-1.268 0-2.14 0.43-2.603 1.268l14.349 14.338zM8.523 10.537v15.54c0 0.86 0.43 1.346 1.169 1.346 0.54 0 0.86-0.309 1.853-1.268l4.312-4.246c0.055-0.055 0.154-0.055 0.199 0l4.312 4.246c0.993 0.96 1.312 1.268 1.853 1.268 0.739 0 1.169-0.485 1.169-1.346v-0.651l-14.868-14.89zM25.398 25.526c0.331 0.331 0.871 0.331 1.202 0 0.32-0.331 0.331-0.871 0-1.202l-19.5-19.511c-0.331-0.331-0.882-0.331-1.213 0-0.32 0.32-0.32 0.882 0 1.202l19.511 19.511z"></path>
</svg>
