<!-- Generated by IcoMoon.io -->
<svg version="1.1" xmlns="http://www.w3.org/2000/svg" width="32" height="32" viewBox="0 0 32 32">
<title>bookmark-square</title>
<path d="M9.11 26.173h13.379c2.316 0 3.463-1.147 3.463-3.419v-13.467c0-2.272-1.147-3.419-3.463-3.419h-13.379c-2.305 0-3.463 1.136-3.463 3.419v13.467c0 2.283 1.158 3.419 3.463 3.419zM9.132 24.397c-1.103 0-1.71-0.585-1.71-1.732v-13.29c0-1.147 0.607-1.732 1.71-1.732h13.335c1.092 0 1.71 0.585 1.71 1.732v13.29c0 1.147-0.618 1.732-1.71 1.732h-13.335zM12.54 21.849c0.287 0 0.452-0.165 0.96-0.662l2.25-2.217c0.033-0.033 0.077-0.033 0.11 0l2.261 2.217c0.496 0.496 0.662 0.662 0.949 0.662 0.375 0 0.607-0.265 0.607-0.706v-9.287c0-1.070-0.551-1.632-1.632-1.632h-4.478c-1.070 0-1.621 0.562-1.621 1.632v9.287c0 0.441 0.232 0.706 0.596 0.706z"></path>
</svg>
