<!-- Generated by IcoMoon.io -->
<svg version="1.1" xmlns="http://www.w3.org/2000/svg" width="32" height="32" viewBox="0 0 32 32">
<title>book-circle</title>
<path d="M15.956 27.206c6.154 0 11.25-5.107 11.25-11.25 0-6.154-5.107-11.25-11.261-11.25-6.143 0-11.239 5.096-11.239 11.25 0 6.143 5.107 11.25 11.25 11.25zM15.956 25.331c-5.206 0-9.364-4.169-9.364-9.375s4.147-9.375 9.353-9.375c5.206 0 9.386 4.169 9.386 9.375s-4.169 9.375-9.375 9.375zM12.923 11.224c-1.147 0-2.349 0.529-2.868 1.434-0.066 0.11-0.066 0.176-0.066 0.364v7.324c0 0.221 0.154 0.375 0.397 0.375 0.132 0 0.254-0.044 0.353-0.132 0.629-0.54 1.478-0.849 2.371-0.849 0.761 0 1.489 0.254 2.096 0.75 0.066 0.055 0.11 0.088 0.177 0.088 0.11 0 0.21-0.099 0.21-0.221v-7.676c0-0.121-0.011-0.143-0.11-0.298-0.507-0.717-1.478-1.158-2.559-1.158zM18.978 11.224c-1.081 0-2.040 0.441-2.559 1.158-0.099 0.154-0.099 0.177-0.099 0.298v7.676c0 0.121 0.088 0.221 0.199 0.221 0.066 0 0.121-0.033 0.176-0.088 0.607-0.496 1.346-0.75 2.096-0.75 0.904 0 1.754 0.309 2.382 0.849 0.099 0.088 0.21 0.132 0.342 0.132 0.243 0 0.408-0.154 0.408-0.375v-7.324c0-0.187-0.011-0.265-0.077-0.364-0.518-0.904-1.721-1.434-2.868-1.434z"></path>
</svg>
