<!-- Generated by IcoMoon.io -->
<svg version="1.1" xmlns="http://www.w3.org/2000/svg" width="32" height="32" viewBox="0 0 32 32">
<title>books-vertical-circle</title>
<path d="M15.956 27.206c6.154 0 11.25-5.107 11.25-11.25 0-6.154-5.107-11.25-11.261-11.25-6.143 0-11.239 5.096-11.239 11.25 0 6.143 5.107 11.25 11.25 11.25zM15.956 25.331c-5.206 0-9.364-4.169-9.364-9.375s4.147-9.375 9.353-9.375c5.206 0 9.386 4.169 9.386 9.375s-4.169 9.375-9.375 9.375zM10.331 21.349h0.949c0.408 0 0.629-0.221 0.629-0.618v-8.625c0-0.397-0.221-0.618-0.629-0.618h-0.949c-0.419 0-0.651 0.221-0.651 0.618v8.625c0 0.397 0.232 0.618 0.651 0.618zM13.276 21.349h2.063c0.419 0 0.629-0.221 0.629-0.618v-6.882c0-0.397-0.21-0.64-0.629-0.64h-2.063c-0.397 0-0.629 0.243-0.629 0.64v6.882c0 0.397 0.232 0.618 0.629 0.618zM13.761 15.063c-0.198 0-0.32-0.165-0.32-0.331 0-0.187 0.132-0.331 0.32-0.331h1.114c0.187 0 0.331 0.143 0.331 0.331 0 0.165-0.143 0.331-0.331 0.331h-1.114zM13.761 20.191c-0.187 0-0.32-0.143-0.32-0.342 0-0.187 0.121-0.331 0.32-0.331h1.114c0.187 0 0.331 0.143 0.331 0.331 0 0.199-0.143 0.342-0.331 0.342h-1.114zM17.346 21.349h1.246c0.408 0 0.629-0.221 0.629-0.618v-10.026c0-0.408-0.221-0.629-0.629-0.629h-1.246c-0.419 0-0.629 0.221-0.629 0.629v10.026c0 0.397 0.21 0.618 0.629 0.618zM21.217 21.349l0.805-0.198c0.397-0.077 0.563-0.342 0.496-0.739l-1.721-8.316c-0.077-0.408-0.331-0.607-0.728-0.507l-0.805 0.198c-0.386 0.088-0.574 0.342-0.496 0.739l1.721 8.338c0.077 0.386 0.342 0.573 0.728 0.485z"></path>
</svg>
