<!-- Generated by IcoMoon.io -->
<svg version="1.1" xmlns="http://www.w3.org/2000/svg" width="32" height="32" viewBox="0 0 32 32">
<title>book-closed-circle-fill</title>
<path d="M15.956 27.217c6.154 0 11.25-5.096 11.25-11.25 0-6.143-5.107-11.25-11.261-11.25-6.143 0-11.239 5.107-11.239 11.25 0 6.154 5.107 11.25 11.25 11.25zM12.967 21.978c-1.147 0-1.732-0.585-1.732-1.754v-8.471c0-1.202 0.585-1.787 1.743-1.787h5.934c1.169 0 1.754 0.596 1.754 1.787v6.397c0 0.54-0.254 0.838-0.474 1.059-0.673 0.662-0.54 1.555 0.154 1.842 0.176 0.055 0.32 0.254 0.32 0.452 0 0.265-0.221 0.474-0.474 0.474h-7.224zM13.022 21.029h5.978c-0.254-0.485-0.287-1.059-0.066-1.621-0.044 0.011-0.088 0.011-0.143 0.011h-5.724c-0.529 0-0.882 0.32-0.882 0.794 0 0.518 0.298 0.816 0.838 0.816zM12.846 18.482c0.199 0 0.364-0.143 0.364-0.342v-6.871c0-0.188-0.165-0.353-0.364-0.353-0.187 0-0.331 0.154-0.331 0.353v6.871c0 0.199 0.143 0.342 0.331 0.342z"></path>
</svg>
