<!-- Generated by IcoMoon.io -->
<svg version="1.1" xmlns="http://www.w3.org/2000/svg" width="32" height="32" viewBox="0 0 32 32">
<title>book-fill</title>
<path d="M9.985 5.647c-2.426 0-4.952 1.125-6.088 3.077-0.121 0.221-0.132 0.364-0.132 0.772v15.563c0 0.507 0.32 0.816 0.871 0.816 0.265 0 0.518-0.077 0.717-0.265 1.39-1.191 3.232-1.809 5.074-1.809 1.721 0 3.32 0.607 4.489 1.61 0.121 0.099 0.265 0.154 0.386 0.154 0.243 0 0.441-0.176 0.441-0.463v-16.313c0-0.287-0.022-0.353-0.232-0.651-1.081-1.555-3.199-2.493-5.526-2.493zM22.945 5.647c-2.327 0-4.445 0.938-5.526 2.493-0.209 0.298-0.232 0.364-0.232 0.651v16.313c0 0.287 0.199 0.463 0.441 0.463 0.121 0 0.276-0.055 0.386-0.154 1.169-1.004 2.768-1.61 4.489-1.61 1.842 0 3.684 0.618 5.073 1.809 0.198 0.188 0.452 0.265 0.717 0.265 0.551 0 0.871-0.309 0.871-0.816v-15.563c0-0.408-0.011-0.562-0.132-0.772-1.136-1.952-3.662-3.077-6.088-3.077z"></path>
</svg>
