<!-- Generated by IcoMoon.io -->
<svg version="1.1" xmlns="http://www.w3.org/2000/svg" width="32" height="32" viewBox="0 0 32 32">
<title>book</title>
<path d="M3.765 24.298c0 0.904 0.596 1.257 1.246 1.257 0.375 0 0.695-0.221 1.114-0.474 1.213-0.827 2.713-1.334 4.246-1.323 1.588 0.011 3.165 0.596 4.401 1.787 0.485 0.441 0.838 0.585 1.246 0.585 0.397 0 0.761-0.143 1.235-0.585 1.235-1.18 2.813-1.776 4.412-1.787 1.533-0.011 3.022 0.496 4.235 1.323 0.419 0.254 0.739 0.474 1.125 0.474 0.64 0 1.235-0.353 1.235-1.257v-14.967c0-0.188-0.011-0.342-0.132-0.529-0.982-1.71-3.474-3.154-6.507-3.154-2.404 0-4.489 0.96-5.603 2.316-1.114-1.357-3.21-2.316-5.603-2.316-3.044 0-5.537 1.445-6.518 3.154-0.11 0.188-0.132 0.342-0.132 0.529v14.967zM5.54 23.36v-13.776c0.893-1.29 2.835-2.162 4.875-2.162 2.096 0 3.927 0.882 4.71 2.228v13.897c-1.125-0.893-2.879-1.566-4.71-1.566-1.919 0-3.706 0.54-4.875 1.379zM16.901 23.548v-13.897c0.783-1.346 2.625-2.228 4.721-2.228 2.029 0 3.971 0.871 4.864 2.162v13.776c-1.169-0.838-2.956-1.379-4.864-1.379-1.842 0-3.596 0.673-4.721 1.566z"></path>
</svg>
