<!-- Generated by IcoMoon.io -->
<svg version="1.1" xmlns="http://www.w3.org/2000/svg" width="32" height="32" viewBox="0 0 32 32">
<title>books-vertical</title>
<path d="M2.824 25.636c0 1.699 0.816 2.537 2.515 2.537h15.066c1.688 0 2.515-0.838 2.515-2.537v-19.324c0-1.699-0.827-2.548-2.515-2.548h-2.162c-1.688 0-2.515 0.849-2.515 2.548v4.379c-0.243-0.055-0.529-0.099-0.838-0.099h-4.809c-0.32 0-0.596 0.044-0.849 0.099v-1.324c0-1.699-0.816-2.548-2.504-2.548h-1.39c-1.699 0-2.515 0.849-2.515 2.548v16.268zM4.489 25.504v-16.015c0-0.651 0.342-1.004 1.026-1.004h1.037c0.684 0 1.015 0.353 1.015 1.004v17.018h-2.051c-0.684 0-1.026-0.353-1.026-1.004zM9.232 26.507v-13.246c0-0.651 0.342-1.004 1.026-1.004h4.456c0.684 0 1.015 0.353 1.015 1.004v13.246h-6.496zM17.393 26.507v-20.074c0-0.651 0.342-1.004 1.026-1.004h1.809c0.695 0 1.026 0.353 1.026 1.004v19.070c0 0.651-0.331 1.004-1.026 1.004h-2.835zM10.235 14.397c0 0.386 0.287 0.684 0.695 0.684h3.132c0.386 0 0.684-0.298 0.684-0.684 0-0.375-0.298-0.673-0.684-0.673h-3.132c-0.408 0-0.695 0.298-0.695 0.673zM10.235 24.368c0 0.386 0.287 0.684 0.695 0.684h3.132c0.386 0 0.684-0.298 0.684-0.684 0-0.375-0.298-0.673-0.684-0.673h-3.132c-0.408 0-0.695 0.298-0.695 0.673zM23.912 25.945c0.21 1.677 1.103 2.46 2.791 2.228l1.147-0.154c1.688-0.232 2.382-1.125 2.195-2.801l-1.897-16.489c-0.198-1.676-1.103-2.471-2.79-2.228l-1.147 0.154c-1.699 0.243-2.404 1.125-2.206 2.801l1.908 16.489zM25.544 25.614l-1.864-16.224c-0.077-0.651 0.221-1.015 0.904-1.114l0.794-0.099c0.684-0.099 1.059 0.232 1.136 0.871l1.864 16.224c0.077 0.662-0.221 1.015-0.893 1.114l-0.816 0.11c-0.673 0.099-1.048-0.221-1.125-0.882z"></path>
</svg>
