<!-- Generated by IcoMoon.io -->
<svg version="1.1" xmlns="http://www.w3.org/2000/svg" width="32" height="32" viewBox="0 0 32 32">
<title>book-circle-fill</title>
<path d="M15.956 27.217c6.154 0 11.25-5.096 11.25-11.25 0-6.143-5.107-11.25-11.261-11.25-6.143 0-11.239 5.107-11.239 11.25 0 6.154 5.107 11.25 11.25 11.25zM12.835 11.092c1.114 0 2.118 0.452 2.647 1.202 0.099 0.143 0.11 0.165 0.11 0.309v7.908c0 0.132-0.099 0.221-0.221 0.221-0.066 0-0.11-0.022-0.176-0.077-0.629-0.529-1.379-0.783-2.162-0.783-0.915 0-1.798 0.32-2.438 0.871-0.11 0.088-0.232 0.132-0.375 0.132-0.243 0-0.408-0.154-0.408-0.386v-7.544c0-0.198 0-0.265 0.066-0.364 0.54-0.949 1.776-1.489 2.956-1.489zM19.088 11.092c1.18 0 2.416 0.54 2.956 1.489 0.066 0.088 0.077 0.165 0.077 0.364v7.544c0 0.232-0.176 0.386-0.419 0.386-0.143 0-0.254-0.044-0.375-0.132-0.629-0.552-1.511-0.871-2.438-0.871-0.772 0-1.533 0.254-2.162 0.783-0.055 0.055-0.11 0.077-0.176 0.077-0.121 0-0.209-0.088-0.209-0.221v-7.908c0-0.143 0-0.165 0.099-0.309 0.54-0.75 1.533-1.202 2.647-1.202z"></path>
</svg>
