<!-- Generated by IcoMoon.io -->
<svg version="1.1" xmlns="http://www.w3.org/2000/svg" width="32" height="32" viewBox="0 0 32 32">
<title>book-closed-circle</title>
<path d="M15.956 27.206c6.154 0 11.25-5.107 11.25-11.25 0-6.154-5.107-11.25-11.261-11.25-6.143 0-11.239 5.096-11.239 11.25 0 6.143 5.107 11.25 11.25 11.25zM15.956 25.331c-5.206 0-9.364-4.169-9.364-9.375s4.147-9.375 9.353-9.375c5.206 0 9.386 4.169 9.386 9.375s-4.169 9.375-9.375 9.375zM13.055 21.79h7.015c0.243 0 0.452-0.221 0.452-0.463 0-0.199-0.132-0.386-0.309-0.441-0.673-0.276-0.805-1.136-0.154-1.787 0.221-0.21 0.463-0.496 0.463-1.037v-6.21c0-1.136-0.563-1.721-1.699-1.721h-5.757c-1.125 0-1.688 0.574-1.688 1.721v8.239c0 1.125 0.563 1.698 1.677 1.698zM13.11 20.875c-0.529 0-0.816-0.298-0.816-0.794 0-0.463 0.342-0.772 0.86-0.772h5.548c0.055 0 0.099-0.011 0.143-0.011-0.209 0.54-0.176 1.103 0.066 1.577h-5.802zM12.934 18.393c-0.176 0-0.32-0.132-0.32-0.331v-6.673c0-0.188 0.143-0.331 0.32-0.331 0.198 0 0.353 0.143 0.353 0.331v6.673c0 0.198-0.154 0.331-0.353 0.331z"></path>
</svg>
