<!-- Generated by IcoMoon.io -->
<svg version="1.1" xmlns="http://www.w3.org/2000/svg" width="32" height="32" viewBox="0 0 32 32">
<title>bookmark-slash</title>
<path d="M23.391 19.371v-12.441c0-2.096-1.048-3.165-3.121-3.165h-8.625c-1.268 0-2.14 0.43-2.592 1.257l1.357 1.346c0.154-0.563 0.596-0.86 1.323-0.86h8.46c0.96 0 1.456 0.496 1.456 1.445v10.676l1.743 1.743zM9.692 27.423c0.54 0 0.86-0.309 1.853-1.268l4.312-4.246c0.055-0.055 0.154-0.055 0.199 0l4.312 4.246c0.993 0.96 1.312 1.268 1.853 1.268 0.739 0 1.169-0.485 1.147-1.136v-0.574l-1.963-1.963v0.673c-0.011 0.044-0.044 0.066-0.11 0l-4.754-4.61c-0.353-0.342-0.816-0.342-1.169 0l-4.776 4.632c-0.154 0.154-0.331 0.11-0.331-0.11v-11.956l-1.743-1.743v15.441c0 0.86 0.43 1.346 1.169 1.346zM25.398 25.526c0.331 0.331 0.871 0.331 1.202 0 0.32-0.331 0.331-0.871 0-1.202l-19.5-19.511c-0.331-0.331-0.882-0.331-1.213 0-0.32 0.32-0.32 0.882 0 1.202l19.511 19.511z"></path>
</svg>
