<!-- Generated by IcoMoon.io -->
<svg version="1.1" xmlns="http://www.w3.org/2000/svg" width="32" height="32" viewBox="0 0 32 32">
<title>bookmark</title>
<path d="M9.64 27.423c0.54 0 0.86-0.309 1.853-1.268l4.313-4.246c0.055-0.055 0.154-0.055 0.199 0l4.312 4.246c0.993 0.96 1.313 1.268 1.853 1.268 0.739 0 1.169-0.485 1.169-1.346v-19.147c0-2.096-1.048-3.165-3.121-3.165h-8.625c-2.073 0-3.121 1.070-3.121 3.165v19.147c0 0.86 0.43 1.346 1.169 1.346zM10.544 24.445c-0.154 0.154-0.331 0.11-0.331-0.11v-17.382c0-0.949 0.496-1.445 1.467-1.445h8.459c0.96 0 1.456 0.496 1.456 1.445v17.382c0 0.221-0.165 0.265-0.331 0.11l-4.776-4.632c-0.353-0.342-0.816-0.342-1.169 0l-4.776 4.632z"></path>
</svg>
