<!-- Generated by IcoMoon.io -->
<svg version="1.1" xmlns="http://www.w3.org/2000/svg" width="32" height="32" viewBox="0 0 32 32">
<title>books-vertical-fill</title>
<path d="M4.18 28.173h2.085c0.871 0 1.357-0.496 1.357-1.357v-18.629c0-0.871-0.485-1.368-1.357-1.368h-2.085c-0.882 0-1.357 0.496-1.357 1.368v18.629c0 0.86 0.474 1.357 1.357 1.357zM10.268 28.173h4.467c0.882 0 1.357-0.496 1.357-1.357v-14.868c0-0.86-0.474-1.357-1.357-1.357h-4.467c-0.882 0-1.368 0.496-1.368 1.357v14.868c0 0.86 0.485 1.357 1.368 1.357zM11.316 14.529c-0.397 0-0.695-0.298-0.695-0.684 0-0.375 0.298-0.673 0.695-0.673h2.393c0.386 0 0.673 0.298 0.673 0.673 0 0.386-0.287 0.684-0.673 0.684h-2.393zM11.316 25.603c-0.397 0-0.695-0.298-0.695-0.684 0-0.375 0.298-0.673 0.695-0.673h2.393c0.386 0 0.673 0.298 0.673 0.673 0 0.386-0.287 0.684-0.673 0.684h-2.393zM18.739 28.173h2.724c0.882 0 1.357-0.496 1.357-1.357v-21.684c0-0.871-0.474-1.368-1.357-1.368h-2.724c-0.882 0-1.357 0.496-1.357 1.368v21.684c0 0.86 0.474 1.357 1.357 1.357zM26.239 28.228l1.776-0.254c0.86-0.11 1.279-0.64 1.18-1.511l-2.107-18.298c-0.099-0.86-0.618-1.313-1.5-1.191l-1.765 0.254c-0.871 0.11-1.29 0.64-1.191 1.5l2.118 18.298c0.099 0.86 0.618 1.313 1.489 1.202z"></path>
</svg>
