<!-- Generated by IcoMoon.io -->
<svg version="1.1" xmlns="http://www.w3.org/2000/svg" width="32" height="32" viewBox="0 0 32 32">
<title>box-truck</title>
<path d="M3.276 24.751h2.364v-1.738h-2.343c-0.81 0-1.22-0.41-1.22-1.22v-14.098c0-0.81 0.41-1.231 1.22-1.231h15.793c0.799 0 1.231 0.421 1.231 1.231v15.826l1.738-0.626v-15.232c0-1.922-1.015-2.936-2.936-2.936h-15.847c-1.932 0-2.936 1.015-2.936 2.936v14.163c0 1.922 1.004 2.925 2.936 2.925zM11.221 24.751h9.845v-1.738h-9.845v1.738zM21.11 12.423h3.713c0.551 0 0.939 0.097 1.382 0.583l3.39 3.811c0.291 0.324 0.443 0.777 0.443 1.166v3.811c0 0.81-0.421 1.22-1.231 1.22h-1.738v1.738h1.77c1.921 0 2.936-1.004 2.936-2.925v-3.811c0-1.058-0.173-1.555-0.766-2.224l-3.67-4.145c-0.637-0.712-1.349-0.961-2.407-0.961h-3.821v1.738zM24.078 18.112h4.707c0-0.259-0.097-0.399-0.259-0.583l-3.217-3.616c-0.237-0.248-0.518-0.41-0.82-0.41h-1.339v3.692c0 0.572 0.356 0.918 0.928 0.918zM8.35 27.763c2.029 0 3.681-1.652 3.681-3.692 0-2.029-1.652-3.681-3.681-3.681-2.040 0-3.703 1.652-3.703 3.681 0 2.040 1.662 3.692 3.703 3.692zM8.35 26.295c-1.231 0-2.235-0.993-2.235-2.224 0-1.22 1.004-2.224 2.235-2.224 1.22 0 2.213 1.004 2.213 2.224 0 1.231-0.993 2.224-2.213 2.224zM23.906 27.763c2.040 0 3.681-1.652 3.681-3.692 0-2.029-1.641-3.681-3.681-3.681s-3.692 1.652-3.692 3.681c0 2.040 1.652 3.692 3.692 3.692zM23.906 26.295c-1.22 0-2.224-0.993-2.224-2.224 0-1.22 1.004-2.224 2.224-2.224 1.209 0 2.213 1.004 2.213 2.224 0 1.231-0.982 2.224-2.213 2.224z"></path>
</svg>
