<!-- Generated by IcoMoon.io -->
<svg version="1.1" xmlns="http://www.w3.org/2000/svg" width="32" height="32" viewBox="0 0 32 32">
<title>box-trucka-fill</title>
<path d="M20.579 21.112v-13.792c0-1.921-1.004-2.935-2.935-2.935h-14.364c-1.932 0-2.935 1.014-2.935 2.935v14.158c0 1.921 1.004 2.925 2.935 2.925h0.734c-0.022-0.14-0.032-0.291-0.032-0.442 0-2.407 1.964-4.371 4.371-4.371s4.36 1.964 4.36 4.371c0 0.151-0.011 0.302-0.032 0.442h6.874c-0.022-0.151-0.032-0.302-0.032-0.453 0-1.101 0.367-2.104 1.058-2.838zM22.058 10.342v9.702c0.518-0.291 1.133-0.464 1.781-0.464 2.407 0 4.414 1.964 4.414 4.371 0 0.151-0.011 0.302-0.032 0.453h0.658c1.899 0 2.892-1.014 2.892-2.925v-3.809c0-1.058-0.173-1.554-0.766-2.223l-3.669-4.144c-0.637-0.712-1.349-0.96-2.407-0.96h-2.871zM24.853 17.227c-0.604 0-0.982-0.367-0.982-0.982v-3.907h0.95c0.496 0 0.82 0.086 1.241 0.55l3.291 3.691c0.173 0.194 0.291 0.399 0.335 0.647h-4.835zM8.352 27.069c1.727 0 3.108-1.392 3.108-3.108s-1.392-3.108-3.108-3.108c-1.716 0-3.108 1.392-3.108 3.108 0 1.705 1.392 3.108 3.108 3.108zM23.881 27.069c1.727 0 3.108-1.392 3.108-3.119 0-1.716-1.392-3.108-3.108-3.108s-3.108 1.392-3.108 3.108c0 1.716 1.392 3.119 3.108 3.119z"></path>
</svg>
