<!-- Generated by IcoMoon.io -->
<svg version="1.1" xmlns="http://www.w3.org/2000/svg" width="32" height="32" viewBox="0 0 32 32">
<title>brain-head-profile</title>
<path d="M17.629 30.614c4.434 0 7.081-1.566 7.081-4.169v-6.055c1.908-1.632 3.033-4.29 3.033-7.224 0-6.783-4.401-11.283-10.985-11.283-6.551 0-10.919 4.412-10.919 11.029 0 0.408 0.011 0.739 0.044 1.048l-1.533 2.746c-0.397 0.717-0.585 1.39-0.585 2.018 0 1.224 0.772 2.206 2.074 2.493v2.493c0 2.085 1.445 3.088 3.342 2.89l2.25-0.243-0.783-0.827v0.915c0 2.603 2.603 4.169 6.982 4.169zM17.629 28.838c-3.309 0-5.305-1.048-5.305-2.746v-1.401c0-0.154-0.088-0.221-0.243-0.21l-3.132 0.353c-0.849 0.088-1.335-0.287-1.335-1.257v-3.662c0-0.11-0.088-0.188-0.221-0.188h-0.585c-0.794 0-1.246-0.397-1.246-1.037 0-0.32 0.11-0.706 0.331-1.103l1.82-3.265c-0.077-0.485-0.11-0.971-0.11-1.434 0-5.548 3.651-9.232 9.154-9.232 5.515 0 9.209 3.794 9.209 9.507 0 2.746-1.147 5.129-3.033 6.342v6.585c0 1.698-1.996 2.746-5.305 2.746zM9.412 11.037c0 2.129 1.478 3.562 3.662 3.562 2.151 0 3.618-1.279 3.618-3.199 0-0.794-0.276-1.467-0.783-1.886-0.221-0.188-0.375-0.254-0.585-0.254-0.32 0-0.562 0.21-0.562 0.518 0 0.342 0.221 0.452 0.441 0.662 0.221 0.221 0.353 0.54 0.353 0.937 0 1.246-0.982 2.074-2.471 2.074-1.522 0-2.526-0.96-2.526-2.415 0-0.882 0.463-1.699 1.224-2.129l-0.573-1.026c-1.092 0.64-1.798 1.864-1.798 3.154zM10.934 8.081c0 1.368 0.971 2.294 2.393 2.294 0.298 0 0.573-0.265 0.573-0.573s-0.265-0.574-0.573-0.574c-0.75 0-1.246-0.452-1.246-1.147 0-0.728 0.607-1.257 1.445-1.257 0.452 0 0.915 0.165 1.29 0.452l0.673-0.938c-0.573-0.43-1.246-0.662-1.952-0.662-1.478 0-2.603 1.026-2.603 2.404zM13.956 7.926c-0.011 0.342 0.232 0.607 0.574 0.607 0.331 0 0.551-0.221 0.563-0.563 0.055-1.037 0.794-1.754 1.82-1.765 0.607 0 1.147 0.32 1.357 0.827 0.088 0.165 0.265 0.165 0.518 0.099 0.132-0.044 0.287-0.055 0.441-0.055 1.037 0 1.842 0.805 1.842 1.875 0 2.592-3.783 2.151-3.783 4.908 0 1.246 1.004 2.129 2.415 2.129 0.099 0 0.198 0 0.32 0 0.188 1.125 0.915 1.897 1.82 1.897 1.301 0 2.228-1.489 2.228-3.551 0-0.805-0.055-1.335-0.099-1.842l-1.169 0.331c0.055 0.496 0.121 0.927 0.121 1.489 0 1.357-0.485 2.427-1.081 2.427-0.518 0-0.86-0.64-0.86-1.566 0-0.154-0.11-0.232-0.254-0.232-0.176 0-0.386 0.011-0.518 0.011-1.18 0-1.765-0.375-1.765-1.103 0-2.007 3.783-1.434 3.783-4.897 0-1.721-1.257-3.033-2.89-3.033-0.121 0-0.265 0.011-0.408 0.044-0.485-0.563-1.224-0.893-2.018-0.893-1.665 0-2.89 1.169-2.956 2.857zM20.662 13.485c0 0.309 0.232 0.552 0.552 0.585 2.007 0.121 3.375-1.081 3.375-2.978 0-1.621-1.18-2.846-2.923-3.011l-0.176 1.158c1.169-0.055 1.952 0.695 1.952 1.853 0 1.191-0.871 1.93-2.206 1.831-0.298-0.022-0.574 0.254-0.574 0.562zM17.904 14.114c-0.342 0.132-0.783 0.21-1.191 0.21-1.026 0-1.996-0.441-2.261-1.037l-0.96 0.794c0.64 0.871 1.809 1.39 3.132 1.39 0.54 0 1.125-0.088 1.654-0.265l-0.375-1.092zM15.842 10.143l0.375 1.103c1.5-0.254 2.294-1.158 2.294-2.647 0-0.298-0.276-0.574-0.585-0.574s-0.563 0.265-0.563 0.585c0 0.971-0.463 1.423-1.522 1.533z"></path>
</svg>
