<!-- Generated by IcoMoon.io -->
<svg version="1.1" xmlns="http://www.w3.org/2000/svg" width="32" height="32" viewBox="0 0 32 32">
<title>brain</title>
<path d="M1.882 15.18c0 4.026 2.757 6.695 6.893 6.695 4.070 0 6.794-2.393 6.794-6 0-1.511-0.529-2.724-1.412-3.474-0.408-0.342-0.64-0.452-1.026-0.452-0.507 0-0.86 0.309-0.86 0.761 0 0.551 0.32 0.695 0.827 1.158 0.463 0.452 0.728 1.136 0.728 1.974 0 2.559-2.007 4.268-5.018 4.268-3.088 0-5.151-1.974-5.151-4.941 0-1.699 0.86-3.309 2.272-4.213l-0.882-1.533c-1.963 1.224-3.165 3.419-3.165 5.757zM4.86 9.434c0 2.46 1.71 4.213 4.412 4.213 0.474 0 0.882-0.408 0.882-0.882 0-0.485-0.408-0.893-0.882-0.893-1.632 0-2.636-1.026-2.636-2.438 0-1.566 1.29-2.669 3.022-2.669 0.805 0 1.665 0.254 2.46 0.794l1.037-1.445c-1.103-0.772-2.327-1.125-3.485-1.125-2.669 0-4.809 1.831-4.809 4.445zM10.739 9.136c-0.022 0.574 0.364 0.96 0.871 0.96 0.485 0 0.86-0.32 0.882-0.882 0.077-2.096 1.599-3.629 3.739-3.629 1.29 0 2.415 0.684 2.868 1.699 0.088 0.154 0.209 0.165 0.419 0.11 0.364-0.099 0.772-0.154 1.169-0.154 1.974 0.022 3.849 1.5 3.849 3.882 0 5.173-7.279 4.467-7.279 9.518 0 2.404 1.908 3.904 4.379 3.904 0.265 0 0.551-0.011 0.838-0.022 0.254 1.875 1.434 3.695 3.342 3.695 2.757 0 4.103-3.353 4.103-6.618 0-1.423-0.077-2.382-0.176-3.287l-1.776 0.496c0.099 0.882 0.188 1.71 0.188 2.768 0 2.68-1.015 4.864-2.338 4.864-1.368 0-1.919-1.82-1.919-3.276 0-0.11-0.066-0.187-0.221-0.176-0.309 0-0.728 0-1.004 0-2.195 0-3.64-0.673-3.64-2.382 0-4.037 7.279-3.121 7.279-9.485 0-3.397-2.515-5.658-5.393-5.658-0.221 0-0.529 0.033-0.838 0.11-0.882-1.092-2.294-1.754-3.838-1.754-3.132 0-5.371 2.195-5.504 5.316zM23.71 19.956c0 0.496 0.397 0.849 0.893 0.882 3.783 0.243 6.309-1.985 6.309-5.57 0-2.923-2.085-5.162-5.217-5.581l-0.276 1.765c2.228 0.033 3.717 1.555 3.717 3.816 0 2.493-1.82 4.015-4.533 3.805-0.496-0.044-0.893 0.397-0.893 0.882zM18.040 21.39c-0.651 0.232-1.412 0.342-2.129 0.342-1.864 0-3.761-0.728-4.489-1.853l-1.467 1.191c1.158 1.445 3.254 2.438 5.768 2.438 0.904 0 1.919-0.132 2.923-0.43l-0.607-1.687zM14.5 13.603l0.596 1.677c2.779-0.54 4.026-2.283 4.026-4.864 0-0.485-0.408-0.882-0.893-0.882s-0.882 0.397-0.882 0.882c0 1.809-0.772 2.89-2.846 3.187z"></path>
</svg>
