<!-- Generated by IcoMoon.io -->
<svg version="1.1" xmlns="http://www.w3.org/2000/svg" width="32" height="32" viewBox="0 0 32 32">
<title>brakesignal-dashed</title>
<path d="M15.739 27.154c5.879 0 10.765-4.875 10.765-10.754s-4.886-10.754-10.776-10.754c-5.879 0-10.743 4.864-10.743 10.754 0 5.879 4.875 10.754 10.754 10.754zM15.739 25.279c-4.919 0-8.868-3.949-8.868-8.879 0-4.941 3.938-8.89 8.857-8.89 4.93 0 8.89 3.949 8.901 8.89 0.011 4.919-3.949 8.879-8.89 8.879zM1.665 11.901c0.507 0.143 0.971-0.088 1.18-0.596 0.441-1.103 1.015-2.151 1.71-3.099 0.32-0.419 0.276-0.96-0.132-1.301-0.441-0.353-1.026-0.298-1.368 0.165-0.816 1.092-1.478 2.305-1.974 3.585-0.221 0.551 0.055 1.070 0.585 1.246zM1.301 19.533c0.518-0.11 0.816-0.563 0.739-1.103-0.11-0.651-0.154-1.346-0.154-2.029 0-0.706 0.044-1.379 0.154-2.051 0.077-0.529-0.221-0.971-0.75-1.092-0.529-0.11-1.026 0.199-1.114 0.783-0.121 0.783-0.176 1.566-0.176 2.36 0 0.805 0.055 1.588 0.176 2.36 0.088 0.574 0.596 0.893 1.125 0.772zM4.423 25.886c0.408-0.353 0.452-0.882 0.132-1.312-0.695-0.949-1.268-1.996-1.71-3.099-0.21-0.507-0.673-0.739-1.18-0.585-0.529 0.176-0.805 0.684-0.585 1.235 0.496 1.279 1.158 2.493 1.974 3.585 0.342 0.474 0.926 0.529 1.368 0.176zM29.813 11.901c0.529-0.176 0.805-0.695 0.596-1.246-0.496-1.279-1.158-2.493-1.985-3.585-0.342-0.463-0.927-0.518-1.368-0.165-0.408 0.342-0.441 0.882-0.132 1.301 0.706 0.949 1.279 1.996 1.721 3.099 0.198 0.507 0.673 0.739 1.169 0.596zM30.176 19.533c0.54 0.121 1.048-0.198 1.125-0.772 0.121-0.772 0.176-1.555 0.176-2.36 0-0.794-0.055-1.577-0.176-2.36-0.077-0.585-0.574-0.893-1.114-0.783-0.529 0.121-0.816 0.563-0.75 1.092 0.11 0.673 0.154 1.346 0.154 2.051 0 0.684-0.044 1.379-0.154 2.029-0.066 0.54 0.221 0.993 0.739 1.103zM27.055 25.886c0.441 0.353 1.026 0.298 1.368-0.176 0.827-1.092 1.489-2.305 1.985-3.585 0.209-0.551-0.066-1.059-0.596-1.235-0.496-0.154-0.971 0.077-1.169 0.585-0.441 1.103-1.015 2.151-1.721 3.099-0.309 0.43-0.276 0.96 0.132 1.312z"></path>
</svg>
