<!-- Generated by IcoMoon.io -->
<svg version="1.1" xmlns="http://www.w3.org/2000/svg" width="32" height="32" viewBox="0 0 32 32">
<title>brazilianrealsign-circle-fill</title>
<path d="M15.956 27.206c6.154 0 11.25-5.107 11.25-11.25 0-6.154-5.107-11.25-11.261-11.25-6.143 0-11.239 5.096-11.239 11.25 0 6.143 5.107 11.25 11.25 11.25zM11.158 21.096c-0.441 0-0.75-0.298-0.75-0.739v-8.559c0-0.618 0.309-1.037 0.871-1.037h1.842c1.919 0 2.824 1.048 2.824 2.879 0 1.191-0.507 2.393-1.467 2.757l1.478 3.673c0.254 0.662-0.232 1.026-0.728 1.026-0.287 0-0.563-0.132-0.684-0.463l-1.511-3.949c-0.088 0.011-0.154 0.011-0.232 0.011h-0.893v3.662c0 0.441-0.309 0.739-0.75 0.739zM11.908 15.537h1.048c1.026 0 1.467-0.761 1.467-1.842 0-1.070-0.463-1.721-1.478-1.721h-1.037v3.562zM19.673 21.868c-0.265 0-0.474-0.221-0.474-0.485v-0.772c-1.323-0.154-2.14-0.993-2.305-2.173-0.088-0.584 0.276-0.915 0.673-0.915 0.309 0 0.573 0.198 0.618 0.574 0.066 0.684 0.386 1.147 1.015 1.268v-2.912l-0.397-0.199c-1.191-0.618-1.908-1.39-1.908-2.625 0-1.335 0.949-2.261 2.305-2.404v-0.75c0-0.254 0.21-0.474 0.474-0.474 0.254 0 0.474 0.221 0.474 0.474v0.761c1.235 0.187 1.985 1.037 2.118 2.14 0.099 0.64-0.287 0.927-0.684 0.927-0.309 0-0.596-0.21-0.629-0.585-0.044-0.585-0.32-1.048-0.805-1.213v2.835l0.375 0.21c1.323 0.717 1.93 1.489 1.93 2.581 0 1.412-0.927 2.327-2.305 2.493v0.761c0 0.265-0.221 0.485-0.474 0.485zM19.198 12.46c-0.551 0.132-0.893 0.529-0.893 1.114 0 0.607 0.386 0.96 0.838 1.224l0.055 0.033v-2.371zM20.147 19.364c0.585-0.121 0.915-0.551 0.915-1.136 0-0.529-0.386-0.938-0.882-1.246l-0.033-0.011v2.393z"></path>
</svg>
