<!-- Generated by IcoMoon.io -->
<svg version="1.1" xmlns="http://www.w3.org/2000/svg" width="32" height="32" viewBox="0 0 32 32">
<title>brazilianrealsign-square-fill</title>
<path d="M9.11 25.974h13.379c2.316 0 3.463-1.147 3.463-3.419v-13.467c0-2.272-1.147-3.419-3.463-3.419h-13.379c-2.305 0-3.463 1.136-3.463 3.419v13.467c0 2.283 1.158 3.419 3.463 3.419zM11.007 20.945c-0.441 0-0.75-0.298-0.75-0.739v-8.559c0-0.618 0.309-1.037 0.871-1.037h1.842c1.919 0 2.824 1.048 2.824 2.879 0 1.191-0.507 2.393-1.467 2.757l1.478 3.673c0.265 0.662-0.232 1.026-0.717 1.026-0.298 0-0.573-0.132-0.695-0.463l-1.511-3.949c-0.088 0.011-0.154 0.011-0.232 0.011h-0.893v3.662c0 0.441-0.309 0.739-0.75 0.739zM11.757 15.386h1.059c1.015 0 1.456-0.761 1.456-1.842 0-1.070-0.463-1.721-1.467-1.721h-1.048v3.563zM19.522 21.717c-0.254 0-0.474-0.221-0.474-0.485v-0.772c-1.324-0.154-2.14-0.993-2.305-2.173-0.088-0.585 0.287-0.915 0.673-0.915 0.309 0 0.574 0.199 0.618 0.574 0.066 0.684 0.386 1.147 1.015 1.268v-2.912l-0.386-0.198c-1.202-0.618-1.919-1.39-1.919-2.625 0-1.335 0.949-2.261 2.305-2.404v-0.75c0-0.254 0.221-0.474 0.474-0.474s0.474 0.221 0.474 0.474v0.761c1.235 0.188 1.985 1.037 2.118 2.14 0.099 0.64-0.287 0.927-0.684 0.927-0.309 0-0.596-0.21-0.629-0.585-0.044-0.585-0.309-1.048-0.805-1.213v2.835l0.375 0.21c1.324 0.717 1.93 1.489 1.93 2.581 0 1.412-0.915 2.327-2.305 2.493v0.761c0 0.265-0.221 0.485-0.474 0.485zM19.048 12.309c-0.552 0.132-0.893 0.529-0.893 1.114 0 0.607 0.397 0.96 0.838 1.224l0.055 0.033v-2.371zM19.996 19.213c0.585-0.121 0.915-0.552 0.915-1.136 0-0.529-0.386-0.938-0.871-1.246l-0.044-0.011v2.393z"></path>
</svg>
