<!-- Generated by IcoMoon.io -->
<svg version="1.1" xmlns="http://www.w3.org/2000/svg" width="32" height="32" viewBox="0 0 32 32">
<title>brazilianrealsign-square</title>
<path d="M9.11 25.974h13.379c2.316 0 3.463-1.147 3.463-3.419v-13.467c0-2.272-1.147-3.419-3.463-3.419h-13.379c-2.305 0-3.463 1.136-3.463 3.419v13.467c0 2.283 1.158 3.419 3.463 3.419zM9.132 24.198c-1.103 0-1.71-0.585-1.71-1.732v-13.29c0-1.147 0.607-1.732 1.71-1.732h13.335c1.092 0 1.71 0.585 1.71 1.732v13.29c0 1.147-0.618 1.732-1.71 1.732h-13.335zM10.952 20.79c0.419 0 0.717-0.298 0.717-0.728v-3.551h0.871c0.077 0 0.143 0 0.232 0l1.467 3.816c0.121 0.331 0.386 0.463 0.673 0.463 0.463 0 0.937-0.364 0.684-0.993l-1.434-3.563c0.938-0.364 1.423-1.533 1.423-2.691 0-1.765-0.871-2.779-2.735-2.779h-1.787c-0.54 0-0.838 0.408-0.838 1.004v8.294c0 0.43 0.298 0.728 0.728 0.728zM11.669 15.386v-3.452h1.026c0.971 0 1.423 0.629 1.423 1.665 0 1.048-0.43 1.787-1.412 1.787h-1.037zM19.213 20.338c1.588 0 2.68-0.915 2.68-2.427 0-1.070-0.574-1.831-1.875-2.515l-0.982-0.518c-0.574-0.298-1.169-0.673-1.169-1.401 0-0.684 0.507-1.125 1.268-1.125 0.838 0 1.257 0.529 1.313 1.279 0.033 0.353 0.309 0.562 0.607 0.562 0.386 0 0.75-0.287 0.662-0.893-0.154-1.202-1.070-2.118-2.581-2.118s-2.625 0.927-2.625 2.349c0 1.202 0.684 1.974 1.853 2.548l0.949 0.474c0.629 0.309 1.235 0.794 1.235 1.456 0 0.695-0.485 1.158-1.334 1.158-0.96 0-1.379-0.485-1.456-1.29-0.044-0.375-0.298-0.563-0.596-0.563-0.375 0-0.739 0.32-0.651 0.893 0.176 1.268 1.147 2.129 2.702 2.129zM19.202 21.518c0.243 0 0.452-0.21 0.452-0.452v-10.577c0-0.254-0.209-0.463-0.452-0.463s-0.463 0.21-0.463 0.463v10.577c0 0.243 0.221 0.452 0.463 0.452z"></path>
</svg>
