<!-- Generated by IcoMoon.io -->
<svg version="1.1" xmlns="http://www.w3.org/2000/svg" width="32" height="32" viewBox="0 0 32 32">
<title>brazilianrealsign-circle</title>
<path d="M15.956 27.206c6.154 0 11.25-5.107 11.25-11.25 0-6.154-5.107-11.25-11.261-11.25-6.143 0-11.239 5.096-11.239 11.25 0 6.143 5.107 11.25 11.25 11.25zM15.956 25.331c-5.206 0-9.364-4.169-9.364-9.375s4.147-9.375 9.353-9.375c5.206 0 9.386 4.169 9.386 9.375s-4.169 9.375-9.375 9.375zM11.092 20.941c0.419 0 0.717-0.298 0.717-0.728v-3.552h0.871c0.077 0 0.143 0 0.232 0l1.467 3.816c0.121 0.331 0.386 0.463 0.662 0.463 0.474 0 0.938-0.364 0.695-0.993l-1.434-3.562c0.938-0.364 1.423-1.533 1.423-2.691 0-1.765-0.871-2.779-2.735-2.779h-1.787c-0.54 0-0.838 0.408-0.838 1.004v8.294c0 0.43 0.298 0.728 0.728 0.728zM11.809 15.537v-3.452h1.015c0.982 0 1.434 0.629 1.434 1.665 0 1.048-0.43 1.787-1.423 1.787h-1.026zM19.353 20.489c1.588 0 2.68-0.915 2.68-2.426 0-1.070-0.574-1.831-1.875-2.515l-0.982-0.518c-0.585-0.298-1.169-0.673-1.169-1.401 0-0.684 0.507-1.125 1.268-1.125 0.838 0 1.257 0.529 1.312 1.279 0.033 0.353 0.309 0.563 0.607 0.563 0.375 0 0.75-0.287 0.662-0.893-0.154-1.202-1.070-2.118-2.581-2.118s-2.625 0.926-2.625 2.349c0 1.202 0.684 1.974 1.842 2.548l0.96 0.474c0.629 0.309 1.235 0.794 1.235 1.456 0 0.695-0.485 1.158-1.335 1.158-0.96 0-1.379-0.485-1.456-1.29-0.044-0.375-0.298-0.562-0.596-0.562-0.386 0-0.739 0.32-0.651 0.893 0.176 1.268 1.147 2.129 2.702 2.129zM19.342 21.669c0.243 0 0.452-0.209 0.452-0.452v-10.577c0-0.254-0.209-0.463-0.452-0.463-0.254 0-0.463 0.21-0.463 0.463v10.577c0 0.243 0.209 0.452 0.463 0.452z"></path>
</svg>
