<!-- Generated by IcoMoon.io -->
<svg version="1.1" xmlns="http://www.w3.org/2000/svg" width="32" height="32" viewBox="0 0 32 32">
<title>briefcase-circle</title>
<path d="M15.956 27.206c6.154 0 11.25-5.107 11.25-11.25 0-6.154-5.107-11.25-11.261-11.25-6.143 0-11.239 5.096-11.239 11.25 0 6.143 5.107 11.25 11.25 11.25zM15.956 25.331c-5.206 0-9.364-4.169-9.364-9.375s4.147-9.375 9.353-9.375c5.206 0 9.386 4.169 9.386 9.375s-4.169 9.375-9.375 9.375zM11.412 20.853h9.088c1.158 0 1.743-0.562 1.743-1.71v-5.504c0-1.158-0.585-1.721-1.743-1.721h-9.088c-1.158 0-1.732 0.562-1.732 1.721v5.504c0 1.147 0.573 1.71 1.732 1.71zM15.073 17.136c-0.386 0-0.618-0.221-0.618-0.629v-0.452c-1.577-0.11-3.132-0.397-4.776-0.993v-0.982c2.073 0.86 4.081 1.147 6.276 1.147s4.202-0.287 6.287-1.147v0.982c-1.654 0.596-3.209 0.882-4.787 0.993v0.452c0 0.408-0.232 0.629-0.618 0.629h-1.765zM12.592 12.415h1.059v-1.004c0-0.287 0.187-0.463 0.496-0.463h3.64c0.298 0 0.485 0.176 0.485 0.463v1.004h1.048v-1.059c0-0.871-0.573-1.401-1.478-1.401h-3.772c-0.904 0-1.478 0.529-1.478 1.401v1.059z"></path>
</svg>
