<!-- Generated by IcoMoon.io -->
<svg version="1.1" xmlns="http://www.w3.org/2000/svg" width="32" height="32" viewBox="0 0 32 32">
<title>briefcase-circle-fill</title>
<path d="M15.956 27.217c6.154 0 11.25-5.096 11.25-11.25 0-6.143-5.107-11.25-11.261-11.25-6.143 0-11.239 5.107-11.239 11.25 0 6.154 5.107 11.25 11.25 11.25zM9.493 19.265v-4.191c1.699 0.618 3.298 0.915 4.93 1.026v0.463c0 0.408 0.232 0.651 0.629 0.651h1.831c0.397 0 0.629-0.243 0.629-0.651v-0.463c1.632-0.11 3.232-0.408 4.941-1.026v4.191c0 1.202-0.607 1.787-1.798 1.787h-9.375c-1.191 0-1.787-0.585-1.787-1.787zM9.493 14.059v-0.452c0-1.191 0.596-1.776 1.787-1.776h1.213v-0.574c0-0.904 0.596-1.456 1.522-1.456h3.904c0.926 0 1.522 0.551 1.522 1.456v0.574h1.213c1.191 0 1.798 0.585 1.798 1.776v0.452c-2.151 0.871-4.224 1.18-6.485 1.18s-4.335-0.309-6.474-1.18zM13.585 11.831h4.765v-0.518c0-0.298-0.198-0.474-0.507-0.474h-3.75c-0.32 0-0.507 0.176-0.507 0.474v0.518z"></path>
</svg>
