<!-- Generated by IcoMoon.io -->
<svg version="1.1" xmlns="http://www.w3.org/2000/svg" width="32" height="32" viewBox="0 0 32 32">
<title>bubble-left-and-bubble-right</title>
<path d="M7.445 27.798c0.585 0 0.982-0.199 1.688-0.816l4.632-4.147-1.279-1.235-4.588 4.235v-3.154c0-0.629-0.375-0.915-0.86-0.915h-2.151c-1.952 0-3.11-1.070-3.11-3.121v-10.048c0-2.051 1.158-3.132 3.11-3.132h15.563c1.952 0 3.11 1.081 3.11 3.132v1.544h1.776v-1.61c0-2.989-1.776-4.732-4.776-4.732h-15.783c-2.879 0-4.776 1.743-4.776 4.732v10.158c0 3 1.897 4.732 4.776 4.732h1.456v3.022c0 0.849 0.43 1.357 1.213 1.357zM25.412 29.033c0.761 0 1.191-0.541 1.191-1.379v-2.647h0.463c2.768 0 4.61-1.676 4.61-4.555v-6.518c0-2.89-1.842-4.566-4.61-4.566h-10.71c-2.89 0-4.599 1.677-4.599 4.566v6.518c0 2.89 1.71 4.555 4.599 4.555h3.805l3.684 3.154c0.673 0.573 1.037 0.871 1.566 0.871zM24.949 27.037l-3.54-3.176c-0.441-0.386-0.706-0.518-1.312-0.518h-3.629c-1.842 0-2.945-0.993-2.945-2.945l0.011-6.408c0-1.941 1.092-2.956 2.934-2.956h10.5c1.831 0 2.934 1.015 2.934 2.956v6.408c0 1.952-1.103 2.945-2.934 2.945h-1.169c-0.474 0-0.849 0.287-0.849 0.904v2.791z"></path>
</svg>
