<!-- Generated by IcoMoon.io -->
<svg version="1.1" xmlns="http://www.w3.org/2000/svg" width="32" height="32" viewBox="0 0 32 32">
<title>bubble-right-circle</title>
<path d="M15.956 27.206c6.154 0 11.25-5.107 11.25-11.25 0-6.154-5.107-11.25-11.261-11.25-6.143 0-11.239 5.096-11.239 11.25 0 6.143 5.107 11.25 11.25 11.25zM15.956 25.331c-5.206 0-9.364-4.169-9.364-9.375s4.147-9.375 9.353-9.375c5.206 0 9.386 4.169 9.386 9.375s-4.169 9.375-9.375 9.375zM18.724 22.32c0.298 0 0.474-0.209 0.474-0.54v-1.577h0.265c1.599 0 2.482-0.893 2.482-2.493v-4.158c0-1.588-0.882-2.482-2.482-2.482h-7.015c-1.599 0-2.482 0.904-2.482 2.482v4.158c0 1.599 0.882 2.493 2.482 2.493h3.695l1.974 1.787c0.243 0.232 0.386 0.331 0.607 0.331z"></path>
</svg>
