<!-- Generated by IcoMoon.io -->
<svg version="1.1" xmlns="http://www.w3.org/2000/svg" width="32" height="32" viewBox="0 0 32 32">
<title>bubble-middle-bottom</title>
<path d="M15.897 28.217c0.496 0 0.96-0.21 1.401-0.971l2.040-3.408h3.684c3.287 0 5.051-1.82 5.051-5.051v-8.448c0-3.232-1.765-5.051-5.051-5.051h-14.206c-3.287 0-5.051 1.809-5.051 5.051v8.448c0 3.243 1.765 5.051 5.051 5.051h3.64l2.040 3.408c0.441 0.761 0.904 0.971 1.401 0.971zM15.897 26.408l-1.842-3.452c-0.364-0.717-0.629-0.893-1.412-0.893h-3.827c-2.228 0-3.276-1.136-3.276-3.287v-8.437c0-2.151 1.048-3.276 3.276-3.276h14.206c2.217 0 3.276 1.125 3.276 3.276v8.437c0 2.151-1.059 3.287-3.276 3.287h-3.871c-0.783 0-1.048 0.176-1.412 0.893l-1.842 3.452z"></path>
</svg>
