<!-- Generated by IcoMoon.io -->
<svg version="1.1" xmlns="http://www.w3.org/2000/svg" width="32" height="32" viewBox="0 0 32 32">
<title>bubbles-and-sparkles-fill</title>
<path d="M17.897 19.507c2.25 0 4.070-1.809 4.070-4.070 0-2.25-1.82-4.070-4.070-4.070s-4.070 1.82-4.070 4.070c0 2.261 1.82 4.070 4.070 4.070zM7.629 16.871c1.588 0 2.912-1.313 2.912-2.923 0-1.588-1.323-2.901-2.912-2.901-1.61 0-2.923 1.312-2.923 2.901 0 1.61 1.313 2.923 2.923 2.923zM11.93 26.853c1.71 0 3.121-1.412 3.121-3.143 0-1.71-1.412-3.121-3.121-3.121-1.732 0-3.143 1.412-3.143 3.121 0 1.732 1.412 3.143 3.143 3.143zM23.93 27.206c0.232 0 0.43-0.176 0.463-0.419 0.353-2.647 0.364-2.625 3.176-3.165 0.243-0.044 0.419-0.232 0.419-0.463 0-0.243-0.176-0.419-0.43-0.463-2.768-0.397-2.824-0.441-3.165-3.154-0.022-0.254-0.221-0.43-0.463-0.43-0.254 0-0.441 0.187-0.463 0.441-0.331 2.647-0.386 2.614-3.187 3.143-0.243 0.055-0.408 0.243-0.408 0.463 0 0.243 0.176 0.419 0.452 0.463 2.757 0.452 2.812 0.496 3.143 3.143 0.022 0.254 0.209 0.441 0.463 0.441zM11.952 10.761c0.187 0 0.342-0.121 0.375-0.32 0.375-2.007 0.32-1.941 2.327-2.338 0.198-0.033 0.331-0.188 0.331-0.375s-0.132-0.331-0.331-0.364c-2.007-0.397-1.952-0.331-2.327-2.338-0.033-0.199-0.188-0.32-0.375-0.32s-0.342 0.121-0.375 0.32c-0.375 2.007-0.32 1.941-2.327 2.338-0.199 0.033-0.331 0.176-0.331 0.364s0.132 0.342 0.331 0.375c2.007 0.397 1.952 0.331 2.327 2.338 0.033 0.198 0.187 0.32 0.375 0.32zM27.548 11.147c0-2.879-2.338-5.217-5.228-5.217-2.526 0-4.632 1.809-5.096 4.202 0.221-0.033 0.441-0.044 0.673-0.044 2.956 0 5.349 2.393 5.349 5.349 0 0.298-0.022 0.574-0.066 0.838 2.471-0.397 4.368-2.537 4.368-5.129z"></path>
</svg>
