<!-- Generated by IcoMoon.io -->
<svg version="1.1" xmlns="http://www.w3.org/2000/svg" width="32" height="32" viewBox="0 0 32 32">
<title>bubble-left-and-exclamationmark-bubble-right-fill</title>
<path d="M7.004 27.401c0.441 0 0.75-0.221 1.268-0.706l3.21-2.989c-0.618-0.496-1.125-1.279-1.125-3.077v-7.313c0-3.375 2.051-5.393 5.437-5.393h7.721l-0.011-0.408c-0.165-2.272-1.654-3.739-4.18-3.739h-15.132c-2.526 0-4.191 1.511-4.191 4.147v10.831c0 2.614 1.665 4.301 4.191 4.301h1.831v3.221c0 0.673 0.364 1.125 0.982 1.125zM24.827 28.923c0.629 0 0.982-0.441 0.982-1.125v-3.21h1.169c2.526 0 4.191-1.688 4.191-4.312v-6.706c0-2.625-1.665-4.136-4.191-4.136h-10.93c-2.636 0-4.18 1.511-4.18 4.147v6.695c0 2.625 1.544 4.312 4.18 4.312h3.529l3.982 3.64c0.518 0.474 0.827 0.695 1.268 0.695zM21.563 18.357c-0.496 0-0.761-0.276-0.783-0.783l-0.121-3.607c-0.022-0.54 0.364-0.915 0.893-0.915 0.518 0 0.927 0.386 0.904 0.927l-0.132 3.596c-0.022 0.518-0.287 0.783-0.761 0.783zM21.551 21.5c-0.573 0-1.070-0.463-1.070-1.026s0.485-1.026 1.070-1.026c0.574 0 1.059 0.452 1.059 1.026s-0.496 1.026-1.059 1.026z"></path>
</svg>
