<!-- Generated by IcoMoon.io -->
<svg version="1.1" xmlns="http://www.w3.org/2000/svg" width="32" height="32" viewBox="0 0 32 32">
<title>bubble-left-circle</title>
<path d="M15.956 27.206c6.154 0 11.25-5.107 11.25-11.25 0-6.154-5.107-11.25-11.261-11.25-6.143 0-11.239 5.096-11.239 11.25 0 6.143 5.107 11.25 11.25 11.25zM15.956 25.331c-5.206 0-9.364-4.169-9.364-9.375s4.147-9.375 9.353-9.375c5.206 0 9.386 4.169 9.386 9.375s-4.169 9.375-9.375 9.375zM13.187 22.32c0.221 0 0.364-0.099 0.618-0.331l1.974-1.787h3.684c1.599 0 2.482-0.893 2.482-2.493v-4.158c0-1.577-0.882-2.482-2.482-2.482h-7.015c-1.599 0-2.482 0.893-2.482 2.482v4.158c0 1.599 0.882 2.493 2.482 2.493h0.265v1.577c0 0.331 0.176 0.54 0.474 0.54z"></path>
</svg>
