<!-- Generated by IcoMoon.io -->
<svg version="1.1" xmlns="http://www.w3.org/2000/svg" width="32" height="32" viewBox="0 0 32 32">
<title>bubble-middle-top</title>
<path d="M15.897 3.765c-0.496 0-0.96 0.21-1.401 0.971l-2.040 3.408h-3.64c-3.287 0-5.051 1.809-5.051 5.051v8.449c0 3.243 1.765 5.051 5.051 5.051h14.206c3.287 0 5.051-1.82 5.051-5.051v-8.449c0-3.232-1.765-5.051-5.051-5.051h-3.684l-2.040-3.408c-0.441-0.761-0.904-0.971-1.401-0.971zM15.897 5.574l1.842 3.452c0.364 0.717 0.629 0.893 1.412 0.893h3.871c2.217 0 3.276 1.125 3.276 3.276v8.438c0 2.151-1.059 3.287-3.276 3.287h-14.206c-2.228 0-3.276-1.136-3.276-3.287v-8.438c0-2.151 1.048-3.276 3.276-3.276h3.827c0.783 0 1.048-0.176 1.412-0.893l1.842-3.452z"></path>
</svg>
