<!-- Generated by IcoMoon.io -->
<svg version="1.1" xmlns="http://www.w3.org/2000/svg" width="32" height="32" viewBox="0 0 32 32">
<title>bubble-right</title>
<path d="M21.29 27.996c0.772 0 1.202-0.551 1.202-1.401v-2.868h0.529c3.287 0 5.051-1.809 5.051-5.051v-8.449c0-3.243-1.765-5.051-5.051-5.051h-14.206c-3.287 0-5.051 1.82-5.051 5.051v8.449c0 3.232 1.765 5.051 5.051 5.051h7.081l3.805 3.386c0.673 0.596 1.048 0.882 1.588 0.882zM20.838 25.978l-3.529-3.507c-0.419-0.43-0.728-0.518-1.346-0.518h-7.147c-2.217 0-3.276-1.136-3.276-3.287v-8.437c0-2.151 1.059-3.276 3.276-3.276h14.206c2.228 0 3.276 1.125 3.276 3.276v8.437c0 2.151-1.048 3.287-3.276 3.287h-1.357c-0.596 0-0.827 0.232-0.827 0.827v3.199z"></path>
</svg>
