<!-- Generated by IcoMoon.io -->
<svg version="1.1" xmlns="http://www.w3.org/2000/svg" width="32" height="32" viewBox="0 0 32 32">
<title>bubble-left-circle-fill</title>
<path d="M15.956 27.217c6.154 0 11.25-5.096 11.25-11.25 0-6.143-5.107-11.25-11.261-11.25-6.143 0-11.239 5.107-11.239 11.25 0 6.154 5.107 11.25 11.25 11.25zM13.11 22.518c-0.309 0-0.496-0.232-0.496-0.574v-1.621h-0.276c-1.643 0-2.559-0.927-2.559-2.57v-4.29c0-1.621 0.915-2.548 2.559-2.548h7.235c1.643 0 2.559 0.926 2.559 2.548v4.29c0 1.643-0.915 2.57-2.559 2.57h-3.794l-2.029 1.842c-0.265 0.254-0.419 0.353-0.64 0.353z"></path>
</svg>
