<!-- Generated by IcoMoon.io -->
<svg version="1.1" xmlns="http://www.w3.org/2000/svg" width="32" height="32" viewBox="0 0 32 32">
<title>building-2-crop-circle</title>
<path d="M15.956 26.268c0.96 0 1.886-0.132 2.757-0.408v-13.677c0-0.75-0.43-1.246-1.158-1.246h-7.401c-0.717 0-1.158 0.496-1.158 1.246v11.007c1.71 1.897 4.18 3.077 6.96 3.077zM11.588 23.323c-0.154 0-0.254-0.11-0.254-0.265v-1.169c0-0.154 0.099-0.265 0.254-0.265h1.202c0.143 0 0.265 0.11 0.265 0.265v1.169c0 0.154-0.121 0.265-0.265 0.265h-1.202zM14.897 23.323c-0.154 0-0.254-0.11-0.254-0.265v-1.169c0-0.154 0.099-0.265 0.254-0.265h1.202c0.154 0 0.265 0.11 0.265 0.265v1.169c0 0.154-0.11 0.265-0.265 0.265h-1.202zM11.588 20.412c-0.154 0-0.254-0.11-0.254-0.265v-1.169c0-0.143 0.099-0.265 0.254-0.265h1.202c0.143 0 0.265 0.121 0.265 0.265v1.169c0 0.154-0.121 0.265-0.265 0.265h-1.202zM14.897 20.412c-0.154 0-0.254-0.11-0.254-0.265v-1.169c0-0.143 0.099-0.265 0.254-0.265h1.202c0.154 0 0.265 0.121 0.265 0.265v1.169c0 0.154-0.11 0.265-0.265 0.265h-1.202zM11.588 17.5c-0.154 0-0.254-0.11-0.254-0.265v-1.158c0-0.154 0.099-0.276 0.254-0.276h1.202c0.143 0 0.265 0.121 0.265 0.276v1.158c0 0.154-0.121 0.265-0.265 0.265h-1.202zM14.897 17.5c-0.154 0-0.254-0.11-0.254-0.265v-1.158c0-0.154 0.099-0.276 0.254-0.276h1.202c0.154 0 0.265 0.121 0.265 0.276v1.158c0 0.154-0.11 0.265-0.265 0.265h-1.202zM11.588 14.621c-0.154 0-0.254-0.121-0.254-0.265v-1.169c0-0.165 0.099-0.265 0.254-0.265h1.202c0.143 0 0.265 0.099 0.265 0.265v1.169c0 0.143-0.121 0.265-0.265 0.265h-1.202zM14.897 14.621c-0.154 0-0.254-0.121-0.254-0.265v-1.169c0-0.165 0.099-0.265 0.254-0.265h1.202c0.154 0 0.265 0.099 0.265 0.265v1.169c0 0.143-0.11 0.265-0.265 0.265h-1.202zM19.574 25.563c1.82-0.761 3.342-2.074 4.357-3.739v-6.827c0-0.761-0.441-1.246-1.158-1.246h-3.198v11.813zM21.228 22.044c-0.132 0-0.221-0.088-0.221-0.199v-1.004c0-0.11 0.088-0.221 0.221-0.221h1.037c0.11 0 0.199 0.11 0.199 0.221v1.004c0 0.11-0.088 0.199-0.199 0.199h-1.037zM21.228 19.529c-0.132 0-0.221-0.088-0.221-0.221v-0.982c0-0.132 0.088-0.21 0.221-0.21h1.037c0.11 0 0.199 0.077 0.199 0.21v0.982c0 0.132-0.088 0.221-0.199 0.221h-1.037zM21.228 17.015c-0.132 0-0.221-0.088-0.221-0.221v-0.993c0-0.121 0.088-0.21 0.221-0.21h1.037c0.11 0 0.199 0.088 0.199 0.21v0.993c0 0.132-0.088 0.221-0.199 0.221h-1.037zM15.956 27.206c6.154 0 11.25-5.107 11.25-11.25 0-6.154-5.107-11.25-11.261-11.25-6.143 0-11.239 5.096-11.239 11.25 0 6.143 5.107 11.25 11.25 11.25zM15.956 25.331c-5.206 0-9.364-4.169-9.364-9.375s4.147-9.375 9.353-9.375c5.206 0 9.386 4.169 9.386 9.375s-4.169 9.375-9.375 9.375z"></path>
</svg>
