<!-- Generated by IcoMoon.io -->
<svg version="1.1" xmlns="http://www.w3.org/2000/svg" width="32" height="32" viewBox="0 0 32 32">
<title>building-2</title>
<path d="M18.563 28.232h8.382c1.114 0 1.82-0.783 1.82-2.007v-14.073c0-1.224-0.706-2.007-1.82-2.007h-7.588v1.776h7.004c0.43 0 0.629 0.21 0.629 0.64v13.257c0 0.43-0.199 0.64-0.629 0.64h-7.798v1.776zM22.798 16.21h1.776c0.221 0 0.375-0.154 0.375-0.375v-1.721c0-0.221-0.154-0.375-0.375-0.375h-1.776c-0.232 0-0.364 0.154-0.364 0.375v1.721c0 0.221 0.132 0.375 0.364 0.375zM22.798 20.423h1.776c0.221 0 0.375-0.154 0.375-0.375v-1.721c0-0.221-0.154-0.375-0.375-0.375h-1.776c-0.232 0-0.364 0.154-0.364 0.375v1.721c0 0.221 0.132 0.375 0.364 0.375zM22.798 24.636h1.776c0.221 0 0.375-0.154 0.375-0.375v-1.721c0-0.221-0.154-0.375-0.375-0.375h-1.776c-0.232 0-0.364 0.154-0.364 0.375v1.721c0 0.221 0.132 0.375 0.364 0.375zM2.824 26.224c0 1.224 0.706 2.007 1.831 2.007h13.908c1.114 0 1.82-0.783 1.82-2.007v-19.5c0-1.224-0.706-2.007-1.82-2.007h-13.908c-1.125 0-1.831 0.783-1.831 2.007v19.5zM4.599 25.816v-18.684c0-0.441 0.199-0.64 0.64-0.64h12.739c0.43 0 0.629 0.199 0.629 0.64v18.684c0 0.43-0.198 0.64-0.629 0.64h-12.739c-0.441 0-0.64-0.21-0.64-0.64zM7.765 27.294h1.445v-3.684c0-0.232 0.121-0.353 0.353-0.353h4.081c0.243 0 0.353 0.121 0.353 0.353v3.684h1.445v-4.092c0-0.949-0.419-1.39-1.323-1.39h-5.029c-0.904 0-1.324 0.441-1.324 1.39v4.092zM7.941 11.312h2.151c0.265 0 0.452-0.176 0.452-0.452v-2.085c0-0.265-0.187-0.452-0.452-0.452h-2.151c-0.265 0-0.43 0.188-0.43 0.452v2.085c0 0.276 0.165 0.452 0.43 0.452zM13.114 11.312h2.14c0.265 0 0.452-0.176 0.452-0.452v-2.085c0-0.265-0.187-0.452-0.452-0.452h-2.14c-0.276 0-0.441 0.188-0.441 0.452v2.085c0 0.276 0.165 0.452 0.441 0.452zM7.941 15.68h2.151c0.265 0 0.452-0.176 0.452-0.452v-2.085c0-0.265-0.187-0.452-0.452-0.452h-2.151c-0.265 0-0.43 0.187-0.43 0.452v2.085c0 0.276 0.165 0.452 0.43 0.452zM13.114 15.68h2.14c0.265 0 0.452-0.176 0.452-0.452v-2.085c0-0.265-0.187-0.452-0.452-0.452h-2.14c-0.276 0-0.441 0.187-0.441 0.452v2.085c0 0.276 0.165 0.452 0.441 0.452zM7.941 20.048h2.151c0.265 0 0.452-0.187 0.452-0.452v-2.085c0-0.276-0.187-0.452-0.452-0.452h-2.151c-0.265 0-0.43 0.176-0.43 0.452v2.085c0 0.265 0.165 0.452 0.43 0.452zM13.114 20.048h2.14c0.265 0 0.452-0.187 0.452-0.452v-2.085c0-0.276-0.187-0.452-0.452-0.452h-2.14c-0.276 0-0.441 0.176-0.441 0.452v2.085c0 0.265 0.165 0.452 0.441 0.452z"></path>
</svg>
