<!-- Generated by IcoMoon.io -->
<svg version="1.1" xmlns="http://www.w3.org/2000/svg" width="32" height="32" viewBox="0 0 32 32">
<title>building-2-fill</title>
<path d="M20.603 28.232h6.364c1.114 0 1.82-0.783 1.82-2.007v-14.073c0-1.224-0.706-2.007-1.82-2.007h-5.824v16.081c0 0.739-0.176 1.412-0.54 2.007zM23.647 15.724v-1.765c0-0.232 0.143-0.386 0.386-0.386h1.831c0.232 0 0.386 0.154 0.386 0.386v1.765c0 0.232-0.154 0.397-0.386 0.397h-1.831c-0.243 0-0.386-0.165-0.386-0.397zM23.647 20.070v-1.765c0-0.232 0.143-0.386 0.386-0.386h1.831c0.232 0 0.386 0.154 0.386 0.386v1.765c0 0.232-0.154 0.386-0.386 0.386h-1.831c-0.243 0-0.386-0.154-0.386-0.386zM23.647 24.415v-1.765c0-0.232 0.143-0.397 0.386-0.397h1.831c0.232 0 0.386 0.165 0.386 0.397v1.765c0 0.232-0.154 0.386-0.386 0.386h-1.831c-0.243 0-0.386-0.154-0.386-0.386zM2.824 26.224c0 1.224 0.706 2.007 1.831 2.007h13.147c1.125 0 1.831-0.783 1.831-2.007v-19.5c0-1.224-0.706-2.007-1.831-2.007h-13.147c-1.125 0-1.831 0.783-1.831 2.007v19.5zM7.412 26.456v-3.585c0-0.507 0.331-0.838 0.838-0.838h6.055c0.507 0 0.838 0.331 0.838 0.838v3.585h-7.732zM7.048 10.64v-2.14c0-0.276 0.176-0.474 0.452-0.474h2.206c0.276 0 0.474 0.199 0.474 0.474v2.14c0 0.287-0.198 0.474-0.474 0.474h-2.206c-0.276 0-0.452-0.187-0.452-0.474zM12.375 10.64v-2.14c0-0.276 0.176-0.474 0.463-0.474h2.195c0.276 0 0.474 0.199 0.474 0.474v2.14c0 0.287-0.199 0.474-0.474 0.474h-2.195c-0.287 0-0.463-0.187-0.463-0.474zM7.048 15.14v-2.14c0-0.276 0.176-0.474 0.452-0.474h2.206c0.276 0 0.474 0.198 0.474 0.474v2.14c0 0.287-0.198 0.474-0.474 0.474h-2.206c-0.276 0-0.452-0.187-0.452-0.474zM12.375 15.14v-2.14c0-0.276 0.176-0.474 0.463-0.474h2.195c0.276 0 0.474 0.198 0.474 0.474v2.14c0 0.287-0.199 0.474-0.474 0.474h-2.195c-0.287 0-0.463-0.187-0.463-0.474zM7.048 19.64v-2.14c0-0.287 0.176-0.474 0.452-0.474h2.206c0.276 0 0.474 0.188 0.474 0.474v2.14c0 0.276-0.198 0.474-0.474 0.474h-2.206c-0.276 0-0.452-0.198-0.452-0.474zM12.375 19.64v-2.14c0-0.287 0.176-0.474 0.463-0.474h2.195c0.276 0 0.474 0.188 0.474 0.474v2.14c0 0.276-0.199 0.474-0.474 0.474h-2.195c-0.287 0-0.463-0.198-0.463-0.474z"></path>
</svg>
