<!-- Generated by IcoMoon.io -->
<svg version="1.1" xmlns="http://www.w3.org/2000/svg" width="32" height="32" viewBox="0 0 32 32">
<title>building-columns-circle-fill</title>
<path d="M15.956 27.206c6.154 0 11.25-5.107 11.25-11.25 0-6.154-5.107-11.25-11.261-11.25-6.143 0-11.239 5.096-11.239 11.25 0 6.143 5.107 11.25 11.25 11.25zM9.945 12.879c0-0.165 0.088-0.331 0.309-0.452l4.974-2.857c0.243-0.143 0.463-0.21 0.717-0.21s0.485 0.066 0.728 0.21l4.963 2.857c0.232 0.121 0.32 0.287 0.32 0.452 0 0.254-0.187 0.496-0.507 0.496h-10.996c-0.32 0-0.507-0.243-0.507-0.496zM10.695 19.463v-0.143c0-0.221 0.143-0.386 0.397-0.386h0.287v-3.96h-0.287c-0.254 0-0.397-0.132-0.397-0.375v-0.143c0-0.243 0.143-0.386 0.397-0.386h1.489c0.243 0 0.386 0.143 0.386 0.386v0.143c0 0.243-0.143 0.375-0.386 0.375h-0.287v3.96h0.287c0.243 0 0.386 0.165 0.386 0.386v0.143c0 0.243-0.143 0.386-0.386 0.386h-1.489c-0.254 0-0.397-0.143-0.397-0.386zM13.463 19.463v-0.143c0-0.221 0.143-0.386 0.375-0.386h0.298v-3.96h-0.298c-0.232 0-0.375-0.132-0.375-0.375v-0.143c0-0.243 0.143-0.386 0.375-0.386h1.5c0.243 0 0.408 0.143 0.408 0.386v0.143c0 0.243-0.154 0.375-0.408 0.375h-0.276v3.96h0.276c0.243 0 0.408 0.165 0.408 0.386v0.143c0 0.243-0.154 0.386-0.408 0.386h-1.5c-0.232 0-0.375-0.143-0.375-0.386zM16.232 19.463v-0.143c0-0.221 0.143-0.386 0.397-0.386h0.276v-3.96h-0.276c-0.254 0-0.397-0.132-0.397-0.375v-0.143c0-0.243 0.143-0.386 0.397-0.386h1.489c0.221 0 0.397 0.143 0.397 0.386v0.143c0 0.243-0.176 0.375-0.397 0.375h-0.298v3.96h0.298c0.221 0 0.397 0.165 0.397 0.386v0.143c0 0.243-0.176 0.386-0.397 0.386h-1.489c-0.254 0-0.397-0.143-0.397-0.386zM18.989 19.463v-0.143c0-0.221 0.143-0.386 0.397-0.386h0.298v-3.96h-0.298c-0.254 0-0.397-0.132-0.397-0.375v-0.143c0-0.243 0.143-0.386 0.397-0.386h1.489c0.232 0 0.397 0.143 0.397 0.386v0.143c0 0.243-0.154 0.375-0.397 0.375h-0.276v3.96h0.276c0.232 0 0.397 0.165 0.397 0.386v0.143c0 0.243-0.154 0.386-0.397 0.386h-1.489c-0.254 0-0.397-0.143-0.397-0.386zM9.691 21.040c0-0.276 0.221-0.496 0.474-0.496h11.57c0.265 0 0.474 0.221 0.474 0.496 0 0.265-0.221 0.474-0.474 0.474h-11.57c-0.254 0-0.474-0.21-0.474-0.474z"></path>
</svg>
