<!-- Generated by IcoMoon.io -->
<svg version="1.1" xmlns="http://www.w3.org/2000/svg" width="32" height="32" viewBox="0 0 32 32">
<title>building-columns-circle</title>
<path d="M15.956 27.206c6.154 0 11.25-5.107 11.25-11.25 0-6.154-5.107-11.25-11.261-11.25-6.143 0-11.239 5.096-11.239 11.25 0 6.143 5.107 11.25 11.25 11.25zM15.956 25.331c-5.206 0-9.364-4.169-9.364-9.375s4.147-9.375 9.353-9.375c5.206 0 9.386 4.169 9.386 9.375s-4.169 9.375-9.375 9.375zM10.121 12.956c0 0.243 0.187 0.474 0.496 0.474h10.665c0.309 0 0.496-0.232 0.496-0.474 0-0.165-0.088-0.32-0.309-0.441l-4.82-2.768c-0.232-0.143-0.463-0.21-0.706-0.21s-0.463 0.066-0.695 0.21l-4.831 2.768c-0.21 0.121-0.298 0.276-0.298 0.441zM10.849 19.353c0 0.232 0.143 0.375 0.386 0.375h1.445c0.232 0 0.375-0.143 0.375-0.375v-0.143c0-0.21-0.143-0.375-0.375-0.375h-0.276v-3.849h0.276c0.232 0 0.375-0.132 0.375-0.364v-0.143c0-0.232-0.143-0.375-0.375-0.375h-1.445c-0.243 0-0.386 0.143-0.386 0.375v0.143c0 0.232 0.143 0.364 0.386 0.364h0.276v3.849h-0.276c-0.243 0-0.386 0.165-0.386 0.375v0.143zM13.54 19.353c0 0.232 0.132 0.375 0.364 0.375h1.456c0.243 0 0.386-0.143 0.386-0.375v-0.143c0-0.21-0.154-0.375-0.386-0.375h-0.276v-3.849h0.276c0.243 0 0.386-0.132 0.386-0.364v-0.143c0-0.232-0.154-0.375-0.386-0.375h-1.456c-0.232 0-0.364 0.143-0.364 0.375v0.143c0 0.232 0.132 0.364 0.364 0.364h0.287v3.849h-0.287c-0.232 0-0.364 0.165-0.364 0.375v0.143zM16.221 19.353c0 0.232 0.143 0.375 0.386 0.375h1.445c0.221 0 0.386-0.143 0.386-0.375v-0.143c0-0.21-0.165-0.375-0.386-0.375h-0.287v-3.849h0.287c0.221 0 0.386-0.132 0.386-0.364v-0.143c0-0.232-0.165-0.375-0.386-0.375h-1.445c-0.243 0-0.386 0.143-0.386 0.375v0.143c0 0.232 0.143 0.364 0.386 0.364h0.276v3.849h-0.276c-0.243 0-0.386 0.165-0.386 0.375v0.143zM18.901 19.353c0 0.232 0.143 0.375 0.386 0.375h1.445c0.232 0 0.386-0.143 0.386-0.375v-0.143c0-0.21-0.165-0.375-0.386-0.375h-0.276v-3.849h0.276c0.232 0 0.386-0.132 0.386-0.364v-0.143c0-0.232-0.165-0.375-0.386-0.375h-1.445c-0.243 0-0.386 0.143-0.386 0.375v0.143c0 0.232 0.143 0.364 0.386 0.364h0.287v3.849h-0.287c-0.243 0-0.386 0.165-0.386 0.375v0.143zM9.879 20.875c0 0.254 0.21 0.463 0.463 0.463h11.217c0.254 0 0.463-0.21 0.463-0.463 0-0.265-0.198-0.474-0.463-0.474h-11.217c-0.254 0-0.463 0.209-0.463 0.474z"></path>
</svg>
