<!-- Generated by IcoMoon.io -->
<svg version="1.1" xmlns="http://www.w3.org/2000/svg" width="32" height="32" viewBox="0 0 32 32">
<title>building-2-crop-circle-fill</title>
<path d="M15.956 27.217c6.154 0 11.25-5.096 11.25-11.25 0-6.143-5.107-11.25-11.261-11.25-6.143 0-11.239 5.107-11.239 11.25 0 6.154 5.107 11.25 11.25 11.25zM15.956 25.342c-2.779 0-5.25-1.18-6.96-3.077v-10.059c0-0.761 0.441-1.257 1.158-1.257h7.401c0.728 0 1.158 0.496 1.158 1.257v12.728c-0.871 0.265-1.798 0.408-2.757 0.408zM11.588 23.004h1.202c0.143 0 0.265-0.099 0.265-0.265v-1.169c0-0.143-0.121-0.265-0.265-0.265h-1.202c-0.154 0-0.254 0.121-0.254 0.265v1.169c0 0.165 0.099 0.265 0.254 0.265zM14.897 23.004h1.202c0.154 0 0.265-0.099 0.265-0.265v-1.169c0-0.143-0.11-0.265-0.265-0.265h-1.202c-0.154 0-0.254 0.121-0.254 0.265v1.169c0 0.165 0.099 0.265 0.254 0.265zM11.588 20.202h1.202c0.143 0 0.265-0.11 0.265-0.265v-1.158c0-0.154-0.121-0.265-0.265-0.265h-1.202c-0.154 0-0.254 0.11-0.254 0.265v1.158c0 0.154 0.099 0.265 0.254 0.265zM14.897 20.202h1.202c0.154 0 0.265-0.11 0.265-0.265v-1.158c0-0.154-0.11-0.265-0.265-0.265h-1.202c-0.154 0-0.254 0.11-0.254 0.265v1.158c0 0.154 0.099 0.265 0.254 0.265zM11.588 17.412h1.202c0.143 0 0.265-0.121 0.265-0.265v-1.169c0-0.154-0.121-0.265-0.265-0.265h-1.202c-0.154 0-0.254 0.11-0.254 0.265v1.169c0 0.143 0.099 0.265 0.254 0.265zM14.897 17.412h1.202c0.154 0 0.265-0.121 0.265-0.265v-1.169c0-0.154-0.11-0.265-0.265-0.265h-1.202c-0.154 0-0.254 0.11-0.254 0.265v1.169c0 0.143 0.099 0.265 0.254 0.265zM11.588 14.632h1.202c0.143 0 0.265-0.11 0.265-0.265v-1.169c0-0.154-0.121-0.265-0.265-0.265h-1.202c-0.154 0-0.254 0.11-0.254 0.265v1.169c0 0.154 0.099 0.265 0.254 0.265zM14.897 14.632h1.202c0.154 0 0.265-0.11 0.265-0.265v-1.169c0-0.154-0.11-0.265-0.265-0.265h-1.202c-0.154 0-0.254 0.11-0.254 0.265v1.169c0 0.154 0.099 0.265 0.254 0.265zM19.574 24.625v-10.853h3.198c0.717 0 1.158 0.474 1.158 1.235v5.89c-1.015 1.654-2.537 2.978-4.357 3.728zM21.228 22.066h1.037c0.11 0 0.199-0.099 0.199-0.209v-1.004c0-0.11-0.088-0.209-0.199-0.209h-1.037c-0.132 0-0.221 0.099-0.221 0.209v1.004c0 0.11 0.088 0.209 0.221 0.209zM21.228 19.54h1.037c0.11 0 0.199-0.088 0.199-0.209v-0.993c0-0.121-0.088-0.21-0.199-0.21h-1.037c-0.132 0-0.221 0.088-0.221 0.21v0.993c0 0.121 0.088 0.209 0.221 0.209zM21.228 17.026h1.037c0.11 0 0.199-0.088 0.199-0.209v-1.004c0-0.11-0.088-0.21-0.199-0.21h-1.037c-0.132 0-0.221 0.099-0.221 0.21v1.004c0 0.121 0.088 0.209 0.221 0.209z"></path>
</svg>
