<!-- Generated by IcoMoon.io -->
<svg version="1.1" xmlns="http://www.w3.org/2000/svg" width="32" height="32" viewBox="0 0 32 32">
<title>building-columns-fill</title>
<path d="M3.765 26.809c0 0.485 0.397 0.893 0.882 0.893h21.949c0.485 0 0.893-0.408 0.893-0.893s-0.408-0.882-0.893-0.882h-21.949c-0.485 0-0.882 0.397-0.882 0.882zM5.695 14.18c0 0.452 0.254 0.706 0.706 0.706h2.824c0.452 0 0.717-0.254 0.717-0.706v-0.265c0-0.43-0.265-0.695-0.717-0.695h-2.824c-0.452 0-0.706 0.265-0.706 0.695v0.265zM6.985 23.61h1.665v-9.32h-1.665v9.32zM5.695 24.25c0 0.452 0.254 0.706 0.706 0.706h2.824c0.452 0 0.717-0.254 0.717-0.706v-0.265c0-0.43-0.265-0.695-0.717-0.695h-2.824c-0.452 0-0.706 0.265-0.706 0.695v0.265zM10.934 14.18c0 0.452 0.265 0.706 0.706 0.706h2.835c0.441 0 0.706-0.254 0.706-0.706v-0.265c0-0.43-0.265-0.695-0.706-0.695h-2.835c-0.441 0-0.706 0.265-0.706 0.695v0.265zM12.235 23.61h1.665v-9.32h-1.665v9.32zM10.934 24.25c0 0.452 0.265 0.706 0.706 0.706h2.835c0.441 0 0.706-0.254 0.706-0.706v-0.265c0-0.43-0.265-0.695-0.706-0.695h-2.835c-0.441 0-0.706 0.265-0.706 0.695v0.265zM16.184 14.18c0 0.452 0.265 0.706 0.706 0.706h2.835c0.441 0 0.706-0.254 0.706-0.706v-0.265c0-0.43-0.265-0.695-0.706-0.695h-2.835c-0.441 0-0.706 0.265-0.706 0.695v0.265zM17.485 23.61h1.666v-9.32h-1.666v9.32zM16.184 24.25c0 0.452 0.265 0.706 0.706 0.706h2.835c0.441 0 0.706-0.254 0.706-0.706v-0.265c0-0.43-0.265-0.695-0.706-0.695h-2.835c-0.441 0-0.706 0.265-0.706 0.695v0.265zM21.434 14.18c0 0.452 0.254 0.706 0.706 0.706h2.824c0.452 0 0.706-0.254 0.706-0.706v-0.265c0-0.43-0.254-0.695-0.706-0.695h-2.824c-0.452 0-0.706 0.265-0.706 0.695v0.265zM22.724 23.61h1.666v-9.32h-1.666v9.32zM21.434 24.25c0 0.452 0.254 0.706 0.706 0.706h2.824c0.452 0 0.706-0.254 0.706-0.706v-0.265c0-0.43-0.254-0.695-0.706-0.695h-2.824c-0.452 0-0.706 0.265-0.706 0.695v0.265zM5.221 12.261h20.801c0.607 0 0.96-0.441 0.96-0.893 0-0.331-0.176-0.618-0.585-0.849l-9.419-5.426c-0.441-0.254-0.904-0.386-1.357-0.386s-0.915 0.132-1.357 0.386l-9.419 5.426c-0.408 0.232-0.585 0.518-0.585 0.849 0 0.452 0.342 0.893 0.96 0.893z"></path>
</svg>
