<!-- Generated by IcoMoon.io -->
<svg version="1.1" xmlns="http://www.w3.org/2000/svg" width="32" height="32" viewBox="0 0 32 32">
<title>building-fill</title>
<path d="M7.529 26.224c0 1.224 0.706 2.007 1.831 2.007h13.147c1.125 0 1.831-0.783 1.831-2.007v-19.5c0-1.224-0.706-2.007-1.831-2.007h-13.147c-1.125 0-1.831 0.783-1.831 2.007v19.5zM12.118 26.456v-3.585c0-0.507 0.331-0.838 0.838-0.838h6.055c0.507 0 0.838 0.331 0.838 0.838v3.585h-7.732zM11.754 10.64v-2.14c0-0.276 0.176-0.474 0.452-0.474h2.206c0.276 0 0.474 0.199 0.474 0.474v2.14c0 0.287-0.198 0.474-0.474 0.474h-2.206c-0.276 0-0.452-0.187-0.452-0.474zM17.081 10.64v-2.14c0-0.276 0.176-0.474 0.463-0.474h2.195c0.276 0 0.474 0.199 0.474 0.474v2.14c0 0.287-0.199 0.474-0.474 0.474h-2.195c-0.287 0-0.463-0.187-0.463-0.474zM11.754 15.14v-2.14c0-0.276 0.176-0.474 0.452-0.474h2.206c0.276 0 0.474 0.198 0.474 0.474v2.14c0 0.287-0.198 0.474-0.474 0.474h-2.206c-0.276 0-0.452-0.187-0.452-0.474zM17.081 15.14v-2.14c0-0.276 0.176-0.474 0.463-0.474h2.195c0.276 0 0.474 0.198 0.474 0.474v2.14c0 0.287-0.199 0.474-0.474 0.474h-2.195c-0.287 0-0.463-0.187-0.463-0.474zM11.754 19.64v-2.14c0-0.287 0.176-0.474 0.452-0.474h2.206c0.276 0 0.474 0.188 0.474 0.474v2.14c0 0.276-0.198 0.474-0.474 0.474h-2.206c-0.276 0-0.452-0.198-0.452-0.474zM17.081 19.64v-2.14c0-0.287 0.176-0.474 0.463-0.474h2.195c0.276 0 0.474 0.188 0.474 0.474v2.14c0 0.276-0.199 0.474-0.474 0.474h-2.195c-0.287 0-0.463-0.198-0.463-0.474z"></path>
</svg>
