<!-- Generated by IcoMoon.io -->
<svg version="1.1" xmlns="http://www.w3.org/2000/svg" width="32" height="32" viewBox="0 0 32 32">
<title>burn</title>
<path d="M4.706 15.956c0 6.143 5.107 11.25 11.25 11.25 6.154 0 11.25-5.107 11.25-11.25 0-6.154-5.107-11.25-11.261-11.25-6.143 0-11.239 5.096-11.239 11.25zM6.592 15.956h9.342l-4.677-8.129c1.368-0.805 2.978-1.246 4.688-1.246s3.32 0.441 4.688 1.246l-4.699 8.129h9.397c0.011 3.496-1.875 6.529-4.688 8.129l-4.71-8.129-4.677 8.118c-2.801-1.61-4.665-4.632-4.665-8.118z"></path>
</svg>
