<!-- Generated by IcoMoon.io -->
<svg version="1.1" xmlns="http://www.w3.org/2000/svg" width="32" height="32" viewBox="0 0 32 32">
<title>burst</title>
<path d="M29.489 17.349c0.662-0.32 0.982-0.772 0.982-1.235 0-0.452-0.32-0.871-0.982-1.103l-5.371-1.853 2.305-4.71c0.11-0.243 0.165-0.485 0.165-0.706 0-0.64-0.485-1.114-1.125-1.114-0.221 0-0.452 0.044-0.695 0.165l-4.875 2.382-2.537-5.438c-0.276-0.607-0.728-0.915-1.18-0.915s-0.893 0.309-1.18 0.915l-2.526 5.438-4.886-2.382c-0.243-0.121-0.474-0.165-0.695-0.165-0.64 0-1.125 0.474-1.125 1.114 0 0.221 0.055 0.463 0.176 0.706l2.294 4.71-5.371 1.853c-0.651 0.221-0.982 0.662-0.982 1.114s0.331 0.904 0.982 1.224l5.151 2.471-2.779 5.89c-0.132 0.265-0.188 0.518-0.188 0.75 0 0.574 0.386 0.982 0.926 0.982 0.232 0 0.485-0.077 0.75-0.232l6.585-3.893 1.809 5.581c0.198 0.618 0.629 0.938 1.059 0.938 0.441 0 0.86-0.32 1.059-0.938l1.82-5.581 6.574 3.893c0.265 0.154 0.518 0.221 0.75 0.221 0.529 0 0.938-0.386 0.938-0.96 0-0.232-0.066-0.496-0.198-0.761l-2.779-5.89 5.151-2.471zM28.11 16.136v0.077l-5.647 2.471c-0.21 0.088-0.32 0.232-0.32 0.408 0 0.066 0.033 0.154 0.077 0.232l2.901 5.857-0.055 0.066-6.496-4.103c-0.099-0.055-0.199-0.099-0.287-0.099-0.176 0-0.32 0.132-0.375 0.353l-1.698 5.713h-0.066l-1.687-5.713c-0.066-0.221-0.21-0.353-0.386-0.353-0.088 0-0.187 0.044-0.287 0.099l-6.485 4.103-0.066-0.066 2.901-5.857c0.055-0.077 0.077-0.165 0.077-0.232 0-0.176-0.11-0.32-0.309-0.408l-5.658-2.471v-0.077l5.868-1.809c0.221-0.066 0.342-0.21 0.342-0.386 0-0.088-0.022-0.176-0.077-0.265l-2.636-5.029 0.055-0.055 5.074 2.669c0.088 0.055 0.176 0.077 0.265 0.077 0.165 0 0.298-0.099 0.375-0.298l2.636-5.901h0.066l2.636 5.901c0.077 0.198 0.21 0.298 0.375 0.298 0.088 0 0.176-0.022 0.276-0.077l5.063-2.669 0.055 0.055-2.636 5.029c-0.055 0.088-0.077 0.177-0.077 0.265 0 0.176 0.121 0.32 0.342 0.386l5.868 1.809z"></path>
</svg>
