<!-- Generated by IcoMoon.io -->
<svg version="1.1" xmlns="http://www.w3.org/2000/svg" width="32" height="32" viewBox="0 0 32 32">
<title>burst-fill</title>
<path d="M28.662 16.908c0.64-0.309 0.949-0.75 0.949-1.191s-0.309-0.849-0.949-1.070l-5.217-1.798 2.239-4.577c0.11-0.232 0.154-0.474 0.154-0.684 0-0.618-0.463-1.070-1.081-1.070-0.21 0-0.441 0.033-0.673 0.154l-4.732 2.316-2.471-5.283c-0.265-0.585-0.695-0.882-1.136-0.882s-0.86 0.298-1.136 0.882l-2.459 5.283-4.743-2.316c-0.232-0.121-0.463-0.154-0.673-0.154-0.618 0-1.081 0.452-1.081 1.070 0 0.21 0.044 0.452 0.165 0.684l2.228 4.577-5.217 1.798c-0.629 0.21-0.949 0.64-0.949 1.081 0 0.43 0.32 0.871 0.949 1.18l5.007 2.393-2.702 5.724c-0.132 0.254-0.188 0.496-0.188 0.728 0 0.551 0.375 0.949 0.904 0.949 0.221 0 0.463-0.077 0.717-0.232l6.397-3.783 1.754 5.426c0.199 0.596 0.607 0.904 1.026 0.904 0.43 0 0.827-0.309 1.026-0.904l1.765-5.426 6.386 3.783c0.254 0.154 0.507 0.221 0.717 0.221 0.518 0 0.915-0.375 0.915-0.927 0-0.232-0.066-0.485-0.198-0.739l-2.702-5.724 5.007-2.393z"></path>
</svg>
