<!-- Generated by IcoMoon.io -->
<svg version="1.1" xmlns="http://www.w3.org/2000/svg" width="32" height="32" viewBox="0 0 32 32">
<title>bus-fill</title>
<path d="M6.765 28.357h1.301c0.827 0 1.467-0.64 1.467-1.456v-1.831c2.184 0.154 4.346 0.232 6.287 0.232s4.103-0.066 6.298-0.232v1.831c0 0.816 0.629 1.456 1.456 1.456h1.301c0.827 0 1.467-0.64 1.467-1.456v-21.221c0-1.423-0.838-2.239-2.327-2.415-2.349-0.276-5.36-0.419-8.195-0.419-2.813 0-5.824 0.143-8.184 0.419-1.5 0.176-2.327 0.993-2.327 2.415v21.221c0 0.816 0.629 1.456 1.456 1.456zM8.507 17.768c-0.728-0.121-1.092-0.529-1.092-1.312v-9.794c0-0.882 0.419-1.357 1.257-1.445 4.599-0.485 9.728-0.485 14.316 0 0.849 0.088 1.246 0.563 1.246 1.445v9.794c0 0.783-0.353 1.191-1.092 1.312-4.577 0.673-10.103 0.673-14.636 0zM9.191 22.688c-0.816 0-1.423-0.618-1.423-1.423 0-0.816 0.607-1.423 1.423-1.423s1.423 0.607 1.423 1.423c0 0.805-0.607 1.423-1.423 1.423zM13.415 22.202c-0.574 0-0.971-0.397-0.971-0.96 0-0.574 0.397-0.96 0.971-0.96h4.798c0.562 0 0.96 0.386 0.96 0.96 0 0.563-0.397 0.96-0.96 0.96h-4.798zM22.449 22.688c-0.805 0-1.412-0.618-1.412-1.423 0-0.816 0.607-1.423 1.412-1.423 0.816 0 1.434 0.607 1.434 1.423 0 0.805-0.618 1.423-1.434 1.423zM6.026 13.169v-6.243h-1.213c-0.618 0-1.048 0.386-1.048 0.971v4.313c0 0.585 0.43 0.96 1.048 0.96h1.213zM25.614 13.169h1.213c0.618 0 1.048-0.375 1.048-0.96v-4.313c0-0.585-0.43-0.971-1.048-0.971h-1.213v6.243z"></path>
</svg>
