<!-- Generated by IcoMoon.io -->
<svg version="1.1" xmlns="http://www.w3.org/2000/svg" width="32" height="32" viewBox="0 0 32 32">
<title>bus-doubledecker-fill</title>
<path d="M6.25 28.125c0 0.816 0.629 1.456 1.456 1.456h1.301c0.827 0 1.467-0.64 1.467-1.456v-1.831c2.173 0.143 3.971 0.232 5.757 0.232s3.574-0.077 5.757-0.232v1.831c0 0.816 0.629 1.456 1.456 1.456h1.301c0.827 0 1.467-0.64 1.467-1.456v-22.489c0-1.412-0.838-2.239-2.338-2.404-2.327-0.276-4.996-0.408-7.643-0.408-2.636 0-5.294 0.132-7.654 0.408-1.5 0.165-2.327 0.993-2.327 2.404v22.489zM8.268 11.702v-5.173c0-0.75 0.408-1.224 1.092-1.313 2.294-0.254 4.577-0.386 6.871-0.386 2.283 0 4.588 0.143 6.871 0.386 0.684 0.088 1.092 0.563 1.092 1.313v5.173h-15.926zM8.268 13.312h15.926v4.941c0 0.75-0.408 1.224-1.092 1.301-2.217 0.254-4.555 0.386-6.871 0.386-2.327 0-4.654-0.121-6.871-0.386-0.684-0.077-1.092-0.551-1.092-1.301v-4.941zM10.32 24.232c-0.739 0-1.323-0.585-1.323-1.324 0-0.75 0.585-1.323 1.323-1.323 0.75 0 1.324 0.574 1.324 1.323 0 0.739-0.574 1.324-1.324 1.324zM14.312 23.824c-0.529 0-0.926-0.397-0.926-0.927 0-0.54 0.386-0.926 0.926-0.926h3.827c0.552 0 0.938 0.386 0.938 0.926 0 0.529-0.397 0.927-0.938 0.927h-3.827zM22.143 24.232c-0.75 0-1.323-0.585-1.323-1.324 0-0.75 0.574-1.323 1.323-1.323 0.739 0 1.324 0.574 1.324 1.323 0 0.739-0.585 1.324-1.324 1.324zM6.967 15.871v-5.691h-1.213c-0.618 0-1.048 0.386-1.048 0.971v3.761c0 0.573 0.43 0.96 1.048 0.96h1.213zM25.496 15.871h1.213c0.618 0 1.048-0.386 1.048-0.96v-3.761c0-0.585-0.43-0.971-1.048-0.971h-1.213v5.691z"></path>
</svg>
