<!-- Generated by IcoMoon.io -->
<svg version="1.1" xmlns="http://www.w3.org/2000/svg" width="32" height="32" viewBox="0 0 32 32">
<title>bus-doubledecker</title>
<path d="M16.452 25.485c2.526 0 5.625-0.154 7.875-0.419 1.489-0.176 2.327-0.993 2.327-2.415v-17.945c0-1.412-0.838-2.239-2.327-2.404-2.25-0.265-5.349-0.419-7.875-0.419-2.537 0-5.636 0.154-7.875 0.419-1.5 0.165-2.327 0.993-2.327 2.404v17.945c0 1.423 0.827 2.239 2.327 2.415 2.239 0.254 5.338 0.419 7.875 0.419zM16.452 24.040c-2.636 0-5.57-0.154-7.489-0.386-0.938-0.11-1.268-0.596-1.268-1.445v-17.063c0-0.838 0.331-1.324 1.268-1.434 1.919-0.243 4.853-0.386 7.489-0.386 2.592 0 5.526 0.143 7.489 0.386 0.938 0.11 1.268 0.596 1.268 1.434v17.063c0 0.849-0.331 1.334-1.268 1.445-1.963 0.232-4.897 0.386-7.489 0.386zM8.268 28.529h1.302c0.827 0 1.467-0.64 1.467-1.456v-2.382l-4.224-0.64v3.022c0 0.816 0.629 1.456 1.456 1.456zM23.335 28.529h1.29c0.827 0 1.467-0.64 1.467-1.456v-3.022l-4.224 0.64v2.382c0 0.816 0.64 1.456 1.467 1.456zM6.967 15.040v-5.691h-1.213c-0.618 0-1.048 0.386-1.048 0.971v3.761c0 0.574 0.43 0.96 1.048 0.96h1.213zM25.938 15.040h1.213c0.618 0 1.048-0.386 1.048-0.96v-3.761c0-0.584-0.43-0.971-1.048-0.971h-1.213v5.691zM8.831 10.827h15.243v-4.511c0-0.838-0.386-1.279-1.279-1.39-3.805-0.408-8.879-0.408-12.673 0-0.893 0.11-1.29 0.551-1.29 1.39v4.511zM8.831 12.327v4.39c0 0.739 0.342 1.114 1.026 1.235 3.353 0.574 9.717 0.607 13.191 0 0.607-0.11 1.026-0.496 1.026-1.235v-4.39h-15.243zM10.54 22.331c0.706 0 1.246-0.552 1.246-1.246 0-0.706-0.54-1.246-1.246-1.246-0.695 0-1.246 0.54-1.246 1.246 0 0.695 0.551 1.246 1.246 1.246zM14.312 22h4.257c0.529 0 0.926-0.397 0.926-0.927 0-0.54-0.386-0.927-0.926-0.927h-4.257c-0.54 0-0.926 0.386-0.926 0.927 0 0.529 0.397 0.927 0.926 0.927zM22.364 22.331c0.695 0 1.246-0.552 1.246-1.246 0-0.706-0.551-1.246-1.246-1.246-0.706 0-1.246 0.54-1.246 1.246 0 0.695 0.54 1.246 1.246 1.246z"></path>
</svg>
