<!-- Generated by IcoMoon.io -->
<svg version="1.1" xmlns="http://www.w3.org/2000/svg" width="32" height="32" viewBox="0 0 32 32">
<title>bus</title>
<path d="M5.309 22.677c0 0.684 0.199 1.235 0.563 1.632v2.791c0 0.816 0.629 1.456 1.456 1.456h1.301c0.827 0 1.467-0.64 1.467-1.456v-1.776c1.82 0.121 3.816 0.188 5.945 0.188s4.136-0.066 5.956-0.188v1.776c0 0.816 0.629 1.456 1.456 1.456h1.301c0.827 0 1.467-0.64 1.467-1.456v-2.791c0.364-0.397 0.562-0.949 0.562-1.632v-17.018c0-1.423-0.838-2.239-2.338-2.415-2.305-0.276-5.371-0.419-8.404-0.419s-6.11 0.154-8.404 0.419c-1.5 0.176-2.327 0.993-2.327 2.415v17.018zM16.040 24.066c-3.243 0-5.989-0.143-8.018-0.386-0.938-0.11-1.268-0.596-1.268-1.445v-16.136c0-0.838 0.441-1.346 1.268-1.445 1.985-0.243 4.919-0.386 8.018-0.386 3.066 0 6 0.143 8.018 0.386 0.938 0.11 1.279 0.596 1.279 1.445v16.136c0 0.849-0.342 1.335-1.279 1.445-2.063 0.243-4.809 0.386-8.018 0.386zM8.904 17.879c4.301 0.673 9.948 0.684 14.283 0 0.695-0.121 1.026-0.507 1.026-1.246v-9.485c0-0.827-0.375-1.279-1.169-1.357-4.357-0.441-9.618-0.43-13.985 0-0.783 0.077-1.18 0.529-1.18 1.357v9.485c0 0.739 0.342 1.125 1.026 1.246zM6.026 13.368v-6.463h-1.213c-0.618 0-1.048 0.386-1.048 0.971v4.533c0 0.585 0.43 0.96 1.048 0.96h1.213zM26.055 13.368h1.213c0.618 0 1.048-0.375 1.048-0.96v-4.533c0-0.585-0.43-0.971-1.048-0.971h-1.213v6.463zM9.743 22.357c0.761 0 1.335-0.585 1.335-1.335 0-0.761-0.573-1.334-1.335-1.334s-1.335 0.573-1.335 1.334c0 0.75 0.574 1.335 1.335 1.335zM13.415 21.96h5.239c0.563 0 0.96-0.397 0.96-0.96 0-0.574-0.397-0.96-0.96-0.96h-5.239c-0.574 0-0.971 0.386-0.971 0.96 0 0.563 0.397 0.96 0.971 0.96zM22.338 22.357c0.761 0 1.346-0.585 1.346-1.335 0-0.761-0.585-1.334-1.346-1.334-0.75 0-1.324 0.573-1.324 1.334 0 0.75 0.574 1.335 1.324 1.335z"></path>
</svg>
