<!-- Generated by IcoMoon.io -->
<svg version="1.1" xmlns="http://www.w3.org/2000/svg" width="32" height="32" viewBox="0 0 32 32">
<title>button-programmable-square-fill</title>
<path d="M15.838 22.301c-3.518 0-6.474-2.956-6.474-6.485 0-3.54 2.934-6.485 6.474-6.485 3.529 0 6.485 2.956 6.485 6.485 0 3.54-2.934 6.485-6.485 6.485zM15.838 20.691c2.658 0 4.886-2.217 4.886-4.875 0-2.647-2.239-4.875-4.886-4.875s-4.875 2.217-4.875 4.875c0 2.647 2.239 4.875 4.875 4.875zM15.838 19.522c-1.996 0-3.695-1.71-3.695-3.706 0-2.007 1.688-3.706 3.695-3.706s3.706 1.71 3.706 3.706c0 2.007-1.687 3.706-3.706 3.706zM9.11 25.974h13.379c2.316 0 3.463-1.147 3.463-3.419v-13.467c0-2.272-1.147-3.419-3.463-3.419h-13.379c-2.305 0-3.463 1.136-3.463 3.419v13.467c0 2.283 1.158 3.419 3.463 3.419z"></path>
</svg>
