<!-- Generated by IcoMoon.io -->
<svg version="1.1" xmlns="http://www.w3.org/2000/svg" width="32" height="32" viewBox="0 0 32 32">
<title>button-programmable-square</title>
<path d="M15.838 22.103c3.441 0 6.287-2.857 6.287-6.287 0-3.419-2.868-6.287-6.287-6.287-3.43 0-6.276 2.857-6.276 6.287 0 3.419 2.868 6.287 6.276 6.287zM15.838 20.548c-2.559 0-4.732-2.162-4.732-4.732 0-2.581 2.162-4.732 4.732-4.732s4.743 2.162 4.743 4.732c0 2.581-2.162 4.732-4.743 4.732zM15.838 19.412c1.963 0 3.596-1.643 3.596-3.596 0-1.941-1.643-3.596-3.596-3.596s-3.585 1.643-3.585 3.596c0 1.941 1.643 3.596 3.585 3.596zM9.11 25.974h13.379c2.316 0 3.463-1.147 3.463-3.419v-13.467c0-2.272-1.147-3.419-3.463-3.419h-13.379c-2.305 0-3.463 1.136-3.463 3.419v13.467c0 2.283 1.158 3.419 3.463 3.419zM9.132 24.198c-1.103 0-1.71-0.585-1.71-1.732v-13.29c0-1.147 0.607-1.732 1.71-1.732h13.335c1.092 0 1.71 0.585 1.71 1.732v13.29c0 1.147-0.618 1.732-1.71 1.732h-13.335z"></path>
</svg>
