<!-- Generated by IcoMoon.io -->
<svg version="1.1" xmlns="http://www.w3.org/2000/svg" width="32" height="32" viewBox="0 0 32 32">
<title>c-circle</title>
<path d="M15.956 27.206c6.154 0 11.25-5.107 11.25-11.25 0-6.154-5.107-11.25-11.261-11.25-6.143 0-11.239 5.096-11.239 11.25 0 6.143 5.107 11.25 11.25 11.25zM15.956 25.331c-5.206 0-9.364-4.169-9.364-9.375s4.147-9.375 9.353-9.375c5.206 0 9.386 4.169 9.386 9.375s-4.169 9.375-9.375 9.375zM15.956 21.129c1.952 0 3.507-0.927 4.037-2.415 0.077-0.198 0.099-0.342 0.099-0.507 0-0.463-0.298-0.75-0.761-0.75-0.331 0-0.552 0.165-0.728 0.54-0.452 1.081-1.379 1.676-2.625 1.676-1.754 0-2.934-1.533-2.934-3.816s1.18-3.827 2.934-3.827c1.246 0 2.173 0.596 2.625 1.688 0.176 0.375 0.397 0.529 0.728 0.529 0.463 0 0.761-0.287 0.761-0.75 0-0.176-0.022-0.309-0.099-0.507-0.54-1.478-2.085-2.415-4.037-2.415-2.857 0-4.687 2.063-4.687 5.283s1.82 5.272 4.687 5.272z"></path>
</svg>
