<!-- Generated by IcoMoon.io -->
<svg version="1.1" xmlns="http://www.w3.org/2000/svg" width="32" height="32" viewBox="0 0 32 32">
<title>c-circle-fill</title>
<path d="M15.956 27.206c6.154 0 11.25-5.107 11.25-11.25 0-6.154-5.107-11.25-11.261-11.25-6.143 0-11.239 5.096-11.239 11.25 0 6.143 5.107 11.25 11.25 11.25zM15.978 21.294c-2.967 0-4.842-2.118-4.842-5.437s1.886-5.449 4.842-5.449c2.007 0 3.607 0.96 4.169 2.482 0.077 0.21 0.099 0.342 0.099 0.529 0 0.485-0.309 0.783-0.794 0.783-0.342 0-0.563-0.165-0.75-0.551-0.474-1.125-1.423-1.732-2.702-1.732-1.809 0-3.022 1.588-3.022 3.938s1.213 3.926 3.022 3.926c1.279 0 2.228-0.607 2.702-1.721 0.187-0.386 0.408-0.562 0.75-0.562 0.485 0 0.794 0.298 0.794 0.783 0 0.165-0.022 0.32-0.099 0.529-0.551 1.533-2.162 2.482-4.169 2.482z"></path>
</svg>
