<!-- Generated by IcoMoon.io -->
<svg version="1.1" xmlns="http://www.w3.org/2000/svg" width="32" height="32" viewBox="0 0 32 32">
<title>cabinet</title>
<path d="M9.136 27.004h12.827c1.522 0 2.548-1.048 2.548-2.636v-17.967c0-1.588-1.026-2.636-2.548-2.636h-12.827c-1.522 0-2.548 1.048-2.548 2.636v17.967c0 1.588 1.026 2.636 2.548 2.636zM9.224 25.228c-0.518 0-0.86-0.342-0.86-0.871v-17.945c0-0.529 0.342-0.871 0.86-0.871h12.651c0.518 0 0.86 0.342 0.86 0.871v17.945c0 0.529-0.342 0.871-0.86 0.871h-12.651zM14.827 26.055h1.445v-21.375h-1.445v21.375zM12.688 16.956c0.64 0 1.169-0.518 1.169-1.158 0-0.651-0.529-1.169-1.169-1.169s-1.169 0.518-1.169 1.169c0 0.64 0.529 1.158 1.169 1.158zM18.401 16.956c0.64 0 1.169-0.518 1.169-1.158 0-0.651-0.529-1.169-1.169-1.169s-1.169 0.518-1.169 1.169c0 0.64 0.529 1.158 1.169 1.158zM9.82 29.044c0.551 0 0.915-0.375 0.915-0.927v-2.217h-1.831v2.217c0 0.551 0.364 0.927 0.915 0.927zM21.279 29.044c0.551 0 0.915-0.375 0.915-0.927v-2.217h-1.831v2.217c0 0.551 0.364 0.927 0.915 0.927z"></path>
</svg>
