<!-- Generated by IcoMoon.io -->
<svg version="1.1" xmlns="http://www.w3.org/2000/svg" width="32" height="32" viewBox="0 0 32 32">
<title>cabinet-fill</title>
<path d="M9.136 26.504h5.658v-23.68h-5.658c-1.522 0-2.548 1.048-2.548 2.636v18.408c0 1.588 1.026 2.636 2.548 2.636zM12.103 16.235c-0.64 0-1.169-0.518-1.169-1.158 0-0.651 0.529-1.169 1.169-1.169s1.169 0.518 1.169 1.169c0 0.64-0.529 1.158-1.169 1.158zM21.963 26.504c1.522 0 2.548-1.048 2.548-2.636v-18.408c0-1.588-1.026-2.636-2.548-2.636h-5.658v23.68h5.658zM18.985 16.235c-0.64 0-1.169-0.518-1.169-1.158 0-0.651 0.529-1.169 1.169-1.169s1.169 0.518 1.169 1.169c0 0.64-0.529 1.158-1.169 1.158zM9.82 28.544c0.551 0 0.915-0.375 0.915-0.926v-2.217h-1.831v2.217c0 0.551 0.364 0.926 0.915 0.926zM21.279 28.544c0.551 0 0.915-0.375 0.915-0.926v-2.217h-1.831v2.217c0 0.551 0.364 0.926 0.915 0.926z"></path>
</svg>
