<!-- Generated by IcoMoon.io -->
<svg version="1.1" xmlns="http://www.w3.org/2000/svg" width="32" height="32" viewBox="0 0 32 32">
<title>cablecar</title>
<path d="M5.974 23.857h1.423v-14.713c0-0.794 0.386-1.235 1.202-1.346 1.82-0.254 4.632-0.364 7.577-0.364 2.934 0 5.746 0.11 7.588 0.364 0.827 0.099 1.191 0.485 1.191 1.346v14.713h1.434v-15.143c0-1.346-0.783-2.14-2.25-2.316-2.14-0.265-5.129-0.408-7.963-0.408s-5.824 0.143-7.974 0.408c-1.456 0.176-2.228 0.971-2.228 2.316v15.143zM4.706 24.563c0 0.485 0.397 0.893 0.882 0.893h21.187c0.485 0 0.882-0.408 0.882-0.893s-0.397-0.882-0.882-0.882h-21.187c-0.485 0-0.882 0.397-0.882 0.882zM9.063 4.048c0 0.496 0.419 0.971 0.938 0.904 1.643-0.199 3.915-0.287 6.176-0.287s4.544 0.088 6.187 0.287c0.507 0.066 0.927-0.408 0.927-0.904s-0.397-0.86-0.927-0.926c-1.665-0.199-3.96-0.298-6.187-0.298-2.217 0-4.511 0.099-6.187 0.298-0.518 0.066-0.927 0.43-0.927 0.926zM10.32 3.761v3.022h1.445v-3.022h-1.445zM20.599 3.761v3.022h1.445v-3.022h-1.445zM16.176 22.423c1.004 0 1.798-0.75 1.798-1.754 0-1.026-0.794-1.82-1.798-1.82-1.026 0-1.776 0.794-1.776 1.82 0 1.004 0.75 1.754 1.776 1.754zM8.577 16.71c0 0.331 0.221 0.551 0.574 0.551h2.967c0.353 0 0.574-0.221 0.574-0.551v-5.393c0-1.158-0.904-2.051-2.051-2.051-1.169 0-2.063 0.893-2.063 2.051v5.393zM13.86 16.71c0 0.331 0.221 0.551 0.573 0.551h3.474c0.364 0 0.585-0.221 0.585-0.551v-5.647c0-1.379-0.926-2.305-2.316-2.305s-2.316 0.927-2.316 2.305v5.647zM19.651 16.71c0 0.331 0.232 0.551 0.585 0.551h2.967c0.353 0 0.574-0.221 0.574-0.551v-5.393c0-1.158-0.904-2.051-2.051-2.051-1.169 0-2.073 0.893-2.073 2.051v5.393zM8.379 29.724h0.618c0.298 0 0.474-0.099 0.64-0.364l3.132-5.063h-2.107l-2.779 4.467c-0.287 0.463-0.022 0.96 0.496 0.96zM22.982 29.724h0.618c0.507 0 0.772-0.496 0.485-0.96l-2.779-4.467h-2.107l3.132 5.063c0.165 0.265 0.342 0.364 0.651 0.364z"></path>
</svg>
