<!-- Generated by IcoMoon.io -->
<svg version="1.1" xmlns="http://www.w3.org/2000/svg" width="32" height="32" viewBox="0 0 32 32">
<title>calendar-circle</title>
<path d="M15.956 27.206c6.154 0 11.25-5.107 11.25-11.25 0-6.154-5.107-11.25-11.261-11.25-6.143 0-11.239 5.096-11.239 11.25 0 6.143 5.107 11.25 11.25 11.25zM15.956 25.331c-5.206 0-9.364-4.169-9.364-9.375s4.147-9.375 9.353-9.375c5.206 0 9.386 4.169 9.386 9.375s-4.169 9.375-9.375 9.375zM11.908 21.404h8.074c1.235 0 1.853-0.618 1.853-1.831v-7.235c0-1.213-0.618-1.831-1.853-1.831h-8.074c-1.235 0-1.853 0.607-1.853 1.831v7.235c0 1.213 0.618 1.831 1.853 1.831zM11.831 20.39c-0.496 0-0.761-0.243-0.761-0.772v-5.581c0-0.541 0.287-0.816 0.816-0.816h8.118c0.518 0 0.816 0.276 0.816 0.816v5.581c0 0.529-0.254 0.772-0.772 0.772h-8.217zM14.754 15.426h0.408c0.254 0 0.342-0.066 0.342-0.32v-0.408c0-0.254-0.088-0.342-0.342-0.342h-0.408c-0.254 0-0.331 0.088-0.331 0.342v0.408c0 0.254 0.077 0.32 0.331 0.32zM16.728 15.426h0.408c0.254 0 0.331-0.066 0.331-0.32v-0.408c0-0.254-0.077-0.342-0.331-0.342h-0.408c-0.254 0-0.331 0.088-0.331 0.342v0.408c0 0.254 0.077 0.32 0.331 0.32zM18.691 15.426h0.397c0.254 0 0.342-0.066 0.342-0.32v-0.408c0-0.254-0.088-0.342-0.342-0.342h-0.397c-0.265 0-0.342 0.088-0.342 0.342v0.408c0 0.254 0.077 0.32 0.342 0.32zM12.802 17.357h0.408c0.254 0 0.331-0.066 0.331-0.32v-0.408c0-0.254-0.077-0.342-0.331-0.342h-0.408c-0.254 0-0.342 0.088-0.342 0.342v0.408c0 0.254 0.088 0.32 0.342 0.32zM14.754 17.357h0.408c0.254 0 0.342-0.066 0.342-0.32v-0.408c0-0.254-0.088-0.342-0.342-0.342h-0.408c-0.254 0-0.331 0.088-0.331 0.342v0.408c0 0.254 0.077 0.32 0.331 0.32zM16.728 17.357h0.408c0.254 0 0.331-0.066 0.331-0.32v-0.408c0-0.254-0.077-0.342-0.331-0.342h-0.408c-0.254 0-0.331 0.088-0.331 0.342v0.408c0 0.254 0.077 0.32 0.331 0.32zM18.691 17.357h0.397c0.254 0 0.342-0.066 0.342-0.32v-0.408c0-0.254-0.088-0.342-0.342-0.342h-0.397c-0.265 0-0.342 0.088-0.342 0.342v0.408c0 0.254 0.077 0.32 0.342 0.32zM12.802 19.298h0.408c0.254 0 0.331-0.077 0.331-0.331v-0.419c0-0.243-0.077-0.32-0.331-0.32h-0.408c-0.254 0-0.342 0.077-0.342 0.32v0.419c0 0.254 0.088 0.331 0.342 0.331zM14.754 19.298h0.408c0.254 0 0.342-0.077 0.342-0.331v-0.419c0-0.243-0.088-0.32-0.342-0.32h-0.408c-0.254 0-0.331 0.077-0.331 0.32v0.419c0 0.254 0.077 0.331 0.331 0.331zM16.728 19.298h0.408c0.254 0 0.331-0.077 0.331-0.331v-0.419c0-0.243-0.077-0.32-0.331-0.32h-0.408c-0.254 0-0.331 0.077-0.331 0.32v0.419c0 0.254 0.077 0.331 0.331 0.331z"></path>
</svg>
