<!-- Generated by IcoMoon.io -->
<svg version="1.1" xmlns="http://www.w3.org/2000/svg" width="32" height="32" viewBox="0 0 32 32">
<title>calendar-day-timeline-left</title>
<path d="M8.313 18.099h-1.776v4.456c0 2.272 1.158 3.419 3.463 3.419h15.066c2.305 0 3.463-1.136 3.463-3.419v-4.456h-1.776v4.555c0 1.026-0.552 1.544-1.522 1.544h-15.375c-0.982 0-1.544-0.518-1.544-1.544v-4.555zM3.382 8.393c0.75 0 1.357-0.607 1.357-1.357s-0.607-1.357-1.357-1.357c-0.75 0-1.357 0.607-1.357 1.357s0.607 1.357 1.357 1.357zM3.382 12.772c0.75 0 1.357-0.607 1.357-1.357s-0.607-1.357-1.357-1.357c-0.75 0-1.357 0.607-1.357 1.357s0.607 1.357 1.357 1.357zM3.382 21.54c0.75 0 1.357-0.607 1.357-1.357s-0.607-1.368-1.357-1.368c-0.75 0-1.357 0.618-1.357 1.368s0.607 1.357 1.357 1.357zM3.382 25.93c0.75 0 1.357-0.607 1.357-1.357s-0.607-1.368-1.357-1.368-1.357 0.618-1.357 1.368c0 0.75 0.607 1.357 1.357 1.357zM3.382 17.305c0.816 0 1.5-0.684 1.5-1.5s-0.684-1.5-1.5-1.5c-0.816 0-1.5 0.684-1.5 1.5s0.684 1.5 1.5 1.5zM29.301 15.816c0-0.43-0.342-0.772-0.772-0.772h-24.485v1.555h24.485c0.43 0 0.772-0.353 0.772-0.783zM6.537 13.533h1.776v-4.544c0-1.026 0.563-1.544 1.544-1.544h15.375c0.971 0 1.522 0.518 1.522 1.544v4.544h1.776v-4.445c0-2.283-1.158-3.419-3.463-3.419h-15.066c-2.305 0-3.463 1.147-3.463 3.419v4.445z"></path>
</svg>
