<!-- Generated by IcoMoon.io -->
<svg version="1.1" xmlns="http://www.w3.org/2000/svg" width="32" height="32" viewBox="0 0 32 32">
<title>calenadar-circle-fill</title>
<path d="M15.956 27.217c6.154 0 11.25-5.096 11.25-11.25 0-6.143-5.107-11.25-11.261-11.25-6.143 0-11.239 5.107-11.239 11.25 0 6.154 5.107 11.25 11.25 11.25zM11.798 21.592c-1.279 0-1.919-0.629-1.919-1.897v-7.456c0-1.257 0.64-1.897 1.919-1.897h8.316c1.279 0 1.919 0.64 1.919 1.897v7.456c0 1.268-0.64 1.897-1.919 1.897h-8.316zM11.71 20.544h8.482c0.529 0 0.794-0.254 0.794-0.794v-5.757c0-0.563-0.309-0.849-0.838-0.849h-8.382c-0.54 0-0.838 0.287-0.838 0.849v5.757c0 0.54 0.276 0.794 0.783 0.794zM14.732 15.426c-0.265 0-0.342-0.077-0.342-0.32v-0.441c0-0.254 0.077-0.342 0.342-0.342h0.419c0.265 0 0.353 0.088 0.353 0.342v0.441c0 0.243-0.088 0.32-0.353 0.32h-0.419zM16.761 15.426c-0.265 0-0.342-0.077-0.342-0.32v-0.441c0-0.254 0.077-0.342 0.342-0.342h0.419c0.265 0 0.342 0.088 0.342 0.342v0.441c0 0.243-0.077 0.32-0.342 0.32h-0.419zM18.79 15.426c-0.276 0-0.353-0.077-0.353-0.32v-0.441c0-0.254 0.077-0.342 0.353-0.342h0.408c0.265 0 0.353 0.088 0.353 0.342v0.441c0 0.243-0.088 0.32-0.353 0.32h-0.408zM12.713 17.412c-0.265 0-0.353-0.066-0.353-0.32v-0.43c0-0.265 0.088-0.342 0.353-0.342h0.419c0.265 0 0.342 0.077 0.342 0.342v0.43c0 0.254-0.077 0.32-0.342 0.32h-0.419zM14.732 17.412c-0.265 0-0.342-0.066-0.342-0.32v-0.43c0-0.265 0.077-0.342 0.342-0.342h0.419c0.265 0 0.353 0.077 0.353 0.342v0.43c0 0.254-0.088 0.32-0.353 0.32h-0.419zM16.761 17.412c-0.265 0-0.342-0.066-0.342-0.32v-0.43c0-0.265 0.077-0.342 0.342-0.342h0.419c0.265 0 0.342 0.077 0.342 0.342v0.43c0 0.254-0.077 0.32-0.342 0.32h-0.419zM18.79 17.412c-0.276 0-0.353-0.066-0.353-0.32v-0.43c0-0.265 0.077-0.342 0.353-0.342h0.408c0.265 0 0.353 0.077 0.353 0.342v0.43c0 0.254-0.088 0.32-0.353 0.32h-0.408zM12.713 19.408c-0.265 0-0.353-0.077-0.353-0.342v-0.43c0-0.254 0.088-0.32 0.353-0.32h0.419c0.265 0 0.342 0.066 0.342 0.32v0.43c0 0.265-0.077 0.342-0.342 0.342h-0.419zM14.732 19.408c-0.265 0-0.342-0.077-0.342-0.342v-0.43c0-0.254 0.077-0.32 0.342-0.32h0.419c0.265 0 0.353 0.066 0.353 0.32v0.43c0 0.265-0.088 0.342-0.353 0.342h-0.419zM16.761 19.408c-0.265 0-0.342-0.077-0.342-0.342v-0.43c0-0.254 0.077-0.32 0.342-0.32h0.419c0.265 0 0.342 0.066 0.342 0.32v0.43c0 0.265-0.077 0.342-0.342 0.342h-0.419z"></path>
</svg>
