<!-- Generated by IcoMoon.io -->
<svg version="1.1" xmlns="http://www.w3.org/2000/svg" width="32" height="32" viewBox="0 0 32 32">
<title>calendar-day-timeline-right</title>
<path d="M22.871 18.099v4.555c0 1.026-0.563 1.544-1.544 1.544h-15.364c-0.982 0-1.533-0.518-1.533-1.544v-4.555h-1.776v4.456c0 2.283 1.169 3.419 3.463 3.419h15.066c2.305 0 3.463-1.147 3.463-3.419v-4.456h-1.776zM27.802 8.393c0.75 0 1.357-0.607 1.357-1.357s-0.607-1.357-1.357-1.357c-0.75 0-1.357 0.607-1.357 1.357s0.607 1.357 1.357 1.357zM27.802 12.772c0.75 0 1.357-0.607 1.357-1.357s-0.607-1.357-1.357-1.357c-0.75 0-1.357 0.607-1.357 1.357s0.607 1.357 1.357 1.357zM27.802 21.54c0.75 0 1.357-0.607 1.357-1.357s-0.607-1.368-1.357-1.368c-0.75 0-1.357 0.618-1.357 1.368s0.607 1.357 1.357 1.357zM27.802 25.93c0.75 0 1.357-0.607 1.357-1.357s-0.607-1.368-1.357-1.368c-0.75 0-1.357 0.618-1.357 1.368s0.607 1.357 1.357 1.357zM27.802 17.305c0.816 0 1.5-0.684 1.5-1.5s-0.684-1.5-1.5-1.5c-0.816 0-1.5 0.684-1.5 1.5s0.684 1.5 1.5 1.5zM1.882 15.816c0 0.43 0.342 0.783 0.772 0.783h24.485v-1.555h-24.485c-0.43 0-0.772 0.342-0.772 0.772zM24.647 13.533v-4.445c0-2.272-1.158-3.419-3.463-3.419h-15.066c-2.294 0-3.463 1.136-3.463 3.419v4.445h1.776v-4.544c0-1.026 0.551-1.544 1.533-1.544h15.364c0.982 0 1.544 0.518 1.544 1.544v4.544h1.776z"></path>
</svg>
