<!-- Generated by IcoMoon.io -->
<svg version="1.1" xmlns="http://www.w3.org/2000/svg" width="32" height="32" viewBox="0 0 32 32">
<title>calendar</title>
<path d="M8.169 25.974h15.066c2.305 0 3.452-1.147 3.452-3.419v-13.467c0-2.272-1.147-3.419-3.452-3.419h-15.066c-2.305 0-3.463 1.136-3.463 3.419v13.467c0 2.283 1.158 3.419 3.463 3.419zM8.004 24.198c-0.982 0-1.522-0.518-1.522-1.544v-10.401c0-1.015 0.54-1.544 1.522-1.544h15.375c0.982 0 1.533 0.529 1.533 1.544v10.401c0 1.026-0.552 1.544-1.533 1.544h-15.375zM13.551 14.669h0.651c0.386 0 0.507-0.11 0.507-0.496v-0.651c0-0.386-0.121-0.507-0.507-0.507h-0.651c-0.386 0-0.518 0.121-0.518 0.507v0.651c0 0.386 0.132 0.496 0.518 0.496zM17.213 14.669h0.651c0.386 0 0.518-0.11 0.518-0.496v-0.651c0-0.386-0.132-0.507-0.518-0.507h-0.651c-0.386 0-0.518 0.121-0.518 0.507v0.651c0 0.386 0.132 0.496 0.518 0.496zM20.875 14.669h0.651c0.386 0 0.518-0.11 0.518-0.496v-0.651c0-0.386-0.132-0.507-0.518-0.507h-0.651c-0.386 0-0.507 0.121-0.507 0.507v0.651c0 0.386 0.121 0.496 0.507 0.496zM9.89 18.276h0.64c0.397 0 0.518-0.11 0.518-0.496v-0.651c0-0.386-0.121-0.496-0.518-0.496h-0.64c-0.397 0-0.518 0.11-0.518 0.496v0.651c0 0.386 0.121 0.496 0.518 0.496zM13.551 18.276h0.651c0.386 0 0.507-0.11 0.507-0.496v-0.651c0-0.386-0.121-0.496-0.507-0.496h-0.651c-0.386 0-0.518 0.11-0.518 0.496v0.651c0 0.386 0.132 0.496 0.518 0.496zM17.213 18.276h0.651c0.386 0 0.518-0.11 0.518-0.496v-0.651c0-0.386-0.132-0.496-0.518-0.496h-0.651c-0.386 0-0.518 0.11-0.518 0.496v0.651c0 0.386 0.132 0.496 0.518 0.496zM20.875 18.276h0.651c0.386 0 0.518-0.11 0.518-0.496v-0.651c0-0.386-0.132-0.496-0.518-0.496h-0.651c-0.386 0-0.507 0.11-0.507 0.496v0.651c0 0.386 0.121 0.496 0.507 0.496zM9.89 21.893h0.64c0.397 0 0.518-0.121 0.518-0.507v-0.651c0-0.386-0.121-0.496-0.518-0.496h-0.64c-0.397 0-0.518 0.11-0.518 0.496v0.651c0 0.386 0.121 0.507 0.518 0.507zM13.551 21.893h0.651c0.386 0 0.507-0.121 0.507-0.507v-0.651c0-0.386-0.121-0.496-0.507-0.496h-0.651c-0.386 0-0.518 0.11-0.518 0.496v0.651c0 0.386 0.132 0.507 0.518 0.507zM17.213 21.893h0.651c0.386 0 0.518-0.121 0.518-0.507v-0.651c0-0.386-0.132-0.496-0.518-0.496h-0.651c-0.386 0-0.518 0.11-0.518 0.496v0.651c0 0.386 0.132 0.507 0.518 0.507z"></path>
</svg>
