<!-- Generated by IcoMoon.io -->
<svg version="1.1" xmlns="http://www.w3.org/2000/svg" width="32" height="32" viewBox="0 0 32 32">
<title>camera-macro-circle</title>
<path d="M15.956 27.206c6.154 0 11.25-5.107 11.25-11.25 0-6.154-5.107-11.25-11.261-11.25-6.143 0-11.239 5.096-11.239 11.25 0 6.143 5.107 11.25 11.25 11.25zM15.956 25.331c-5.206 0-9.364-4.169-9.364-9.375s4.147-9.375 9.353-9.375c5.206 0 9.386 4.169 9.386 9.375s-4.169 9.375-9.375 9.375zM12.592 10.871c-0.287 0.651-0.43 1.29-0.43 1.919 0 2.085 1.489 3.794 3.772 3.794 2.305 0 3.772-1.71 3.772-3.794 0-0.629-0.121-1.268-0.408-1.919-0.121-0.276-0.463-0.32-0.684-0.088l-1.257 1.301-1.081-1.412c-0.176-0.243-0.485-0.243-0.662 0l-1.092 1.412-1.268-1.301c-0.221-0.232-0.551-0.187-0.662 0.088zM15.46 22.364c0 0.265 0.221 0.452 0.474 0.452 2.934 0 5.647-1.809 6.54-4.379 0.132-0.353-0.011-0.596-0.386-0.596-2.912 0-5.029 1.721-5.868 3.904l0.187 0.198v-5.967h-0.949v6.386zM14.798 20.29c-1.059-1.445-2.813-2.449-5.018-2.449-0.386 0-0.518 0.243-0.386 0.596 0.772 2.261 2.945 3.927 5.471 4.268-0.044-0.099-0.066-0.221-0.066-0.342v-2.073z"></path>
</svg>
