<!-- Generated by IcoMoon.io -->
<svg version="1.1" xmlns="http://www.w3.org/2000/svg" width="32" height="32" viewBox="0 0 32 32">
<title>camera-metering-center-weighted</title>
<path d="M6.287 25.952h8.801v-1.776h-8.779c-1.103 0-1.71-0.585-1.71-1.732v-5.89h-1.776v5.989c0 2.272 1.158 3.408 3.463 3.408zM16.599 25.952h8.768c2.316 0 3.463-1.136 3.463-3.408v-5.989h-1.776v5.89c0 1.147-0.618 1.732-1.71 1.732h-8.746v1.776zM27.055 15.055h1.776v-5.989c0-2.272-1.147-3.419-3.463-3.419h-8.768v1.776h8.746c1.092 0 1.71 0.596 1.71 1.743v5.89zM2.824 15.055h1.776v-5.89c0-1.147 0.607-1.743 1.71-1.743h8.779v-1.776h-8.801c-2.305 0-3.463 1.147-3.463 3.419v5.989zM15.871 21.949c3.353 0 6.121-2.779 6.121-6.165 0-3.353-2.779-6.11-6.121-6.11-3.386 0-6.165 2.757-6.165 6.11 0 3.397 2.768 6.165 6.165 6.165zM15.871 20.526c-2.614 0-4.743-2.14-4.743-4.743 0-2.57 2.14-4.687 4.743-4.687 2.57 0 4.699 2.118 4.699 4.687 0 2.603-2.118 4.743-4.699 4.743zM15.86 18.949c1.71 0 3.132-1.412 3.132-3.154 0-1.71-1.423-3.121-3.132-3.121-1.732 0-3.154 1.412-3.154 3.121 0 1.743 1.423 3.154 3.154 3.154z"></path>
</svg>
