<!-- Generated by IcoMoon.io -->
<svg version="1.1" xmlns="http://www.w3.org/2000/svg" width="32" height="32" viewBox="0 0 32 32">
<title>camera-metering-center-weighted-average</title>
<path d="M6.287 25.952h8.801v-1.776h-8.779c-1.103 0-1.71-0.585-1.71-1.732v-5.89h-1.776v5.989c0 2.272 1.158 3.408 3.463 3.408zM16.599 25.952h8.768c2.316 0 3.463-1.136 3.463-3.408v-5.989h-1.776v5.89c0 1.147-0.618 1.732-1.71 1.732h-8.746v1.776zM27.055 15.055h1.776v-5.989c0-2.272-1.147-3.419-3.463-3.419h-8.768v1.776h8.746c1.092 0 1.71 0.596 1.71 1.743v5.89zM2.824 15.055h1.776v-5.89c0-1.147 0.607-1.743 1.71-1.743h8.779v-1.776h-8.801c-2.305 0-3.463 1.147-3.463 3.419v5.989z"></path>
</svg>
