<!-- Generated by IcoMoon.io -->
<svg version="1.1" xmlns="http://www.w3.org/2000/svg" width="32" height="32" viewBox="0 0 32 32">
<title>camera-macro</title>
<path d="M9.123 4.603c-0.54 1.246-0.794 2.493-0.794 3.706 0 4.026 2.846 7.324 7.279 7.324s7.279-3.298 7.279-7.324c0-1.213-0.254-2.46-0.783-3.706-0.243-0.529-0.871-0.607-1.29-0.176l-2.471 2.515-2.107-2.724c-0.342-0.441-0.915-0.441-1.246 0l-2.107 2.724-2.482-2.515c-0.419-0.43-1.048-0.353-1.279 0.176zM14.725 26.86c0 0.496 0.386 0.827 0.882 0.827 5.702 0 10.941-3.518 12.662-8.46 0.243-0.673-0.011-1.103-0.728-1.103-5.636 0-9.695 3.309-11.327 7.489l0.287 0.375v-11.471h-1.776v12.342zM13.214 22.647c-2.074-2.691-5.393-4.522-9.574-4.522-0.717 0-0.971 0.43-0.728 1.103 1.478 4.279 5.581 7.5 10.39 8.261-0.055-0.187-0.088-0.408-0.088-0.629v-4.213z"></path>
</svg>
