<!-- Generated by IcoMoon.io -->
<svg version="1.1" xmlns="http://www.w3.org/2000/svg" width="32" height="32" viewBox="0 0 32 32">
<title>camera-macro-circle-fill</title>
<path d="M15.956 27.206c6.154 0 11.25-5.107 11.25-11.25 0-6.154-5.107-11.25-11.261-11.25-6.143 0-11.239 5.096-11.239 11.25 0 6.143 5.107 11.25 11.25 11.25zM9.195 18.493c-0.132-0.364 0-0.618 0.408-0.618 2.272 0 4.070 1.037 5.162 2.515v2.151c0 0.121 0.022 0.254 0.077 0.353-2.603-0.353-4.853-2.073-5.647-4.401zM12.051 12.669c0-0.651 0.154-1.301 0.452-1.974 0.099-0.287 0.452-0.331 0.684-0.088l1.301 1.335 1.125-1.456c0.188-0.254 0.507-0.254 0.684 0l1.114 1.456 1.29-1.335c0.232-0.243 0.585-0.198 0.717 0.088 0.287 0.673 0.419 1.323 0.419 1.974 0 1.996-1.312 3.651-3.397 3.882v4.886c0.971-2.018 3.055-3.562 5.846-3.562 0.397 0 0.54 0.254 0.408 0.618-0.927 2.647-3.728 4.511-6.75 4.511-0.265 0-0.485-0.187-0.485-0.463v-5.989c-2.085-0.221-3.408-1.886-3.408-3.882z"></path>
</svg>
