<!-- Generated by IcoMoon.io -->
<svg version="1.1" xmlns="http://www.w3.org/2000/svg" width="32" height="32" viewBox="0 0 32 32">
<title>camera-on-rectangle</title>
<path d="M5.346 22.728h2.426v-1.776h-2.404c-1.103 0-1.71-0.596-1.71-1.743v-10.963c0-1.147 0.607-1.743 1.71-1.743h16.037c1.092 0 1.71 0.596 1.71 1.743v2.835h1.776v-2.934c0-2.272-1.158-3.419-3.452-3.419h-16.092c-2.316 0-3.463 1.147-3.463 3.419v11.162c0 2.272 1.147 3.419 3.463 3.419zM10.915 27.835h16.092c2.305 0 3.452-1.147 3.452-3.419v-10.125c0-2.272-1.147-3.408-3.452-3.408h-1.423c-0.827 0-1.081-0.099-1.555-0.618l-0.794-0.86c-0.563-0.618-1.103-0.904-1.963-0.904h-4.621c-0.871 0-1.401 0.287-1.974 0.904l-0.783 0.86c-0.485 0.518-0.739 0.618-1.566 0.618h-1.412c-2.316 0-3.463 1.136-3.463 3.408v10.125c0 2.272 1.147 3.419 3.463 3.419zM10.938 26.059c-1.103 0-1.71-0.596-1.71-1.743v-9.926c0-1.147 0.607-1.732 1.71-1.732h1.82c0.949 0 1.533-0.198 2.096-0.805l0.949-1.048c0.353-0.364 0.684-0.529 1.279-0.529h3.75c0.607 0 0.927 0.165 1.279 0.529l0.96 1.048c0.563 0.607 1.136 0.805 2.085 0.805h1.82c1.103 0 1.71 0.585 1.71 1.732v9.926c0 1.147-0.607 1.743-1.71 1.743h-16.037zM18.967 24.57c2.945 0 5.338-2.382 5.338-5.349 0-2.945-2.393-5.338-5.338-5.338-2.956 0-5.338 2.393-5.338 5.338 0 2.967 2.382 5.349 5.338 5.349zM18.967 22.882c-2.007 0-3.651-1.643-3.651-3.662 0-2.007 1.643-3.64 3.651-3.64s3.64 1.632 3.64 3.64c0 2.018-1.632 3.662-3.64 3.662zM25.739 16.684c0.684 0 1.246-0.552 1.246-1.235s-0.563-1.246-1.246-1.246c-0.684 0-1.235 0.563-1.235 1.246s0.551 1.235 1.235 1.235z"></path>
</svg>
