<!-- Generated by IcoMoon.io -->
<svg version="1.1" xmlns="http://www.w3.org/2000/svg" width="32" height="32" viewBox="0 0 32 32">
<title>camera-fill</title>
<path d="M6.287 25.739h20.162c2.294 0 3.463-1.147 3.463-3.419v-11.548c0-2.272-1.169-3.408-3.463-3.408h-3.154c-0.871 0-1.136-0.176-1.632-0.728l-0.882-0.993c-0.551-0.607-1.114-0.938-2.25-0.938h-4.401c-1.136 0-1.699 0.331-2.25 0.938l-0.882 0.993c-0.496 0.54-0.772 0.728-1.632 0.728h-3.077c-2.305 0-3.463 1.136-3.463 3.408v11.548c0 2.272 1.158 3.419 3.463 3.419zM16.368 22.485c-3.342 0-6.022-2.669-6.022-6.033 0-3.353 2.68-6.022 6.022-6.022s6.011 2.669 6.011 6.022c0 3.364-2.68 6.033-6.011 6.033zM16.368 20.809c2.404 0 4.346-1.93 4.346-4.357 0-2.415-1.941-4.357-4.346-4.357s-4.357 1.941-4.357 4.357c0 2.426 1.963 4.357 4.357 4.357zM23.118 12.393c0-0.75 0.662-1.412 1.434-1.412 0.761 0 1.412 0.662 1.412 1.412 0 0.783-0.651 1.412-1.412 1.423-0.772 0-1.434-0.629-1.434-1.423z"></path>
</svg>
