<!-- Generated by IcoMoon.io -->
<svg version="1.1" xmlns="http://www.w3.org/2000/svg" width="32" height="32" viewBox="0 0 32 32">
<title>camera-metering-unknown</title>
<path d="M6.287 25.952h8.801v-1.776h-8.779c-1.103 0-1.71-0.585-1.71-1.732v-5.89h-1.776v5.989c0 2.272 1.158 3.408 3.463 3.408zM16.599 25.952h8.768c2.316 0 3.463-1.136 3.463-3.408v-5.989h-1.776v5.89c0 1.147-0.618 1.732-1.71 1.732h-8.746v1.776zM27.055 15.055h1.776v-5.989c0-2.272-1.147-3.419-3.463-3.419h-8.768v1.776h8.746c1.092 0 1.71 0.596 1.71 1.743v5.89zM2.824 15.055h1.776v-5.89c0-1.147 0.607-1.743 1.71-1.743h8.779v-1.776h-8.801c-2.305 0-3.463 1.147-3.463 3.419v5.989zM15.629 18.077c0.551 0 0.893-0.353 0.893-0.783 0-0.044 0-0.099 0-0.132 0-0.618 0.353-1.015 1.125-1.522 1.070-0.706 1.831-1.346 1.831-2.669 0-1.831-1.632-2.824-3.507-2.824-1.897 0-3.143 0.904-3.441 1.919-0.055 0.176-0.088 0.353-0.088 0.54 0 0.496 0.386 0.761 0.75 0.761 0.375 0 0.618-0.176 0.816-0.441l0.199-0.265c0.386-0.64 0.96-1.015 1.698-1.015 1.004 0 1.654 0.574 1.654 1.412 0 0.75-0.463 1.114-1.434 1.787-0.783 0.552-1.379 1.136-1.379 2.217 0 0.044 0 0.099 0 0.143 0 0.574 0.32 0.871 0.882 0.871zM15.607 21.364c0.64 0 1.191-0.507 1.191-1.147s-0.541-1.147-1.191-1.147c-0.651 0-1.191 0.518-1.191 1.147s0.551 1.147 1.191 1.147z"></path>
</svg>
