<!-- Generated by IcoMoon.io -->
<svg version="1.1" xmlns="http://www.w3.org/2000/svg" width="32" height="32" viewBox="0 0 32 32">
<title>camera-metering-matrix</title>
<path d="M7.070 8.934c-0.684 0-0.96 0.287-0.96 0.993v5.129h5.051c0.32-1.985 1.919-3.574 3.926-3.893v-2.228h-8.018zM24.585 8.934h-7.985v2.228c1.974 0.32 3.574 1.908 3.893 3.893h5.063v-5.129c0-0.706-0.276-0.993-0.971-0.993zM7.070 22.677h8.018v-2.228c-2.007-0.32-3.607-1.919-3.926-3.893h-5.051v5.129c0 0.706 0.276 0.993 0.96 0.993zM24.585 22.677c0.695 0 0.971-0.287 0.971-0.993v-5.129h-5.063c-0.32 1.974-1.919 3.574-3.893 3.893v2.228h7.985zM15.838 18.949c1.71 0 3.132-1.423 3.132-3.154 0-1.71-1.423-3.121-3.132-3.121-1.732 0-3.143 1.412-3.143 3.121 0 1.732 1.412 3.154 3.143 3.154zM6.287 25.952h8.801v-1.776h-8.779c-1.103 0-1.71-0.585-1.71-1.732v-5.89h-1.776v5.989c0 2.272 1.158 3.408 3.463 3.408zM16.599 25.952h8.768c2.316 0 3.463-1.136 3.463-3.408v-5.989h-1.776v5.89c0 1.147-0.618 1.732-1.71 1.732h-8.746v1.776zM27.055 15.055h1.776v-5.989c0-2.272-1.147-3.419-3.463-3.419h-8.768v1.776h8.746c1.092 0 1.71 0.596 1.71 1.743v5.89zM2.824 15.055h1.776v-5.89c0-1.147 0.607-1.743 1.71-1.743h8.779v-1.776h-8.801c-2.305 0-3.463 1.147-3.463 3.419v5.989z"></path>
</svg>
