<!-- Generated by IcoMoon.io -->
<svg version="1.1" xmlns="http://www.w3.org/2000/svg" width="32" height="32" viewBox="0 0 32 32">
<title>camera-circle-fill</title>
<path d="M15.956 27.217c6.154 0 11.25-5.096 11.25-11.25 0-6.143-5.107-11.25-11.261-11.25-6.143 0-11.239 5.107-11.239 11.25 0 6.154 5.107 11.25 11.25 11.25zM10.882 21.118c-1.202 0-1.809-0.596-1.809-1.776v-6.011c0-1.202 0.607-1.787 1.809-1.787h1.434c0.441 0 0.574-0.11 0.827-0.375l0.474-0.518c0.287-0.32 0.584-0.485 1.169-0.485h2.294c0.596 0 0.893 0.165 1.169 0.485l0.463 0.518c0.254 0.287 0.408 0.375 0.849 0.375h1.467c1.191 0 1.809 0.585 1.809 1.787v6.011c0 1.18-0.618 1.776-1.809 1.776h-10.147zM15.967 19.684c1.886 0 3.397-1.467 3.397-3.408 0-1.886-1.511-3.408-3.397-3.408s-3.408 1.522-3.408 3.408c0 1.908 1.522 3.408 3.408 3.408zM15.956 18.702c-1.335 0-2.426-1.081-2.426-2.426s1.092-2.427 2.426-2.427c1.335 0 2.426 1.092 2.426 2.427 0 1.346-1.092 2.426-2.426 2.426zM20.511 14.643c0.419 0 0.772-0.342 0.761-0.772 0-0.43-0.342-0.772-0.761-0.772-0.43 0-0.783 0.342-0.783 0.772s0.353 0.772 0.783 0.772z"></path>
</svg>
