<!-- Generated by IcoMoon.io -->
<svg version="1.1" xmlns="http://www.w3.org/2000/svg" width="32" height="32" viewBox="0 0 32 32">
<title>camera-metering-partial</title>
<path d="M21.938 16.566h-1.445c-0.375 2.239-2.316 3.96-4.643 3.96-2.338 0-4.301-1.721-4.665-3.96h-1.445c0.375 3.033 2.989 5.382 6.11 5.382 3.099 0 5.691-2.36 6.088-5.382zM20.504 15.055h1.434c-0.364-3.011-2.989-5.382-6.088-5.382-3.121 0-5.746 2.371-6.11 5.382h1.434c0.364-2.228 2.338-3.96 4.676-3.96 2.327 0 4.302 1.732 4.654 3.96zM6.287 25.952h8.801v-1.776h-8.779c-1.103 0-1.71-0.585-1.71-1.732v-5.89h-1.776v5.989c0 2.272 1.158 3.408 3.463 3.408zM16.599 25.952h8.768c2.316 0 3.463-1.136 3.463-3.408v-5.989h-1.776v5.89c0 1.147-0.618 1.732-1.71 1.732h-8.746v1.776zM27.055 15.055h1.776v-5.989c0-2.272-1.147-3.419-3.463-3.419h-8.768v1.776h8.746c1.092 0 1.71 0.596 1.71 1.743v5.89zM2.824 15.055h1.776v-5.89c0-1.147 0.607-1.743 1.71-1.743h8.779v-1.776h-8.801c-2.305 0-3.463 1.147-3.463 3.419v5.989z"></path>
</svg>
