<!-- Generated by IcoMoon.io -->
<svg version="1.1" xmlns="http://www.w3.org/2000/svg" width="32" height="32" viewBox="0 0 32 32">
<title>camera-on-rectangle-fill</title>
<path d="M1.882 19.309c0 2.272 1.147 3.419 3.463 3.419h0.596v-7.665c0-3.11 1.831-4.919 4.974-4.919h1.632c0.243 0 0.298-0.022 0.485-0.221l0.783-0.794c0.882-0.915 1.809-1.324 3.055-1.324h4.18c1.268 0 2.228 0.419 3.088 1.357l0.496 0.54c0.088 0.088 0.187 0.21 0.254 0.243v-1.798c0-2.272-1.158-3.419-3.452-3.419h-16.092c-2.316 0-3.463 1.147-3.463 3.419v11.162zM10.915 27.835h16.092c2.305 0 3.452-1.147 3.452-3.419v-9.353c0-2.272-1.147-3.408-3.452-3.408h-1.643c-0.827 0-1.081-0.099-1.555-0.618l-0.794-0.86c-0.562-0.618-1.103-0.86-1.963-0.86h-4.18c-0.871 0-1.379 0.254-1.974 0.86l-0.838 0.86c-0.485 0.474-0.684 0.618-1.511 0.618h-1.632c-2.316 0-3.463 1.136-3.463 3.408v9.353c0 2.272 1.147 3.419 3.463 3.419zM18.967 24.57c-2.956 0-5.338-2.382-5.338-5.349 0-2.945 2.382-5.338 5.338-5.338 2.945 0 5.338 2.393 5.338 5.338 0 2.967-2.393 5.349-5.338 5.349zM18.967 22.882c2.007 0 3.64-1.643 3.64-3.662 0-2.007-1.632-3.64-3.64-3.64s-3.651 1.632-3.651 3.64c0 2.018 1.643 3.662 3.651 3.662zM25.739 16.684c-0.684 0-1.235-0.552-1.235-1.235s0.551-1.246 1.235-1.246c0.684 0 1.246 0.563 1.246 1.246s-0.563 1.235-1.246 1.235z"></path>
</svg>
