<!-- Generated by IcoMoon.io -->
<svg version="1.1" xmlns="http://www.w3.org/2000/svg" width="32" height="32" viewBox="0 0 32 32">
<title>camera-viewfinder</title>
<path d="M6.529 12.684c0.585 0 0.893-0.331 0.893-0.904v-2.603c0-1.147 0.607-1.732 1.71-1.732h2.669c0.585 0 0.904-0.32 0.904-0.893s-0.32-0.882-0.904-0.882h-2.691c-2.305 0-3.463 1.136-3.463 3.408v2.702c0 0.574 0.32 0.904 0.882 0.904zM26.349 12.684c0.585 0 0.893-0.331 0.893-0.904v-2.702c0-2.272-1.158-3.408-3.463-3.408h-2.702c-0.573 0-0.893 0.309-0.893 0.882s0.32 0.893 0.893 0.893h2.669c1.092 0 1.721 0.585 1.721 1.732v2.603c0 0.574 0.32 0.904 0.882 0.904zM9.11 27.254h2.691c0.585 0 0.904-0.32 0.904-0.882 0-0.573-0.32-0.893-0.904-0.893h-2.669c-1.103 0-1.71-0.585-1.71-1.732v-2.603c0-0.584-0.32-0.904-0.893-0.904s-0.882 0.32-0.882 0.904v2.691c0 2.283 1.158 3.419 3.463 3.419zM21.077 27.254h2.702c2.305 0 3.463-1.147 3.463-3.419v-2.691c0-0.584-0.32-0.904-0.893-0.904s-0.882 0.32-0.882 0.904v2.603c0 1.147-0.629 1.732-1.721 1.732h-2.669c-0.573 0-0.893 0.32-0.893 0.893 0 0.563 0.32 0.882 0.893 0.882zM11.526 21.441h9.849c1.158 0 1.754-0.573 1.754-1.721v-5.824c0-1.169-0.596-1.743-1.754-1.743h-1.434c-0.43 0-0.563-0.077-0.816-0.364l-0.452-0.496c-0.276-0.309-0.562-0.463-1.125-0.463h-2.228c-0.573 0-0.86 0.154-1.136 0.463l-0.452 0.496c-0.254 0.276-0.386 0.364-0.816 0.364h-1.39c-1.169 0-1.754 0.573-1.754 1.743v5.824c0 1.147 0.585 1.721 1.754 1.721zM16.467 20.063c-1.842 0-3.32-1.467-3.32-3.32 0-1.831 1.478-3.298 3.32-3.298 1.82 0 3.287 1.467 3.287 3.298 0 1.886-1.467 3.32-3.287 3.32zM16.456 19.103c1.29 0 2.349-1.037 2.349-2.36 0-1.302-1.059-2.349-2.349-2.349-1.301 0-2.36 1.048-2.36 2.349 0 1.323 1.059 2.36 2.36 2.36zM20.857 15.165c-0.408 0-0.739-0.331-0.739-0.75s0.331-0.75 0.739-0.75c0.408 0 0.75 0.331 0.75 0.75s-0.342 0.75-0.75 0.75z"></path>
</svg>
