<!-- Generated by IcoMoon.io -->
<svg version="1.1" xmlns="http://www.w3.org/2000/svg" width="32" height="32" viewBox="0 0 32 32">
<title>camera-filters</title>
<path d="M11.529 27.879c4.29 0 7.765-3.485 7.765-7.776 0-4.268-3.485-7.754-7.765-7.754s-7.765 3.485-7.765 7.754c0 4.29 3.485 7.776 7.765 7.776zM11.529 26.114c-3.32 0-6-2.68-6-6.011 0-3.298 2.68-5.989 6-5.989 3.309 0 6 2.68 6 5.989 0 3.32-2.691 6.011-6 6.011z"></path>
<path d="M20.331 27.879c4.268 0 7.754-3.485 7.754-7.776 0-4.268-3.485-7.754-7.754-7.754-4.29 0-7.776 3.485-7.776 7.754 0 4.29 3.485 7.776 7.776 7.776zM20.331 26.114c-3.32 0-6.011-2.68-6.011-6.011 0-3.298 2.691-5.989 6.011-5.989 3.298 0 5.989 2.68 5.989 5.989 0 3.32-2.669 6.011-5.989 6.011z"></path>
<path d="M15.93 20.301c4.279 0 7.754-3.474 7.754-7.765 0-4.279-3.474-7.765-7.754-7.765-4.29 0-7.776 3.485-7.776 7.765 0 4.29 3.485 7.765 7.776 7.765zM15.93 18.537c-3.32 0-6.011-2.68-6.011-6 0-3.309 2.691-6 6.011-6 3.298 0 5.989 2.691 5.989 6 0 3.32-2.68 6-5.989 6z"></path>
</svg>
