<!-- Generated by IcoMoon.io -->
<svg version="1.1" xmlns="http://www.w3.org/2000/svg" width="32" height="32" viewBox="0 0 32 32">
<title>camera-aperture</title>
<path d="M15.956 21.371c2.956 0 5.415-2.459 5.415-5.415 0-2.967-2.459-5.426-5.415-5.426s-5.415 2.46-5.415 5.426c0 2.956 2.46 5.415 5.415 5.415zM15.956 19.706c-2.040 0-3.75-1.721-3.75-3.75 0-2.063 1.698-3.761 3.75-3.761 2.040 0 3.75 1.71 3.75 3.761 0 2.040-1.699 3.75-3.75 3.75zM25.232 12.195v-1.654l-9.221-0.011v1.665h9.221zM23.886 22.221l1.401-0.882-4.555-7.897-1.434 0.827 4.588 7.952zM14.555 25.849l1.456 0.783 4.577-7.897-1.434-0.838-4.599 7.952zM6.68 19.706v1.654l9.221 0.011v-1.665h-9.221zM8.026 9.669l-1.401 0.893 4.555 7.897 1.434-0.827-4.588-7.963zM17.357 6.040l-1.456-0.772-4.577 7.897 1.434 0.838 4.599-7.963zM15.956 27.206c6.154 0 11.25-5.107 11.25-11.25 0-6.154-5.107-11.25-11.261-11.25-6.143 0-11.239 5.096-11.239 11.25 0 6.143 5.107 11.25 11.25 11.25zM15.956 25.331c-5.206 0-9.364-4.169-9.364-9.375s4.147-9.375 9.353-9.375c5.206 0 9.386 4.169 9.386 9.375s-4.169 9.375-9.375 9.375z"></path>
</svg>
