<!-- Generated by IcoMoon.io -->
<svg version="1.1" xmlns="http://www.w3.org/2000/svg" width="32" height="32" viewBox="0 0 32 32">
<title>candybarphone</title>
<path d="M12.412 26.71h7.29c1.798 0 3-1.147 3-2.868v-16.268c0-1.721-1.202-2.868-3-2.868h-7.29c-1.798 0-3 1.147-3 2.868v16.268c0 1.721 1.202 2.868 3 2.868zM12.643 24.934c-0.938 0-1.456-0.496-1.456-1.379v-15.695c0-0.882 0.518-1.379 1.456-1.379h6.827c0.927 0 1.456 0.496 1.456 1.379v15.695c0 0.882-0.529 1.379-1.456 1.379h-6.827zM13.184 14.732h5.746c0.574 0 0.915-0.309 0.915-0.838v-5.437c0-0.529-0.342-0.838-0.915-0.838h-5.746c-0.574 0-0.915 0.309-0.915 0.838v5.437c0 0.529 0.342 0.838 0.915 0.838zM12.985 17.963h1.015c0.243 0 0.43-0.165 0.43-0.397v-1.048c0-0.221-0.187-0.386-0.43-0.386h-1.015c-0.232 0-0.397 0.165-0.397 0.386v1.048c0 0.232 0.165 0.397 0.397 0.397zM15.511 17.963h1.015c0.243 0 0.419-0.165 0.419-0.397v-1.048c0-0.221-0.176-0.386-0.419-0.386h-1.015c-0.232 0-0.397 0.165-0.397 0.386v1.048c0 0.232 0.165 0.397 0.397 0.397zM18.037 17.963h1.015c0.254 0 0.43-0.165 0.43-0.397v-1.048c0-0.221-0.176-0.386-0.43-0.386h-1.015c-0.232 0-0.397 0.165-0.397 0.386v1.048c0 0.232 0.165 0.397 0.397 0.397zM12.985 20.677h1.015c0.243 0 0.43-0.165 0.43-0.386v-1.048c0-0.232-0.187-0.397-0.43-0.397h-1.015c-0.232 0-0.397 0.165-0.397 0.397v1.048c0 0.221 0.165 0.386 0.397 0.386zM15.511 20.677h1.015c0.243 0 0.419-0.165 0.419-0.386v-1.048c0-0.232-0.176-0.397-0.419-0.397h-1.015c-0.232 0-0.397 0.165-0.397 0.397v1.048c0 0.221 0.165 0.386 0.397 0.386zM18.037 20.677h1.015c0.254 0 0.43-0.165 0.43-0.386v-1.048c0-0.232-0.176-0.397-0.43-0.397h-1.015c-0.232 0-0.397 0.165-0.397 0.397v1.048c0 0.221 0.165 0.386 0.397 0.386zM12.985 23.401h1.015c0.243 0 0.43-0.165 0.43-0.397v-1.048c0-0.232-0.187-0.397-0.43-0.397h-1.015c-0.232 0-0.397 0.165-0.397 0.397v1.048c0 0.232 0.165 0.397 0.397 0.397zM15.511 23.401h1.015c0.243 0 0.419-0.165 0.419-0.397v-1.048c0-0.232-0.176-0.397-0.419-0.397h-1.015c-0.232 0-0.397 0.165-0.397 0.397v1.048c0 0.232 0.165 0.397 0.397 0.397zM18.037 23.401h1.015c0.254 0 0.43-0.165 0.43-0.397v-1.048c0-0.232-0.176-0.397-0.43-0.397h-1.015c-0.232 0-0.397 0.165-0.397 0.397v1.048c0 0.232 0.165 0.397 0.397 0.397z"></path>
</svg>
