<!-- Generated by IcoMoon.io -->
<svg version="1.1" xmlns="http://www.w3.org/2000/svg" width="32" height="32" viewBox="0 0 32 32">
<title>capslock-fill</title>
<path d="M12.393 21.085h7.809c1.268 0 1.864-0.596 1.864-1.864v-2.449h4.18c0.915 0 1.643-0.54 1.643-1.39 0-0.518-0.265-0.927-0.761-1.357l-9.463-8.349c-0.463-0.397-0.871-0.662-1.368-0.662s-0.904 0.265-1.368 0.662l-9.463 8.36c-0.518 0.452-0.761 0.827-0.761 1.346 0 0.849 0.728 1.39 1.643 1.39h4.18v2.449c0 1.268 0.596 1.864 1.864 1.864zM12.283 28.099h8.029c1.103 0 1.754-0.651 1.754-1.743v-1.699c0-1.092-0.651-1.743-1.754-1.743h-8.029c-1.103 0-1.754 0.651-1.754 1.743v1.699c0 1.092 0.651 1.743 1.754 1.743z"></path>
</svg>
