<!-- Generated by IcoMoon.io -->
<svg version="1.1" xmlns="http://www.w3.org/2000/svg" width="32" height="32" viewBox="0 0 32 32">
<title>capsule-inset-filled</title>
<path d="M1.882 16.456c0 6.518 4.5 10.809 11.294 10.809h6.364c6.794 0 11.305-4.29 11.305-10.809s-4.511-10.809-11.305-10.809h-6.364c-6.794 0-11.294 4.29-11.294 10.809zM3.669 16.456c0-5.449 3.651-9.011 9.176-9.011h7.026c5.526 0 9.187 3.563 9.187 9.011s-3.662 9.011-9.187 9.011h-7.026c-5.526 0-9.176-3.563-9.176-9.011zM5.279 16.456c0 4.533 2.934 7.39 7.566 7.39h7.026c4.643 0 7.577-2.857 7.577-7.39s-2.934-7.401-7.577-7.401h-7.026c-4.632 0-7.566 2.868-7.566 7.401z"></path>
</svg>
