<!-- Generated by IcoMoon.io -->
<svg version="1.1" xmlns="http://www.w3.org/2000/svg" width="32" height="32" viewBox="0 0 32 32">
<title>capslock</title>
<path d="M12.89 21.018h6.816c1.544 0 2.36-0.904 2.36-2.36v-1.886h4.18c0.915 0 1.643-0.54 1.643-1.39 0-0.518-0.265-0.927-0.761-1.357l-9.463-8.349c-0.463-0.397-0.871-0.662-1.368-0.662s-0.904 0.265-1.368 0.662l-9.463 8.36c-0.518 0.452-0.761 0.827-0.761 1.346 0 0.849 0.728 1.39 1.643 1.39h4.18v1.886c0 1.456 0.816 2.36 2.36 2.36zM13.066 19.353c-0.408 0-0.695-0.276-0.695-0.695v-3.176c0-0.265-0.099-0.375-0.375-0.375h-4.798c-0.077 0-0.121-0.033-0.121-0.088 0-0.044 0.022-0.088 0.066-0.132l8.923-7.743c0.088-0.088 0.154-0.121 0.232-0.121s0.143 0.033 0.232 0.121l8.923 7.743c0.044 0.044 0.066 0.088 0.066 0.132 0 0.055-0.044 0.088-0.121 0.088h-4.798c-0.265 0-0.375 0.11-0.375 0.375v3.176c0 0.408-0.298 0.695-0.695 0.695h-6.463zM12.415 28.099h7.665c1.279 0 2.007-0.706 2.007-1.985v-1.577c0-1.29-0.728-2.018-2.007-2.018h-7.665c-1.268 0-1.996 0.739-1.996 2.018v1.577c0 1.268 0.728 1.985 1.996 1.985zM12.669 26.544c-0.386 0-0.585-0.198-0.585-0.585v-1.268c0-0.386 0.199-0.618 0.585-0.618h7.158c0.386 0 0.596 0.232 0.596 0.618v1.268c0 0.386-0.209 0.585-0.596 0.585h-7.158z"></path>
</svg>
