<!-- Generated by IcoMoon.io -->
<svg version="1.1" xmlns="http://www.w3.org/2000/svg" width="32" height="32" viewBox="0 0 32 32">
<title>capsule-portrait-inset-filled</title>
<path d="M15.551 2.824c-6 0-9.904 3.75-9.904 9.706v7.368c0 5.956 3.904 9.695 9.904 9.695s9.904-3.739 9.904-9.695v-7.368c0-5.956-3.904-9.706-9.904-9.706zM15.551 4.61c4.919 0 8.107 2.901 8.107 7.588v8.029c0 4.688-3.187 7.588-8.107 7.588s-8.107-2.901-8.107-7.588v-8.029c0-4.687 3.188-7.588 8.107-7.588zM15.563 26.195c4.081 0 6.485-2.228 6.485-5.967v-8.029c0-3.739-2.404-5.967-6.485-5.967s-6.496 2.228-6.496 5.967v8.029c0 3.739 2.415 5.967 6.496 5.967z"></path>
</svg>
