<!-- Generated by IcoMoon.io -->
<svg version="1.1" xmlns="http://www.w3.org/2000/svg" width="32" height="32" viewBox="0 0 32 32">
<title>captions-bubble-fill</title>
<path d="M10.316 28.129c0.43 0 0.75-0.221 1.268-0.706l3.982-3.64h7.456c3.287 0 5.051-1.809 5.051-5.040v-8.449c0-3.232-1.765-5.051-5.051-5.051h-14.206c-3.287 0-5.051 1.809-5.051 5.051v8.449c0 3.243 1.765 5.040 5.051 5.040h0.518v3.21c0 0.684 0.353 1.136 0.982 1.136zM8.739 15.765c-0.364 0-0.662-0.298-0.662-0.673 0-0.353 0.298-0.651 0.662-0.651h4.676c0.364 0 0.662 0.298 0.662 0.651 0 0.375-0.298 0.673-0.662 0.673h-4.676zM15.765 15.765c-0.364 0-0.662-0.298-0.662-0.673 0-0.353 0.298-0.651 0.662-0.651h7.357c0.364 0 0.651 0.298 0.651 0.651 0 0.375-0.287 0.673-0.651 0.673h-7.357zM8.739 18.732c-0.364 0-0.662-0.287-0.662-0.651 0-0.375 0.298-0.673 0.662-0.673h1.93c0.364 0 0.651 0.298 0.651 0.673 0 0.364-0.287 0.651-0.651 0.651h-1.93zM13.007 18.732c-0.364 0-0.651-0.287-0.651-0.651 0-0.375 0.287-0.673 0.651-0.673h5.702c0.364 0 0.662 0.298 0.662 0.673 0 0.364-0.298 0.651-0.662 0.651h-5.702zM21.059 18.732c-0.364 0-0.662-0.287-0.662-0.651 0-0.375 0.298-0.673 0.662-0.673h2.063c0.364 0 0.651 0.298 0.651 0.673 0 0.364-0.287 0.651-0.651 0.651h-2.063z"></path>
</svg>
