<!-- Generated by IcoMoon.io -->
<svg version="1.1" xmlns="http://www.w3.org/2000/svg" width="32" height="32" viewBox="0 0 32 32">
<title>captions-bubble</title>
<path d="M10.548 27.996c0.54 0 0.915-0.287 1.588-0.882l3.805-3.386h7.081c3.287 0 5.051-1.82 5.051-5.051v-8.449c0-3.232-1.765-5.051-5.051-5.051h-14.206c-3.287 0-5.051 1.809-5.051 5.051v8.449c0 3.243 1.765 5.051 5.051 5.051h0.529v2.868c0 0.849 0.43 1.401 1.202 1.401zM11 25.978v-3.199c0-0.596-0.232-0.827-0.827-0.827h-1.357c-2.228 0-3.276-1.136-3.276-3.287v-8.437c0-2.151 1.048-3.276 3.276-3.276h14.206c2.217 0 3.276 1.125 3.276 3.276v8.437c0 2.151-1.059 3.287-3.276 3.287h-7.147c-0.618 0-0.927 0.088-1.346 0.518l-3.529 3.507zM8.949 15.732h4.544c0.353 0 0.64-0.287 0.64-0.651 0-0.342-0.287-0.629-0.64-0.629h-4.544c-0.353 0-0.64 0.287-0.64 0.629 0 0.364 0.287 0.651 0.64 0.651zM15.776 15.732h7.136c0.353 0 0.629-0.287 0.629-0.651 0-0.342-0.276-0.629-0.629-0.629h-7.136c-0.353 0-0.64 0.287-0.64 0.629 0 0.364 0.287 0.651 0.64 0.651zM8.949 18.61h1.875c0.353 0 0.629-0.276 0.629-0.629 0-0.364-0.276-0.651-0.629-0.651h-1.875c-0.353 0-0.64 0.287-0.64 0.651 0 0.353 0.287 0.629 0.64 0.629zM13.096 18.61h5.526c0.353 0 0.64-0.276 0.64-0.629 0-0.364-0.287-0.651-0.64-0.651h-5.526c-0.353 0-0.629 0.287-0.629 0.651 0 0.353 0.276 0.629 0.629 0.629zM20.904 18.61h2.007c0.353 0 0.629-0.276 0.629-0.629 0-0.364-0.276-0.651-0.629-0.651h-2.007c-0.353 0-0.64 0.287-0.64 0.651 0 0.353 0.287 0.629 0.64 0.629z"></path>
</svg>
