<!-- Generated by IcoMoon.io -->
<svg version="1.1" xmlns="http://www.w3.org/2000/svg" width="32" height="32" viewBox="0 0 32 32">
<title>car-rear-and-tire-marks-slash</title>
<path d="M18.83 15.169h3.165v1.048c0 0.529 0.408 0.938 0.949 0.938h0.838c0.551 0 0.96-0.408 0.96-0.938v-4.809c0-1.213-0.154-1.952-0.915-2.757l-0.717-0.783-0.75-2.162c-0.408-1.169-1.213-1.665-2.206-1.787-0.485-0.055-2.063-0.099-3.915-0.099-1.864 0-3.441 0.044-3.915 0.099-0.993 0.121-1.809 0.618-2.217 1.787l-0.187 0.563 1.081 1.081c0-0.055 0.011-0.077 0.033-0.132l0.397-1.213c0.165-0.496 0.419-0.651 0.849-0.717 0.496-0.055 1.897-0.121 3.96-0.121 2.051 0 3.441 0.066 3.938 0.121 0.43 0.066 0.684 0.221 0.849 0.717l0.463 1.335c0.11 0.331-0.011 0.585-0.364 0.585h-9.551l2.526 2.515v-0.033c0.088-0.187 0.254-0.298 0.496-0.298h3.254c0.353 0 0.585 0.232 0.585 0.607v0.728c0 0.386-0.232 0.618-0.585 0.618h-2.14l3.121 3.11zM22.205 12.412c-0.43 0-0.761-0.331-0.761-0.772v-1.125c0-0.43 0.331-0.761 0.761-0.761 0.441 0 0.772 0.32 0.772 0.761v1.125c0 0.441-0.331 0.772-0.772 0.772zM8.683 17.154h0.838c0.54 0 0.96-0.408 0.96-0.938v-1.048h1.677l-4.246-4.235c-0.11 0.265-0.188 0.496-0.188 0.893v4.39c0 0.529 0.419 0.938 0.96 0.938zM13.37 19.007l-0.838-0.629c-0.309-0.221-0.662-0.331-1.037-0.331h-1.787c-0.441 0-0.607 0.529-0.254 0.783l1.688 1.235c0.529 0.386 0.452 0.893-0.154 1.169l-5.493 2.371c-2.107 0.904-2.294 2.283-0.54 3.596l0.838 0.618c0.309 0.232 0.662 0.342 1.037 0.342h1.787c0.441 0 0.607-0.529 0.254-0.783l-1.688-1.246c-0.518-0.375-0.452-0.893 0.154-1.158l5.493-2.382c2.107-0.904 2.294-2.272 0.541-3.585zM24.918 19.029l-0.838-0.629c-0.309-0.232-0.662-0.331-1.048-0.331h-1.103l3.717 3.706c0.794-0.805 0.552-1.798-0.728-2.746zM19.536 22.548l-2.493 1.081c-2.107 0.904-2.294 2.272-0.54 3.585l0.838 0.618c0.309 0.232 0.662 0.342 1.037 0.342h1.787c0.441 0 0.607-0.529 0.254-0.783l-1.687-1.235c-0.518-0.386-0.463-0.893 0.154-1.169l2.151-0.927-1.5-1.511zM26.573 27.445c0.331 0.331 0.871 0.331 1.202 0 0.32-0.342 0.331-0.871 0-1.202l-21.849-21.849c-0.331-0.331-0.871-0.342-1.213 0-0.32 0.32-0.331 0.871 0 1.202l21.86 21.849z"></path>
</svg>
