<!-- Generated by IcoMoon.io -->
<svg version="1.1" xmlns="http://www.w3.org/2000/svg" width="32" height="32" viewBox="0 0 32 32">
<title>car-circle</title>
<path d="M15.956 27.206c6.154 0 11.25-5.107 11.25-11.25 0-6.154-5.107-11.25-11.261-11.25-6.143 0-11.239 5.096-11.239 11.25 0 6.143 5.107 11.25 11.25 11.25zM15.956 25.331c-5.206 0-9.364-4.169-9.364-9.375s4.147-9.375 9.353-9.375c5.206 0 9.386 4.169 9.386 9.375s-4.169 9.375-9.375 9.375zM9.901 19.607c0 0.386 0.298 0.673 0.684 0.673h0.607c0.375 0 0.673-0.287 0.673-0.673v-0.849c1.136 0.066 2.779 0.121 4.092 0.121s2.945-0.055 4.081-0.121v0.849c0 0.386 0.298 0.673 0.684 0.673h0.607c0.375 0 0.673-0.287 0.673-0.673v-2.945c0-0.849-0.176-1.335-0.651-1.952l-0.43-0.551c-0.199-0.927-0.529-1.897-0.695-2.272-0.276-0.574-0.805-0.904-1.489-1.004-0.342-0.044-1.467-0.066-2.779-0.066-1.323 0-2.437 0.022-2.79 0.066-0.673 0.088-1.202 0.43-1.478 1.004-0.176 0.375-0.507 1.346-0.695 2.272l-0.441 0.551c-0.474 0.618-0.651 1.103-0.651 1.952v2.945zM12.294 13.673c0.121-0.529 0.342-1.202 0.496-1.478 0.132-0.232 0.276-0.331 0.541-0.364 0.353-0.055 1.169-0.077 2.625-0.077 1.445 0 2.261 0.011 2.625 0.077 0.265 0.033 0.397 0.132 0.54 0.364 0.154 0.265 0.375 0.949 0.485 1.478 0.055 0.165-0.022 0.243-0.209 0.232-0.783-0.066-1.732-0.099-3.441-0.099-1.721 0-2.658 0.033-3.452 0.099-0.188 0.011-0.254-0.066-0.21-0.232zM11.445 16.684c0-0.474 0.364-0.827 0.816-0.827 0.463 0 0.827 0.353 0.827 0.827 0 0.463-0.364 0.805-0.827 0.805-0.452 0-0.816-0.342-0.816-0.805zM14.015 16.717c0-0.353 0.243-0.596 0.596-0.596h2.691c0.342 0 0.585 0.243 0.585 0.596 0 0.342-0.243 0.585-0.585 0.585h-2.691c-0.353 0-0.596-0.243-0.596-0.585zM18.824 16.684c0-0.474 0.353-0.827 0.816-0.827s0.827 0.353 0.827 0.827c0 0.463-0.364 0.805-0.827 0.805s-0.816-0.342-0.816-0.805z"></path>
</svg>
