<!-- Generated by IcoMoon.io -->
<svg version="1.1" xmlns="http://www.w3.org/2000/svg" width="32" height="32" viewBox="0 0 32 32">
<title>car-side-air-circulate-fill</title>
<path d="M11.796 14.982c0-1.532 1.123-2.576 2.785-2.576h5.231c0.383 0 0.644 0.27 0.644 0.627s-0.261 0.601-0.635 0.601h-5.239c-0.914 0-1.523 0.574-1.523 1.419 0 0.748 0.601 1.253 1.514 1.253h3.577v-0.775c0-0.522 0.366-0.696 0.809-0.4l2.080 1.366c0.348 0.244 0.331 0.661 0 0.87l-2.089 1.375c-0.444 0.287-0.801 0.104-0.801-0.4v-0.818h-3.577c-1.654 0-2.776-1.018-2.776-2.541zM2.675 21.474h1.358c-0.052-0.261-0.096-0.531-0.096-0.818 0-1.871 1.48-3.342 3.342-3.342 1.871 0 3.342 1.471 3.342 3.342 0 0.287-0.035 0.557-0.096 0.818h11.088c-0.052-0.261-0.096-0.531-0.096-0.818 0-1.871 1.48-3.342 3.342-3.342 1.871 0 3.342 1.471 3.342 3.342 0 0.287-0.035 0.557-0.096 0.818h1.149c1.253 0 2.019-0.792 2.019-2.080v-3.499c0-1.218-0.366-2.254-1.984-2.759l-1.793-0.548c-1.131-1.349-3.107-3.272-6.702-3.272h-2.045c-3.586 0-5.013 0.348-7.154 1.688l-3.507 2.202-3.864 0.47c-2.402 0.296-3.821 1.68-3.821 3.751v1.723c0 1.48 0.827 2.324 2.272 2.324zM7.279 22.98c1.305 0 2.332-1.027 2.332-2.324s-1.036-2.332-2.332-2.332c-1.288 0-2.324 1.036-2.324 2.332 0 1.288 1.036 2.324 2.324 2.324zM24.86 22.98c1.297 0 2.332-1.036 2.332-2.324 0-1.297-1.036-2.332-2.332-2.332-1.279 0-2.324 1.044-2.324 2.332s1.036 2.324 2.324 2.324z"></path>
</svg>
