<!-- Generated by IcoMoon.io -->
<svg version="1.1" xmlns="http://www.w3.org/2000/svg" width="32" height="32" viewBox="0 0 32 32">
<title>car-top-door-front-right-open-fill</title>
<path d="M13.588 30.36c5.57 0 7.941-1.224 7.941-4.224v-19.147c0-3.221-2.923-5.107-7.941-5.107-5.007 0-7.941 1.886-7.941 5.107v19.147c0 3 2.382 4.224 7.941 4.224zM13.599 13.629c-1.081 0-2.735 0.077-3.32 0.077-0.849 0-1.224-0.331-1.313-1.213l-0.176-2.14c-0.154-1.643 1.004-2.305 4.809-2.305 3.794 0 4.952 0.662 4.798 2.305l-0.176 2.14c-0.088 0.882-0.452 1.213-1.313 1.213-0.573 0-2.294-0.077-3.309-0.077zM13.599 25.772c-3.838 0-5.007-0.574-4.765-2.25l0.143-1.037c0.188-1.357 1.324-1.82 4.621-1.82 3.287 0 4.423 0.463 4.61 1.82l0.143 1.037c0.243 1.676-0.927 2.25-4.754 2.25zM20.702 9.57v2.592l4.092 4.081c0.364 0.364 0.937 0.353 1.301 0 0.353-0.364 0.353-0.949 0-1.312l-5.393-5.36z"></path>
</svg>
