<!-- Generated by IcoMoon.io -->
<svg version="1.1" xmlns="http://www.w3.org/2000/svg" width="32" height="32" viewBox="0 0 32 32">
<title>car-rear</title>
<path d="M2.824 20.581c0 1.445 0.827 2.471 2.36 2.471h21.386c1.522 0 2.349-1.026 2.349-2.471v-3.298c0-1.853-0.254-2.967-1.39-4.213l-1.114-1.202-1.158-3.32c-0.629-1.809-1.853-2.57-3.375-2.746-0.739-0.088-3.154-0.154-6.011-0.154-2.846 0-5.261 0.066-6 0.154-1.533 0.176-2.757 0.938-3.386 2.746l-1.158 3.32-1.103 1.202c-1.147 1.246-1.401 2.36-1.401 4.213v3.298zM4.268 20.14v-2.857c0-1.5 0.176-2.283 1.103-3.331l1.301-1.478 1.114-3.276c0.452-1.335 1.224-1.798 2.25-1.919 0.706-0.088 2.945-0.188 5.835-0.188 2.901 0 5.129 0.099 5.835 0.188 1.026 0.121 1.798 0.585 2.25 1.919l1.114 3.276 1.312 1.478c0.915 1.048 1.092 1.831 1.092 3.331v2.857c0 0.871-0.353 1.467-1.301 1.467h-20.603c-0.938 0-1.301-0.596-1.301-1.467zM8.79 12.287h14.162c0.496 0 0.673-0.364 0.507-0.827l-0.651-1.93c-0.243-0.717-0.618-0.96-1.257-1.048-0.717-0.099-2.713-0.176-5.68-0.176s-4.952 0.077-5.68 0.176c-0.629 0.088-1.015 0.331-1.257 1.048l-0.651 1.93c-0.154 0.463 0.011 0.827 0.507 0.827zM7.357 18.673c0.629 0 1.092-0.463 1.092-1.103v-1.621c0-0.64-0.463-1.092-1.092-1.092-0.64 0-1.103 0.463-1.103 1.092v1.621c0 0.629 0.463 1.103 1.103 1.103zM13.511 18.176h4.687c0.518 0 0.86-0.342 0.86-0.882v-1.070c0-0.54-0.342-0.86-0.86-0.86h-4.687c-0.496 0-0.838 0.32-0.838 0.86v1.070c0 0.54 0.342 0.882 0.838 0.882zM24.496 18.673c0.64 0 1.114-0.463 1.114-1.103v-1.621c0-0.64-0.474-1.092-1.114-1.092-0.618 0-1.092 0.474-1.092 1.092v1.621c0 0.629 0.474 1.103 1.092 1.103zM4.853 26.107h1.29c0.827 0 1.467-0.64 1.467-1.456v-2.25l-4.224-0.607v2.857c0 0.816 0.64 1.456 1.467 1.456zM25.599 26.107h1.301c0.827 0 1.456-0.64 1.456-1.456v-2.857l-4.213 0.607v2.25c0 0.816 0.629 1.456 1.456 1.456z"></path>
</svg>
