<!-- Generated by IcoMoon.io -->
<svg version="1.1" xmlns="http://www.w3.org/2000/svg" width="32" height="32" viewBox="0 0 32 32">
<title>car-rear-waves-up</title>
<path d="M16.346 4.654c2.382 0 4.533 0.827 6.176 2.305 0.452 0.408 0.971 0.507 1.368 0.165 0.419-0.364 0.419-0.971-0.055-1.401-1.985-1.831-4.632-2.868-7.489-2.868s-5.504 1.037-7.489 2.868c-0.463 0.43-0.463 1.037-0.055 1.401 0.408 0.342 0.915 0.243 1.368-0.165 1.643-1.478 3.805-2.305 6.176-2.305zM16.368 9.077c1.147 0 2.206 0.331 3.033 0.993 0.474 0.342 0.971 0.496 1.368 0.143 0.408-0.364 0.419-1.026-0.077-1.423-1.191-0.96-2.702-1.511-4.324-1.511s-3.132 0.551-4.323 1.511c-0.507 0.397-0.496 1.059-0.077 1.423 0.397 0.353 0.882 0.198 1.368-0.143 0.849-0.64 1.886-0.993 3.033-0.993zM5.647 24.816c0 1.257 0.739 2.184 2.085 2.184h17.327c1.335 0 2.085-0.927 2.085-2.184v-2.669c0-1.511-0.209-2.482-1.18-3.529l-0.882-0.96-0.915-2.647c-0.529-1.533-1.599-2.195-2.89-2.338-0.607-0.077-2.581-0.132-4.886-0.132-2.316 0-4.268 0.055-4.886 0.132-1.29 0.143-2.349 0.816-2.879 2.338l-0.938 2.647-0.86 0.96c-0.971 1.059-1.18 2.018-1.18 3.529v2.669zM7.169 24.463v-2.316c0-1.202 0.132-1.754 0.849-2.581l1.070-1.224 0.926-2.68c0.353-1.026 0.882-1.346 1.677-1.445 0.562-0.066 2.349-0.143 4.699-0.143s4.147 0.077 4.71 0.143c0.794 0.099 1.323 0.419 1.676 1.445l0.915 2.68 1.081 1.224c0.717 0.827 0.849 1.379 0.849 2.581v2.316c0 0.662-0.221 1.015-0.882 1.015h-16.688c-0.662 0-0.882-0.353-0.882-1.015zM10.654 18.099h11.471c0.419 0 0.552-0.298 0.419-0.662l-0.518-1.577c-0.198-0.574-0.518-0.783-1.037-0.849-0.585-0.088-2.195-0.154-4.599-0.154s-4.015 0.066-4.599 0.154c-0.507 0.066-0.827 0.276-1.026 0.849l-0.529 1.577c-0.132 0.364 0.011 0.662 0.419 0.662zM9.496 23.283c0.518 0 0.904-0.375 0.904-0.904v-1.312c0-0.529-0.386-0.893-0.904-0.893s-0.904 0.375-0.904 0.893v1.312c0 0.518 0.386 0.904 0.904 0.904zM14.482 22.886h3.794c0.419 0 0.706-0.276 0.706-0.739v-0.86c0-0.441-0.287-0.706-0.706-0.706h-3.794c-0.419 0-0.695 0.265-0.695 0.706v0.86c0 0.463 0.276 0.739 0.695 0.739zM23.371 23.283c0.529 0 0.915-0.375 0.915-0.904v-1.312c0-0.529-0.386-0.893-0.915-0.893-0.496 0-0.893 0.386-0.893 0.893v1.312c0 0.518 0.397 0.904 0.893 0.904zM7.456 29.305h1.059c0.673 0 1.191-0.518 1.191-1.18v-1.842l-3.441-0.496v2.338c0 0.662 0.529 1.18 1.191 1.18zM24.265 29.305h1.070c0.662 0 1.18-0.518 1.18-1.18v-2.338l-3.43 0.496v1.842c0 0.662 0.507 1.18 1.18 1.18z"></path>
</svg>
