<!-- Generated by IcoMoon.io -->
<svg version="1.1" xmlns="http://www.w3.org/2000/svg" width="32" height="32" viewBox="0 0 32 32">
<title>car-top-lane-dashed-departure-left-fill</title>
<path d="M26.986 10.684c0.375 0 0.651-0.276 0.651-0.651v-4.676c0-0.375-0.276-0.651-0.651-0.651h-0.585c-0.375 0-0.651 0.276-0.651 0.651v4.676c0 0.375 0.276 0.651 0.651 0.651h0.585zM26.986 18.857c0.375 0 0.651-0.276 0.651-0.651v-4.665c0-0.364-0.276-0.64-0.651-0.64h-0.585c-0.375 0-0.651 0.276-0.651 0.64v4.665c0 0.375 0.276 0.651 0.651 0.651h0.585zM26.986 27.051c0.375 0 0.651-0.276 0.651-0.651v-4.677c0-0.375-0.276-0.651-0.651-0.651h-0.585c-0.375 0-0.651 0.276-0.651 0.651v4.677c0 0.375 0.276 0.651 0.651 0.651h0.585zM7.056 8.566v-3.21c0-0.375-0.276-0.651-0.651-0.651h-0.585c-0.375 0-0.651 0.276-0.651 0.651v4.279l1.886-1.070zM6.405 27.040c0.375 0 0.651-0.276 0.651-0.64v-4.677c0-0.375-0.276-0.651-0.651-0.651h-0.585c-0.375 0-0.651 0.276-0.651 0.651v4.677c0 0.364 0.276 0.64 0.651 0.64h0.585zM17.269 24.724c3.364-1.941 4.434-3.585 3.309-5.526l-6.596-11.426c-1.158-2.007-3.684-2.107-6.717-0.364-3.055 1.754-4.224 4.004-3.055 6.011l6.585 11.426c1.136 1.941 3.099 1.82 6.474-0.121zM11.435 14.632c-0.618 0.364-1.621 1.026-1.952 1.224-0.54 0.309-0.927 0.243-1.313-0.32l-0.849-1.202c-0.684-0.993-0.232-1.787 2.129-3.143 2.338-1.357 3.254-1.357 3.783-0.254l0.607 1.335c0.276 0.585 0.176 0.96-0.386 1.268-0.342 0.221-1.368 0.717-2.018 1.092zM15.648 21.934c-2.338 1.357-3.298 1.434-3.75 0.265l-0.254-0.673c-0.375-0.949 0.143-1.599 2.173-2.757 2.007-1.169 2.857-1.301 3.474-0.507l0.452 0.563c0.783 0.993 0.232 1.765-2.096 3.11zM15.394 11.93l1.125-0.64c0.419-0.243 0.574-0.783 0.331-1.191l-0.198-0.331c-0.243-0.419-0.761-0.551-1.191-0.298l-1.114 0.651 1.048 1.809zM7.1 16.717l-1.048-1.82-1.114 0.64c-0.441 0.254-0.563 0.772-0.331 1.191l0.188 0.342c0.232 0.408 0.761 0.552 1.191 0.298l1.114-0.651z"></path>
</svg>
