<!-- Generated by IcoMoon.io -->
<svg version="1.1" xmlns="http://www.w3.org/2000/svg" width="32" height="32" viewBox="0 0 32 32">
<title>car-rear-road-lane-dashed</title>
<path d="M7.279 10.485h0.794c0.496 0 0.706-0.187 0.871-0.607l0.651-1.643c0.154-0.364-0.011-0.684-0.397-0.684h-0.728c-0.375 0-0.607 0.188-0.783 0.518l-0.871 1.677c-0.176 0.331 0 0.739 0.463 0.739zM4.257 16.618h1.224c0.507 0 0.805-0.176 0.993-0.651l0.96-2.36c0.154-0.386-0.088-0.761-0.518-0.761h-1.092c-0.375 0-0.684 0.188-0.86 0.529l-1.224 2.382c-0.221 0.419 0.044 0.86 0.518 0.86zM0.893 24.063h1.445c0.662 0 0.993-0.32 1.169-0.794l1.346-3.298c0.199-0.485-0.11-0.96-0.64-0.96h-1.246c-0.695 0-1.037 0.265-1.279 0.728l-1.566 3.099c-0.287 0.563-0.077 1.224 0.772 1.224zM23.702 10.485h0.794c0.463 0 0.64-0.408 0.463-0.739l-0.871-1.677c-0.165-0.331-0.408-0.518-0.783-0.518h-0.728c-0.386 0-0.551 0.32-0.397 0.684l0.651 1.643c0.165 0.419 0.375 0.607 0.871 0.607zM26.305 16.618h1.213c0.474 0 0.739-0.441 0.529-0.86l-1.224-2.382c-0.188-0.342-0.496-0.529-0.871-0.529h-1.092c-0.43 0-0.673 0.375-0.518 0.761l0.96 2.36c0.198 0.474 0.485 0.651 1.004 0.651zM29.437 24.063h1.445c0.86 0 1.059-0.662 0.772-1.224l-1.566-3.099c-0.243-0.463-0.585-0.728-1.279-0.728h-1.235c-0.54 0-0.849 0.474-0.651 0.96l1.346 3.298c0.187 0.474 0.507 0.794 1.169 0.794zM8.9 20.412c0 0.43 0.331 0.772 0.772 0.772h0.684c0.441 0 0.783-0.342 0.783-0.772v-0.849h9.375v0.849c0 0.43 0.331 0.772 0.772 0.772h0.695c0.43 0 0.772-0.342 0.772-0.772v-3.915c0-0.982-0.132-1.577-0.739-2.239l-0.585-0.64-0.618-1.765c-0.342-0.96-0.982-1.357-1.798-1.456-0.397-0.044-1.677-0.077-3.187-0.077s-2.802 0.033-3.187 0.077c-0.816 0.099-1.467 0.496-1.798 1.456l-0.618 1.765-0.584 0.64c-0.607 0.662-0.739 1.257-0.739 2.239v3.915zM11.834 13.651c-0.287 0-0.375-0.21-0.287-0.463l0.364-1.092c0.132-0.408 0.342-0.541 0.695-0.585 0.408-0.055 1.544-0.099 3.221-0.099s2.801 0.044 3.209 0.099c0.353 0.044 0.563 0.176 0.706 0.585l0.364 1.092c0.088 0.254-0.011 0.463-0.298 0.463h-7.974zM11.018 17.312c-0.364 0-0.629-0.265-0.629-0.629v-0.915c0-0.353 0.265-0.618 0.629-0.618 0.353 0 0.618 0.254 0.618 0.618v0.915c0 0.364-0.265 0.629-0.618 0.629zM14.492 17.026c-0.287 0-0.474-0.187-0.474-0.496v-0.596c0-0.309 0.187-0.496 0.474-0.496h2.647c0.287 0 0.474 0.188 0.474 0.496v0.596c0 0.309-0.187 0.496-0.474 0.496h-2.647zM20.691 17.312c-0.353 0-0.618-0.276-0.618-0.629v-0.915c0-0.353 0.265-0.618 0.618-0.618 0.364 0 0.629 0.254 0.629 0.618v0.915c0 0.364-0.265 0.629-0.629 0.629z"></path>
</svg>
