<!-- Generated by IcoMoon.io -->
<svg version="1.1" xmlns="http://www.w3.org/2000/svg" width="32" height="32" viewBox="0 0 32 32">
<title>car-top-lane-dashed-arrowtriangle-inward-fill</title>
<path d="M-0.923 18.515l3.651-2.239c0.463-0.287 0.474-0.827 0-1.114l-3.651-2.25c-0.496-0.298-0.96-0.055-0.96 0.518v4.577c0 0.585 0.463 0.805 0.96 0.507zM32.265 18.515c0.496 0.298 0.96 0.077 0.96-0.507v-4.577c0-0.573-0.463-0.816-0.96-0.518l-3.651 2.25c-0.474 0.287-0.474 0.827 0 1.114l3.651 2.239zM5.21 10.596h0.585c0.375 0 0.651-0.276 0.651-0.651v-4.577c0-0.375-0.276-0.651-0.651-0.651h-0.585c-0.375 0-0.651 0.276-0.651 0.651v4.577c0 0.375 0.276 0.651 0.651 0.651zM5.21 18.68h0.585c0.375 0 0.651-0.276 0.651-0.651v-4.566c0-0.375-0.276-0.651-0.651-0.651h-0.585c-0.375 0-0.651 0.276-0.651 0.651v4.566c0 0.375 0.276 0.651 0.651 0.651zM5.21 26.776h0.585c0.375 0 0.651-0.276 0.651-0.64v-4.588c0-0.375-0.276-0.651-0.651-0.651h-0.585c-0.375 0-0.651 0.276-0.651 0.651v4.588c0 0.364 0.276 0.64 0.651 0.64zM25.548 10.596h0.585c0.375 0 0.651-0.276 0.651-0.651v-4.577c0-0.375-0.276-0.651-0.651-0.651h-0.585c-0.375 0-0.651 0.276-0.651 0.651v4.577c0 0.375 0.276 0.651 0.651 0.651zM25.548 18.68h0.585c0.375 0 0.651-0.276 0.651-0.651v-4.566c0-0.375-0.276-0.651-0.651-0.651h-0.585c-0.375 0-0.651 0.276-0.651 0.651v4.566c0 0.375 0.276 0.651 0.651 0.651zM25.548 26.776h0.585c0.375 0 0.651-0.276 0.651-0.64v-4.588c0-0.375-0.276-0.651-0.651-0.651h-0.585c-0.375 0-0.651 0.276-0.651 0.651v4.588c0 0.364 0.276 0.64 0.651 0.64zM15.654 25.739c3.904 0 5.658-0.882 5.658-3.132v-13.191c-0.011-2.316-2.129-3.684-5.647-3.673-3.496 0-5.636 1.346-5.636 3.673v13.191c0 2.25 1.743 3.132 5.625 3.132zM15.665 14.081c-0.75 0.011-1.886 0.077-2.294 0.066-0.64 0.011-0.915-0.243-0.971-0.915l-0.132-1.456c-0.099-1.202 0.695-1.676 3.408-1.676 2.713 0.022 3.496 0.474 3.397 1.665l-0.121 1.478c-0.055 0.662-0.364 0.915-0.982 0.915-0.386-0.011-1.588-0.066-2.305-0.077zM15.665 22.529c-2.691-0.022-3.551-0.408-3.364-1.665l0.099-0.706c0.165-0.993 0.938-1.301 3.276-1.29 2.327-0.011 3.099 0.287 3.265 1.29l0.11 0.717c0.176 1.235-0.684 1.632-3.386 1.654zM10.89 13.717v-2.085l-1.29-0.011c-0.507 0-0.882 0.375-0.882 0.849l-0.011 0.397c0 0.474 0.386 0.86 0.882 0.86l1.301-0.011zM20.463 13.728h1.29c0.496 0 0.882-0.386 0.882-0.86l-0.011-0.386c0-0.485-0.375-0.86-0.882-0.86h-1.279v2.107z"></path>
</svg>
