<!-- Generated by IcoMoon.io -->
<svg version="1.1" xmlns="http://www.w3.org/2000/svg" width="32" height="32" viewBox="0 0 32 32">
<title>car-front-waves-up</title>
<path d="M16.346 4.654c2.382 0 4.533 0.827 6.176 2.305 0.452 0.408 0.971 0.507 1.368 0.165 0.419-0.364 0.419-0.971-0.055-1.401-1.985-1.831-4.632-2.868-7.489-2.868s-5.504 1.037-7.489 2.868c-0.463 0.43-0.463 1.037-0.055 1.401 0.408 0.342 0.915 0.243 1.368-0.165 1.643-1.478 3.805-2.305 6.176-2.305zM16.368 9.077c1.147 0 2.206 0.331 3.033 0.993 0.474 0.342 0.971 0.496 1.368 0.143 0.408-0.364 0.419-1.026-0.077-1.423-1.191-0.96-2.702-1.511-4.324-1.511s-3.132 0.551-4.323 1.511c-0.507 0.397-0.496 1.059-0.077 1.423 0.397 0.353 0.882 0.198 1.368-0.143 0.849-0.64 1.886-0.993 3.033-0.993zM16.39 26.934c3.077 0 7.048-0.154 8.724-0.353 1.29-0.143 2.029-0.86 2.029-2.096v-1.654c0-1.522-0.32-2.426-1.158-3.496l-0.728-0.927c-0.331-1.599-0.915-3.265-1.224-3.915-0.496-1.059-1.478-1.687-2.702-1.842-0.596-0.088-2.548-0.132-4.941-0.132s-4.335 0.055-4.93 0.132c-1.224 0.143-2.206 0.783-2.702 1.842-0.32 0.651-0.893 2.316-1.235 3.915l-0.717 0.927c-0.849 1.070-1.158 1.974-1.158 3.496v1.654c0 1.235 0.739 1.952 2.029 2.096 1.676 0.198 5.647 0.353 8.713 0.353zM16.39 25.434c-3.099 0-6.96-0.132-8.371-0.309-0.673-0.088-0.871-0.364-0.871-0.993v-1.301c0-1.18 0.165-1.71 0.838-2.581l0.926-1.213c0.232-1.268 0.827-3.066 1.191-3.871 0.276-0.585 0.761-0.915 1.522-1.004 0.573-0.066 2.349-0.154 4.765-0.154 2.426 0 4.246 0.088 4.743 0.154 0.794 0.099 1.279 0.43 1.555 1.004 0.375 0.805 0.949 2.603 1.18 3.871l0.938 1.213c0.673 0.871 0.838 1.401 0.838 2.581v1.301c0 0.629-0.198 0.915-0.871 0.993-1.412 0.165-5.272 0.309-8.382 0.309zM9.971 18.254c-0.066 0.309 0.055 0.441 0.397 0.408 1.412-0.099 3.099-0.176 6.022-0.176s4.621 0.077 6.033 0.176c0.331 0.033 0.463-0.099 0.397-0.408-0.221-0.949-0.618-2.151-0.904-2.658-0.232-0.397-0.485-0.562-0.949-0.629-0.651-0.088-2.096-0.154-4.577-0.154-2.471 0-3.927 0.066-4.577 0.154-0.452 0.066-0.717 0.232-0.938 0.629-0.276 0.507-0.684 1.71-0.904 2.658zM9.904 24.287c0.816 0 1.423-0.629 1.423-1.434 0-0.816-0.607-1.423-1.423-1.423-0.805 0-1.423 0.607-1.423 1.423 0 0.805 0.618 1.434 1.423 1.434zM13.952 23.934h4.875c0.618 0 1.037-0.419 1.037-1.037 0-0.596-0.419-1.015-1.037-1.015h-4.875c-0.607 0-1.026 0.419-1.026 1.015 0 0.618 0.419 1.037 1.026 1.037zM22.875 24.287c0.816 0 1.434-0.629 1.434-1.434 0-0.816-0.618-1.423-1.434-1.423-0.805 0-1.412 0.607-1.412 1.423 0 0.805 0.607 1.434 1.412 1.434zM7.445 29.305h1.070c0.662 0 1.18-0.518 1.18-1.169v-2.129l-3.408-0.496v2.625c0 0.651 0.507 1.169 1.158 1.169zM24.254 29.305h1.070c0.662 0 1.158-0.518 1.158-1.169v-2.625l-3.408 0.496v2.129c0 0.651 0.518 1.169 1.18 1.169z"></path>
</svg>
