<!-- Generated by IcoMoon.io -->
<svg version="1.1" xmlns="http://www.w3.org/2000/svg" width="32" height="32" viewBox="0 0 32 32">
<title>car-side-air-fresh-fill</title>
<path d="M12.074 16.017c-1.219 0-2.055-0.427-2.803-1.41l-2.342-3.091c-0.488-0.636-0.853-0.801-1.82-0.801h-2.142c-0.383 0-0.696-0.322-0.696-0.705s0.313-0.696 0.696-0.696h2.142c1.323 0 2.185 0.383 2.917 1.349l2.359 3.073c0.54 0.696 0.871 0.879 1.689 0.879h1.907v-0.74c0-0.618 0.54-0.801 1.001-0.496l2.177 1.402c0.435 0.279 0.427 0.801 0.009 1.071l-2.194 1.41c-0.453 0.296-0.993 0.113-0.993-0.496v-0.749h-1.907zM2.671 21.598h1.358c-0.052-0.261-0.096-0.531-0.096-0.818 0-1.872 1.48-3.343 3.343-3.343 1.872 0 3.343 1.471 3.343 3.343 0 0.287-0.035 0.557-0.096 0.818h11.092c-0.052-0.261-0.096-0.531-0.096-0.818 0-1.872 1.48-3.343 3.343-3.343 1.872 0 3.343 1.471 3.343 3.343 0 0.287-0.035 0.557-0.096 0.818h1.149c1.254 0 2.020-0.792 2.020-2.081v-3.5c0-1.219-0.366-2.255-1.985-2.76l-1.793-0.549c-1.132-1.349-3.108-3.273-6.704-3.273h-2.046c-3.587 0-5.015 0.348-7.156 1.689l-3.508 2.203-3.865 0.47c-2.403 0.296-3.822 1.68-3.822 3.752v1.724c0 1.48 0.827 2.325 2.272 2.325zM7.277 23.104c1.306 0 2.333-1.027 2.333-2.325s-1.036-2.333-2.333-2.333c-1.288 0-2.324 1.036-2.324 2.333 0 1.288 1.036 2.325 2.325 2.325zM24.863 23.104c1.297 0 2.333-1.036 2.333-2.325 0-1.297-1.036-2.333-2.333-2.333-1.28 0-2.325 1.045-2.325 2.333s1.036 2.325 2.325 2.325z"></path>
</svg>
