<!-- Generated by IcoMoon.io -->
<svg version="1.1" xmlns="http://www.w3.org/2000/svg" width="32" height="32" viewBox="0 0 32 32">
<title>car-side-arrowtriangle-down-fill</title>
<path d="M18.758 23.666c0.281-0.448 0.070-0.905-0.474-0.905h-4.365c-0.545 0-0.764 0.457-0.483 0.905l2.143 3.478c0.272 0.448 0.782 0.439 1.045 0l2.134-3.478zM2.555 21.417h1.37c-0.053-0.263-0.097-0.536-0.097-0.825 0-1.888 1.493-3.372 3.372-3.372 1.888 0 3.372 1.484 3.372 3.372 0 0.29-0.035 0.562-0.097 0.825h11.188c-0.053-0.263-0.097-0.536-0.097-0.825 0-1.888 1.493-3.372 3.372-3.372 1.888 0 3.372 1.484 3.372 3.372 0 0.29-0.035 0.562-0.097 0.825h1.159c1.265 0 2.037-0.799 2.037-2.099v-3.53c0-1.229-0.369-2.275-2.002-2.784l-1.809-0.553c-1.142-1.361-3.135-3.302-6.762-3.302h-2.064c-3.618 0-5.059 0.351-7.219 1.704l-3.539 2.222-3.899 0.474c-2.424 0.299-3.855 1.695-3.855 3.785v1.739c0 1.493 0.834 2.345 2.292 2.345zM7.2 22.937c1.317 0 2.354-1.036 2.354-2.345s-1.045-2.354-2.354-2.354c-1.3 0-2.345 1.045-2.345 2.354 0 1.3 1.045 2.345 2.345 2.345zM24.94 22.937c1.309 0 2.354-1.045 2.354-2.345 0-1.309-1.045-2.354-2.354-2.354-1.291 0-2.345 1.054-2.345 2.354s1.045 2.345 2.345 2.345z"></path>
</svg>
