<!-- Generated by IcoMoon.io -->
<svg version="1.1" xmlns="http://www.w3.org/2000/svg" width="32" height="32" viewBox="0 0 32 32">
<title>car-top-lane-dashed-departure-right</title>
<path d="M4.415 10.684h0.596c0.364 0 0.64-0.276 0.64-0.651v-4.676c0-0.375-0.276-0.651-0.64-0.651h-0.596c-0.375 0-0.651 0.276-0.651 0.651v4.676c0 0.375 0.276 0.651 0.651 0.651zM4.415 18.857h0.596c0.364 0 0.64-0.276 0.64-0.651v-4.665c0-0.364-0.276-0.64-0.64-0.64h-0.596c-0.375 0-0.651 0.276-0.651 0.64v4.665c0 0.375 0.276 0.651 0.651 0.651zM4.415 27.051h0.596c0.364 0 0.64-0.276 0.64-0.651v-4.677c0-0.375-0.276-0.651-0.64-0.651h-0.596c-0.375 0-0.651 0.276-0.651 0.651v4.677c0 0.375 0.276 0.651 0.651 0.651zM24.346 8.566l1.886 1.070v-4.279c0-0.375-0.276-0.651-0.651-0.651h-0.585c-0.375 0-0.651 0.276-0.651 0.651v3.21zM24.996 27.040h0.585c0.375 0 0.651-0.276 0.651-0.64v-4.677c0-0.375-0.276-0.651-0.651-0.651h-0.585c-0.375 0-0.651 0.276-0.651 0.651v4.677c0 0.364 0.276 0.64 0.651 0.64zM14.132 24.724c3.386 1.941 5.349 2.063 6.474 0.121l6.585-11.426c1.169-2.007 0-4.257-3.055-6.011-3.033-1.743-5.559-1.643-6.717 0.364l-6.596 11.426c-1.125 1.941-0.055 3.585 3.309 5.526zM14.927 23.379c-2.526-1.456-3.287-2.426-2.702-3.441l6.562-11.371c0.673-1.158 2.272-1.114 4.555 0.199 2.305 1.335 3.154 2.702 2.482 3.871l-6.574 11.371c-0.573 1.004-1.798 0.827-4.323-0.629zM19.934 14.688c0.596 0.353 1.577 0.993 1.908 1.191 0.518 0.298 0.893 0.232 1.268-0.309l0.816-1.169c0.673-0.96 0.232-1.732-2.063-3.055-2.272-1.312-3.165-1.312-3.673-0.243l-0.596 1.29c-0.265 0.573-0.165 0.938 0.375 1.235 0.331 0.21 1.334 0.695 1.963 1.059zM15.842 21.779c2.272 1.313 3.199 1.39 3.64 0.254l0.254-0.651c0.364-0.915-0.143-1.555-2.118-2.68-1.952-1.136-2.768-1.257-3.375-0.485l-0.43 0.54c-0.761 0.96-0.232 1.71 2.029 3.022zM16.007 11.93l1.048-1.809-1.114-0.651c-0.43-0.254-0.949-0.121-1.191 0.298l-0.199 0.331c-0.243 0.408-0.088 0.949 0.331 1.191l1.125 0.64zM24.301 16.717l1.114 0.651c0.43 0.254 0.971 0.11 1.202-0.298l0.188-0.342c0.232-0.419 0.099-0.938-0.342-1.191l-1.114-0.64-1.048 1.82z"></path>
</svg>
