<!-- Generated by IcoMoon.io -->
<svg version="1.1" xmlns="http://www.w3.org/2000/svg" width="32" height="32" viewBox="0 0 32 32">
<title>car-2</title>
<path d="M9.416 22.223v-1.277c-2.769-0.049-5.606-0.185-6.824-0.322-0.829-0.088-1.121-0.526-1.121-1.267v-1.326c0-1.336 0.214-1.96 0.975-2.954l0.994-1.306c0.263-1.414 0.897-3.383 1.316-4.28 0.312-0.673 0.926-1.092 1.813-1.199 0.624-0.078 2.603-0.166 5.157-0.166 1.414 0 2.632 0.029 3.578 0.068l0.526-1.287c-1.004-0.039-2.467-0.059-4.104-0.059-2.515 0-4.65 0.059-5.304 0.136-1.297 0.156-2.311 0.829-2.827 1.93-0.341 0.721-0.985 2.564-1.345 4.319l-0.819 1.063c-0.907 1.17-1.238 2.086-1.238 3.734v1.521c0 1.384 0.721 2.164 2.057 2.32 1.443 0.185 4.377 0.302 7.166 0.351zM11.171 13.244l1.014-4.046c-0.146 0-0.302 0-0.458 0-2.613 0-4.212 0.068-4.923 0.166-0.507 0.068-0.79 0.263-1.043 0.702-0.312 0.536-0.76 1.882-0.994 2.915-0.078 0.341 0.068 0.478 0.439 0.458 1.462-0.107 3.188-0.185 5.967-0.195zM1.987 24.934h1.141c0.731 0 1.297-0.565 1.297-1.287v-2.291l-3.734-0.556v2.847c0 0.721 0.565 1.287 1.297 1.287zM4.697 19.62c0.887 0 1.57-0.683 1.57-1.57 0-0.897-0.682-1.57-1.57-1.57s-1.57 0.673-1.57 1.57c0 0.887 0.682 1.57 1.57 1.57zM19.799 22.252c3.276 0 7.624-0.166 9.476-0.38 1.316-0.146 2.057-0.877 2.057-2.125v-1.716c0-1.648-0.332-2.564-1.238-3.734l-0.819-1.063c-0.361-1.755-1.004-3.597-1.345-4.319-0.517-1.102-1.531-1.755-2.827-1.93-0.653-0.088-2.788-0.136-5.304-0.136-2.525 0-4.66 0.059-5.313 0.136-1.297 0.156-2.311 0.829-2.827 1.93-0.331 0.721-0.985 2.564-1.336 4.319l-0.829 1.063c-0.907 1.17-1.238 2.086-1.238 3.734v1.716c0 1.248 0.741 1.979 2.067 2.125 1.843 0.214 6.191 0.38 9.476 0.38zM19.799 20.975c-3.315 0-7.575-0.156-9.135-0.351-0.829-0.098-1.131-0.526-1.131-1.267v-1.326c0-1.336 0.224-1.96 0.975-2.954l1.004-1.306c0.254-1.414 0.897-3.383 1.306-4.28 0.322-0.673 0.936-1.092 1.823-1.199 0.624-0.078 2.593-0.166 5.157-0.166 2.554 0 4.572 0.088 5.138 0.166 0.916 0.117 1.521 0.536 1.833 1.199 0.429 0.897 1.053 2.866 1.316 4.28l0.994 1.306c0.76 0.994 0.975 1.618 0.975 2.954v1.326c0 0.741-0.292 1.17-1.131 1.267-1.56 0.195-5.811 0.351-9.125 0.351zM12.838 12.981c-0.078 0.341 0.068 0.478 0.429 0.458 1.56-0.107 3.412-0.195 6.532-0.195 3.11 0 4.962 0.088 6.522 0.195 0.371 0.019 0.507-0.117 0.429-0.458-0.234-1.033-0.673-2.379-0.985-2.915-0.253-0.439-0.536-0.634-1.043-0.702-0.712-0.098-2.311-0.166-4.923-0.166-2.623 0-4.221 0.068-4.923 0.166-0.507 0.068-0.799 0.263-1.053 0.702-0.302 0.536-0.751 1.882-0.985 2.915zM10.050 24.934h1.15c0.731 0 1.287-0.565 1.287-1.287v-2.32l-3.724-0.536v2.857c0 0.721 0.556 1.287 1.287 1.287zM28.398 24.934h1.141c0.731 0 1.297-0.565 1.297-1.287v-2.857l-3.734 0.536v2.32c0 0.721 0.565 1.287 1.297 1.287zM12.77 19.62c0.887 0 1.56-0.683 1.56-1.57 0-0.897-0.673-1.57-1.56-1.57-0.897 0-1.57 0.673-1.57 1.57 0 0.887 0.673 1.57 1.57 1.57zM17.215 19.23h5.157c0.673 0 1.131-0.458 1.131-1.131 0-0.663-0.458-1.121-1.131-1.121h-5.157c-0.663 0-1.131 0.458-1.131 1.121 0 0.673 0.468 1.131 1.131 1.131zM26.828 19.62c0.887 0 1.57-0.683 1.57-1.57 0-0.897-0.682-1.57-1.57-1.57-0.897 0-1.57 0.673-1.57 1.57 0 0.887 0.673 1.57 1.57 1.57z"></path>
</svg>
