<!-- Generated by IcoMoon.io -->
<svg version="1.1" xmlns="http://www.w3.org/2000/svg" width="32" height="32" viewBox="0 0 32 32">
<title>car-top-door-front-left-and-rear-left-and-rear-right-open-fill</title>
<path d="M15.596 30.36c5.57 0 7.941-1.224 7.941-4.224v-19.147c0-3.221-2.923-5.107-7.941-5.107-5.007 0-7.941 1.886-7.941 5.107v19.147c0 3 2.382 4.224 7.941 4.224zM15.596 13.629c-1.081 0-2.735 0.077-3.309 0.077-0.86 0-1.224-0.331-1.312-1.213l-0.176-2.14c-0.154-1.643 1.004-2.305 4.798-2.305 3.805 0 4.963 0.662 4.809 2.305l-0.187 2.14c-0.077 0.882-0.452 1.213-1.301 1.213-0.585 0-2.294-0.077-3.32-0.077zM15.596 25.772c-3.827 0-4.996-0.574-4.754-2.25l0.143-1.037c0.187-1.357 1.323-1.82 4.61-1.82 3.298 0 4.434 0.463 4.621 1.82l0.143 1.037c0.243 1.676-0.927 2.25-4.765 2.25zM8.482 9.57l-5.393 5.36c-0.353 0.364-0.353 0.949 0 1.312 0.364 0.353 0.949 0.364 1.313 0l4.081-4.081v-2.592zM8.482 17.908l-5.393 5.36c-0.353 0.353-0.353 0.949 0 1.312 0.364 0.353 0.949 0.364 1.313 0l4.081-4.081v-2.592zM22.71 17.908v2.592l4.081 4.081c0.375 0.364 0.949 0.353 1.313 0 0.353-0.364 0.353-0.96 0-1.312l-5.393-5.36z"></path>
</svg>
