<!-- Generated by IcoMoon.io -->
<svg version="1.1" xmlns="http://www.w3.org/2000/svg" width="32" height="32" viewBox="0 0 32 32">
<title>car-top-radiowaves-rear-fill</title>
<path d="M16.048 22.658c4.235 0 6.143-0.96 6.143-3.397v-14.316c0-2.515-2.327-4.004-6.143-4.004s-6.132 1.489-6.132 4.004v14.316c0 2.438 1.897 3.397 6.132 3.397zM10.853 9.632v-2.294h-1.412c-0.54 0-0.971 0.408-0.971 0.937v0.419c0 0.518 0.43 0.938 0.971 0.938h1.412zM21.243 9.632h1.412c0.551 0 0.971-0.419 0.971-0.938v-0.419c0-0.529-0.419-0.938-0.971-0.938h-1.412v2.294zM16.048 10.018c-0.772 0-2.051 0.066-2.493 0.066-0.673 0-0.982-0.287-1.048-1.004l-0.143-1.588c-0.11-1.313 0.75-1.809 3.684-1.809s3.805 0.496 3.695 1.809l-0.143 1.588c-0.066 0.717-0.364 1.004-1.059 1.004-0.43 0-1.665-0.066-2.493-0.066zM16.048 19.14c-2.934 0-3.849-0.43-3.651-1.787l0.121-0.772c0.165-1.081 1.004-1.423 3.529-1.423 2.537 0 3.364 0.342 3.54 1.423l0.121 0.772c0.21 1.357-0.728 1.787-3.662 1.787zM16.048 29.154c-1.941 0-3.717-0.717-5.073-1.93-0.474-0.408-0.971-0.441-1.29-0.121-0.375 0.364-0.353 0.893 0.044 1.301 1.643 1.643 3.926 2.404 6.32 2.404 2.404 0 4.687-0.761 6.331-2.404 0.386-0.408 0.408-0.938 0.044-1.301-0.331-0.32-0.827-0.287-1.301 0.121-1.357 1.213-3.121 1.93-5.073 1.93zM16.048 25.283c-0.96 0-1.809-0.298-2.471-0.838-0.563-0.397-1.026-0.375-1.335-0.055-0.342 0.331-0.32 0.816 0.033 1.191 0.684 0.662 2.173 1.357 3.772 1.357 1.61 0 3.099-0.695 3.772-1.357 0.353-0.375 0.375-0.86 0.033-1.191-0.309-0.32-0.772-0.342-1.335 0.055-0.651 0.54-1.5 0.838-2.471 0.838z"></path>
</svg>
