<!-- Generated by IcoMoon.io -->
<svg version="1.1" xmlns="http://www.w3.org/2000/svg" width="32" height="32" viewBox="0 0 32 32">
<title>car-rear-waves-up-fill</title>
<path d="M16.324 4.632c2.371 0 4.533 0.827 6.176 2.305 0.452 0.408 0.971 0.507 1.368 0.165 0.408-0.364 0.408-0.971-0.055-1.401-1.985-1.831-4.632-2.868-7.489-2.868s-5.504 1.037-7.489 2.868c-0.463 0.43-0.463 1.037-0.055 1.401 0.397 0.342 0.915 0.243 1.368-0.165 1.643-1.478 3.805-2.305 6.177-2.305zM16.324 9.055c1.147 0 2.217 0.331 3.033 0.993 0.474 0.342 0.971 0.496 1.368 0.143 0.419-0.364 0.43-1.026-0.077-1.423-1.191-0.96-2.702-1.511-4.323-1.511s-3.132 0.551-4.324 1.511c-0.507 0.397-0.496 1.059-0.077 1.423 0.397 0.353 0.882 0.199 1.368-0.143 0.849-0.64 1.886-0.993 3.033-0.993zM5.647 27.982c0 0.706 0.563 1.279 1.29 1.279h1.059c0.717 0 1.279-0.573 1.279-1.279v-1.191h14.096v1.191c0 0.706 0.563 1.279 1.279 1.279h1.070c0.717 0 1.279-0.573 1.279-1.279v-5.912c0-1.522-0.198-2.46-1.158-3.496l-0.871-0.96-0.949-2.658c-0.529-1.511-1.555-2.162-2.824-2.305-0.596-0.077-2.57-0.121-4.875-0.121s-4.279 0.044-4.875 0.121c-1.268 0.143-2.294 0.794-2.824 2.305l-0.949 2.658-0.871 0.96c-0.96 1.037-1.158 1.974-1.158 3.496v5.912zM10.235 17.614c-0.364 0-0.463-0.221-0.342-0.573l0.563-1.654c0.21-0.585 0.452-0.739 0.971-0.816 0.629-0.088 2.349-0.165 4.897-0.165s4.268 0.077 4.886 0.165c0.518 0.077 0.772 0.232 0.982 0.816l0.563 1.654c0.121 0.353 0.011 0.573-0.353 0.573h-12.165zM8.989 23.195c-0.507 0-0.849-0.342-0.849-0.838v-1.401c0-0.496 0.342-0.827 0.849-0.827s0.838 0.32 0.838 0.827v1.401c0 0.507-0.331 0.838-0.838 0.838zM14.283 22.765c-0.386 0-0.607-0.221-0.607-0.662v-0.904c0-0.419 0.221-0.64 0.607-0.64h4.048c0.397 0 0.618 0.221 0.618 0.64v0.904c0 0.441-0.221 0.662-0.618 0.662h-4.048zM23.746 23.195c-0.496 0-0.838-0.342-0.838-0.838v-1.401c0-0.496 0.342-0.827 0.838-0.827 0.507 0 0.849 0.32 0.849 0.827v1.401c0 0.507-0.342 0.838-0.849 0.838z"></path>
</svg>
