<!-- Generated by IcoMoon.io -->
<svg version="1.1" xmlns="http://www.w3.org/2000/svg" width="32" height="32" viewBox="0 0 32 32">
<title>car-top-radiowaves-rear-left-fill</title>
<path d="M19.636 23.599c4.235 0 6.121-0.96 6.121-3.397v-14.316c0-2.515-2.316-4.004-6.121-4.004-3.827 0-6.143 1.489-6.143 4.004v14.316c0 2.438 1.897 3.397 6.143 3.397zM19.625 10.96c-0.772 0-2.063 0.066-2.493 0.066-0.684 0-0.993-0.287-1.059-1.004l-0.132-1.588c-0.11-1.313 0.75-1.809 3.684-1.809s3.794 0.496 3.684 1.809l-0.143 1.588c-0.055 0.717-0.375 1.004-1.048 1.004-0.441 0-1.677-0.066-2.493-0.066zM19.625 20.081c-2.934 0-3.871-0.43-3.651-1.787l0.11-0.772c0.176-1.081 1.015-1.423 3.541-1.423s3.364 0.342 3.529 1.423l0.121 0.772c0.209 1.357-0.717 1.787-3.651 1.787zM24.819 10.574h1.412c0.551 0 0.971-0.419 0.971-0.938v-0.419c0-0.529-0.419-0.938-0.971-0.938h-1.412v2.294zM14.43 10.574v-2.294h-1.412c-0.551 0-0.971 0.408-0.971 0.938v0.419c0 0.518 0.419 0.938 0.971 0.938h1.412zM11.143 24.956c1.136 1.136 2.68 1.699 3.629 1.699 0.518 0 0.871-0.331 0.871-0.805 0-0.441-0.309-0.794-0.993-0.893-0.849-0.088-1.643-0.485-2.338-1.169-0.662-0.673-1.048-1.489-1.169-2.426-0.099-0.618-0.342-0.871-0.882-0.871-0.485 0-0.871 0.375-0.794 0.971 0.143 1.346 0.717 2.537 1.676 3.496zM8.408 27.702c1.688 1.699 3.838 2.768 6.176 2.768 0.562 0 0.949-0.364 0.949-0.882 0-0.474-0.375-0.783-1.004-0.827-1.809-0.11-3.574-0.86-4.952-2.228-1.368-1.379-2.118-3.132-2.228-4.952-0.055-0.706-0.342-0.982-0.893-0.982-0.43 0-0.849 0.309-0.805 0.915 0.143 2.338 1.048 4.5 2.757 6.187z"></path>
</svg>
