<!-- Generated by IcoMoon.io -->
<svg version="1.1" xmlns="http://www.w3.org/2000/svg" width="32" height="32" viewBox="0 0 32 32">
<title>car-side-rear-open</title>
<path d="M25.247 12.039l0.981 0.788 2.298-2.348c0.193-0.201 0.428-0.277 0.696-0.277h1.275c0.386 0 0.629-0.243 0.629-0.604s-0.243-0.604-0.629-0.604h-1.132c-0.713 0-1.333 0.201-1.811 0.696l-2.306 2.348zM2.446 20.559h2.566v-1.35h-2.491c-0.595 0-0.914-0.369-0.914-1.057v-1.493c0-1.258 0.889-2.071 2.507-2.273l4.008-0.503 3.639-2.264c1.853-1.149 2.969-1.426 6.172-1.426h1.971c2.281 0 4.126 0.948 5.711 3.153l2.055 0.537c0.771 0.193 0.981 0.654 0.981 1.3v3.044c0 0.612-0.31 0.981-0.839 0.981h-2.080v1.35h2.323c1.208 0 1.945-0.763 1.945-1.996v-3.379c0-1.174-0.352-2.172-1.912-2.658l-1.727-0.528c-1.090-1.3-2.994-3.153-6.457-3.153h-1.971c-3.455 0-4.83 0.335-6.893 1.627l-3.379 2.122-3.723 0.453c-2.314 0.285-3.681 1.618-3.681 3.614v1.66c0 1.426 0.797 2.239 2.189 2.239zM8.937 20.559h12.939v-1.35h-12.939v1.35zM6.924 22.471c1.61 0 2.868-1.258 2.868-2.868s-1.258-2.868-2.868-2.868c-1.61 0-2.868 1.258-2.868 2.868s1.258 2.868 2.868 2.868zM6.924 21.121c-0.855 0-1.518-0.662-1.518-1.518s0.662-1.518 1.518-1.518 1.518 0.662 1.518 1.518c0 0.855-0.662 1.518-1.518 1.518zM23.863 22.471c1.61 0 2.868-1.258 2.868-2.868s-1.258-2.868-2.868-2.868c-1.61 0-2.868 1.258-2.868 2.868s1.258 2.868 2.868 2.868zM23.863 21.121c-0.855 0-1.518-0.662-1.518-1.518s0.662-1.518 1.518-1.518 1.518 0.662 1.518 1.518c0 0.855-0.662 1.518-1.518 1.518z"></path>
</svg>
