<!-- Generated by IcoMoon.io -->
<svg version="1.1" xmlns="http://www.w3.org/2000/svg" width="32" height="32" viewBox="0 0 32 32">
<title>car-ferry</title>
<path d="M5.2 28.776h0.055c3.441 0 3.728-2.239 5.526-2.239 1.743 0 2.228 2.239 5.239 2.239 3 0 3.485-2.239 5.228-2.239 1.798 0 2.085 2.239 5.526 2.239h0.055c0.43 0 0.772-0.342 0.772-0.772s-0.342-0.783-0.772-0.783h-0.055c-1.191 0-1.853-0.485-2.691-1.081-0.717-0.518-1.61-1.158-2.835-1.158-1.257 0-2.162 0.684-2.89 1.213-0.75 0.585-1.357 1.026-2.338 1.026-0.993 0-1.599-0.441-2.349-1.026-0.728-0.529-1.632-1.213-2.89-1.213-1.224 0-2.118 0.64-2.835 1.158-0.838 0.596-1.5 1.081-2.691 1.081h-0.055c-0.43 0-0.772 0.353-0.772 0.783s0.342 0.772 0.772 0.772zM8.012 26.978l1.511-0.441-3.871-5.261c-0.243-0.32-0.099-0.706 0.342-0.706h20.040c0.452 0 0.596 0.386 0.342 0.717l-3.871 5.239 1.522 0.441 3.75-4.974c1.015-1.324 0.386-2.846-1.357-2.846h-20.813c-1.743 0-2.371 1.522-1.357 2.846l3.761 4.985zM10.229 8.074c-0.066 0.298 0.066 0.408 0.375 0.386 1.29-0.088 2.824-0.165 5.404-0.165s4.114 0.077 5.404 0.165c0.309 0.022 0.441-0.088 0.375-0.386-0.198-0.871-0.563-1.985-0.827-2.426-0.21-0.375-0.463-0.529-0.871-0.596-0.574-0.077-1.875-0.132-4.081-0.132s-3.507 0.055-4.081 0.132c-0.408 0.066-0.662 0.221-0.882 0.596-0.254 0.441-0.618 1.555-0.816 2.426zM10.185 13.566c0.75 0 1.312-0.563 1.312-1.302s-0.563-1.301-1.312-1.301c-0.739 0-1.302 0.563-1.302 1.301s0.562 1.302 1.302 1.302zM13.88 13.257h4.257c0.563 0 0.949-0.386 0.949-0.949 0-0.551-0.397-0.938-0.949-0.938h-4.257c-0.563 0-0.949 0.386-0.949 0.938 0 0.563 0.386 0.949 0.949 0.949zM21.821 13.566c0.75 0 1.312-0.563 1.312-1.302s-0.563-1.301-1.312-1.301c-0.739 0-1.302 0.563-1.302 1.301s0.563 1.302 1.302 1.302zM16.009 15.915c2.713 0 6.32-0.132 7.864-0.309 1.191-0.143 1.864-0.827 1.864-1.93v-1.434c0-1.412-0.298-2.206-1.059-3.188l-0.662-0.838c-0.298-1.467-0.827-2.978-1.114-3.585-0.441-0.938-1.324-1.533-2.471-1.699-0.54-0.066-2.272-0.11-4.423-0.11-2.118 0-3.871 0.044-4.412 0.11-1.147 0.143-2.029 0.739-2.493 1.699-0.276 0.607-0.816 2.118-1.114 3.585l-0.64 0.838c-0.772 0.982-1.059 1.776-1.059 3.188v1.434c0 1.103 0.662 1.787 1.853 1.93 1.544 0.176 5.151 0.309 7.864 0.309zM16.009 14.504c-2.735 0-6.265-0.11-7.544-0.276-0.551-0.077-0.761-0.309-0.761-0.871v-1.114c0-1.059 0.154-1.533 0.761-2.327l0.86-1.114c0.199-1.169 0.739-2.813 1.070-3.54 0.243-0.507 0.695-0.816 1.368-0.893 0.507-0.055 2.14-0.143 4.246-0.143 2.118 0 3.772 0.088 4.224 0.143 0.684 0.088 1.136 0.386 1.39 0.893 0.353 0.739 0.882 2.393 1.070 3.54l0.86 1.114c0.596 0.794 0.772 1.279 0.772 2.327v1.114c0 0.574-0.221 0.805-0.783 0.871-1.279 0.154-4.798 0.276-7.533 0.276zM7.946 17.967h0.949c0.618 0 1.092-0.463 1.092-1.070v-1.93l-3.121-0.452v2.382c0 0.607 0.474 1.070 1.081 1.070zM23.123 17.967h0.949c0.607 0 1.081-0.463 1.081-1.070v-2.382l-3.121 0.452 0.011 1.93c0 0.607 0.463 1.070 1.081 1.070z"></path>
</svg>
