<!-- Generated by IcoMoon.io -->
<svg version="1.1" xmlns="http://www.w3.org/2000/svg" width="32" height="32" viewBox="0 0 32 32">
<title>car-side-front-open-fill</title>
<path d="M1.042 9.824h2.777c0.322 0 0.575 0.078 0.784 0.287l3.091 3.082 1.184-0.653-3.256-3.256c-0.505-0.505-1.167-0.714-1.959-0.714h-2.621c-0.401 0-0.644 0.244-0.644 0.618s0.244 0.636 0.644 0.636zM2.67 20.89h1.358c-0.052-0.261-0.096-0.531-0.096-0.818 0-1.872 1.48-3.343 3.343-3.343 1.872 0 3.343 1.471 3.343 3.343 0 0.287-0.035 0.557-0.096 0.818h11.093c-0.052-0.261-0.096-0.531-0.096-0.818 0-1.872 1.48-3.343 3.343-3.343 1.872 0 3.343 1.471 3.343 3.343 0 0.287-0.035 0.557-0.096 0.818h1.149c1.254 0 2.020-0.792 2.020-2.081v-3.5c0-1.219-0.366-2.255-1.985-2.76l-1.794-0.549c-1.132-1.35-3.108-3.274-6.704-3.274h-2.046c-3.587 0-5.015 0.348-7.157 1.689l-3.509 2.203-3.866 0.47c-2.403 0.296-3.822 1.68-3.822 3.753v1.724c0 1.48 0.827 2.325 2.272 2.325zM7.276 22.397c1.306 0 2.333-1.027 2.333-2.325s-1.036-2.334-2.333-2.334c-1.289 0-2.325 1.036-2.325 2.334 0 1.289 1.036 2.325 2.325 2.325zM24.864 22.397c1.297 0 2.333-1.036 2.333-2.325 0-1.297-1.036-2.334-2.333-2.334-1.28 0-2.325 1.045-2.325 2.334s1.036 2.325 2.325 2.325z"></path>
</svg>
