<!-- Generated by IcoMoon.io -->
<svg version="1.1" xmlns="http://www.w3.org/2000/svg" width="32" height="32" viewBox="0 0 32 32">
<title>car-side-air-circulate</title>
<path d="M12.549 14.429c0 1.481 1.089 2.466 2.693 2.466h3.468v0.802c0 0.488 0.349 0.662 0.776 0.384l2.030-1.333c0.322-0.209 0.34-0.61 0-0.845l-2.022-1.325c-0.427-0.288-0.784-0.122-0.784 0.383v0.758h-3.468c-0.889 0-1.473-0.488-1.473-1.22 0-0.819 0.593-1.377 1.481-1.377h5.080c0.366 0 0.619-0.235 0.619-0.584s-0.253-0.601-0.627-0.601h-5.072c-1.612 0-2.701 1.011-2.701 2.492zM2.659 20.738h2.667v-1.403h-2.588c-0.619 0-0.95-0.383-0.95-1.098v-1.551c0-1.307 0.924-2.152 2.605-2.362l4.165-0.523 3.782-2.353c1.926-1.194 3.085-1.481 6.414-1.481h2.048c2.37 0 4.287 0.985 5.934 3.277l2.135 0.558c0.802 0.2 1.020 0.68 1.020 1.351v3.163c0 0.636-0.322 1.020-0.871 1.020h-2.161v1.403h2.414c1.255 0 2.022-0.793 2.022-2.074v-3.512c0-1.22-0.366-2.257-1.987-2.762l-1.795-0.549c-1.133-1.351-3.111-3.276-6.71-3.276h-2.048c-3.59 0-5.019 0.349-7.163 1.691l-3.512 2.205-3.869 0.471c-2.405 0.296-3.825 1.682-3.825 3.756v1.725c0 1.481 0.828 2.327 2.274 2.327zM9.403 20.738h13.446v-1.403h-13.446v1.403zM7.312 22.724c1.673 0 2.98-1.307 2.98-2.98s-1.307-2.98-2.98-2.98c-1.673 0-2.98 1.307-2.98 2.98s1.307 2.98 2.98 2.98zM7.312 21.321c-0.889 0-1.577-0.688-1.577-1.577s0.688-1.577 1.577-1.577 1.577 0.688 1.577 1.577c0 0.889-0.688 1.577-1.577 1.577zM24.914 22.724c1.673 0 2.98-1.307 2.98-2.98s-1.307-2.98-2.98-2.98c-1.673 0-2.98 1.307-2.98 2.98s1.307 2.98 2.98 2.98zM24.914 21.321c-0.889 0-1.577-0.688-1.577-1.577s0.688-1.577 1.577-1.577 1.577 0.688 1.577 1.577c0 0.889-0.688 1.577-1.577 1.577z"></path>
</svg>
