<!-- Generated by IcoMoon.io -->
<svg version="1.1" xmlns="http://www.w3.org/2000/svg" width="32" height="32" viewBox="0 0 32 32">
<title>car-side-air-fresh</title>
<path d="M29.306 12.389l-1.795-0.549c-1.133-1.351-3.111-3.276-6.71-3.276h-2.048c-3.59 0-5.019 0.349-7.163 1.691l-1.403 0.88 0.863 1.115 1.29-0.802c1.926-1.194 3.085-1.481 6.414-1.481h2.048c2.37 0 4.287 0.985 5.934 3.277l2.135 0.558c0.802 0.2 1.020 0.68 1.020 1.351v3.163c0 0.636-0.322 1.020-0.871 1.020h-2.161v1.403h2.414c1.255 0 2.022-0.793 2.022-2.074v-3.512c0-1.22-0.366-2.257-1.987-2.762zM9.403 20.738h13.446v-1.403h-13.446v1.403zM2.659 20.738h2.667v-1.403h-2.588c-0.619 0-0.95-0.383-0.95-1.098v-1.551c0-1.307 0.924-2.152 2.605-2.362l3.573-0.453-0.985-1.281-2.771 0.34c-2.405 0.296-3.825 1.682-3.825 3.756v1.725c0 1.481 0.828 2.327 2.274 2.327zM7.312 22.724c1.673 0 2.98-1.307 2.98-2.98s-1.307-2.98-2.98-2.98c-1.673 0-2.98 1.307-2.98 2.98s1.307 2.98 2.98 2.98zM7.312 21.321c-0.889 0-1.577-0.688-1.577-1.577s0.688-1.577 1.577-1.577 1.577 0.688 1.577 1.577c0 0.889-0.688 1.577-1.577 1.577zM24.914 22.724c1.673 0 2.98-1.307 2.98-2.98s-1.307-2.98-2.98-2.98c-1.673 0-2.98 1.307-2.98 2.98s1.307 2.98 2.98 2.98zM24.914 21.321c-0.889 0-1.577-0.688-1.577-1.577s0.688-1.577 1.577-1.577 1.577 0.688 1.577 1.577c0 0.889-0.688 1.577-1.577 1.577zM12.070 15.326h1.908v0.749c0 0.61 0.54 0.793 0.993 0.497l2.196-1.412c0.418-0.27 0.427-0.793-0.009-1.072l-2.178-1.403c-0.462-0.305-1.002-0.122-1.002 0.497v0.741h-1.908c-0.819 0-1.15-0.183-1.691-0.88l-2.362-3.076c-0.732-0.967-1.595-1.351-2.919-1.351h-2.144c-0.383 0-0.697 0.314-0.697 0.697s0.314 0.706 0.697 0.706h2.144c0.967 0 1.333 0.166 1.821 0.802l2.344 3.093c0.749 0.985 1.586 1.412 2.806 1.412z"></path>
</svg>
