<!-- Generated by IcoMoon.io -->
<svg version="1.1" xmlns="http://www.w3.org/2000/svg" width="32" height="32" viewBox="0 0 32 32">
<title>car-side-arrowtriangle-up-arrowtriangle-down</title>
<path d="M18.758 17.404l-2.134-3.478c-0.263-0.439-0.773-0.448-1.045 0l-2.143 3.478c-0.281 0.457-0.061 0.905 0.483 0.905h4.365c0.544 0 0.755-0.448 0.474-0.905zM18.758 23.323c0.281-0.457 0.070-0.913-0.474-0.913h-4.365c-0.545 0-0.764 0.457-0.483 0.913l2.143 3.469c0.272 0.448 0.782 0.439 1.045 0l2.134-3.469zM2.555 21.066h2.687v-1.414h-2.608c-0.624 0-0.957-0.386-0.957-1.107v-1.563c0-1.317 0.931-2.169 2.626-2.38l4.198-0.527 3.811-2.371c1.941-1.203 3.109-1.493 6.464-1.493h2.064c2.389 0 4.321 0.992 5.981 3.302l2.152 0.562c0.808 0.202 1.027 0.685 1.027 1.361v3.188c0 0.641-0.325 1.027-0.878 1.027h-2.178v1.414h2.433c1.265 0 2.037-0.799 2.037-2.090v-3.539c0-1.229-0.369-2.275-2.002-2.784l-1.809-0.553c-1.142-1.361-3.135-3.302-6.762-3.302h-2.064c-3.618 0-5.059 0.351-7.219 1.704l-3.539 2.222-3.899 0.474c-2.424 0.299-3.855 1.695-3.855 3.785v1.739c0 1.493 0.834 2.345 2.292 2.345zM9.352 21.066h13.551v-1.414h-13.551v1.414zM7.244 23.069c1.686 0 3.003-1.317 3.003-3.003s-1.317-3.003-3.003-3.003c-1.686 0-3.003 1.317-3.003 3.003s1.317 3.003 3.003 3.003zM7.244 21.655c-0.896 0-1.59-0.694-1.59-1.59s0.694-1.59 1.59-1.59c0.896 0 1.59 0.694 1.59 1.59s-0.694 1.59-1.59 1.59zM24.984 23.069c1.686 0 3.003-1.317 3.003-3.003s-1.317-3.003-3.003-3.003c-1.686 0-3.003 1.317-3.003 3.003s1.317 3.003 3.003 3.003zM24.984 21.655c-0.896 0-1.59-0.694-1.59-1.59s0.694-1.59 1.59-1.59c0.896 0 1.59 0.694 1.59 1.59s-0.694 1.59-1.59 1.59z"></path>
</svg>
