<!-- Generated by IcoMoon.io -->
<svg version="1.1" xmlns="http://www.w3.org/2000/svg" width="32" height="32" viewBox="0 0 32 32">
<title>car-top-radiowaves-rear-left-and-rear-right</title>
<path d="M15.871 23.599c4.235 0 6.132-0.96 6.132-3.397v-14.316c0-2.515-2.316-4.004-6.132-4.004s-6.132 1.489-6.132 4.004v14.316c0 2.438 1.886 3.397 6.132 3.397zM15.871 21.879c-3.165 0-4.401-0.485-4.401-1.732v-14.261c0-1.445 1.533-2.261 4.401-2.261s4.39 0.816 4.39 2.261v14.261c0 1.246-1.224 1.732-4.39 1.732zM15.86 11.026c0.805 0 2.007 0.066 2.426 0.066 0.662 0 0.971-0.276 1.026-0.971l0.132-1.544c0.11-1.268-0.728-1.754-3.585-1.754-2.835 0-3.673 0.485-3.563 1.754l0.132 1.544c0.055 0.695 0.364 0.971 1.026 0.971 0.408 0 1.665-0.066 2.404-0.066zM15.86 19.882c2.857 0 3.761-0.419 3.551-1.732l-0.11-0.75c-0.165-1.048-0.982-1.379-3.441-1.379-2.438 0-3.254 0.331-3.419 1.379l-0.121 0.75c-0.198 1.312 0.706 1.732 3.541 1.732zM10.676 10.574v-2.294h-1.412c-0.551 0-0.971 0.408-0.971 0.938v0.419c0 0.518 0.419 0.938 0.971 0.938h1.412zM21.066 10.574h1.412c0.551 0 0.971-0.419 0.971-0.938v-0.419c0-0.529-0.419-0.938-0.971-0.938h-1.412v2.294zM7.378 24.956c1.136 1.136 2.68 1.699 3.629 1.699 0.518 0 0.871-0.331 0.871-0.805 0-0.441-0.309-0.794-0.993-0.893-0.849-0.088-1.643-0.485-2.338-1.169-0.662-0.673-1.048-1.489-1.169-2.426-0.099-0.618-0.342-0.871-0.882-0.871-0.485 0-0.871 0.375-0.794 0.971 0.143 1.346 0.717 2.537 1.676 3.496zM4.643 27.702c1.688 1.699 3.838 2.768 6.176 2.768 0.562 0 0.949-0.364 0.949-0.882 0-0.474-0.375-0.783-1.004-0.827-1.809-0.11-3.574-0.86-4.952-2.228-1.368-1.379-2.118-3.132-2.228-4.952-0.055-0.706-0.342-0.982-0.893-0.982-0.43 0-0.849 0.309-0.805 0.915 0.143 2.338 1.048 4.5 2.757 6.187zM24.352 24.956c0.971-0.96 1.533-2.151 1.676-3.496 0.077-0.596-0.309-0.971-0.794-0.971-0.54 0-0.772 0.254-0.871 0.871-0.132 0.938-0.518 1.754-1.18 2.426-0.695 0.684-1.489 1.081-2.338 1.169-0.684 0.099-0.982 0.452-0.982 0.893-0.011 0.474 0.353 0.805 0.86 0.805 0.949 0 2.493-0.562 3.629-1.699zM27.088 27.702c1.71-1.688 2.614-3.849 2.757-6.187 0.044-0.607-0.375-0.915-0.805-0.915-0.541 0-0.838 0.276-0.893 0.982-0.11 1.82-0.849 3.574-2.228 4.952-1.379 1.368-3.132 2.118-4.952 2.228-0.618 0.044-0.993 0.353-0.993 0.827 0 0.518 0.375 0.882 0.949 0.882 2.327 0 4.478-1.070 6.165-2.768z"></path>
</svg>
