<!-- Generated by IcoMoon.io -->
<svg version="1.1" xmlns="http://www.w3.org/2000/svg" width="32" height="32" viewBox="0 0 32 32">
<title>car-top-lane-dashed-departure-left</title>
<path d="M26.986 10.684c0.375 0 0.651-0.276 0.651-0.651v-4.676c0-0.375-0.276-0.651-0.651-0.651h-0.585c-0.375 0-0.651 0.276-0.651 0.651v4.676c0 0.375 0.276 0.651 0.651 0.651h0.585zM26.986 18.857c0.375 0 0.651-0.276 0.651-0.651v-4.665c0-0.364-0.276-0.64-0.651-0.64h-0.585c-0.375 0-0.651 0.276-0.651 0.64v4.665c0 0.375 0.276 0.651 0.651 0.651h0.585zM26.986 27.051c0.375 0 0.651-0.276 0.651-0.651v-4.677c0-0.375-0.276-0.651-0.651-0.651h-0.585c-0.375 0-0.651 0.276-0.651 0.651v4.677c0 0.375 0.276 0.651 0.651 0.651h0.585zM7.056 8.566v-3.21c0-0.375-0.276-0.651-0.651-0.651h-0.585c-0.375 0-0.651 0.276-0.651 0.651v4.279l1.886-1.070zM6.405 27.040c0.375 0 0.651-0.276 0.651-0.64v-4.677c0-0.375-0.276-0.651-0.651-0.651h-0.585c-0.375 0-0.651 0.276-0.651 0.651v4.677c0 0.364 0.276 0.64 0.651 0.64h0.585zM17.269 24.724c3.364-1.941 4.434-3.585 3.309-5.526l-6.596-11.426c-1.158-2.007-3.684-2.107-6.717-0.364-3.055 1.754-4.224 4.004-3.055 6.011l6.585 11.426c1.136 1.941 3.099 1.82 6.474-0.121zM16.475 23.379c-2.515 1.456-3.75 1.632-4.324 0.629l-6.574-11.371c-0.673-1.169 0.176-2.537 2.482-3.871 2.283-1.313 3.882-1.357 4.555-0.199l6.574 11.371c0.574 1.015-0.187 1.985-2.713 3.441zM11.468 14.688c0.629-0.364 1.632-0.849 1.963-1.059 0.54-0.298 0.64-0.662 0.375-1.235l-0.596-1.29c-0.507-1.070-1.401-1.070-3.673 0.243-2.294 1.323-2.724 2.096-2.063 3.055l0.816 1.169c0.375 0.54 0.75 0.607 1.279 0.309 0.32-0.198 1.301-0.838 1.897-1.191zM15.56 21.779c2.261-1.312 2.79-2.063 2.029-3.022l-0.43-0.54c-0.607-0.772-1.423-0.651-3.375 0.485-1.974 1.125-2.482 1.765-2.118 2.68l0.254 0.651c0.441 1.136 1.368 1.059 3.64-0.254zM15.394 11.93l1.125-0.64c0.419-0.243 0.574-0.783 0.331-1.191l-0.198-0.331c-0.243-0.419-0.761-0.551-1.191-0.298l-1.114 0.651 1.048 1.809zM7.1 16.717l-1.048-1.82-1.114 0.64c-0.441 0.254-0.563 0.772-0.331 1.191l0.188 0.342c0.232 0.408 0.761 0.552 1.191 0.298l1.114-0.651z"></path>
</svg>
