<!-- Generated by IcoMoon.io -->
<svg version="1.1" xmlns="http://www.w3.org/2000/svg" width="32" height="32" viewBox="0 0 32 32">
<title>car-top-radiowaves-rear</title>
<path d="M16.048 22.658c4.235 0 6.143-0.96 6.143-3.397v-14.316c0-2.515-2.327-4.004-6.143-4.004s-6.132 1.489-6.132 4.004v14.316c0 2.438 1.897 3.397 6.132 3.397zM16.048 20.938c-3.154 0-4.39-0.485-4.39-1.732v-14.261c0-1.445 1.533-2.261 4.39-2.261 2.868 0 4.401 0.816 4.401 2.261v14.261c0 1.246-1.235 1.732-4.401 1.732zM10.853 9.632v-2.294h-1.412c-0.54 0-0.971 0.408-0.971 0.937v0.419c0 0.518 0.43 0.938 0.971 0.938h1.412zM21.243 9.632h1.412c0.551 0 0.971-0.419 0.971-0.938v-0.419c0-0.529-0.419-0.938-0.971-0.938h-1.412v2.294zM16.048 10.085c0.805 0 2.007 0.066 2.415 0.066 0.673 0 0.971-0.276 1.037-0.971l0.132-1.544c0.11-1.268-0.739-1.754-3.585-1.754s-3.684 0.485-3.574 1.754l0.132 1.544c0.066 0.695 0.364 0.971 1.026 0.971 0.419 0 1.665-0.066 2.415-0.066zM16.048 18.941c2.846 0 3.75-0.419 3.551-1.732l-0.121-0.75c-0.165-1.048-0.971-1.379-3.43-1.379-2.449 0-3.265 0.331-3.43 1.379l-0.11 0.75c-0.199 1.312 0.695 1.732 3.54 1.732zM16.048 29.154c-1.941 0-3.717-0.717-5.073-1.93-0.474-0.408-0.971-0.441-1.29-0.121-0.375 0.364-0.353 0.893 0.044 1.301 1.643 1.643 3.926 2.404 6.32 2.404 2.404 0 4.687-0.761 6.331-2.404 0.386-0.408 0.408-0.938 0.044-1.301-0.331-0.32-0.827-0.287-1.301 0.121-1.357 1.213-3.121 1.93-5.073 1.93zM16.048 25.283c-0.96 0-1.809-0.298-2.471-0.838-0.563-0.397-1.026-0.375-1.335-0.055-0.342 0.331-0.32 0.816 0.033 1.191 0.684 0.662 2.173 1.357 3.772 1.357 1.61 0 3.099-0.695 3.772-1.357 0.353-0.375 0.375-0.86 0.033-1.191-0.309-0.32-0.772-0.342-1.335 0.055-0.651 0.54-1.5 0.838-2.471 0.838z"></path>
</svg>
