<!-- Generated by IcoMoon.io -->
<svg version="1.1" xmlns="http://www.w3.org/2000/svg" width="32" height="32" viewBox="0 0 32 32">
<title>car-top-radiowaves-rear-right</title>
<path d="M13.213 23.599c4.246 0 6.143-0.96 6.143-3.397v-14.316c0-2.515-2.316-4.004-6.143-4.004-3.805 0-6.121 1.489-6.121 4.004v14.316c0 2.438 1.886 3.397 6.121 3.397zM13.213 21.879c-3.154 0-4.379-0.485-4.379-1.732v-14.261c0-1.445 1.522-2.261 4.379-2.261 2.879 0 4.412 0.816 4.412 2.261v14.261c0 1.246-1.235 1.732-4.412 1.732zM13.224 11.026c0.75 0 2.007 0.066 2.415 0.066 0.662 0 0.971-0.276 1.026-0.971l0.132-1.544c0.11-1.268-0.728-1.754-3.574-1.754s-3.684 0.485-3.574 1.754l0.132 1.544c0.055 0.695 0.364 0.971 1.026 0.971 0.419 0 1.621-0.066 2.415-0.066zM13.224 19.882c2.846 0 3.75-0.419 3.54-1.732l-0.11-0.75c-0.165-1.048-0.982-1.379-3.43-1.379s-3.265 0.331-3.43 1.379l-0.11 0.75c-0.21 1.312 0.695 1.732 3.54 1.732zM8.029 10.574v-2.294h-1.412c-0.551 0-0.971 0.408-0.971 0.938v0.419c0 0.518 0.419 0.938 0.971 0.938h1.412zM18.419 10.574h1.412c0.551 0 0.971-0.419 0.971-0.938v-0.419c0-0.529-0.419-0.938-0.971-0.938h-1.412v2.294zM21.706 24.956c0.96-0.96 1.533-2.151 1.677-3.496 0.077-0.596-0.309-0.971-0.794-0.971-0.54 0-0.783 0.254-0.882 0.871-0.121 0.938-0.507 1.754-1.169 2.426-0.695 0.684-1.489 1.081-2.338 1.169-0.684 0.099-0.993 0.452-0.993 0.893 0 0.474 0.353 0.805 0.871 0.805 0.949 0 2.493-0.562 3.629-1.699zM24.441 27.702c1.71-1.688 2.614-3.849 2.757-6.187 0.044-0.607-0.375-0.915-0.805-0.915-0.552 0-0.838 0.276-0.893 0.982-0.11 1.82-0.86 3.574-2.228 4.952-1.379 1.368-3.143 2.118-4.952 2.228-0.629 0.044-1.004 0.353-1.004 0.827 0 0.518 0.386 0.882 0.949 0.882 2.338 0 4.489-1.070 6.177-2.768z"></path>
</svg>
