<!-- Generated by IcoMoon.io -->
<svg version="1.1" xmlns="http://www.w3.org/2000/svg" width="32" height="32" viewBox="0 0 32 32">
<title>car-front-waves-up-fill</title>
<path d="M16.357 4.654c2.382 0 4.533 0.827 6.176 2.305 0.463 0.408 0.971 0.507 1.368 0.165 0.419-0.364 0.419-0.971-0.055-1.401-1.985-1.831-4.632-2.868-7.489-2.868s-5.493 1.037-7.489 2.868c-0.463 0.43-0.463 1.037-0.055 1.401 0.408 0.342 0.915 0.243 1.368-0.165 1.654-1.478 3.805-2.305 6.176-2.305zM16.379 9.077c1.147 0 2.217 0.331 3.033 0.993 0.474 0.342 0.971 0.496 1.368 0.143 0.419-0.364 0.43-1.026-0.077-1.423-1.191-0.96-2.702-1.511-4.324-1.511s-3.132 0.551-4.323 1.511c-0.507 0.397-0.496 1.059-0.077 1.423 0.397 0.353 0.882 0.198 1.368-0.143 0.849-0.64 1.886-0.993 3.033-0.993zM16.401 26.768c2.25 0 5.096-0.077 7.114-0.198v1.555c0 0.662 0.518 1.18 1.191 1.18h1.246c0.673 0 1.202-0.518 1.202-1.18v-5.261c0-1.522-0.309-2.382-1.147-3.463l-0.761-0.971c-0.331-1.632-0.927-3.331-1.235-3.993-0.496-1.026-1.423-1.643-2.625-1.787-0.596-0.077-2.647-0.132-4.985-0.132s-4.39 0.055-4.985 0.132c-1.202 0.143-2.14 0.761-2.625 1.787-0.309 0.662-0.904 2.36-1.235 3.993l-0.761 0.971c-0.838 1.081-1.147 1.941-1.147 3.463v5.261c0 0.662 0.529 1.18 1.202 1.18h1.246c0.673 0 1.191-0.518 1.191-1.18v-1.555c2.018 0.121 4.864 0.198 7.114 0.198zM9.452 17.68c0.21-0.993 0.651-2.283 0.949-2.802 0.243-0.43 0.507-0.607 0.993-0.684 0.684-0.088 2.217-0.143 5.007-0.143s4.323 0.033 5.007 0.143c0.485 0.077 0.739 0.254 0.993 0.684 0.309 0.507 0.706 1.809 0.949 2.802 0.088 0.331-0.055 0.463-0.397 0.43-1.5-0.099-3.287-0.187-6.551-0.187s-5.051 0.088-6.552 0.187c-0.342 0.033-0.474-0.099-0.397-0.43zM9.893 24.342c-0.816 0-1.456-0.64-1.456-1.456 0-0.827 0.64-1.445 1.456-1.445 0.827 0 1.445 0.618 1.445 1.445 0 0.816-0.618 1.456-1.445 1.456zM14.018 23.978c-0.618 0-1.048-0.43-1.048-1.048s0.43-1.037 1.048-1.037h4.765c0.618 0 1.048 0.419 1.048 1.037s-0.43 1.048-1.048 1.048h-4.765zM22.908 24.342c-0.827 0-1.445-0.64-1.445-1.456 0-0.827 0.618-1.445 1.445-1.445 0.816 0 1.445 0.618 1.445 1.445 0 0.816-0.629 1.456-1.445 1.456z"></path>
</svg>
