<!-- Generated by IcoMoon.io -->
<svg version="1.1" xmlns="http://www.w3.org/2000/svg" width="32" height="32" viewBox="0 0 32 32">
<title>car-circle-fill</title>
<path d="M15.956 27.217c6.154 0 11.25-5.096 11.25-11.25 0-6.143-5.107-11.25-11.261-11.25-6.143 0-11.239 5.107-11.239 11.25 0 6.154 5.107 11.25 11.25 11.25zM9.724 19.75v-3.033c0-0.871 0.176-1.379 0.673-2.007l0.452-0.574c0.199-0.96 0.529-1.952 0.717-2.338 0.287-0.596 0.827-0.949 1.522-1.037 0.364-0.044 1.511-0.077 2.879-0.077 1.357 0 2.515 0.033 2.868 0.077 0.706 0.099 1.246 0.441 1.522 1.037 0.187 0.386 0.518 1.379 0.728 2.338l0.441 0.574c0.496 0.629 0.673 1.136 0.673 2.007v3.033c0 0.386-0.309 0.695-0.695 0.695h-0.629c-0.397 0-0.706-0.309-0.706-0.695v-0.871c-1.169 0.066-2.846 0.11-4.202 0.11s-3.044-0.044-4.213-0.11v0.871c0 0.386-0.309 0.695-0.695 0.695h-0.629c-0.397 0-0.706-0.309-0.706-0.695zM12.195 13.64c-0.044 0.165 0.022 0.243 0.221 0.232 0.816-0.066 1.776-0.11 3.551-0.11 1.765 0 2.735 0.044 3.541 0.11 0.198 0.011 0.276-0.066 0.221-0.232-0.11-0.552-0.342-1.257-0.496-1.522-0.154-0.243-0.287-0.342-0.563-0.375-0.375-0.066-1.213-0.077-2.702-0.077-1.5 0-2.338 0.022-2.702 0.077-0.276 0.033-0.419 0.132-0.563 0.375-0.154 0.276-0.386 0.971-0.507 1.522zM11.312 16.728c0 0.474 0.375 0.849 0.849 0.849s0.849-0.375 0.849-0.849c0-0.474-0.375-0.838-0.849-0.838s-0.849 0.364-0.849 0.838zM13.96 16.761c0 0.364 0.254 0.618 0.618 0.618h2.779c0.353 0 0.607-0.254 0.607-0.618 0-0.353-0.254-0.607-0.607-0.607h-2.779c-0.364 0-0.618 0.254-0.618 0.607zM18.923 16.728c0 0.474 0.364 0.849 0.838 0.849 0.485 0 0.86-0.375 0.86-0.849s-0.375-0.838-0.86-0.838c-0.474 0-0.838 0.364-0.838 0.838z"></path>
</svg>
