<!-- Generated by IcoMoon.io -->
<svg version="1.1" xmlns="http://www.w3.org/2000/svg" width="32" height="32" viewBox="0 0 32 32">
<title>car-rear-road-lane</title>
<path d="M0.905 24.063h1.434c0.662 0 0.993-0.32 1.18-0.794l6.088-15.033c0.154-0.364-0.022-0.684-0.408-0.684h-0.717c-0.386 0-0.629 0.188-0.794 0.518l-7.555 14.768c-0.309 0.563-0.088 1.224 0.772 1.224zM29.449 24.063h1.445c0.849 0 1.070-0.662 0.761-1.224l-7.544-14.768c-0.176-0.331-0.419-0.518-0.805-0.518h-0.717c-0.386 0-0.551 0.32-0.408 0.684l6.088 15.033c0.187 0.474 0.518 0.794 1.18 0.794zM8.89 20.412c0 0.43 0.342 0.772 0.772 0.772h0.695c0.441 0 0.772-0.342 0.772-0.772v-0.849h9.375v0.849c0 0.43 0.342 0.772 0.783 0.772h0.684c0.441 0 0.783-0.342 0.783-0.772v-3.915c0-0.982-0.143-1.577-0.75-2.239l-0.585-0.64-0.618-1.765c-0.331-0.96-0.982-1.357-1.798-1.456-0.386-0.044-1.666-0.077-3.188-0.077-1.511 0-2.79 0.033-3.187 0.077-0.816 0.099-1.456 0.496-1.798 1.456l-0.607 1.765-0.596 0.64c-0.607 0.662-0.739 1.257-0.739 2.239v3.915zM11.824 13.651c-0.276 0-0.375-0.21-0.287-0.463l0.364-1.092c0.132-0.408 0.353-0.541 0.706-0.585 0.408-0.055 1.544-0.099 3.21-0.099 1.677 0 2.801 0.044 3.21 0.099 0.353 0.044 0.574 0.176 0.706 0.585l0.375 1.092c0.088 0.254-0.022 0.463-0.298 0.463h-7.985zM11.008 17.312c-0.364 0-0.629-0.265-0.629-0.629v-0.915c0-0.353 0.265-0.618 0.629-0.618s0.629 0.254 0.629 0.618v0.915c0 0.364-0.265 0.629-0.629 0.629zM14.482 17.026c-0.287 0-0.474-0.187-0.474-0.496v-0.596c0-0.309 0.187-0.496 0.474-0.496h2.647c0.298 0 0.485 0.188 0.485 0.496v0.596c0 0.309-0.187 0.496-0.485 0.496h-2.647zM20.68 17.312c-0.342 0-0.618-0.276-0.618-0.629v-0.915c0-0.353 0.276-0.618 0.618-0.618 0.364 0 0.629 0.254 0.629 0.618v0.915c0 0.364-0.265 0.629-0.629 0.629z"></path>
</svg>
