<!-- Generated by IcoMoon.io -->
<svg version="1.1" xmlns="http://www.w3.org/2000/svg" width="32" height="32" viewBox="0 0 32 32">
<title>car-side-and-exclamationmark</title>
<path d="M2.56 20.837h2.686v-1.413h-2.607c-0.623 0-0.957-0.386-0.957-1.106v-1.563c0-1.317 0.931-2.168 2.625-2.379l4.196-0.527 3.81-2.37c0.86-0.535 1.571-0.878 2.432-1.097-0.018-0.483-0.035-0.966-0.053-1.457-1.141 0.246-2.037 0.658-3.134 1.352l-3.538 2.221-3.898 0.474c-2.423 0.299-3.854 1.694-3.854 3.784v1.738c0 1.492 0.834 2.344 2.291 2.344zM26.939 20.837h2.432c1.264 0 2.037-0.799 2.037-2.089v-3.538c0-1.229-0.369-2.274-2.002-2.783l-1.808-0.553c-1.141-1.361-3.134-3.301-6.76-3.301h-2.063c-0.114 0-0.228 0-0.342 0.009-0.018 0.465-0.026 0.939-0.044 1.413 0.132-0.009 0.246-0.009 0.386-0.009h2.063c2.388 0 4.319 0.992 5.978 3.301l2.151 0.562c0.808 0.202 1.027 0.685 1.027 1.361v3.187c0 0.641-0.325 1.027-0.878 1.027h-2.177v1.413zM9.354 20.837h13.546v-1.413h-13.546v1.413zM7.247 22.839c1.686 0 3.002-1.317 3.002-3.002s-1.317-3.002-3.002-3.002c-1.686 0-3.002 1.317-3.002 3.002s1.317 3.002 3.002 3.002zM7.247 21.425c-0.895 0-1.589-0.694-1.589-1.589s0.694-1.589 1.589-1.589c0.895 0 1.589 0.694 1.589 1.589s-0.694 1.589-1.589 1.589zM24.981 22.839c1.686 0 3.002-1.317 3.002-3.002s-1.317-3.002-3.002-3.002c-1.686 0-3.002 1.317-3.002 3.002s1.317 3.002 3.002 3.002zM24.981 21.425c-0.895 0-1.589-0.694-1.589-1.589s0.694-1.589 1.589-1.589c0.895 0 1.589 0.694 1.589 1.589s-0.694 1.589-1.589 1.589zM16.562 16.562c0.623 0 1.15-0.518 1.15-1.115 0-0.606-0.518-1.106-1.15-1.106-0.641 0-1.159 0.5-1.159 1.106 0 0.597 0.527 1.115 1.159 1.115zM16.562 12.664c0.43 0 0.729-0.307 0.746-0.755l0.184-6.215c0.018-0.562-0.36-0.931-0.931-0.931-0.579 0-0.957 0.369-0.939 0.931l0.184 6.215c0.018 0.448 0.325 0.755 0.755 0.755z"></path>
</svg>
