<!-- Generated by IcoMoon.io -->
<svg version="1.1" xmlns="http://www.w3.org/2000/svg" width="32" height="32" viewBox="0 0 32 32">
<title>car-rear-and-tire-marks</title>
<path d="M8.668 16.151c0 0.54 0.419 0.949 0.971 0.949h0.838c0.54 0 0.949-0.408 0.949-0.949v-1.037h11.515v1.037c0 0.54 0.408 0.949 0.949 0.949h0.838c0.552 0 0.96-0.408 0.96-0.949v-4.809c0-1.202-0.143-1.941-0.904-2.746l-0.728-0.783-0.75-2.162c-0.408-1.18-1.213-1.665-2.206-1.787-0.485-0.066-2.051-0.099-3.915-0.099s-3.441 0.033-3.915 0.099c-0.993 0.121-1.809 0.607-2.206 1.787l-0.75 2.162-0.728 0.783c-0.761 0.805-0.915 1.544-0.915 2.746v4.809zM12.286 7.868c-0.342 0-0.463-0.265-0.353-0.585l0.441-1.346c0.165-0.485 0.43-0.651 0.86-0.717 0.496-0.055 1.886-0.11 3.949-0.11s3.441 0.055 3.938 0.11c0.43 0.066 0.695 0.232 0.86 0.717l0.452 1.346c0.11 0.32-0.011 0.585-0.353 0.585h-9.794zM11.282 12.346c-0.452 0-0.783-0.32-0.783-0.772v-1.125c0-0.43 0.331-0.75 0.783-0.75 0.441 0 0.761 0.309 0.761 0.75v1.125c0 0.452-0.32 0.772-0.761 0.772zM15.539 12.004c-0.353 0-0.574-0.243-0.574-0.629v-0.717c0-0.375 0.221-0.607 0.574-0.607h3.254c0.353 0 0.596 0.232 0.596 0.607v0.717c0 0.386-0.243 0.629-0.596 0.629h-3.254zM23.15 12.346c-0.43 0-0.761-0.32-0.761-0.772v-1.125c0-0.419 0.331-0.75 0.761-0.75 0.452 0 0.772 0.309 0.772 0.75v1.125c0 0.452-0.32 0.772-0.772 0.772zM14.315 19.007l-0.838-0.629c-0.309-0.221-0.662-0.331-1.037-0.331h-1.787c-0.441 0-0.607 0.529-0.254 0.783l1.688 1.235c0.529 0.386 0.463 0.893-0.154 1.169l-5.482 2.371c-2.118 0.904-2.316 2.294-0.551 3.596l0.838 0.618c0.309 0.232 0.662 0.342 1.048 0.342h1.776c0.452 0 0.607-0.529 0.265-0.783l-1.688-1.246c-0.529-0.375-0.463-0.893 0.143-1.158l5.493-2.382c2.107-0.904 2.305-2.283 0.54-3.585zM25.863 19.029l-0.838-0.629c-0.309-0.232-0.662-0.331-1.037-0.331h-1.787c-0.441 0-0.607 0.518-0.254 0.783l1.688 1.235c0.518 0.375 0.452 0.893-0.154 1.158l-5.493 2.382c-2.107 0.904-2.305 2.283-0.54 3.585l0.838 0.618c0.309 0.232 0.662 0.342 1.037 0.342h1.787c0.441 0 0.607-0.529 0.254-0.783l-1.687-1.235c-0.518-0.386-0.452-0.893 0.154-1.169l5.493-2.371c2.107-0.904 2.305-2.294 0.54-3.584z"></path>
</svg>
