<!-- Generated by IcoMoon.io -->
<svg version="1.1" xmlns="http://www.w3.org/2000/svg" width="32" height="32" viewBox="0 0 32 32">
<title>car-top-lane-dashed-departure-right-fill</title>
<path d="M4.415 10.684h0.596c0.364 0 0.64-0.276 0.64-0.651v-4.676c0-0.375-0.276-0.651-0.64-0.651h-0.596c-0.375 0-0.651 0.276-0.651 0.651v4.676c0 0.375 0.276 0.651 0.651 0.651zM4.415 18.857h0.596c0.364 0 0.64-0.276 0.64-0.651v-4.665c0-0.364-0.276-0.64-0.64-0.64h-0.596c-0.375 0-0.651 0.276-0.651 0.64v4.665c0 0.375 0.276 0.651 0.651 0.651zM4.415 27.051h0.596c0.364 0 0.64-0.276 0.64-0.651v-4.677c0-0.375-0.276-0.651-0.64-0.651h-0.596c-0.375 0-0.651 0.276-0.651 0.651v4.677c0 0.375 0.276 0.651 0.651 0.651zM24.346 8.566l1.886 1.070v-4.279c0-0.375-0.276-0.651-0.651-0.651h-0.585c-0.375 0-0.651 0.276-0.651 0.651v3.21zM24.996 27.040h0.585c0.375 0 0.651-0.276 0.651-0.64v-4.677c0-0.375-0.276-0.651-0.651-0.651h-0.585c-0.375 0-0.651 0.276-0.651 0.651v4.677c0 0.364 0.276 0.64 0.651 0.64zM14.132 24.724c3.386 1.941 5.349 2.063 6.474 0.121l6.585-11.426c1.169-2.007 0-4.257-3.055-6.011-3.033-1.743-5.559-1.643-6.717 0.364l-6.596 11.426c-1.125 1.941-0.055 3.585 3.309 5.526zM19.967 14.632c-0.651-0.375-1.676-0.871-2.018-1.092-0.562-0.309-0.662-0.684-0.386-1.268l0.607-1.335c0.529-1.103 1.445-1.103 3.783 0.254 2.36 1.357 2.813 2.151 2.129 3.143l-0.849 1.202c-0.386 0.563-0.772 0.629-1.301 0.32-0.342-0.199-1.346-0.86-1.963-1.224zM15.754 21.934c-2.327-1.346-2.879-2.118-2.096-3.11l0.452-0.563c0.618-0.794 1.467-0.662 3.474 0.507 2.029 1.158 2.548 1.809 2.173 2.757l-0.254 0.673c-0.452 1.169-1.412 1.092-3.75-0.265zM16.007 11.93l1.048-1.809-1.114-0.651c-0.43-0.254-0.949-0.121-1.191 0.298l-0.199 0.331c-0.243 0.408-0.088 0.949 0.331 1.191l1.125 0.64zM24.301 16.717l1.114 0.651c0.43 0.254 0.971 0.11 1.202-0.298l0.188-0.342c0.232-0.419 0.099-0.938-0.342-1.191l-1.114-0.64-1.048 1.82z"></path>
</svg>
