<!-- Generated by IcoMoon.io -->
<svg version="1.1" xmlns="http://www.w3.org/2000/svg" width="32" height="32" viewBox="0 0 32 32">
<title>car-top-lane-dashed-arrowtriangle-inward</title>
<path d="M-0.923 18.515l3.651-2.239c0.463-0.287 0.474-0.827 0-1.114l-3.651-2.25c-0.496-0.298-0.96-0.055-0.96 0.518v4.577c0 0.585 0.463 0.805 0.96 0.507zM32.265 18.515c0.496 0.298 0.96 0.077 0.96-0.507v-4.577c0-0.573-0.463-0.816-0.96-0.518l-3.651 2.25c-0.474 0.287-0.474 0.827 0 1.114l3.651 2.239zM5.21 10.596h0.585c0.375 0 0.651-0.276 0.651-0.651v-4.577c0-0.375-0.276-0.651-0.651-0.651h-0.585c-0.375 0-0.651 0.276-0.651 0.651v4.577c0 0.375 0.276 0.651 0.651 0.651zM5.21 18.68h0.585c0.375 0 0.651-0.276 0.651-0.651v-4.566c0-0.375-0.276-0.651-0.651-0.651h-0.585c-0.375 0-0.651 0.276-0.651 0.651v4.566c0 0.375 0.276 0.651 0.651 0.651zM5.21 26.776h0.585c0.375 0 0.651-0.276 0.651-0.64v-4.588c0-0.375-0.276-0.651-0.651-0.651h-0.585c-0.375 0-0.651 0.276-0.651 0.651v4.588c0 0.364 0.276 0.64 0.651 0.64zM25.548 10.596h0.585c0.375 0 0.651-0.276 0.651-0.651v-4.577c0-0.375-0.276-0.651-0.651-0.651h-0.585c-0.375 0-0.651 0.276-0.651 0.651v4.577c0 0.375 0.276 0.651 0.651 0.651zM25.548 18.68h0.585c0.375 0 0.651-0.276 0.651-0.651v-4.566c0-0.375-0.276-0.651-0.651-0.651h-0.585c-0.375 0-0.651 0.276-0.651 0.651v4.566c0 0.375 0.276 0.651 0.651 0.651zM25.548 26.776h0.585c0.375 0 0.651-0.276 0.651-0.64v-4.588c0-0.375-0.276-0.651-0.651-0.651h-0.585c-0.375 0-0.651 0.276-0.651 0.651v4.588c0 0.364 0.276 0.64 0.651 0.64zM15.654 25.739c3.904 0 5.658-0.882 5.658-3.132v-13.191c-0.011-2.316-2.129-3.684-5.647-3.673-3.496 0-5.636 1.346-5.636 3.673v13.191c0 2.25 1.743 3.132 5.625 3.132zM15.665 24.184c-2.912-0.011-4.048-0.463-4.048-1.621v-13.136c0-1.346 1.401-2.107 4.037-2.107 2.669 0 4.092 0.761 4.081 2.096v13.147c0 1.158-1.147 1.61-4.070 1.621zM15.665 14.147c0.695 0.011 1.864 0.066 2.239 0.077 0.607 0 0.904-0.254 0.949-0.893l0.121-1.434c0.099-1.158-0.662-1.599-3.298-1.61-2.636 0-3.408 0.452-3.309 1.621l0.132 1.412c0.044 0.651 0.32 0.904 0.938 0.893 0.397 0.011 1.5-0.055 2.228-0.066zM15.665 22.342c2.625-0.011 3.463-0.397 3.287-1.599l-0.11-0.695c-0.154-0.971-0.904-1.268-3.165-1.257-2.272-0.011-3.022 0.298-3.176 1.257l-0.099 0.684c-0.187 1.224 0.651 1.599 3.265 1.61zM10.89 13.717v-2.085l-1.29-0.011c-0.507 0-0.882 0.375-0.882 0.849l-0.011 0.397c0 0.474 0.386 0.86 0.882 0.86l1.301-0.011zM20.463 13.728h1.29c0.496 0 0.882-0.386 0.882-0.86l-0.011-0.386c0-0.485-0.375-0.86-0.882-0.86h-1.279v2.107z"></path>
</svg>
