<!-- Generated by IcoMoon.io -->
<svg version="1.1" xmlns="http://www.w3.org/2000/svg" width="32" height="32" viewBox="0 0 32 32">
<title>car-top-door-rear-right-open</title>
<path d="M13.588 30.36c5.57 0 7.941-1.224 7.941-4.224v-19.147c0-3.221-2.923-5.107-7.941-5.107-5.007 0-7.941 1.886-7.941 5.107v19.147c0 3 2.382 4.224 7.941 4.224zM13.588 28.529c-4.257 0-6.099-0.717-6.099-2.482v-19.059c0-2.063 2.25-3.265 6.099-3.265 3.86 0 6.099 1.202 6.099 3.265v19.059c0 1.765-1.831 2.482-6.099 2.482zM13.599 13.728c0.982 0 2.658 0.077 3.21 0.077 0.838 0 1.191-0.32 1.268-1.18l0.176-2.074c0.143-1.588-0.971-2.228-4.654-2.228-3.695 0-4.809 0.64-4.665 2.228l0.176 2.074c0.077 0.86 0.441 1.18 1.268 1.18 0.563 0 2.173-0.077 3.221-0.077zM13.599 25.496c3.706 0 4.842-0.551 4.61-2.173l-0.143-1.004c-0.176-1.323-1.279-1.765-4.467-1.765-3.198 0-4.301 0.441-4.478 1.765l-0.143 1.004c-0.232 1.621 0.904 2.173 4.621 2.173zM20.702 17.908v2.592l4.092 4.081c0.364 0.364 0.937 0.353 1.301 0 0.353-0.364 0.353-0.96 0-1.312l-5.393-5.36z"></path>
</svg>
