<!-- Generated by IcoMoon.io -->
<svg version="1.1" xmlns="http://www.w3.org/2000/svg" width="32" height="32" viewBox="0 0 32 32">
<title>car-ferry-fill</title>
<path d="M5.2 28.754h0.055c3.441 0 3.728-2.239 5.526-2.239 1.743 0 2.228 2.239 5.239 2.239 3 0 3.485-2.239 5.228-2.239 1.798 0 2.085 2.239 5.526 2.239h0.055c0.43 0 0.772-0.342 0.772-0.772s-0.342-0.783-0.772-0.783h-0.055c-1.191 0-1.853-0.485-2.691-1.081-0.717-0.518-1.61-1.158-2.835-1.158-1.257 0-2.162 0.684-2.879 1.213-0.761 0.585-1.368 1.026-2.349 1.026-0.993 0-1.588-0.441-2.349-1.026-0.717-0.529-1.632-1.213-2.89-1.213-1.224 0-2.118 0.64-2.835 1.158-0.838 0.596-1.5 1.081-2.691 1.081h-0.055c-0.43 0-0.772 0.353-0.772 0.783s0.342 0.772 0.772 0.772zM4.251 21.971l2.415 3.209c0.121-0.077 0.254-0.176 0.397-0.276 1.257-0.915 2.338-1.445 3.717-1.445 1.423 0 2.493 0.562 3.794 1.511 0.772 0.596 0.993 0.728 1.445 0.728 0.419 0 0.64-0.132 1.301-0.618 1.357-1.037 2.46-1.621 3.927-1.621 1.39 0 2.46 0.529 3.717 1.445 0.143 0.099 0.276 0.199 0.408 0.276l2.404-3.209c1.015-1.324 0.386-2.846-1.357-2.846h-20.813c-1.743 0-2.371 1.522-1.357 2.846zM9.799 7.434c0.199-0.893 0.585-2.040 0.849-2.504 0.221-0.375 0.463-0.551 0.893-0.607 0.618-0.088 1.985-0.132 4.478-0.132 2.482 0 3.86 0.033 4.467 0.132 0.441 0.066 0.673 0.232 0.893 0.607 0.276 0.452 0.64 1.61 0.849 2.504 0.077 0.298-0.055 0.408-0.364 0.397-1.334-0.088-2.934-0.176-5.846-0.176-2.923 0-4.511 0.088-5.857 0.176-0.309 0.011-0.43-0.099-0.364-0.397zM10.196 13.379c-0.728 0-1.29-0.551-1.29-1.29s0.563-1.29 1.29-1.29c0.739 0 1.29 0.551 1.29 1.29s-0.551 1.29-1.29 1.29zM13.88 13.070c-0.541 0-0.927-0.386-0.927-0.938s0.386-0.927 0.927-0.927h4.268c0.552 0 0.927 0.375 0.927 0.927s-0.375 0.938-0.927 0.938h-4.268zM21.832 13.379c-0.739 0-1.29-0.551-1.29-1.29s0.551-1.29 1.29-1.29c0.739 0 1.29 0.551 1.29 1.29s-0.552 1.29-1.29 1.29zM16.020 15.563c2.702 0 6.309-0.143 7.831-0.309 1.092-0.132 1.699-0.728 1.699-1.765v-1.423c0-1.357-0.276-2.118-1.015-3.077l-0.684-0.882c-0.298-1.456-0.838-2.978-1.114-3.574-0.43-0.915-1.268-1.445-2.338-1.588-0.529-0.077-2.305-0.121-4.379-0.121-2.085 0-3.849 0.055-4.39 0.121-1.070 0.121-1.908 0.673-2.338 1.588-0.276 0.596-0.816 2.118-1.114 3.574l-0.673 0.882c-0.75 0.96-1.026 1.721-1.026 3.077v1.423c0 1.037 0.607 1.632 1.699 1.765 1.533 0.165 5.129 0.309 7.842 0.309zM7.549 17.779h0.949c0.607 0 1.070-0.463 1.070-1.059v-2.007l-3.088-1.478v3.485c0 0.596 0.463 1.059 1.070 1.059zM23.531 17.779h0.949c0.607 0 1.070-0.463 1.070-1.059v-3.485l-3.077 1.478v2.007c0 0.596 0.463 1.059 1.059 1.059z"></path>
</svg>
