<!-- Generated by IcoMoon.io -->
<svg version="1.1" xmlns="http://www.w3.org/2000/svg" width="32" height="32" viewBox="0 0 32 32">
<title>car-fill</title>
<path d="M7.379 11.945c0.254-1.202 0.794-2.779 1.158-3.419 0.298-0.518 0.618-0.75 1.213-0.827 0.838-0.11 2.713-0.188 6.121-0.188 3.419 0 5.294 0.055 6.121 0.188 0.596 0.088 0.904 0.309 1.213 0.827 0.375 0.629 0.882 2.217 1.169 3.419 0.099 0.408-0.077 0.563-0.496 0.54-1.831-0.121-4.015-0.232-8.007-0.232-3.982 0-6.165 0.11-7.996 0.232-0.43 0.022-0.596-0.132-0.496-0.54zM7.919 20.096c-1.004 0-1.776-0.772-1.776-1.776 0-1.015 0.772-1.776 1.776-1.776s1.776 0.761 1.776 1.776c0 1.004-0.772 1.776-1.776 1.776zM12.96 19.654c-0.761 0-1.279-0.518-1.279-1.279 0-0.75 0.518-1.268 1.279-1.268h5.835c0.75 0 1.268 0.518 1.268 1.268 0 0.761-0.518 1.279-1.268 1.279h-5.835zM23.824 20.096c-1.004 0-1.765-0.772-1.765-1.776 0-1.015 0.761-1.776 1.765-1.776 1.015 0 1.776 0.761 1.776 1.776 0 1.004-0.761 1.776-1.776 1.776zM15.871 23.073c3.706 0 8.636-0.187 10.721-0.43 1.5-0.165 2.327-0.993 2.327-2.404v-1.941c0-1.864-0.375-2.901-1.39-4.224l-0.938-1.202c-0.397-1.985-1.136-4.070-1.511-4.886-0.596-1.246-1.732-1.985-3.198-2.184-0.739-0.099-3.154-0.154-6.011-0.154-2.846 0-5.261 0.066-6 0.154-1.467 0.176-2.614 0.938-3.199 2.184-0.386 0.816-1.114 2.901-1.522 4.886l-0.926 1.202c-1.026 1.324-1.401 2.36-1.401 4.224v1.941c0 1.412 0.838 2.239 2.327 2.404 2.096 0.243 7.015 0.43 10.721 0.43zM4.29 26.107h1.29c0.827 0 1.467-0.64 1.467-1.456v-2.746l-4.224-2.007v4.754c0 0.816 0.64 1.456 1.467 1.456zM26.162 26.107h1.301c0.827 0 1.456-0.64 1.456-1.456v-4.754l-4.213 2.007v2.746c0 0.816 0.629 1.456 1.456 1.456z"></path>
</svg>
