<!-- Generated by IcoMoon.io -->
<svg version="1.1" xmlns="http://www.w3.org/2000/svg" width="32" height="32" viewBox="0 0 32 32">
<title>car-side-rear-open-fill</title>
<path d="M25.235 12.608l0.98 0.787 2.295-2.345c0.193-0.201 0.427-0.276 0.695-0.276h1.273c0.385 0 0.628-0.243 0.628-0.603s-0.243-0.603-0.628-0.603h-1.131c-0.712 0-1.332 0.201-1.809 0.695l-2.303 2.345zM2.463 21.285h1.307c-0.050-0.251-0.092-0.511-0.092-0.787 0-1.801 1.424-3.216 3.216-3.216 1.801 0 3.216 1.415 3.216 3.216 0 0.276-0.034 0.536-0.092 0.787h10.67c-0.050-0.251-0.092-0.511-0.092-0.787 0-1.801 1.424-3.216 3.216-3.216 1.801 0 3.216 1.415 3.216 3.216 0 0.276-0.034 0.536-0.092 0.787h1.106c1.206 0 1.943-0.762 1.943-2.002v-3.367c0-1.172-0.352-2.169-1.91-2.655l-1.725-0.528c-1.089-1.298-2.99-3.149-6.449-3.149h-1.968c-3.451 0-4.824 0.335-6.884 1.625l-3.375 2.119-3.719 0.452c-2.312 0.285-3.677 1.616-3.677 3.61v1.658c0 1.424 0.796 2.236 2.186 2.236zM6.893 22.734c1.256 0 2.245-0.988 2.245-2.236s-0.997-2.245-2.245-2.245c-1.24 0-2.236 0.997-2.236 2.245 0 1.239 0.997 2.236 2.236 2.236zM23.811 22.734c1.248 0 2.245-0.997 2.245-2.236 0-1.248-0.997-2.245-2.245-2.245-1.231 0-2.236 1.005-2.236 2.245s0.997 2.236 2.236 2.236z"></path>
</svg>
