<!-- Generated by IcoMoon.io -->
<svg version="1.1" xmlns="http://www.w3.org/2000/svg" width="32" height="32" viewBox="0 0 32 32">
<title>car-side-and-exclamationmark-fill</title>
<path d="M2.566 21.010h1.369c-0.053-0.263-0.096-0.535-0.096-0.825 0-1.887 1.492-3.369 3.369-3.369 1.886 0 3.369 1.483 3.369 3.369 0 0.29-0.035 0.562-0.097 0.825h11.179c-0.053-0.263-0.096-0.535-0.096-0.825 0-1.887 1.492-3.369 3.369-3.369 1.887 0 3.369 1.483 3.369 3.369 0 0.29-0.035 0.562-0.096 0.825h1.158c1.264 0 2.036-0.799 2.036-2.097v-3.527c0-1.228-0.369-2.273-2.001-2.782l-1.808-0.553c-1.141-1.36-3.133-3.299-6.757-3.299h-2.062c-3.615 0-5.054 0.351-7.213 1.702l-3.536 2.22-3.896 0.474c-2.422 0.298-3.852 1.694-3.852 3.782v1.737c0 1.492 0.834 2.343 2.29 2.343zM7.208 22.528c1.316 0 2.352-1.035 2.352-2.343s-1.044-2.352-2.352-2.352c-1.299 0-2.343 1.044-2.343 2.352 0 1.299 1.044 2.343 2.343 2.343zM24.933 22.528c1.307 0 2.352-1.044 2.352-2.343 0-1.307-1.044-2.352-2.352-2.352-1.29 0-2.343 1.053-2.343 2.352s1.044 2.343 2.343 2.343zM16.57 16.948c-0.649 0-1.193-0.535-1.193-1.158s0.526-1.141 1.193-1.141c0.658 0 1.193 0.518 1.193 1.141s-0.544 1.158-1.193 1.158zM16.57 12.92c-0.447 0-0.763-0.316-0.781-0.781l-0.184-6.406c-0.018-0.579 0.368-0.965 0.965-0.965s0.983 0.386 0.965 0.965l-0.193 6.406c-0.018 0.465-0.325 0.781-0.772 0.781z"></path>
</svg>
