<!-- Generated by IcoMoon.io -->
<svg version="1.1" xmlns="http://www.w3.org/2000/svg" width="32" height="32" viewBox="0 0 32 32">
<title>car-rear-fill</title>
<path d="M2.824 24.651c0 0.816 0.64 1.456 1.467 1.456h1.29c0.827 0 1.467-0.64 1.467-1.456v-1.599h17.658v1.599c0 0.816 0.629 1.456 1.456 1.456h1.301c0.827 0 1.456-0.64 1.456-1.456v-7.368c0-1.853-0.254-2.967-1.39-4.213l-1.114-1.202-1.158-3.32c-0.629-1.809-1.853-2.57-3.375-2.746-0.739-0.088-3.154-0.154-6.011-0.154-2.846 0-5.261 0.066-6 0.154-1.533 0.176-2.757 0.938-3.386 2.746l-1.158 3.32-1.103 1.202c-1.147 1.246-1.401 2.36-1.401 4.213v7.368zM8.36 11.923c-0.54 0-0.717-0.386-0.551-0.871l0.684-2.063c0.254-0.761 0.662-1.004 1.324-1.092 0.772-0.11 2.912-0.188 6.055-0.188 3.154 0 5.283 0.077 6.044 0.188 0.673 0.088 1.070 0.331 1.323 1.092l0.695 2.063c0.165 0.485-0.022 0.871-0.551 0.871h-15.022zM6.816 18.816c-0.684 0-1.18-0.496-1.18-1.169v-1.721c0-0.673 0.496-1.158 1.18-1.158 0.673 0 1.169 0.474 1.169 1.158v1.721c0 0.684-0.496 1.169-1.169 1.169zM13.368 18.287c-0.54 0-0.904-0.353-0.904-0.949v-1.114c0-0.574 0.364-0.927 0.904-0.927h4.974c0.551 0 0.915 0.353 0.915 0.927v1.114c0 0.596-0.364 0.949-0.915 0.949h-4.974zM25.037 18.816c-0.662 0-1.169-0.496-1.169-1.169v-1.721c0-0.673 0.507-1.158 1.169-1.158 0.684 0 1.18 0.474 1.18 1.158v1.721c0 0.684-0.496 1.169-1.18 1.169z"></path>
</svg>
