<!-- Generated by IcoMoon.io -->
<svg version="1.1" xmlns="http://www.w3.org/2000/svg" width="32" height="32" viewBox="0 0 32 32">
<title>car</title>
<path d="M7.996 12.585c-0.088 0.386 0.077 0.54 0.496 0.518 1.765-0.121 3.86-0.221 7.379-0.221 3.529 0 5.625 0.099 7.39 0.221 0.408 0.022 0.574-0.132 0.485-0.518-0.265-1.169-0.772-2.691-1.125-3.298-0.287-0.496-0.607-0.717-1.18-0.794-0.794-0.11-2.603-0.188-5.57-0.188-2.956 0-4.765 0.077-5.57 0.188-0.574 0.077-0.893 0.298-1.18 0.794-0.353 0.607-0.849 2.129-1.125 3.298zM7.919 20.096c1.004 0 1.776-0.772 1.776-1.776 0-1.015-0.772-1.776-1.776-1.776s-1.776 0.761-1.776 1.776c0 1.004 0.772 1.776 1.776 1.776zM12.96 19.654h5.835c0.75 0 1.268-0.518 1.268-1.279 0-0.75-0.518-1.268-1.268-1.268h-5.835c-0.761 0-1.279 0.518-1.279 1.268 0 0.761 0.518 1.279 1.279 1.279zM23.824 20.096c1.015 0 1.776-0.772 1.776-1.776 0-1.015-0.761-1.776-1.776-1.776-1.004 0-1.765 0.761-1.765 1.776 0 1.004 0.761 1.776 1.765 1.776zM15.871 23.073c3.706 0 8.636-0.187 10.721-0.43 1.5-0.165 2.327-0.993 2.327-2.404v-1.941c0-1.864-0.375-2.901-1.39-4.224l-0.938-1.202c-0.397-1.985-1.136-4.070-1.511-4.886-0.596-1.246-1.732-1.985-3.198-2.184-0.739-0.099-3.154-0.154-6.011-0.154-2.846 0-5.261 0.066-6 0.154-1.467 0.176-2.614 0.938-3.199 2.184-0.386 0.816-1.114 2.901-1.522 4.886l-0.926 1.202c-1.026 1.324-1.401 2.36-1.401 4.224v1.941c0 1.412 0.838 2.239 2.327 2.404 2.096 0.243 7.015 0.43 10.721 0.43zM15.871 21.629c-3.75 0-8.559-0.176-10.335-0.397-0.938-0.11-1.268-0.596-1.268-1.434v-1.5c0-1.511 0.243-2.217 1.103-3.342l1.125-1.478c0.298-1.599 1.015-3.827 1.489-4.842 0.353-0.761 1.048-1.235 2.052-1.357 0.706-0.088 2.945-0.188 5.835-0.188 2.901 0 5.173 0.099 5.813 0.188 1.037 0.132 1.721 0.607 2.085 1.357 0.474 1.015 1.191 3.243 1.478 4.842l1.136 1.478c0.849 1.125 1.092 1.831 1.092 3.342v1.5c0 0.838-0.331 1.323-1.268 1.434-1.765 0.221-6.585 0.397-10.335 0.397zM4.853 26.107h1.29c0.827 0 1.467-0.64 1.467-1.456v-2.625l-4.224-0.607v3.232c0 0.816 0.64 1.456 1.467 1.456zM25.599 26.107h1.301c0.827 0 1.456-0.64 1.456-1.456v-3.232l-4.213 0.607v2.625c0 0.816 0.629 1.456 1.456 1.456z"></path>
</svg>
