<!-- Generated by IcoMoon.io -->
<svg version="1.1" xmlns="http://www.w3.org/2000/svg" width="32" height="32" viewBox="0 0 32 32">
<title>carbon-dioxide-cloud</title>
<path d="M8.382 26.482h14.36c3.717 0 6.596-2.813 6.596-6.408 0-3.629-2.934-6.364-6.949-6.364-1.467-2.912-4.158-4.688-7.423-4.688-4.279 0-7.908 3.32-8.294 7.721-2.206 0.629-3.695 2.482-3.695 4.82 0 2.724 1.974 4.919 5.404 4.919zM8.36 24.706c-2.261 0-3.607-1.224-3.607-3.088 0-1.588 1.015-2.724 2.801-3.199 0.618-0.154 0.849-0.441 0.893-1.081 0.265-3.739 3.066-6.54 6.518-6.54 2.647 0 4.71 1.478 5.945 4.015 0.254 0.54 0.573 0.728 1.246 0.728 3.452 0 5.404 2.085 5.404 4.577 0 2.57-2.063 4.588-4.699 4.588h-14.504zM4.368 15.684c0.849 0 1.533-0.684 1.533-1.544 0-0.849-0.684-1.533-1.533-1.533-0.86 0-1.544 0.684-1.544 1.533 0 0.86 0.684 1.544 1.544 1.544zM20.537 8.548c0.794 0 1.445-0.651 1.445-1.445s-0.651-1.456-1.445-1.456c-0.794 0-1.445 0.662-1.445 1.456s0.651 1.445 1.445 1.445zM25.18 12.364c1.191 0 2.151-0.96 2.151-2.173 0-1.202-0.96-2.162-2.151-2.162-1.213 0-2.184 0.96-2.184 2.162 0 1.213 0.971 2.173 2.184 2.173zM12.529 22.677c1.434 0 2.316-1.037 2.349-2.162 0.011-0.386-0.221-0.651-0.563-0.651-0.331 0-0.507 0.187-0.596 0.562-0.121 0.563-0.441 1.158-1.191 1.158-1.103 0-1.445-1.169-1.445-2.437 0-1.191 0.364-2.393 1.434-2.393 0.75 0 1.048 0.585 1.169 1.147 0.088 0.375 0.265 0.563 0.596 0.563 0.342 0 0.574-0.254 0.562-0.651-0.033-1.125-0.915-2.151-2.349-2.151-1.809 0-2.625 1.566-2.625 3.485 0 1.886 0.75 3.529 2.658 3.529zM17.868 22.677c1.599 0 2.603-1.368 2.603-3.507 0-2.151-1.004-3.507-2.614-3.507s-2.625 1.357-2.625 3.507c0 2.14 1.015 3.507 2.636 3.507zM17.868 21.585c-0.882 0-1.423-0.893-1.423-2.415s0.54-2.415 1.412-2.415c0.871 0 1.412 0.893 1.412 2.415s-0.541 2.415-1.401 2.415zM21.21 23.118h1.787c0.221 0 0.397-0.198 0.397-0.419 0-0.21-0.188-0.397-0.397-0.397h-0.849l0.353-0.375c0.441-0.43 0.75-0.838 0.75-1.279 0-0.618-0.507-1.070-1.213-1.070-0.75 0-1.213 0.562-1.213 1.037 0 0.276 0.198 0.441 0.419 0.441 0.265 0 0.386-0.187 0.452-0.342 0.066-0.209 0.176-0.32 0.353-0.32 0.165 0 0.287 0.121 0.287 0.276 0 0.254-0.243 0.541-0.485 0.783l-0.849 0.871c-0.099 0.099-0.165 0.265-0.165 0.397 0 0.221 0.165 0.397 0.375 0.397z"></path>
</svg>
