<!-- Generated by IcoMoon.io -->
<svg version="1.1" xmlns="http://www.w3.org/2000/svg" width="32" height="32" viewBox="0 0 32 32">
<title>carbon-dioxide-cloud-fill</title>
<path d="M8.382 26.482h14.36c3.717 0 6.596-2.813 6.596-6.408 0-3.629-2.934-6.364-6.949-6.364-1.467-2.912-4.158-4.688-7.423-4.688-4.279 0-7.908 3.32-8.294 7.721-2.206 0.629-3.695 2.482-3.695 4.82 0 2.724 1.974 4.919 5.404 4.919zM12.287 22.787c-1.963 0-2.735-1.699-2.735-3.64 0-1.974 0.838-3.596 2.702-3.596 1.478 0 2.393 1.059 2.427 2.217 0.011 0.408-0.232 0.673-0.585 0.673-0.342 0-0.518-0.188-0.618-0.585-0.121-0.574-0.43-1.169-1.202-1.169-1.092 0-1.467 1.235-1.467 2.46 0 1.301 0.353 2.504 1.478 2.504 0.772 0 1.103-0.607 1.224-1.18 0.099-0.397 0.276-0.585 0.618-0.585 0.353 0 0.596 0.276 0.585 0.673-0.033 1.158-0.949 2.228-2.426 2.228zM17.901 22.787c-1.665 0-2.713-1.412-2.713-3.618 0-2.217 1.048-3.618 2.702-3.618 1.665 0 2.702 1.401 2.702 3.618 0 2.206-1.037 3.618-2.691 3.618zM21.463 23.217c-0.221 0-0.386-0.176-0.386-0.408 0-0.132 0.066-0.309 0.165-0.408l0.882-0.893c0.243-0.254 0.496-0.552 0.496-0.805 0-0.165-0.121-0.287-0.298-0.287s-0.287 0.11-0.353 0.331c-0.077 0.154-0.199 0.353-0.474 0.353-0.232 0-0.43-0.176-0.43-0.463 0-0.485 0.474-1.070 1.246-1.070 0.728 0 1.257 0.474 1.257 1.114 0 0.452-0.32 0.871-0.772 1.312l-0.364 0.386h0.871c0.221 0 0.408 0.199 0.408 0.408 0 0.232-0.176 0.43-0.408 0.43h-1.842zM17.901 21.651c0.893 0 1.445-0.915 1.445-2.482s-0.551-2.482-1.456-2.482c-0.893 0-1.445 0.915-1.445 2.482s0.551 2.482 1.456 2.482zM4.368 15.684c0.849 0 1.533-0.684 1.533-1.544 0-0.849-0.684-1.533-1.533-1.533-0.86 0-1.544 0.684-1.544 1.533 0 0.86 0.684 1.544 1.544 1.544zM20.537 8.548c0.794 0 1.445-0.651 1.445-1.445s-0.651-1.456-1.445-1.456c-0.794 0-1.445 0.662-1.445 1.456s0.651 1.445 1.445 1.445zM25.18 12.364c1.191 0 2.151-0.96 2.151-2.173 0-1.202-0.96-2.162-2.151-2.162-1.213 0-2.184 0.96-2.184 2.162 0 1.213 0.971 2.173 2.184 2.173z"></path>
</svg>
