<!-- Generated by IcoMoon.io -->
<svg version="1.1" xmlns="http://www.w3.org/2000/svg" width="32" height="32" viewBox="0 0 32 32">
<title>carrot</title>
<path d="M21.809 9.882c1.743-1.114 3.529-6.132 1.566-6.618-2.018-0.463-2.647 4.842-1.566 6.618zM22.074 10.312c2.559 0.011 7.787-4.169 5.978-5.989-1.809-1.809-5.989 3.419-5.978 5.989zM22.504 10.565c1.765 1.103 7.081 0.452 6.618-1.533-0.474-1.996-5.504-0.199-6.618 1.533zM22.239 9.12c-2.813-2.857-6.529-2.14-8.912 1.643l-9.21 14.636c-0.618 0.993-0.364 1.875 0.287 2.526 0.563 0.574 1.423 0.938 2.493 0.265l14.669-9.21c3.761-2.36 4.434-6.044 1.621-8.901l-0.949-0.96zM21.070 10.301l0.938 0.96c2.085 2.118 1.71 4.39-1.301 6.287l-14.647 9.198c-0.364 0.232-0.739-0.132-0.507-0.485l9.21-14.647c1.908-3.022 4.213-3.419 6.309-1.312zM17.618 13.742c0.276-0.287 0.276-0.717-0.022-1.015l-2.57-2.537-1.004 1.048 2.57 2.515c0.298 0.298 0.739 0.287 1.026-0.011zM15.114 15.297c0.287-0.287 0.287-0.728-0.011-1.026l-2.040-1.996-1.004 1.037 2.029 1.985c0.298 0.298 0.728 0.287 1.026 0zM12.644 19.918c-0.276 0.287-0.287 0.728 0.011 1.026l1.798 1.743 1.257-0.783-2.040-1.996c-0.287-0.287-0.728-0.276-1.026 0.011zM10.68 21.97c-0.287 0.287-0.287 0.739 0.011 1.026l1.246 1.246 1.279-0.783-1.511-1.489c-0.298-0.298-0.739-0.287-1.026 0z"></path>
</svg>
