<!-- Generated by IcoMoon.io -->
<svg version="1.1" xmlns="http://www.w3.org/2000/svg" width="32" height="32" viewBox="0 0 32 32">
<title>cart-fill</title>
<path d="M2.824 7.088c0 0.452 0.375 0.838 0.816 0.838h3.728l1.765 12.11c0.232 1.566 1.059 2.548 2.658 2.548h12.871c0.43 0 0.805-0.353 0.805-0.827s-0.375-0.827-0.805-0.827h-12.684c-0.629 0-1.015-0.441-1.114-1.114l-0.176-1.158h13.996c1.61 0 2.437-0.993 2.669-2.57l0.882-5.835c0.022-0.143 0.044-0.32 0.044-0.419 0-0.529-0.397-0.893-1.004-0.893h-18l-0.221-1.401c-0.11-0.849-0.419-1.279-1.544-1.279h-3.871c-0.441 0-0.816 0.386-0.816 0.827zM10.864 26.158c0 1.004 0.794 1.787 1.798 1.787 0.993 0 1.787-0.783 1.787-1.787 0-0.993-0.794-1.787-1.787-1.787-1.004 0-1.798 0.794-1.798 1.787zM21.176 26.158c0 1.004 0.805 1.787 1.798 1.787 1.004 0 1.798-0.783 1.798-1.787 0-0.993-0.794-1.787-1.798-1.787-0.993 0-1.798 0.794-1.798 1.787z"></path>
</svg>
