<!-- Generated by IcoMoon.io -->
<svg version="1.1" xmlns="http://www.w3.org/2000/svg" width="32" height="32" viewBox="0 0 32 32">
<title>cart-circle-fill</title>
<path d="M15.956 27.217c6.154 0 11.25-5.096 11.25-11.25 0-6.143-5.107-11.25-11.261-11.25-6.143 0-11.239 5.107-11.239 11.25 0 6.154 5.107 11.25 11.25 11.25zM14.048 19.816c-1.026 0-1.621-0.474-1.754-1.379l-0.893-6.287h-1.765c-0.353 0-0.596-0.243-0.596-0.596 0-0.364 0.243-0.607 0.596-0.607h1.93c0.518 0 0.926 0.331 0.993 0.816l0.099 0.761h9.199c0.331 0 0.529 0.198 0.529 0.474 0 0.044-0.011 0.143-0.033 0.21l-0.452 3.088c-0.121 0.827-0.551 1.335-1.401 1.335h-7.092l0.044 0.43c0.044 0.353 0.276 0.563 0.618 0.563h6.165c0.353 0 0.585 0.232 0.585 0.585 0 0.375-0.232 0.607-0.585 0.607h-6.187zM14.224 22.607c-0.563 0-1.015-0.441-1.015-1.015 0-0.585 0.452-1.026 1.015-1.026 0.574 0 1.026 0.441 1.026 1.026 0 0.574-0.452 1.015-1.026 1.015zM19.309 22.607c-0.562 0-1.037-0.441-1.037-1.015 0-0.585 0.474-1.026 1.037-1.026 0.574 0 1.026 0.441 1.026 1.026 0 0.574-0.452 1.015-1.026 1.015z"></path>
</svg>
