<!-- Generated by IcoMoon.io -->
<svg version="1.1" xmlns="http://www.w3.org/2000/svg" width="32" height="32" viewBox="0 0 32 32">
<title>case-fill</title>
<path d="M6.232 27.022h18.717c2.283 0 3.408-1.103 3.408-3.364v-10.732c0-2.261-1.125-3.364-3.408-3.364h-18.717c-2.272 0-3.408 1.103-3.408 3.364v10.732c0 2.261 1.136 3.364 3.408 3.364zM9.993 10.522h1.71v-1.952c0-0.838 0.496-1.313 1.357-1.313h5.063c0.86 0 1.346 0.474 1.346 1.313v1.93h1.71v-1.809c0-2.074-1.092-3.044-3.088-3.044h-5.007c-1.886 0-3.088 0.971-3.088 3.044v1.831z"></path>
</svg>
