<!-- Generated by IcoMoon.io -->
<svg version="1.1" xmlns="http://www.w3.org/2000/svg" width="32" height="32" viewBox="0 0 32 32">
<title>cedisign-square-fill</title>
<path d="M9.11 25.974h13.379c2.316 0 3.463-1.147 3.463-3.419v-13.467c0-2.272-1.147-3.419-3.463-3.419h-13.379c-2.305 0-3.463 1.136-3.463 3.419v13.467c0 2.283 1.158 3.419 3.463 3.419zM11.228 15.827c0-3.066 1.544-5.107 3.96-5.415v-0.904c0-0.342 0.243-0.563 0.574-0.563 0.32 0 0.551 0.221 0.551 0.563v0.893c1.621 0.154 2.912 1.125 3.408 2.482 0.066 0.187 0.11 0.386 0.11 0.574 0 0.419-0.276 0.695-0.695 0.695-0.397 0-0.607-0.154-0.739-0.596-0.254-0.893-1.059-1.588-2.085-1.765v8.107c1.092-0.143 1.908-0.816 2.162-1.743 0.121-0.397 0.353-0.607 0.739-0.607 0.43 0 0.695 0.287 0.695 0.695 0 0.21-0.044 0.397-0.11 0.585-0.485 1.357-1.743 2.316-3.485 2.449v0.904c0 0.342-0.232 0.574-0.551 0.574s-0.574-0.232-0.574-0.574v-0.915c-2.426-0.298-3.96-2.327-3.96-5.438zM12.761 15.827c0 2.206 0.915 3.706 2.426 4.037v-8.040c-1.5 0.32-2.426 1.831-2.426 4.004z"></path>
</svg>
