<!-- Generated by IcoMoon.io -->
<svg version="1.1" xmlns="http://www.w3.org/2000/svg" width="32" height="32" viewBox="0 0 32 32">
<title>cedisign-square</title>
<path d="M9.11 25.974h13.379c2.316 0 3.463-1.147 3.463-3.419v-13.467c0-2.272-1.147-3.419-3.463-3.419h-13.379c-2.305 0-3.463 1.136-3.463 3.419v13.467c0 2.283 1.158 3.419 3.463 3.419zM9.132 24.198c-1.103 0-1.71-0.585-1.71-1.732v-13.29c0-1.147 0.607-1.732 1.71-1.732h13.335c1.092 0 1.71 0.585 1.71 1.732v13.29c0 1.147-0.618 1.732-1.71 1.732h-13.335zM11.371 15.827c0 3.011 1.489 4.974 3.838 5.272v0.882c0 0.331 0.243 0.551 0.551 0.551s0.54-0.221 0.54-0.551v-0.871c1.688-0.132 2.901-1.059 3.375-2.382 0.066-0.176 0.11-0.364 0.11-0.562 0-0.397-0.265-0.673-0.673-0.673-0.375 0-0.596 0.21-0.717 0.585-0.243 0.904-1.037 1.555-2.096 1.699v-7.864c0.993 0.165 1.776 0.849 2.018 1.721 0.132 0.419 0.331 0.574 0.717 0.574 0.408 0 0.673-0.265 0.673-0.673 0-0.187-0.044-0.375-0.11-0.551-0.474-1.324-1.732-2.261-3.298-2.415v-0.86c0-0.331-0.232-0.54-0.54-0.54-0.32 0-0.551 0.21-0.551 0.54v0.871c-2.338 0.298-3.838 2.283-3.838 5.25zM12.849 15.827c0-2.107 0.904-3.574 2.36-3.882v7.798c-1.467-0.32-2.36-1.776-2.36-3.915z"></path>
</svg>
