<!-- Generated by IcoMoon.io -->
<svg version="1.1" xmlns="http://www.w3.org/2000/svg" width="32" height="32" viewBox="0 0 32 32">
<title>cedisign-circle-fill</title>
<path d="M15.956 27.206c6.154 0 11.25-5.107 11.25-11.25 0-6.154-5.107-11.25-11.261-11.25-6.143 0-11.239 5.096-11.239 11.25 0 6.143 5.107 11.25 11.25 11.25zM11.379 15.978c0-3.066 1.544-5.107 3.96-5.415v-0.904c0-0.342 0.243-0.563 0.573-0.563 0.32 0 0.552 0.221 0.552 0.563v0.893c1.621 0.154 2.912 1.125 3.408 2.482 0.066 0.187 0.11 0.386 0.11 0.573 0 0.419-0.276 0.695-0.695 0.695-0.408 0-0.607-0.154-0.739-0.596-0.265-0.893-1.059-1.588-2.085-1.765v8.107c1.092-0.143 1.908-0.816 2.162-1.743 0.121-0.397 0.353-0.607 0.739-0.607 0.43 0 0.695 0.287 0.695 0.695 0 0.209-0.044 0.397-0.11 0.585-0.485 1.357-1.743 2.316-3.485 2.448v0.904c0 0.342-0.232 0.573-0.552 0.573s-0.573-0.232-0.573-0.573v-0.915c-2.426-0.298-3.96-2.327-3.96-5.437zM12.912 15.978c0 2.206 0.915 3.706 2.426 4.037v-8.040c-1.511 0.32-2.426 1.831-2.426 4.004z"></path>
</svg>
