<!-- Generated by IcoMoon.io -->
<svg version="1.1" xmlns="http://www.w3.org/2000/svg" width="32" height="32" viewBox="0 0 32 32">
<title>cedisign</title>
<path d="M16.897 26.187c3.629 0 6.243-1.798 7.213-4.5 0.121-0.331 0.176-0.662 0.187-1.004 0.011-0.574-0.375-0.971-0.971-0.971-0.574 0-0.86 0.32-1.048 0.893-0.618 2.184-2.702 3.651-5.371 3.651-3.772 0-6.221-3.143-6.221-8.162 0-4.941 2.46-8.040 6.209-8.040 2.526 0 4.621 1.555 5.239 3.728 0.199 0.64 0.474 0.893 1.048 0.893 0.596 0 0.982-0.397 0.971-0.982-0.011-0.331-0.066-0.64-0.176-0.949-1.004-2.79-3.772-4.621-7.081-4.621-5.085 0-8.426 3.871-8.426 9.971 0 6.176 3.32 10.092 8.426 10.092zM16.732 28.504c0.397 0 0.717-0.32 0.717-0.717v-23.228c0-0.397-0.32-0.717-0.717-0.717s-0.717 0.32-0.717 0.717v23.228c0 0.397 0.32 0.717 0.717 0.717z"></path>
</svg>
