<!-- Generated by IcoMoon.io -->
<svg version="1.1" xmlns="http://www.w3.org/2000/svg" width="32" height="32" viewBox="0 0 32 32">
<title>cedisign-circle</title>
<path d="M15.956 27.206c6.154 0 11.25-5.107 11.25-11.25 0-6.154-5.107-11.25-11.261-11.25-6.143 0-11.239 5.096-11.239 11.25 0 6.143 5.107 11.25 11.25 11.25zM15.956 25.331c-5.206 0-9.364-4.169-9.364-9.375s4.147-9.375 9.353-9.375c5.206 0 9.386 4.169 9.386 9.375s-4.169 9.375-9.375 9.375zM11.511 15.978c0 3.011 1.489 4.974 3.838 5.272v0.882c0 0.331 0.243 0.552 0.551 0.552s0.541-0.221 0.541-0.552v-0.871c1.687-0.132 2.901-1.059 3.375-2.382 0.066-0.176 0.11-0.364 0.11-0.563 0-0.397-0.265-0.673-0.673-0.673-0.375 0-0.596 0.21-0.717 0.585-0.243 0.904-1.037 1.555-2.096 1.699v-7.864c0.993 0.165 1.765 0.849 2.018 1.721 0.132 0.419 0.32 0.574 0.717 0.574 0.408 0 0.673-0.265 0.673-0.673 0-0.188-0.044-0.375-0.11-0.552-0.474-1.323-1.732-2.261-3.298-2.415v-0.86c0-0.331-0.232-0.54-0.541-0.54-0.32 0-0.551 0.21-0.551 0.54v0.871c-2.338 0.298-3.838 2.283-3.838 5.25zM12.989 15.978c0-2.107 0.893-3.574 2.36-3.882v7.798c-1.467-0.32-2.36-1.776-2.36-3.915z"></path>
</svg>
