<!-- Generated by IcoMoon.io -->
<svg version="1.1" xmlns="http://www.w3.org/2000/svg" width="32" height="32" viewBox="0 0 32 32">
<title>cellularbars</title>
<path d="M2.099 25.735h2.658c0.695 0 1.158-0.485 1.158-1.202v-4.952c0-0.717-0.463-1.191-1.158-1.191h-2.658c-0.695 0-1.158 0.474-1.158 1.191v4.952c0 0.717 0.463 1.202 1.158 1.202zM10.36 25.735h2.658c0.695 0 1.158-0.485 1.158-1.202v-8.393c0-0.717-0.463-1.202-1.158-1.202h-2.658c-0.695 0-1.158 0.485-1.158 1.202v8.393c0 0.717 0.463 1.202 1.158 1.202zM18.621 25.735h2.658c0.684 0 1.158-0.485 1.158-1.202v-12.386c0-0.717-0.474-1.202-1.158-1.202h-2.658c-0.695 0-1.158 0.485-1.158 1.202v12.386c0 0.717 0.463 1.202 1.158 1.202zM26.871 25.735h2.68c0.684 0 1.147-0.485 1.147-1.202v-16.743c0-0.717-0.463-1.202-1.147-1.202h-2.68c-0.684 0-1.158 0.485-1.158 1.202v16.743c0 0.717 0.474 1.202 1.158 1.202z"></path>
</svg>
