<!-- Generated by IcoMoon.io -->
<svg version="1.1" xmlns="http://www.w3.org/2000/svg" width="32" height="32" viewBox="0 0 32 32">
<title>centsign-square</title>
<path d="M9.11 25.974h13.379c2.316 0 3.463-1.147 3.463-3.419v-13.467c0-2.272-1.147-3.419-3.463-3.419h-13.379c-2.305 0-3.463 1.136-3.463 3.419v13.467c0 2.283 1.158 3.419 3.463 3.419zM9.132 24.198c-1.103 0-1.71-0.585-1.71-1.732v-13.29c0-1.147 0.607-1.732 1.71-1.732h13.335c1.092 0 1.71 0.585 1.71 1.732v13.29c0 1.147-0.618 1.732-1.71 1.732h-13.335zM12.132 15.805c0 2.283 1.224 3.783 3.121 4.037v0.827c0 0.32 0.232 0.541 0.54 0.541 0.32 0 0.552-0.221 0.552-0.541v-0.816c1.401-0.165 2.393-0.96 2.713-1.941 0.033-0.121 0.066-0.254 0.066-0.386 0-0.386-0.276-0.651-0.662-0.651-0.298 0-0.518 0.176-0.64 0.463-0.243 0.629-0.739 1.070-1.478 1.213v-5.493c0.728 0.143 1.224 0.596 1.467 1.202 0.132 0.32 0.353 0.485 0.662 0.485 0.386 0 0.64-0.265 0.64-0.662 0-0.132-0.033-0.254-0.066-0.364-0.32-0.982-1.312-1.787-2.702-1.952v-0.816c0-0.32-0.232-0.551-0.552-0.551-0.309 0-0.54 0.232-0.54 0.551v0.827c-1.897 0.254-3.121 1.765-3.121 4.026zM13.533 15.805c0-1.489 0.662-2.46 1.721-2.724v5.449c-1.059-0.254-1.721-1.213-1.721-2.724z"></path>
</svg>
