<!-- Generated by IcoMoon.io -->
<svg version="1.1" xmlns="http://www.w3.org/2000/svg" width="32" height="32" viewBox="0 0 32 32">
<title>centsign-square-fill</title>
<path d="M9.11 25.974h13.379c2.316 0 3.463-1.147 3.463-3.419v-13.467c0-2.272-1.147-3.419-3.463-3.419h-13.379c-2.305 0-3.463 1.136-3.463 3.419v13.467c0 2.283 1.158 3.419 3.463 3.419zM12.011 15.805c0-2.338 1.257-3.893 3.221-4.158v-0.849c0-0.331 0.243-0.574 0.562-0.574 0.331 0 0.563 0.243 0.563 0.574v0.838c1.434 0.176 2.46 1.004 2.791 2.018 0.033 0.11 0.066 0.232 0.066 0.375 0 0.408-0.265 0.684-0.662 0.684-0.32 0-0.551-0.165-0.684-0.496-0.254-0.629-0.761-1.092-1.511-1.246v5.669c0.761-0.154 1.268-0.607 1.522-1.257 0.121-0.287 0.353-0.474 0.662-0.474 0.397 0 0.684 0.276 0.684 0.673 0 0.143-0.033 0.276-0.066 0.397-0.331 1.015-1.357 1.831-2.802 2.007v0.838c0 0.331-0.232 0.563-0.563 0.563-0.32 0-0.562-0.232-0.562-0.563v-0.849c-1.963-0.265-3.221-1.809-3.221-4.169zM13.456 15.805c0 1.555 0.684 2.548 1.776 2.801v-5.603c-1.092 0.265-1.776 1.268-1.776 2.802z"></path>
</svg>
