<!-- Generated by IcoMoon.io -->
<svg version="1.1" xmlns="http://www.w3.org/2000/svg" width="32" height="32" viewBox="0 0 32 32">
<title>centsign-circle</title>
<path d="M15.956 27.206c6.154 0 11.25-5.107 11.25-11.25 0-6.154-5.107-11.25-11.261-11.25-6.143 0-11.239 5.096-11.239 11.25 0 6.143 5.107 11.25 11.25 11.25zM15.956 25.331c-5.206 0-9.364-4.169-9.364-9.375s4.147-9.375 9.353-9.375c5.206 0 9.386 4.169 9.386 9.375s-4.169 9.375-9.375 9.375zM12.272 15.956c0 2.283 1.224 3.783 3.121 4.037v0.827c0 0.32 0.232 0.54 0.54 0.54 0.32 0 0.551-0.221 0.551-0.54v-0.816c1.401-0.165 2.393-0.96 2.713-1.941 0.033-0.121 0.066-0.254 0.066-0.386 0-0.386-0.276-0.651-0.662-0.651-0.309 0-0.518 0.176-0.64 0.463-0.254 0.629-0.75 1.070-1.478 1.213v-5.493c0.717 0.143 1.213 0.596 1.467 1.202 0.132 0.32 0.353 0.485 0.662 0.485 0.386 0 0.64-0.265 0.64-0.662 0-0.132-0.033-0.254-0.066-0.364-0.32-0.982-1.323-1.787-2.702-1.952v-0.816c0-0.32-0.232-0.552-0.551-0.552-0.309 0-0.54 0.232-0.54 0.552v0.827c-1.897 0.254-3.121 1.765-3.121 4.026zM13.673 15.956c0-1.489 0.662-2.46 1.721-2.724v5.449c-1.059-0.254-1.721-1.213-1.721-2.724z"></path>
</svg>
