<!-- Generated by IcoMoon.io -->
<svg version="1.1" xmlns="http://www.w3.org/2000/svg" width="32" height="32" viewBox="0 0 32 32">
<title>centsign</title>
<path d="M16.36 23.515c3.077 0 5.305-1.577 5.989-3.629 0.055-0.187 0.11-0.397 0.11-0.629 0-0.562-0.397-0.938-0.96-0.938-0.452 0-0.739 0.287-0.927 0.717-0.651 1.577-2.018 2.68-4.202 2.68-2.923 0-4.886-2.063-4.886-5.824 0-3.684 1.941-5.835 4.864-5.835 2.184 0 3.551 1.114 4.191 2.669 0.187 0.474 0.518 0.739 0.982 0.739 0.551 0 0.915-0.386 0.915-0.938 0-0.232-0.055-0.441-0.11-0.629-0.695-2.040-2.912-3.64-5.989-3.64-4.169 0-6.927 2.978-6.927 7.632 0 4.721 2.757 7.621 6.949 7.621zM16.261 26.14c0.408 0 0.728-0.287 0.728-0.717v-19.059c0-0.43-0.32-0.717-0.728-0.717s-0.717 0.287-0.717 0.717v19.059c0 0.43 0.309 0.717 0.717 0.717z"></path>
</svg>
