<!-- Generated by IcoMoon.io -->
<svg version="1.1" xmlns="http://www.w3.org/2000/svg" width="32" height="32" viewBox="0 0 32 32">
<title>centsign-circle-fill</title>
<path d="M15.956 27.206c6.154 0 11.25-5.107 11.25-11.25 0-6.154-5.107-11.25-11.261-11.25-6.143 0-11.239 5.096-11.239 11.25 0 6.143 5.107 11.25 11.25 11.25zM12.162 15.956c0-2.338 1.257-3.893 3.221-4.158v-0.849c0-0.331 0.243-0.574 0.562-0.574 0.331 0 0.563 0.243 0.563 0.574v0.838c1.423 0.176 2.459 1.004 2.79 2.018 0.033 0.11 0.066 0.232 0.066 0.375 0 0.408-0.265 0.684-0.662 0.684-0.32 0-0.551-0.165-0.684-0.496-0.265-0.629-0.772-1.092-1.511-1.246v5.669c0.75-0.154 1.257-0.607 1.522-1.257 0.121-0.287 0.342-0.474 0.662-0.474 0.397 0 0.684 0.276 0.684 0.673 0 0.143-0.033 0.276-0.066 0.397-0.331 1.015-1.357 1.831-2.801 2.007v0.838c0 0.331-0.232 0.562-0.563 0.562-0.32 0-0.562-0.232-0.562-0.562v-0.849c-1.963-0.265-3.221-1.809-3.221-4.169zM13.607 15.956c0 1.555 0.684 2.548 1.776 2.802v-5.603c-1.092 0.265-1.776 1.268-1.776 2.801z"></path>
</svg>
