<!-- Generated by IcoMoon.io -->
<svg version="1.1" xmlns="http://www.w3.org/2000/svg" width="32" height="32" viewBox="0 0 32 32">
<title>chair-lounge</title>
<path d="M7.96 13.073h1.853v-3.728c0-0.551 0.364-0.904 0.893-0.904h9.927c0.54 0 0.893 0.353 0.893 0.904v3.728h1.853v-3.739c0-1.654-1.070-2.746-2.647-2.746h-10.114c-1.588 0-2.658 1.092-2.658 2.746v3.739zM4.706 21.059c0 1.588 1.048 2.636 2.614 2.636h16.709c1.555 0 2.614-1.048 2.614-2.636v-6.706c0-1.577-1.059-2.636-2.614-2.636h-1.29c-1.566 0-2.614 1.059-2.614 2.636v2.879h-8.901v-2.879c0-1.577-1.059-2.636-2.614-2.636h-1.29c-1.566 0-2.614 1.059-2.614 2.636v6.706zM6.581 21.037v-6.662c0-0.485 0.331-0.805 0.827-0.805h1.114c0.496 0 0.827 0.32 0.827 0.805v4.71h12.651v-4.71c0-0.485 0.331-0.805 0.827-0.805h1.114c0.496 0 0.827 0.32 0.827 0.805v6.662c0 0.485-0.331 0.805-0.827 0.805h-16.533c-0.496 0-0.827-0.32-0.827-0.805zM8.721 25.945h0.684c0.596 0 0.982-0.375 0.982-0.971v-2.338h-2.647v2.338c0 0.596 0.386 0.971 0.982 0.971zM21.945 25.945h0.673c0.596 0 0.982-0.375 0.982-0.971v-2.338h-2.636v2.338c0 0.596 0.386 0.971 0.982 0.971z"></path>
</svg>
