<!-- Generated by IcoMoon.io -->
<svg version="1.1" xmlns="http://www.w3.org/2000/svg" width="32" height="32" viewBox="0 0 32 32">
<title>chair</title>
<path d="M11.272 11.949h10.346c1.301 0 1.919-0.596 1.919-1.864v-4.456c0-1.268-0.618-1.864-1.919-1.864h-10.346c-1.301 0-1.919 0.596-1.919 1.864v4.456c0 1.268 0.618 1.864 1.919 1.864zM11.89 10.096c-0.441 0-0.684-0.221-0.684-0.651v-3.188c0-0.408 0.243-0.64 0.684-0.64h9.11c0.441 0 0.684 0.232 0.684 0.64v3.188c0 0.43-0.243 0.651-0.684 0.651h-9.11zM11.614 15.665h2.107v-4.687h-2.107v4.687zM19.169 15.665h2.107v-4.687h-2.107v4.687zM10.29 20.165h12.309c1.213 0 1.82-0.574 1.82-1.754v-1.677c0-1.18-0.607-1.754-1.82-1.754h-12.309c-1.213 0-1.82 0.573-1.82 1.754v1.677c0 1.18 0.607 1.754 1.82 1.754zM10.798 18.312c-0.276 0-0.474-0.176-0.474-0.43v-0.618c0-0.254 0.198-0.43 0.474-0.43h11.294c0.276 0 0.474 0.176 0.474 0.43v0.618c0 0.254-0.199 0.43-0.474 0.43h-11.294zM10.555 27.643h0.342c0.54 0 0.915-0.375 0.915-0.915v-7.136h-2.173v7.136c0 0.541 0.375 0.915 0.915 0.915zM11.239 22.735h10.412v-1.665h-10.412v1.665zM21.993 27.643h0.342c0.54 0 0.915-0.375 0.915-0.915v-7.136h-2.173v7.136c0 0.541 0.375 0.915 0.915 0.915z"></path>
</svg>
