<!-- Generated by IcoMoon.io -->
<svg version="1.1" xmlns="http://www.w3.org/2000/svg" width="32" height="32" viewBox="0 0 32 32">
<title>chair-lounge-fill</title>
<path d="M11.059 17.11h9.187v-2.526c0-1.941 1.301-3.375 3.143-3.375h0.121v-2.228c0-1.445-0.938-2.393-2.316-2.393h-11.085c-1.39 0-2.327 0.949-2.327 2.393v2.228h0.121c1.853 0 3.154 1.434 3.154 3.375v2.526zM4.706 21.29c0 1.379 0.915 2.294 2.261 2.294h17.371c1.334 0 2.261-0.915 2.261-2.294v-6.706c0-1.368-0.927-2.294-2.261-2.294h-0.552c-1.334 0-2.261 0.927-2.261 2.294v3.805h-11.757v-3.805c0-1.368-0.915-2.294-2.261-2.294h-0.54c-1.346 0-2.261 0.927-2.261 2.294v6.706zM8.599 25.945h0.695c0.596 0 0.982-0.375 0.982-0.971v-2.338h-2.647v2.338c0 0.596 0.375 0.971 0.971 0.971zM22.011 25.945h0.684c0.596 0 0.971-0.375 0.971-0.971v-2.338h-2.636v2.338c0 0.596 0.386 0.971 0.982 0.971z"></path>
</svg>
