<!-- Generated by IcoMoon.io -->
<svg version="1.1" xmlns="http://www.w3.org/2000/svg" width="32" height="32" viewBox="0 0 32 32">
<title>chair-fill</title>
<path d="M11.614 15.665h1.886v-4.687h-1.886v4.687zM19.39 15.665h1.886v-4.687h-1.886v4.687zM10.555 27.643h0.342c0.54 0 0.915-0.375 0.915-0.915v-7.136h-2.173v7.136c0 0.541 0.375 0.915 0.915 0.915zM11.239 22.735h10.412v-1.665h-10.412v1.665zM21.993 27.643h0.342c0.54 0 0.915-0.375 0.915-0.915v-7.136h-2.173v7.136c0 0.541 0.375 0.915 0.915 0.915zM11.272 11.949h10.346c1.301 0 1.919-0.596 1.919-1.864v-4.456c0-1.268-0.618-1.864-1.919-1.864h-10.346c-1.301 0-1.919 0.596-1.919 1.864v4.456c0 1.268 0.618 1.864 1.919 1.864zM10.29 20.165h12.309c1.213 0 1.82-0.574 1.82-1.754v-1.677c0-1.18-0.607-1.754-1.82-1.754h-12.309c-1.213 0-1.82 0.573-1.82 1.754v1.677c0 1.18 0.607 1.754 1.82 1.754z"></path>
</svg>
