<!-- Generated by IcoMoon.io -->
<svg version="1.1" xmlns="http://www.w3.org/2000/svg" width="32" height="32" viewBox="0 0 32 32">
<title>chandelier-fill</title>
<path d="M16.051 8.666c2.486 0 4.991-1.691 4.991-3.861 0-0.672-0.367-1.131-1.233-1.396-1.080-0.316-2.414-0.448-3.759-0.448-1.335 0-2.669 0.132-3.749 0.448-0.866 0.265-1.233 0.723-1.233 1.396 0 2.17 2.496 3.861 4.981 3.861zM15.389 14.645h1.334v-6.795h-1.334v6.795zM2.482 19.219c1.171 0 2.129-0.957 2.129-2.139 0-1.172-0.947-2.129-2.129-2.129-1.171 0-2.129 0.957-2.129 2.129s0.968 2.139 2.129 2.139zM8.411 19.219c1.447 0 2.638-1.192 2.638-2.628 0-1.447-1.192-2.638-2.638-2.638-1.436 0-2.618 1.192-2.618 2.638 0 1.436 1.182 2.628 2.618 2.628zM16.061 21.613c2.078 0 3.759-1.681 3.759-3.759 0-2.088-1.681-3.769-3.759-3.769-2.088 0-3.769 1.681-3.769 3.769 0 2.078 1.681 3.759 3.769 3.759zM23.691 19.219c1.436 0 2.618-1.192 2.618-2.628 0-1.447-1.182-2.638-2.618-2.638-1.447 0-2.638 1.192-2.638 2.638 0 1.436 1.192 2.628 2.638 2.628zM29.62 19.219c1.161 0 2.129-0.968 2.129-2.139s-0.958-2.129-2.129-2.129c-1.182 0-2.129 0.957-2.129 2.129 0 1.182 0.957 2.139 2.129 2.139zM16.061 28.917c1.426 0 2.608-1.172 2.608-2.608s-1.182-2.608-2.608-2.608c-1.436 0-2.618 1.171-2.618 2.608s1.182 2.608 2.618 2.608zM3.389 18.608h-1.334c0.051 3.362 4.706 5.185 7.263 2.506l-0.723-1.11c-1.681 2.098-5.154 0.917-5.205-1.396zM9.073 18.608h-1.334c-0.061 3.545 4.278 5.154 7.263 2.404l-1.273-0.672c-2.048 1.548-4.706 0.56-4.655-1.732zM23.029 18.608c0.051 2.292-2.608 3.28-4.655 1.732l-1.273 0.672c2.985 2.75 7.324 1.141 7.263-2.404h-1.334zM28.713 18.608c-0.051 2.312-3.525 3.494-5.205 1.396l-0.723 1.11c2.557 2.679 7.212 0.856 7.263-2.506h-1.334zM15.389 20.981v3.504h1.334v-3.504h-1.334z"></path>
</svg>
