<!-- Generated by IcoMoon.io -->
<svg version="1.1" xmlns="http://www.w3.org/2000/svg" width="32" height="32" viewBox="0 0 32 32">
<title>chandelier</title>
<path d="M16.102 8.69c2.477 0 4.975-1.685 4.975-3.848 0-0.67-0.366-1.127-1.229-1.391-1.076-0.315-2.406-0.447-3.747-0.447-1.33 0-2.66 0.132-3.736 0.447-0.863 0.264-1.229 0.721-1.229 1.391 0 2.163 2.488 3.848 4.965 3.848zM16.102 7.359c-1.878 0-3.371-1.026-3.625-2.447-0.010-0.061 0.041-0.122 0.132-0.162 1.076-0.284 2.274-0.426 3.493-0.426s2.416 0.142 3.503 0.426c0.091 0.041 0.142 0.101 0.132 0.162-0.254 1.421-1.746 2.447-3.635 2.447zM15.442 7.877v6.772h1.33v-6.772h-1.33zM2.577 19.259c1.198 0 2.173-0.985 2.173-2.183s-0.965-2.173-2.173-2.173c-1.188 0-2.173 0.975-2.173 2.173s0.985 2.183 2.173 2.183zM2.577 18.132c-0.569 0-1.046-0.477-1.046-1.056 0-0.569 0.477-1.046 1.046-1.046 0.589 0 1.046 0.467 1.046 1.046s-0.477 1.056-1.046 1.056zM8.486 19.259c1.472 0 2.681-1.208 2.681-2.67 0-1.472-1.208-2.681-2.681-2.681-1.462 0-2.66 1.208-2.66 2.681 0 1.462 1.198 2.67 2.66 2.67zM8.486 17.929c-0.731 0-1.33-0.609-1.33-1.34 0-0.741 0.599-1.35 1.33-1.35 0.741 0 1.35 0.609 1.35 1.35 0 0.731-0.609 1.34-1.35 1.34zM16.112 21.645c2.102 0 3.797-1.696 3.797-3.797 0-2.112-1.696-3.808-3.797-3.808-2.112 0-3.808 1.696-3.808 3.808 0 2.102 1.696 3.797 3.808 3.797zM16.102 20.315c-1.371 0-2.467-1.097-2.467-2.467 0-1.381 1.097-2.477 2.467-2.477s2.477 1.097 2.477 2.477c0 1.371-1.107 2.467-2.477 2.467zM23.717 19.259c1.462 0 2.66-1.208 2.66-2.67 0-1.472-1.198-2.681-2.66-2.681-1.472 0-2.68 1.208-2.68 2.681 0 1.462 1.208 2.67 2.68 2.67zM23.717 17.929c-0.741 0-1.35-0.609-1.35-1.34 0-0.741 0.609-1.35 1.35-1.35 0.731 0 1.33 0.609 1.33 1.35 0 0.731-0.599 1.34-1.33 1.34zM29.626 19.259c1.188 0 2.173-0.985 2.173-2.183s-0.985-2.173-2.173-2.173c-1.208 0-2.173 0.975-2.173 2.173s0.975 2.183 2.173 2.183zM29.626 18.132c-0.569 0-1.046-0.477-1.046-1.056s0.457-1.046 1.046-1.046c0.569 0 1.046 0.477 1.046 1.046 0 0.579-0.477 1.056-1.046 1.056zM16.112 28.925c1.452 0 2.65-1.188 2.65-2.65s-1.198-2.65-2.65-2.65c-1.462 0-2.66 1.188-2.66 2.65s1.198 2.65 2.66 2.65zM16.112 27.595c-0.731 0-1.33-0.589-1.33-1.32s0.599-1.32 1.33-1.32c0.721 0 1.32 0.589 1.32 1.32s-0.599 1.32-1.32 1.32zM3.481 18.599h-1.33c0.051 3.351 4.691 5.168 7.239 2.498l-0.721-1.107c-1.675 2.092-5.138 0.914-5.188-1.391zM9.146 18.599h-1.33c-0.061 3.533 4.264 5.138 7.239 2.396l-1.269-0.67c-2.041 1.543-4.691 0.558-4.64-1.726zM23.057 18.599c0.051 2.285-2.599 3.269-4.64 1.726l-1.269 0.67c2.975 2.741 7.3 1.137 7.239-2.396h-1.33zM28.722 18.599c-0.051 2.305-3.513 3.483-5.188 1.391l-0.721 1.107c2.549 2.67 7.189 0.853 7.239-2.498h-1.33zM15.442 20.965v3.493h1.33v-3.493h-1.33z"></path>
</svg>
