<!-- Generated by IcoMoon.io -->
<svg version="1.1" xmlns="http://www.w3.org/2000/svg" width="32" height="32" viewBox="0 0 32 32">
<title>chart-line-uptrend-xyaxis-circle</title>
<path d="M15.956 27.206c6.154 0 11.25-5.107 11.25-11.25 0-6.154-5.107-11.25-11.261-11.25-6.143 0-11.239 5.096-11.239 11.25 0 6.143 5.107 11.25 11.25 11.25zM15.956 25.331c-5.206 0-9.364-4.169-9.364-9.375s4.147-9.375 9.353-9.375c5.206 0 9.386 4.169 9.386 9.375s-4.169 9.375-9.375 9.375zM9.956 20.114c0 0.518 0.342 0.86 0.86 0.86h10.511c0.331 0 0.618-0.276 0.618-0.607s-0.287-0.607-0.618-0.607h-10.136c-0.022 0-0.011-0.011-0.011-0.022v-8.515c0-0.331-0.287-0.607-0.618-0.607s-0.607 0.276-0.607 0.607v8.89zM10.949 17.643l2.382-2.393c0.066-0.077 0.121-0.077 0.176 0l1.93 1.974c0.276 0.254 0.541 0.386 0.849 0.386 0.32 0 0.607-0.132 0.86-0.386l2.085-2.129 0.783 0.805c0.276 0.276 0.673 0.121 0.783-0.276l0.805-3.176c0.099-0.353-0.232-0.662-0.596-0.574l-3.154 0.783c-0.397 0.099-0.563 0.529-0.287 0.783l0.794 0.794-1.985 1.996c-0.055 0.077-0.099 0.077-0.154 0.011l-1.952-2.007c-0.254-0.265-0.529-0.386-0.849-0.386-0.331 0-0.596 0.121-0.849 0.386l-2.482 2.537 0.86 0.871z"></path>
</svg>
