<!-- Generated by IcoMoon.io -->
<svg version="1.1" xmlns="http://www.w3.org/2000/svg" width="32" height="32" viewBox="0 0 32 32">
<title>chart-pie-fill</title>
<path d="M15.956 27.195c2.647 0 5.206-0.949 7.246-2.68l-7.941-7.787c-0.221-0.198-0.265-0.386-0.265-0.684v-11.305c-5.724 0.496-10.29 5.382-10.29 11.206 0 6.154 5.107 11.25 11.25 11.25zM27.206 15.945c0-1.654-0.408-3.386-1.103-4.798l-9.011 5.184 7.202 7.114c1.809-1.974 2.912-4.688 2.912-7.5zM16.474 14.974l8.901-5.118c-1.919-3.011-5.393-5.007-8.901-5.151v10.268z"></path>
</svg>
