<!-- Generated by IcoMoon.io -->
<svg version="1.1" xmlns="http://www.w3.org/2000/svg" width="32" height="32" viewBox="0 0 32 32">
<title>character-textbox</title>
<path d="M6.827 25.974h19.092c2.316 0 3.463-1.147 3.463-3.419v-3.254c0-0.574-0.32-0.893-0.893-0.893s-0.882 0.32-0.882 0.893v3.165c0 1.147-0.629 1.732-1.71 1.732h-19.037c-1.103 0-1.71-0.585-1.71-1.732v-3.165c0-0.574-0.331-0.893-0.893-0.893s-0.882 0.32-0.882 0.893v3.254c0 2.283 1.158 3.419 3.452 3.419zM6.827 5.669c-2.294 0-3.452 1.136-3.452 3.419v2.702c0 0.574 0.32 0.904 0.882 0.904s0.893-0.331 0.893-0.904v-2.614c0-1.147 0.607-1.732 1.71-1.732h19.037c1.081 0 1.71 0.585 1.71 1.732v2.614c0 0.574 0.32 0.904 0.882 0.904 0.585 0 0.893-0.331 0.893-0.904v-2.702c0-2.272-1.147-3.419-3.463-3.419h-19.092zM4.257 16.974c0.794 0 1.434-0.651 1.434-1.445 0-0.783-0.64-1.423-1.434-1.423-0.783 0-1.434 0.64-1.434 1.423 0 0.794 0.651 1.445 1.434 1.445zM28.489 16.974c0.783 0 1.434-0.651 1.434-1.445 0-0.783-0.651-1.423-1.434-1.423-0.794 0-1.434 0.629-1.434 1.423s0.64 1.445 1.434 1.445zM12.761 21c0.397 0 0.673-0.187 0.838-0.706l0.805-2.349h3.949l0.805 2.349c0.165 0.507 0.452 0.706 0.849 0.706 0.485 0 0.816-0.32 0.816-0.761 0-0.176-0.033-0.331-0.121-0.574l-3.088-8.327c-0.221-0.574-0.64-0.871-1.246-0.871-0.596 0-1.004 0.298-1.213 0.871l-3.099 8.327c-0.077 0.243-0.121 0.397-0.121 0.563 0 0.463 0.331 0.772 0.827 0.772zM14.857 16.621l1.467-4.268h0.121l1.467 4.268h-3.055z"></path>
</svg>
