<!-- Generated by IcoMoon.io -->
<svg version="1.1" xmlns="http://www.w3.org/2000/svg" width="32" height="32" viewBox="0 0 32 32">
<title>chart-line-uptrend-xyaxis-circle-fill</title>
<path d="M15.956 27.217c6.154 0 11.25-5.096 11.25-11.25 0-6.143-5.107-11.25-11.261-11.25-6.143 0-11.239 5.107-11.239 11.25 0 6.154 5.107 11.25 11.25 11.25zM9.768 20.257v-9.154c0-0.342 0.287-0.64 0.629-0.64s0.64 0.298 0.64 0.64v4.544l1.434-1.445c0.265-0.265 0.529-0.408 0.871-0.408 0.331 0 0.618 0.132 0.882 0.408l2.007 2.063c0.055 0.066 0.099 0.066 0.154-0.011l2.040-2.063-0.816-0.805c-0.287-0.276-0.11-0.706 0.298-0.805l3.254-0.816c0.375-0.099 0.717 0.221 0.618 0.585l-0.827 3.276c-0.11 0.43-0.54 0.585-0.816 0.298l-0.805-0.827-2.14 2.184c-0.265 0.265-0.562 0.408-0.893 0.408-0.32 0-0.607-0.132-0.882-0.408l-1.985-2.040c-0.055-0.066-0.11-0.066-0.176 0l-2.217 2.228v2.316c0 0.077 0.022 0.11 0.088 0.11h10.368c0.342 0 0.64 0.287 0.64 0.64 0 0.342-0.298 0.629-0.64 0.629h-10.831c-0.54 0-0.893-0.353-0.893-0.904z"></path>
</svg>
