<!-- Generated by IcoMoon.io -->
<svg version="1.1" xmlns="http://www.w3.org/2000/svg" width="32" height="32" viewBox="0 0 32 32">
<title>character-sutton</title>
<path d="M15.783 27.404c4.092 0 7.324-3.232 7.324-7.324 0-4.103-3.232-7.323-7.335-7.323-4.092 0-7.301 3.221-7.301 7.323 0 4.092 3.221 7.324 7.312 7.324zM15.783 25.54c-3.066 0-5.448-2.382-5.448-5.46 0-3.066 2.382-5.459 5.437-5.459 3.077 0 5.471 2.393 5.471 5.459 0 3.077-2.382 5.46-5.46 5.46zM21.243 20.081h1.864v-12.353h-1.864v12.353zM22.169 8.941c1.18 0 2.118-0.949 2.118-2.118s-0.938-2.118-2.118-2.118c-1.169 0-2.118 0.949-2.118 2.118s0.949 2.118 2.118 2.118z"></path>
</svg>
