<!-- Generated by IcoMoon.io -->
<svg version="1.1" xmlns="http://www.w3.org/2000/svg" width="32" height="32" viewBox="0 0 32 32">
<title>character-bubble-fill</title>
<path d="M10.316 28.129c0.43 0 0.75-0.221 1.268-0.706l3.982-3.64h7.456c3.287 0 5.051-1.809 5.051-5.040v-8.449c0-3.232-1.765-5.051-5.051-5.051h-14.206c-3.287 0-5.051 1.809-5.051 5.051v8.449c0 3.243 1.765 5.040 5.051 5.040h0.518v3.21c0 0.684 0.353 1.136 0.982 1.136zM12.191 19.835c-0.518 0-0.849-0.32-0.849-0.783 0-0.176 0.022-0.342 0.121-0.596l3.187-8.581c0.221-0.596 0.651-0.893 1.268-0.893s1.059 0.298 1.279 0.893l3.188 8.581c0.099 0.254 0.121 0.419 0.121 0.596 0 0.463-0.331 0.783-0.838 0.783-0.419 0-0.706-0.187-0.893-0.728l-0.827-2.415h-4.048l-0.827 2.415c-0.187 0.54-0.474 0.728-0.882 0.728zM14.353 15.312h3.143l-1.511-4.39h-0.121l-1.511 4.39z"></path>
</svg>
