<!-- Generated by IcoMoon.io -->
<svg version="1.1" xmlns="http://www.w3.org/2000/svg" width="32" height="32" viewBox="0 0 32 32">
<title>chart-dots-scatter</title>
<path d="M4.647 26.173h21.938c0.485 0 0.893-0.386 0.893-0.882 0-0.485-0.408-0.882-0.893-0.882h-20.735c-0.232 0-0.309-0.077-0.309-0.309v-17.438c0-0.474-0.397-0.882-0.882-0.882-0.496 0-0.893 0.408-0.893 0.882v18.64c0 0.529 0.353 0.871 0.882 0.871zM10.614 20.614c0.96 0 1.754-0.816 1.754-1.754 0-0.927-0.794-1.754-1.754-1.754s-1.765 0.827-1.765 1.754c0 0.938 0.805 1.754 1.765 1.754zM14.838 13.566c0.949 0 1.754-0.816 1.754-1.754 0-0.927-0.805-1.754-1.754-1.754-0.96 0-1.765 0.827-1.765 1.754 0 0.938 0.805 1.754 1.765 1.754zM19.956 18.915c0.949 0 1.754-0.816 1.754-1.754 0-0.927-0.805-1.754-1.754-1.754-0.96 0-1.765 0.827-1.765 1.754 0 0.938 0.805 1.754 1.765 1.754zM24.18 11.879c0.949 0 1.754-0.816 1.754-1.754 0-0.926-0.805-1.754-1.754-1.754-0.96 0-1.765 0.827-1.765 1.754 0 0.938 0.805 1.754 1.765 1.754z"></path>
</svg>
