<!-- Generated by IcoMoon.io -->
<svg version="1.1" xmlns="http://www.w3.org/2000/svg" width="32" height="32" viewBox="0 0 32 32">
<title>character-bubble</title>
<path d="M10.548 27.996c0.54 0 0.915-0.287 1.588-0.882l3.805-3.386h7.081c3.287 0 5.051-1.82 5.051-5.051v-8.449c0-3.232-1.765-5.051-5.051-5.051h-14.206c-3.287 0-5.051 1.809-5.051 5.051v8.449c0 3.243 1.765 5.051 5.051 5.051h0.529v2.868c0 0.849 0.43 1.401 1.202 1.401zM11 25.978v-3.199c0-0.596-0.232-0.827-0.827-0.827h-1.357c-2.228 0-3.276-1.136-3.276-3.287v-8.437c0-2.151 1.048-3.276 3.276-3.276h14.206c2.217 0 3.276 1.125 3.276 3.276v8.437c0 2.151-1.059 3.287-3.276 3.287h-7.147c-0.618 0-0.927 0.088-1.346 0.518l-3.529 3.507zM12.301 19.647c0.397 0 0.673-0.187 0.849-0.706l0.805-2.349h3.938l0.805 2.349c0.176 0.507 0.452 0.706 0.86 0.706 0.485 0 0.805-0.309 0.805-0.761 0-0.176-0.033-0.331-0.121-0.574l-3.088-8.327c-0.21-0.574-0.64-0.871-1.235-0.871s-1.015 0.298-1.224 0.871l-3.088 8.327c-0.088 0.243-0.121 0.397-0.121 0.563 0 0.463 0.32 0.772 0.816 0.772zM14.397 15.268l1.467-4.268h0.121l1.467 4.268h-3.055z"></path>
</svg>
