<!-- Generated by IcoMoon.io -->
<svg version="1.1" xmlns="http://www.w3.org/2000/svg" width="32" height="32" viewBox="0 0 32 32">
<title>chart-line-downtrend-xyaxis</title>
<path d="M3.765 25.301c0 0.529 0.353 0.871 0.882 0.871h21.938c0.485 0 0.893-0.386 0.893-0.882 0-0.485-0.408-0.882-0.893-0.882h-20.735c-0.232 0-0.309-0.077-0.309-0.309v-17.438c0-0.474-0.397-0.882-0.882-0.882-0.496 0-0.893 0.408-0.893 0.882v18.64zM5.397 9.077l-1.346 1.335 4.93 4.996c0.507 0.507 0.971 0.728 1.489 0.728s1.004-0.232 1.489-0.728l4.059-4.158c0.099-0.099 0.21-0.154 0.298-0.154 0.099 0 0.21 0.055 0.309 0.154l4.346 4.401-1.82 1.82c-0.397 0.397-0.154 0.904 0.408 1.048l6.452 1.632c0.496 0.132 0.938-0.287 0.805-0.794l-1.632-6.463c-0.143-0.562-0.662-0.805-1.059-0.408l-1.809 1.82-4.5-4.522c-0.496-0.496-0.971-0.728-1.5-0.728-0.518 0-1.015 0.232-1.489 0.728l-4.059 4.158c-0.099 0.099-0.198 0.154-0.298 0.154s-0.198-0.055-0.298-0.154l-4.776-4.864z"></path>
</svg>
