<!-- Generated by IcoMoon.io -->
<svg version="1.1" xmlns="http://www.w3.org/2000/svg" width="32" height="32" viewBox="0 0 32 32">
<title>chart-line-flattrend-xyaxis-circle-fill</title>
<path d="M15.956 27.217c6.154 0 11.25-5.096 11.25-11.25 0-6.143-5.107-11.25-11.261-11.25-6.143 0-11.239 5.107-11.239 11.25 0 6.154 5.107 11.25 11.25 11.25zM10.717 21.162c-0.54 0-0.904-0.353-0.904-0.904v-9.154c0-0.342 0.298-0.64 0.64-0.64 0.353 0 0.629 0.298 0.629 0.64v3.441h7.357v-1.169c0-0.397 0.408-0.573 0.794-0.353l2.901 1.732c0.32 0.187 0.32 0.651-0.011 0.838l-2.879 1.743c-0.375 0.221-0.805 0.033-0.805-0.364v-1.158h-7.357v3.938c0 0.088 0.055 0.143 0.143 0.143h10.335c0.342 0 0.629 0.287 0.629 0.64 0 0.342-0.287 0.629-0.629 0.629h-10.842z"></path>
</svg>
