<!-- Generated by IcoMoon.io -->
<svg version="1.1" xmlns="http://www.w3.org/2000/svg" width="32" height="32" viewBox="0 0 32 32">
<title>character-book-closed</title>
<path d="M9.974 27.401h14.283c0.485 0 0.882-0.386 0.882-0.882 0-0.386-0.265-0.728-0.618-0.849-1.39-0.551-1.677-2.349-0.309-3.728 0.419-0.419 0.926-0.96 0.926-2.063v-12.651c0-2.294-1.136-3.463-3.419-3.463h-11.713c-2.283 0-3.419 1.158-3.419 3.463v16.765c0 2.272 1.147 3.408 3.386 3.408zM8.364 21.026v-13.765c0-1.103 0.585-1.721 1.721-1.721h11.548c1.147 0 1.732 0.618 1.732 1.721v12.375c0 0.596-0.342 0.938-0.96 0.938h-12.243c-0.717 0-1.313 0.154-1.798 0.452zM10.073 25.625c-1.114 0-1.71-0.596-1.71-1.643 0-0.993 0.706-1.632 1.809-1.632h11.316c0.143 0 0.276-0.011 0.386-0.033-0.518 1.147-0.43 2.36 0.154 3.309h-11.956zM9.665 21.522h1.445v-16.412h-1.445v16.412zM14.132 17.551c0.342 0 0.585-0.165 0.739-0.607l0.695-2.029h3.408l0.695 2.029c0.143 0.441 0.386 0.607 0.739 0.607 0.419 0 0.695-0.265 0.695-0.662 0-0.143-0.022-0.287-0.099-0.485l-2.669-7.202c-0.188-0.496-0.552-0.75-1.070-0.75s-0.871 0.254-1.059 0.75l-2.68 7.202c-0.066 0.198-0.099 0.342-0.099 0.485 0 0.397 0.276 0.662 0.706 0.662zM15.941 13.768l1.279-3.684h0.099l1.268 3.684h-2.647z"></path>
</svg>
