<!-- Generated by IcoMoon.io -->
<svg version="1.1" xmlns="http://www.w3.org/2000/svg" width="32" height="32" viewBox="0 0 32 32">
<title>chart-line-downtrend-xyaxis-circle</title>
<path d="M15.956 27.206c6.154 0 11.25-5.107 11.25-11.25 0-6.154-5.107-11.25-11.261-11.25-6.143 0-11.239 5.096-11.239 11.25 0 6.143 5.107 11.25 11.25 11.25zM15.956 25.331c-5.206 0-9.364-4.169-9.364-9.375s4.147-9.375 9.353-9.375c5.206 0 9.386 4.169 9.386 9.375s-4.169 9.375-9.375 9.375zM10.011 20.114c0 0.518 0.342 0.86 0.86 0.86h10.511c0.331 0 0.618-0.276 0.618-0.607s-0.287-0.607-0.618-0.607h-10.136c-0.022 0-0.011 0.011-0.011-0.022v-8.515c0-0.331-0.287-0.607-0.618-0.607s-0.607 0.276-0.607 0.607v8.89zM11.004 12.228l-0.86 0.871 2.482 2.537c0.254 0.265 0.518 0.386 0.849 0.386 0.32 0 0.596-0.121 0.849-0.386l1.952-2.007c0.055-0.066 0.099-0.066 0.154 0.011l1.985 2.007-0.794 0.783c-0.276 0.254-0.11 0.684 0.287 0.783l3.154 0.783c0.364 0.099 0.684-0.21 0.596-0.563l-0.805-3.176c-0.11-0.408-0.507-0.551-0.783-0.287l-0.783 0.805-2.085-2.118c-0.254-0.265-0.54-0.397-0.86-0.397-0.309 0-0.574 0.132-0.849 0.397l-1.93 1.963c-0.055 0.077-0.11 0.077-0.176 0l-2.382-2.393z"></path>
</svg>
