<!-- Generated by IcoMoon.io -->
<svg version="1.1" xmlns="http://www.w3.org/2000/svg" width="32" height="32" viewBox="0 0 32 32">
<title>chart-bar-fill</title>
<path d="M4.176 26.272h3.276c1.522 0 2.305-0.728 2.305-2.173v-9.838c0-1.445-0.783-2.184-2.305-2.184h-3.276c-1.511 0-2.294 0.739-2.294 2.184v9.838c0 1.445 0.783 2.173 2.294 2.173zM14.092 26.272h3.287c1.522 0 2.294-0.728 2.294-2.173v-13.048c0-1.445-0.772-2.184-2.294-2.184h-3.287c-1.511 0-2.294 0.739-2.294 2.184v13.048c0 1.445 0.783 2.173 2.294 2.173zM24.007 26.272h3.287c1.522 0 2.305-0.728 2.305-2.173v-16.268c0-1.445-0.783-2.184-2.305-2.184h-3.287c-1.5 0-2.283 0.739-2.283 2.184v16.268c0 1.445 0.783 2.173 2.283 2.173z"></path>
</svg>
