<!-- Generated by IcoMoon.io -->
<svg version="1.1" xmlns="http://www.w3.org/2000/svg" width="32" height="32" viewBox="0 0 32 32">
<title>chart-bar-xaxis</title>
<path d="M4.706 25.29c0 0.496 0.408 0.882 0.882 0.882h21.232c0.485 0 0.893-0.386 0.893-0.882 0-0.485-0.408-0.882-0.893-0.882h-21.232c-0.474 0-0.882 0.397-0.882 0.882zM5.588 21.893c0 0.574 0.364 0.915 0.971 0.915h2.404c0.585 0 0.96-0.342 0.96-0.915v-9.121c0-0.562-0.375-0.927-0.96-0.927h-2.404c-0.607 0-0.971 0.364-0.971 0.927v9.121zM11.213 21.893c0 0.574 0.375 0.915 0.971 0.915h2.404c0.596 0 0.971-0.342 0.971-0.915v-13.897c0-0.574-0.375-0.915-0.971-0.915h-2.404c-0.596 0-0.971 0.342-0.971 0.915v13.897zM16.849 21.893c0 0.574 0.364 0.915 0.96 0.915h2.415c0.585 0 0.96-0.342 0.96-0.915v-11.515c0-0.585-0.375-0.926-0.96-0.926h-2.415c-0.596 0-0.96 0.342-0.96 0.926v11.515zM22.474 21.893c0 0.574 0.364 0.915 0.971 0.915h2.404c0.596 0 0.971-0.342 0.971-0.915v-6.805c0-0.573-0.375-0.926-0.971-0.926h-2.404c-0.607 0-0.971 0.353-0.971 0.926v6.805z"></path>
</svg>
