<!-- Generated by IcoMoon.io -->
<svg version="1.1" xmlns="http://www.w3.org/2000/svg" width="32" height="32" viewBox="0 0 32 32">
<title>chart-line-downtrend-xyaxis-circle-fill</title>
<path d="M15.956 27.217c6.154 0 11.25-5.096 11.25-11.25 0-6.143-5.107-11.25-11.261-11.25-6.143 0-11.239 5.107-11.239 11.25 0 6.154 5.107 11.25 11.25 11.25zM9.824 20.257v-9.154c0-0.342 0.298-0.64 0.64-0.64s0.629 0.298 0.629 0.64v1.147l2.228 2.25c0.077 0.066 0.11 0.066 0.176 0l1.985-2.040c0.265-0.276 0.563-0.408 0.882-0.408 0.331 0 0.629 0.143 0.882 0.408l2.14 2.184 0.805-0.827c0.276-0.287 0.706-0.132 0.816 0.298l0.827 3.276c0.099 0.364-0.232 0.684-0.607 0.585l-3.265-0.816c-0.408-0.11-0.573-0.529-0.287-0.805l0.805-0.805-2.029-2.063c-0.044-0.044-0.11-0.055-0.176 0l-1.996 2.051c-0.265 0.276-0.552 0.408-0.871 0.408-0.342 0-0.618-0.143-0.882-0.408l-1.434-1.456v5.702c0 0.077 0.033 0.11 0.099 0.11h10.368c0.342 0 0.629 0.287 0.629 0.64 0 0.342-0.287 0.629-0.629 0.629h-10.842c-0.54 0-0.893-0.353-0.893-0.904z"></path>
</svg>
