<!-- Generated by IcoMoon.io -->
<svg version="1.1" xmlns="http://www.w3.org/2000/svg" width="32" height="32" viewBox="0 0 32 32">
<title>chart-bar</title>
<path d="M4.485 26.415h2.967c1.721 0 2.614-0.827 2.614-2.46v-9.408c0-1.632-0.893-2.471-2.614-2.471h-2.967c-1.721 0-2.603 0.838-2.603 2.471v9.408c0 1.632 0.882 2.46 2.603 2.46zM4.772 24.75c-0.838 0-1.136-0.287-1.136-1.114v-8.768c0-0.838 0.298-1.125 1.136-1.125h2.393c0.849 0 1.147 0.287 1.147 1.125v8.768c0 0.827-0.298 1.114-1.147 1.114h-2.393zM14.401 26.415h2.978c1.721 0 2.603-0.827 2.603-2.46v-12.618c0-1.632-0.882-2.471-2.603-2.471h-2.978c-1.721 0-2.603 0.838-2.603 2.471v12.618c0 1.632 0.882 2.46 2.603 2.46zM14.699 24.75c-0.849 0-1.147-0.287-1.147-1.114v-11.978c0-0.827 0.298-1.125 1.147-1.125h2.393c0.849 0 1.136 0.298 1.136 1.125v11.978c0 0.827-0.287 1.114-1.136 1.114h-2.393zM24.316 26.415h2.978c1.721 0 2.614-0.827 2.614-2.46v-15.838c0-1.632-0.893-2.471-2.614-2.471h-2.978c-1.71 0-2.592 0.838-2.592 2.471v15.838c0 1.632 0.882 2.46 2.592 2.46zM24.614 24.75c-0.838 0-1.136-0.287-1.136-1.114v-15.199c0-0.827 0.298-1.125 1.136-1.125h2.393c0.849 0 1.147 0.298 1.147 1.125v15.199c0 0.827-0.298 1.114-1.147 1.114h-2.393z"></path>
</svg>
