<!-- Generated by IcoMoon.io -->
<svg version="1.1" xmlns="http://www.w3.org/2000/svg" width="32" height="32" viewBox="0 0 32 32">
<title>character-phonetic</title>
<path d="M9.857 23.46c2.515 0 4.489-1.268 5.559-3.375h0.11c0.938 2.118 2.879 3.375 5.471 3.375 2.702 0 4.765-1.158 5.636-3.232 0.088-0.221 0.154-0.452 0.154-0.629 0-0.54-0.364-0.893-0.915-0.893-0.331 0-0.574 0.143-0.772 0.441-1.004 1.754-2.261 2.526-4.18 2.526-2.757 0-4.522-2.040-4.522-5.073v-0.143h9.287c0.739 0 1.18-0.452 1.18-1.224 0-3.971-2.427-6.75-5.967-6.75-2.393 0-4.169 1.169-5.107 3.132h-0.088c-0.563-1.963-2.471-3.132-4.974-3.132-2.382 0-4.445 1.114-5.206 2.813-0.176 0.331-0.265 0.673-0.265 0.96 0 0.552 0.375 0.915 0.904 0.915 0.408 0 0.684-0.165 0.86-0.529 0.75-1.643 1.963-2.349 3.739-2.349 2.151 0 3.596 1.368 3.596 3.342v1.213l-4.312 0.232c-3.452 0.176-5.338 1.654-5.338 4.114 0 2.581 2.018 4.268 5.151 4.268zM9.923 21.695c-1.897 0-3.132-1.059-3.132-2.537s1.224-2.338 3.474-2.471l4.092-0.232v1.279c0 2.184-1.941 3.96-4.434 3.96zM16.397 14.846c0.165-2.702 1.886-4.577 4.346-4.577 2.426 0 3.971 1.831 4.015 4.577h-8.36z"></path>
</svg>
