<!-- Generated by IcoMoon.io -->
<svg version="1.1" xmlns="http://www.w3.org/2000/svg" width="32" height="32" viewBox="0 0 32 32">
<title>chart-line-flattrend-xyaxis</title>
<path d="M3.765 25.301c0 0.529 0.353 0.871 0.882 0.871h21.938c0.485 0 0.893-0.386 0.893-0.882 0-0.485-0.408-0.882-0.893-0.882h-20.735c-0.232 0-0.309-0.077-0.309-0.309v-17.438c0-0.474-0.397-0.882-0.882-0.882-0.496 0-0.893 0.408-0.893 0.882v18.64zM19.724 11.691v7.070c0 0.562 0.529 0.75 1.037 0.452l5.702-3.419c0.463-0.276 0.441-0.86-0.011-1.136l-5.702-3.419c-0.507-0.287-1.026-0.099-1.026 0.452zM4.173 16.169h17.184v-1.886h-17.184v1.886z"></path>
</svg>
