<!-- Generated by IcoMoon.io -->
<svg version="1.1" xmlns="http://www.w3.org/2000/svg" width="32" height="32" viewBox="0 0 32 32">
<title>chart-bar-doc-horizontal-fill</title>
<path d="M10.658 7.426h6.761c0.441 0 0.706 0.287 0.706 0.75v1.842c0 0.452-0.265 0.75-0.706 0.75h-6.761c-0.452 0-0.717-0.298-0.717-0.75v-1.842c0-0.463 0.265-0.75 0.717-0.75zM10.658 11.75h10.434c0.441 0 0.706 0.287 0.706 0.75v1.842c0 0.463-0.265 0.75-0.706 0.75h-10.434c-0.452 0-0.717-0.287-0.717-0.75v-1.842c0-0.463 0.265-0.75 0.717-0.75zM10.658 16.096h8.614c0.441 0 0.706 0.276 0.706 0.728v1.853c0 0.463-0.265 0.739-0.706 0.739h-8.614c-0.452 0-0.717-0.276-0.717-0.739v-1.853c0-0.452 0.265-0.728 0.717-0.728zM10.658 20.419h4.985c0.43 0 0.706 0.287 0.706 0.75v1.842c0 0.452-0.276 0.75-0.706 0.75h-4.985c-0.452 0-0.717-0.298-0.717-0.75v-1.842c0-0.463 0.265-0.75 0.717-0.75zM6.588 23.96c0 2.305 1.136 3.452 3.419 3.452h11.713c2.283 0 3.419-1.147 3.419-3.452v-16.732c0-2.294-1.136-3.463-3.419-3.463h-11.713c-2.283 0-3.419 1.169-3.419 3.463v16.732z"></path>
</svg>
