<!-- Generated by IcoMoon.io -->
<svg version="1.1" xmlns="http://www.w3.org/2000/svg" width="32" height="32" viewBox="0 0 32 32">
<title>chart-xyaxis-line</title>
<path d="M3.765 25.301c0 0.529 0.353 0.871 0.882 0.871h21.938c0.485 0 0.893-0.386 0.893-0.882 0-0.485-0.408-0.882-0.893-0.882h-20.735c-0.232 0-0.309-0.077-0.309-0.309v-17.438c0-0.474-0.397-0.882-0.882-0.882-0.496 0-0.893 0.408-0.893 0.882v18.64zM4.923 18.441l7.092-4.103 5.107 4.379 9.077-5.404-0.695-1.125-8.294 4.941-5.085-4.357-7.202 4.158v1.511zM11.871 15.827c1.081 0 1.963-0.882 1.963-1.963s-0.882-1.952-1.963-1.952c-1.081 0-1.963 0.871-1.963 1.952s0.882 1.963 1.963 1.963zM17.077 19.875c1.081 0 1.952-0.882 1.952-1.963s-0.871-1.952-1.952-1.952c-1.081 0-1.963 0.871-1.963 1.952s0.882 1.963 1.963 1.963zM25.393 14.857c1.081 0 1.963-0.882 1.963-1.963s-0.882-1.963-1.963-1.963c-1.081 0-1.963 0.882-1.963 1.963s0.882 1.963 1.963 1.963z"></path>
</svg>
