<!-- Generated by IcoMoon.io -->
<svg version="1.1" xmlns="http://www.w3.org/2000/svg" width="32" height="32" viewBox="0 0 32 32">
<title>character</title>
<path d="M10.338 23.82c0.585 0 0.871-0.221 1.081-0.838l1.423-3.893h6.507l1.423 3.893c0.21 0.618 0.496 0.838 1.070 0.838 0.585 0 0.96-0.353 0.96-0.904 0-0.188-0.033-0.364-0.121-0.596l-5.173-13.776c-0.254-0.673-0.706-1.015-1.412-1.015-0.684 0-1.147 0.331-1.39 1.004l-5.173 13.798c-0.088 0.232-0.121 0.408-0.121 0.596 0 0.551 0.353 0.893 0.927 0.893zM13.382 17.412l2.68-7.423h0.055l2.68 7.423h-5.415z"></path>
</svg>
