<!-- Generated by IcoMoon.io -->
<svg version="1.1" xmlns="http://www.w3.org/2000/svg" width="32" height="32" viewBox="0 0 32 32">
<title>chart-line-uptrend-xyaxis</title>
<path d="M3.765 25.301c0 0.529 0.353 0.871 0.882 0.871h21.938c0.485 0 0.893-0.386 0.893-0.882 0-0.485-0.408-0.882-0.893-0.882h-20.735c-0.232 0-0.309-0.077-0.309-0.309v-17.438c0-0.474-0.397-0.882-0.882-0.882-0.496 0-0.893 0.408-0.893 0.882v18.64zM5.397 19.357l4.776-4.864c0.099-0.099 0.198-0.154 0.298-0.154s0.198 0.055 0.298 0.154l4.059 4.158c0.474 0.496 0.971 0.728 1.489 0.728 0.529 0 1.004-0.232 1.5-0.728l4.5-4.522 1.809 1.82c0.397 0.397 0.915 0.154 1.059-0.408l1.632-6.463c0.132-0.507-0.309-0.926-0.805-0.794l-6.452 1.621c-0.562 0.154-0.805 0.662-0.408 1.059l1.82 1.82-4.346 4.401c-0.099 0.099-0.21 0.154-0.309 0.154-0.088 0-0.198-0.055-0.298-0.154l-4.059-4.158c-0.485-0.496-0.971-0.728-1.489-0.728s-0.982 0.221-1.489 0.728l-4.93 4.996 1.346 1.335z"></path>
</svg>
