<!-- Generated by IcoMoon.io -->
<svg version="1.1" xmlns="http://www.w3.org/2000/svg" width="32" height="32" viewBox="0 0 32 32">
<title>chart-line-flattrend-xyaxis-circle</title>
<path d="M15.956 27.206c6.154 0 11.25-5.107 11.25-11.25 0-6.154-5.107-11.25-11.261-11.25-6.143 0-11.239 5.096-11.239 11.25 0 6.143 5.107 11.25 11.25 11.25zM15.956 25.331c-5.206 0-9.364-4.169-9.364-9.375s4.147-9.375 9.353-9.375c5.206 0 9.386 4.169 9.386 9.375s-4.169 9.375-9.375 9.375zM10 20.114c0 0.518 0.342 0.86 0.871 0.86h10.511c0.331 0 0.607-0.276 0.607-0.607s-0.276-0.607-0.607-0.607h-10.136c-0.022 0-0.022 0.011-0.022-0.022v-8.515c0-0.331-0.276-0.607-0.607-0.607s-0.618 0.276-0.618 0.607v8.89zM18.36 13.43v3.485c0 0.386 0.419 0.573 0.772 0.364l2.791-1.688c0.32-0.187 0.32-0.64 0.011-0.816l-2.813-1.676c-0.364-0.21-0.761-0.044-0.761 0.331zM10.728 15.802h7.864v-1.224h-7.864v1.224z"></path>
</svg>
