<!-- Generated by IcoMoon.io -->
<svg version="1.1" xmlns="http://www.w3.org/2000/svg" width="32" height="32" viewBox="0 0 32 32">
<title>character-duployan</title>
<path d="M15.945 16.011c3.088 0 5.669-2.559 5.669-5.636 0-3.099-2.581-5.658-5.669-5.658-3.099 0-5.658 2.559-5.658 5.658 0 3.077 2.581 5.636 5.658 5.636zM15.945 14.147c-2.14 0-3.794-1.643-3.794-3.772 0-2.14 1.654-3.794 3.794-3.794s3.805 1.654 3.805 3.794c0 2.129-1.666 3.772-3.805 3.772zM15.956 27.206c6.154 0 11.25-5.107 11.25-11.25 0-6.154-5.107-11.25-11.261-11.25-6.143 0-11.239 5.096-11.239 11.25 0 6.143 5.107 11.25 11.25 11.25zM15.956 25.331c-5.206 0-9.364-4.169-9.364-9.375s4.147-9.375 9.353-9.375c5.206 0 9.386 4.169 9.386 9.375s-4.169 9.375-9.375 9.375z"></path>
</svg>
