<!-- Generated by IcoMoon.io -->
<svg version="1.1" xmlns="http://www.w3.org/2000/svg" width="32" height="32" viewBox="0 0 32 32">
<title>checkmark-diamond-fill</title>
<path d="M5.001 18.711l8.835 8.835c1.632 1.632 3.243 1.643 4.864 0.033l8.879-8.89c1.61-1.61 1.599-3.232-0.033-4.864l-8.824-8.824c-1.632-1.632-3.243-1.654-4.864-0.033l-8.89 8.879c-1.621 1.621-1.599 3.232 0.033 4.864zM15.038 21.667c-0.386 0-0.684-0.154-0.982-0.54l-2.757-3.397c-0.176-0.221-0.265-0.463-0.265-0.717 0-0.496 0.375-0.904 0.882-0.904 0.309 0 0.563 0.099 0.827 0.463l2.25 2.89 4.71-7.566c0.198-0.331 0.485-0.507 0.783-0.507 0.485 0 0.938 0.331 0.938 0.849 0 0.243-0.143 0.496-0.276 0.728l-5.195 8.162c-0.221 0.364-0.54 0.54-0.915 0.54z"></path>
</svg>
