<!-- Generated by IcoMoon.io -->
<svg version="1.1" xmlns="http://www.w3.org/2000/svg" width="32" height="32" viewBox="0 0 32 32">
<title>checkmark-seal</title>
<path d="M9.609 25.855h2.382c0.232 0 0.397 0.066 0.563 0.232l1.699 1.688c1.39 1.401 2.68 1.39 4.070 0l1.699-1.688c0.165-0.165 0.331-0.232 0.562-0.232h2.382c1.974 0 2.89-0.904 2.89-2.89v-2.382c0-0.232 0.066-0.386 0.232-0.562l1.676-1.699c1.401-1.39 1.39-2.669 0-4.070l-1.676-1.699c-0.165-0.165-0.232-0.331-0.232-0.551v-2.393c0-1.963-0.904-2.89-2.89-2.89h-2.382c-0.232 0-0.397-0.055-0.562-0.221l-1.699-1.688c-1.39-1.401-2.68-1.39-4.070 0l-1.699 1.688c-0.165 0.165-0.331 0.221-0.563 0.221h-2.382c-1.974 0-2.89 0.904-2.89 2.89v2.393c0 0.221-0.055 0.386-0.221 0.551l-1.688 1.699c-1.401 1.401-1.39 2.68 0 4.070l1.688 1.699c0.165 0.176 0.221 0.331 0.221 0.562v2.382c0 1.974 0.915 2.89 2.89 2.89zM9.609 24.102c-0.982 0-1.136-0.154-1.136-1.136v-2.967c0-0.331-0.099-0.585-0.342-0.827l-2.085-2.073c-0.695-0.706-0.695-0.904 0-1.61l2.085-2.074c0.243-0.243 0.342-0.496 0.342-0.838v-2.967c0-0.993 0.143-1.136 1.136-1.136h2.967c0.342 0 0.596-0.088 0.838-0.342l2.074-2.085c0.706-0.695 0.904-0.695 1.599 0l2.085 2.085c0.232 0.254 0.496 0.342 0.827 0.342h2.967c0.982 0 1.136 0.154 1.136 1.136v2.967c0 0.342 0.11 0.596 0.353 0.838l2.085 2.074c0.695 0.706 0.695 0.904 0 1.61l-2.085 2.073c-0.243 0.243-0.353 0.496-0.353 0.827v2.967c0 0.982-0.154 1.136-1.136 1.136h-2.967c-0.331 0-0.596 0.099-0.827 0.353l-2.085 2.085c-0.695 0.695-0.893 0.695-1.599 0l-2.074-2.085c-0.243-0.254-0.496-0.353-0.838-0.353h-2.967zM15.091 21.521c0.364 0 0.673-0.176 0.893-0.507l5.040-7.941c0.121-0.21 0.265-0.452 0.265-0.706 0-0.485-0.441-0.805-0.893-0.805-0.287 0-0.562 0.165-0.772 0.496l-4.577 7.346-2.173-2.813c-0.265-0.353-0.507-0.452-0.805-0.452-0.485 0-0.86 0.386-0.86 0.882 0 0.232 0.099 0.474 0.254 0.684l2.691 3.309c0.276 0.364 0.574 0.507 0.938 0.507z"></path>
</svg>
