<!-- Generated by IcoMoon.io -->
<svg version="1.1" xmlns="http://www.w3.org/2000/svg" width="32" height="32" viewBox="0 0 32 32">
<title>checklist-checked</title>
<path d="M8.518 14.246c2.592 0 4.754-2.151 4.754-4.743 0-2.603-2.162-4.765-4.754-4.765-2.603 0-4.754 2.162-4.754 4.765 0 2.592 2.162 4.743 4.754 4.743zM7.956 12.051c-0.232 0-0.386-0.121-0.551-0.309l-1.235-1.489c-0.11-0.121-0.143-0.254-0.143-0.43 0-0.32 0.243-0.574 0.54-0.574 0.21 0 0.364 0.088 0.507 0.276l0.86 1.092 1.963-3.154c0.132-0.199 0.298-0.309 0.496-0.309 0.309 0 0.573 0.243 0.573 0.518 0 0.154-0.044 0.287-0.143 0.452l-2.305 3.618c-0.121 0.198-0.32 0.309-0.563 0.309zM16.57 10.342h11.073c0.463 0 0.849-0.364 0.849-0.838 0-0.463-0.386-0.827-0.849-0.827h-11.073c-0.463 0-0.838 0.364-0.838 0.827 0 0.474 0.375 0.838 0.838 0.838zM16.57 23.092h11.073c0.463 0 0.849-0.364 0.849-0.827 0-0.474-0.386-0.838-0.849-0.838h-11.073c-0.463 0-0.838 0.364-0.838 0.838 0 0.463 0.375 0.827 0.838 0.827zM8.518 27.018c2.592 0 4.754-2.151 4.754-4.743 0-2.614-2.162-4.776-4.754-4.776-2.603 0-4.754 2.162-4.754 4.776 0 2.592 2.162 4.743 4.754 4.743zM7.956 24.824c-0.232 0-0.386-0.132-0.551-0.309l-1.235-1.5c-0.11-0.121-0.143-0.254-0.143-0.43 0-0.32 0.243-0.563 0.54-0.563 0.21 0 0.364 0.077 0.507 0.276l0.86 1.092 1.963-3.154c0.132-0.21 0.298-0.32 0.496-0.32 0.309 0 0.573 0.243 0.573 0.529 0 0.154-0.044 0.276-0.143 0.441l-2.305 3.618c-0.121 0.209-0.32 0.32-0.563 0.32z"></path>
</svg>
