<!-- Generated by IcoMoon.io -->
<svg version="1.1" xmlns="http://www.w3.org/2000/svg" width="32" height="32" viewBox="0 0 32 32">
<title>checkmark-square-fill</title>
<path d="M9.11 25.974h13.379c2.316 0 3.463-1.147 3.463-3.419v-13.467c0-2.272-1.147-3.419-3.463-3.419h-13.379c-2.305 0-3.463 1.136-3.463 3.419v13.467c0 2.283 1.158 3.419 3.463 3.419zM14.57 21.198c-0.375 0-0.684-0.154-0.971-0.54l-2.768-3.397c-0.165-0.221-0.265-0.463-0.265-0.717 0-0.496 0.386-0.904 0.893-0.904 0.309 0 0.551 0.099 0.827 0.463l2.239 2.89 4.71-7.566c0.21-0.331 0.496-0.507 0.794-0.507 0.474 0 0.927 0.331 0.927 0.849 0 0.243-0.132 0.496-0.276 0.728l-5.184 8.162c-0.232 0.364-0.551 0.54-0.926 0.54z"></path>
</svg>
