<!-- Generated by IcoMoon.io -->
<svg version="1.1" xmlns="http://www.w3.org/2000/svg" width="32" height="32" viewBox="0 0 32 32">
<title>checkmark</title>
<path d="M13.779 26.055c0.474 0 0.849-0.21 1.114-0.618l10.423-16.412c0.199-0.32 0.276-0.563 0.276-0.816 0-0.607-0.397-1.004-1.004-1.004-0.441 0-0.684 0.143-0.949 0.563l-9.904 15.783-5.14-6.728c-0.276-0.386-0.551-0.54-0.949-0.54-0.629 0-1.059 0.43-1.059 1.037 0 0.254 0.11 0.541 0.32 0.805l5.724 7.29c0.331 0.43 0.673 0.64 1.147 0.64z"></path>
</svg>
