<!-- Generated by IcoMoon.io -->
<svg version="1.1" xmlns="http://www.w3.org/2000/svg" width="32" height="32" viewBox="0 0 32 32">
<title>checkmark-message-fill</title>
<path d="M8.132 27.702c1.324 0 4.621-1.445 6.496-2.79 0.187-0.132 0.342-0.188 0.496-0.188 0.143 0.011 0.287 0.022 0.43 0.022 7.952 0 13.224-4.522 13.224-10.015 0-5.548-5.559-10.026-12.507-10.026s-12.507 4.478-12.507 10.026c0 3.529 2.173 6.629 5.713 8.526 0.165 0.088 0.221 0.254 0.132 0.419-0.618 1.015-1.721 2.228-2.14 2.779-0.43 0.551-0.188 1.246 0.662 1.246zM15.037 20.224c-0.375 0-0.684-0.143-0.971-0.529l-2.768-3.397c-0.165-0.221-0.265-0.474-0.265-0.717 0-0.507 0.386-0.915 0.893-0.915 0.309 0 0.551 0.11 0.827 0.474l2.239 2.879 4.71-7.555c0.209-0.342 0.496-0.507 0.794-0.507 0.474 0 0.927 0.331 0.927 0.838 0 0.243-0.143 0.507-0.276 0.728l-5.184 8.173c-0.232 0.353-0.551 0.529-0.926 0.529z"></path>
</svg>
