<!-- Generated by IcoMoon.io -->
<svg version="1.1" xmlns="http://www.w3.org/2000/svg" width="32" height="32" viewBox="0 0 32 32">
<title>checkmark-diamond</title>
<path d="M5.001 18.711l8.835 8.835c1.632 1.632 3.243 1.643 4.864 0.033l8.879-8.89c1.61-1.61 1.599-3.232-0.033-4.864l-8.824-8.824c-1.632-1.632-3.243-1.654-4.864-0.033l-8.89 8.879c-1.621 1.621-1.599 3.232 0.033 4.864zM6.281 17.487c-0.783-0.794-0.805-1.621 0.011-2.438l8.757-8.757c0.816-0.816 1.643-0.805 2.438-0.011l8.779 8.779c0.783 0.783 0.805 1.621-0.011 2.437l-8.757 8.757c-0.816 0.816-1.665 0.794-2.437 0.022l-8.779-8.79zM15.071 21.512c0.364 0 0.673-0.176 0.882-0.518l5.051-7.93c0.121-0.221 0.265-0.463 0.265-0.706 0-0.496-0.441-0.816-0.904-0.816-0.287 0-0.563 0.176-0.761 0.496l-4.577 7.346-2.184-2.813c-0.254-0.353-0.507-0.441-0.805-0.441-0.485 0-0.849 0.386-0.849 0.871 0 0.243 0.088 0.474 0.254 0.684l2.68 3.309c0.287 0.364 0.573 0.518 0.949 0.518z"></path>
</svg>
