<!-- Generated by IcoMoon.io -->
<svg version="1.1" xmlns="http://www.w3.org/2000/svg" width="32" height="32" viewBox="0 0 32 32">
<title>checkerboard-rectangle</title>
<path d="M9.077 11.603h4.522v-4.18h-4.522v4.18zM18.055 11.603h4.522v-4.18h-4.522v4.18zM4.599 15.805h4.478v-4.202h-4.478v4.202zM13.599 15.805h4.456v-4.202h-4.456v4.202zM22.577 15.805h4.489v-4.202h-4.489v4.202zM9.077 19.985h4.522v-4.18h-4.522v4.18zM18.055 19.985h4.522v-4.18h-4.522v4.18zM4.599 23.702l0.529 0.474h3.949v-4.191h-4.478v3.717zM13.599 24.176h4.456v-4.191h-4.456v4.191zM22.577 24.176h3.904l0.585-0.507v-3.684h-4.489v4.191zM6.287 25.952h19.081c2.316 0 3.463-1.136 3.463-3.408v-13.478c0-2.272-1.147-3.419-3.463-3.419h-19.081c-2.305 0-3.463 1.147-3.463 3.419v13.478c0 2.272 1.158 3.408 3.463 3.408zM6.309 24.176c-1.103 0-1.71-0.585-1.71-1.732v-13.279c0-1.147 0.607-1.743 1.71-1.743h19.037c1.092 0 1.71 0.596 1.71 1.743v13.279c0 1.147-0.618 1.732-1.71 1.732h-19.037z"></path>
</svg>
