<!-- Generated by IcoMoon.io -->
<svg version="1.1" xmlns="http://www.w3.org/2000/svg" width="32" height="32" viewBox="0 0 32 32">
<title>checkmark-rectangle-portrait-fill</title>
<path d="M6.588 23.96c0 2.305 1.136 3.452 3.419 3.452h11.713c2.283 0 3.419-1.147 3.419-3.452v-16.732c0-2.294-1.136-3.463-3.419-3.463h-11.713c-2.283 0-3.419 1.169-3.419 3.463v16.732zM14.64 20.982c-0.386 0-0.684-0.154-0.982-0.54l-2.768-3.386c-0.165-0.221-0.254-0.474-0.254-0.717 0-0.507 0.375-0.915 0.882-0.915 0.309 0 0.562 0.11 0.827 0.474l2.239 2.879 4.721-7.555c0.199-0.342 0.485-0.507 0.783-0.507 0.485 0 0.937 0.331 0.937 0.838 0 0.243-0.143 0.507-0.287 0.728l-5.184 8.162c-0.221 0.364-0.54 0.54-0.915 0.54z"></path>
</svg>
