<!-- Generated by IcoMoon.io -->
<svg version="1.1" xmlns="http://www.w3.org/2000/svg" width="32" height="32" viewBox="0 0 32 32">
<title>checkmark-rectangle</title>
<path d="M6.287 25.952h19.081c2.316 0 3.463-1.136 3.463-3.408v-13.478c0-2.272-1.147-3.419-3.463-3.419h-19.081c-2.305 0-3.463 1.147-3.463 3.419v13.478c0 2.272 1.158 3.408 3.463 3.408zM6.309 24.176c-1.103 0-1.71-0.585-1.71-1.732v-13.279c0-1.147 0.607-1.743 1.71-1.743h19.037c1.092 0 1.71 0.596 1.71 1.743v13.279c0 1.147-0.618 1.732-1.71 1.732h-19.037zM14.636 21.033c0.364 0 0.673-0.176 0.882-0.518l5.051-7.93c0.121-0.221 0.265-0.463 0.265-0.706 0-0.496-0.441-0.816-0.904-0.816-0.287 0-0.563 0.176-0.761 0.496l-4.577 7.346-2.184-2.812c-0.254-0.353-0.507-0.441-0.805-0.441-0.485 0-0.849 0.386-0.849 0.871 0 0.243 0.088 0.474 0.254 0.684l2.68 3.309c0.287 0.364 0.573 0.518 0.949 0.518z"></path>
</svg>
