<!-- Generated by IcoMoon.io -->
<svg version="1.1" xmlns="http://www.w3.org/2000/svg" width="32" height="32" viewBox="0 0 32 32">
<title>checkmark-icloud-fill</title>
<path d="M23.676 24.816c3.331 0 5.934-2.438 5.934-5.471 0-2.316-1.334-4.324-3.485-5.228 0.022-4.919-3.518-8.471-8.029-8.471-2.989 0-5.118 1.599-6.441 3.529-2.713-0.794-5.669 1.268-5.724 4.357-2.493 0.397-4.048 2.625-4.048 5.316 0 3.243 2.835 5.967 6.607 5.967h15.187zM14.963 20.482c-0.364 0-0.662-0.154-0.926-0.496l-2.471-3.11c-0.165-0.221-0.254-0.441-0.254-0.673 0-0.518 0.397-0.915 0.893-0.915 0.331 0 0.607 0.154 0.816 0.441l1.897 2.482 3.772-6.298c0.176-0.309 0.474-0.496 0.783-0.496 0.518 0 0.938 0.364 0.938 0.849 0 0.254-0.143 0.507-0.254 0.684l-4.313 7.026c-0.21 0.331-0.518 0.507-0.882 0.507z"></path>
</svg>
