<!-- Generated by IcoMoon.io -->
<svg version="1.1" xmlns="http://www.w3.org/2000/svg" width="32" height="32" viewBox="0 0 32 32">
<title>checkmark-rectangle-portrait</title>
<path d="M6.588 23.96c0 2.305 1.136 3.452 3.419 3.452h11.713c2.283 0 3.419-1.147 3.419-3.452v-16.732c0-2.294-1.136-3.463-3.419-3.463h-11.713c-2.283 0-3.419 1.169-3.419 3.463v16.732zM8.364 23.927v-16.665c0-1.103 0.585-1.721 1.732-1.721h11.537c1.147 0 1.732 0.618 1.732 1.721v16.665c0 1.103-0.585 1.71-1.732 1.71h-11.537c-1.147 0-1.732-0.607-1.732-1.71zM14.673 20.827c0.364 0 0.673-0.176 0.882-0.518l5.040-7.93c0.132-0.221 0.276-0.463 0.276-0.706 0-0.496-0.441-0.816-0.904-0.816-0.287 0-0.562 0.176-0.761 0.496l-4.588 7.346-2.173-2.813c-0.254-0.353-0.507-0.441-0.805-0.441-0.485 0-0.849 0.386-0.849 0.871 0 0.243 0.088 0.474 0.243 0.684l2.691 3.309c0.287 0.364 0.574 0.518 0.949 0.518z"></path>
</svg>
