<!-- Generated by IcoMoon.io -->
<svg version="1.1" xmlns="http://www.w3.org/2000/svg" width="32" height="32" viewBox="0 0 32 32">
<title>checkmark-circle-fill</title>
<path d="M15.956 27.206c6.154 0 11.25-5.107 11.25-11.25 0-6.154-5.107-11.25-11.261-11.25-6.143 0-11.239 5.096-11.239 11.25 0 6.143 5.107 11.25 11.25 11.25zM14.721 21.349c-0.375 0-0.684-0.154-0.971-0.54l-2.768-3.397c-0.165-0.221-0.265-0.463-0.265-0.717 0-0.496 0.386-0.904 0.882-0.904 0.32 0 0.563 0.099 0.838 0.463l2.239 2.89 4.71-7.566c0.209-0.331 0.496-0.507 0.783-0.507 0.485 0 0.938 0.331 0.938 0.849 0 0.243-0.143 0.496-0.276 0.728l-5.184 8.162c-0.232 0.364-0.551 0.54-0.927 0.54z"></path>
</svg>
