<!-- Generated by IcoMoon.io -->
<svg version="1.1" xmlns="http://www.w3.org/2000/svg" width="32" height="32" viewBox="0 0 32 32">
<title>checkmark-shield-fill</title>
<path d="M15.61 26.974c0.176 0 0.452-0.066 0.728-0.21 6.276-3.287 8.294-4.93 8.294-8.89v-8.316c0-1.136-0.485-1.5-1.412-1.886-1.29-0.529-5.415-2.029-6.695-2.471-0.298-0.099-0.607-0.154-0.915-0.154s-0.618 0.066-0.904 0.154c-1.29 0.419-5.415 1.952-6.706 2.471-0.915 0.375-1.412 0.75-1.412 1.886v8.316c0 3.96 2.129 5.415 8.294 8.89 0.287 0.154 0.551 0.21 0.728 0.21zM14.375 20.985c-0.375 0-0.684-0.143-0.971-0.529l-2.768-3.397c-0.165-0.221-0.265-0.474-0.265-0.717 0-0.507 0.386-0.915 0.893-0.915 0.309 0 0.551 0.11 0.827 0.474l2.239 2.89 4.71-7.566c0.209-0.342 0.496-0.507 0.794-0.507 0.474 0 0.927 0.331 0.927 0.838 0 0.254-0.132 0.507-0.276 0.728l-5.184 8.173c-0.232 0.353-0.551 0.529-0.927 0.529z"></path>
</svg>
