<!-- Generated by IcoMoon.io -->
<svg version="1.1" xmlns="http://www.w3.org/2000/svg" width="32" height="32" viewBox="0 0 32 32">
<title>checkmark-seal-fill</title>
<path d="M9.609 25.855h2.393c0.221 0 0.386 0.066 0.551 0.232l1.699 1.688c1.39 1.401 2.68 1.39 4.070 0l1.699-1.688c0.176-0.165 0.331-0.232 0.562-0.232h2.382c1.974 0 2.89-0.904 2.89-2.89v-2.382c0-0.232 0.066-0.386 0.232-0.562l1.688-1.699c1.401-1.39 1.39-2.68 0-4.070l-1.688-1.699c-0.165-0.165-0.232-0.331-0.232-0.551v-2.393c0-1.963-0.904-2.89-2.89-2.89h-2.382c-0.232 0-0.386-0.055-0.562-0.221l-1.699-1.688c-1.39-1.401-2.68-1.39-4.070 0l-1.699 1.688c-0.165 0.165-0.331 0.221-0.551 0.221h-2.393c-1.974 0-2.89 0.904-2.89 2.89v2.393c0 0.221-0.055 0.386-0.221 0.551l-1.688 1.699c-1.401 1.39-1.39 2.68 0 4.070l1.688 1.699c0.165 0.176 0.221 0.331 0.221 0.562v2.382c0 1.974 0.915 2.89 2.89 2.89zM15.057 21.675c-0.375 0-0.684-0.143-0.971-0.529l-2.768-3.397c-0.165-0.221-0.265-0.474-0.265-0.717 0-0.507 0.386-0.915 0.893-0.915 0.309 0 0.551 0.11 0.827 0.474l2.239 2.89 4.71-7.566c0.209-0.342 0.496-0.507 0.794-0.507 0.474 0 0.927 0.331 0.927 0.838 0 0.254-0.143 0.507-0.276 0.728l-5.184 8.173c-0.232 0.353-0.551 0.529-0.927 0.529z"></path>
</svg>
