<!-- Generated by IcoMoon.io -->
<svg version="1.1" xmlns="http://www.w3.org/2000/svg" width="32" height="32" viewBox="0 0 32 32">
<title>checkerboard-shield</title>
<path d="M6.588 18.316c0 4.026 2.162 5.504 8.426 9.033 0.287 0.154 0.563 0.221 0.739 0.221s0.463-0.066 0.739-0.221c6.276-3.518 8.427-5.007 8.427-9.033v-8.437c0-1.158-0.496-1.522-1.434-1.919-1.301-0.54-5.504-2.051-6.805-2.504-0.298-0.099-0.618-0.165-0.927-0.165s-0.629 0.088-0.915 0.165c-1.301 0.375-5.515 1.974-6.816 2.504-0.926 0.386-1.434 0.761-1.434 1.919v8.437zM8.342 17.908v-1.776h7.412v-9.066c0.121 0 0.265 0.033 0.441 0.099 1.666 0.662 4.897 1.831 6.607 2.415 0.298 0.11 0.364 0.265 0.364 0.64v5.912h-7.412v9.441c-0.176 0-0.353-0.066-0.684-0.265-5.096-3.088-6.728-3.993-6.728-7.401z"></path>
</svg>
