<!-- Generated by IcoMoon.io -->
<svg version="1.1" xmlns="http://www.w3.org/2000/svg" width="32" height="32" viewBox="0 0 32 32">
<title>checkmark-circle</title>
<path d="M15.956 27.206c6.154 0 11.25-5.107 11.25-11.25 0-6.154-5.107-11.25-11.261-11.25-6.143 0-11.239 5.096-11.239 11.25 0 6.143 5.107 11.25 11.25 11.25zM15.956 25.331c-5.206 0-9.364-4.169-9.364-9.375s4.147-9.375 9.353-9.375c5.206 0 9.386 4.169 9.386 9.375s-4.169 9.375-9.375 9.375zM14.743 21.195c0.364 0 0.673-0.176 0.893-0.518l5.040-7.93c0.121-0.221 0.265-0.463 0.265-0.706 0-0.496-0.441-0.816-0.904-0.816-0.276 0-0.552 0.176-0.761 0.496l-4.577 7.346-2.173-2.813c-0.265-0.353-0.507-0.441-0.816-0.441-0.474 0-0.849 0.386-0.849 0.871 0 0.243 0.099 0.474 0.254 0.684l2.691 3.309c0.276 0.364 0.573 0.518 0.938 0.518z"></path>
</svg>
