<!-- Generated by IcoMoon.io -->
<svg version="1.1" xmlns="http://www.w3.org/2000/svg" width="32" height="32" viewBox="0 0 32 32">
<title>checkmark-rectangle-fill</title>
<path d="M6.287 25.952h19.081c2.316 0 3.463-1.136 3.463-3.408v-13.478c0-2.272-1.147-3.419-3.463-3.419h-19.081c-2.305 0-3.463 1.147-3.463 3.419v13.478c0 2.272 1.158 3.408 3.463 3.408zM14.603 21.198c-0.386 0-0.684-0.154-0.982-0.54l-2.757-3.397c-0.176-0.221-0.265-0.463-0.265-0.717 0-0.496 0.375-0.904 0.882-0.904 0.309 0 0.563 0.099 0.827 0.463l2.25 2.89 4.71-7.566c0.198-0.331 0.485-0.507 0.783-0.507 0.485 0 0.938 0.331 0.938 0.849 0 0.243-0.143 0.496-0.276 0.728l-5.195 8.162c-0.221 0.364-0.54 0.54-0.915 0.54z"></path>
</svg>
