<!-- Generated by IcoMoon.io -->
<svg version="1.1" xmlns="http://www.w3.org/2000/svg" width="32" height="32" viewBox="0 0 32 32">
<title>checkmark-bubble-fill</title>
<path d="M10.316 28.129c0.43 0 0.75-0.221 1.268-0.706l3.982-3.64h7.456c3.287 0 5.051-1.809 5.051-5.040v-8.449c0-3.232-1.765-5.051-5.051-5.051h-14.206c-3.287 0-5.051 1.809-5.051 5.051v8.449c0 3.243 1.765 5.040 5.051 5.040h0.518v3.21c0 0.684 0.353 1.136 0.982 1.136zM14.695 19.901c-0.386 0-0.684-0.154-0.982-0.54l-2.768-3.397c-0.165-0.221-0.254-0.463-0.254-0.717 0-0.496 0.375-0.904 0.882-0.904 0.309 0 0.562 0.099 0.827 0.463l2.239 2.89 4.721-7.566c0.198-0.331 0.485-0.507 0.783-0.507 0.485 0 0.938 0.331 0.938 0.849 0 0.243-0.143 0.507-0.287 0.728l-5.184 8.162c-0.221 0.364-0.54 0.54-0.915 0.54z"></path>
</svg>
