<!-- Generated by IcoMoon.io -->
<svg version="1.1" xmlns="http://www.w3.org/2000/svg" width="32" height="32" viewBox="0 0 32 32">
<title>checkmark-message</title>
<path d="M8.551 27.813c1.489 0 4.533-1.5 6.772-3.099 7.688 0.21 13.456-4.202 13.456-9.982 0-5.548-5.559-10.026-12.507-10.026s-12.507 4.478-12.507 10.026c0 3.618 2.316 6.827 5.802 8.438-0.496 0.96-1.423 2.261-1.919 2.912-0.585 0.772-0.232 1.732 0.904 1.732zM9.71 25.982c-0.088 0.033-0.121-0.033-0.066-0.11 0.618-0.761 1.5-1.908 1.875-2.614 0.309-0.573 0.232-1.081-0.474-1.412-3.463-1.61-5.449-4.18-5.449-7.114 0-4.522 4.732-8.206 10.677-8.206 5.956 0 10.687 3.684 10.687 8.206 0 4.511-4.732 8.195-10.687 8.195-0.221 0-0.563-0.011-1.004-0.022-0.463 0-0.816 0.143-1.235 0.474-1.357 0.982-3.32 2.195-4.324 2.603zM15.070 20.070c0.364 0 0.673-0.176 0.893-0.507l5.040-7.941c0.121-0.21 0.265-0.463 0.265-0.706 0-0.485-0.441-0.805-0.893-0.805-0.287 0-0.562 0.165-0.772 0.496l-4.577 7.346-2.173-2.813c-0.265-0.353-0.507-0.452-0.805-0.452-0.485 0-0.86 0.386-0.86 0.882 0 0.232 0.099 0.474 0.254 0.684l2.691 3.309c0.276 0.364 0.574 0.507 0.938 0.507z"></path>
</svg>
