<!-- Generated by IcoMoon.io -->
<svg version="1.1" xmlns="http://www.w3.org/2000/svg" width="32" height="32" viewBox="0 0 32 32">
<title>checklist-unchecked</title>
<path d="M8.518 14.257c2.592 0 4.754-2.173 4.754-4.765 0-2.603-2.162-4.754-4.754-4.754-2.603 0-4.754 2.151-4.754 4.754 0 2.592 2.162 4.765 4.754 4.765zM8.518 12.647c-1.71 0-3.143-1.445-3.143-3.154s1.445-3.154 3.143-3.154c1.699 0 3.143 1.456 3.143 3.154 0 1.71-1.445 3.154-3.143 3.154zM8.518 27.018c2.592 0 4.754-2.162 4.754-4.754 0-2.614-2.162-4.765-4.754-4.765-2.603 0-4.754 2.162-4.754 4.765 0 2.592 2.162 4.754 4.754 4.754zM8.518 25.408c-1.71 0-3.143-1.445-3.143-3.143 0-1.71 1.445-3.154 3.143-3.154s3.143 1.445 3.143 3.154c0 1.699-1.445 3.143-3.143 3.143zM16.57 10.342h11.073c0.463 0 0.849-0.364 0.849-0.838 0-0.463-0.386-0.827-0.849-0.827h-11.073c-0.463 0-0.838 0.364-0.838 0.827 0 0.474 0.375 0.838 0.838 0.838zM16.57 23.092h11.073c0.463 0 0.849-0.364 0.849-0.827 0-0.474-0.386-0.838-0.849-0.838h-11.073c-0.463 0-0.838 0.364-0.838 0.838 0 0.463 0.375 0.827 0.838 0.827z"></path>
</svg>
