<!-- Generated by IcoMoon.io -->
<svg version="1.1" xmlns="http://www.w3.org/2000/svg" width="32" height="32" viewBox="0 0 32 32">
<title>checkmark-square</title>
<path d="M9.11 25.974h13.379c2.316 0 3.463-1.147 3.463-3.419v-13.467c0-2.272-1.147-3.419-3.463-3.419h-13.379c-2.305 0-3.463 1.136-3.463 3.419v13.467c0 2.283 1.158 3.419 3.463 3.419zM9.132 24.198c-1.103 0-1.71-0.585-1.71-1.732v-13.29c0-1.147 0.607-1.732 1.71-1.732h13.335c1.092 0 1.71 0.585 1.71 1.732v13.29c0 1.147-0.618 1.732-1.71 1.732h-13.335zM14.603 21.044c0.364 0 0.673-0.176 0.893-0.518l5.040-7.93c0.132-0.221 0.265-0.463 0.265-0.706 0-0.496-0.441-0.816-0.893-0.816-0.287 0-0.562 0.176-0.772 0.496l-4.577 7.346-2.173-2.813c-0.265-0.353-0.507-0.441-0.805-0.441-0.485 0-0.86 0.386-0.86 0.871 0 0.243 0.099 0.474 0.254 0.684l2.691 3.309c0.276 0.364 0.574 0.518 0.938 0.518z"></path>
</svg>
