<!-- Generated by IcoMoon.io -->
<svg version="1.1" xmlns="http://www.w3.org/2000/svg" width="32" height="32" viewBox="0 0 32 32">
<title>chevron-up-square-fill</title>
<path d="M9.11 25.974h13.379c2.316 0 3.463-1.147 3.463-3.419v-13.467c0-2.272-1.147-3.419-3.463-3.419h-13.379c-2.305 0-3.463 1.136-3.463 3.419v13.467c0 2.283 1.158 3.419 3.463 3.419zM10.191 18.463c-0.32-0.309-0.309-0.849 0.044-1.202l4.445-4.743c0.717-0.75 1.544-0.75 2.272 0l4.445 4.743c0.353 0.353 0.364 0.893 0.044 1.202-0.353 0.364-0.904 0.364-1.224 0.022l-4.401-4.665-4.401 4.665c-0.331 0.342-0.871 0.342-1.224-0.022z"></path>
</svg>
