<!-- Generated by IcoMoon.io -->
<svg version="1.1" xmlns="http://www.w3.org/2000/svg" width="32" height="32" viewBox="0 0 32 32">
<title>chevron-backward-to-line</title>
<path d="M22.151 24.743c0-0.276-0.099-0.518-0.298-0.717l-8.724-8.537v1.357l8.724-8.526c0.198-0.188 0.298-0.441 0.298-0.717 0-0.585-0.441-1.015-1.004-1.015-0.298 0-0.518 0.11-0.728 0.298l-8.746 8.548c-0.198 0.199-0.32 0.452-0.32 0.739s0.121 0.529 0.331 0.739l8.735 8.537c0.198 0.209 0.43 0.309 0.717 0.309 0.574 0 1.015-0.441 1.015-1.015zM11.386 24.798v-17.228c0-0.574-0.408-0.982-0.993-0.982-0.574 0-0.982 0.408-0.982 0.982v17.228c0 0.562 0.408 0.96 0.982 0.96 0.585 0 0.993-0.397 0.993-0.96z"></path>
</svg>
