<!-- Generated by IcoMoon.io -->
<svg version="1.1" xmlns="http://www.w3.org/2000/svg" width="32" height="32" viewBox="0 0 32 32">
<title>chevron-down-square</title>
<path d="M9.11 25.974h13.379c2.316 0 3.463-1.147 3.463-3.419v-13.467c0-2.272-1.147-3.419-3.463-3.419h-13.379c-2.305 0-3.463 1.136-3.463 3.419v13.467c0 2.283 1.158 3.419 3.463 3.419zM9.132 24.198c-1.103 0-1.71-0.585-1.71-1.732v-13.29c0-1.147 0.607-1.732 1.71-1.732h13.335c1.092 0 1.71 0.585 1.71 1.732v13.29c0 1.147-0.618 1.732-1.71 1.732h-13.335zM16.908 19.357l4.324-4.588c0.331-0.353 0.342-0.86 0.033-1.169-0.331-0.342-0.871-0.353-1.18-0.022l-4.268 4.522-4.268-4.522c-0.32-0.331-0.86-0.331-1.191 0.022-0.287 0.32-0.287 0.816 0.033 1.169l4.335 4.588c0.684 0.739 1.489 0.739 2.184 0z"></path>
</svg>
