<!-- Generated by IcoMoon.io -->
<svg version="1.1" xmlns="http://www.w3.org/2000/svg" width="32" height="32" viewBox="0 0 32 32">
<title>chevron-up-circle</title>
<path d="M15.956 27.206c6.154 0 11.25-5.107 11.25-11.25 0-6.154-5.107-11.25-11.261-11.25-6.143 0-11.239 5.096-11.239 11.25 0 6.143 5.107 11.25 11.25 11.25zM15.956 25.331c-5.206 0-9.364-4.169-9.364-9.375s4.147-9.375 9.353-9.375c5.206 0 9.386 4.169 9.386 9.375s-4.169 9.375-9.375 9.375zM10.507 18.515c0.331 0.353 0.871 0.353 1.18 0.022l4.268-4.522 4.268 4.522c0.32 0.331 0.86 0.331 1.18-0.022 0.309-0.298 0.298-0.816-0.033-1.158l-4.323-4.599c-0.695-0.728-1.489-0.728-2.173 0l-4.335 4.599c-0.331 0.342-0.342 0.86-0.033 1.158z"></path>
</svg>
