<!-- Generated by IcoMoon.io -->
<svg version="1.1" xmlns="http://www.w3.org/2000/svg" width="32" height="32" viewBox="0 0 32 32">
<title>chevron-left-forwardslash-chevron-right</title>
<path d="M0.941 16.087c0 0.309 0.132 0.607 0.386 0.827l7.368 6.651c0.463 0.419 1.081 0.419 1.467-0.011 0.386-0.441 0.32-1.059-0.121-1.456l-6.629-6.011 6.629-6.011c0.441-0.397 0.507-1.026 0.121-1.456s-1.004-0.43-1.467-0.011l-7.368 6.64c-0.254 0.232-0.386 0.529-0.386 0.838zM13.382 26.498c0.584 0.154 1.114-0.165 1.29-0.75l5.493-18.827c0.154-0.529-0.099-1.059-0.684-1.213-0.574-0.154-1.070 0.066-1.268 0.75l-5.46 18.728c-0.176 0.596 0.011 1.147 0.629 1.313zM31.857 16.087c0-0.309-0.121-0.607-0.375-0.838l-7.368-6.64c-0.474-0.419-1.081-0.419-1.467 0.011s-0.331 1.059 0.11 1.456l6.64 6.011-6.64 6.011c-0.441 0.397-0.496 1.015-0.11 1.456 0.386 0.43 0.993 0.43 1.467 0.011l7.368-6.651c0.254-0.221 0.375-0.518 0.375-0.827z"></path>
</svg>
