<!-- Generated by IcoMoon.io -->
<svg version="1.1" xmlns="http://www.w3.org/2000/svg" width="32" height="32" viewBox="0 0 32 32">
<title>chevron-right</title>
<path d="M21.14 16.162c0-0.276-0.11-0.529-0.32-0.728l-8.735-8.559c-0.198-0.188-0.441-0.287-0.728-0.287-0.563 0-1.004 0.43-1.004 1.004 0 0.276 0.11 0.529 0.287 0.717l8.029 7.853-8.029 7.853c-0.176 0.187-0.287 0.43-0.287 0.717 0 0.574 0.441 1.004 1.004 1.004 0.287 0 0.529-0.099 0.728-0.298l8.735-8.548c0.21-0.209 0.32-0.452 0.32-0.728z"></path>
</svg>
