<!-- Generated by IcoMoon.io -->
<svg version="1.1" xmlns="http://www.w3.org/2000/svg" width="32" height="32" viewBox="0 0 32 32">
<title>chevron-forward-to-line</title>
<path d="M9.412 24.743c0 0.573 0.441 1.015 1.015 1.015 0.276 0 0.518-0.099 0.717-0.309l8.735-8.537c0.21-0.21 0.32-0.452 0.32-0.739s-0.11-0.54-0.309-0.739l-8.746-8.548c-0.21-0.188-0.441-0.298-0.728-0.298-0.563 0-1.004 0.43-1.004 1.015 0 0.276 0.099 0.529 0.298 0.717l8.724 8.526v-1.357l-8.724 8.537c-0.198 0.199-0.298 0.441-0.298 0.717zM20.176 24.798c0 0.562 0.408 0.96 0.982 0.96s0.993-0.397 0.993-0.96v-17.228c0-0.574-0.419-0.982-0.993-0.982s-0.982 0.408-0.982 0.982v17.228z"></path>
</svg>
