<!-- Generated by IcoMoon.io -->
<svg version="1.1" xmlns="http://www.w3.org/2000/svg" width="32" height="32" viewBox="0 0 32 32">
<title>chevron-up-chevron-down</title>
<path d="M16.011 6.588c-0.254 0-0.485 0.099-0.75 0.32l-7.434 6.033c-0.188 0.165-0.298 0.397-0.298 0.728 0 0.574 0.43 1.004 1.004 1.004 0.243 0 0.474-0.088 0.739-0.287l6.739-5.493 6.739 5.493c0.254 0.198 0.496 0.287 0.728 0.287 0.585 0 1.015-0.43 1.015-1.004 0-0.331-0.11-0.562-0.298-0.728l-7.434-6.044c-0.265-0.21-0.507-0.309-0.75-0.309zM16.011 26.11c0.243 0 0.485-0.099 0.75-0.309l7.434-6.044c0.187-0.165 0.298-0.397 0.298-0.728 0-0.574-0.43-1.015-1.015-1.015-0.232 0-0.474 0.099-0.728 0.298l-6.739 5.493-6.739-5.493c-0.265-0.198-0.496-0.298-0.739-0.298-0.574 0-1.004 0.441-1.004 1.015 0 0.331 0.11 0.562 0.298 0.728l7.434 6.033c0.265 0.221 0.496 0.32 0.75 0.32z"></path>
</svg>
