<!-- Generated by IcoMoon.io -->
<svg version="1.1" xmlns="http://www.w3.org/2000/svg" width="32" height="32" viewBox="0 0 32 32">
<title>chevron-compact-up</title>
<path d="M7.283 16.563c-0.419 0.165-0.695 0.54-0.695 0.938 0 0.651 0.474 1.147 1.114 1.147 0.342 0 0.772-0.187 1.048-0.298l8.448-3.309h-1.555l8.449 3.309c0.276 0.11 0.717 0.298 1.048 0.298 0.64 0 1.114-0.496 1.114-1.147 0-0.397-0.276-0.772-0.695-0.938l-7.522-2.945c-0.507-0.199-1.125-0.441-1.61-0.441-0.496 0-1.103 0.243-1.61 0.441l-7.533 2.945z"></path>
</svg>
