<!-- Generated by IcoMoon.io -->
<svg version="1.1" xmlns="http://www.w3.org/2000/svg" width="32" height="32" viewBox="0 0 32 32">
<title>chevron-left-square-fill</title>
<path d="M9.11 25.974h13.379c2.316 0 3.463-1.147 3.463-3.419v-13.467c0-2.272-1.147-3.419-3.463-3.419h-13.379c-2.305 0-3.463 1.136-3.463 3.419v13.467c0 2.283 1.158 3.419 3.463 3.419zM17.989 21.265c-0.287 0.276-0.86 0.254-1.169-0.033l-4.588-4.335c-0.629-0.573-0.629-1.588 0-2.162l4.588-4.335c0.342-0.32 0.849-0.331 1.158-0.033 0.342 0.32 0.353 0.871 0.022 1.18l-4.533 4.257 4.533 4.279c0.32 0.309 0.331 0.838-0.011 1.18z"></path>
</svg>
