<!-- Generated by IcoMoon.io -->
<svg version="1.1" xmlns="http://www.w3.org/2000/svg" width="32" height="32" viewBox="0 0 32 32">
<title>chevron-down</title>
<path d="M16.173 22.099c0.276 0 0.551-0.11 0.739-0.32l8.537-8.746c0.187-0.188 0.298-0.43 0.298-0.706 0-0.574-0.43-1.015-1.004-1.015-0.276 0-0.529 0.11-0.717 0.287l-8.448 8.636h1.18l-8.449-8.636c-0.176-0.176-0.43-0.287-0.717-0.287-0.574 0-1.004 0.441-1.004 1.015 0 0.276 0.11 0.518 0.298 0.717l8.537 8.735c0.21 0.21 0.463 0.32 0.75 0.32z"></path>
</svg>
