<!-- Generated by IcoMoon.io -->
<svg version="1.1" xmlns="http://www.w3.org/2000/svg" width="32" height="32" viewBox="0 0 32 32">
<title>chevron-left-2</title>
<path d="M14.713 25.449c0.187 0.187 0.43 0.298 0.717 0.298 0.574 0 1.004-0.43 1.004-1.004 0-0.276-0.11-0.529-0.287-0.717l-8.636-8.448v1.18l8.636-8.438c0.177-0.188 0.287-0.452 0.287-0.717 0-0.574-0.43-1.015-1.004-1.015-0.287 0-0.529 0.11-0.717 0.298l-8.735 8.548c-0.21 0.176-0.331 0.452-0.331 0.739 0 0.276 0.11 0.529 0.32 0.739l8.746 8.537zM24.563 25.449c0.187 0.187 0.441 0.298 0.717 0.298 0.574 0 1.015-0.43 1.015-1.004 0-0.276-0.121-0.529-0.298-0.717l-8.625-8.448v1.18l8.625-8.438c0.176-0.188 0.298-0.452 0.298-0.717 0-0.574-0.441-1.015-1.015-1.015-0.276 0-0.518 0.11-0.717 0.298l-8.735 8.548c-0.21 0.176-0.331 0.452-0.331 0.739 0 0.276 0.121 0.529 0.331 0.739l8.735 8.537z"></path>
</svg>
