<!-- Generated by IcoMoon.io -->
<svg version="1.1" xmlns="http://www.w3.org/2000/svg" width="32" height="32" viewBox="0 0 32 32">
<title>chevron-up-circle-fill</title>
<path d="M15.956 27.206c6.154 0 11.25-5.107 11.25-11.25 0-6.154-5.107-11.25-11.261-11.25-6.143 0-11.239 5.096-11.239 11.25 0 6.143 5.107 11.25 11.25 11.25zM10.331 18.614c-0.309-0.309-0.298-0.849 0.044-1.202l4.456-4.743c0.717-0.75 1.544-0.75 2.261 0l4.456 4.743c0.353 0.353 0.364 0.893 0.044 1.202-0.353 0.364-0.904 0.364-1.224 0.022l-4.401-4.665-4.412 4.665c-0.32 0.342-0.871 0.342-1.224-0.022z"></path>
</svg>
