<!-- Generated by IcoMoon.io -->
<svg version="1.1" xmlns="http://www.w3.org/2000/svg" width="32" height="32" viewBox="0 0 32 32">
<title>chevron-forward-circle-fill</title>
<path d="M15.956 27.206c6.154 0 11.25-5.107 11.25-11.25 0-6.154-5.107-11.25-11.261-11.25-6.143 0-11.239 5.096-11.239 11.25 0 6.143 5.107 11.25 11.25 11.25zM13.342 21.592c-0.342-0.353-0.342-0.904 0-1.224l4.676-4.401-4.676-4.39c-0.353-0.331-0.342-0.893 0.011-1.224 0.331-0.32 0.86-0.287 1.213 0.044l4.732 4.445c0.651 0.607 0.64 1.654 0 2.25l-4.732 4.456c-0.32 0.309-0.915 0.331-1.224 0.044z"></path>
</svg>
