<!-- Generated by IcoMoon.io -->
<svg version="1.1" xmlns="http://www.w3.org/2000/svg" width="32" height="32" viewBox="0 0 32 32">
<title>chevron-right-square-fill</title>
<path d="M9.11 25.974h13.379c2.316 0 3.463-1.147 3.463-3.419v-13.467c0-2.272-1.147-3.419-3.463-3.419h-13.379c-2.305 0-3.463 1.136-3.463 3.419v13.467c0 2.283 1.158 3.419 3.463 3.419zM13.202 21.441c-0.353-0.353-0.353-0.904-0.011-1.224l4.677-4.401-4.677-4.39c-0.353-0.331-0.342-0.893 0.022-1.224 0.32-0.32 0.849-0.287 1.202 0.044l4.732 4.445c0.651 0.607 0.651 1.654 0 2.25l-4.732 4.456c-0.32 0.309-0.915 0.331-1.213 0.044z"></path>
</svg>
