<!-- Generated by IcoMoon.io -->
<svg version="1.1" xmlns="http://www.w3.org/2000/svg" width="32" height="32" viewBox="0 0 32 32">
<title>chevron-backward-circle</title>
<path d="M15.956 27.206c6.154 0 11.25-5.107 11.25-11.25 0-6.154-5.107-11.25-11.261-11.25-6.143 0-11.239 5.096-11.239 11.25 0 6.143 5.107 11.25 11.25 11.25zM15.956 25.331c-5.206 0-9.364-4.169-9.364-9.375s4.147-9.375 9.353-9.375c5.206 0 9.386 4.169 9.386 9.375s-4.169 9.375-9.375 9.375zM18.129 21.415c0.342-0.342 0.331-0.871 0.011-1.18l-4.533-4.279 4.533-4.257c0.331-0.309 0.32-0.86-0.022-1.18-0.309-0.298-0.816-0.287-1.158 0.033l-4.588 4.335c-0.629 0.574-0.629 1.588 0 2.162l4.588 4.335c0.309 0.287 0.882 0.309 1.169 0.033z"></path>
</svg>
