<!-- Generated by IcoMoon.io -->
<svg version="1.1" xmlns="http://www.w3.org/2000/svg" width="32" height="32" viewBox="0 0 32 32">
<title>chevron-up</title>
<path d="M6.886 19.419c-0.188 0.176-0.298 0.43-0.298 0.717 0 0.574 0.43 1.004 1.004 1.004 0.287 0 0.551-0.099 0.717-0.287l8.449-8.625h-1.18l8.448 8.625c0.176 0.188 0.441 0.287 0.717 0.287 0.573 0 1.004-0.43 1.004-1.004 0-0.287-0.11-0.54-0.298-0.717l-8.537-8.735c-0.188-0.21-0.463-0.331-0.739-0.331-0.287 0-0.551 0.121-0.75 0.331l-8.537 8.735z"></path>
</svg>
