<!-- Generated by IcoMoon.io -->
<svg version="1.1" xmlns="http://www.w3.org/2000/svg" width="32" height="32" viewBox="0 0 32 32">
<title>chevron-forward-2</title>
<path d="M6.651 25.746c0.287 0 0.529-0.11 0.728-0.298l8.735-8.537c0.21-0.21 0.32-0.463 0.32-0.739 0-0.287-0.11-0.563-0.32-0.739l-8.746-8.548c-0.188-0.188-0.43-0.298-0.717-0.298-0.574 0-1.004 0.441-1.004 1.015 0 0.265 0.11 0.529 0.287 0.717l8.636 8.438v-1.18l-8.636 8.448c-0.176 0.188-0.287 0.441-0.287 0.717 0 0.573 0.43 1.004 1.004 1.004zM16.511 25.746c0.287 0 0.529-0.11 0.717-0.298l8.735-8.537c0.21-0.21 0.331-0.463 0.331-0.739 0-0.287-0.121-0.563-0.331-0.739l-8.735-8.548c-0.198-0.188-0.43-0.298-0.717-0.298-0.574 0-1.015 0.441-1.015 1.015 0 0.265 0.121 0.529 0.298 0.717l8.625 8.438v-1.18l-8.625 8.448c-0.176 0.188-0.298 0.441-0.298 0.717 0 0.573 0.441 1.004 1.015 1.004z"></path>
</svg>
