<!-- Generated by IcoMoon.io -->
<svg version="1.1" xmlns="http://www.w3.org/2000/svg" width="32" height="32" viewBox="0 0 32 32">
<title>chevron-backward-circle-fill</title>
<path d="M15.956 27.206c6.154 0 11.25-5.107 11.25-11.25 0-6.154-5.107-11.25-11.261-11.25-6.143 0-11.239 5.096-11.239 11.25 0 6.143 5.107 11.25 11.25 11.25zM18.14 21.415c-0.287 0.276-0.86 0.254-1.169-0.033l-4.588-4.335c-0.629-0.574-0.629-1.588 0-2.162l4.588-4.335c0.342-0.32 0.849-0.331 1.158-0.033 0.342 0.32 0.353 0.871 0.022 1.18l-4.533 4.257 4.533 4.279c0.32 0.309 0.331 0.838-0.011 1.18z"></path>
</svg>
