<!-- Generated by IcoMoon.io -->
<svg version="1.1" xmlns="http://www.w3.org/2000/svg" width="32" height="32" viewBox="0 0 32 32">
<title>chevron-left</title>
<path d="M10.353 16.162c0 0.276 0.099 0.518 0.309 0.728l8.746 8.548c0.187 0.199 0.43 0.298 0.717 0.298 0.574 0 1.015-0.43 1.015-1.004 0-0.287-0.121-0.529-0.298-0.717l-8.029-7.853 8.029-7.853c0.176-0.188 0.298-0.441 0.298-0.717 0-0.574-0.441-1.004-1.015-1.004-0.287 0-0.529 0.099-0.717 0.287l-8.746 8.559c-0.21 0.199-0.309 0.452-0.309 0.728z"></path>
</svg>
