<!-- Generated by IcoMoon.io -->
<svg version="1.1" xmlns="http://www.w3.org/2000/svg" width="32" height="32" viewBox="0 0 32 32">
<title>chevron-up-square</title>
<path d="M9.11 25.974h13.379c2.316 0 3.463-1.147 3.463-3.419v-13.467c0-2.272-1.147-3.419-3.463-3.419h-13.379c-2.305 0-3.463 1.136-3.463 3.419v13.467c0 2.283 1.158 3.419 3.463 3.419zM9.132 24.198c-1.103 0-1.71-0.585-1.71-1.732v-13.29c0-1.147 0.607-1.732 1.71-1.732h13.335c1.092 0 1.71 0.585 1.71 1.732v13.29c0 1.147-0.618 1.732-1.71 1.732h-13.335zM10.368 18.364c0.331 0.353 0.871 0.353 1.18 0.022l4.268-4.522 4.279 4.522c0.309 0.331 0.849 0.331 1.18-0.022 0.298-0.298 0.287-0.816-0.033-1.158l-4.335-4.599c-0.695-0.728-1.489-0.728-2.173 0l-4.335 4.599c-0.331 0.342-0.342 0.86-0.033 1.158z"></path>
</svg>
