<!-- Generated by IcoMoon.io -->
<svg version="1.1" xmlns="http://www.w3.org/2000/svg" width="32" height="32" viewBox="0 0 32 32">
<title>chevron-compact-down</title>
<path d="M7.283 15.261l7.533 2.945c0.507 0.198 1.114 0.441 1.61 0.441 0.485 0 1.103-0.243 1.61-0.441l7.522-2.945c0.419-0.165 0.695-0.54 0.695-0.949 0-0.651-0.474-1.136-1.114-1.136-0.331 0-0.772 0.187-1.048 0.287l-8.449 3.32h1.555l-8.448-3.32c-0.276-0.099-0.706-0.287-1.048-0.287-0.64 0-1.114 0.485-1.114 1.136 0 0.408 0.276 0.783 0.695 0.949z"></path>
</svg>
