<!-- Generated by IcoMoon.io -->
<svg version="1.1" xmlns="http://www.w3.org/2000/svg" width="32" height="32" viewBox="0 0 32 32">
<title>circle-grid-cross-fill</title>
<path d="M7.632 20.702c2.636 0 4.809-2.173 4.809-4.809 0-2.625-2.173-4.798-4.809-4.798-2.658 0-4.809 2.173-4.809 4.798 0 2.636 2.151 4.809 4.809 4.809zM15.64 12.43c2.636 0 4.809-2.173 4.809-4.809s-2.173-4.798-4.809-4.798c-2.647 0-4.809 2.162-4.809 4.798s2.162 4.809 4.809 4.809zM23.669 20.702c2.625 0 4.798-2.173 4.798-4.809 0-2.625-2.173-4.798-4.798-4.798-2.658 0-4.82 2.173-4.82 4.798 0 2.636 2.162 4.809 4.82 4.809zM15.64 28.974c2.636 0 4.809-2.173 4.809-4.809 0-2.625-2.173-4.798-4.809-4.798-2.647 0-4.809 2.173-4.809 4.798 0 2.636 2.162 4.809 4.809 4.809z"></path>
</svg>
