<!-- Generated by IcoMoon.io -->
<svg version="1.1" xmlns="http://www.w3.org/2000/svg" width="32" height="32" viewBox="0 0 32 32">
<title>circle-circle-fill</title>
<path d="M15.956 27.206c6.154 0 11.25-5.107 11.25-11.25 0-6.154-5.107-11.25-11.261-11.25-6.143 0-11.239 5.096-11.239 11.25 0 6.143 5.107 11.25 11.25 11.25zM15.956 22.066c-3.309 0-6.088-2.79-6.088-6.099 0-3.32 2.768-6.099 6.088-6.099 3.309 0 6.099 2.79 6.099 6.099 0 3.32-2.779 6.099-6.099 6.099zM15.956 20.279c2.36 0 4.301-1.952 4.301-4.313 0-2.349-1.952-4.312-4.301-4.312-2.36 0-4.301 1.952-4.301 4.312 0 2.349 1.963 4.313 4.301 4.313z"></path>
</svg>
