<!-- Generated by IcoMoon.io -->
<svg version="1.1" xmlns="http://www.w3.org/2000/svg" width="32" height="32" viewBox="0 0 32 32">
<title>circle-grid-3x3-circle-fill</title>
<path d="M15.956 27.206c6.154 0 11.25-5.107 11.25-11.25 0-6.154-5.107-11.25-11.261-11.25-6.143 0-11.239 5.096-11.239 11.25 0 6.143 5.107 11.25 11.25 11.25zM11.985 13.816c-0.86 0-1.566-0.717-1.566-1.566 0-0.871 0.706-1.577 1.566-1.577s1.555 0.706 1.555 1.577c0 0.849-0.695 1.566-1.555 1.566zM15.956 13.816c-0.86 0-1.566-0.717-1.566-1.566 0-0.882 0.706-1.566 1.566-1.577 0.86 0 1.566 0.695 1.566 1.577 0 0.849-0.706 1.566-1.566 1.566zM19.927 13.816c-0.86 0-1.555-0.717-1.555-1.566 0-0.882 0.695-1.566 1.555-1.577 0.86 0 1.566 0.695 1.566 1.577 0 0.849-0.706 1.566-1.566 1.566zM11.985 17.522c-0.86 0-1.566-0.717-1.566-1.566 0-0.86 0.706-1.566 1.566-1.566 0.86-0.011 1.555 0.706 1.555 1.566 0 0.849-0.695 1.566-1.555 1.566zM15.956 17.522c-0.86 0-1.566-0.717-1.566-1.566 0-0.86 0.706-1.566 1.566-1.566 0.86-0.011 1.566 0.706 1.566 1.566 0 0.849-0.706 1.566-1.566 1.566zM19.927 17.522c-0.86 0-1.555-0.717-1.555-1.566 0-0.86 0.695-1.566 1.555-1.566 0.86-0.011 1.566 0.706 1.566 1.566 0 0.849-0.706 1.566-1.566 1.566zM11.985 21.239c-0.86 0-1.566-0.706-1.566-1.577 0-0.849 0.706-1.566 1.566-1.566s1.555 0.717 1.555 1.566c0 0.882-0.695 1.577-1.555 1.577zM15.956 21.239c-0.86 0-1.566-0.706-1.566-1.577 0-0.849 0.706-1.566 1.566-1.566s1.566 0.717 1.566 1.566c0 0.871-0.706 1.577-1.566 1.577zM19.927 21.239c-0.86 0-1.555-0.706-1.555-1.577 0-0.849 0.695-1.566 1.555-1.566s1.566 0.717 1.566 1.566c0 0.871-0.706 1.577-1.566 1.577z"></path>
</svg>
