<!-- Generated by IcoMoon.io -->
<svg version="1.1" xmlns="http://www.w3.org/2000/svg" width="32" height="32" viewBox="0 0 32 32">
<title>circle-grid-3x3-circle</title>
<path d="M15.956 27.206c6.154 0 11.25-5.107 11.25-11.25 0-6.154-5.107-11.25-11.261-11.25-6.143 0-11.239 5.096-11.239 11.25 0 6.143 5.107 11.25 11.25 11.25zM15.956 25.331c-5.206 0-9.364-4.169-9.364-9.375s4.147-9.375 9.353-9.375c5.206 0 9.386 4.169 9.386 9.375s-4.169 9.375-9.375 9.375zM12.096 13.882c0.838 0 1.511-0.695 1.511-1.533 0-0.827-0.673-1.522-1.511-1.522s-1.522 0.695-1.522 1.522c0 0.838 0.684 1.533 1.522 1.533zM15.945 13.882c0.838 0 1.522-0.695 1.522-1.533s-0.684-1.522-1.522-1.522c-0.838 0.011-1.533 0.684-1.533 1.522s0.695 1.533 1.533 1.533zM19.794 13.882c0.838 0 1.522-0.695 1.522-1.533s-0.684-1.522-1.522-1.522c-0.838 0.011-1.511 0.684-1.511 1.522s0.673 1.533 1.511 1.533zM12.096 17.478c0.838 0 1.511-0.695 1.511-1.533s-0.673-1.522-1.511-1.511c-0.838 0-1.522 0.673-1.522 1.511s0.684 1.533 1.522 1.533zM15.945 17.478c0.838 0 1.522-0.695 1.522-1.533s-0.684-1.522-1.522-1.511c-0.838 0-1.533 0.673-1.533 1.511s0.695 1.533 1.533 1.533zM19.794 17.478c0.838 0 1.522-0.695 1.522-1.533s-0.684-1.522-1.522-1.511c-0.838 0-1.511 0.673-1.511 1.511s0.673 1.533 1.511 1.533zM12.096 21.073c0.838 0 1.511-0.684 1.511-1.522s-0.673-1.533-1.511-1.533c-0.838 0-1.522 0.695-1.522 1.533 0 0.827 0.684 1.522 1.522 1.522zM15.945 21.073c0.838 0 1.522-0.695 1.522-1.522 0-0.838-0.684-1.533-1.522-1.533s-1.533 0.695-1.533 1.533c0 0.827 0.695 1.522 1.533 1.522zM19.794 21.073c0.838 0 1.522-0.695 1.522-1.522 0-0.838-0.684-1.533-1.522-1.533s-1.511 0.695-1.511 1.533c0 0.827 0.673 1.522 1.511 1.522z"></path>
</svg>
