<!-- Generated by IcoMoon.io -->
<svg version="1.1" xmlns="http://www.w3.org/2000/svg" width="32" height="32" viewBox="0 0 32 32">
<title>circle-grid-3x3-fill</title>
<path d="M7.871 12c1.743 0 3.165-1.434 3.165-3.154 0-1.743-1.423-3.188-3.165-3.188s-3.165 1.445-3.165 3.188c0 1.721 1.423 3.154 3.165 3.154zM15.879 12.011c1.732 0 3.176-1.445 3.176-3.176 0-1.754-1.445-3.188-3.176-3.176-1.743 0.011-3.187 1.423-3.187 3.176 0 1.732 1.445 3.176 3.187 3.176zM23.875 12.011c1.743 0 3.165-1.445 3.165-3.176 0-1.754-1.423-3.188-3.165-3.176-1.754 0.011-3.165 1.412-3.165 3.176 0 1.732 1.423 3.176 3.165 3.176zM7.871 19.489c1.743 0 3.165-1.445 3.165-3.176 0-1.743-1.434-3.176-3.165-3.165-1.743 0.011-3.165 1.423-3.165 3.165 0 1.732 1.423 3.176 3.165 3.176zM15.879 19.489c1.732 0 3.176-1.445 3.176-3.176 0-1.743-1.445-3.176-3.176-3.165-1.743 0.011-3.187 1.423-3.187 3.165 0 1.732 1.445 3.176 3.187 3.176zM23.875 19.489c1.743 0 3.165-1.445 3.165-3.176 0-1.743-1.423-3.176-3.165-3.165s-3.165 1.423-3.165 3.165c0 1.732 1.423 3.176 3.165 3.176zM7.871 26.967c1.743 0 3.165-1.423 3.165-3.176 0-1.732-1.434-3.165-3.165-3.165-1.743 0-3.165 1.423-3.165 3.165 0 1.732 1.423 3.176 3.165 3.176zM15.879 26.967c1.732 0 3.176-1.445 3.176-3.176 0-1.743-1.445-3.165-3.176-3.165-1.743 0-3.187 1.423-3.187 3.165 0 1.732 1.445 3.176 3.187 3.176zM23.875 26.967c1.743 0 3.165-1.445 3.165-3.176 0-1.743-1.423-3.165-3.165-3.165s-3.165 1.423-3.165 3.165c0 1.732 1.423 3.176 3.165 3.176z"></path>
</svg>
