<!-- Generated by IcoMoon.io -->
<svg version="1.1" xmlns="http://www.w3.org/2000/svg" width="32" height="32" viewBox="0 0 32 32">
<title>circle-hexagongrid-fill</title>
<path d="M12.040 12.232c1.809 0 3.298-1.5 3.298-3.287 0-1.798-1.489-3.298-3.298-3.298-1.798 0-3.287 1.5-3.287 3.298 0 1.776 1.478 3.287 3.287 3.287zM20.136 12.232c1.798 0 3.287-1.5 3.287-3.287 0-1.798-1.489-3.298-3.287-3.298-1.809 0-3.298 1.5-3.298 3.298 0 1.787 1.489 3.287 3.298 3.287zM8.004 19.489c1.798 0 3.298-1.5 3.298-3.298s-1.5-3.298-3.298-3.298-3.298 1.5-3.298 3.298c0 1.787 1.478 3.298 3.298 3.298zM16.088 19.489c1.798 0 3.298-1.5 3.298-3.298s-1.5-3.298-3.298-3.298c-1.798 0-3.298 1.5-3.298 3.298s1.5 3.298 3.298 3.298zM24.173 19.489c1.798 0 3.298-1.5 3.298-3.298s-1.5-3.298-3.298-3.298-3.298 1.5-3.298 3.298c0 1.798 1.5 3.298 3.298 3.298zM12.040 26.724c1.809 0 3.298-1.489 3.298-3.287s-1.489-3.287-3.298-3.287c-1.798 0-3.287 1.489-3.287 3.287 0 1.787 1.478 3.287 3.287 3.287zM20.136 26.724c1.798 0 3.287-1.489 3.287-3.287s-1.489-3.287-3.287-3.287c-1.809 0-3.298 1.489-3.298 3.287s1.489 3.287 3.298 3.287z"></path>
</svg>
