<!-- Generated by IcoMoon.io -->
<svg version="1.1" xmlns="http://www.w3.org/2000/svg" width="32" height="32" viewBox="0 0 32 32">
<title>circle-rectangle-filled-pattern-diagonalline</title>
<path d="M15.783 21.949c3.386 0 6.132-2.746 6.132-6.143 0-3.386-2.746-6.132-6.132-6.132-3.397 0-6.143 2.746-6.143 6.132 0 3.397 2.746 6.143 6.143 6.143zM15.783 20.526c-2.625 0-4.721-2.096-4.721-4.721s2.096-4.71 4.721-4.71c2.625 0 4.71 2.085 4.71 4.71s-2.085 4.721-4.71 4.721zM3.893 16.324l9.915-9.915h-2.36l-7.555 7.566v2.349zM15.662 10.566h2.349l4.114-4.114-2.25-0.088-4.213 4.202zM3.96 24.607l6.364-6.353v-2.338l-6.43 6.43 0.066 2.261zM21.022 15.993l6.574-6.574-0.088-2.239-6.485 6.496v2.316zM12.132 24.893l3.827-3.838h-2.338l-3.75 3.75 2.261 0.088zM18.187 24.849h2.36l7.026-7.037v-2.36l-9.386 9.397zM6.287 25.952h19.081c2.316 0 3.463-1.136 3.463-3.408v-13.478c0-2.272-1.147-3.419-3.463-3.419h-19.081c-2.305 0-3.463 1.147-3.463 3.419v13.478c0 2.272 1.158 3.408 3.463 3.408zM6.309 24.176c-1.103 0-1.71-0.585-1.71-1.732v-13.279c0-1.147 0.607-1.743 1.71-1.743h19.037c1.092 0 1.71 0.596 1.71 1.743v13.279c0 1.147-0.618 1.732-1.71 1.732h-19.037z"></path>
</svg>
