<!-- Generated by IcoMoon.io -->
<svg version="1.1" xmlns="http://www.w3.org/2000/svg" width="32" height="32" viewBox="0 0 32 32">
<title>circle-square</title>
<path d="M9.11 25.974h13.379c2.316 0 3.463-1.147 3.463-3.419v-13.467c0-2.272-1.147-3.419-3.463-3.419h-13.379c-2.305 0-3.463 1.136-3.463 3.419v13.467c0 2.283 1.158 3.419 3.463 3.419zM9.132 24.198c-1.103 0-1.71-0.585-1.71-1.732v-13.29c0-1.147 0.607-1.732 1.71-1.732h13.335c1.092 0 1.71 0.585 1.71 1.732v13.29c0 1.147-0.618 1.732-1.71 1.732h-13.335zM15.805 21.728c3.221 0 5.912-2.691 5.912-5.912 0-3.21-2.702-5.912-5.912-5.912-3.221 0-5.901 2.691-5.901 5.912 0 3.21 2.691 5.912 5.901 5.912zM15.805 20.007c-2.272 0-4.18-1.908-4.18-4.191 0-2.294 1.897-4.191 4.18-4.191s4.18 1.908 4.18 4.191c0 2.294-1.886 4.191-4.18 4.191z"></path>
</svg>
