<!-- Generated by IcoMoon.io -->
<svg version="1.1" xmlns="http://www.w3.org/2000/svg" width="32" height="32" viewBox="0 0 32 32">
<title>circle-grid-2x2-fill</title>
<path d="M9.515 15.254c2.636 0 4.809-2.173 4.809-4.809s-2.173-4.798-4.809-4.798c-2.658 0-4.809 2.162-4.809 4.798s2.151 4.809 4.809 4.809zM21.658 15.254c2.636 0 4.798-2.173 4.798-4.809s-2.162-4.798-4.798-4.798c-2.658 0-4.809 2.162-4.809 4.798s2.151 4.809 4.809 4.809zM9.515 26.592c2.636 0 4.809-2.173 4.809-4.809 0-2.625-2.173-4.798-4.809-4.798-2.658 0-4.809 2.173-4.809 4.798 0 2.636 2.151 4.809 4.809 4.809zM21.658 26.592c2.636 0 4.798-2.173 4.798-4.809 0-2.625-2.162-4.798-4.798-4.798-2.658 0-4.809 2.173-4.809 4.798 0 2.636 2.151 4.809 4.809 4.809z"></path>
</svg>
