<!-- Generated by IcoMoon.io -->
<svg version="1.1" xmlns="http://www.w3.org/2000/svg" width="32" height="32" viewBox="0 0 32 32">
<title>circle-and-line-horizontal</title>
<path d="M0.941 15.956c0 0.474 0.386 0.882 0.849 0.882h29.206c0.463 0 0.849-0.408 0.849-0.882s-0.386-0.871-0.849-0.871h-29.206c-0.463 0-0.849 0.397-0.849 0.871zM16.404 27.206c6.143 0 11.25-5.107 11.25-11.25 0-6.154-5.118-11.25-11.261-11.25-6.154 0-11.239 5.096-11.239 11.25 0 6.143 5.096 11.25 11.25 11.25zM16.404 25.331c-5.206 0-9.375-4.169-9.375-9.375s4.158-9.375 9.364-9.375c5.195 0 9.386 4.169 9.386 9.375s-4.18 9.375-9.375 9.375z"></path>
</svg>
