<!-- Generated by IcoMoon.io -->
<svg version="1.1" xmlns="http://www.w3.org/2000/svg" width="32" height="32" viewBox="0 0 32 32">
<title>circle-slash-fill</title>
<path d="M6.669 9.68c-1.246 1.787-1.963 3.96-1.963 6.276 0 6.143 5.107 11.25 11.25 11.25 2.316 0 4.456-0.728 6.265-1.952l-15.552-15.573zM25.243 22.243c1.235-1.798 1.963-3.971 1.963-6.287 0-6.154-5.107-11.25-11.261-11.25-2.316 0-4.467 0.728-6.265 1.952l15.562 15.585zM25.463 26.688c0.331 0.331 0.882 0.32 1.202-0.011 0.331-0.342 0.331-0.871 0-1.202l-20.228-20.239c-0.331-0.331-0.871-0.331-1.213 0-0.32 0.32-0.32 0.882 0 1.202l20.239 20.25z"></path>
</svg>
