<!-- Generated by IcoMoon.io -->
<svg version="1.1" xmlns="http://www.w3.org/2000/svg" width="32" height="32" viewBox="0 0 32 32">
<title>circle-hexagonpath</title>
<path d="M11.496 12.063c2.007 0 3.684-1.665 3.684-3.673s-1.676-3.684-3.684-3.684c-2.007 0-3.684 1.676-3.684 3.684s1.676 3.673 3.684 3.673zM11.496 10.287c-1.037 0-1.908-0.871-1.908-1.897 0-1.037 0.871-1.908 1.908-1.908s1.908 0.871 1.908 1.908c0 1.026-0.871 1.897-1.908 1.897zM19.581 12.063c2.007 0 3.684-1.665 3.684-3.673s-1.677-3.684-3.684-3.684c-2.007 0-3.684 1.676-3.684 3.684s1.677 3.673 3.684 3.673zM19.581 10.287c-1.037 0-1.908-0.871-1.908-1.897 0-1.037 0.871-1.908 1.908-1.908s1.908 0.871 1.908 1.908c0 1.026-0.871 1.897-1.908 1.897zM7.449 19.32c2.018 0 3.695-1.676 3.695-3.684s-1.676-3.684-3.695-3.684c-2.007 0-3.684 1.677-3.684 3.684s1.676 3.684 3.684 3.684zM7.449 17.544c-1.037 0-1.908-0.871-1.908-1.908s0.871-1.908 1.908-1.908 1.919 0.871 1.919 1.908c0 1.037-0.882 1.908-1.919 1.908zM23.629 19.32c2.007 0 3.684-1.676 3.684-3.684s-1.676-3.684-3.684-3.684c-2.007 0-3.695 1.677-3.695 3.684s1.688 3.684 3.695 3.684zM23.629 17.544c-1.037 0-1.919-0.871-1.919-1.908s0.882-1.908 1.919-1.908c1.037 0 1.908 0.871 1.908 1.908s-0.871 1.908-1.908 1.908zM11.496 26.566c2.007 0 3.684-1.677 3.684-3.684 0-2.018-1.676-3.684-3.684-3.684s-3.684 1.666-3.684 3.684c0 2.007 1.676 3.684 3.684 3.684zM11.496 24.79c-1.037 0-1.908-0.871-1.908-1.908s0.871-1.908 1.908-1.908c1.037 0 1.908 0.871 1.908 1.908s-0.871 1.908-1.908 1.908zM19.581 26.566c2.007 0 3.684-1.677 3.684-3.684 0-2.018-1.677-3.684-3.684-3.684s-3.684 1.666-3.684 3.684c0 2.007 1.677 3.684 3.684 3.684zM19.581 24.79c-1.037 0-1.908-0.871-1.908-1.908s0.871-1.908 1.908-1.908c1.037 0 1.908 0.871 1.908 1.908s-0.871 1.908-1.908 1.908z"></path>
</svg>
