<!-- Generated by IcoMoon.io -->
<svg version="1.1" xmlns="http://www.w3.org/2000/svg" width="32" height="32" viewBox="0 0 32 32">
<title>circle-dashed-rectangle</title>
<path d="M9.728 15.055h1.434c0.121-0.75 0.419-1.445 0.86-2.029l-1.004-1.015c-0.695 0.86-1.158 1.908-1.29 3.044zM12.077 10.952l1.026 1.026c0.585-0.419 1.246-0.706 1.985-0.827v-1.434c-1.125 0.132-2.151 0.585-3.011 1.235zM16.588 9.717v1.434c0.728 0.121 1.401 0.408 1.974 0.816l1.015-1.004c-0.838-0.662-1.875-1.103-2.989-1.246zM20.658 12.022l-1.015 1.015c0.43 0.585 0.739 1.268 0.849 2.018h1.434c-0.143-1.136-0.596-2.173-1.268-3.033zM21.927 16.566h-1.445c-0.121 0.717-0.408 1.39-0.816 1.963l1.015 1.015c0.662-0.838 1.103-1.875 1.246-2.978zM19.61 20.614l-1.015-1.015c-0.574 0.441-1.257 0.75-2.007 0.849v1.456c1.136-0.143 2.184-0.607 3.022-1.29zM15.088 21.904v-1.456c-0.75-0.099-1.434-0.408-2.018-0.838l-1.026 1.015c0.86 0.684 1.908 1.136 3.044 1.279zM10.985 19.566l1.015-1.026c-0.419-0.574-0.706-1.246-0.827-1.974h-1.445c0.143 1.114 0.585 2.151 1.257 3zM6.287 25.952h19.081c2.316 0 3.463-1.136 3.463-3.408v-13.478c0-2.272-1.147-3.419-3.463-3.419h-19.081c-2.305 0-3.463 1.147-3.463 3.419v13.478c0 2.272 1.158 3.408 3.463 3.408zM6.309 24.176c-1.103 0-1.71-0.585-1.71-1.732v-13.279c0-1.147 0.607-1.743 1.71-1.743h19.037c1.092 0 1.71 0.596 1.71 1.743v13.279c0 1.147-0.618 1.732-1.71 1.732h-19.037z"></path>
</svg>
