<!-- Generated by IcoMoon.io -->
<svg version="1.1" xmlns="http://www.w3.org/2000/svg" width="32" height="32" viewBox="0 0 32 32">
<title>circle-dotted</title>
<path d="M15.923 27.151c0.562 0 1.004-0.452 1.004-1.004 0-0.54-0.441-0.993-1.004-0.993-0.529 0-0.982 0.452-0.982 0.993 0 0.552 0.452 1.004 0.982 1.004zM19.099 26.643c0.54 0 1.004-0.452 1.004-1.004 0-0.54-0.463-0.993-1.004-0.993s-0.993 0.452-0.993 0.993c0 0.551 0.441 1.004 0.993 1.004zM21.956 25.187c0.54 0 1.004-0.452 1.004-1.004 0-0.54-0.463-0.993-1.004-0.993s-0.993 0.452-0.993 0.993c0 0.551 0.441 1.004 0.993 1.004zM24.217 22.915c0.551 0 1.004-0.452 1.004-1.004 0-0.54-0.452-0.982-1.004-0.982-0.541 0-0.993 0.441-0.993 0.982 0 0.552 0.452 1.004 0.993 1.004zM25.662 20.092c0.552 0 1.004-0.452 1.004-1.004 0-0.54-0.452-0.993-1.004-0.993-0.54 0-0.993 0.452-0.993 0.993 0 0.552 0.452 1.004 0.993 1.004zM26.202 16.927c0.552 0 1.004-0.452 1.004-1.004 0-0.54-0.452-0.993-1.004-0.993-0.54 0-0.982 0.452-0.982 0.993 0 0.551 0.441 1.004 0.982 1.004zM25.662 13.761c0.552 0 1.004-0.452 1.004-0.993 0-0.551-0.452-1.004-1.004-1.004-0.54 0-0.993 0.452-0.993 1.004 0 0.54 0.452 0.993 0.993 0.993zM24.217 10.927c0.551 0 1.004-0.441 1.004-0.982 0-0.551-0.452-1.004-1.004-1.004-0.541 0-0.993 0.452-0.993 1.004 0 0.54 0.452 0.982 0.993 0.982zM21.956 8.665c0.54 0 1.004-0.452 1.004-0.993 0-0.551-0.463-1.004-1.004-1.004-0.551 0-0.993 0.452-0.993 1.004 0 0.54 0.452 0.993 0.993 0.993zM19.099 7.21c0.54 0 1.004-0.452 1.004-0.993 0-0.551-0.463-1.004-1.004-1.004-0.552 0-0.993 0.452-0.993 1.004 0 0.54 0.452 0.993 0.993 0.993zM15.923 6.702c0.562 0 1.004-0.452 1.004-0.993 0-0.551-0.441-1.004-1.004-1.004-0.529 0-0.982 0.452-0.982 1.004 0 0.54 0.452 0.993 0.982 0.993zM12.779 7.21c0.54 0 0.993-0.452 0.993-0.993 0-0.551-0.452-1.004-0.993-1.004-0.551 0-1.004 0.452-1.004 1.004 0 0.54 0.452 0.993 1.004 0.993zM9.934 8.665c0.54 0 0.993-0.452 0.993-0.993 0-0.551-0.452-1.004-0.993-1.004-0.551 0-1.004 0.452-1.004 1.004 0 0.54 0.452 0.993 1.004 0.993zM7.684 10.927c0.529 0 0.993-0.441 0.993-0.982 0-0.551-0.452-1.004-0.993-1.004-0.551 0-1.004 0.452-1.004 1.004 0 0.54 0.452 0.982 1.004 0.982zM6.239 13.761c0.54 0 0.993-0.452 0.993-0.993 0-0.551-0.452-1.004-0.993-1.004-0.551 0-1.004 0.452-1.004 1.004 0 0.54 0.452 0.993 1.004 0.993zM5.71 16.927c0.54 0 0.982-0.452 0.982-1.004 0-0.54-0.441-0.993-0.982-0.993-0.551 0-1.004 0.452-1.004 0.993 0 0.551 0.452 1.004 1.004 1.004zM6.239 20.092c0.54 0 0.993-0.452 0.993-1.004 0-0.54-0.452-0.993-0.993-0.993-0.551 0-1.004 0.452-1.004 0.993 0 0.552 0.452 1.004 1.004 1.004zM7.684 22.915c0.54 0 0.993-0.452 0.993-1.004 0-0.54-0.463-0.982-0.993-0.982-0.551 0-1.004 0.441-1.004 0.982 0 0.552 0.452 1.004 1.004 1.004zM9.934 25.187c0.54 0 0.993-0.452 0.993-1.004 0-0.54-0.452-0.993-0.993-0.993-0.551 0-1.004 0.452-1.004 0.993 0 0.551 0.452 1.004 1.004 1.004zM12.779 26.643c0.54 0 0.993-0.452 0.993-1.004 0-0.54-0.452-0.993-0.993-0.993-0.551 0-1.004 0.452-1.004 0.993 0 0.551 0.452 1.004 1.004 1.004z"></path>
</svg>
