<!-- Generated by IcoMoon.io -->
<svg version="1.1" xmlns="http://www.w3.org/2000/svg" width="32" height="32" viewBox="0 0 32 32">
<title>circle-dashed-inset-filled</title>
<path d="M6.592 15.956c0-1.004 0.154-1.974 0.441-2.868l-1.732-0.728c-0.375 1.136-0.596 2.338-0.596 3.596 0 1.246 0.221 2.46 0.607 3.596l1.721-0.728c-0.287-0.893-0.441-1.864-0.441-2.868zM11.665 7.596l-0.706-1.699c-2.184 1.092-3.982 2.89-5.074 5.074l1.721 0.717c0.882-1.754 2.316-3.188 4.059-4.092zM15.945 6.581c1.004 0 1.974 0.154 2.89 0.452l0.706-1.721c-1.136-0.386-2.349-0.607-3.596-0.607s-2.471 0.221-3.607 0.607l0.728 1.721c0.904-0.298 1.875-0.452 2.879-0.452zM24.305 11.676l1.71-0.706c-1.103-2.184-2.901-3.982-5.085-5.085l-0.706 1.71c1.743 0.893 3.187 2.327 4.081 4.081zM25.331 15.956c0 1.004-0.154 1.974-0.441 2.879l1.71 0.728c0.386-1.136 0.607-2.36 0.607-3.607 0-1.257-0.221-2.471-0.607-3.607l-1.721 0.728c0.298 0.904 0.452 1.875 0.452 2.879zM20.224 24.305l0.706 1.721c2.195-1.103 3.993-2.901 5.073-5.085l-1.688-0.706c-0.893 1.754-2.338 3.176-4.092 4.070zM15.956 25.331c-1.015 0-1.985-0.154-2.89-0.452l-0.717 1.721c1.136 0.386 2.36 0.607 3.607 0.607s2.46-0.221 3.585-0.596l-0.717-1.721c-0.904 0.287-1.864 0.441-2.868 0.441zM7.607 20.235l-1.71 0.706c1.103 2.184 2.879 3.982 5.062 5.073l0.706-1.721c-1.743-0.893-3.176-2.316-4.059-4.059zM15.934 23.654c4.29 0 7.71-3.419 7.699-7.699s-3.43-7.699-7.71-7.699c-4.279 0-7.677 3.408-7.677 7.698s3.408 7.699 7.688 7.699z"></path>
</svg>
