<!-- Generated by IcoMoon.io -->
<svg version="1.1" xmlns="http://www.w3.org/2000/svg" width="32" height="32" viewBox="0 0 32 32">
<title>circle-circle</title>
<path d="M15.956 27.206c6.154 0 11.25-5.107 11.25-11.25 0-6.154-5.107-11.25-11.261-11.25-6.143 0-11.239 5.096-11.239 11.25 0 6.143 5.107 11.25 11.25 11.25zM15.956 25.331c-5.206 0-9.364-4.169-9.364-9.375s4.147-9.375 9.353-9.375c5.206 0 9.386 4.169 9.386 9.375s-4.169 9.375-9.375 9.375zM15.945 21.879c3.221 0 5.912-2.691 5.912-5.912 0-3.21-2.702-5.912-5.912-5.912-3.221 0-5.901 2.691-5.901 5.912 0 3.21 2.691 5.912 5.901 5.912zM15.945 20.158c-2.272 0-4.18-1.908-4.18-4.191 0-2.294 1.886-4.191 4.18-4.191 2.283 0 4.18 1.908 4.18 4.191 0 2.294-1.886 4.191-4.18 4.191z"></path>
</svg>
