<!-- Generated by IcoMoon.io -->
<svg version="1.1" xmlns="http://www.w3.org/2000/svg" width="32" height="32" viewBox="0 0 32 32">
<title>circle-grid-3x3</title>
<path d="M7.926 11.158c1.765 0 3.21-1.456 3.21-3.21 0-1.765-1.445-3.232-3.21-3.232-1.776 0-3.221 1.467-3.221 3.232 0 1.754 1.445 3.21 3.221 3.21zM7.926 9.526c-0.904 0-1.599-0.706-1.599-1.588 0-0.893 0.695-1.61 1.599-1.61 0.893 0 1.599 0.717 1.599 1.61 0 0.882-0.706 1.588-1.599 1.588zM16.055 11.169c1.754 0 3.221-1.467 3.221-3.232 0-1.776-1.467-3.232-3.221-3.221-1.765 0.011-3.232 1.445-3.232 3.221 0 1.765 1.467 3.232 3.232 3.232zM16.055 9.526c-0.904 0-1.599-0.706-1.599-1.588 0-0.893 0.695-1.61 1.599-1.61s1.577 0.717 1.588 1.61c0.022 0.882-0.684 1.588-1.588 1.588zM24.173 11.169c1.776 0 3.221-1.467 3.221-3.232 0-1.776-1.445-3.232-3.221-3.221-1.765 0.011-3.21 1.445-3.21 3.221 0 1.765 1.445 3.232 3.21 3.232zM24.173 9.581c-0.927 0-1.621-0.728-1.621-1.643 0-0.926 0.695-1.654 1.621-1.654s1.654 0.728 1.654 1.654c0 0.915-0.728 1.643-1.654 1.643zM7.926 18.757c1.765 0 3.21-1.467 3.21-3.221 0-1.765-1.445-3.221-3.21-3.21-1.776 0.011-3.221 1.445-3.221 3.21 0 1.754 1.445 3.221 3.221 3.221zM7.926 17.18c-0.926 0-1.643-0.728-1.643-1.654 0-0.915 0.717-1.655 1.643-1.655s1.632 0.739 1.632 1.655c0 0.927-0.706 1.654-1.632 1.654zM16.055 18.757c1.754 0 3.221-1.467 3.221-3.221 0-1.765-1.467-3.221-3.221-3.21-1.765 0.011-3.232 1.445-3.232 3.21 0 1.754 1.467 3.221 3.232 3.221zM16.055 17.18c-0.927 0-1.654-0.728-1.654-1.654 0-0.915 0.728-1.655 1.654-1.655s1.643 0.739 1.643 1.655c0 0.927-0.717 1.654-1.643 1.654zM24.173 18.757c1.776 0 3.221-1.467 3.221-3.221 0-1.765-1.445-3.221-3.221-3.21-1.765 0.011-3.21 1.445-3.21 3.21 0 1.754 1.445 3.221 3.21 3.221zM24.173 17.18c-0.927 0-1.621-0.728-1.621-1.654 0-0.915 0.695-1.655 1.621-1.655s1.654 0.739 1.654 1.655c0 0.927-0.728 1.654-1.654 1.654zM7.926 26.357c1.765 0 3.21-1.467 3.21-3.221 0-1.776-1.445-3.221-3.21-3.221-1.776 0-3.221 1.445-3.221 3.221 0 1.754 1.445 3.221 3.221 3.221zM7.926 24.779c-0.926 0-1.643-0.728-1.643-1.654 0-0.915 0.717-1.654 1.643-1.654s1.632 0.739 1.632 1.654c0 0.927-0.706 1.654-1.632 1.654zM16.055 26.357c1.754 0 3.221-1.467 3.221-3.221 0-1.776-1.467-3.221-3.221-3.221-1.765 0-3.232 1.445-3.232 3.221 0 1.754 1.467 3.221 3.232 3.221zM16.055 24.779c-0.927 0-1.654-0.728-1.654-1.654 0-0.915 0.728-1.654 1.654-1.654s1.643 0.739 1.643 1.654c0 0.927-0.717 1.654-1.643 1.654zM24.173 26.357c1.776 0 3.221-1.467 3.221-3.221 0-1.776-1.445-3.221-3.221-3.221-1.765 0-3.21 1.445-3.21 3.221 0 1.754 1.445 3.221 3.21 3.221zM24.173 24.779c-0.927 0-1.621-0.728-1.621-1.654 0-0.915 0.695-1.654 1.621-1.654s1.654 0.739 1.654 1.654c0 0.927-0.728 1.654-1.654 1.654z"></path>
</svg>
