<!-- Generated by IcoMoon.io -->
<svg version="1.1" xmlns="http://www.w3.org/2000/svg" width="32" height="32" viewBox="0 0 32 32">
<title>circle-rectangle-dashed</title>
<path d="M15.783 21.96c3.386 0 6.132-2.746 6.132-6.143 0-3.386-2.746-6.132-6.132-6.132-3.397 0-6.143 2.746-6.143 6.132 0 3.397 2.746 6.143 6.143 6.143zM15.783 20.537c-2.625 0-4.721-2.096-4.721-4.721s2.096-4.71 4.721-4.71c2.625 0 4.71 2.085 4.71 4.71s-2.085 4.721-4.71 4.721zM2.824 11.482h1.776v-2.305c0-1.147 0.607-1.732 1.71-1.732h2.283v-1.776h-2.305c-2.305 0-3.463 1.136-3.463 3.419v2.393zM2.824 18.651h1.776v-5.658h-1.776v5.658zM6.287 25.974h2.305v-1.776h-2.283c-1.103 0-1.71-0.585-1.71-1.732v-2.305h-1.776v2.393c0 2.283 1.158 3.419 3.463 3.419zM10.103 25.974h4.974v-1.776h-4.974v1.776zM16.577 25.974h4.974v-1.776h-4.974v1.776zM25.368 25.974c2.305 0 3.463-1.136 3.463-3.419v-2.393h-1.776v2.305c0 1.147-0.607 1.732-1.71 1.732h-2.283v1.776h2.305zM28.831 11.482v-2.393c0-2.283-1.158-3.419-3.463-3.419h-2.305v1.776h2.283c1.103 0 1.71 0.585 1.71 1.732v2.305h1.776zM28.831 18.651v-5.658h-1.776v5.658h1.776zM10.103 7.445h4.974v-1.776h-4.974v1.776zM16.577 7.445h4.974v-1.776h-4.974v1.776z"></path>
</svg>
