<!-- Generated by IcoMoon.io -->
<svg version="1.1" xmlns="http://www.w3.org/2000/svg" width="32" height="32" viewBox="0 0 32 32">
<title>circle-grid-2x2</title>
<path d="M9.515 15.254c2.636 0 4.809-2.173 4.809-4.809s-2.173-4.798-4.809-4.798c-2.658 0-4.809 2.162-4.809 4.798s2.151 4.809 4.809 4.809zM9.515 13.511c-1.732 0-3.088-1.346-3.088-3.066s1.357-3.11 3.088-3.11c1.721 0 3.077 1.39 3.077 3.11s-1.357 3.066-3.077 3.066zM21.658 15.254c2.636 0 4.798-2.173 4.798-4.809s-2.162-4.798-4.798-4.798c-2.658 0-4.809 2.162-4.809 4.798s2.151 4.809 4.809 4.809zM21.658 13.511c-1.743 0-3.088-1.346-3.088-3.066s1.346-3.11 3.088-3.11c1.721 0 3.077 1.39 3.077 3.11s-1.357 3.066-3.077 3.066zM9.515 26.592c2.636 0 4.809-2.173 4.809-4.809 0-2.625-2.173-4.798-4.809-4.798-2.658 0-4.809 2.173-4.809 4.798 0 2.636 2.151 4.809 4.809 4.809zM9.515 24.86c-1.732 0-3.088-1.346-3.088-3.077 0-1.71 1.357-3.11 3.088-3.11 1.721 0 3.077 1.401 3.077 3.11 0 1.732-1.357 3.077-3.077 3.077zM21.658 26.592c2.636 0 4.798-2.173 4.798-4.809 0-2.625-2.162-4.798-4.798-4.798-2.658 0-4.809 2.173-4.809 4.798 0 2.636 2.151 4.809 4.809 4.809zM21.658 24.86c-1.743 0-3.088-1.346-3.088-3.077 0-1.71 1.346-3.11 3.088-3.11 1.721 0 3.077 1.401 3.077 3.11 0 1.732-1.357 3.077-3.077 3.077z"></path>
</svg>
