<!-- Generated by IcoMoon.io -->
<svg version="1.1" xmlns="http://www.w3.org/2000/svg" width="32" height="32" viewBox="0 0 32 32">
<title>circle-grid-2x1-left-filled</title>
<path d="M8.301 22.25c3.518 0 6.408-2.89 6.408-6.419 0-3.518-2.89-6.419-6.408-6.419-3.551 0-6.419 2.901-6.419 6.419 0 3.529 2.868 6.419 6.419 6.419zM24.382 22.25c3.518 0 6.408-2.89 6.408-6.419 0-3.518-2.89-6.419-6.408-6.419-3.54 0-6.419 2.901-6.419 6.419 0 3.529 2.879 6.419 6.419 6.419zM24.382 20.474c-2.559 0-4.643-2.073-4.643-4.643 0-2.559 2.085-4.643 4.643-4.643 2.537 0 4.632 2.107 4.632 4.643 0 2.548-2.096 4.643-4.632 4.643z"></path>
</svg>
