<!-- Generated by IcoMoon.io -->
<svg version="1.1" xmlns="http://www.w3.org/2000/svg" width="32" height="32" viewBox="0 0 32 32">
<title>circle-hexagongrid-circle</title>
<path d="M15.956 27.206c6.154 0 11.25-5.107 11.25-11.25 0-6.154-5.107-11.25-11.261-11.25-6.143 0-11.239 5.096-11.239 11.25 0 6.143 5.107 11.25 11.25 11.25zM15.956 25.331c-5.206 0-9.364-4.169-9.364-9.375s4.147-9.375 9.353-9.375c5.206 0 9.386 4.169 9.386 9.375s-4.169 9.375-9.375 9.375zM13.596 13.64c1.037 0 1.908-0.871 1.908-1.908 0-1.059-0.871-1.93-1.908-1.93-1.059 0-1.93 0.871-1.93 1.93 0 1.037 0.86 1.908 1.93 1.908zM18.294 13.64c1.059 0 1.93-0.871 1.93-1.908 0-1.059-0.871-1.93-1.93-1.93-1.037 0-1.908 0.871-1.908 1.93 0 1.037 0.871 1.908 1.908 1.908zM11.235 17.875c1.048 0 1.919-0.882 1.919-1.93 0-1.037-0.871-1.919-1.919-1.919s-1.919 0.882-1.919 1.919c0 1.048 0.86 1.93 1.919 1.93zM15.945 17.875c1.048 0 1.93-0.882 1.93-1.93 0-1.037-0.882-1.919-1.93-1.919-1.037 0-1.919 0.882-1.919 1.919 0 1.048 0.882 1.93 1.919 1.93zM20.654 17.875c1.059 0 1.93-0.882 1.93-1.93 0-1.037-0.871-1.919-1.93-1.919-1.037 0-1.908 0.882-1.908 1.919 0 1.048 0.871 1.93 1.908 1.93zM13.596 22.099c1.037 0 1.908-0.871 1.908-1.93 0-1.037-0.871-1.908-1.908-1.908-1.059 0-1.93 0.871-1.93 1.908 0 1.048 0.86 1.93 1.93 1.93zM18.294 22.099c1.059 0 1.93-0.871 1.93-1.93 0-1.037-0.871-1.908-1.93-1.908-1.037 0-1.908 0.871-1.908 1.908 0 1.059 0.871 1.93 1.908 1.93z"></path>
</svg>
