<!-- Generated by IcoMoon.io -->
<svg version="1.1" xmlns="http://www.w3.org/2000/svg" width="32" height="32" viewBox="0 0 32 32">
<title>circle-hexagonpath-fill</title>
<path d="M12.107 12.342c1.831 0 3.353-1.522 3.353-3.342 0-1.831-1.522-3.353-3.353-3.353s-3.353 1.522-3.353 3.353c0 1.809 1.511 3.342 3.353 3.342zM20.191 12.342c1.831 0 3.364-1.522 3.364-3.342 0-1.831-1.533-3.353-3.364-3.353s-3.353 1.522-3.353 3.353c0 1.82 1.522 3.342 3.353 3.342zM8.059 19.599c1.842 0 3.364-1.522 3.364-3.353s-1.522-3.353-3.364-3.353c-1.831 0-3.353 1.522-3.353 3.353 0 1.82 1.511 3.353 3.353 3.353zM24.239 19.599c1.831 0 3.353-1.522 3.353-3.353s-1.522-3.353-3.353-3.353c-1.831 0-3.364 1.522-3.364 3.353s1.533 3.353 3.364 3.353zM12.107 26.846c1.831 0 3.353-1.522 3.353-3.353s-1.522-3.353-3.353-3.353c-1.831 0-3.353 1.522-3.353 3.353 0 1.82 1.511 3.353 3.353 3.353zM20.191 26.846c1.831 0 3.364-1.522 3.364-3.353s-1.533-3.353-3.364-3.353c-1.831 0-3.353 1.522-3.353 3.353s1.522 3.353 3.353 3.353z"></path>
</svg>
