<!-- Generated by IcoMoon.io -->
<svg version="1.1" xmlns="http://www.w3.org/2000/svg" width="32" height="32" viewBox="0 0 32 32">
<title>circle-slash</title>
<path d="M20.886 23.919c-1.423 0.893-3.121 1.412-4.941 1.412-5.206 0-9.364-4.169-9.364-9.375 0-1.82 0.518-3.518 1.412-4.941l-1.324-1.335c-1.246 1.787-1.963 3.96-1.963 6.276 0 6.143 5.107 11.25 11.25 11.25 2.316 0 4.467-0.728 6.265-1.952l-1.335-1.334zM25.243 22.232c1.235-1.798 1.963-3.96 1.963-6.276 0-6.154-5.107-11.25-11.261-11.25-2.316 0-4.478 0.728-6.265 1.963l1.335 1.324c1.412-0.893 3.099-1.412 4.919-1.412 5.206 0 9.386 4.169 9.386 9.375 0 1.82-0.518 3.507-1.412 4.941l1.335 1.335zM25.463 26.688c0.331 0.331 0.882 0.32 1.202-0.011 0.331-0.331 0.331-0.871 0-1.202l-20.228-20.228c-0.331-0.331-0.871-0.342-1.213 0-0.32 0.32-0.32 0.871 0 1.202l20.239 20.239z"></path>
</svg>
