<!-- Generated by IcoMoon.io -->
<svg version="1.1" xmlns="http://www.w3.org/2000/svg" width="32" height="32" viewBox="0 0 32 32">
<title>circle-grid-cross-left-filled</title>
<path d="M15.64 12.43c2.636 0 4.809-2.173 4.809-4.809s-2.173-4.798-4.809-4.798c-2.647 0-4.809 2.162-4.809 4.798s2.162 4.809 4.809 4.809zM15.64 10.688c-1.732 0-3.088-1.346-3.088-3.066s1.357-3.11 3.088-3.11c1.732 0 3.077 1.39 3.077 3.11s-1.346 3.066-3.077 3.066zM23.669 20.702c2.625 0 4.798-2.173 4.798-4.809 0-2.625-2.173-4.798-4.798-4.798-2.658 0-4.82 2.173-4.82 4.798 0 2.636 2.162 4.809 4.82 4.809zM23.669 18.971c-1.743 0-3.088-1.346-3.088-3.077 0-1.721 1.346-3.11 3.088-3.11 1.721 0 3.066 1.39 3.066 3.11 0 1.732-1.346 3.077-3.066 3.077zM15.64 28.974c2.636 0 4.809-2.173 4.809-4.809 0-2.625-2.173-4.798-4.809-4.798-2.647 0-4.809 2.173-4.809 4.798 0 2.636 2.162 4.809 4.809 4.809zM15.64 27.243c-1.732 0-3.088-1.346-3.088-3.077 0-1.71 1.357-3.11 3.088-3.11s3.077 1.401 3.077 3.11c0 1.732-1.346 3.077-3.077 3.077zM7.632 20.702c2.636 0 4.809-2.173 4.809-4.809 0-2.625-2.173-4.798-4.809-4.798-2.658 0-4.809 2.173-4.809 4.798 0 2.636 2.151 4.809 4.809 4.809z"></path>
</svg>
