<!-- Generated by IcoMoon.io -->
<svg version="1.1" xmlns="http://www.w3.org/2000/svg" width="32" height="32" viewBox="0 0 32 32">
<title>circle-hexagongrid-circle-fill</title>
<path d="M15.956 27.217c6.154 0 11.25-5.096 11.25-11.25 0-6.143-5.107-11.25-11.261-11.25-6.143 0-11.239 5.107-11.239 11.25 0 6.154 5.107 11.25 11.25 11.25zM13.529 13.596c-1.103 0-1.985-0.904-1.985-1.985s0.893-1.974 1.985-1.974c1.070 0 1.974 0.893 1.974 1.974s-0.904 1.985-1.974 1.985zM18.382 13.596c-1.070 0-1.974-0.904-1.974-1.985s0.904-1.974 1.974-1.974c1.092 0 1.985 0.893 1.985 1.974s-0.893 1.985-1.985 1.985zM11.103 17.952c-1.092 0-1.985-0.915-1.985-1.985s0.904-1.974 1.985-1.974c1.081 0 1.974 0.904 1.974 1.974 0 1.081-0.893 1.985-1.974 1.985zM15.956 17.952c-1.070 0-1.974-0.904-1.974-1.985 0-1.070 0.904-1.974 1.974-1.974 1.081 0 1.985 0.904 1.985 1.974 0 1.081-0.904 1.985-1.985 1.985zM20.809 17.952c-1.070 0-1.963-0.904-1.963-1.985 0-1.070 0.893-1.974 1.963-1.974 1.092 0 1.996 0.904 1.996 1.974 0 1.081-0.904 1.985-1.996 1.985zM13.529 22.298c-1.103 0-1.985-0.904-1.985-1.974 0-1.081 0.893-1.985 1.985-1.985 1.070 0 1.974 0.904 1.974 1.985s-0.904 1.974-1.974 1.974zM18.382 22.298c-1.070 0-1.974-0.893-1.974-1.974s0.904-1.985 1.974-1.985c1.092 0 1.985 0.904 1.985 1.985s-0.893 1.974-1.985 1.974z"></path>
</svg>
