<!-- Generated by IcoMoon.io -->
<svg version="1.1" xmlns="http://www.w3.org/2000/svg" width="32" height="32" viewBox="0 0 32 32">
<title>clear</title>
<path d="M9.11 25.974h13.379c2.316 0 3.463-1.147 3.463-3.419v-13.467c0-2.272-1.147-3.419-3.463-3.419h-13.379c-2.305 0-3.463 1.136-3.463 3.419v13.467c0 2.283 1.158 3.419 3.463 3.419zM9.132 24.198c-1.103 0-1.71-0.585-1.71-1.732v-13.29c0-1.147 0.607-1.732 1.71-1.732h13.335c1.092 0 1.71 0.585 1.71 1.732v13.29c0 1.147-0.618 1.732-1.71 1.732h-13.335zM12.044 20.471c0.254 0 0.474-0.099 0.64-0.276l3.121-3.132 3.143 3.132c0.165 0.165 0.375 0.276 0.629 0.276 0.496 0 0.882-0.397 0.882-0.893 0-0.254-0.088-0.452-0.265-0.629l-3.132-3.132 3.143-3.154c0.187-0.187 0.265-0.375 0.265-0.618 0-0.485-0.386-0.882-0.882-0.882-0.232 0-0.419 0.088-0.607 0.276l-3.176 3.143-3.143-3.132c-0.165-0.176-0.364-0.265-0.618-0.265-0.485 0-0.882 0.386-0.882 0.871 0 0.243 0.099 0.452 0.265 0.618l3.132 3.143-3.132 3.143c-0.165 0.165-0.265 0.375-0.265 0.618 0 0.496 0.397 0.893 0.882 0.893z"></path>
</svg>
