<!-- Generated by IcoMoon.io -->
<svg version="1.1" xmlns="http://www.w3.org/2000/svg" width="32" height="32" viewBox="0 0 32 32">
<title>clear-fill</title>
<path d="M9.11 25.974h13.379c2.316 0 3.463-1.147 3.463-3.419v-13.467c0-2.272-1.147-3.419-3.463-3.419h-13.379c-2.305 0-3.463 1.136-3.463 3.419v13.467c0 2.283 1.158 3.419 3.463 3.419zM12.099 20.437c-0.507 0-0.904-0.408-0.904-0.915 0-0.243 0.088-0.474 0.265-0.64l3.055-3.066-3.055-3.055c-0.176-0.176-0.265-0.397-0.265-0.64 0-0.518 0.397-0.904 0.904-0.904 0.254 0 0.452 0.088 0.629 0.254l3.077 3.066 3.099-3.077c0.188-0.187 0.397-0.265 0.629-0.265 0.507 0 0.915 0.397 0.915 0.904 0 0.254-0.077 0.452-0.265 0.651l-3.077 3.066 3.066 3.055c0.176 0.165 0.265 0.397 0.265 0.651 0 0.507-0.408 0.915-0.926 0.915-0.243 0-0.485-0.088-0.651-0.265l-3.055-3.066-3.044 3.066c-0.176 0.176-0.408 0.265-0.662 0.265z"></path>
</svg>
