<!-- Generated by IcoMoon.io -->
<svg version="1.1" xmlns="http://www.w3.org/2000/svg" width="32" height="32" viewBox="0 0 32 32">
<title>clipboard</title>
<path d="M10.007 28.607h11.713c2.283 0 3.419-1.147 3.419-3.463v-16.721c0-2.261-1.092-3.463-3.298-3.463h-0.265c0.011 0.088 0.011 0.188 0.011 0.276v0.993c0 0.176-0.011 0.353-0.044 0.507h0.265c1.037 0 1.555 0.673 1.555 1.71v16.676c0 1.103-0.585 1.71-1.732 1.71h-11.537c-1.147 0-1.732-0.607-1.732-1.71v-16.676c0-1.037 0.518-1.71 1.555-1.71h0.265c-0.033-0.154-0.044-0.331-0.044-0.507v-0.993c0-0.088 0-0.188 0.011-0.276h-0.265c-2.206 0-3.298 1.202-3.298 3.463v16.721c0 2.316 1.136 3.463 3.419 3.463zM12.456 7.485h6.816c0.64 0 1.026-0.408 1.026-1.092v-1.158c0-0.684-0.386-1.092-1.026-1.092h-1.015c-0.077-1.246-1.114-2.261-2.393-2.261s-2.316 1.015-2.393 2.261h-1.015c-0.64 0-1.026 0.408-1.026 1.092v1.158c0 0.684 0.386 1.092 1.026 1.092zM15.864 5.191c-0.529 0-0.96-0.441-0.96-0.96 0-0.54 0.43-0.971 0.96-0.971s0.96 0.43 0.96 0.971c0 0.518-0.43 0.96-0.96 0.96z"></path>
</svg>
