<!-- Generated by IcoMoon.io -->
<svg version="1.1" xmlns="http://www.w3.org/2000/svg" width="32" height="32" viewBox="0 0 32 32">
<title>clipboard-fill</title>
<path d="M10.007 28.607h11.713c2.283 0 3.419-1.147 3.419-3.463v-16.732c0-2.316-1.136-3.463-3.309-3.463h-0.254c0 0.044 0 0.099 0 0.143v1.301c0 1.39-0.938 2.371-2.305 2.371h-6.816c-1.368 0-2.305-0.982-2.305-2.371v-1.301c0-0.044 0-0.099 0-0.143h-0.254c-2.173 0-3.309 1.147-3.309 3.463v16.732c0 2.316 1.136 3.463 3.419 3.463zM12.456 7.485h6.816c0.64 0 1.026-0.408 1.026-1.092v-1.158c0-0.684-0.386-1.092-1.026-1.092h-1.015c-0.077-1.246-1.114-2.261-2.393-2.261s-2.316 1.015-2.393 2.261h-1.015c-0.64 0-1.026 0.408-1.026 1.092v1.158c0 0.684 0.386 1.092 1.026 1.092zM15.864 5.191c-0.529 0-0.96-0.441-0.96-0.96 0-0.54 0.43-0.971 0.96-0.971s0.96 0.43 0.96 0.971c0 0.518-0.43 0.96-0.96 0.96z"></path>
</svg>
