<!-- Generated by IcoMoon.io -->
<svg version="1.1" xmlns="http://www.w3.org/2000/svg" width="32" height="32" viewBox="0 0 32 32">
<title>clock-arrow-2-circlepath</title>
<path d="M15.796 9.493c-0.485 0-0.882 0.386-0.882 0.871v6.154c0 0.254 0.077 0.474 0.265 0.717l2.724 3.596c0.364 0.474 0.871 0.552 1.324 0.243 0.408-0.287 0.441-0.805 0.11-1.257l-3.673-4.952 1.004 3.088v-7.588c0-0.485-0.386-0.871-0.871-0.871zM16.215 4.706c-5.426 0-10.037 3.96-11.040 9.121h-1.566c-0.794 0-0.993 0.54-0.563 1.158l2.471 3.507c0.364 0.507 0.893 0.496 1.246 0l2.471-3.518c0.419-0.607 0.221-1.147-0.563-1.147h-1.588c0.949-4.169 4.654-7.235 9.132-7.235 3.143 0.011 5.901 1.522 7.588 3.871 0.331 0.452 0.86 0.596 1.313 0.309 0.452-0.265 0.573-0.871 0.198-1.357-2.096-2.813-5.382-4.71-9.099-4.71zM16.215 27.206c5.427 0 10.037-3.971 11.040-9.121h1.555c0.794 0 1.004-0.54 0.562-1.158l-2.46-3.507c-0.364-0.507-0.893-0.496-1.246 0l-2.471 3.518c-0.43 0.607-0.221 1.147 0.563 1.147h1.599c-0.96 4.158-4.677 7.246-9.143 7.246-3.143-0.011-5.901-1.533-7.588-3.882-0.342-0.452-0.86-0.596-1.324-0.32-0.441 0.276-0.563 0.882-0.188 1.368 2.096 2.813 5.382 4.71 9.099 4.71z"></path>
</svg>
