<!-- Generated by IcoMoon.io -->
<svg version="1.1" xmlns="http://www.w3.org/2000/svg" width="32" height="32" viewBox="0 0 32 32">
<title>clock-circle</title>
<path d="M15.956 27.206c6.154 0 11.25-5.107 11.25-11.25 0-6.154-5.107-11.25-11.261-11.25-6.143 0-11.239 5.096-11.239 11.25 0 6.143 5.107 11.25 11.25 11.25zM15.956 25.331c-5.206 0-9.364-4.169-9.364-9.375s4.147-9.375 9.353-9.375c5.206 0 9.386 4.169 9.386 9.375s-4.169 9.375-9.375 9.375zM12.945 16.706c-0.309 0-0.54-0.221-0.54-0.529s0.232-0.529 0.54-0.529h2.471v-3.364c0-0.298 0.232-0.529 0.529-0.529 0.309 0 0.551 0.232 0.551 0.529v3.893c0 0.298-0.254 0.529-0.551 0.529h-3zM15.956 21.879c3.232 0 5.923-2.691 5.923-5.923s-2.691-5.923-5.934-5.923c-3.232 0-5.912 2.691-5.912 5.923s2.691 5.923 5.923 5.923z"></path>
</svg>
