<!-- Generated by IcoMoon.io -->
<svg version="1.1" xmlns="http://www.w3.org/2000/svg" width="32" height="32" viewBox="0 0 32 32">
<title>clock-arrow-circlepath</title>
<path d="M16.737 9.493c-0.485 0-0.882 0.386-0.882 0.871v6.154c0 0.254 0.077 0.474 0.265 0.717l2.724 3.596c0.364 0.474 0.871 0.552 1.324 0.243 0.408-0.287 0.441-0.805 0.11-1.257l-3.673-4.952 1.004 3.088v-7.588c0-0.485-0.386-0.871-0.871-0.871zM17.156 27.206c6.143 0 11.25-5.107 11.25-11.25 0-6.154-5.107-11.25-11.25-11.25-6.154 0-11.25 5.085-11.25 11.239h1.875c0-5.206 4.169-9.353 9.375-9.353s9.375 4.158 9.375 9.364c0 5.206-4.169 9.397-9.375 9.375-3.143-0.011-5.901-1.533-7.588-3.882-0.342-0.452-0.86-0.596-1.323-0.32-0.441 0.276-0.563 0.882-0.188 1.368 2.096 2.813 5.382 4.71 9.099 4.71zM4.549 13.827c-0.794 0-0.993 0.54-0.563 1.158l2.471 3.507c0.364 0.507 0.893 0.496 1.246 0l2.471-3.518c0.419-0.607 0.221-1.147-0.563-1.147h-5.063z"></path>
</svg>
