<!-- Generated by IcoMoon.io -->
<svg version="1.1" xmlns="http://www.w3.org/2000/svg" width="32" height="32" viewBox="0 0 32 32">
<title>clock-fill</title>
<path d="M10.187 17.147c-0.441 0-0.772-0.331-0.772-0.772 0-0.43 0.331-0.761 0.772-0.761h4.996v-6.673c0-0.43 0.331-0.761 0.761-0.761s0.772 0.331 0.772 0.761v7.434c0 0.441-0.342 0.772-0.772 0.772h-5.757zM15.956 27.206c6.154 0 11.25-5.107 11.25-11.25 0-6.154-5.107-11.25-11.261-11.25-6.143 0-11.239 5.096-11.239 11.25 0 6.143 5.107 11.25 11.25 11.25z"></path>
</svg>
