<!-- Generated by IcoMoon.io -->
<svg version="1.1" xmlns="http://www.w3.org/2000/svg" width="32" height="32" viewBox="0 0 32 32">
<title>clock-circle-fill</title>
<path d="M15.956 27.206c6.154 0 11.25-5.107 11.25-11.25 0-6.154-5.107-11.25-11.261-11.25-6.143 0-11.239 5.096-11.239 11.25 0 6.143 5.107 11.25 11.25 11.25zM12.857 16.728h3.088c0.309 0 0.574-0.232 0.574-0.54v-4.015c0-0.309-0.254-0.551-0.574-0.551-0.309 0-0.551 0.243-0.551 0.551v3.463h-2.537c-0.32 0-0.563 0.232-0.563 0.551s0.243 0.54 0.563 0.54zM15.956 22.055c-3.331 0-6.11-2.768-6.11-6.099s2.768-6.11 6.099-6.11c3.342 0 6.121 2.779 6.121 6.11s-2.779 6.099-6.11 6.099z"></path>
</svg>
