<!-- Generated by IcoMoon.io -->
<svg version="1.1" xmlns="http://www.w3.org/2000/svg" width="32" height="32" viewBox="0 0 32 32">
<title>clock</title>
<path d="M10.187 17.147h5.757c0.43 0 0.772-0.331 0.772-0.772v-7.434c0-0.43-0.342-0.761-0.772-0.761s-0.761 0.331-0.761 0.761v6.673h-4.996c-0.441 0-0.772 0.331-0.772 0.761 0 0.441 0.331 0.772 0.772 0.772zM15.956 27.206c6.154 0 11.25-5.107 11.25-11.25 0-6.154-5.107-11.25-11.261-11.25-6.143 0-11.239 5.096-11.239 11.25 0 6.143 5.107 11.25 11.25 11.25zM15.956 25.331c-5.206 0-9.364-4.169-9.364-9.375s4.147-9.375 9.353-9.375c5.206 0 9.386 4.169 9.386 9.375s-4.169 9.375-9.375 9.375z"></path>
</svg>
