<!-- Generated by IcoMoon.io -->
<svg version="1.1" xmlns="http://www.w3.org/2000/svg" width="32" height="32" viewBox="0 0 32 32">
<title>cloud-bolt</title>
<path d="M8.949 19.802h13.688c3.618 0 6.309-2.746 6.309-6.143 0-3.518-2.868-6.088-6.607-6.088-1.379-2.724-3.938-4.478-7.125-4.478-4.147 0-7.566 3.254-7.93 7.346-1.996 0.585-3.518 2.316-3.518 4.643 0 2.614 1.897 4.721 5.184 4.721zM8.926 18.037c-2.261 0-3.397-1.268-3.397-2.901 0-1.323 0.772-2.515 2.647-3.011 0.607-0.165 0.827-0.452 0.882-1.070 0.254-3.607 2.956-6.199 6.154-6.199 2.482 0 4.434 1.368 5.625 3.805 0.254 0.54 0.585 0.728 1.235 0.728 3.265 0 5.107 1.963 5.107 4.313 0 2.404-1.919 4.335-4.434 4.335h-13.82zM19.007 23.894h-2.504l-0.022 0.496 1.346-2.581c0.132-0.243 0.033-0.43-0.209-0.43h-2.393c-0.32 0-0.43 0.11-0.529 0.342l-1.5 3.419c-0.121 0.276 0 0.441 0.287 0.441h2.040l0.143-0.651-1.776 4.312c-0.055 0.143-0.022 0.265 0.077 0.309s0.221 0.011 0.342-0.11l4.875-4.996c0.232-0.243 0.143-0.551-0.176-0.551z"></path>
</svg>
