<!-- Generated by IcoMoon.io -->
<svg version="1.1" xmlns="http://www.w3.org/2000/svg" width="32" height="32" viewBox="0 0 32 32">
<title>cloud-bolt-rain-circle-fill</title>
<path d="M15.956 27.217c6.154 0 11.25-5.096 11.25-11.25 0-6.143-5.107-11.25-11.261-11.25-6.143 0-11.239 5.107-11.239 11.25 0 6.154 5.107 11.25 11.25 11.25zM12.294 17.092c-1.621 0-2.559-1.048-2.559-2.327 0-1.169 0.75-2.007 1.732-2.305 0.187-2.018 1.886-3.64 3.927-3.64 1.577 0 2.835 0.882 3.529 2.217 1.842 0 3.265 1.279 3.265 3.022 0 1.665-1.357 3.033-3.121 3.033h-6.772zM14.037 20.324l0.926-2.14c0.055-0.154 0.154-0.209 0.353-0.209h1.522c0.165 0 0.21 0.121 0.143 0.276l-0.673 1.279h1.39c0.221 0 0.276 0.198 0.132 0.364l-3.077 3.121c-0.077 0.099-0.154 0.11-0.221 0.099-0.066-0.055-0.088-0.132-0.044-0.232l0.915-2.261h-1.18c-0.199 0-0.276-0.143-0.187-0.298zM12.206 20.577c-0.154 0.243-0.463 0.331-0.717 0.198-0.243-0.154-0.331-0.474-0.187-0.728l0.805-1.39c0.143-0.243 0.452-0.331 0.706-0.198 0.265 0.154 0.342 0.474 0.198 0.717l-0.805 1.401zM19.805 20.577c-0.143 0.243-0.452 0.331-0.706 0.198-0.254-0.154-0.342-0.474-0.199-0.728l0.805-1.39c0.154-0.243 0.463-0.331 0.717-0.198 0.243 0.154 0.342 0.474 0.187 0.717l-0.805 1.401z"></path>
</svg>
