<!-- Generated by IcoMoon.io -->
<svg version="1.1" xmlns="http://www.w3.org/2000/svg" width="32" height="32" viewBox="0 0 32 32">
<title>cloud-bolt-rain-circle</title>
<path d="M15.956 27.206c6.154 0 11.25-5.107 11.25-11.25 0-6.154-5.107-11.25-11.261-11.25-6.143 0-11.239 5.096-11.239 11.25 0 6.143 5.107 11.25 11.25 11.25zM15.956 25.331c-5.206 0-9.364-4.169-9.364-9.375s4.147-9.375 9.353-9.375c5.206 0 9.386 4.169 9.386 9.375s-4.169 9.375-9.375 9.375zM12.404 17.048h6.574c1.71 0 3.022-1.324 3.022-2.956 0-1.688-1.379-2.912-3.165-2.912-0.673-1.301-1.897-2.162-3.419-2.162-1.985 0-3.629 1.577-3.816 3.54-0.949 0.276-1.676 1.103-1.676 2.228 0 1.246 0.904 2.261 2.482 2.261zM14.103 20.169c-0.088 0.165-0.011 0.298 0.176 0.298h1.147l-0.893 2.184c-0.044 0.099-0.022 0.187 0.044 0.221 0.066 0.022 0.143 0 0.221-0.077l2.967-3.033c0.143-0.154 0.088-0.353-0.121-0.353h-1.346l0.651-1.246c0.066-0.143 0.022-0.276-0.143-0.276h-1.467c-0.187 0-0.287 0.066-0.342 0.21l-0.893 2.073zM12.316 20.412l0.783-1.346c0.143-0.243 0.066-0.551-0.187-0.695-0.243-0.132-0.541-0.055-0.684 0.188l-0.783 1.357c-0.132 0.243-0.055 0.551 0.187 0.684 0.243 0.143 0.54 0.055 0.684-0.187zM19.684 20.412l0.783-1.346c0.143-0.243 0.055-0.551-0.187-0.695-0.243-0.132-0.54-0.055-0.684 0.188l-0.783 1.357c-0.143 0.243-0.055 0.551 0.187 0.684 0.243 0.143 0.54 0.055 0.684-0.187z"></path>
</svg>
