<!-- Generated by IcoMoon.io -->
<svg version="1.1" xmlns="http://www.w3.org/2000/svg" width="32" height="32" viewBox="0 0 32 32">
<title>cloud</title>
<path d="M8.228 24.989h14.36c3.717 0 6.596-2.813 6.596-6.408 0-3.629-2.945-6.364-6.949-6.364-1.467-2.912-4.158-4.688-7.434-4.688-4.279 0-7.897 3.32-8.283 7.721-2.206 0.629-3.695 2.482-3.695 4.831 0 2.713 1.974 4.908 5.404 4.908zM8.206 23.213c-2.261 0-3.607-1.224-3.607-3.077 0-1.588 1.015-2.735 2.801-3.209 0.618-0.154 0.849-0.441 0.893-1.081 0.265-3.739 3.066-6.54 6.507-6.54 2.658 0 4.71 1.478 5.945 4.015 0.265 0.541 0.585 0.728 1.257 0.728 3.452 0 5.393 2.085 5.393 4.577 0 2.57-2.051 4.588-4.688 4.588h-14.504z"></path>
</svg>
